<?xml version="1.0" encoding="UTF-8"?>
<svg width="12px" height="10px" viewBox="0 0 12 10" version="1.1" xmlns="http://www.w3.org/2000/svg" xmlns:xlink="http://www.w3.org/1999/xlink">
    <title>icon-data-changed</title>
    <g id="Page-1" stroke="none" stroke-width="1" fill="none" fill-rule="evenodd">
        <g id="Text-Badge-Overview-v3" transform="translate(-62.000000, -1781.000000)" fill="#FFFFFF">
            <g id="DATA-EDITED-TEXT-BADGES" transform="translate(49.000000, 1297.000000)">
                <g id="icon-svgs" transform="translate(10.000000, 394.000000)">
                    <g id="Data-Changed" transform="translate(0.000000, 86.000000)">
                        <g id="icon-data-changed" transform="translate(3.000000, 4.000000)">
                            <path d="M0.462240426,4.41323302 C0.49587176,4.41302877 0.529426,4.41647385 0.562314172,4.42350781 L4.39579757,5.24339391 C4.64692348,5.29710345 4.80696106,5.54422141 4.75325152,5.79534731 C4.73064424,5.90105055 4.67191668,5.99557517 4.5871661,6.06266917 L3.339,7.05 L3.3901535,7.11598569 C4.07242086,7.9344209 4.93874385,8.34363851 5.98912249,8.34363851 C6.86701243,8.34363851 7.63949616,8.05778555 8.30657369,7.48607963 C8.6483263,7.19317618 9.15167119,7.1900311 9.49706265,7.47863467 C9.84218138,7.76701035 9.88818071,8.28055903 9.59980503,8.62567776 C9.57697845,8.65299588 9.55238505,8.67878776 9.52620646,8.70291274 C8.58604889,9.56763758 7.4070209,10 5.98912249,10 C4.36011148,10 3.02203442,9.37701031 1.97489131,8.13103092 L0.776982055,9.07905533 C0.575634729,9.23845479 0.283191675,9.20444933 0.123792213,9.003102 C0.0593611826,8.92171518 0.0240157746,8.82110938 0.0233853421,8.71730776 L8.59876304e-05,4.8810355 C-0.00147367386,4.62423499 0.205439916,4.41479269 0.462240426,4.41323302 Z M6.03883019,6.70574707e-14 C7.65467925,1.00670906e-13 8.98427669,0.612963198 10.0276225,1.83888959 L11.2230179,0.893103649 C11.4243653,0.733704186 11.7168083,0.767709649 11.8762078,0.969056975 C11.9406388,1.0504438 11.9759842,1.1510496 11.9766147,1.25485122 L11.999914,5.09112348 C12.0014737,5.34792399 11.7945601,5.55736629 11.5377596,5.55892595 C11.5041282,5.55913021 11.470574,5.55568513 11.4376858,5.54865117 L7.60420243,4.72876507 C7.35307652,4.67505552 7.19303894,4.42793757 7.24674848,4.17681167 C7.26935576,4.07110842 7.32808332,3.97658381 7.4128339,3.90948981 L8.664,2.918 L8.63779918,2.88401431 C7.95553182,2.0655791 7.08920883,1.65636149 6.03883019,1.65636149 C5.16281796,1.65636149 4.3917615,1.94099295 3.72566083,2.51025587 C3.38107029,2.80473645 2.87410298,2.80699248 2.52691176,2.51558262 C2.18093503,2.22519213 2.13587349,1.70931458 2.42626398,1.36333786 C2.44999768,1.33506107 2.4756187,1.30842369 2.50297505,1.28363466 C3.44554154,0.427878219 4.62415992,4.17443857e-14 6.03883019,6.70574707e-14 Z" id="icon-changed"></path>
                        </g>
                    </g>
                </g>
            </g>
        </g>
    </g>
</svg>