<?xml version="1.0" encoding="UTF-8"?>
<svg width="10px" height="11px" viewBox="0 0 10 11" version="1.1" xmlns="http://www.w3.org/2000/svg" xmlns:xlink="http://www.w3.org/1999/xlink">
    <title>icon-deleted</title>
    <g id="Page-1" stroke="none" stroke-width="1" fill="none" fill-rule="evenodd">
        <g id="Text-Badge-Overview-v3" transform="translate(-63.000000, -1748.000000)" fill="#FFFFFF">
            <g id="DATA-EDITED-TEXT-BADGES" transform="translate(49.000000, 1297.000000)">
                <g id="icon-svgs" transform="translate(10.000000, 394.000000)">
                    <g id="Data-Deleted" transform="translate(0.000000, 53.000000)">
                        <g id="icon-deleted" transform="translate(4.447388, 4.642787)">
                            <path d="M7.40555555,0.269604528 C7.79607984,-0.0979477461 8.41062232,-0.0793252468 8.77817459,0.311199045 L8.77817459,0.311199045 L8.84023225,0.377135301 C9.20263226,0.762185311 9.20263226,1.36281469 8.84023225,1.7478647 L8.84023225,1.7478647 L5.949,4.819 L8.84023225,7.89014485 C9.20263226,8.27519486 9.20263226,8.87582424 8.84023225,9.26087425 L8.77817459,9.32681051 C8.41062232,9.7173348 7.79607984,9.7359573 7.40555555,9.36840502 L7.36396103,9.32681051 L7.36396103,9.32681051 L4.535,6.321 L1.70710678,9.32681051 L1.70710678,9.32681051 L1.66551226,9.36840502 C1.27498797,9.7359573 0.660445493,9.7173348 0.292893219,9.32681051 L0.292893219,9.32681051 L0.230835566,9.26087425 C-0.131564444,8.87582424 -0.131564444,8.27519486 0.230835566,7.89014485 L0.230835566,7.89014485 L3.121,4.819 L0.230835566,1.7478647 C-0.131564444,1.36281469 -0.131564444,0.762185311 0.230835566,0.377135301 L0.292893219,0.311199045 C0.660445493,-0.0793252468 1.27498797,-0.0979477461 1.66551226,0.269604528 L1.70710678,0.311199045 L1.70710678,0.311199045 L4.535,3.316 L7.36396103,0.311199045 L7.36396103,0.311199045 Z" id="Combined-Shape"></path>
                        </g>
                    </g>
                </g>
            </g>
        </g>
    </g>
</svg>