<?xml version="1.0" encoding="UTF-8"?>
<svg width="16px" height="16px" viewBox="0 0 16 16" version="1.1" xmlns="http://www.w3.org/2000/svg" xmlns:xlink="http://www.w3.org/1999/xlink">
    <title>icon-update-blue</title>
    <g id="APPLICATION-Child-Window" stroke="none" stroke-width="1" fill="none" fill-rule="evenodd">
        <g id="Application---Correspondence-Editor-Child-Window" transform="translate(-839.000000, -207.000000)" fill="#0573BB">
            <g id="Page-Content" transform="translate(-0.391155, 58.000000)">
                <g id="Controls" transform="translate(0.000000, 139.000000)">
                    <g id="Refresh" transform="translate(839.391155, 8.000000)">
                        <g id="icon-update-blue" transform="translate(8.000000, 10.000000) scale(-1, 1) translate(-8.000000, -10.000000) translate(0.000000, 2.000000)">
                            <path d="M15,9 C15.5522848,9 16,9.44771525 16,10 L16,14.1798096 C16,14.7320943 15.5522848,15.1798096 15,15.1798096 L14.9907227,15.1798096 C14.4384379,15.1798096 13.9907227,14.7320943 13.9907227,14.1798096 L13.9904867,12.2606061 C12.6921985,14.496511 10.2716786,16 7.5,16 C4.37079506,16 1.68918559,14.083616 0.564778015,11.3604544 C0.528005461,11.2465701 0.504699707,11.1260067 0.504699707,11 C0.504699707,10.4477153 0.952414957,10 1.50469971,10 C1.88686103,10 2.21895295,10.2143726 2.38728354,10.5294258 C2.38789753,10.5328671 2.38909023,10.5358612 2.39028548,10.5388541 C2.41686175,10.5859466 2.43829169,10.6366391 2.45547624,10.6892514 C3.29963027,12.637777 5.24073302,14 7.5,14 C9.63120858,14 11.4792987,12.7878259 12.392429,11.0153191 L10.8288574,11.0152588 C10.2765727,11.0152588 9.82885742,10.5675435 9.82885742,10.0152588 L9.82885742,10 C9.82885742,9.44771525 10.2765727,9 10.8288574,9 L15,9 Z M1.00927734,0.89074707 C1.56156209,0.89074707 2.00927734,1.33846232 2.00927734,1.89074707 L2.00931371,3.39090842 C3.37860964,1.91999744 5.33186636,1 7.5,1 C10.1451533,1 12.4704764,2.36935549 13.8057463,4.43784324 C13.815201,4.45147164 13.8244777,4.46585352 13.8333893,4.4804822 C13.8486694,4.50501755 13.8637679,4.5290617 13.8787332,4.55319708 C13.9412536,4.68905948 13.9787598,4.84014973 13.9787598,5 C13.9787598,5.55228475 13.5310445,6 12.9787598,6 C12.5773767,6 12.2312264,5.76352026 12.0720334,5.42228533 L12.0618772,5.42666111 C11.0736414,3.96266121 9.39924149,3 7.5,3 C5.78219446,3 4.24832387,3.78751909 3.23972735,5.02121814 L5.19314575,5.02105713 C5.73961574,5.02105713 6.18261719,5.46405858 6.18261719,6.01052856 C6.18261719,6.55699855 5.73961574,7 5.19314575,7 L1,7 C0.44771525,7 2.52338594e-10,6.55228475 2.52337706e-10,6 L2.52337706e-10,1.89074707 C2.52338594e-10,1.33846232 0.44771525,0.89074707 1,0.89074707 L1.00927734,0.89074707 Z" id="icon-update"></path>
                        </g>
                    </g>
                </g>
            </g>
        </g>
    </g>
</svg>