<?xml version="1.0" encoding="UTF-8"?>
<svg width="85px" height="18px" viewBox="0 0 85 18" version="1.1" xmlns="http://www.w3.org/2000/svg" xmlns:xlink="http://www.w3.org/1999/xlink">
    <title>label-removed</title>
    <g id="Page-1-Icons" stroke="none" stroke-width="1" fill="none" fill-rule="evenodd">
        <g id="PECOS-2.0-Icons-Overview-v31" transform="translate(-2505.000000, -884.000000)">
            <g id="DATA-EDITED" transform="translate(2495.000000, 812.000000)">
                <g id="label-removed" transform="translate(10.000000, 72.000000)">
                    <rect id="red-label-bgd" fill="#E00F16" x="0" y="0" width="85" height="18"></rect>
                    <path d="M49.1816406,4.29882812 C50.4550781,4.29882812 51.4394531,4.68359375 52.1347656,5.453125 C52.8300781,6.22265625 53.1777344,7.30664062 53.1777344,8.70507812 C53.1777344,10.0996094 52.8291016,11.1835938 52.1318359,11.9570312 C51.4345703,12.7304688 50.4472656,13.1171875 49.1699219,13.1171875 C47.8769531,13.1171875 46.8837891,12.7333984 46.1904297,11.9658203 C45.4970703,11.1982422 45.1503906,10.1074219 45.1503906,8.69335938 C45.1503906,7.27929688 45.4990234,6.19335938 46.1962891,5.43554688 C46.8935547,4.67773438 47.8886719,4.29882812 49.1816406,4.29882812 Z M22.5507812,4.43359375 C23.65625,4.43359375 24.4746094,4.640625 25.0058594,5.0546875 C25.5371094,5.46875 25.8027344,6.09375 25.8027344,6.9296875 C25.8027344,7.99609375 25.2480469,8.75585938 24.1386719,9.20898438 L26.5585938,13 L24.9648438,13 L22.9140625,9.578125 L21.53125,9.578125 L21.53125,13 L20.1308594,13 L20.1308594,4.43359375 L22.5507812,4.43359375 Z M32.6464844,4.43359375 L32.6464844,5.6171875 L29.2011719,5.6171875 L29.2011719,7.94921875 L32.4296875,7.94921875 L32.4296875,9.12109375 L29.2011719,9.12109375 L29.2011719,11.8105469 L32.6464844,11.8105469 L32.6464844,13 L27.8007812,13 L27.8007812,4.43359375 L32.6464844,4.43359375 Z M36.4726562,4.43359375 L38.8515625,11.2480469 L38.8867188,11.2480469 L41.3359375,4.43359375 L43.3164062,4.43359375 L43.3164062,13 L41.96875,13 L41.96875,8.76367188 C41.96875,8.33789062 41.9794922,7.78320312 42.0009766,7.09960938 C42.0224609,6.41601562 42.0410156,6.00195312 42.0566406,5.85742188 L42.0097656,5.85742188 L39.4375,13 L38.2011719,13 L35.7167969,5.84570312 L35.6699219,5.84570312 C35.7363281,6.90820312 35.7695312,7.90429688 35.7695312,8.83398438 L35.7695312,13 L34.4980469,13 L34.4980469,4.43359375 L36.4726562,4.43359375 Z M55.328125,4.43359375 L57.1152344,9.75976562 C57.2089844,10.0136719 57.3085938,10.3408203 57.4140625,10.7412109 C57.5195312,11.1416016 57.5878906,11.4394531 57.6191406,11.6347656 C57.6699219,11.3378906 57.7480469,10.9941406 57.8535156,10.6035156 C57.9589844,10.2128906 58.0449219,9.92382812 58.1113281,9.73632812 L59.8984375,4.43359375 L61.3515625,4.43359375 L58.3515625,13 L56.875,13 L53.8867188,4.43359375 L55.328125,4.43359375 Z M67.328125,4.43359375 L67.328125,5.6171875 L63.8828125,5.6171875 L63.8828125,7.94921875 L67.1113281,7.94921875 L67.1113281,9.12109375 L63.8828125,9.12109375 L63.8828125,11.8105469 L67.328125,11.8105469 L67.328125,13 L62.4824219,13 L62.4824219,4.43359375 L67.328125,4.43359375 Z M71.828125,4.43359375 C73.1914062,4.43359375 74.2519531,4.80078125 75.0097656,5.53515625 C75.7675781,6.26953125 76.1464844,7.30273438 76.1464844,8.63476562 C76.1464844,10.0488281 75.7539062,11.1298828 74.96875,11.8779297 C74.1835938,12.6259766 73.0527344,13 71.5761719,13 L69.1796875,13 L69.1796875,4.43359375 L71.828125,4.43359375 Z M49.1816406,5.5 C48.3417969,5.5 47.7080078,5.77148438 47.2802734,6.31445312 C46.8525391,6.85742188 46.6386719,7.65429688 46.6386719,8.70507812 C46.6386719,9.75976562 46.8515625,10.5595703 47.2773438,11.1044922 C47.703125,11.6494141 48.3339844,11.921875 49.1699219,11.921875 C50.0019531,11.921875 50.6298828,11.6523438 51.0537109,11.1132812 C51.4775391,10.5742188 51.6894531,9.77148438 51.6894531,8.70507812 C51.6894531,7.65429688 51.4794922,6.85742188 51.0595703,6.31445312 C50.6396484,5.77148438 50.0136719,5.5 49.1816406,5.5 Z M71.7929688,5.60546875 L70.5800781,5.60546875 L70.5800781,11.8222656 L71.5761719,11.8222656 C73.6386719,11.8222656 74.6699219,10.7753906 74.6699219,8.68164062 C74.6699219,6.63085938 73.7109375,5.60546875 71.7929688,5.60546875 Z M22.4570312,5.6171875 L21.53125,5.6171875 L21.53125,8.41796875 L22.5039062,8.41796875 C23.15625,8.41796875 23.6289062,8.296875 23.921875,8.0546875 C24.2148438,7.8125 24.3613281,7.453125 24.3613281,6.9765625 C24.3613281,6.4921875 24.203125,6.14453125 23.8867188,5.93359375 C23.5703125,5.72265625 23.09375,5.6171875 22.4570312,5.6171875 Z" id="Removed" fill="#FFFFFF" fill-rule="nonzero"></path>
                    <g id="icon-x" transform="translate(5.000000, 3.187500)" fill="#FFFFFF">
                        <path d="M7.85294324,0.72489103 C8.24346753,0.357338756 8.85801001,0.375961255 9.22556229,0.766485547 L9.22556229,0.766485547 L9.28761994,0.832421803 C9.65001995,1.21747181 9.65001995,1.81810119 9.28761994,2.2031512 L9.28761994,2.2031512 L6.39638769,5.2742865 L9.28761994,8.34543135 C9.65001995,8.73048136 9.65001995,9.33111074 9.28761994,9.71616075 L9.22556229,9.78209701 C8.85801001,10.1726213 8.24346753,10.1912438 7.85294324,9.82369152 L7.81134873,9.78209701 L7.81134873,9.78209701 L4.98238769,6.7762865 L2.15449448,9.78209701 L2.15449448,9.78209701 L2.11289996,9.82369152 C1.72237567,10.1912438 1.10783319,10.1726213 0.740280913,9.78209701 L0.740280913,9.78209701 L0.678223261,9.71616075 C0.315823251,9.33111074 0.315823251,8.73048136 0.678223261,8.34543135 L0.678223261,8.34543135 L3.56838769,5.2742865 L0.678223261,2.2031512 C0.315823251,1.81810119 0.315823251,1.21747181 0.678223261,0.832421803 L0.740280913,0.766485547 C1.10783319,0.375961255 1.72237567,0.357338756 2.11289996,0.72489103 L2.15449448,0.766485547 L2.15449448,0.766485547 L4.98238769,3.7712865 L7.81134873,0.766485547 L7.81134873,0.766485547 Z" id="Combined-Shape"></path>
                    </g>
                </g>
            </g>
        </g>
    </g>
</svg>