<?xml version="1.0" encoding="UTF-8"?>
<svg width="85px" height="18px" viewBox="0 0 85 18" version="1.1" xmlns="http://www.w3.org/2000/svg" xmlns:xlink="http://www.w3.org/1999/xlink">
    <title>label-added</title>
    <g id="Page-1-Icons" stroke="none" stroke-width="1" fill="none" fill-rule="evenodd">
        <g id="PECOS-2.0-Icons-Overview-v25" transform="translate(-2342.000000, -523.000000)">
            <g id="DATA-EDITED-Copy" transform="translate(2332.000000, 482.000000)">
                <g id="label-added" transform="translate(10.000000, 41.000000)">
                    <rect id="green-label-bgd" fill="#4D8000" x="0" y="0" width="85" height="18"></rect>
                    <path d="M21.4765625,13 L22.3144531,10.6210938 L25.5898437,10.6210938 L26.4453125,13 L27.9335937,13 L24.7285156,4.3984375 L23.2050781,4.3984375 L20,13 L21.4765625,13 Z M25.2207031,9.4140625 L22.7246094,9.4140625 L23.4980469,7.18164062 C23.7011719,6.61132812 23.8554687,6.0859375 23.9609375,5.60546875 C24,5.76171875 24.0712891,6.0078125 24.1748047,6.34375 C24.2783203,6.6796875 24.359375,6.92578125 24.4179687,7.08203125 L24.4179687,7.08203125 L25.2207031,9.4140625 Z M31.4609375,13 C32.9375,13 34.0683594,12.6259766 34.8535156,11.8779297 C35.6386719,11.1298828 36.03125,10.0488281 36.03125,8.63476562 C36.03125,7.30273438 35.6523437,6.26953125 34.8945312,5.53515625 C34.1367187,4.80078125 33.0761719,4.43359375 31.7128906,4.43359375 L31.7128906,4.43359375 L29.0644531,4.43359375 L29.0644531,13 L31.4609375,13 Z M31.4609375,11.8222656 L30.4648437,11.8222656 L30.4648437,5.60546875 L31.6777344,5.60546875 C33.5957031,5.60546875 34.5546875,6.63085938 34.5546875,8.68164062 C34.5546875,10.7753906 33.5234375,11.8222656 31.4609375,11.8222656 L31.4609375,11.8222656 Z M40.2675781,13 C41.7441406,13 42.875,12.6259766 43.6601562,11.8779297 C44.4453125,11.1298828 44.8378906,10.0488281 44.8378906,8.63476562 C44.8378906,7.30273438 44.4589844,6.26953125 43.7011719,5.53515625 C42.9433594,4.80078125 41.8828125,4.43359375 40.5195312,4.43359375 L40.5195312,4.43359375 L37.8710937,4.43359375 L37.8710937,13 L40.2675781,13 Z M40.2675781,11.8222656 L39.2714844,11.8222656 L39.2714844,5.60546875 L40.484375,5.60546875 C42.4023437,5.60546875 43.3613281,6.63085938 43.3613281,8.68164062 C43.3613281,10.7753906 42.3300781,11.8222656 40.2675781,11.8222656 L40.2675781,11.8222656 Z M51.5234375,13 L51.5234375,11.8105469 L48.078125,11.8105469 L48.078125,9.12109375 L51.3066406,9.12109375 L51.3066406,7.94921875 L48.078125,7.94921875 L48.078125,5.6171875 L51.5234375,5.6171875 L51.5234375,4.43359375 L46.6777344,4.43359375 L46.6777344,13 L51.5234375,13 Z M55.7714844,13 C57.2480469,13 58.3789062,12.6259766 59.1640625,11.8779297 C59.9492187,11.1298828 60.3417969,10.0488281 60.3417969,8.63476562 C60.3417969,7.30273438 59.9628906,6.26953125 59.2050781,5.53515625 C58.4472656,4.80078125 57.3867187,4.43359375 56.0234375,4.43359375 L56.0234375,4.43359375 L53.375,4.43359375 L53.375,13 L55.7714844,13 Z M55.7714844,11.8222656 L54.7753906,11.8222656 L54.7753906,5.60546875 L55.9882812,5.60546875 C57.90625,5.60546875 58.8652344,6.63085938 58.8652344,8.68164062 C58.8652344,10.7753906 57.8339844,11.8222656 55.7714844,11.8222656 L55.7714844,11.8222656 Z" id="ADDED" fill="#FFFFFF" fill-rule="nonzero"></path>
                    <path d="M10,3 C10.5522847,3 11,3.44771525 11,4 L11,7 L14,7 C14.5522847,7 15,7.44771525 15,8 C15,8.55228475 14.5522847,9 14,9 L11,9 L11,12 C11,12.5522847 10.5522847,13 10,13 C9.44771525,13 9,12.5522847 9,12 L9,9 L6,9 C5.44771525,9 5,8.55228475 5,8 C5,7.44771525 5.44771525,7 6,7 L9,7 L9,4 C9,3.44771525 9.44771525,3 10,3 Z" id="icon-added-plus" fill="#FFFFFF"></path>
                </g>
            </g>
        </g>
    </g>
</svg>