<?xml version="1.0" encoding="UTF-8"?>
<svg width="85px" height="18px" viewBox="0 0 85 18" version="1.1" xmlns="http://www.w3.org/2000/svg" xmlns:xlink="http://www.w3.org/1999/xlink">
    <title>label-changed</title>
    <g id="Page-1-Icons" stroke="none" stroke-width="1" fill="none" fill-rule="evenodd">
        <g id="PECOS-2.0-Icons-Overview-v25" transform="translate(-2342.000000, -588.000000)">
            <g id="DATA-EDITED-Copy" transform="translate(2332.000000, 482.000000)">
                <g id="label-changed" transform="translate(10.000000, 106.000000)">
                    <rect id="blue-label-bgd" fill="#06778E" x="0" y="0" width="85" height="18"></rect>
                    <path d="M5.46224043,8.41323302 C5.49587176,8.41302877 5.529426,8.41647385 5.56231417,8.42350781 L9.39579757,9.24339391 C9.64692348,9.29710345 9.80696106,9.54422141 9.75325152,9.79534731 C9.73064424,9.90105055 9.67191668,9.99557517 9.5871661,10.0626692 L8.339,11.05 L8.3901535,11.1159857 C9.07242086,11.9344209 9.93874385,12.3436385 10.9891225,12.3436385 C11.8670124,12.3436385 12.6394962,12.0577855 13.3065737,11.4860796 C13.6483263,11.1931762 14.1516712,11.1900311 14.4970626,11.4786347 C14.8421814,11.7670103 14.8881807,12.280559 14.599805,12.6256778 C14.5769784,12.6529959 14.5523851,12.6787878 14.5262065,12.7029127 C13.5860489,13.5676376 12.4070209,14 10.9891225,14 C9.36011148,14 8.02203442,13.3770103 6.97489131,12.1310309 L5.77698206,13.0790553 C5.57563473,13.2384548 5.28319168,13.2044493 5.12379221,13.003102 C5.05936118,12.9217152 5.02401577,12.8211094 5.02338534,12.7173078 L5.00008599,8.8810355 C4.99852633,8.62423499 5.20543992,8.41479269 5.46224043,8.41323302 Z M11.0388302,4 C12.6546792,4 13.9842767,4.6129632 15.0276225,5.83888959 L16.2230179,4.89310365 C16.4243653,4.73370419 16.7168083,4.76770965 16.8762078,4.96905698 C16.9406388,5.0504438 16.9759842,5.1510496 16.9766147,5.25485122 L16.999914,9.09112348 C17.0014737,9.34792399 16.7945601,9.55736629 16.5377596,9.55892595 C16.5041282,9.55913021 16.470574,9.55568513 16.4376858,9.54865117 L12.6042024,8.72876507 C12.3530765,8.67505552 12.1930389,8.42793757 12.2467485,8.17681167 C12.2693558,8.07110842 12.3280833,7.97658381 12.4128339,7.90948981 L13.664,6.918 L13.6377992,6.88401431 C12.9555318,6.0655791 12.0892088,5.65636149 11.0388302,5.65636149 C10.162818,5.65636149 9.3917615,5.94099295 8.72566083,6.51025587 C8.38107029,6.80473645 7.87410298,6.80699248 7.52691176,6.51558262 C7.18093503,6.22519213 7.13587349,5.70931458 7.42626398,5.36333786 C7.44999768,5.33506107 7.4756187,5.30842369 7.50297505,5.28363466 C8.44554154,4.42787822 9.62415992,4 11.0388302,4 Z" id="icon-changed" fill="#FFFFFF"></path>
                    <path d="M24.6054688,13.1171875 C25.4570312,13.1171875 26.21875,12.9902344 26.890625,12.7363281 L26.890625,12.7363281 L26.890625,11.5351562 C26.5234375,11.6484375 26.1699219,11.7412109 25.8300781,11.8134766 C25.4902344,11.8857422 25.1386719,11.921875 24.7753906,11.921875 C23.9355469,11.921875 23.2939453,11.6523438 22.8505859,11.1132812 C22.4072266,10.5742188 22.1855469,9.77929688 22.1855469,8.72851562 C22.1855469,7.72460938 22.4160156,6.9375 22.8769531,6.3671875 C23.3378906,5.796875 23.9707031,5.51171875 24.7753906,5.51171875 C25.1308594,5.51171875 25.4697266,5.56347656 25.7919922,5.66699219 C26.1142578,5.77050781 26.4199219,5.890625 26.7089844,6.02734375 L26.7089844,6.02734375 L27.2128906,4.86132812 C26.4707031,4.49414062 25.6621094,4.31054688 24.7871094,4.31054688 C23.9550781,4.31054688 23.2304688,4.48828125 22.6132812,4.84375 C21.9960938,5.19921875 21.5244141,5.7109375 21.1982422,6.37890625 C20.8720703,7.046875 20.7089844,7.82617188 20.7089844,8.71679688 C20.7089844,10.1308594 21.0449219,11.2177734 21.7167969,11.9775391 C22.3886719,12.7373047 23.3515625,13.1171875 24.6054688,13.1171875 Z M30.1367188,13 L30.1367188,9.13867188 L34.0859375,9.13867188 L34.0859375,13 L35.4921875,13 L35.4921875,4.43359375 L34.0859375,4.43359375 L34.0859375,7.9375 L30.1367188,7.9375 L30.1367188,4.43359375 L28.7363281,4.43359375 L28.7363281,13 L30.1367188,13 Z M38.09375,13 L38.9316406,10.6210938 L42.2070312,10.6210938 L43.0625,13 L44.5507812,13 L41.3457031,4.3984375 L39.8222656,4.3984375 L36.6171875,13 L38.09375,13 Z M41.8378906,9.4140625 L39.3417969,9.4140625 L40.1152344,7.18164062 C40.3183594,6.61132812 40.4726562,6.0859375 40.578125,5.60546875 C40.6171875,5.76171875 40.6884766,6.0078125 40.7919922,6.34375 C40.8955078,6.6796875 40.9765625,6.92578125 41.0351562,7.08203125 L41.0351562,7.08203125 L41.8378906,9.4140625 Z M46.953125,13 L46.953125,8.546875 C46.953125,7.9453125 46.9257812,7.28125 46.8710938,6.5546875 L46.8710938,6.5546875 L46.8417969,6.17382812 L46.8886719,6.17382812 L51.1015625,13 L52.8183594,13 L52.8183594,4.43359375 L51.5351562,4.43359375 L51.5358737,9.06507095 C51.5387436,9.36664939 51.5502232,9.7593471 51.5703125,10.2431641 C51.59375,10.8076172 51.609375,11.1347656 51.6171875,11.2246094 L51.6171875,11.2246094 L51.5820312,11.2246094 L47.3808594,4.43359375 L45.6816406,4.43359375 L45.6816406,13 L46.953125,13 Z M58.7128906,13.1171875 C59.2636719,13.1171875 59.7763672,13.0820312 60.2509766,13.0117188 C60.7255859,12.9414062 61.2207031,12.8222656 61.7363281,12.6542969 L61.7363281,12.6542969 L61.7363281,8.35351562 L58.5839844,8.35351562 L58.5839844,9.5546875 L60.359375,9.5546875 L60.359375,11.7636719 C59.84375,11.8769531 59.359375,11.9335938 58.90625,11.9335938 C58.0078125,11.9335938 57.3193359,11.6611328 56.8408203,11.1162109 C56.3623047,10.5712891 56.1230469,9.77539062 56.1230469,8.72851562 C56.1230469,7.73242188 56.3886719,6.94726562 56.9199219,6.37304688 C57.4511719,5.79882812 58.1738281,5.51171875 59.0878906,5.51171875 C59.7832031,5.51171875 60.4785156,5.671875 61.1738281,5.9921875 L61.1738281,5.9921875 L61.6660156,4.82617188 C60.8652344,4.48242188 60.0175781,4.31054688 59.1230469,4.31054688 C57.7324219,4.31054688 56.640625,4.70019531 55.8476562,5.47949219 C55.0546875,6.25878906 54.6582031,7.33789062 54.6582031,8.71679688 C54.6582031,10.1152344 55.0097656,11.1982422 55.7128906,11.9658203 C56.4160156,12.7333984 57.4160156,13.1171875 58.7128906,13.1171875 Z M68.6386719,13 L68.6386719,11.8105469 L65.1933594,11.8105469 L65.1933594,9.12109375 L68.421875,9.12109375 L68.421875,7.94921875 L65.1933594,7.94921875 L65.1933594,5.6171875 L68.6386719,5.6171875 L68.6386719,4.43359375 L63.7929688,4.43359375 L63.7929688,13 L68.6386719,13 Z M72.8867188,13 C74.3632812,13 75.4941406,12.6259766 76.2792969,11.8779297 C77.0644531,11.1298828 77.4570312,10.0488281 77.4570312,8.63476562 C77.4570312,7.30273438 77.078125,6.26953125 76.3203125,5.53515625 C75.5625,4.80078125 74.5019531,4.43359375 73.1386719,4.43359375 L73.1386719,4.43359375 L70.4902344,4.43359375 L70.4902344,13 L72.8867188,13 Z M72.8867188,11.8222656 L71.890625,11.8222656 L71.890625,5.60546875 L73.1035156,5.60546875 C75.0214844,5.60546875 75.9804688,6.63085938 75.9804688,8.68164062 C75.9804688,10.7753906 74.9492188,11.8222656 72.8867188,11.8222656 L72.8867188,11.8222656 Z" id="CHANGED" fill="#FFFFFF" fill-rule="nonzero"></path>
                </g>
            </g>
        </g>
    </g>
</svg>