<?xml version="1.0" encoding="UTF-8"?>
<svg width="32px" height="32px" viewBox="0 0 32 32" version="1.1" xmlns="http://www.w3.org/2000/svg" xmlns:xlink="http://www.w3.org/1999/xlink">
    <title>icon-waiting-approval-certification-results</title>
    <g id="Page-1-Icons" stroke="none" stroke-width="1" fill="none" fill-rule="evenodd">
        <g id="PECOS-2.0-Icons-Overview-v30" transform="translate(-1767.000000, -1588.000000)">
            <g id="WAITING-ICONS" transform="translate(1757.000000, 1332.000000)">
                <g id="small-waiting-icons" transform="translate(10.000000, 46.000000)">
                    <g id="icon-waiting-approval-certification-results" transform="translate(0.000000, 210.000000)">
                        <circle id="32x32-oval" fill="#D6F2F9" cx="16" cy="16" r="16"></circle>
                        <path d="M17.0036756,17.002 L17.0039063,17.9992917 L18.0105343,17.9992917 L18.0105343,22.8190648 L20.020847,21.6943795 L22.0070124,22.8190648 L22.0070124,18.0458839 L23.00947,18.0458839 L23.0086756,17.002 L24,17.0020406 L24,26.0011823 L20,23.8677003 L16,26.0011823 L16,17.0020406 L17.0036756,17.002 Z M14.506,8.00118231 L13.5407605,9.35740418 L13.6,10.0011823 L8,10.0011823 L8,21.0011823 L14.993,21.0011823 L14.993,23.0011823 L7,23.0011823 C6.44771525,23.0011823 6,22.5534671 6,22.0011823 L6,9.00118231 C6,8.44889756 6.44771525,8.00118231 7,8.00118231 L14.506,8.00118231 Z M14.993,18.0011823 L14.993,19.0011823 L10,19.0011823 L10,18.0011823 L14.993,18.0011823 Z M20.0912246,6.02773761 C20.1443312,6.05386418 20.1873594,6.09674764 20.2136648,6.14976585 L20.8032506,7.33918559 C20.8600507,7.34928225 20.9165036,7.36039907 20.9725901,7.37251671 L21.0106756,7.339 L21.950097,6.50672413 C22.0057725,6.45735143 22.0761895,6.43521979 22.1450307,6.4393502 L22.2127424,6.45219837 C22.2567275,6.46655148 22.297595,6.49243157 22.3305102,6.52954857 C22.3687554,6.57267606 22.3921637,6.62693071 22.3972971,6.68434434 L22.5086756,7.934 L22.5155741,8.0101255 C22.5796701,8.05120212 22.6427286,8.09378716 22.7047011,8.13783129 L23.9474659,7.72398462 C24.0886594,7.67693041 24.2412643,7.75324536 24.2883185,7.89443883 C24.3063424,7.94852238 24.3067503,8.00692865 24.2894834,8.06125863 L23.8886756,9.321 L23.884242,9.33812599 C23.9099707,9.37564083 23.9351858,9.41354374 23.9598768,9.45182432 L25.2884895,9.54151975 C25.4369869,9.55143079 25.5493333,9.67984618 25.5394222,9.82834355 C25.5356673,9.88460378 25.5143592,9.93826894 25.4784989,9.98178154 L24.6163242,11.027007 C24.6311581,11.0943379 24.644598,11.1622006 24.6566117,11.2305627 L25.8493621,11.8398394 C25.9819102,11.9075203 26.0344955,12.0698379 25.9668147,12.202386 C25.9412998,12.252355 25.9008244,12.2931141 25.8510347,12.3189772 L24.6541065,12.9413663 C24.6458686,12.9874421 24.6369824,13.0332897 24.627458,13.0788989 L25.5033228,14.0879737 C25.54116,14.1315027 25.5640333,14.1860229 25.5685798,14.2435187 C25.5786356,14.3706884 25.4986954,14.4842068 25.3822193,14.5214333 L25.3211841,14.5333989 L24.0031658,14.6376057 C23.9611836,14.705155 23.9175884,14.7715739 23.8724347,14.8368071 L24.2881386,16.1059995 C24.3062883,16.1614161 24.3059724,16.2212249 24.2872384,16.2764468 C24.2462554,16.3972509 24.1279827,16.4699725 24.0062728,16.4581748 L23.9454733,16.445064 L22.6996689,16.0235367 C22.6565691,16.054084 22.6129457,16.0839262 22.5688149,16.1130469 L22.4844176,17.4492707 C22.4806985,17.5080747 22.4578088,17.5640391 22.4192533,17.6085949 C22.3380982,17.7023796 22.2063917,17.7265424 22.0996155,17.6756338 L22.0391453,17.6360365 L21.0386054,16.7705165 C20.9605369,16.7885689 20.8817366,16.8046769 20.8022568,16.8187873 L20.2136648,18.0058031 C20.1873594,18.0588213 20.1443312,18.1017048 20.0912246,18.1278313 C19.9767601,18.1841439 19.8417432,18.1517815 19.7641305,18.0572895 L19.7304687,18.0049889 L19.146659,16.8186108 C19.0958209,16.8095739 19.0452609,16.7997198 18.9949927,16.7890623 L18.1206756,17.56 L18.0194801,17.6506669 C17.990496,17.6763048 17.9565096,17.6952469 17.9199343,17.7064618 L17.8634312,17.7173597 C17.7363096,17.7280071 17.6224205,17.648596 17.5846525,17.5322944 L17.5724031,17.4713155 L17.5126756,16.77 L17.4636122,16.1662827 C17.3908136,16.1203755 17.3193308,16.0725318 17.249234,16.0228229 L16.0966756,16.404 L16.0221799,16.4292815 L15.9665601,16.4414042 L15.9099453,16.4416045 L15.8542411,16.4298756 C15.7328859,16.3905544 15.6585479,16.2732908 15.6686742,16.1514304 L15.6809494,16.0904568 L16.0837548,14.8458575 C16.0492438,14.796242 16.0156359,14.7459368 15.9829552,14.6949663 L14.7103612,14.6078681 C14.653702,14.6040143 14.5997086,14.5823588 14.556089,14.5459933 C14.4608289,14.4665752 14.4342501,14.3353349 14.4831881,14.2276413 L14.5216676,14.1664537 L15.3444474,13.1789209 C15.3232952,13.0873719 15.3047253,12.9948176 15.2888199,12.9013408 L14.1503589,12.317629 C14.1000572,12.2918641 14.0591293,12.2509363 14.0333644,12.2006346 C13.9752088,12.0870953 14.0053842,11.9515729 14.0986093,11.8724428 L14.1503589,11.8379399 L15.289158,11.2544711 C15.2989173,11.1972593 15.3096747,11.1403933 15.3214114,11.0838921 L14.4483583,10.0859501 C14.3503413,9.97395746 14.3616707,9.80371096 14.4736633,9.70569388 C14.5170607,9.66771208 14.5714984,9.64465464 14.628974,9.6399111 L15.9392199,9.53233681 C15.9835109,9.46059959 16.0296176,9.39012845 16.0774749,9.32098928 L15.658681,8.05537852 C15.6118837,7.91409968 15.6884762,7.76163387 15.829755,7.71483661 C15.8851047,7.69650258 15.9449078,7.69661544 16.0001878,7.71515825 L17.2502408,8.13425974 C17.2938377,8.10336005 17.3379705,8.07318175 17.3826222,8.04374196 L17.4628446,6.72107817 C17.4717401,6.57251651 17.5993843,6.45929471 17.747946,6.4681902 C17.8067579,6.47171171 17.8627951,6.49441053 17.9074784,6.53281155 L18.9042656,7.38891319 C18.9839851,7.37034923 19.0644703,7.35381343 19.1456652,7.33936235 L19.7304687,6.15058008 C19.7961667,6.01703806 19.9576826,5.96203962 20.0912246,6.02773761 Z M14.993,16.0011823 L14.993,17.0011823 L10,17.0011823 L10,16.0011823 L14.993,16.0011823 Z M19.9971222,8.60589938 C18.1044827,8.60589938 16.5701952,10.1281312 16.5701952,12.0058994 C16.5701952,13.8836675 18.1044827,15.4058994 19.9971222,15.4058994 C21.8897617,15.4058994 23.4240491,13.8836675 23.4240491,12.0058994 C23.4240491,10.1281312 21.8897617,8.60589938 19.9971222,8.60589938 Z M14.003,14.0011823 L14.003,15.0011823 L10,15.0011823 L10,14.0011823 L14.003,14.0011823 Z M13.273,12.0011823 L13.2330933,12.0958382 L13.735,13.0011823 L10,13.0011823 L10,12.0011823 L13.273,12.0011823 Z" id="Combined-Shape" fill-opacity="0.65" fill="#002F2F"></path>
                    </g>
                </g>
            </g>
        </g>
    </g>
</svg>