<?xml version="1.0" encoding="UTF-8"?>
<svg width="32px" height="32px" viewBox="0 0 32 32" version="1.1" xmlns="http://www.w3.org/2000/svg" xmlns:xlink="http://www.w3.org/1999/xlink">
    <title>icon-waiting-rfi-letter</title>
    <g id="Page-1-Icons" stroke="none" stroke-width="1" fill="none" fill-rule="evenodd">
        <g id="PECOS-2.0-Icons-Overview-v30" transform="translate(-1767.000000, -1378.000000)">
            <g id="WAITING-ICONS" transform="translate(1757.000000, 1332.000000)">
                <g id="icon-waiting-rfi-letter" transform="translate(10.000000, 46.000000)">
                    <circle id="32x32-app-oval" fill="#D6F2F9" cx="16" cy="16" r="16"></circle>
                    <path d="M20.6450167,6 C20.9113139,6 21.1666126,6.10621481 21.354325,6.29510167 L24.7093084,9.67107461 C24.8954974,9.85842854 25,10.1118369 25,10.3759729 L25,25 C25,25.5522847 24.5522847,26 24,26 L10,26 C9.44771525,26 9,25.5522847 9,25 L9,21 L11.008,21 L11.0085448,23.9811926 L23.0411552,23.9811926 L23.0411552,11.4717979 C23.0411552,11.2263381 22.8642801,11.0221896 22.6310308,10.9798536 L22.5411552,10.9717979 L19.9792964,10.9717979 L19.9792964,8.5 C19.9792964,8.25454011 19.8024213,8.05039163 19.5691721,8.00805567 L19.4792964,8 L11.0085448,8 L11.008,11 L9,11 L9,7 C9,6.44771525 9.44771525,6 10,6 L20.6450167,6 Z M21.0127622,20 L21.0127622,21 L14.9877773,21 L15.466,20 L21.0127622,20 Z M13.8667422,12 L16,16 L13.8667422,20 L5.44444444,20 C5.19898456,20 5,19.8010154 5,19.5555556 L5,12.4444444 C5,12.1989846 5.19898456,12 5.44444444,12 L13.8667422,12 Z M21.0127622,18 L21.0127622,19 L15.946,19 L16.425,18 L21.0127622,18 Z M12.6424723,14 L7,14 L7,18 L12.6424723,18 L13.7992706,15.9905963 L12.6424723,14 Z M21.0127622,16 L21.0127622,17 L16.905,17 L17.3848252,16 L21.0127622,16 Z M21.0127622,14 L21.0127622,15 L16.905,15 L16.425,14 L21.0127622,14 Z M21.0127622,12 L21.0127622,13 L15.946,13 L15.466,12 L21.0127622,12 Z M19.0127361,10 L19.0127361,11 L13.0382867,11 L13.0382867,10 L19.0127361,10 Z" id="Combined-Shape" fill-opacity="0.65" fill="#002F2F"></path>
                </g>
            </g>
        </g>
    </g>
</svg>