<?xml version="1.0" encoding="UTF-8"?>
<svg width="32px" height="32px" viewBox="0 0 32 32" version="1.1" xmlns="http://www.w3.org/2000/svg" xmlns:xlink="http://www.w3.org/1999/xlink">
    <title>icon-waiting-escalate </title>
    <g id="Page-1-Icons" stroke="none" stroke-width="1" fill="none" fill-rule="evenodd">
        <g id="PECOS-2.0-Icons-Overview-v30" transform="translate(-1767.000000, -1423.000000)">
            <g id="WAITING-ICONS" transform="translate(1757.000000, 1332.000000)">
                <g id="small-waiting-icons" transform="translate(10.000000, 46.000000)">
                    <g id="icon-waiting-escalate-" transform="translate(0.000000, 45.000000)">
                        <circle id="32x32-oval" fill="#D6F2F9" cx="16" cy="16" r="16"></circle>
                        <path d="M14,10 C16.209139,10 18,12.0147186 18,14.5 C18,15.2285944 17.8460845,15.9167463 17.572837,16.5255492 C20.1975073,17.345217 22,19.0410476 22,21 C22,23.7614237 18.418278,26 14,26 C9.581722,26 6,23.7614237 6,21 C6,19.0410476 7.80249271,17.345217 10.4274443,16.5250292 C10.1539155,15.9167463 10,15.2285944 10,14.5 C10,12.0147186 11.790861,10 14,10 Z M16.2520994,18.218494 L16.1224313,18.3149836 C15.5072884,18.7490316 14.7796961,19 14,19 C13.1647957,19 12.3893781,18.7120257 11.7479205,18.219522 C9.55014003,18.6637956 8,19.7413841 8,21 C8,22.6568542 10.6862915,24 14,24 C17.3137085,24 20,22.6568542 20,21 C20,19.7413841 18.44986,18.6637956 16.2520994,18.218494 Z M22.7133767,6.31555798 C22.720812,6.32299327 22.7281295,6.33054537 22.7353266,6.33821146 L25.7337309,9.53201117 C26.1033395,9.92570593 26.0936226,10.5417296 25.711781,10.9235712 L25.6928,10.9425521 C25.3212456,11.3141066 24.7188369,11.3141066 24.3472825,10.9425521 C24.337066,10.9323357 24.3270836,10.9218878 24.3173429,10.9112166 L23.0059272,9.47366476 L23.0060711,16.4256735 C23.0060711,16.9746255 22.5610576,17.419639 22.0121055,17.419639 C21.4629375,17.419639 21.0175421,16.9748419 21.0168039,16.4256744 L21.0069272,9.38266476 L19.4587894,10.9325911 C19.0754127,11.3159678 18.4538364,11.3159678 18.0704597,10.9325911 C17.687083,10.5492145 17.687083,9.92763808 18.0704597,9.54426141 L21.2991631,6.31555798 C21.6896874,5.92503369 22.3228524,5.92503369 22.7133767,6.31555798 Z M14,12 C12.8954305,12 12,13.1192881 12,14.5 C12,15.8807119 12.8954305,17 14,17 C15.1045695,17 16,15.8807119 16,14.5 C16,13.1192881 15.1045695,12 14,12 Z" id="Combined-Shape" fill-opacity="0.65" fill="#002F2F"></path>
                    </g>
                </g>
            </g>
        </g>
    </g>
</svg>