<?xml version="1.0" encoding="UTF-8"?>
<svg width="32px" height="32px" viewBox="0 0 32 32" version="1.1" xmlns="http://www.w3.org/2000/svg" xmlns:xlink="http://www.w3.org/1999/xlink">
    <title>icon-waiting-security-check-results</title>
    <g id="Page-1-Icons" stroke="none" stroke-width="1" fill="none" fill-rule="evenodd">
        <g id="PECOS-2.0-Icons-Overview-v30" transform="translate(-1767.000000, -1548.000000)">
            <g id="WAITING-ICONS" transform="translate(1757.000000, 1332.000000)">
                <g id="small-waiting-icons" transform="translate(10.000000, 46.000000)">
                    <g id="icon-waiting-security-check-results" transform="translate(0.000000, 170.000000)">
                        <circle id="32x32-oval" fill="#D6F2F9" cx="16" cy="16" r="16"></circle>
                        <path d="M19.1710526,13 C21.9688109,13 24.2368421,15.2385763 24.2368421,18 C24.2368421,19.311527 23.7252341,20.5051133 22.8882517,21.396944 L24.9742171,24.0316189 C25.315447,24.4627011 25.2426073,25.0887836 24.8115251,25.4300135 C24.8082251,25.4326256 24.8049086,25.4352169 24.8015757,25.437787 L24.7851087,25.4504853 C24.3516755,25.7847226 23.7300723,25.7084056 23.3903646,25.2792465 L21.2421038,22.5644085 C20.609849,22.8443136 19.9088713,23 19.1710526,23 C16.3732944,23 14.1052632,20.7614237 14.1052632,18 C14.1052632,15.2385763 16.3732944,13 19.1710526,13 Z M19.1710526,15 C17.4923977,15 16.1315789,16.3431458 16.1315789,18 C16.1315789,19.6568542 17.4923977,21 19.1710526,21 C20.8497076,21 22.2105263,19.6568542 22.2105263,18 C22.2105263,16.3431458 20.8497076,15 19.1710526,15 Z M13.4298246,6 C15.481514,6 17.1447368,7.84682541 17.1447368,10.125 C17.1447368,10.7761356 17.0088682,11.3920342 16.7668941,11.9396472 C17.0515158,12.0180511 17.3256767,12.1074902 17.5879018,12.2059835 C16.4160764,12.5167924 15.3848247,13.1645239 14.6064633,14.0372864 C14.2376714,14.175619 13.8415708,14.25 13.4298246,14.25 C12.6387745,14.25 11.9054726,13.9754569 11.302983,13.5075003 C9.28045686,13.8499563 7.85745614,14.6691358 7.85745614,15.625 C7.85745614,16.8443311 10.1730161,17.8412438 13.0943572,17.9125823 L13.0921053,18 C13.0921053,18.6087378 13.1839517,19.1963023 13.3547128,19.7499298 C9.28631947,19.7276387 6,17.8893923 6,15.625 C6,14.0129019 7.66567161,12.6167959 10.0936346,11.938234 C9.85061408,11.3912776 9.71491228,10.7757356 9.71491228,10.125 C9.71491228,7.84682541 11.3781352,6 13.4298246,6 Z M13.4298246,7.83333333 C12.4039799,7.83333333 11.5723684,8.85934745 11.5723684,10.125 C11.5723684,11.3906526 12.4039799,12.4166667 13.4298246,12.4166667 C14.4556693,12.4166667 15.2872807,11.3906526 15.2872807,10.125 C15.2872807,8.85934745 14.4556693,7.83333333 13.4298246,7.83333333 Z" id="Combined-Shape" fill-opacity="0.65" fill="#002F2F"></path>
                    </g>
                </g>
            </g>
        </g>
    </g>
</svg>