<?xml version="1.0" encoding="UTF-8"?>
<svg width="32px" height="32px" viewBox="0 0 32 32" version="1.1" xmlns="http://www.w3.org/2000/svg" xmlns:xlink="http://www.w3.org/1999/xlink">
    <title>icon-waiting-site-visit-results</title>
    <g id="Page-1-Icons" stroke="none" stroke-width="1" fill="none" fill-rule="evenodd">
        <g id="PECOS-2.0-Icons-Overview-v30" transform="translate(-1767.000000, -1464.000000)">
            <g id="WAITING-ICONS" transform="translate(1757.000000, 1332.000000)">
                <g id="small-waiting-icons" transform="translate(10.000000, 46.000000)">
                    <g id="icon-waiting-site-visit-results" transform="translate(0.000000, 86.000000)">
                        <circle id="32x32-Oval" fill="#E8DBB9" cx="16" cy="16" r="16"></circle>
                        <path d="M11,11 C13.7614237,11 16,13.2385763 16,16 C16,17.0968061 15.6468449,18.1111284 15.0480422,18.9354593 L11.216417,25.6222844 C11.147776,25.7420845 10.9950143,25.7835571 10.8752142,25.7149161 C10.8367988,25.6929055 10.8049177,25.6610879 10.7828306,25.6227165 L6.84459895,18.7816987 C6.31117252,17.9864231 6,17.0295507 6,16 C6,13.2385763 8.23857625,11 11,11 Z M25,6 C25.5522847,6 26,6.44771525 26,7 L26,22 C26,22.5522847 25.5522847,23 25,23 L14.4959462,22.99895 C14.9125019,22.301027 15.2388559,21.6985036 15.475008,21.19138 C15.5042371,21.128612 15.5333595,21.0661029 15.5623549,21.0038464 L16,21.004 L16.0010104,20.0534558 C16.3240596,19.3414726 16.614273,18.6607298 16.837628,18.000751 L19,18 L19,21.004 L24,21.0049992 L24,8.02551733 L14,8.02551733 L14.0006676,10.624309 C13.4053238,10.3306333 12.7387598,10.1095485 12.0009758,9.96105431 L12,7 C12,6.44771525 12.4477153,6 13,6 L25,6 Z M11,13 C9.34314575,13 8,14.3602825 8,16.038276 C8,16.5706286 8.13518898,17.0710032 8.37269486,17.5061084 L8.48065156,17.6884889 L10.9938869,22.4740024 L13.4632889,17.7729621 C13.8016182,17.2811124 14,16.683157 14,16.038276 C14,14.3602825 12.6568542,13 11,13 Z M10.9988708,14.4601353 C11.9193454,14.4601353 12.6655375,15.2330231 12.6655375,16.1864285 C12.6655375,17.1398339 11.9193454,17.9127216 10.9988708,17.9127216 C10.0783963,17.9127216 9.33220418,17.1398339 9.33220418,16.1864285 C9.33220418,15.2330231 10.0783963,14.4601353 10.9988708,14.4601353 Z M20,15 L20,17 L18,17 L18,15 L20,15 Z M23,15 L23,17 L21,17 L21,15 L23,15 Z M20,12 L20,14 L18,14 L18,12 L20,12 Z M23,12 L23,14 L21,14 L21,12 L23,12 Z M15.840543,11.9998881 L17,12 L17.0020691,13.8975219 C16.9039884,13.6287674 16.7794264,13.3596492 16.6256008,13.0893107 C16.3987606,12.6906535 16.1370747,12.3275126 15.840543,11.9998881 Z M17,9 L17,11 L15,11 L15,9 L17,9 Z M20,9 L20,11 L18,11 L18,9 L20,9 Z M23,9 L23,11 L21,11 L21,9 L23,9 Z" id="Combined-Shape" fill-opacity="0.631707892" fill="#4C3700"></path>
                    </g>
                </g>
            </g>
        </g>
    </g>
</svg>