<?xml version="1.0" encoding="UTF-8"?>
<svg width="32px" height="32px" viewBox="0 0 32 32" version="1.1" xmlns="http://www.w3.org/2000/svg" xmlns:xlink="http://www.w3.org/1999/xlink">
    <title>icon-waiting-fingerprint-results</title>
    <g id="Page-1-Icons" stroke="none" stroke-width="1" fill="none" fill-rule="evenodd">
        <g id="PECOS-2.0-Icons-Overview-v30" transform="translate(-1767.000000, -1505.000000)">
            <g id="WAITING-ICONS" transform="translate(1757.000000, 1332.000000)">
                <g id="small-waiting-icons" transform="translate(10.000000, 46.000000)">
                    <g id="icon-waiting-fingerprint-results" transform="translate(0.000000, 127.000000)">
                        <circle id="Oval" fill="#D1DFE7" cx="16" cy="16" r="16"></circle>
                        <path d="M15.7624907,10.5563148 C16.8566419,10.5563148 18.0299467,10.7495385 19.0450979,11.188876 C20.0049489,11.6042497 20.9761305,12.2011469 21.7305814,12.9440267 C23.207883,14.3978344 24.1701278,16.540106 24.2135778,18.4172753 L24.2135778,18.4172753 L24.2135778,18.6049923 C24.1148277,20.2584989 22.7945169,21.7041915 20.8905276,21.7041915 C18.9865382,21.7041915 17.5531285,20.0743776 17.2634178,18.4172753 C17.0925194,17.4397615 16.6167101,16.8409902 15.597609,16.8409902 C14.4442077,16.8409902 13.6666972,17.7103414 13.6666972,18.8765827 C13.6666972,20.1214283 14.1510248,21.2561051 15.257026,22.4542983 C16.4538773,23.7483469 17.4677301,24.2522949 18.9292317,24.6237348 C19.221532,24.6996204 19.5187661,24.9853131 19.3701491,25.5406863 C19.221532,26.0960595 18.5324622,25.9978442 18.4890122,25.9858623 C16.8221103,25.5664946 15.4346991,25.0515003 14.0995977,23.6056805 C12.8316463,22.2357463 12.1355733,20.8052248 12.2185503,18.8765827 C12.3139685,16.65877 13.9877763,15.3228579 15.7455282,15.3228579 C17.4874801,15.3228579 18.556625,16.3434079 19.0450979,18.7354802 C19.1607703,19.3019332 19.7051197,20.2891465 20.6886708,20.2891465 C21.763072,20.2891465 22.6577443,19.6753782 22.7248943,18.6049923 C22.7130443,15.4537442 19.7745326,12.0628526 15.7455282,12.0628526 C11.6335737,12.0628526 9.022366,14.995862 9.022366,19.1376165 C9.022366,20.2040084 9.11609442,20.8651085 9.56244491,21.819669 C9.69279505,22.0952535 9.72705253,22.6292278 9.18983009,22.8843639 C8.65260766,23.1395 8.11131626,22.6539971 8.01651615,22.4542983 C7.49906558,21.3519606 7.31140351,20.1067277 7.31140351,18.8765827 C7.31140351,16.6279735 8.03054677,14.5937078 9.47229836,13.0839844 C10.2069992,12.3171407 11.4063537,11.5117748 12.3938547,11.1003951 C13.4248059,10.6730396 14.5656393,10.5563148 15.7624907,10.5563148 Z M15.7239701,12.9299075 C17.7165115,12.9299075 18.7358368,13.4920879 19.794438,14.4905822 C20.8451392,15.4850825 21.6143863,16.7804887 21.7170864,18.2263084 C21.7407865,18.5298507 21.6249502,19.0245289 21.0414329,19.1355142 C20.4579155,19.2464995 20.1995432,18.6721506 20.1355393,18.3758945 C19.6224437,16.0009191 18.115244,14.2994543 15.7241491,14.4905822 C9.89621948,14.9564273 11.5922475,20.9730066 11.999733,21.7668592 C12.4072184,22.5607119 13.1634138,23.5278965 14.1326067,24.5922336 C14.1847079,24.6494495 14.4751286,25.2649188 14.0540821,25.6623501 C13.6330355,26.0597815 12.9995919,25.7582056 12.8929417,25.6623501 C10.5861392,23.5455422 10.0677907,21.5944343 9.9909918,21.3423549 C9.50620822,19.7511342 9.61241252,16.3228104 11.5071561,14.4905822 C12.3521078,13.6735088 13.7314288,12.9299075 15.7239701,12.9299075 Z M15.3545722,17.6692749 C16.1207142,17.5714503 16.2698145,18.396913 16.2698145,18.6255337 C16.784237,21.3406731 18.6184936,22.6482474 22.5798446,22.7409332 C22.6535712,22.7426582 23.6845295,22.8030763 23.6845295,23.5033029 C23.6845295,24.2035295 23.1626495,24.2983107 22.6875998,24.3041419 C17.2136443,24.3713344 14.6158381,21.7236904 14.6158381,18.7475771 L14.6158381,18.7475771 L14.6161568,18.556393 C14.6213853,18.1192808 14.6841979,17.7548714 15.3545722,17.6692749 Z M15.8533578,8.28692806 C18.1005246,8.28692806 19.4369089,8.78999216 20.9655606,9.59278159 C22.4468122,10.3716072 23.4739176,11.5276645 24.4416687,12.8896108 C24.6194189,13.1372374 24.5297588,13.6898891 24.2888085,13.8656241 C24.0439082,14.0413591 23.438652,13.9060446 23.246885,13.6604484 C21.4439572,11.3514368 19.4124015,9.90479449 16.2406244,9.8200734 C14.869503,9.78344949 12.8170863,10.0971473 12.7854862,10.1091292 C12.7136418,10.1274105 11.9446094,10.3337994 11.7400881,9.72638079 C11.5355668,9.11896218 11.7849613,8.91925396 12.1143126,8.76465392 C12.443664,8.61005387 13.5543879,8.28692806 15.8533578,8.28692806 Z M15.6884591,6 C16.7707603,6 17.9558816,6.03107329 18.9907828,6.29866977 C19.9980339,6.55827829 20.9073859,6.94096749 21.8237869,7.44021465 C22.0884372,7.58799181 22.4340195,8.22446063 22.1066926,8.63354582 C21.7793658,9.04263102 21.1071761,8.78211601 21.024226,8.73818226 C19.3257241,7.81157953 17.7498925,7.47614664 15.8064904,7.47614664 C13.9065383,7.47614664 12.2806174,7.8515193 10.6137156,8.73818226 C10.3451153,8.88196544 9.69624217,8.95339705 9.41041516,8.40407705 C9.12458815,7.85475705 9.60165495,7.43110909 9.87025524,7.28732591 C10.7708562,6.80804864 11.477647,6.54629636 12.4611981,6.29866977 C13.4763492,6.04305522 14.6338079,6 15.6884591,6 Z" id="fingerprint-20x20" fill="#627E8B"></path>
                    </g>
                </g>
            </g>
        </g>
    </g>
</svg>