<?xml version="1.0" encoding="utf-8"?>
<svg version="1.1"
  xmlns:xlink="http://www.w3.org/1999/xlink" width="10px" height="18px"
  xmlns="http://www.w3.org/2000/svg">
  <g transform="matrix(1 0 0 1 -1025 -439 )">
    <path d="M 9.860813704496788 10.958705357142858  C 9.953604568165597 11.253348214285714  10.000000000000002 11.568080357142858  10 11.902901785714285  C 10.000000000000002 12.927455357142858  9.644896502498217 13.809709821428571  8.934689507494646 14.54966517857143  C 8.224482512491079 15.289620535714286  7.301927194860813 15.746651785714286  6.167023554603855 15.920758928571427  L 6.167023554603855 17.678571428571427  C 6.167023554603855 17.772321428571427  6.134903640256959 17.849330357142858  6.070663811563169 17.909598214285715  C 6.006423982869379 17.969866071428573  5.924339757316202 18  5.82441113490364 18  L 4.379014989293362 18  C 4.286224125624554 18  4.205924339757317 17.968191964285715  4.138115631691649 17.904575892857142  C 4.0703069236259815 17.840959821428573  4.036402569593148 17.765625  4.036402569593148 17.678571428571427  L 4.036402569593148 15.920758928571427  C 3.5653104925053536 15.860491071428573  3.1102783725910066 15.756696428571429  2.6713062098501075 15.609375  C 2.2323340471092075 15.462053571428571  1.870092790863669 15.313058035714285  1.5845824411134903 15.162388392857142  C 1.2990720913633118 15.01171875  1.034975017844397 14.851004464285715  0.7922912205567452 14.680245535714285  C 0.5496074232690936 14.509486607142858  0.38365453247680237 14.38392857142857  0.2944325481798715 14.30357142857143  C 0.2052105638829408 14.223214285714285  0.14275517487508926 14.16294642857143  0.1070663811563169 14.122767857142858  C -0.014275517487508872 13.982142857142858  -0.021413276231263385 13.844866071428571  0.08565310492505354 13.7109375  L 1.1884368308351176 12.354910714285715  C 1.2384011420413992 12.287946428571429  1.3204853675945754 12.247767857142856  1.4346895074946466 12.234375  C 1.5417558886509637 12.220982142857142  1.6274089935760172 12.25111607142857  1.6916488222698072 12.324776785714285  L 1.7130620985010705 12.34486607142857  C 2.519628836545325 13.0078125  3.386866523911492 13.426339285714286  4.314775160599572 13.60044642857143  C 4.578872234118487 13.654017857142856  4.842969307637403 13.68080357142857  5.107066381156317 13.68080357142857  C 5.685224839400428 13.68080357142857  6.1937901498929335 13.536830357142858  6.632762312633833 13.24888392857143  C 7.071734475374733 12.960937499999998  7.2912205567451815 12.552455357142858  7.2912205567451815 12.0234375  C 7.2912205567451815 11.835937499999998  7.237687366167024 11.658482142857142  7.130620985010707 11.49107142857143  C 7.0235546038543895 11.323660714285714  6.903997144896503 11.183035714285714  6.771948608137045 11.06919642857143  C 6.639900071377588 10.955357142857142  6.431120628122771 10.829799107142858  6.14561027837259 10.69252232142857  C 5.860099928622413 10.555245535714285  5.6245538900785155 10.448102678571427  5.4389721627409 10.37109375  C 5.2533904354032845 10.294084821428571  4.967880085653105 10.185267857142858  4.582441113490364 10.044642857142858  C 4.30406852248394 9.937499999999998  4.08458244111349 9.853794642857142  3.923982869379015 9.793526785714285  C 3.76338329764454 9.73325892857143  3.54389721627409 9.64453125  3.265524625267666 9.52734375  C 2.987152034261242 9.410156249999998  2.764097073518915 9.306361607142858  2.5963597430406855 9.21595982142857  C 2.428622412562456 9.125558035714285  2.226980728051392 9.006696428571427  1.9914346895074946 8.859375  C 1.7558886509635974 8.712053571428571  1.5649536045681658 8.569754464285714  1.418629550321199 8.432477678571427  C 1.2723054960742328 8.29520089285714  1.1170592433975732 8.131138392857142  0.9528907922912205 7.940290178571428  C 0.7887223411848681 7.749441964285713  0.6620271234832263 7.555245535714285  0.5728051391862955 7.357700892857142  C 0.4835831548893648 7.160156249999998  0.40863668807994297 6.937499999999999  0.34796573875802994 6.689732142857142  C 0.28729478943611714 6.441964285714286  0.2569593147751606 6.180803571428571  0.2569593147751606 5.90625  C 0.2569593147751606 4.982142857142858  0.606709493219129 4.171874999999998  1.3062098501070663 3.475446428571428  C 2.005710206995004 2.779017857142855  2.915774446823698 2.3303571428571423  4.036402569593148 2.129464285714285  L 4.036402569593148 0.3214285714285723  C 4.036402569593148 0.23437499999999867  4.0703069236259815 0.15904017857142838  4.138115631691649 0.09542410714285743  C 4.205924339757317 0.031808035714286476  4.286224125624554 0  4.379014989293362 0  L 5.82441113490364 0  C 5.924339757316202 0  6.006423982869379 0.030133928571427715  6.070663811563169 0.09040178571428514  C 6.134903640256959 0.15066964285714257  6.167023554603855 0.22767857142856962  6.167023554603855 0.3214285714285723  L 6.167023554603855 2.089285714285715  C 6.573875802997859 2.129464285714285  6.968236973590293 2.206473214285712  7.350107066381156 2.3203125  C 7.731977159172021 2.4341517857142856  8.04246966452534 2.546316964285715  8.281584582441115 2.656808035714285  C 8.520699500356889 2.7672991071428577  8.747323340471093 2.8928571428571423  8.961456102783727 3.0334821428571423  C 9.17558886509636 3.1741071428571423  9.314775160599572 3.271205357142855  9.379014989293362 3.324776785714285  C 9.443254817987153 3.3783482142857135  9.49678800856531 3.425223214285715  9.539614561027838 3.465401785714285  C 9.660956459671663 3.5859375  9.67880085653105 3.713169642857142  9.593147751605995 3.847098214285715  L 8.725910064239828 5.313616071428572  C 8.668807994289793 5.4140625  8.586723768736617 5.467633928571429  8.4796573875803 5.474330357142858  C 8.379728765167737 5.494419642857142  8.283369022127053 5.470982142857142  8.190578158458244 5.404017857142858  C 8.16916488222698 5.383928571428572  8.117416131334762 5.34375  8.035331905781584 5.283482142857142  C 7.95324768022841 5.223214285714285  7.814061384725198 5.134486607142855  7.617773019271948 5.017299107142858  C 7.421484653818702 4.900111607142856  7.212705210563883 4.792968749999999  6.991434689507495 4.695870535714285  C 6.770164168451107 4.598772321428571  6.504282655246253 4.511718749999999  6.1937901498929335 4.434709821428572  C 5.883297644539614 4.3577008928571415  5.578158458244111 4.319196428571428  5.278372591006423 4.319196428571428  C 4.60028551034975 4.319196428571428  4.04710920770878 4.4631696428571415  3.618843683083512 4.751116071428572  C 3.190578158458244 5.039062499999999  2.9764453961456105 5.410714285714285  2.9764453961456105 5.866071428571428  C 2.9764453961456105 6.040178571428571  3.0067808708065673 6.200892857142856  3.0674518201284795 6.348214285714285  C 3.1281227694503926 6.495535714285712  3.233404710920771 6.634486607142858  3.3832976445396143 6.765066964285715  C 3.5331905781584583 6.895647321428572  3.674161313347609 7.006138392857142  3.8062098501070665 7.096540178571428  C 3.9382583868665244 7.186941964285715  4.138115631691649 7.290736607142856  4.405781584582441 7.407924107142858  C 4.673447537473233 7.525111607142855  4.889364739471806 7.615513392857142  5.053533190578159 7.679129464285715  C 5.217701641684512 7.742745535714286  5.467523197715918 7.834821428571428  5.802997858672377 7.955357142857142  C 6.181299072091364 8.089285714285714  6.47037830121342 8.194754464285714  6.670235546038544 8.271763392857142  C 6.87009279086367 8.348772321428571  7.141327623126338 8.465959821428571  7.483940042826553 8.623325892857142  C 7.826552462526767 8.780691964285714  8.096002855103498 8.922991071428571  8.292291220556745 9.050223214285715  C 8.488579586009994 9.177455357142858  8.709850107066382 9.344866071428571  8.95610278372591 9.552455357142858  C 9.20235546038544 9.760044642857142  9.391506067094934 9.972656249999998  9.52355460385439 10.19029017857143  C 9.655603140613847 10.407924107142858  9.76802284082798 10.664062499999996  9.860813704496788 10.958705357142858  Z " fill-rule="nonzero" fill="#185b0d" stroke="none" transform="matrix(1 0 0 1 1025 439 )" />
  </g>
</svg>