<?xml version="1.0" encoding="UTF-8"?>
<svg width="16px" height="16px" viewBox="0 0 16 16" version="1.1" xmlns="http://www.w3.org/2000/svg" xmlns:xlink="http://www.w3.org/1999/xlink">
    <title>icon-info-message</title>
    <g id="Page-1" stroke="none" stroke-width="1" fill="none" fill-rule="evenodd">
        <g id="Small-Message-icons-16x16" transform="translate(-18.000000, -188.000000)">
            <g id="icon-info-message" transform="translate(18.000000, 188.000000)">
                <circle id="Oval" fill="#0673BB" cx="8" cy="8" r="8"></circle>
                <path d="M5.88824463,6 L8.75,6 C8.88807119,6 9,6.11192881 9,6.25 L9,11.3598633 C9,11.7125583 9.28591581,11.9984741 9.63861084,11.9984741 L10.0272217,11.9984741 C10.1652929,11.9984741 10.2772217,12.1104029 10.2772217,12.2484741 L10.2772217,12.75 C10.2772217,12.8880712 10.1652929,13 10.0272217,13 L5.97393799,13 C5.8358668,13 5.72393799,12.8880712 5.72393799,12.75 L5.72393799,12.2484741 C5.72393799,12.1104029 5.8358668,11.9984741 5.97393799,11.9984741 L6.36196899,11.9984741 C6.71434379,11.9984741 7,11.7128179 7,11.3604431 L7,7.69613647 C7,7.32009811 6.69516068,7.01525879 6.31912231,7.01525879 L5.88824463,7.01525879 C5.75017344,7.01525879 5.63824463,6.90332998 5.63824463,6.76525879 L5.63824463,6.25 C5.63824463,6.11192881 5.75017344,6 5.88824463,6 Z" id="Rectangle" fill="#FFFFFF"></path>
                <circle id="Oval" fill="#FFFFFF" cx="8" cy="4" r="1"></circle>
            </g>
        </g>
    </g>
</svg>