<?xml version="1.0" encoding="UTF-8"?>
<svg width="20px" height="20px" viewBox="0 0 20 20" version="1.1" xmlns="http://www.w3.org/2000/svg" xmlns:xlink="http://www.w3.org/1999/xlink">
    <title>icon-auto-saving-blue</title>
    <g id="Page-1-Icons" stroke="none" stroke-width="1" fill="none" fill-rule="evenodd">
        <g id="PECOS-2.0-Icons-Overview-v31" transform="translate(-428.000000, -480.000000)" fill="#0573BB">
            <g id="SMALL-MESSAGE" transform="translate(417.000000, 320.000000)">
                <g id="icon-auto-saving-blue" transform="translate(11.000000, 160.000000)">
                    <path d="M7.02319336,15.682373 C7.85162048,15.682373 8.52319336,16.3539459 8.52319336,17.182373 C8.52319336,18.0108002 7.85162048,18.682373 7.02319336,18.682373 C6.19476623,18.682373 5.52319336,18.0108002 5.52319336,17.182373 C5.52319336,16.3539459 6.19476623,15.682373 7.02319336,15.682373 Z M13.02771,15.1352539 C13.8561371,15.1352539 14.52771,15.8068268 14.52771,16.6352539 C14.52771,17.463681 13.8561371,18.1352539 13.02771,18.1352539 C12.1992828,18.1352539 11.52771,17.463681 11.52771,16.6352539 C11.52771,15.8068268 12.1992828,15.1352539 13.02771,15.1352539 Z M2.45092773,12.3666992 C3.27935486,12.3666992 3.95092773,13.0382721 3.95092773,13.8666992 C3.95092773,14.6951263 3.27935486,15.3666992 2.45092773,15.3666992 C1.62250061,15.3666992 0.950927734,14.6951263 0.950927734,13.8666992 C0.950927734,13.0382721 1.62250061,12.3666992 2.45092773,12.3666992 Z M1.5,7 C2.32842712,7 3,7.67157287 3,8.5 C3,9.32842712 2.32842712,10 1.5,10 C0.671572875,10 0,9.32842712 0,8.5 C0,7.67157287 0.671572875,7 1.5,7 Z M9.56763927,-1.64313008e-14 C12.3553847,2.73604833e-14 14.8032004,1.1773444 16.9110862,3.53203319 L18.8256865,1.98667582 C19.1355823,1.73643603 19.5896619,1.78479676 19.8399017,2.09469254 C19.9434956,2.22298271 20,2.3828977 20,2.54779178 L20,9.23916085 C20,9.6374765 19.6771014,9.96037513 19.2787857,9.96037513 C19.2213951,9.96037513 19.1642096,9.95352493 19.1084428,9.9399699 L12.7391239,8.39180425 C12.3520778,8.29772645 12.11458,7.90769842 12.2086578,7.52065227 C12.2460722,7.36672566 12.3331234,7.22939856 12.4563676,7.12987925 L14.5983645,5.39927568 C12.954877,3.79975856 11.2779686,3 9.56763927,3 C8.05119376,3 6.53556078,3.62871384 5.02074035,4.88614152 C4.4146313,5.38928928 3.51931093,5.32374856 2.99291992,4.73771242 C2.41947329,4.09928881 2.47214754,3.11687388 3.11057115,2.54342725 L3.12828308,2.52774895 L3.12828308,2.52774895 C5.06284027,0.842582984 7.20929233,-5.63993297e-14 9.56763927,-1.64313008e-14 Z" id="arrow-circle"></path>
                </g>
            </g>
        </g>
    </g>
</svg>