<?xml version="1.0" encoding="UTF-8"?>
<svg width="16px" height="16px" viewBox="0 0 16 16" version="1.1" xmlns="http://www.w3.org/2000/svg" xmlns:xlink="http://www.w3.org/1999/xlink">
    <title>icon-unavailable-message</title>
    <g id="Page-1-Icons" stroke="none" stroke-width="1" fill="none" fill-rule="evenodd">
        <g id="PECOS-2.0-Icons-Overview-v19" transform="translate(-795.000000, -291.000000)" fill="#919191">
            <g id="Small-Message-Icons" transform="translate(781.000000, 69.000000)">
                <path d="M22,222 C26.418278,222 30,225.581722 30,230 C30,234.418278 26.418278,238 22,238 C17.581722,238 14,234.418278 14,230 C14,225.581722 17.581722,222 22,222 Z M16,230 C16,233.313708 18.6862915,236 22,236 C23.2958935,236 24.4958324,235.589169 25.4766776,234.890646 L17.1093541,226.523322 C16.410831,227.504168 16,228.704106 16,230 Z M22,224 C20.7041065,224 19.5041676,224.410831 18.5233224,225.109354 L26.8906459,233.476678 C27.589169,232.495832 28,231.295894 28,230 C28,226.686292 25.3137085,224 22,224 Z" id="icon-unavailable-message"></path>
            </g>
        </g>
    </g>
</svg>