<?xml version="1.0" encoding="UTF-8"?>
<svg width="16px" height="16px" viewBox="0 0 16 16" version="1.1" xmlns="http://www.w3.org/2000/svg" xmlns:xlink="http://www.w3.org/1999/xlink">
    <title>icon-warning-message</title>
    <g id="Page-1" stroke="none" stroke-width="1" fill="none" fill-rule="evenodd">
        <g id="PECOS-2.0-Icons-&amp;-Illus-v14" transform="translate(-795.000000, -188.000000)">
            <g id="Small-Message-Icons" transform="translate(777.000000, 57.000000)">
                <g id="icon-warning-message" transform="translate(18.000000, 131.000000)">
                    <path d="M8,-3.41060513e-13 C8.68660458,-3.41060513e-13 9.32226837,0.564783563 9.90699137,1.69435069 L15.5170802,12.9414395 C15.9976655,13.913411 16.1195542,14.6437973 15.8827465,15.1325986 C15.6459388,15.6213999 15.0301269,15.9105337 14.035311,16 L1.97077396,16 C0.995551568,15.9537248 0.381171463,15.664591 0.127633648,15.1325986 C-0.125904167,14.6006062 -0.00171190407,13.8611904 0.500210438,12.9143513 L6.14798881,1.69565307 C6.69605836,0.565217692 7.31339542,-3.41060513e-13 8,-3.41060513e-13 Z" id="Triangle" fill="#F58900"></path>
                    <path d="M8,12.0498047 C8.69035594,12.0498047 9.25,12.6094488 9.25,13.2998047 C9.25,13.9901606 8.69035594,14.5498047 8,14.5498047 C7.30964406,14.5498047 6.75,13.9901606 6.75,13.2998047 C6.75,12.6094488 7.30964406,12.0498047 8,12.0498047 Z M8.04150391,4.4576416 C8.67473334,4.4576416 9.18806722,4.97097548 9.18806722,5.60420491 C9.18806722,5.63718034 9.18664465,5.67014041 9.18380347,5.70299321 L8.72570801,11 L7.24041748,11 L6.8770733,5.70470931 C6.83294623,5.06161205 7.31850751,4.50450665 7.96160478,4.46037958 C7.98819874,4.4585548 8.01484741,4.4576416 8.04150391,4.4576416 Z" id="exclamation-mark" fill="#FFFFFF"></path>
                </g>
            </g>
        </g>
    </g>
</svg>