<?xml version="1.0" encoding="UTF-8"?>
<svg width="16px" height="16px" viewBox="0 0 16 16" version="1.1" xmlns="http://www.w3.org/2000/svg" xmlns:xlink="http://www.w3.org/1999/xlink">
    <title>icon-error-message</title>
    <g id="Page-1" stroke="none" stroke-width="1" fill="none" fill-rule="evenodd">
        <g id="Small-Message-icons-16x16" transform="translate(-18.000000, -54.000000)">
            <g id="icon-error-message" transform="translate(18.000000, 54.000000)">
                <circle id="Oval" fill="#E00F16" cx="8" cy="8" r="8"></circle>
                <path d="M8.00170898,11.046875 C8.69206492,11.046875 9.25170898,11.6065191 9.25170898,12.296875 C9.25170898,12.9872309 8.69206492,13.546875 8.00170898,13.546875 C7.31135305,13.546875 6.75170898,12.9872309 6.75170898,12.296875 C6.75170898,11.6065191 7.31135305,11.046875 8.00170898,11.046875 Z M8.00170898,2.41491699 C8.64584893,2.41491699 9.16802753,2.93709559 9.16802753,3.58123554 C9.16802753,3.60815527 9.16709553,3.63506694 9.16523321,3.66192218 L8.72570801,10 L7.24041748,10 L6.8320801,3.66233051 C6.79046023,3.01636231 7.28038135,2.45896206 7.92634955,2.41734219 C7.95143685,2.41572581 7.97656966,2.41491699 8.00170898,2.41491699 Z" id="exclamation-mark" fill="#FFFFFF"></path>
            </g>
        </g>
    </g>
</svg>