<?xml version="1.0" encoding="UTF-8"?>
<svg width="24px" height="24px" viewBox="0 0 24 24" version="1.1" xmlns="http://www.w3.org/2000/svg" xmlns:xlink="http://www.w3.org/1999/xlink">
    <title>icon-pymnt-submitted</title>
    <g id="Page-1-Icons" stroke="none" stroke-width="1" fill="none" fill-rule="evenodd">
        <g id="PECOS-2.0-Icons-Overview-v32-pending-reviews" transform="translate(-2208.000000, -2259.000000)">
            <g id="24x24-status-icons" transform="translate(30.000000, 2206.000000)">
                <g id="Fee-Status-Icons" transform="translate(2162.000000, 2.000000)">
                    <g id="Payment-Satus" transform="translate(13.000000, 10.000000)">
                        <g id="icon-pymnt-submitted" transform="translate(3.000000, 41.000000)">
                            <circle id="Oval" fill="#0F6A00" cx="12" cy="12" r="12"></circle>
                            <path d="M14.625,7.70940101 C14.7712103,7.70940101 14.9127934,7.76066115 15.0251152,7.85426271 L19.423834,11.5198617 C19.6890071,11.7408393 19.7248346,12.1349422 19.5038571,12.4001152 C19.4796576,12.4291547 19.4528735,12.4559388 19.423834,12.4801383 L15.0251152,16.1457373 C14.7599422,16.3667148 14.3658393,16.3308873 14.1448617,16.0657142 C14.0512601,15.9533924 14,15.8118093 14,15.665599 L14,12.999401 L12,13 C11.4477153,13 11,12.5522847 11,12 C11,11.4477153 11.4477153,11 12,11 L14,10.999401 L14,8.33440101 C14,7.98922304 14.279822,7.70940101 14.625,7.70940101 Z M9,13 C9.55228475,13 10,12.5522847 10,12 C10,11.4477153 9.55228475,11 9,11 C8.44771525,11 8,11.4477153 8,12 C8,12.5522847 8.44771525,13 9,13 Z M6,13 C6.55228475,13 7,12.5522847 7,12 C7,11.4477153 6.55228475,11 6,11 C5.44771525,11 5,11.4477153 5,12 C5,12.5522847 5.44771525,13 6,13 Z" id="arrow-right" fill="#FFFFFF"></path>
                        </g>
                    </g>
                </g>
            </g>
        </g>
    </g>
</svg>