<?xml version="1.0" encoding="UTF-8"?>
<svg width="24px" height="24px" viewBox="0 0 24 24" version="1.1" xmlns="http://www.w3.org/2000/svg" xmlns:xlink="http://www.w3.org/1999/xlink">
    <title>icon-refund-in-progress</title>
    <g id="Page-1" stroke="none" stroke-width="1" fill="none" fill-rule="evenodd">
        <g id="PECOS-2.0-Icons-&amp;-Illus-Overview-v17" transform="translate(-1565.000000, -2295.000000)">
            <g id="Fee-Status-Icons" transform="translate(1547.000000, 2208.000000)">
                <g id="icon-refund-in-progress" transform="translate(18.000000, 87.000000)">
                    <circle id="Oval" fill="#3C5C09" cx="12" cy="12" r="12"></circle>
                    <path d="M10.3582764,17.8005371 C10.9105611,17.8005371 11.3582764,18.2482524 11.3582764,18.8005371 C11.3582764,19.3528219 10.9105611,19.8005371 10.3582764,19.8005371 C9.80599162,19.8005371 9.35827637,19.3528219 9.35827637,18.8005371 C9.35827637,18.2482524 9.80599162,17.8005371 10.3582764,17.8005371 Z M13.8049316,17.7622681 C14.3572164,17.7622681 14.8049316,18.2099833 14.8049316,18.7622681 C14.8049316,19.3145528 14.3572164,19.7622681 13.8049316,19.7622681 C13.2526469,19.7622681 12.8049316,19.3145528 12.8049316,18.7622681 C12.8049316,18.2099833 13.2526469,17.7622681 13.8049316,17.7622681 Z M16.7061157,16.1760864 C17.2584005,16.1760864 17.7061157,16.6238017 17.7061157,17.1760864 C17.7061157,17.7283712 17.2584005,18.1760864 16.7061157,18.1760864 C16.153831,18.1760864 15.7061157,17.7283712 15.7061157,17.1760864 C15.7061157,16.6238017 16.153831,16.1760864 16.7061157,16.1760864 Z M7.69811294,7.09270486 L7.69811294,8.3750578 C8.12458352,8.4378029 8.52531882,8.54564604 8.90031882,8.69858721 C9.27531882,8.85152839 9.58046588,9.04172447 9.81576,9.26917545 L9.81576,9.26917545 L9.26428941,10.5750578 C8.53634823,10.0338813 7.81576,9.7632931 7.1025247,9.7632931 C6.70546588,9.7632931 6.38745117,9.85348917 6.14848058,10.0338813 C5.90951,10.2142735 5.7900247,10.4652539 5.7900247,10.7868225 C5.7900247,11.0064304 5.85987764,11.1868225 5.99958352,11.327999 C6.13928941,11.4691754 6.31576,11.5789794 6.52899529,11.6574107 C6.74223058,11.7358421 7.0400247,11.8260382 7.42237764,11.927999 C7.95178941,12.0691754 8.38928941,12.2142735 8.73487764,12.3632931 C9.08046588,12.5123127 9.37642176,12.7436853 9.62274529,13.0574107 C9.86906882,13.3711362 9.99223058,13.7946656 9.99223058,14.327999 C9.99223058,14.9632931 9.78818647,15.4985872 9.38009823,15.9338813 C8.97201,16.3691754 8.42237764,16.6495676 7.73120117,16.7750578 L7.73120117,16.7750578 L7.73120117,18.0927049 L6.40767176,18.0927049 L6.40767176,16.8221166 C5.92973058,16.7829009 5.48303941,16.6848617 5.06759823,16.527999 C4.65215705,16.3711362 4.29370117,16.1672147 3.99223058,15.9162343 L3.99223058,15.9162343 L4.54370117,14.6103519 C5.27164235,15.1515284 6.05473058,15.4221166 6.89296588,15.4221166 C7.34149529,15.4221166 7.68524529,15.3338813 7.92421588,15.1574107 C8.16318647,14.9809402 8.28267176,14.7319205 8.28267176,14.4103519 C8.28267176,14.2142735 8.21649529,14.0534892 8.08414235,13.927999 C7.95178941,13.8025088 7.78451,13.7025088 7.58230411,13.627999 C7.38009823,13.5534892 7.09149529,13.4652539 6.71649529,13.3632931 C6.17237764,13.2221166 5.72384823,13.073097 5.37090705,12.9162343 C5.01796588,12.7593715 4.71465705,12.5181951 4.46098058,12.1927049 C4.20730411,11.8672147 4.08046588,11.4338813 4.08046588,10.8927049 C4.08046588,10.2652539 4.29186294,9.72603819 4.71465705,9.2750578 C5.13745117,8.82407741 5.69076,8.53584211 6.37458352,8.41035192 L6.37458352,8.41035192 L6.37458352,7.09270486 L7.69811294,7.09270486 Z M18.6208496,13.2493286 C19.1731344,13.2493286 19.6208496,13.6970439 19.6208496,14.2493286 C19.6208496,14.8016134 19.1731344,15.2493286 18.6208496,15.2493286 C18.0685649,15.2493286 17.6208496,14.8016134 17.6208496,14.2493286 C17.6208496,13.6970439 18.0685649,13.2493286 18.6208496,13.2493286 Z M12.4643732,2.38311188 C12.4876855,2.42196573 12.5,2.46642483 12.5,2.51173582 L12.4994769,4.01533875 C16.1452391,4.23992389 19.130418,6.90628347 19.8398117,10.3992154 C19.8733166,10.4987896 19.8912964,10.6052663 19.8912964,10.7159424 C19.8912964,11.2682271 19.4435811,11.7159424 18.8912964,11.7159424 C18.4703803,11.7159424 18.1102036,11.4558865 17.9626725,11.087681 L17.9325425,11.0972971 C17.5215349,8.37340486 15.279284,6.24977789 12.4999027,6.02052886 L12.5,7.62864063 C12.5,7.76671182 12.3880712,7.87864063 12.25,7.87864063 C12.204689,7.87864063 12.1602299,7.86632617 12.1213761,7.84301386 L7.85728872,5.28456146 C7.73889365,5.21352442 7.70050239,5.05995935 7.77153943,4.94156429 C7.79265187,4.90637688 7.82210132,4.87692743 7.85728872,4.85581499 L12.1213761,2.29736259 C12.2397711,2.22632555 12.3933362,2.26471681 12.4643732,2.38311188 Z" id="refund" fill="#FFFFFF"></path>
                </g>
            </g>
        </g>
    </g>
</svg>