<?xml version="1.0" encoding="UTF-8"?>
<svg width="24px" height="24px" viewBox="0 0 24 24" version="1.1" xmlns="http://www.w3.org/2000/svg" xmlns:xlink="http://www.w3.org/1999/xlink">
    <title>icon-partially-refunded</title>
    <g id="Page-1-Icons" stroke="none" stroke-width="1" fill="none" fill-rule="evenodd">
        <g id="PECOS-2.0-Icons-Overview-v32-pending-reviews" transform="translate(-2208.000000, -2370.000000)">
            <g id="24x24-status-icons" transform="translate(30.000000, 2206.000000)">
                <g id="Fee-Status-Icons" transform="translate(2162.000000, 2.000000)">
                    <g id="Payment-Satus" transform="translate(13.000000, 10.000000)">
                        <g id="icon-partially-refunded" transform="translate(3.000000, 152.000000)">
                            <circle id="Oval" fill="#0F6A00" cx="12" cy="12" r="12"></circle>
                            <path d="M8.2374124,7.26169804 L8.2374124,8.54405098 C8.66388298,8.60679608 9.06461828,8.71463921 9.43961828,8.86758039 C9.81461828,9.02052157 10.1197653,9.21071765 10.3550595,9.43816863 L10.3550595,9.43816863 L9.80358887,10.744051 C9.07564769,10.2028745 8.35505946,9.93228627 7.64182416,9.93228627 C7.24476534,9.93228627 6.92675063,10.0224824 6.68778004,10.2028745 C6.44880946,10.3832667 6.32932416,10.6342471 6.32932416,10.9558157 C6.32932416,11.1754235 6.3991771,11.3558157 6.53888298,11.4969922 C6.67858887,11.6381686 6.85505946,11.7479725 7.06829475,11.8264039 C7.28153004,11.9048353 7.57932416,11.9950314 7.9616771,12.0969922 C8.49108887,12.2381686 8.92858887,12.3832667 9.2741771,12.5322863 C9.61976534,12.6813059 9.91572122,12.9126784 10.1620447,13.2264039 C10.4083683,13.5401294 10.53153,13.9636588 10.53153,14.4969922 C10.53153,15.1322863 10.3274859,15.6675804 9.91939769,16.1028745 C9.51130946,16.5381686 8.9616771,16.8185608 8.27050063,16.944051 L8.27050063,16.944051 L8.27050063,18.261698 L6.94697122,18.261698 L6.94697122,16.9911098 C6.46903004,16.9518941 6.02233887,16.8538549 5.60689769,16.6969922 C5.19145651,16.5401294 4.83300063,16.3362078 4.53153004,16.0852274 L4.53153004,16.0852274 L5.08300063,14.7793451 C5.81094181,15.3205216 6.59403004,15.5911098 7.43226534,15.5911098 C7.88079475,15.5911098 8.22454475,15.5028745 8.46351534,15.3264039 C8.70248593,15.1499333 8.82197122,14.9009137 8.82197122,14.5793451 C8.82197122,14.3832667 8.75579475,14.2224824 8.62344181,14.0969922 C8.49108887,13.971502 8.32380946,13.871502 8.12160357,13.7969922 C7.91939769,13.7224824 7.63079475,13.6342471 7.25579475,13.5322863 C6.7116771,13.3911098 6.26314769,13.2420902 5.91020651,13.0852274 C5.55726534,12.9283647 5.25395651,12.6871882 5.00028004,12.361698 C4.74660357,12.0362078 4.61976534,11.6028745 4.61976534,11.061698 C4.61976534,10.4342471 4.8311624,9.89503137 5.25395651,9.44405098 C5.67675063,8.99307059 6.23005946,8.70483529 6.91388298,8.5793451 L6.91388298,8.5793451 L6.91388298,7.26169804 L8.2374124,7.26169804 Z M12.4643732,2.38311188 C12.4876855,2.42196573 12.5,2.46642483 12.5,2.51173582 L12.5004657,4.01539972 C15.4307273,4.1962696 17.9341262,5.9545478 19.1719296,8.45150139 L17.3869959,9.35492452 C16.4789924,7.50917148 14.6503115,6.19798408 12.5001393,6.02054838 L12.5,7.62864063 C12.5,7.76671182 12.3880712,7.87864063 12.25,7.87864063 C12.204689,7.87864063 12.1602299,7.86632617 12.1213761,7.84301386 L7.85728872,5.28456146 C7.73889365,5.21352442 7.70050239,5.05995935 7.77153943,4.94156429 C7.79265187,4.90637688 7.82210132,4.87692743 7.85728872,4.85581499 L12.1213761,2.29736259 C12.2397711,2.22632555 12.3933362,2.26471681 12.4643732,2.38311188 Z M13.9979248,19.6796303 C14.5502096,19.6796303 14.9979248,19.231915 14.9979248,18.6796303 C14.9979248,18.1273455 14.5502096,17.6796303 13.9979248,17.6796303 C13.4456401,17.6796303 12.9979248,18.1273455 12.9979248,18.6796303 C12.9979248,19.231915 13.4456401,19.6796303 13.9979248,19.6796303 Z M16.8181,18.046093 C17.3703847,18.046093 17.8181,17.5983777 17.8181,17.046093 C17.8181,16.4938082 17.3703847,16.046093 16.8181,16.046093 C16.2658152,16.046093 15.8181,16.4938082 15.8181,17.046093 C15.8181,17.5983777 16.2658152,18.046093 16.8181,18.046093 Z M18.5015411,15.3517246 C19.0538259,15.3517246 19.5015411,14.9040094 19.5015411,14.3517246 C19.5015411,13.7994399 19.0538259,13.3517246 18.5015411,13.3517246 C17.9492564,13.3517246 17.5015411,13.7994399 17.5015411,14.3517246 C17.5015411,14.9040094 17.9492564,15.3517246 18.5015411,15.3517246 Z M19.0220604,12.1735573 C19.5743451,12.1735573 20.0220604,11.725842 20.0220604,11.1735573 C20.0220604,10.6212725 19.5743451,10.1735573 19.0220604,10.1735573 C18.4697756,10.1735573 18.0220604,10.6212725 18.0220604,11.1735573 C18.0220604,11.725842 18.4697756,12.1735573 19.0220604,12.1735573 Z" id="icon-refunded" fill="#FFFFFF"></path>
                        </g>
                    </g>
                </g>
            </g>
        </g>
    </g>
</svg>