<?xml version="1.0" encoding="UTF-8"?>
<svg width="24px" height="24px" viewBox="0 0 24 24" version="1.1" xmlns="http://www.w3.org/2000/svg" xmlns:xlink="http://www.w3.org/1999/xlink">
    <title>icon-refund-waiver-withdrawn</title>
    <g id="Page-1" stroke="none" stroke-width="1" fill="none" fill-rule="evenodd">
        <g id="Fee-Payment-Status-Icons" transform="translate(-62.000000, -792.000000)">
            <g id="Fee-Status-Icons-New" transform="translate(34.000000, 92.000000)">
                <g id="Refund-Status" transform="translate(27.000000, 485.000000)">
                    <g id="icon-refund-waiver-withdrawn" transform="translate(1.000000, 215.000000)">
                        <circle id="Oval" fill="#848D94" cx="12" cy="12" r="12"></circle>
                        <path d="M12,8 C12.5522847,8 13,8.44771525 13,9 L13.000975,14.038 L15.718975,14.0383301 C16.0503459,14.0383301 16.318975,14.3069592 16.318975,14.6383301 C16.318975,14.778692 16.2697653,14.9146117 16.1799078,15.0224407 L12.4609328,19.4852108 C12.2487943,19.7397769 11.8704555,19.7741713 11.6158894,19.5620329 C11.5880115,19.5388014 11.5622988,19.5130886 11.5390672,19.4852108 L7.8200922,15.0224407 C7.60795375,14.7678746 7.64234819,14.3895358 7.89691433,14.1773973 C8.00474333,14.0875398 8.14066306,14.0383301 8.28102497,14.0383301 L11.000975,14.038 L11,9 C11,8.44771525 11.4477153,8 12,8 Z M17,5 C17.5522847,5 18,5.44771525 18,6 L18,8.99953365 C18,9.5518184 17.5522847,9.99953365 17,9.99953365 C16.4477153,9.99953365 16,9.5518184 16,8.99953365 L16,6.99701755 L8,6.99701755 L8,8.99953365 C8,9.5518184 7.55228475,9.99953365 7,9.99953365 C6.44771525,9.99953365 6,9.5518184 6,8.99953365 L6,6 C6,5.44771525 6.44771525,5 7,5 L17,5 Z" id="arrow-down" fill="#FFFFFF"></path>
                    </g>
                </g>
            </g>
        </g>
    </g>
</svg>