<?xml version="1.0" encoding="UTF-8"?>
<svg width="32px" height="32px" viewBox="0 0 32 32" version="1.1" xmlns="http://www.w3.org/2000/svg" xmlns:xlink="http://www.w3.org/1999/xlink">
    <title>icon-deactivated-npi-small</title>
    <defs>
        <linearGradient x1="50%" y1="0%" x2="50%" y2="100%" id="linearGradient-1">
            <stop stop-color="#A1A9AF" offset="0%"></stop>
            <stop stop-color="#848D94" offset="100%"></stop>
        </linearGradient>
    </defs>
    <g id="Page-1" stroke="none" stroke-width="1" fill="none" fill-rule="evenodd">
        <g id="PECOS-2.0-Icons-&amp;-Illus-v14" transform="translate(-1236.000000, -1096.000000)">
            <g id="Card-Icons" transform="translate(957.000000, 523.000000)">
                <g id="Small-Icons-Column-2" transform="translate(272.000000, 50.000000)">
                    <g id="Deactivated-NPI-Icon-small" transform="translate(0.000000, 516.000000)">
                        <g id="icon-deactivated-npi-small" transform="translate(7.000000, 7.000000)">
                            <path d="M23.1316602,1.20901462 L23.1400127,1.21048739 C23.9512412,1.35352886 24.4929138,2.12711752 24.3498724,2.93834602 C24.3493828,2.94112229 24.3488854,2.94389716 24.3483802,2.94667061 L22.881,10.9999797 L26.5,11 C27.3284271,11 28,11.6715729 28,12.5 C28,13.3284271 27.3284271,14 26.5,14 L22.334,13.9999797 L21.605,17.9999797 L26.5,18 C27.3284271,18 28,18.6715729 28,19.5 C28,20.3284271 27.3284271,21 26.5,21 L21.059,20.9999797 L19.4587303,29.7864172 C19.3108468,30.598164 18.5351194,31.1380631 17.7225471,30.9947847 L17.7141946,30.9933119 C16.9029661,30.8502704 16.3612935,30.0766818 16.504335,29.2654533 C16.5048245,29.262677 16.5053219,29.2599021 16.5058272,29.2571287 L18.01,20.9999797 L14.203,20.9999797 L12.6032616,29.7864172 C12.455378,30.598164 11.6796506,31.1380631 10.8670784,30.9947847 L10.8587259,30.9933119 C10.0474974,30.8502704 9.50582476,30.0766818 9.64886623,29.2654533 L9.65035843,29.2571287 L11.155,20.9999797 L7.5,21 C6.67157288,21 6,20.3284271 6,19.5 C6,18.6715729 6.67157288,18 7.5,18 L11.701,17.9999797 L12.43,13.9999797 L7.5,14 C6.67157288,14 6,13.3284271 6,12.5 C6,11.6715729 6.67157288,11 7.5,11 L12.976,10.9999797 L14.5400083,2.41738206 C14.6878919,1.60563526 15.4636192,1.0657362 16.2761915,1.20901462 L16.284544,1.21048739 C17.0957725,1.35352886 17.6374451,2.12711752 17.4944036,2.93834602 L17.4929114,2.94667061 L16.025,10.9999797 L19.831,10.9999797 L21.395477,2.41738206 C21.5433606,1.60563526 22.319088,1.0657362 23.1316602,1.20901462 Z M19.285,13.9999797 L15.478,13.9999797 L14.75,17.9999797 L18.556,17.9999797 L19.285,13.9999797 Z" id="Combined-Shape" fill="url(#linearGradient-1)"></path>
                            <path d="M5,25 L5,27 L7,27 L7,29 L5,29 L5,31 L3,31 L3,29 L1,29 L1,27 L3,27 L3,25 L5,25 Z" id="cross" fill="#848D94"></path>
                            <polygon id="Rectangle" fill="#000000" points="2.16918945 5.68434189e-14 31.5178047 29.3013598 29.3964844 31.4226802 0.169189453 2.17130522"></polygon>
                        </g>
                    </g>
                </g>
            </g>
        </g>
    </g>
</svg>