<?xml version="1.0" encoding="UTF-8"?>
<svg width="32px" height="32px" viewBox="0 0 32 32" version="1.1" xmlns="http://www.w3.org/2000/svg" xmlns:xlink="http://www.w3.org/1999/xlink">
    <title>icon-application-organization-small</title>
    <defs>
        <linearGradient x1="50%" y1="0%" x2="50%" y2="50%" id="linearGradient-1">
            <stop stop-color="#149D9D" offset="0%"></stop>
            <stop stop-color="#095C5C" offset="100%"></stop>
        </linearGradient>
        <linearGradient x1="50%" y1="0%" x2="50%" y2="100%" id="linearGradient-2">
            <stop stop-color="#149D9D" offset="0%"></stop>
            <stop stop-color="#095C5C" offset="100%"></stop>
        </linearGradient>
        <linearGradient x1="50%" y1="0%" x2="50%" y2="100%" id="linearGradient-3">
            <stop stop-color="#E3FFFF" offset="0%"></stop>
            <stop stop-color="#A0EDED" offset="100%"></stop>
        </linearGradient>
    </defs>
    <g id="Page-1" stroke="none" stroke-width="1" fill="none" fill-rule="evenodd">
        <g id="PECOS-2.0-Icons-&amp;-Illus-v14" transform="translate(-973.000000, -904.000000)">
            <g id="Card-Icons" transform="translate(957.000000, 523.000000)">
                <g id="Small-Icons-Column-1" transform="translate(9.000000, 54.000000)">
                    <g id="Application-Org-Icon-small" transform="translate(0.000000, 320.000000)">
                        <g id="icon-application-organization-small" transform="translate(7.000000, 7.000000)">
                            <path d="M2,0 L23,0 C24.1045695,-2.02906125e-16 25,0.8954305 25,2 L25,28 C25,29.1045695 24.1045695,30 23,30 L2,30 C0.8954305,30 1.3527075e-16,29.1045695 0,28 L0,2 C-1.3527075e-16,0.8954305 0.8954305,2.02906125e-16 2,0 Z" id="dark-bgd" fill="url(#linearGradient-1)"></path>
                            <rect id="paper" fill="#E5FFFF" x="2" y="2" width="21" height="26"></rect>
                            <path d="M19,17 L19,19 L6,19 L6,17 L19,17 Z M19,13 L19,15 L6,15 L6,13 L19,13 Z M19,9 L19,11 L6,11 L6,9 L19,9 Z M19,5 L19,7 L6,7 L6,5 L19,5 Z" id="text-lines" fill="#15BBBB"></path>
                            <path d="M8,21 L8,23 L10,23 L10,25 L8,25 L8,27 L6,27 L6,25 L4,25 L4,23 L6,23 L6,21 L8,21 Z" id="cross" fill="#18DCDC"></path>
                            <rect id="Rectangle" fill="url(#linearGradient-2)" x="16" y="12" width="16" height="20" rx="1"></rect>
                            <g id="building" transform="translate(18.000000, 14.000000)">
                                <rect id="Rectangle" fill="url(#linearGradient-3)" x="0" y="0" width="12" height="16" rx="0.5"></rect>
                                <path d="M5,11 L5,16 L2,16 L2,11 L5,11 Z M10,11 L10,13 L6,13 L6,11 L10,11 Z M4,8 L4,10 L2,10 L2,8 L4,8 Z M7,8 L7,10 L5,10 L5,8 L7,8 Z M10,8 L10,10 L8,10 L8,8 L10,8 Z M4,5 L4,7 L2,7 L2,5 L4,5 Z M7,5 L7,7 L5,7 L5,5 L7,5 Z M10,5 L10,7 L8,7 L8,5 L10,5 Z M4,2 L4,4 L2,4 L2,2 L4,2 Z M7,2 L7,4 L5,4 L5,2 L7,2 Z M10,2 L10,4 L8,4 L8,2 L10,2 Z" id="windows" fill="#149D9D"></path>
                            </g>
                        </g>
                    </g>
                </g>
            </g>
        </g>
    </g>
</svg>