<?xml version="1.0" encoding="UTF-8"?>
<svg width="32px" height="32px" viewBox="0 0 32 32" version="1.1" xmlns="http://www.w3.org/2000/svg" xmlns:xlink="http://www.w3.org/1999/xlink">
    <title>icon-application-individual-small</title>
    <defs>
        <linearGradient x1="50%" y1="0%" x2="50%" y2="50%" id="linearGradient-1">
            <stop stop-color="#149D9D" offset="0%"></stop>
            <stop stop-color="#095C5C" offset="100%"></stop>
        </linearGradient>
        <linearGradient x1="50%" y1="0%" x2="50%" y2="98.8772946%" id="linearGradient-2">
            <stop stop-color="#15BBBB" offset="0%"></stop>
            <stop stop-color="#095C5C" offset="100%"></stop>
        </linearGradient>
        <linearGradient x1="50%" y1="0%" x2="50%" y2="98.8772946%" id="linearGradient-3">
            <stop stop-color="#FCFFFF" offset="0%"></stop>
            <stop stop-color="#A0EDED" offset="100%"></stop>
        </linearGradient>
    </defs>
    <g id="Page-1" stroke="none" stroke-width="1" fill="none" fill-rule="evenodd">
        <g id="PECOS-2.0-Icons-&amp;-Illus-v14" transform="translate(-973.000000, -840.000000)">
            <g id="Card-Icons" transform="translate(957.000000, 523.000000)">
                <g id="Small-Icons-Column-1" transform="translate(9.000000, 54.000000)">
                    <g id="Application-Ind-Icon-small" transform="translate(0.000000, 256.000000)">
                        <g id="icon-application-individual-small" transform="translate(7.000000, 7.000000)">
                            <g id="paper">
                                <path d="M2,0 L23,0 C24.1045695,-2.02906125e-16 25,0.8954305 25,2 L25,28 C25,29.1045695 24.1045695,30 23,30 L2,30 C0.8954305,30 1.3527075e-16,29.1045695 0,28 L0,2 C-1.3527075e-16,0.8954305 0.8954305,2.02906125e-16 2,0 Z" id="dark-bgd" fill="url(#linearGradient-1)"></path>
                                <rect fill="#E5FFFF" x="2" y="2" width="21" height="26"></rect>
                                <path d="M19,17 L19,19 L6,19 L6,17 L19,17 Z M19,13 L19,15 L6,15 L6,13 L19,13 Z M19,9 L19,11 L6,11 L6,9 L19,9 Z M19,5 L19,7 L6,7 L6,5 L19,5 Z" id="text-lines" fill="#15BBBB"></path>
                            </g>
                            <path d="M8,21 L8,23 L10,23 L10,25 L8,25 L8,27 L6,27 L6,25 L4,25 L4,23 L6,23 L6,21 L8,21 Z" id="cross" fill="#18DCDC"></path>
                            <g id="person" transform="translate(12.000000, 12.000000)">
                                <path d="M10.5,0.5 C13.5375661,0.5 16,3.07436269 16,6.25 C16,6.95393294 15.8790056,7.62832158 15.6575729,8.25167537 C18.1518428,9.3666812 19.8891647,11.2369784 19.8891647,13.3267394 C19.8891647,16.6861893 16.5858368,20 10.4897293,20 C4.39362181,20 0.989164736,16.6861893 0.989164736,13.3267394 C0.989164736,11.224351 2.78715208,9.34408667 5.33605384,8.23131414 C5.11853775,7.61455547 5,6.94674995 5,6.25 C5,3.07436269 7.46243388,0.5 10.5,0.5 Z" id="person-bgd" fill="url(#linearGradient-2)"></path>
                                <path d="M10.5452103,11.4258855 C11.992307,11.4258855 13.2873654,10.7261943 14.1535379,9.62438719 C16.3526341,10.3726568 17.930481,11.7645861 17.930481,13.3336792 C17.930481,15.6798537 15.335009,17.9941548 10.5452103,17.9941548 C5.75541151,17.9941548 3.08048096,15.6798537 3.08048096,13.3336792 C3.08048096,11.7607933 4.7016771,10.3659286 6.93268092,9.61731399 C7.79832486,10.723636 9.09547042,11.4258855 10.5452103,11.4258855 Z M10.5452103,2.46915475 C12.5011036,2.46915475 14.0866684,4.20684957 14.0866684,6.35040475 C14.0866684,8.49395994 12.5011036,10.2316548 10.5452103,10.2316548 C8.58931695,10.2316548 7.00375215,8.49395994 7.00375215,6.35040475 C7.00375215,4.20684957 8.58931695,2.46915475 10.5452103,2.46915475 Z" id="person-light" fill="url(#linearGradient-3)"></path>
                            </g>
                        </g>
                    </g>
                </g>
            </g>
        </g>
    </g>
</svg>