<?xml version="1.0" encoding="UTF-8"?>
<svg width="31px" height="30px" viewBox="0 0 31 30" version="1.1" xmlns="http://www.w3.org/2000/svg" xmlns:xlink="http://www.w3.org/1999/xlink">
    <title>icon-savings-eft-small</title>
    <defs>
        <linearGradient x1="50%" y1="0%" x2="50%" y2="100%" id="linearGradient-1">
            <stop stop-color="#BEEAC9" offset="0%"></stop>
            <stop stop-color="#9EDDAD" offset="100%"></stop>
        </linearGradient>
        <linearGradient x1="50%" y1="0.673691543%" x2="50%" y2="100%" id="linearGradient-2">
            <stop stop-color="#54B868" offset="0%"></stop>
            <stop stop-color="#268539" offset="100%"></stop>
        </linearGradient>
        <linearGradient x1="50%" y1="0%" x2="50%" y2="100%" id="linearGradient-3">
            <stop stop-color="#49BF61" offset="0%"></stop>
            <stop stop-color="#156825" offset="100%"></stop>
        </linearGradient>
    </defs>
    <g id="Page-1-Icons" stroke="none" stroke-width="1" fill="none" fill-rule="evenodd">
        <g id="PECOS-2.0-Icons-Overview-v30" transform="translate(-1137.000000, -1100.000000)">
            <g id="CARD" transform="translate(866.000000, 546.000000)">
                <g id="Small-Icons-Column-2" transform="translate(263.000000, 60.000000)">
                    <g id="Savings-EFT-Icon-small" transform="translate(0.000000, 486.000000)">
                        <g id="icon-savings-eft-small" transform="translate(8.000000, 8.000000)">
                            <polygon id="Rectangle" fill="url(#linearGradient-1)" points="11 3 31 3 31 22.731003 22 25 11 25"></polygon>
                            <path d="M31,20.5 L31,22.5 C31,23.8807119 26.5228475,25 21,25 L20.9118311,25.000184 C21.2056344,24.3600704 21.4447691,23.6896523 21.623257,22.9949077 C26.7466592,22.9165447 30.8272237,21.8731717 30.9946549,20.5825221 L31,20.5 Z M31,16.5 L31,18.5 C31,19.7998234 27.0320657,20.8679566 21.9592048,20.9886478 C21.9864508,20.6624757 22,20.3328201 22,20 C22,19.6593368 21.9858047,19.3219891 21.9579733,18.9885161 C26.9232511,18.8707947 30.830885,17.8449485 30.9946549,16.5825221 L31,16.5 Z M31,12.5 L31,14.5 C31,15.8286079 26.8543803,16.9151506 21.6205953,16.9952642 C21.4421395,16.3028809 21.203828,15.6358393 20.9113722,14.9988164 C20.9406304,14.9999676 20.9703001,15 21,15 C26.4123905,15 30.8204956,13.9250357 30.9946549,12.5825221 L31,12.5 Z M31,8.5 L31,10.5 C31,11.8807119 26.5228475,13 21,13 C20.5705599,13 20.1474422,12.9932326 19.7322602,12.9801011 C19.169703,12.1997773 18.5150765,11.4906132 17.7847969,10.8675034 C18.7932095,10.9535492 19.8749064,11 21,11 C26.4123905,11 30.8204956,9.92503568 30.9946549,8.58252214 L31,8.5 Z M31,4.5 L31,6.5 C31,7.88071187 26.5228475,9 21,9 C15.5876095,9 11.1795044,7.92503568 11.0053451,6.58252214 L11,6.5 L11,4.5 L11,4.5 C11,5.88071187 15.4771525,7 21,7 C26.4123905,7 30.8204956,5.92503568 30.9946549,4.58252214 L31,4.5 Z M21,0 C26.5228475,0 31,1.11928813 31,2.5 C31,3.88071187 26.5228475,5 21,5 C15.4771525,5 11,3.88071187 11,2.5 C11,1.11928813 15.4771525,0 21,0 Z" id="Combined-Shape" fill="url(#linearGradient-2)"></path>
                            <circle id="Oval-Copy-9" fill="url(#linearGradient-3)" cx="10" cy="20" r="10"></circle>
                            <path d="M10.5259018,26.5765114 L10.5259018,24.8811989 C11.5675685,24.7666155 12.3644435,24.4645322 12.9165268,23.9749489 C13.4686101,23.4853655 13.7446518,22.8629697 13.7446518,22.1077614 C13.7446518,21.4983864 13.5545476,20.9827614 13.1743393,20.5608864 C12.794131,20.1390114 12.1092351,19.7379697 11.1196518,19.3577614 L10.5259018,19.1311989 L10.5259018,16.2874489 C11.3331935,16.3499489 12.1456935,16.5426572 12.9634018,16.8655739 L13.5337143,15.4358864 C12.5857976,15.0452614 11.5831935,14.8317197 10.5259018,14.7952614 L10.5259018,13.5061989 L9.48683929,13.5061989 L9.48683929,14.8186989 C8.52850596,14.9176572 7.76939138,15.1989072 7.20949554,15.6624489 C6.64959971,16.1259905 6.36965179,16.7171364 6.36965179,17.4358864 C6.36965179,18.1077614 6.56626638,18.6715635 6.95949554,19.1272926 C7.35272471,19.5830218 7.97642263,19.9749489 8.83058929,20.3030739 L9.48683929,20.5452614 L9.48683929,23.4671364 C9.01288096,23.461928 8.47642263,23.3851051 7.87746429,23.2366676 C7.27850596,23.0882301 6.75506846,22.9046364 6.30715179,22.6858864 L6.30715179,24.3343239 C7.13527679,24.7093239 8.19517263,24.9072405 9.48683929,24.9280739 L9.48683929,26.5765114 L10.5259018,26.5765114 Z M9.48683929,18.7483864 C9.00246429,18.555678 8.66782888,18.3603655 8.48293304,18.1624489 C8.29803721,17.9645322 8.20558929,17.7171364 8.20558929,17.4202614 C8.20558929,17.133803 8.31496429,16.8942197 8.53371429,16.7015114 C8.75246429,16.508803 9.07017263,16.3811989 9.48683929,16.3186989 L9.48683929,18.7483864 Z M10.5259018,20.9124489 C11.0206935,21.0947405 11.373558,21.2835426 11.5844955,21.4788551 C11.795433,21.6741676 11.9009018,21.9228655 11.9009018,22.2249489 C11.9009018,22.8707822 11.4425685,23.2640114 10.5259018,23.4046364 L10.5259018,20.9124489 Z" id="$" fill="#BEEAC9" fill-rule="nonzero"></path>
                        </g>
                    </g>
                </g>
            </g>
        </g>
    </g>
</svg>