<?xml version="1.0" encoding="UTF-8"?>
<svg width="32px" height="32px" viewBox="0 0 32 32" version="1.1" xmlns="http://www.w3.org/2000/svg" xmlns:xlink="http://www.w3.org/1999/xlink">
    <title>icon-appeal-small</title>
    <defs>
        <linearGradient x1="69.6897217%" y1="0%" x2="69.6897217%" y2="100%" id="linearGradient-1">
            <stop stop-color="#5F91B9" offset="0%"></stop>
            <stop stop-color="#44729C" offset="100%"></stop>
        </linearGradient>
    </defs>
    <g id="Page-1" stroke="none" stroke-width="1" fill="none" fill-rule="evenodd">
        <g id="PECOS-2.0-Icons-&amp;-Illus-v14" transform="translate(-974.000000, -1160.000000)">
            <g id="Card-Icons" transform="translate(957.000000, 523.000000)">
                <g id="Small-Icons-Column-1" transform="translate(9.000000, 54.000000)">
                    <g id="Appeal-Icon-small" transform="translate(1.000000, 576.000000)">
                        <g id="icon-appeal-small" transform="translate(7.000000, 7.000000)">
                            <path d="M13.7995113,10.0943821 L15.0164993,12.4547292 L3.07247195,19.8056098 C2.20434053,20.3398961 1.06745632,20.0692612 0.533169993,19.2011298 C0.508771924,19.1614868 0.485882282,19.120935 0.464550166,19.0795613 C-0.0357032351,18.1093203 0.345297037,16.917249 1.31553809,16.4169956 C1.31978361,16.4148066 1.32403705,16.412633 1.32829832,16.4104749 L13.7995113,10.0943821 Z M25.940572,12.4511914 C25.9458507,12.4608183 25.9510063,12.4705121 25.9560377,12.4802705 C26.2937467,13.1352567 26.0477925,13.9400524 25.4016332,14.2943579 L18.5917189,18.0284066 C17.9664535,18.3712554 17.1816419,18.1423116 16.838793,17.5170462 C16.8335143,17.5074193 16.8283587,17.4977255 16.8233273,17.4879671 C16.4856183,16.8329809 16.7315726,16.0281852 17.3777319,15.6738796 L24.1876461,11.939831 C24.8129115,11.5969822 25.5977232,11.825926 25.940572,12.4511914 Z M19.6550039,3.09949316 L23.9039586,11.3403374 L17.0544258,15.0961099 L12.805471,6.85526566 L19.6550039,3.09949316 Z M19.8706367,0.678556815 C19.8759153,0.688183692 19.881071,0.697877505 19.8861024,0.707635891 C20.2238113,1.36262209 19.9778571,2.16741785 19.3316978,2.52172337 L12.5217836,6.25577199 C11.8965182,6.59862086 11.1117065,6.36967703 10.7688576,5.74441164 C10.763579,5.73478476 10.7584233,5.72509095 10.7533919,5.71533256 C10.415683,5.06034636 10.6616372,4.25555061 11.3077965,3.90124508 L18.1177107,0.167196458 C18.7429761,-0.175652408 19.5277878,0.053291422 19.8706367,0.678556815 Z" id="Gavel" fill="url(#linearGradient-1)"></path>
                            <path d="M1,23 L31,23 C31.5522847,23 32,23.4477153 32,24 L32,32 L32,32 L0,32 L0,24 C-6.76353751e-17,23.4477153 0.44771525,23 1,23 Z" id="Rectangle" fill="#44729C"></path>
                            <path d="M20.3890038,19 L25.0556704,19 C26.7125247,19 28.0556704,20.3431458 28.0556704,22 L28.0556704,22 L28.0556704,22 L17.3890038,22 C17.3890038,20.3431458 18.7321495,19 20.3890038,19 Z" id="Rectangle" fill="#44729C"></path>
                            <path d="M28.1407793,24.1620243 L28.1399915,26.1620243 L30.0801733,26.1620243 L30.0801733,28.1620243 L28.1399915,28.1620243 L28.1407793,30.1620243 L26.2013854,30.1620243 L26.2009915,28.1620243 L24.2619915,28.1620243 L24.2619915,26.1620243 L26.2009915,26.1620243 L26.2013854,24.1620243 L28.1407793,24.1620243 Z" id="cross" fill="#8BADCC"></path>
                        </g>
                    </g>
                </g>
            </g>
        </g>
    </g>
</svg>