<?xml version="1.0" encoding="UTF-8"?>
<svg width="32px" height="32px" viewBox="0 0 32 32" version="1.1" xmlns="http://www.w3.org/2000/svg" xmlns:xlink="http://www.w3.org/1999/xlink">
    <title>icon-mod-record-small</title>
    <defs>
        <linearGradient x1="50%" y1="0%" x2="50%" y2="100%" id="linearGradient-1">
            <stop stop-color="#C4C4E3" offset="0%"></stop>
            <stop stop-color="#A4A4D6" offset="100%"></stop>
        </linearGradient>
        <linearGradient x1="50%" y1="0%" x2="50%" y2="100%" id="linearGradient-2">
            <stop stop-color="#8787C9" offset="0%"></stop>
            <stop stop-color="#4949A2" offset="100%"></stop>
        </linearGradient>
        <linearGradient x1="50%" y1="0%" x2="50%" y2="100%" id="linearGradient-3">
            <stop stop-color="#F4F4FA" offset="0%"></stop>
            <stop stop-color="#DFDFF1" offset="100%"></stop>
        </linearGradient>
        <linearGradient x1="50%" y1="0%" x2="50%" y2="100%" id="linearGradient-4">
            <stop stop-color="#6868BB" offset="0%"></stop>
            <stop stop-color="#4D4DA4" offset="100%"></stop>
        </linearGradient>
    </defs>
    <g id="Page-1" stroke="none" stroke-width="1" fill="none" fill-rule="evenodd">
        <g id="PECOS-2.0-Icons-&amp;-Illus-v14" transform="translate(-1206.000000, -708.000000)">
            <g id="Card-Icons" transform="translate(876.000000, 523.000000)">
                <g id="Small-Icons-Column-2" transform="translate(323.000000, 50.000000)">
                    <g id="Mod-Record-Icon-small" transform="translate(0.000000, 128.000000)">
                        <g id="icon-mod-record-small" transform="translate(7.000000, 7.000000)">
                            <rect id="Rectangle" fill="url(#linearGradient-1)" x="0" y="0" width="32" height="32" rx="3"></rect>
                            <rect id="Rectangle" fill="url(#linearGradient-2)" x="4" y="4" width="22" height="26" rx="2"></rect>
                            <g id="page" transform="translate(2.000000, 2.000000)">
                                <rect fill="url(#linearGradient-3)" x="0" y="0" width="22" height="26" rx="2"></rect>
                                <path d="M18.8571429,20 L18.8571429,22 L3.14285714,22 L3.14285714,20 L18.8571429,20 Z M18.8571429,16 L18.8571429,18 L3.14285714,18 L3.14285714,16 L18.8571429,16 Z M18.8571429,12 L18.8571429,14 L3.14285714,14 L3.14285714,12 L18.8571429,12 Z M18.8571429,8 L18.8571429,10 L10.4761905,10 L10.4761905,8 L18.8571429,8 Z M18.8571429,4 L18.8571429,6 L10.4761905,6 L10.4761905,4 L18.8571429,4 Z" id="Combined-Shape" fill="#A5A5D6"></path>
                            </g>
                            <g id="pencil" transform="translate(21.897461, 13.237305) rotate(45.000000) translate(-21.897461, -13.237305) translate(19.897461, 1.237305)">
                                <path d="M2,0 C3.1045695,-2.02906125e-16 4,0.8954305 4,2 L4,20 L4,20 L2,23.9057007 L0,20 L0,2 C-1.3527075e-16,0.8954305 0.8954305,2.02906125e-16 2,0 Z" id="Rectangle" fill="url(#linearGradient-4)"></path>
                                <rect id="Rectangle" fill="#A4A4D6" x="-1.13686838e-13" y="19" width="4" height="1"></rect>
                                <rect id="Rectangle" fill="#A4A4D6" x="-1.13686838e-13" y="3" width="4" height="1"></rect>
                            </g>
                            <path d="M8,5 L8,7 L10,7 L10,9 L8,9 L8,11 L6,11 L6,9 L4,9 L4,7 L6,7 L6,5 L8,5 Z" id="cross" fill="#9292C9"></path>
                        </g>
                    </g>
                </g>
            </g>
        </g>
    </g>
</svg>