<?xml version="1.0" encoding="UTF-8"?>
<svg width="32px" height="32px" viewBox="0 0 32 32" version="1.1" xmlns="http://www.w3.org/2000/svg" xmlns:xlink="http://www.w3.org/1999/xlink">
    <title>icon-insurance-policy</title>
    <defs>
        <linearGradient x1="50%" y1="0%" x2="50%" y2="97.3743411%" id="linearGradient-1">
            <stop stop-color="#7494A4" offset="0%"></stop>
            <stop stop-color="#415761" offset="100%"></stop>
        </linearGradient>
        <linearGradient x1="50%" y1="0%" x2="50%" y2="97.3743411%" id="linearGradient-2">
            <stop stop-color="#E4F1F6" offset="0%"></stop>
            <stop stop-color="#B4C4CB" offset="100%"></stop>
        </linearGradient>
        <linearGradient x1="50%" y1="0%" x2="50%" y2="97.3743411%" id="linearGradient-3">
            <stop stop-color="#ADC2CC" offset="0%"></stop>
            <stop stop-color="#92A5AD" offset="100%"></stop>
        </linearGradient>
        <linearGradient x1="50%" y1="0%" x2="50%" y2="100%" id="linearGradient-4">
            <stop stop-color="#68828C" offset="0%"></stop>
            <stop stop-color="#415761" offset="100%"></stop>
        </linearGradient>
    </defs>
    <g id="Page-1-Icons" stroke="none" stroke-width="1" fill="none" fill-rule="evenodd">
        <g id="PECOS-2.0-Icons-Overview-v31" transform="translate(-1072.000000, -1130.000000)">
            <g id="CARD" transform="translate(852.000000, 529.000000)">
                <g id="Small-Icons-Column-2" transform="translate(214.000000, 54.000000)">
                    <g id="Insurance-Policy-Small-shield" transform="translate(0.000000, 540.000000)">
                        <g id="icon-insurance-policy" transform="translate(6.000000, 7.000000)">
                            <path d="M16.0335935,32 C24.655312,27.3333333 28.9661713,22.6801472 28.9661713,18.0404415 C28.9661713,14.9948668 28.9466334,11.836383 28.9075577,8.56498987 L28.9075297,8.56499021 C28.9025441,8.14759655 28.6388134,7.77721141 28.2460165,7.63595658 C25.8557964,6.77640251 24.1289548,6.12401441 23.0654919,5.67879229 C20.8104553,4.73471405 18.7201452,3.14975231 16.7945615,0.92390709 L16.794561,0.923907524 C16.4332264,0.506229016 15.8017115,0.460553267 15.384033,0.821887883 C15.3460329,0.85476186 15.3105645,0.890453137 15.2779292,0.928658453 C13.3699334,3.16230346 11.3182554,4.73905587 9.12289527,5.65891568 C8.02761086,6.1178418 6.2116439,6.77691203 3.67499438,7.63612639 L3.6749993,7.63614092 C3.26236371,7.77590892 2.9877035,8.16674286 2.99600733,8.60232783 C3.05958684,11.9374464 3.07710349,15.0834843 3.04855728,18.0404415 C3.00376597,22.6801472 7.33211137,27.3333333 16.0335935,32 Z" id="badge" fill="url(#linearGradient-1)"></path>
                            <path d="M16.0460444,29 C22.6820148,25.3541667 26,21.718865 26,18.0940949 C26,15.7114435 25.9849204,13.2403371 25.9547612,10.6807759 L25.9547756,10.6807757 C25.9510053,10.3607962 25.7496473,10.0765286 25.4490439,9.9668077 C23.6076097,9.29468003 22.2773821,8.78459628 21.4583609,8.43655647 C19.7240954,7.69958713 18.1164132,6.46273069 16.6353145,4.72598716 L16.635308,4.72599269 C16.3594809,4.40255656 15.8736821,4.36396179 15.550246,4.63978883 C15.5180538,4.66724242 15.4881801,4.69730366 15.4609285,4.72966703 C13.9933707,6.47250396 12.415399,7.70295757 10.7270133,8.42102788 C9.88348975,8.77977836 8.48460697,9.29507856 6.53036496,9.96692846 L6.53036465,9.96692757 C6.21453864,10.0755056 6.00477019,10.3753673 6.01105356,10.7092771 C6.06016273,13.3190294 6.07371571,15.7806353 6.05171251,18.0940949 C6.0172375,21.718865 9.34868146,25.3541667 16.0460444,29 Z" id="badge-copy" fill="url(#linearGradient-2)"></path>
                            <path d="M16,27.6066856 C22,24.1397285 25,20.8838466 25,17.8390397 C25,15.8219137 25,13.6644712 25,11.3667121 C25.0000463,11.1142741 24.8417043,10.8889598 24.6041963,10.8034331 C22.638762,10.09568 21.2797323,9.59255172 20.5271072,9.29404831 C18.7568688,8.5919428 17.2616463,7.4939267 16.0414399,6 C14.6007471,7.51187259 13.0186227,8.60988869 11.2950668,9.29404831 C10.5229946,9.60051974 9.23565164,10.1014239 7.4330379,10.7967608 L7.43303745,10.7967596 C7.20058536,10.8864253 7.04797018,11.110688 7.0498589,11.3598272 C7.06769235,13.7122162 7.06658647,15.8719537 7.04654126,17.8390397 C7.01551375,20.8838466 10,24.1397285 16,27.6066856 Z" id="badge-copy-2" fill="url(#linearGradient-3)"></path>
                            <g id="$" transform="translate(12.605957, 11.376953)" fill="url(#linearGradient-4)" fill-rule="nonzero">
                                <path d="M6.86328125,7.49902344 C6.86328125,8.22363281 6.60123698,8.80582682 6.07714844,9.24560547 C5.5530599,9.68538411 4.81933594,9.94856771 3.87597656,10.0351562 L3.87597656,11.4365234 L2.93945312,11.4365234 L2.93945312,10.0625 C1.82747396,10.0397135 0.852213542,9.84375 0.013671875,9.47460938 L0.013671875,7.66992188 C0.41015625,7.86588542 0.887532552,8.0390625 1.44580078,8.18945312 C2.00406901,8.33984375 2.50195312,8.42871094 2.93945312,8.45605469 L2.93945312,6.33691406 L2.48144531,6.15917969 C1.57910156,5.80371094 0.939941406,5.41748047 0.563964844,5.00048828 C0.187988281,4.58349609 0,4.06738281 0,3.45214844 C0,2.79134115 0.258626302,2.24788411 0.775878906,1.82177734 C1.29313151,1.39567057 2.01432292,1.13704427 2.93945312,1.04589844 L2.93945312,0 L3.87597656,0 L3.87597656,1.01855469 C4.91959635,1.0641276 5.86295573,1.27376302 6.70605469,1.64746094 L6.06347656,3.24707031 C5.35253906,2.95540365 4.6233724,2.77766927 3.87597656,2.71386719 L3.87597656,4.73046875 C4.76464844,5.07226562 5.39697266,5.36848958 5.77294922,5.61914062 C6.14892578,5.86979167 6.42464193,6.14550781 6.60009766,6.44628906 C6.77555339,6.74707031 6.86328125,7.09798177 6.86328125,7.49902344 Z M4.80566406,7.6015625 C4.80566406,7.41015625 4.7281901,7.2483724 4.57324219,7.11621094 C4.41829427,6.98404948 4.1858724,6.84733073 3.87597656,6.70605469 L3.87597656,8.40820312 C4.49576823,8.30338542 4.80566406,8.03450521 4.80566406,7.6015625 Z M2.05761719,3.45214844 C2.05761719,3.65266927 2.12711589,3.81787109 2.26611328,3.94775391 C2.40511068,4.07763672 2.62955729,4.2109375 2.93945312,4.34765625 L2.93945312,2.74121094 C2.3515625,2.82779948 2.05761719,3.06477865 2.05761719,3.45214844 Z" id="Shape"></path>
                            </g>
                        </g>
                    </g>
                </g>
            </g>
        </g>
    </g>
</svg>