<svg width="36" height="37" xmlns="http://www.w3.org/2000/svg"><defs><linearGradient x1="50%" y1="0%" x2="50%" y2="97.7168%" id="a"><stop stop-color="#9B9BD2" offset="0%"/><stop stop-color="#6969AE" offset="100%"/></linearGradient><linearGradient x1="50%" y1="0%" x2="50%" y2="100%" id="b"><stop stop-color="#F4F4FA" offset="0%"/><stop stop-color="#DFDFF1" offset="100%"/></linearGradient><linearGradient x1="50%" y1="0%" x2="50%" y2="100%" id="c"><stop stop-color="#7979C4" offset="0%"/><stop stop-color="#5C5CAE" offset="100%"/></linearGradient></defs><g fill="none" fill-rule="evenodd"><g transform="translate(0 .3378)"><rect fill="url(#a)" y=".6622" width="26" height="30" rx="2"/><g transform="translate(2 2.6622)"><rect fill="url(#b)" width="22" height="26" rx="1"/><path d="M10.4762 4h8.381v2h-8.381V4Zm0 4h8.381v2h-8.381V8Zm-7.3333 4H18.857v2H3.143v-2Zm0 4H18.857v2H3.143v-2Zm0 4H18.857v2H3.143v-2Z" fill="#A4A4DB"/></g><path d="M7 5.6622v2h2v2H7v2H5v-2H3v-2h2v-2h2Z" fill="#ACACDB"/><path d="M2 0c1.1046 0 2 .8954 2 2v18l-2 3.9057L0 20V2C0 .8954.8954 0 2 0Z" fill="url(#c)" transform="rotate(45 15.9843 38.5894)"/><path fill="#A4A4D6" d="m18.5335 13.435 2.8284 2.8285-.707.707-2.8285-2.8284z"/><path fill="#BABAE9" d="m29.8472 2.1213 2.8284 2.8284-.707.7072L29.14 2.8284z"/></g><g transform="translate(11 12)"><circle stroke="#DFDFF1" fill="#8787C9" cx="12" cy="12" r="12.5"/><path d="M13.625 7.7094a.625.625 0 0 1 .4001.1449l4.3987 3.6656a.625.625 0 0 1 0 .9602l-4.3987 3.6656A.625.625 0 0 1 13 15.6656v-2.6662L6 13c-.5523 0-1-.4477-1-1s.4477-1 1-1l7-.0006v-2.665a.625.625 0 0 1 .625-.625Z" fill="#FFF"/></g></g></svg>