<?xml version="1.0" encoding="UTF-8"?>
<svg width="34px" height="34px" viewBox="0 0 34 34" version="1.1" xmlns="http://www.w3.org/2000/svg" xmlns:xlink="http://www.w3.org/1999/xlink">
    <title>icon-checking-eft-small</title>
    <defs>
        <linearGradient x1="50%" y1="0%" x2="50%" y2="100%" id="linearGradient-1">
            <stop stop-color="#59C26E" offset="0%"></stop>
            <stop stop-color="#358C47" offset="100%"></stop>
        </linearGradient>
        <linearGradient x1="50%" y1="1.11638849%" x2="50%" y2="100%" id="linearGradient-2">
            <stop stop-color="#BEEAC9" offset="0%"></stop>
            <stop stop-color="#9AE1AB" offset="100%"></stop>
        </linearGradient>
        <linearGradient x1="50%" y1="0%" x2="50%" y2="100%" id="linearGradient-3">
            <stop stop-color="#5DC076" offset="0%"></stop>
            <stop stop-color="#056E1F" offset="100%"></stop>
        </linearGradient>
    </defs>
    <g id="Page-1-Icons" stroke="none" stroke-width="1" fill="none" fill-rule="evenodd">
        <g id="PECOS-2.0-Icons-Overview-v30" transform="translate(-1135.000000, -1043.000000)">
            <g id="CARD" transform="translate(866.000000, 546.000000)">
                <g id="Small-Icons-Column-2" transform="translate(263.000000, 60.000000)">
                    <g id="Checking-EFT-Icon-Small" transform="translate(0.000000, 432.000000)">
                        <g id="icon-checking-eft-small" transform="translate(6.000000, 5.000000)">
                            <g id="check" transform="translate(0.000000, 15.023453)">
                                <rect id="Rectangle" fill="url(#linearGradient-1)" x="0" y="0" width="34" height="18" rx="2"></rect>
                                <path d="M5.81445312,13.6972656 L5.81445312,12.4257812 C6.59570312,12.3398438 7.19335938,12.1132812 7.60742188,11.7460938 C8.02148438,11.3789062 8.22851562,10.9121094 8.22851562,10.3457031 C8.22851562,9.88867188 8.0859375,9.50195312 7.80078125,9.18554688 C7.515625,8.86914062 7.00195312,8.56835938 6.25976562,8.28320312 L6.25976562,8.28320312 L5.81445312,8.11328125 L5.81445312,5.98046875 C6.41992188,6.02734375 7.02929688,6.171875 7.64257812,6.4140625 L7.64257812,6.4140625 L8.0703125,5.34179688 C7.359375,5.04882812 6.60742188,4.88867188 5.81445312,4.86132812 L5.81445312,4.86132812 L5.81445312,3.89453125 L5.03515625,3.89453125 L5.03515625,4.87890625 C4.31640625,4.953125 3.74707031,5.1640625 3.32714844,5.51171875 C2.90722656,5.859375 2.69726562,6.30273438 2.69726562,6.84179688 C2.69726562,7.34570312 2.84472656,7.76855469 3.13964844,8.11035156 C3.43457031,8.45214844 3.90234375,8.74609375 4.54296875,8.9921875 L4.54296875,8.9921875 L5.03515625,9.17382812 L5.03515625,11.3652344 C4.6796875,11.3613281 4.27734375,11.3037109 3.828125,11.1923828 C3.37890625,11.0810547 2.98632812,10.9433594 2.65039062,10.7792969 L2.65039062,10.7792969 L2.65039062,12.015625 C3.27148438,12.296875 4.06640625,12.4453125 5.03515625,12.4609375 L5.03515625,12.4609375 L5.03515625,13.6972656 L5.81445312,13.6972656 Z M5.03515625,7.82617188 C4.671875,7.68164062 4.42089844,7.53515625 4.28222656,7.38671875 C4.14355469,7.23828125 4.07421875,7.05273438 4.07421875,6.83007812 C4.07421875,6.61523438 4.15625,6.43554688 4.3203125,6.29101562 C4.484375,6.14648438 4.72265625,6.05078125 5.03515625,6.00390625 L5.03515625,6.00390625 L5.03515625,7.82617188 Z M5.81445312,11.3183594 L5.81445312,9.44921875 C6.18554688,9.5859375 6.45019531,9.72753906 6.60839844,9.87402344 C6.76660156,10.0205078 6.84570312,10.2070312 6.84570312,10.4335938 C6.84570312,10.9179688 6.50195312,11.2128906 5.81445312,11.3183594 L5.81445312,11.3183594 Z" id="$" fill="#BEEAC9" fill-rule="nonzero"></path>
                                <path d="M31,12 L31,14 L10,14 L10,12 L31,12 Z M31,8 L31,10 L10,10 L10,8 L31,8 Z M31,4 L31,6 L10,6 L10,4 L31,4 Z" id="Combined-Shape" fill="url(#linearGradient-2)"></path>
                            </g>
                            <g id="pen" transform="translate(22.325134, 14.697751) rotate(30.000000) translate(-22.325134, -14.697751) translate(17.825134, 0.324326)">
                                <path d="M6,21.4991548 C6,22.7398424 5.74347777,23.9671301 5.24654168,25.1039503 L3.91628241,28.1471295 C3.69507424,28.6531783 3.10551597,28.8840872 2.59946717,28.662879 C2.36874959,28.5620259 2.18457074,28.377847 2.08371759,28.1471295 L0.753458322,25.1039503 C0.25652223,23.9671301 -5.17713012e-15,22.7398424 0,21.4991548 L0,3 C-2.02906125e-16,1.34314575 1.34314575,3.04359188e-16 3,0 C4.59768088,-2.93489217e-16 5.90366088,1.24891996 5.99490731,2.82372721 L6,3 L7,3 C8.1045695,3 9,3.8954305 9,5 L9,14 C9,14.5522847 8.55228475,15 8,15 C7.44771525,15 7,14.5522847 7,14 L7,5.46966553 C7,5.19352315 6.77614237,4.96966553 6.5,4.96966553 L6,4.96966553 L6,21.4991548 Z" id="Combined-Shape" fill="url(#linearGradient-3)"></path>
                                <rect id="Rectangle" fill="#D0EAC7" x="0" y="9" width="6" height="1"></rect>
                            </g>
                        </g>
                    </g>
                </g>
            </g>
        </g>
    </g>
</svg>