<?xml version="1.0" encoding="UTF-8"?>
<svg width="32px" height="32px" viewBox="0 0 32 32" version="1.1" xmlns="http://www.w3.org/2000/svg" xmlns:xlink="http://www.w3.org/1999/xlink">
    <title>icon-revocation-small</title>
    <defs>
        <linearGradient x1="50%" y1="0%" x2="50%" y2="100%" id="linearGradient-1">
            <stop stop-color="#B87A90" offset="0%"></stop>
            <stop stop-color="#A25773" offset="100%"></stop>
        </linearGradient>
    </defs>
    <g id="Page-1-Icons" stroke="none" stroke-width="1" fill="none" fill-rule="evenodd">
        <g id="PECOS-2.0-Icons-Overview-v21" transform="translate(-903.000000, -1138.000000)">
            <g id="Card-Icons" transform="translate(876.000000, 565.000000)">
                <g id="Small-Icons-Column-1" transform="translate(20.000000, 54.000000)">
                    <g id="Revocation-Icon-small" transform="translate(0.000000, 512.000000)">
                        <g id="icon-revocation-small" transform="translate(7.000000, 7.000000)">
                            <path d="M30,12 C31.1045695,12 32,12.8954305 32,14 L32,30 C32,31.1045695 31.1045695,32 30,32 L26,32 L26.000703,30.9143985 C26.5829319,30.7082819 27,30.1528467 27,29.5 C27,28.6715729 26.3284271,28 25.5,28 C24.6715729,28 24,28.6715729 24,29.5 C24,30.1528467 24.4170681,30.7082819 24.999297,30.9143985 L25,32 L19,32 L19.000703,30.9143985 C19.5829319,30.7082819 20,30.1528467 20,29.5 C20,28.6715729 19.3284271,28 18.5,28 C17.6715729,28 17,28.6715729 17,29.5 C17,30.1528467 17.4170681,30.7082819 17.999297,30.9143985 L18,32 L14,32 C12.8954305,32 12,31.1045695 12,30 L11.9994301,25.962067 C12.3296577,25.9872024 12.6633343,26 13,26 C20.1797017,26 26,20.1797017 26,13 C26,12.6632378 25.987195,12.3294664 25.9620454,11.999146 L30,12 Z" id="enrollment-card" fill="url(#linearGradient-1)"></path>
                            <path d="M28,21 L28,23 L30,23 L30,25 L28,25 L28,27 L26,27 L26,25 L24,25 L24,23 L26,23 L26,21 L28,21 Z" id="cross" fill="#D8B6C2"></path>
                            <path d="M12,0 C18.627417,0 24,5.372583 24,12 C24,18.627417 18.627417,24 12,24 C5.372583,24 0,18.627417 0,12 C0,5.372583 5.372583,0 12,0 Z M3,12 C3,16.9705627 7.02943725,21 12,21 C13.9374926,21 15.7319917,20.3877717 17.2005926,19.3462197 L4.65448205,6.79841807 C3.6125033,8.26720233 3,10.0620723 3,12 Z M12,3 C10.0503246,3 8.24544671,3.61995176 6.7717429,4.67347868 L19.3272266,17.2272704 C20.3803249,15.7537477 21,13.9492403 21,12 C21,7.02943725 16.9705627,3 12,3 Z" id="Combined-Shape" fill="#7E4459"></path>
                        </g>
                    </g>
                </g>
            </g>
        </g>
    </g>
</svg>