<?xml version="1.0" encoding="UTF-8"?>
<svg width="32px" height="32px" viewBox="0 0 32 32" version="1.1" xmlns="http://www.w3.org/2000/svg" xmlns:xlink="http://www.w3.org/1999/xlink">
    <title>icon-payment-small</title>
    <defs>
        <linearGradient x1="50%" y1="0%" x2="50%" y2="100%" id="linearGradient-1">
            <stop stop-color="#2A8620" offset="0%"></stop>
            <stop stop-color="#136011" offset="100%"></stop>
        </linearGradient>
        <linearGradient x1="50%" y1="0%" x2="50%" y2="100%" id="linearGradient-2">
            <stop stop-color="#64C25C" offset="0%"></stop>
            <stop stop-color="#3C9638" offset="100%"></stop>
        </linearGradient>
    </defs>
    <g id="Page-1-Icons" stroke="none" stroke-width="1" fill="none" fill-rule="evenodd">
        <g id="PECOS-2.0-Icons-Overview-v30" transform="translate(-1136.000000, -613.000000)">
            <g id="CARD" transform="translate(866.000000, 546.000000)">
                <g id="Small-Icons-Column-2" transform="translate(263.000000, 60.000000)">
                    <g id="Payment-icon-small" transform="translate(0.149859, 0.000000)">
                        <g id="icon-payment-small" transform="translate(6.850141, 7.000000)">
                            <rect id="card" fill="url(#linearGradient-1)" x="9" y="2" width="23" height="17" rx="2"></rect>
                            <path d="M15,6 L15,8 L11,8 L11,6 L15,6 Z M20,6 L20,8 L16,8 L16,6 L20,6 Z M25,6 L25,8 L21,8 L21,6 L25,6 Z M30,6 L30,8 L26,8 L26,6 L30,6 Z" id="Combined-Shape" fill="#A3DD8F"></path>
                            <path d="M18.9506454,17 C18.9563848,16.2706645 18.3638053,15.6813614 17.6304148,15.6813614 C17.2314504,15.6813614 16.879423,15.8622366 16.6330038,16.1364668 L12.4430586,20.8962402 C12.3687874,20.9102617 12.169321,20.8812901 11.8446595,20.8093253 C11.5199981,20.7373605 11.1287444,20.4654695 10.6708984,19.9936523 C9.83576418,19.1922115 9.41455078,18.177124 9.41455078,18.177124 C9.18688965,17.986084 9,17.1435547 9,17 C9,15.906033 9,14.5726997 9,13 L6.26497717,13.3684947 C6.25911005,13.3684947 6.25324293,13.3743293 6.2473758,13.3743293 C6.24150868,13.3743293 6.23564155,13.3743293 6.22390731,13.3743293 L5.88948124,13.4268415 C5.33210447,13.5785433 4.9214058,14.0861608 4.9214058,14.6929679 C4.9214058,14.6988026 4.9214058,14.6988026 4.91553867,14.7046373 L4.06480571,23.2466146 L4.05307146,23.2524493 C4.01200159,23.7775708 3.65997416,24.2151721 3.17887,24.384378 L1.11364238,25.3529355 L1.08430676,25.4754639 C1.08430676,25.4754639 0.673608089,27.1733569 1.66515203,28.9179274 C2.65669597,30.6624979 5.89534837,30.9717362 5.89534837,30.9717362 L6.95143067,29.7697913 C6.95143067,29.7697913 10.3602297,30.3124169 12.4430586,28.0718982 C14.4144123,25.953908 18.3638053,18.6216781 18.7216999,17.7351702 C18.7216999,17.7293355 18.727567,17.7293355 18.727567,17.7235008 C18.7510355,17.682658 18.7686369,17.6593193 18.7686369,17.6593193 C18.8801122,17.4667747 18.9506454,17.239222 18.9506454,17 Z" id="hand" fill="url(#linearGradient-2)"></path>
                            <path d="M27,11 L27,13 L29,13 L29,15 L27,15 L27,17 L25,17 L25,15 L23,15 L23,13 L25,13 L25,11 L27,11 Z" id="cross" fill="#A1DC8C"></path>
                        </g>
                    </g>
                </g>
            </g>
        </g>
    </g>
</svg>