<?xml version="1.0" encoding="UTF-8"?>
<svg width="32px" height="32px" viewBox="0 0 32 32" version="1.1" xmlns="http://www.w3.org/2000/svg" xmlns:xlink="http://www.w3.org/1999/xlink">
    <title>icon-security-bond</title>
    <defs>
        <linearGradient x1="50%" y1="0%" x2="50%" y2="100%" id="linearGradient-1">
            <stop stop-color="#88A1AA" offset="0%"></stop>
            <stop stop-color="#728A95" offset="100%"></stop>
        </linearGradient>
        <linearGradient x1="50%" y1="0%" x2="50%" y2="100%" id="linearGradient-2">
            <stop stop-color="#DCE6EB" offset="0%"></stop>
            <stop stop-color="#B6C9D2" offset="100%"></stop>
        </linearGradient>
        <linearGradient x1="50%" y1="0%" x2="50%" y2="100%" id="linearGradient-3">
            <stop stop-color="#5F7D89" offset="0%"></stop>
            <stop stop-color="#435A64" offset="100%"></stop>
        </linearGradient>
        <linearGradient x1="50%" y1="0%" x2="50%" y2="100%" id="linearGradient-4">
            <stop stop-color="#425E6A" offset="0%"></stop>
            <stop stop-color="#516E79" offset="100%"></stop>
        </linearGradient>
    </defs>
    <g id="Page-1-Icons" stroke="none" stroke-width="1" fill="none" fill-rule="evenodd">
        <g id="PECOS-2.0-Icons-Overview-v31" transform="translate(-1122.000000, -1164.000000)">
            <g id="CARD" transform="translate(852.000000, 529.000000)">
                <g id="Small-Icons-Column-2" transform="translate(263.000000, 34.000000)">
                    <g id="Security-Bond-Small-" transform="translate(0.000000, 594.000000)">
                        <g id="icon-security-bond" transform="translate(7.000000, 7.000000)">
                            <rect id="Rectangle" fill="url(#linearGradient-1)" x="2.84217094e-14" y="2" width="32" height="28" rx="1"></rect>
                            <rect id="Rectangle-Copy-165" fill="url(#linearGradient-2)" x="2" y="4" width="28" height="24"></rect>
                            <path d="M0,13 C6.07513225,13 11,8.07513225 11,2 C7.66666667,2 4.33333333,2 1,2 C0.44771525,2 -6.76353751e-17,2.44771525 0,3 C0,6.33333333 0,9.66666667 0,13 Z" id="Oval" fill="url(#linearGradient-3)"></path>
                            <path d="M21,13 C27.0751322,13 32,8.07513225 32,2 C28.6666667,2 25.3333333,2 22,2 C21.4477153,2 21,2.44771525 21,3 C21,6.33333333 21,9.66666667 21,13 Z" id="Oval-Copy-34" fill="url(#linearGradient-3)" transform="translate(26.500000, 7.500000) scale(-1, 1) translate(-26.500000, -7.500000) "></path>
                            <path d="M0,30 C6.07513225,30 11,25.0751322 11,19 C7.66666667,19 4.33333333,19 1,19 C0.44771525,19 -6.76353751e-17,19.4477153 0,20 C0,23.3333333 0,26.6666667 0,30 Z" id="Oval-Copy-48" fill="url(#linearGradient-4)" transform="translate(5.500000, 24.500000) scale(1, -1) translate(-5.500000, -24.500000) "></path>
                            <path d="M21,30 C27.0751322,30 32,25.0751322 32,19 C28.6666667,19 25.3333333,19 22,19 C21.4477153,19 21,19.4477153 21,20 C21,23.3333333 21,26.6666667 21,30 Z" id="Oval-Copy-47" fill="url(#linearGradient-4)" transform="translate(26.500000, 24.500000) scale(-1, -1) translate(-26.500000, -24.500000) "></path>
                            <g id="$" transform="translate(2.312500, 21.929688)" fill="#D0DCE1" fill-rule="nonzero">
                                <path d="M1.61832061,5.32934848 C1.0610687,5.30543933 0.524173028,5.18828452 0.00763358779,4.97788404 L0.00763358779,3.78720861 C0.302798982,3.92827256 0.623409669,4.0460251 0.969465649,4.14046623 C1.31552163,4.23490735 1.61959288,4.28212791 1.88167939,4.28212791 C2.09796438,4.28212791 2.25636132,4.25762104 2.35687023,4.20860729 C2.45737913,4.15959354 2.50763359,4.07770472 2.50763359,3.96294082 C2.50763359,3.88404065 2.47137405,3.81709504 2.39885496,3.762104 C2.32633588,3.70711297 2.20547074,3.64494919 2.03625954,3.57561267 C1.86704835,3.50627615 1.63867684,3.42259414 1.35114504,3.32456665 C1.02798982,3.21219366 0.767175573,3.08607292 0.56870229,2.94620442 C0.370229008,2.80633592 0.225826972,2.64973102 0.135496183,2.47638972 C0.0451653944,2.30304842 0,2.08726838 0,1.82904961 C0,1.43454871 0.134860051,1.12612074 0.404580153,0.90376569 C0.674300254,0.68141064 1.07888041,0.543933054 1.61832061,0.491332935 L1.61832061,0 L2.40839695,0 L2.40839695,0.484160191 C2.91475827,0.510460251 3.42493639,0.627615063 3.9389313,0.835624626 L3.48473282,1.85774059 C2.95292621,1.63299462 2.47328244,1.52062164 2.04580153,1.52062164 C1.84223919,1.52062164 1.69910941,1.54393305 1.61641221,1.59055589 C1.53371501,1.63717872 1.49236641,1.70591751 1.49236641,1.79677227 C1.49236641,1.87567244 1.52226463,1.94082487 1.58206107,1.99222953 C1.64185751,2.04363419 1.74554707,2.10101614 1.89312977,2.16437537 C2.04071247,2.22773461 2.24554707,2.30125523 2.50763359,2.38493724 C3.0394402,2.56186491 3.42111959,2.76329946 3.65267176,2.98924088 C3.88422392,3.21518231 4,3.50627615 4,3.86252241 C4,4.26419605 3.86450382,4.59055589 3.59351145,4.84160191 C3.32251908,5.09264794 2.92748092,5.24805738 2.40839695,5.30783025 L2.40839695,6 L1.61832061,6 L1.61832061,5.32934848 Z" id="Path"></path>
                            </g>
                            <g id="$-copy" transform="translate(26.312500, 21.929688)" fill="#D0DCE1" fill-rule="nonzero">
                                <path d="M1.61832061,5.32934848 C1.0610687,5.30543933 0.524173028,5.18828452 0.00763358779,4.97788404 L0.00763358779,3.78720861 C0.302798982,3.92827256 0.623409669,4.0460251 0.969465649,4.14046623 C1.31552163,4.23490735 1.61959288,4.28212791 1.88167939,4.28212791 C2.09796438,4.28212791 2.25636132,4.25762104 2.35687023,4.20860729 C2.45737913,4.15959354 2.50763359,4.07770472 2.50763359,3.96294082 C2.50763359,3.88404065 2.47137405,3.81709504 2.39885496,3.762104 C2.32633588,3.70711297 2.20547074,3.64494919 2.03625954,3.57561267 C1.86704835,3.50627615 1.63867684,3.42259414 1.35114504,3.32456665 C1.02798982,3.21219366 0.767175573,3.08607292 0.56870229,2.94620442 C0.370229008,2.80633592 0.225826972,2.64973102 0.135496183,2.47638972 C0.0451653944,2.30304842 0,2.08726838 0,1.82904961 C0,1.43454871 0.134860051,1.12612074 0.404580153,0.90376569 C0.674300254,0.68141064 1.07888041,0.543933054 1.61832061,0.491332935 L1.61832061,0 L2.40839695,0 L2.40839695,0.484160191 C2.91475827,0.510460251 3.42493639,0.627615063 3.9389313,0.835624626 L3.48473282,1.85774059 C2.95292621,1.63299462 2.47328244,1.52062164 2.04580153,1.52062164 C1.84223919,1.52062164 1.69910941,1.54393305 1.61641221,1.59055589 C1.53371501,1.63717872 1.49236641,1.70591751 1.49236641,1.79677227 C1.49236641,1.87567244 1.52226463,1.94082487 1.58206107,1.99222953 C1.64185751,2.04363419 1.74554707,2.10101614 1.89312977,2.16437537 C2.04071247,2.22773461 2.24554707,2.30125523 2.50763359,2.38493724 C3.0394402,2.56186491 3.42111959,2.76329946 3.65267176,2.98924088 C3.88422392,3.21518231 4,3.50627615 4,3.86252241 C4,4.26419605 3.86450382,4.59055589 3.59351145,4.84160191 C3.32251908,5.09264794 2.92748092,5.24805738 2.40839695,5.30783025 L2.40839695,6 L1.61832061,6 L1.61832061,5.32934848 Z" id="Path"></path>
                            </g>
                            <g id="$-copy-2" transform="translate(26.312500, 3.929688)" fill="#D0DCE1" fill-rule="nonzero">
                                <path d="M1.61832061,5.32934848 C1.0610687,5.30543933 0.524173028,5.18828452 0.00763358779,4.97788404 L0.00763358779,3.78720861 C0.302798982,3.92827256 0.623409669,4.0460251 0.969465649,4.14046623 C1.31552163,4.23490735 1.61959288,4.28212791 1.88167939,4.28212791 C2.09796438,4.28212791 2.25636132,4.25762104 2.35687023,4.20860729 C2.45737913,4.15959354 2.50763359,4.07770472 2.50763359,3.96294082 C2.50763359,3.88404065 2.47137405,3.81709504 2.39885496,3.762104 C2.32633588,3.70711297 2.20547074,3.64494919 2.03625954,3.57561267 C1.86704835,3.50627615 1.63867684,3.42259414 1.35114504,3.32456665 C1.02798982,3.21219366 0.767175573,3.08607292 0.56870229,2.94620442 C0.370229008,2.80633592 0.225826972,2.64973102 0.135496183,2.47638972 C0.0451653944,2.30304842 0,2.08726838 0,1.82904961 C0,1.43454871 0.134860051,1.12612074 0.404580153,0.90376569 C0.674300254,0.68141064 1.07888041,0.543933054 1.61832061,0.491332935 L1.61832061,0 L2.40839695,0 L2.40839695,0.484160191 C2.91475827,0.510460251 3.42493639,0.627615063 3.9389313,0.835624626 L3.48473282,1.85774059 C2.95292621,1.63299462 2.47328244,1.52062164 2.04580153,1.52062164 C1.84223919,1.52062164 1.69910941,1.54393305 1.61641221,1.59055589 C1.53371501,1.63717872 1.49236641,1.70591751 1.49236641,1.79677227 C1.49236641,1.87567244 1.52226463,1.94082487 1.58206107,1.99222953 C1.64185751,2.04363419 1.74554707,2.10101614 1.89312977,2.16437537 C2.04071247,2.22773461 2.24554707,2.30125523 2.50763359,2.38493724 C3.0394402,2.56186491 3.42111959,2.76329946 3.65267176,2.98924088 C3.88422392,3.21518231 4,3.50627615 4,3.86252241 C4,4.26419605 3.86450382,4.59055589 3.59351145,4.84160191 C3.32251908,5.09264794 2.92748092,5.24805738 2.40839695,5.30783025 L2.40839695,6 L1.61832061,6 L1.61832061,5.32934848 Z" id="Path"></path>
                            </g>
                            <g id="$-copy-3" transform="translate(2.312500, 3.929688)" fill="#D0DCE1" fill-rule="nonzero">
                                <path d="M1.61832061,5.32934848 C1.0610687,5.30543933 0.524173028,5.18828452 0.00763358779,4.97788404 L0.00763358779,3.78720861 C0.302798982,3.92827256 0.623409669,4.0460251 0.969465649,4.14046623 C1.31552163,4.23490735 1.61959288,4.28212791 1.88167939,4.28212791 C2.09796438,4.28212791 2.25636132,4.25762104 2.35687023,4.20860729 C2.45737913,4.15959354 2.50763359,4.07770472 2.50763359,3.96294082 C2.50763359,3.88404065 2.47137405,3.81709504 2.39885496,3.762104 C2.32633588,3.70711297 2.20547074,3.64494919 2.03625954,3.57561267 C1.86704835,3.50627615 1.63867684,3.42259414 1.35114504,3.32456665 C1.02798982,3.21219366 0.767175573,3.08607292 0.56870229,2.94620442 C0.370229008,2.80633592 0.225826972,2.64973102 0.135496183,2.47638972 C0.0451653944,2.30304842 0,2.08726838 0,1.82904961 C0,1.43454871 0.134860051,1.12612074 0.404580153,0.90376569 C0.674300254,0.68141064 1.07888041,0.543933054 1.61832061,0.491332935 L1.61832061,0 L2.40839695,0 L2.40839695,0.484160191 C2.91475827,0.510460251 3.42493639,0.627615063 3.9389313,0.835624626 L3.48473282,1.85774059 C2.95292621,1.63299462 2.47328244,1.52062164 2.04580153,1.52062164 C1.84223919,1.52062164 1.69910941,1.54393305 1.61641221,1.59055589 C1.53371501,1.63717872 1.49236641,1.70591751 1.49236641,1.79677227 C1.49236641,1.87567244 1.52226463,1.94082487 1.58206107,1.99222953 C1.64185751,2.04363419 1.74554707,2.10101614 1.89312977,2.16437537 C2.04071247,2.22773461 2.24554707,2.30125523 2.50763359,2.38493724 C3.0394402,2.56186491 3.42111959,2.76329946 3.65267176,2.98924088 C3.88422392,3.21518231 4,3.50627615 4,3.86252241 C4,4.26419605 3.86450382,4.59055589 3.59351145,4.84160191 C3.32251908,5.09264794 2.92748092,5.24805738 2.40839695,5.30783025 L2.40839695,6 L1.61832061,6 L1.61832061,5.32934848 Z" id="Path"></path>
                            </g>
                            <path d="M21,23 L21,24 L11,24 L11,23 L21,23 Z M21,21 L21,22 L11,22 L11,21 L21,21 Z M21,19 L21,20 L11,20 L11,19 L21,19 Z M21,17 L21,18 L11,18 L11,17 L21,17 Z" id="Combined-Shape" fill="#768B95"></path>
                            <rect id="Rectangle" fill="#5B717A" x="6" y="14" width="20" height="2"></rect>
                            <circle id="Oval-Copy-50" fill="#8599A2" cx="16" cy="10" r="3"></circle>
                        </g>
                    </g>
                </g>
            </g>
        </g>
    </g>
</svg>