<?xml version="1.0" encoding="UTF-8"?>
<svg width="32px" height="32px" viewBox="0 0 32 32" version="1.1" xmlns="http://www.w3.org/2000/svg" xmlns:xlink="http://www.w3.org/1999/xlink">
    <title>icon-reassign-small</title>
    <defs>
        <linearGradient x1="50%" y1="0%" x2="50%" y2="99.0767045%" id="linearGradient-1">
            <stop stop-color="#14BABA" offset="0%"></stop>
            <stop stop-color="#0A5D5D" offset="100%"></stop>
        </linearGradient>
        <linearGradient x1="50%" y1="0%" x2="50%" y2="100%" id="linearGradient-2">
            <stop stop-color="#14B7B7" offset="0%"></stop>
            <stop stop-color="#0B6363" offset="100%"></stop>
        </linearGradient>
        <linearGradient x1="50%" y1="0%" x2="50%" y2="100%" id="linearGradient-3">
            <stop stop-color="#A7EBEB" offset="0%"></stop>
            <stop stop-color="#37C6C6" offset="100%"></stop>
        </linearGradient>
    </defs>
    <g id="Page-1" stroke="none" stroke-width="1" fill="none" fill-rule="evenodd">
        <g id="PECOS-2.0-Icons-&amp;-Illus-Overview-v17" transform="translate(-1206.000000, -994.000000)">
            <g id="Card-Icons" transform="translate(876.000000, 493.000000)">
                <g id="Small-Icons-Column-2" transform="translate(323.000000, 50.000000)">
                    <g id="Reassign-Icon-small" transform="translate(0.000000, 444.000000)">
                        <g id="icon-reassign-small" transform="translate(7.000000, 7.000000)">
                            <path d="M10.8126616,25.0733183 C11.4015086,25.0733183 11.8788633,25.550673 11.8788633,26.1395199 C11.8788633,26.7283668 11.4015086,27.2057216 10.8126616,27.2057216 L10.8126616,27.2057216 L8.42049998,27.2066268 C10.4624547,28.5349518 12.8907992,29.305192 15.4964435,29.305192 C17.2393653,29.305192 18.9029578,28.960563 20.424643,28.3348006 L21.9123409,30.0022732 C19.9625114,30.9226323 17.788618,31.4364786 15.4964435,31.4364786 C12.4133379,31.4364786 9.54422395,30.5068388 7.14651849,28.90875 L7.14705303,30.9526069 C7.14705303,31.5310662 6.67811918,32 6.09965996,32 C5.52120075,32 5.0522669,31.5310662 5.0522669,30.9526069 L5.0522669,30.9526069 L5.0512095,27.2289733 C5.03397754,27.212487 5.01678347,27.1959605 4.99962743,27.1793937 L5.05162743,27.148 L5.0522669,25.0733183 Z M24.9492042,0 C25.5295427,-1.06606456e-16 26,0.470457322 26,1.05079584 L26,6.92668173 L20.2361526,6.92668173 C19.6492125,6.92668173 19.1734036,6.45087281 19.1734036,5.86393275 C19.1734036,5.27699269 19.6492125,4.80118376 20.2361526,4.80118376 L23.8984083,4.80118376 L23.8976274,4.795 L22.6207558,4.79428993 C20.5688263,3.44657831 18.1226924,2.66410836 15.4964435,2.66410836 C13.6102407,2.66410836 11.8169462,3.06772837 10.1958747,3.79449101 L8.67197868,2.16748086 C10.7247784,1.12158949 13.0428474,0.532821672 15.4964435,0.532821672 C18.6017587,0.532821672 21.4899881,1.47590332 23.8981116,3.09519044 L23.8984083,1.05079584 C23.8984083,0.470457322 24.3688656,6.22050604e-16 24.9492042,0 Z" id="Combined-Shape-Copy-7" fill="#0E7B7B"></path>
                            <path d="M11.1080825,14.4263362 C13.4278686,15.203133 15,16.7057371 15,18.4319858 C15,20.9548304 11.6421356,23 7.5,23 C3.35786438,23 0,20.9548304 0,18.4319858 C0,16.7189431 1.54816945,15.2261363 3.8388092,14.4442912 C5.11881129,15.6414644 6.36765409,16.2389922 7.5862069,16.2389922 C8.74499244,16.2389922 9.85818488,15.6986417 10.9257842,14.6179407 Z M7.5862069,7 C9.65251363,7 11.3275862,8.77716056 11.3275862,10.9693992 C11.3275862,13.1616379 9.65251363,14.9387984 7.5862069,14.9387984 C5.51990016,14.9387984 3.84482759,13.1616379 3.84482759,10.9693992 C3.84482759,8.77716056 5.51990016,7 7.5862069,7 Z" id="person-copy-2" fill="url(#linearGradient-1)"></path>
                            <g id="building" transform="translate(18.000000, 9.000000)">
                                <rect id="bldg" fill="url(#linearGradient-2)" x="0" y="0" width="14" height="18" rx="1"></rect>
                                <path d="M6,12 L6,18 L2,18 L2,12 L6,12 Z M4,8 L4,10 L2,10 L2,8 L4,8 Z M12,8 L12,10 L10,10 L10,8 L12,8 Z M8,8 L8,10 L6,10 L6,8 L8,8 Z M4,5 L4,7 L2,7 L2,5 L4,5 Z M8,5 L8,7 L6,7 L6,5 L8,5 Z M12,5 L12,7 L10,7 L10,5 L12,5 Z M4,2 L4,4 L2,4 L2,2 L4,2 Z M8,2 L8,4 L6,4 L6,2 L8,2 Z M12,2 L12,4 L10,4 L10,2 L12,2 Z" id="Combined-Shape" fill="url(#linearGradient-3)"></path>
                            </g>
                            <path d="M29,20 L29,22 L31,22 L31,24 L29,24 L29,26 L27,26 L27,24 L25,24 L25,22 L27,22 L27,20 L29,20 Z" id="cross" fill="#34BABA"></path>
                        </g>
                    </g>
                </g>
            </g>
        </g>
    </g>
</svg>