<svg width="36" height="37" xmlns="http://www.w3.org/2000/svg"><defs><linearGradient x1="50%" y1="0%" x2="50%" y2="97.717%" id="a"><stop stop-color="#9B9BD2" offset="0%"/><stop stop-color="#6969AE" offset="100%"/></linearGradient><linearGradient x1="50%" y1="0%" x2="50%" y2="100%" id="b"><stop stop-color="#F4F4FA" offset="0%"/><stop stop-color="#DFDFF1" offset="100%"/></linearGradient><linearGradient x1="50%" y1="0%" x2="50%" y2="100%" id="c"><stop stop-color="#7979C4" offset="0%"/><stop stop-color="#5C5CAE" offset="100%"/></linearGradient></defs><g fill="none" fill-rule="evenodd"><g transform="translate(0 .338)"><rect fill="url(#a)" y=".662" width="26" height="30" rx="2"/><g transform="translate(2 2.662)"><rect fill="url(#b)" width="22" height="26" rx="1"/><path d="M10.476 4h8.381v2h-8.38V4Zm0 4h8.381v2h-8.38V8Zm-7.333 4h15.714v2H3.143v-2Zm0 4h15.714v2H3.143v-2Zm0 4h15.714v2H3.143v-2Z" fill="#A4A4DB"/></g><path d="M7 5.662v2h2v2H7v2H5v-2H3v-2h2v-2h2Z" fill="#ACACDB"/><path d="M2 0a2 2 0 0 1 2 2v18l-2 3.906L0 20V2a2 2 0 0 1 2-2Z" fill="url(#c)" transform="rotate(45 15.984 38.59)"/><path fill="#A4A4D6" d="m18.533 13.435 2.829 2.828-.707.708-2.829-2.829z"/><path fill="#BABAE9" d="m29.847 2.121 2.829 2.829-.707.707-2.829-2.829z"/></g><g transform="translate(11 12)"><circle stroke="#DFDFF1" fill="#848D94" cx="12" cy="12" r="12.5"/><path d="M7.042 7.04a1 1 0 0 1 1.414 0l3.535 3.535 3.536-3.535a1 1 0 1 1 1.415 1.414l-3.536 3.535 3.536 3.536a1 1 0 0 1 .083 1.32l-.083.094a1 1 0 0 1-1.415 0l-3.536-3.535-3.535 3.535a1 1 0 1 1-1.414-1.414l3.535-3.536-3.535-3.535a1 1 0 0 1-.083-1.32Z" fill="#FFF"/></g></g></svg>