<?xml version="1.0" encoding="UTF-8"?>
<svg width="32px" height="32px" viewBox="0 0 32 32" version="1.1" xmlns="http://www.w3.org/2000/svg" xmlns:xlink="http://www.w3.org/1999/xlink">
    <title>icon-fingerprints-small</title>
    <g id="Page-1" stroke="none" stroke-width="1" fill="none" fill-rule="evenodd">
        <g id="PECOS-2.0-Icons-&amp;-Illus-v14" transform="translate(-904.000000, -1222.000000)" fill="#7494A4">
            <g id="Card-Icons" transform="translate(876.000000, 523.000000)">
                <g id="Small-Icons-Column-1" transform="translate(20.000000, 54.000000)">
                    <g id="Fingerprints-Icon-small" transform="translate(1.000000, 638.000000)">
                        <g id="icon-fingerprints-small" transform="translate(7.000000, 7.000000)">
                            <path d="M13.0502453,7.66134185 C14.7940552,7.66134185 16.5063884,8.01916933 18.1242914,8.72204473 C19.6540597,9.38658147 21.039035,10.3258786 22.2414455,11.514377 C24.5959036,13.8402556 25.9682883,16.8817891 26.0375371,19.884984 L26.0375371,19.884984 L26.0501278,19.884984 C26.0501278,19.9808307 26.0501278,20.0766773 26.0375371,20.1661342 L26.0375371,20.1661342 L26.0375371,20.1853035 C25.8801535,22.8306709 23.7145557,24.9329073 21.0705118,24.9329073 C18.3509237,24.9329073 16.1349631,22.7092652 16.0971911,19.9552716 C15.7950146,18.3961661 14.441516,17.2140575 12.8173176,17.2140575 C10.9790775,17.2140575 9.48078599,18.7348243 9.48078599,20.600639 C9.48078599,20.9073482 9.52485339,21.2076677 9.6003975,21.5015974 L9.6003975,21.5015974 L9.61298819,21.5463259 L9.61928353,21.5910543 C9.62557887,21.6230032 10.1166156,24.5878594 11.8793115,26.5047923 C13.7868003,28.5750799 15.5180196,29.6613419 17.8472963,30.2555911 C18.3131517,30.3769968 18.6027375,30.85623 18.4831259,31.3290735 C18.3824005,31.7316294 18.0298613,32 17.63955,32 C17.5703013,32 17.4947572,31.9936102 17.4255084,31.9744409 C14.7688738,31.3035144 12.7291828,30.0255591 10.601357,27.7124601 C8.77000246,25.726238 8.10196456,22.952838 7.93657637,22.1173718 L7.90931359,21.9730624 L7.90931359,21.9730624 L7.90065499,21.9233227 C7.78733882,21.4952077 7.73068074,21.0479233 7.73068074,20.600639 C7.73068074,17.7571885 10.0095948,15.4440895 12.8110222,15.4440895 C15.5872683,15.4440895 17.8472963,17.7188498 17.8913637,20.5239617 C18.1872448,22.0319489 19.4966761,23.1693291 21.0642164,23.1693291 C22.7765496,23.1693291 24.180411,21.8146965 24.2874318,20.1022364 C24.2685458,15.0607029 19.4651994,9.4313099 13.0439499,9.4313099 C6.49049824,9.4313099 1.73751456,14.2428115 1.73751456,20.8690096 C1.73751456,22.5750799 2.10264444,24.2172524 2.81401815,25.7444089 C3.02176446,26.1853035 2.83290418,26.7092652 2.39852554,26.9201278 C2.27891403,26.9776358 2.15300718,27.0031949 2.02710032,27.0031949 C1.69974251,27.0031949 1.39127072,26.8178914 1.2401825,26.4984026 C0.415492613,24.7348243 1.77635684e-14,22.8370607 1.77635684e-14,20.8690096 C1.77635684e-14,17.2715655 1.26536387,13.9552716 3.56316392,11.5399361 C4.73409765,10.313099 6.12536837,9.35463259 7.69920403,8.69648562 C9.34228845,8.01277955 11.1427564,7.66134185 13.0502453,7.66134185 Z M12.9621105,11.5399361 C15.2662059,11.5399361 17.4632804,12.4217252 19.1504323,14.0191693 C20.8249934,15.6102236 21.8385436,17.7635783 22.0022225,20.0766773 C22.0399945,20.5623003 21.6748647,20.9904153 21.1964186,21.0223642 C20.7179726,21.0607029 20.2961846,20.6900958 20.2647079,20.2044728 C19.9940082,16.3386581 16.7833834,13.3099042 12.9621105,13.3099042 C8.92679584,13.3099042 5.64062699,16.6453674 5.64062699,20.7412141 C5.64062699,21.3482428 5.70987576,21.9552716 5.85466864,22.543131 L5.85466864,22.543131 L5.86096398,22.5814696 C5.86725932,22.5942492 6.100187,23.7444089 6.74860729,25.2587859 C7.3403695,26.6389776 8.41057774,28.6134185 10.1355016,30.2044728 C10.4943362,30.5367412 10.5195175,31.0926518 10.198455,31.456869 C10.0221855,31.6485623 9.78925778,31.7444089 9.55003476,31.7444089 C9.34228845,31.7444089 9.13454215,31.6677316 8.9645679,31.514377 C5.2880878,28.1277955 4.24306093,23.3674121 4.16122147,22.9520767 C3.98495188,22.2364217 3.89681708,21.4888179 3.89681708,20.7412141 C3.89681708,18.2875399 4.84111848,15.9744409 6.55345167,14.2364217 C8.26578486,12.4984026 10.5384036,11.5399361 12.9621105,11.5399361 Z M12.880271,19.4185304 C13.358717,19.4185304 13.7490283,19.8146965 13.7490283,20.3003195 C13.7490283,20.428115 13.7553236,20.5559105 13.761619,20.6837061 C13.981956,24.1853035 17.1925807,26.9265176 21.0705118,26.9265176 C21.5489578,26.9265176 22.0336992,26.8817891 22.4995545,26.798722 C22.9780006,26.715655 23.4249699,27.0351438 23.5131047,27.514377 C23.5949442,27.9936102 23.280177,28.4536741 22.8080263,28.5367412 C22.2351501,28.6389776 21.6559786,28.6900958 21.0705118,28.6900958 C16.2734607,28.6900958 12.3010995,25.2204473 12.0241044,20.7923323 C12.0178091,20.6325879 12.0115137,20.4664537 12.0115137,20.3003195 C12.0115137,19.8146965 12.401825,19.4185304 12.880271,19.4185304 Z M12.9809965,3.82108626 C15.7572426,3.82108626 18.5146027,4.50479233 20.9509003,5.78913738 C23.3116537,7.03514377 25.3702308,8.84345048 26.9125897,11.0223642 C27.1958801,11.4185304 27.10145,11.9744409 26.7174341,12.2555911 C26.3271229,12.5367412 25.7857234,12.4472843 25.502433,12.0511182 C22.6443474,8.00638978 17.9606125,5.59105431 12.9872918,5.59105431 C11.3945701,5.59105431 9.83962052,5.84025559 8.360215,6.30670927 C8.30355692,6.31948882 8.19024075,6.35782748 8.01397116,6.42811502 C7.96360842,6.44728435 7.91324568,6.4600639 7.86288294,6.47923323 C7.43479964,6.60702875 6.96894428,6.38977636 6.79897003,5.96166134 C6.6164051,5.50798722 6.83674209,4.99041534 7.28371142,4.8115016 C7.30889279,4.80511182 7.32148347,4.79233227 7.3403695,4.78594249 C9.14083749,4.15335463 11.0546216,3.82108626 12.9809965,3.82108626 Z M12.9621105,0 C14.6870343,0 16.3993675,0.217252396 18.0487473,0.645367412 C19.6540597,1.06070288 21.2090093,1.68051118 22.6695288,2.47923323 C23.0913167,2.71565495 23.2487003,3.25239617 23.022068,3.68051118 C22.8646844,3.98083067 22.562508,4.14696486 22.2540362,4.14696486 C22.1092433,4.14696486 21.9707458,4.1086262 21.8385436,4.03833866 C19.1315462,2.55591054 16.059419,1.76996805 12.9621105,1.76996805 C9.93405066,1.76996805 6.93117223,2.52396166 4.27453764,3.94249201 C3.84645434,4.17252396 3.32394091,4.00638978 3.09730857,3.57188498 C2.87067624,3.13738019 3.03435514,2.60702875 3.46243844,2.37699681 C4.89777656,1.61022364 6.42124948,1.01597444 7.98878979,0.619808307 C9.60669284,0.21086262 11.281254,0 12.9621105,0 Z" id="fingerprint"></path>
                            <path d="M30,25.9909668 L30,27.9909668 L32,27.9909668 L32,29.9909668 L30,29.9909668 L30,31.9909668 L28,31.9909668 L28,29.9909668 L26,29.9909668 L26,27.9909668 L28,27.9909668 L28,25.9909668 L30,25.9909668 Z" id="cross"></path>
                        </g>
                    </g>
                </g>
            </g>
        </g>
    </g>
</svg>