<?xml version="1.0" encoding="UTF-8"?>
<svg width="22px" height="22px" viewBox="0 0 22 22" version="1.1" xmlns="http://www.w3.org/2000/svg" xmlns:xlink="http://www.w3.org/1999/xlink">
    <title>icon-home</title>
    <g id="Page-1" stroke="none" stroke-width="1" fill="none" fill-rule="evenodd">
        <g id="PECOS-2.0-Icons-&amp;-Illus-Overview-v14" transform="translate(-47.000000, -234.000000)" fill="#0573BB">
            <g id="Framework-Icons" transform="translate(26.000000, 57.000000)">
                <g id="icon-home" transform="translate(21.000000, 177.000000)">
                    <path d="M11.5652619,0.193955978 L21.5927109,7.50867072 C21.9901861,7.79861667 22.1177084,8.33460643 21.8933971,8.77248735 L21.7791938,8.99542512 C21.5458029,9.45103043 20.9872612,9.63117083 20.5316559,9.39777997 C20.48359,9.37315746 20.4377679,9.34438119 20.3947129,9.31177962 L19.945,8.971 L19.9459783,21 C19.9459783,21.5522847 19.4982631,22 18.9459783,22 L13.0247416,22 C12.4724569,22 12.0247416,21.5522847 12.0247416,21 L12.0247416,17.0228591 L9.96067501,17.0228591 L9.96067501,21 C9.96067501,21.5522847 9.51295976,22 8.96067501,22 L3.04029174,22 C2.48800699,22 2.04029174,21.5522847 2.04029174,21 L2.04,8.982 L1.61398791,9.30782992 C1.20516751,9.61918223 0.621352174,9.54016873 0.309999864,9.13134832 C0.277450408,9.08860934 0.248663523,9.04313169 0.223961873,8.99542512 L0.108567736,8.77256317 C-0.118054535,8.3348851 0.00801756144,7.79735204 0.405607577,7.50607567 L10.3849488,0.195162005 C10.7361716,-0.062145558 11.213514,-0.0626332994 11.5652619,0.193955978 Z M10.9746645,2.17886016 L3.923,7.548 L3.92367634,19.9863326 L8.0076754,19.9863326 L8.0076754,16.0116497 C8.0076754,15.459365 8.45539065,15.0116497 9.0076754,15.0116497 L9.0076754,15.0116497 L12.951407,15.0116497 C13.5036918,15.0116497 13.951407,15.459365 13.951407,16.0116497 L13.951407,16.0116497 L13.951407,19.9863326 L17.9865171,19.9863326 L17.986,7.488 L10.9746645,2.17886016 Z"></path>
                </g>
            </g>
        </g>
    </g>
</svg>