<?xml version="1.0" encoding="UTF-8"?>
<svg width="26px" height="22px" viewBox="0 0 26 22" version="1.1" xmlns="http://www.w3.org/2000/svg" xmlns:xlink="http://www.w3.org/1999/xlink">
    <title>icon-quick-references</title>
    <g id="Page-1-Icons" stroke="none" stroke-width="1" fill="none" fill-rule="evenodd">
        <g id="PECOS-2.0-Icons-Overview-v27" transform="translate(-225.000000, -210.000000)" fill="#FFFFFF">
            <g id="FRAMEWORK-ICONS" transform="translate(26.000000, 69.000000)">
                <g id="icon-quick-references" transform="translate(199.000000, 141.858551)">
                    <path d="M22.8653548,0.660662887 C22.9427518,0.820153075 22.9829636,0.995121591 22.9829636,1.17239939 L22.982,1.556 L24.5313271,1.15138971 C25.1576183,0.987614783 25.7980935,1.36255835 25.9618685,1.9888496 C25.9871853,2.08566354 26,2.18532098 26,2.28539035 L26,17.9902285 C26,18.5633593 25.5855464,19.0524413 25.0201826,19.1464763 L13.2387885,21.1078309 C13.0365311,21.1540609 12.8249304,21.1458873 12.6259924,21.0833223 L0.979955344,19.1463791 C0.414528119,19.0524029 -1.51849854e-16,18.5632921 0,17.9901085 L0,2.28675886 C3.6481161e-16,1.63940814 0.524781452,1.11462668 1.17213218,1.11462668 C1.27254352,1.11462668 1.37253869,1.12752916 1.46966129,1.15301715 L3,1.555 L3.00071859,1.31587034 C3.00071859,0.668519608 3.52550004,0.143738156 4.17285077,0.143738156 C4.3451228,0.143738156 4.51527708,0.18171174 4.67120304,0.25495617 L12.4703173,3.91850066 C12.790706,4.0689996 13.1619473,4.06665079 13.480406,3.9121099 L21.2990949,0.117875984 C21.8814921,-0.16474828 22.5827305,0.0782656939 22.8653548,0.660662887 Z M5.43435441,2.84177966 C5.21857083,2.84177966 5.04364368,3.01670681 5.04364368,3.23249039 L5.04364368,3.23249039 L5.04364368,15.1083872 C5.04364368,15.4175676 5.22593918,15.697675 5.50863621,15.8228746 L5.50863621,15.8228746 L12,18.697 L12,5.709 L5.59237982,2.87516303 C5.55919644,2.86048792 5.52421308,2.85054257 5.48845187,2.84554291 Z M20.9219741,3.07446498 C20.8346991,2.87711853 20.6039678,2.78788801 20.4066213,2.87516303 L20.4066213,2.87516303 L13.995,5.71 L13.995,18.681 L20.4888633,15.8223685 C20.7369296,15.7131288 20.9080395,15.4846936 20.9469409,15.221766 L20.9553575,15.1072179 L20.9553575,3.23249039 C20.9553575,3.17806507 20.9439868,3.12424006 20.9219741,3.07446498 Z M23.5636751,3.21133568 L23.4855644,3.22406351 L22.982,3.359 L22.9829636,16.0573633 C22.9829636,16.5213039 22.7093223,16.9415855 22.2850463,17.1292841 L20.796,17.788 L23.3566531,17.2509249 C23.6822531,17.182546 23.9246368,16.9172425 23.9698576,16.5953765 L23.9774725,16.4861854 L23.9774725,3.60144125 C23.9774725,3.56727088 23.9729899,3.53324816 23.9641395,3.50024385 C23.9082497,3.29182388 23.6939844,3.16817373 23.4855644,3.22406351 Z M2.40743913,3.21121724 C2.19165555,3.21121724 2.0167284,3.38614439 2.0167284,3.60192797 L2.0167284,3.60192797 L2.0167284,16.4866661 C2.0167284,16.8561181 2.27547214,17.1750862 2.63698057,17.2512862 L2.63698057,17.2512862 L5.18,17.787 L3.69744775,17.1296825 C3.27381089,16.9417048 3.00071859,16.5217575 3.00071859,16.0582882 L3,3.356 L2.50898463,3.22464375 C2.4924283,3.22018764 2.47561469,3.21683101 2.45865377,3.21458841 Z"></path>
                </g>
            </g>
        </g>
    </g>
</svg>