<?xml version="1.0" encoding="UTF-8"?>
<svg width="14px" height="14px" viewBox="0 0 14 14" version="1.1" xmlns="http://www.w3.org/2000/svg" xmlns:xlink="http://www.w3.org/1999/xlink">
    <title>icon-down-chevron-white</title>
    <g id="Page-1-Icons" stroke="none" stroke-width="1" fill="none" fill-rule="evenodd">
        <g id="PECOS-2.0-Icons-Overview-v27" transform="translate(-232.000000, -243.000000)" fill="#FFFFFF">
            <g id="FRAMEWORK-ICONS" transform="translate(26.000000, 69.000000)">
                <g id="icon-down-chevron-white" transform="translate(206.000000, 174.000000)">
                    <path d="M2.08730376,3.74503893 L6.99911106,8.89079347 L6.99911106,8.89079347 L11.9074671,3.74626554 C12.2719939,3.36419913 12.8772272,3.34998042 13.2592936,3.71450715 C13.2767572,3.73116908 13.2935837,3.74848631 13.3097368,3.76642163 L13.3733965,3.83710505 C13.7259278,4.22853199 13.7143556,4.82631935 13.3469394,5.20380932 L7.72214933,10.9828185 C7.33694151,11.3785878 6.70383443,11.3871497 6.30806507,11.0019418 C6.30181546,10.995859 6.29564569,10.9896947 6.28955734,10.9834504 L0.653193248,5.20276211 C0.285632692,4.82578983 0.273331251,4.22838676 0.625061952,3.83660318 L0.688068689,3.76642163 C1.03986292,3.37456728 1.6427092,3.34209214 2.03456355,3.69388637 C2.05279426,3.71025332 2.07038739,3.72731684 2.08730376,3.74503893 Z" id="Rectangle"></path>
                </g>
            </g>
        </g>
    </g>
</svg>