<?xml version="1.0" encoding="UTF-8"?>
<svg width="22px" height="22px" viewBox="0 0 22 22" version="1.1" xmlns="http://www.w3.org/2000/svg" xmlns:xlink="http://www.w3.org/1999/xlink">
    <title>icon-logout</title>
    <g id="Page-1-Icons" stroke="none" stroke-width="1" fill="none" fill-rule="evenodd">
        <g id="PECOS-2.0-Icons-Overview-v28" transform="translate(-228.000000, -356.000000)" fill="#FFFFFF">
            <g id="FRAMEWORK-ICONS" transform="translate(26.000000, 69.000000)">
                <g id="Logout-Icon" transform="translate(202.000000, 283.000000)">
                    <path d="M11,4 C11.5522847,4 12,4.44771525 12,5 C12,5.55228475 11.5522847,6 11,6 L2,6 L2,24.0132332 L11.0066166,24.0132332 C11.5552471,24.0132332 12,24.4579861 12,25.0066166 C12,25.5552471 11.5552471,26 11.0066166,26 L1,26 C0.44771525,26 6.76353751e-17,25.5522847 0,25 L0,5 C-6.76353751e-17,4.44771525 0.44771525,4 1,4 L11,4 Z M15.4023101,9.28199299 C15.7976212,8.90310863 16.4241315,8.91260767 16.8077745,9.30330239 L16.8077745,9.30330239 L21.7219178,14.3077729 C22.1046702,14.6975607 22.1037827,15.3223749 21.7199244,15.7110737 L21.7199244,15.7110737 L16.7921108,20.701028 C16.7891856,20.70399 16.786242,20.7069337 16.78328,20.7098588 C16.3916431,21.0966185 15.760628,21.0926648 15.3738683,20.701028 L15.3738683,20.701028 L15.3586592,20.6856272 C14.9740236,20.2961412 14.9740236,19.6697881 15.3586592,19.2803021 L15.3586592,19.2803021 L18.5984011,15.9999399 L7.53233321,16 C6.98004846,16 6.53233321,15.5522847 6.53233321,15 C6.53233321,14.4477153 6.98004846,14 7.53233321,14 L7.53233321,14 L18.6694011,13.9999399 L15.3818366,10.6725881 L15.3716709,10.6621391 C14.9989989,10.2733097 15.0120972,9.65599093 15.4009266,9.28331901 L15.4009266,9.28331901 Z" id="icon-logout"></path>
                </g>
            </g>
        </g>
    </g>
</svg>