<?xml version="1.0" encoding="UTF-8"?>
<svg width="22px" height="22px" viewBox="0 0 22 22" version="1.1" xmlns="http://www.w3.org/2000/svg" xmlns:xlink="http://www.w3.org/1999/xlink">
    <title>icon-library</title>
    <g id="Page-1-Icons" stroke="none" stroke-width="1" fill="none" fill-rule="evenodd">
        <g id="PECOS-2.0-Icons-Overview-v26" transform="translate(-47.000000, -362.000000)" fill="#0573BB">
            <g id="FRAMEWORK-ICONS" transform="translate(26.000000, 69.000000)">
                <g id="Group" transform="translate(19.000000, 39.000000)">
                    <g id="icon-library" transform="translate(2.000000, 253.999999)">
                        <path d="M14,20.0000007 L14,21.0000007 C14,21.5522855 13.5522847,22.0000007 13,22.0000007 L1,22.0000007 C0.44771525,22.0000007 6.76353751e-17,21.5522855 0,21.0000007 L0,8.00000071 C-6.76353751e-17,7.44771596 0.44771525,7.00000071 1,7.00000071 L3,7.00000071 L3,9.00000071 L2,9.00000071 L2,20.0000007 L14,20.0000007 Z" id="Combined-Shape-Copy-8"></path>
                        <path d="M18,17.0000007 L18,18.0000007 C18,18.5522855 17.5522847,19.0000007 17,19.0000007 L5,19.0000007 C4.44771525,19.0000007 4,18.5522855 4,18.0000007 L4,5.00000071 C4,4.44771596 4.44771525,4.00000071 5,4.00000071 L7,4.00000071 L7,6.00000071 L6,6.00000071 L6,17.0000007 L18,17.0000007 Z" id="Combined-Shape-Copy-8"></path>
                        <path d="M19.4919766,0 L22,2.56506888 L22,15 C22,15.5522847 21.5522847,16 21,16 L9,16 C8.44771525,16 8,15.5522847 8,15 L8,1 C8,0.44771525 8.44771525,1.01453063e-16 9,0 L19.4919766,0 Z M18.0122851,1.99818544 L10.502318,1.99818544 C10.2568581,1.99818544 10.0527096,2.1750606 10.0103736,2.40830981 L10.002318,2.49818544 L10.002318,14.0330069 L20.0208367,14.0330069 L20.0208367,4.00654222 L18.5122851,4.00654222 C18.2668252,4.00654222 18.0626767,3.82966706 18.0203407,3.59641785 L18.0122851,3.50654222 L18.0122851,1.99818544 Z M17.4732657,10.0160876 C17.7498598,10.0160876 17.9740835,10.2403114 17.9740835,10.5169054 C17.9740835,10.7934994 17.7498598,11.0177232 17.4732657,11.0177232 L12.4844305,11.0177232 C12.2078365,11.0177232 11.9836127,10.7934994 11.9836127,10.5169054 C11.9836127,10.2403114 12.2078365,10.0160876 12.4844305,10.0160876 L17.4732657,10.0160876 Z M17.4733833,8.01646362 C17.7499773,8.01646362 17.974201,8.24068738 17.974201,8.5172814 C17.974201,8.79387542 17.7499773,9.01809918 17.4733833,9.01809918 L12.484548,9.01809918 C12.207954,9.01809918 11.9837303,8.79387542 11.9837303,8.5172814 C11.9837303,8.24068738 12.207954,8.01646362 12.484548,8.01646362 L17.4733833,8.01646362 Z M17.463854,6.01030914 C17.7404481,6.01030914 17.9646718,6.2345329 17.9646718,6.51112692 C17.9646718,6.78772094 17.7404481,7.01194469 17.463854,7.01194469 L12.4750188,7.01194469 C12.1984248,7.01194469 11.974201,6.78772094 11.974201,6.51112692 C11.974201,6.2345329 12.1984248,6.01030914 12.4750188,6.01030914 L17.463854,6.01030914 Z M15.752291,4.00703803 C16.028885,4.00703803 16.2531087,4.23126179 16.2531087,4.50785581 C16.2531087,4.78444983 16.028885,5.00867358 15.752291,5.00867358 L12.4750188,5.00867358 C12.1984248,5.00867358 11.974201,4.78444983 11.974201,4.50785581 C11.974201,4.23126179 12.1984248,4.00703803 12.4750188,4.00703803 L15.752291,4.00703803 Z" id="document"></path>
                    </g>
                </g>
            </g>
        </g>
    </g>
</svg>