<?xml version="1.0" encoding="UTF-8"?>
<svg width="22px" height="22px" viewBox="0 0 22 22" version="1.1" xmlns="http://www.w3.org/2000/svg" xmlns:xlink="http://www.w3.org/1999/xlink">
    <title>icon-search</title>
    <g id="Page-1" stroke="none" stroke-width="1" fill="none" fill-rule="evenodd">
        <g id="PECOS-2.0-Icons-&amp;-Illus-v14" transform="translate(-47.000000, -355.000000)" fill="#0573BB">
            <g id="Framework-Icons" transform="translate(26.000000, 57.000000)">
                <g id="icon-search" transform="translate(21.000000, 298.000000)">
                    <path d="M9,-1.77635684e-15 C13.9705627,-1.77635684e-15 18,4.02943725 18,9 C18,11.1234135 17.2646359,13.0750735 16.0346809,14.6142068 L21.5914969,20.1691446 C21.9515433,20.5290578 21.9793388,21.0954905 21.674813,21.4872895 L21.5914231,21.5817154 L21.5914231,21.5817154 C21.2010927,21.9718198 20.5684716,21.9717868 20.178182,21.5816415 L14.6221215,16.0283488 C13.0817668,17.2621116 11.1270549,18 9,18 C4.02943725,18 4.19220214e-13,13.9705627 4.19220214e-13,9 C4.19220214e-13,4.02943725 4.02943725,-1.77635684e-15 9,-1.77635684e-15 Z M9,2 C5.13400675,2 2,5.13400675 2,9 C2,12.8659932 5.13400675,16 9,16 C12.8659932,16 16,12.8659932 16,9 C16,5.13400675 12.8659932,2 9,2 Z"></path>
                </g>
            </g>
        </g>
    </g>
</svg>