<?xml version="1.0" encoding="UTF-8"?>
<svg width="22px" height="22px" viewBox="0 0 22 22" version="1.1" xmlns="http://www.w3.org/2000/svg" xmlns:xlink="http://www.w3.org/1999/xlink">
    <title>icon-my-connections</title>
    <g id="Page-1" stroke="none" stroke-width="1" fill="none" fill-rule="evenodd">
        <g id="PECOS-2.0-Icons-&amp;-Illus-v14" transform="translate(-47.000000, -435.000000)" fill="#0573BB">
            <g id="Framework-Icons" transform="translate(26.000000, 57.000000)">
                <g id="icon-my-connections" transform="translate(21.000000, 378.000000)">
                    <path d="M13.5398097,17.5969555 C14.4314215,18.0783952 15,18.8081231 15,19.625 C15,21.0747475 13.209139,22 11,22 C8.790861,22 7,21.0747475 7,19.625 C7,18.8081231 7.5685785,18.0783952 8.4601903,17.5969555 C8.99062271,18.4397002 9.92987884,19 11,19 C12.0651206,19 13.0005963,18.4449245 13.5329361,17.6082645 L13.5398097,17.5969555 Z M11,14 C12.1045695,14 13,14.8954305 13,16 C13,17.1045695 12.1045695,18 11,18 C9.8954305,18 9,17.1045695 9,16 C9,14.8954305 9.8954305,14 11,14 Z M20.5398097,10.5969555 C21.4314215,11.0783952 22,11.8081231 22,12.625 C22,14.0747475 20.209139,15 18,15 C15.790861,15 14,14.0747475 14,12.625 C14,11.8081231 14.5685785,11.0783952 15.4601903,10.5969555 C15.9906227,11.4397002 16.9298788,12 18,12 C19.0651206,12 20.0005963,11.4449245 20.5329361,10.6082645 L20.5398097,10.5969555 Z M6.5398097,10.5969555 C7.4314215,11.0783952 8,11.8081231 8,12.625 C8,14.0747475 6.209139,15 4,15 C1.790861,15 0,14.0747475 0,12.625 C0,11.8081231 0.568578499,11.0783952 1.4601903,10.5969555 C1.99062271,11.4397002 2.92987884,12 4,12 C5.06512059,12 6.00059634,11.4449245 6.53293609,10.6082645 L6.5398097,10.5969555 Z M18,7 C19.1045695,7 20,7.8954305 20,9 C20,10.1045695 19.1045695,11 18,11 C16.8954305,11 16,10.1045695 16,9 C16,7.8954305 16.8954305,7 18,7 Z M4,7 C5.1045695,7 6,7.8954305 6,9 C6,10.1045695 5.1045695,11 4,11 C2.8954305,11 2,10.1045695 2,9 C2,7.8954305 2.8954305,7 4,7 Z M13.5398097,3.59695551 C14.4314215,4.07839522 15,4.80812306 15,5.625 C15,7.07474747 13.209139,8 11,8 C8.790861,8 7,7.07474747 7,5.625 C7,4.80812306 7.5685785,4.07839522 8.4601903,3.59695551 C8.99062271,4.43970025 9.92987884,5 11,5 C12.0651206,5 13.0005963,4.44492446 13.5329361,3.60826455 L13.5398097,3.59695551 Z M11,0 C12.1045695,0 13,0.8954305 13,2 C13,3.1045695 12.1045695,4 11,4 C9.8954305,4 9,3.1045695 9,2 C9,0.8954305 9.8954305,0 11,0 Z"></path>
                </g>
            </g>
        </g>
    </g>
</svg>