<?xml version="1.0" encoding="UTF-8"?>
<svg width="22px" height="22px" viewBox="0 0 22 22" version="1.1" xmlns="http://www.w3.org/2000/svg" xmlns:xlink="http://www.w3.org/1999/xlink">
    <title>icon-user</title>
    <g id="Page-1" stroke="none" stroke-width="1" fill="none" fill-rule="evenodd">
        <g id="PECOS-2.0-Icons-&amp;-Illus-v14" transform="translate(-56.000000, -112.000000)" fill="#FFFFFF">
            <g id="Framework-Icons" transform="translate(26.000000, 57.000000)">
                <g id="icon-user" transform="translate(30.000000, 55.000000)">
                    <path d="M11,0 C17.0751322,0 22,4.92486775 22,11 C22,17.0751322 17.0751322,22 11,22 C4.92486775,22 0,17.0751322 0,11 C0,4.92486775 4.92486775,0 11,0 Z M11,2 C6.02943725,2 2,6.02943725 2,11 C2,15.9705627 6.02943725,20 11,20 C15.9705627,20 20,15.9705627 20,11 C20,6.02943725 15.9705627,2 11,2 Z M14.9500415,11.0645291 C15.9094646,11.6945487 16.5,12.5533885 16.5,13.5 C16.5,15.4329966 14.0375661,17 11,17 C7.96243388,17 5.5,15.4329966 5.5,13.5 C5.5,12.5533885 6.09053542,11.6945487 7.04995849,11.0645291 C7.96495334,12.2428798 9.39405922,13 11,13 C12.598719,13 14.02219,12.2496739 14.9374729,11.0819616 Z M11,5 C12.6568542,5 14,6.34314575 14,8 C14,9.65685425 12.6568542,11 11,11 C9.34314575,11 8,9.65685425 8,8 C8,6.34314575 9.34314575,5 11,5 Z"></path>
                </g>
            </g>
        </g>
    </g>
</svg>