<?xml version="1.0" encoding="UTF-8"?>
<svg width="22px" height="22px" viewBox="0 0 22 22" version="1.1" xmlns="http://www.w3.org/2000/svg" xmlns:xlink="http://www.w3.org/1999/xlink">
    <title>icon-help</title>
    <g id="Page-1" stroke="none" stroke-width="1" fill="none" fill-rule="evenodd">
        <g id="PECOS-2.0-Icons-&amp;-Illus-v14" transform="translate(-47.000000, -394.000000)" fill="#0573BB" fill-rule="nonzero">
            <g id="Framework-Icons" transform="translate(26.000000, 57.000000)">
                <g id="icon-help" transform="translate(21.000000, 337.000000)">
                    <path d="M11,0 C17.0751322,0 22,4.92486775 22,11 C22,17.0751322 17.0751322,22 11,22 C4.92486775,22 0,17.0751322 0,11 C0,4.92486775 4.92486775,0 11,0 Z M11,2 C6.02943725,2 2,6.02943725 2,11 C2,15.9705628 6.02943725,20 11,20 C15.9705628,20 20,15.9705628 20,11 C20,6.02943725 15.9705628,2 11,2 Z M11.396,12.92 L11.58,11.752 C11.6066667,11.5813333 11.688,11.428 11.824,11.292 C11.96,11.156 12.1213333,11.0173333 12.308,10.876 C12.4946667,10.7346667 12.692,10.584 12.9,10.424 C13.108,10.264 13.3013333,10.0746667 13.48,9.856 C13.6586667,9.63733333 13.8066667,9.38 13.924,9.084 C14.0413333,8.788 14.1,8.43733333 14.1,8.032 C14.1,7.616 14.0253333,7.24 13.876,6.904 C13.7266667,6.568 13.516,6.28133333 13.244,6.044 C12.972,5.80666667 12.6453333,5.624 12.264,5.496 C11.8826667,5.368 11.46,5.304 10.996,5.304 C10.6546667,5.304 10.3373333,5.33466667 10.044,5.396 C9.75066667,5.45733333 9.47866667,5.54133333 9.228,5.648 C8.97733333,5.75466667 8.744,5.88 8.528,6.024 C8.312,6.168 8.11333333,6.32 7.932,6.48 L7.932,6.48 L8.452,7.304 C8.53733333,7.464 8.676,7.544 8.868,7.544 C8.948,7.544 9.03866667,7.51066667 9.14,7.444 C9.24133333,7.37733333 9.36533333,7.30266667 9.512,7.22 C9.65866667,7.13733333 9.83733333,7.06266667 10.048,6.996 C10.2586667,6.92933333 10.516,6.896 10.82,6.896 C11.028,6.896 11.2213333,6.92533333 11.4,6.984 C11.5786667,7.04266667 11.732,7.12666667 11.86,7.236 C11.988,7.34533333 12.088,7.476 12.16,7.628 C12.232,7.78 12.268,7.952 12.268,8.144 C12.268,8.432 12.2093333,8.68266667 12.092,8.896 C11.9746667,9.10933333 11.828,9.3 11.652,9.468 C11.476,9.636 11.2866667,9.792 11.084,9.936 C10.8813333,10.08 10.692,10.228 10.516,10.38 C10.34,10.532 10.1933333,10.6946667 10.076,10.868 C9.95866667,11.0413333 9.9,11.2453333 9.9,11.48 L9.9,11.48 L9.9,11.548 C9.9,11.5666667 9.90266667,11.5893333 9.908,11.616 L9.908,11.616 L10.044,12.92 L11.396,12.92 Z M10.66,17.112 C10.8253333,17.112 10.9826667,17.0813333 11.132,17.02 C11.2813333,16.9586667 11.4093333,16.8746667 11.516,16.768 C11.6226667,16.6613333 11.708,16.5346667 11.772,16.388 C11.836,16.2413333 11.868,16.0826667 11.868,15.912 C11.868,15.7466667 11.836,15.5893333 11.772,15.44 C11.708,15.2906667 11.6226667,15.1626667 11.516,15.056 C11.4093333,14.9493333 11.2813333,14.864 11.132,14.8 C10.9826667,14.736 10.8253333,14.704 10.66,14.704 C10.4893333,14.704 10.3293333,14.736 10.18,14.8 C10.0306667,14.864 9.90133333,14.9493333 9.792,15.056 C9.68266667,15.1626667 9.59733333,15.2906667 9.536,15.44 C9.47466667,15.5893333 9.444,15.7466667 9.444,15.912 C9.444,16.0826667 9.47466667,16.2413333 9.536,16.388 C9.59733333,16.5346667 9.68266667,16.6613333 9.792,16.768 C9.90133333,16.8746667 10.0306667,16.9586667 10.18,17.02 C10.3293333,17.0813333 10.4893333,17.112 10.66,17.112 Z"></path>
                </g>
            </g>
        </g>
    </g>
</svg>