<?xml version="1.0" encoding="UTF-8"?>
<svg width="22px" height="22px" viewBox="0 0 22 22" version="1.1" xmlns="http://www.w3.org/2000/svg" xmlns:xlink="http://www.w3.org/1999/xlink">
    <title>icon-work-queue</title>
    <g id="Page-1" stroke="none" stroke-width="1" fill="none" fill-rule="evenodd">
        <g id="PECOS-2.0-Icons-&amp;-Illus-v14" transform="translate(-47.000000, -274.000000)" fill="#0573BB">
            <g id="Framework-Icons" transform="translate(26.000000, 57.000000)">
                <g id="icon-work-queue" transform="translate(21.000000, 217.000000)">
                    <path d="M20,0 C21.1045695,-2.02906125e-16 22,0.8954305 22,2 L22,20 C22,21.1045695 21.1045695,22 20,22 L2,22 C0.8954305,22 1.3527075e-16,21.1045695 0,20 L0,2 C-1.3527075e-16,0.8954305 0.8954305,2.02906125e-16 2,0 L20,0 Z M19,2 L3,2 C2.44771525,2 2,2.44771525 2,3 L2,3 L2,19 C2,19.5522847 2.44771525,20 3,20 L3,20 L19,20 C19.5522847,20 20,19.5522847 20,19 L20,19 L20,3 C20,2.44771525 19.5522847,2 19,2 L19,2 Z M6.7487793,13.7928467 L8.18041992,14.5854492 L6.06738281,18.0294189 L3.53723145,16.392334 L4.3347168,15.1856689 L5.60400391,15.9378662 L6.7487793,13.7928467 Z M18,15 L18,17 L9,17 L9,15 L18,15 Z M6.7487793,8.79284668 L8.18041992,9.58544922 L6.06738281,13.0294189 L3.53723145,11.392334 L4.3347168,10.1856689 L5.60400391,10.9378662 L6.7487793,8.79284668 Z M18,10 L18,12 L9,12 L9,10 L18,10 Z M6.7487793,3.79284668 L8.18041992,4.58544922 L6.06738281,8.02941895 L3.53723145,6.39233398 L4.3347168,5.18566895 L5.60400391,5.93786621 L6.7487793,3.79284668 Z M18,5 L18,7 L9,7 L9,5 L18,5 Z"></path>
                </g>
            </g>
        </g>
    </g>
</svg>