<?xml version="1.0" encoding="UTF-8"?>
<svg width="25px" height="12px" viewBox="0 0 25 12" version="1.1" xmlns="http://www.w3.org/2000/svg" xmlns:xlink="http://www.w3.org/1999/xlink">
    <title>icon-expand</title>
    <g id="Page-1" stroke="none" stroke-width="1" fill="none" fill-rule="evenodd">
        <g id="PECOS-2.0-Icons-&amp;-Illus-v14" transform="translate(-55.000000, -159.000000)" fill="#8390A1">
            <g id="Framework-Icons" transform="translate(26.000000, 57.000000)">
                <g id="icon-expand" transform="translate(29.000000, 102.000000)">
                    <path d="M13.9522322,10 C14.5045169,10 14.9522322,10.4477153 14.9522322,11 C14.9522322,11.5522847 14.5045169,12 13.9522322,12 L1,12 C0.44771525,12 6.76353751e-17,11.5522847 0,11 C-6.76353751e-17,10.4477153 0.44771525,10 1,10 L13.9522322,10 Z M19.1663875,0.740079837 C19.785104,0.0421811463 20.5805966,0.939479463 20.5805966,0.939479463 L20.5805966,0.939479463 L25,6.02416992 L20.4922085,11.0091606 C20.4922085,11.0091606 19.6967159,11.9064589 19.0779994,11.2085602 C18.459283,10.6103613 19.2547756,9.713063 19.2547756,9.713063 L19.2547756,9.713063 L22.344908,6 L19.3431636,2.23557703 C19.3431636,2.23557703 18.547671,1.43797853 19.1663875,0.740079837 Z M13.9522322,5 C14.5045169,5 14.9522322,5.44771525 14.9522322,6 C14.9522322,6.55228475 14.5045169,7 13.9522322,7 L1,7 C0.44771525,7 6.76353751e-17,6.55228475 0,6 C-6.76353751e-17,5.44771525 0.44771525,5 1,5 L13.9522322,5 Z M13.9522322,0 C14.5045169,-1.08250786e-15 14.9522322,0.44771525 14.9522322,1 C14.9522322,1.55228475 14.5045169,2 13.9522322,2 L1,2 C0.44771525,2 6.76353751e-17,1.55228475 0,1 C-6.76353751e-17,0.44771525 0.44771525,1.01453063e-16 1,0 L13.9522322,0 Z"></path>
                </g>
            </g>
        </g>
    </g>
</svg>