<?xml version="1.0" encoding="UTF-8"?>
<svg width="8px" height="10px" viewBox="0 0 8 10" version="1.1" xmlns="http://www.w3.org/2000/svg" xmlns:xlink="http://www.w3.org/1999/xlink">
    <title>icon-breadcrumb-carat</title>
    <g id="Page-1" stroke="none" stroke-width="1" fill="none" fill-rule="evenodd">
        <g id="PECOS-2.0-Icons-&amp;-Illus-Overview-v17" transform="translate(-52.000000, -486.000000)">
            <g id="Framework-Icons" transform="translate(26.000000, 70.000000)">
                <g id="icon-breadcrumb-carat" transform="translate(26.000000, 416.000000)">
                    <rect id="Rectangle" x="0" y="0" width="8" height="10"></rect>
                    <path d="M1.72408391,0.520963451 L6.87418749,4.23106786 C7.32230176,4.55388676 7.42387374,5.17885158 7.10105484,5.62696586 C7.03645247,5.71664228 6.95743072,5.7949888 6.86720322,5.85881925 L1.72381935,9.49744953 C1.33103306,9.77532186 0.787356838,9.6821657 0.509484508,9.28937942 C0.5055346,9.28379603 0.501650579,9.27816631 0.497833252,9.27249146 C0.222421577,8.86306287 0.32935725,8.30807354 0.737181134,8.03029118 L4.87567258,5.21142759 C4.98978714,5.13370038 5.01928492,4.9781819 4.94155771,4.86406733 C4.92383146,4.83804267 4.90134833,4.815601 4.875291,4.7979228 L0.742912173,1.99437381 C0.33161934,1.7153385 0.222221604,1.156881 0.497833252,0.743286133 C0.762928083,0.345473256 1.30032096,0.237884022 1.69813384,0.502978853 C1.70689249,0.508815448 1.71554395,0.514811311 1.72408391,0.520963451 Z" id="carat-2" fill="#0573BB"></path>
                </g>
            </g>
        </g>
    </g>
</svg>