<?xml version="1.0" encoding="UTF-8"?>
<svg width="24px" height="24px" viewBox="0 0 24 24" version="1.1" xmlns="http://www.w3.org/2000/svg" xmlns:xlink="http://www.w3.org/1999/xlink">
    <title>icon-reissued</title>
    <g id="Page-1" stroke="none" stroke-width="1" fill="none" fill-rule="evenodd">
        <g id="PECOS-2.0-Icons-&amp;-Illus-Overview-v17" transform="translate(-2197.000000, -2556.000000)">
            <g id="Deactivation-Status-Icons-" transform="translate(2179.000000, 2208.000000)">
                <g id="icon-reissued" transform="translate(18.000000, 348.000000)">
                    <circle id="Oval" fill="#4A5358" cx="12" cy="12" r="12"></circle>
                    <path d="M14.0092245,7.69963538 C14.1554348,7.69963538 14.2970179,7.75089552 14.4093398,7.84449708 L18.8080586,11.5100961 C19.0732316,11.7310736 19.1090592,12.1251766 18.8880816,12.3903496 C18.8638821,12.419389 18.837098,12.4461732 18.8080586,12.4703727 L14.4093398,16.1359717 C14.1441667,16.3569492 13.7500638,16.3211217 13.5290862,16.0559486 C13.4354847,15.9436267 13.3842245,15.8020437 13.3842245,15.6558334 L13.3832655,12.9896354 L6.35126554,12.9902344 C5.79898079,12.9902344 5.35126554,12.5425191 5.35126554,11.9902344 C5.35126554,11.4379496 5.79898079,10.9902344 6.35126554,10.9902344 L13.3832655,10.9896354 L13.3842245,8.32463538 C13.3842245,7.97945741 13.6640466,7.69963538 14.0092245,7.69963538 Z" id="arrow-left" fill="#FFFFFF" transform="translate(12.192112, 11.990242) scale(-1, 1) translate(-12.192112, -11.990242) "></path>
                </g>
            </g>
        </g>
    </g>
</svg>