<?xml version="1.0" encoding="UTF-8"?>
<svg width="218px" height="92px" viewBox="0 0 218 92" version="1.1" xmlns="http://www.w3.org/2000/svg" xmlns:xlink="http://www.w3.org/1999/xlink">
    <title>old-version-shape</title>
    <g id="Page-1-Icons" stroke="none" stroke-width="1" fill="none" fill-rule="evenodd">
        <g id="PECOS-2.0-Icons-Overview-v28" transform="translate(-2838.000000, -1482.000000)">
            <g id="DISPOSITION-COMPARISON-ICONS" transform="translate(2823.000000, 1197.000000)">
                <g id="old-version-shape" transform="translate(15.000000, 286.000000)">
                    <path d="M189.616167,9.5 L216.60082,50 L189.616167,90.5 L5.5,90.5 L5.5,9.5 L189.616167,9.5 Z" stroke="#E7E7E7" fill="#F2F5F6"></path>
                    <g id="icon-old-badge">
                        <path d="M42,-0.5 C42.4142136,-0.5 42.7892136,-0.332106781 43.0606602,-0.0606601718 C43.3321068,0.210786438 43.5,0.585786438 43.5,1 L43.5,1 L43.5,19 C43.5,19.4142136 43.3321068,19.7892136 43.0606602,20.0606602 C42.7892136,20.3321068 42.4142136,20.5 42,20.5 L42,20.5 L0.5,20.5 L0.5,1 C0.5,0.585786438 0.667893219,0.210786438 0.939339828,-0.0606601718 C1.21078644,-0.332106781 1.58578644,-0.5 2,-0.5 L2,-0.5 L42,-0.5 Z" id="label-bgd" stroke="#C4CFD5" fill="#D0D4D6"></path>
                        <polygon id="Rectangle" fill="#A2A9AE" transform="translate(2.500000, 22.918961) scale(-1, 1) translate(-2.500000, -22.918961) " points="0 21 5 21 0 24.8379211"></polygon>
                        <path d="M14.3505859,14.1171875 C15.6279297,14.1171875 16.6152344,13.7304688 17.3125,12.9570312 C18.0097656,12.1835938 18.3583984,11.0996094 18.3583984,9.70507812 C18.3583984,8.30664062 18.0107422,7.22265625 17.3154297,6.453125 C16.6201172,5.68359375 15.6357422,5.29882812 14.3623047,5.29882812 C13.0693359,5.29882812 12.0742188,5.67773438 11.3769531,6.43554688 C10.6796875,7.19335938 10.3310547,8.27929688 10.3310547,9.69335938 C10.3310547,11.1074219 10.6777344,12.1982422 11.3710938,12.9658203 C12.0644531,13.7333984 13.0576172,14.1171875 14.3505859,14.1171875 Z M14.3505859,12.921875 C13.5146484,12.921875 12.8837891,12.6494141 12.4580078,12.1044922 C12.0322266,11.5595703 11.8193359,10.7597656 11.8193359,9.70507812 C11.8193359,8.65429688 12.0332031,7.85742188 12.4609375,7.31445312 C12.8886719,6.77148438 13.5224609,6.5 14.3623047,6.5 C15.1943359,6.5 15.8203125,6.77148438 16.2402344,7.31445312 C16.6601562,7.85742188 16.8701172,8.65429688 16.8701172,9.70507812 C16.8701172,10.7714844 16.6582031,11.5742188 16.234375,12.1132812 C15.8105469,12.6523438 15.1826172,12.921875 14.3505859,12.921875 Z M25.2255859,14 L25.2255859,12.7988281 L21.5986328,12.7988281 L21.5986328,5.43359375 L20.1982422,5.43359375 L20.1982422,14 L25.2255859,14 Z M29.0986328,14 C30.5751953,14 31.7060547,13.6259766 32.4912109,12.8779297 C33.2763672,12.1298828 33.6689453,11.0488281 33.6689453,9.63476562 C33.6689453,8.30273438 33.2900391,7.26953125 32.5322266,6.53515625 C31.7744141,5.80078125 30.7138672,5.43359375 29.3505859,5.43359375 L29.3505859,5.43359375 L26.7021484,5.43359375 L26.7021484,14 L29.0986328,14 Z M29.0986328,12.8222656 L28.1025391,12.8222656 L28.1025391,6.60546875 L29.3154297,6.60546875 C31.2333984,6.60546875 32.1923828,7.63085938 32.1923828,9.68164062 C32.1923828,11.7753906 31.1611328,12.8222656 29.0986328,12.8222656 L29.0986328,12.8222656 Z" id="OLD" fill="#000000" fill-rule="nonzero"></path>
                    </g>
                </g>
            </g>
        </g>
    </g>
</svg>