<?xml version="1.0" encoding="UTF-8"?>
<svg width="31px" height="30px" viewBox="0 0 31 30" version="1.1" xmlns="http://www.w3.org/2000/svg" xmlns:xlink="http://www.w3.org/1999/xlink">
    <title>icon-your-version</title>
    <g id="Page-1-Icons" stroke="none" stroke-width="1" fill="none" fill-rule="evenodd">
        <g id="PECOS-2.0-Icons-Overview-v27" transform="translate(-2950.000000, -1573.000000)" fill="#000000">
            <g id="DISPOSITION-COMPARISON-ICONS" transform="translate(2937.000000, 1538.000000)">
                <path d="M39.1302989,55.8703271 C41.4998984,56.7709094 43.0548763,58.2845701 43.0548763,60 C43.0548763,62.7614237 39.0254391,65 34.0548763,65 C29.0843136,65 25.0548763,62.7614237 25.0548763,60 C25.0548763,58.3064897 26.5703695,56.8096251 28.8890188,55.9051492 C29.2302055,56.5062249 29.6594384,57.0419027 30.1569799,57.4919192 C28.2554048,58.0283846 27,58.9513604 27,60 C27,61.6568542 30.1340068,63 34,63 C37.8659932,63 41,61.6568542 41,60 C41,58.9513604 39.7445952,58.0283846 37.8427647,57.4920638 C38.3224455,57.0582883 38.7384462,56.5451207 39.0737439,55.9711342 L39.1302989,55.8703271 Z M31,35 C32.1045695,35 33,35.8954305 33,37 L33,46 L31,46 L31,38 C31,37.4871642 30.6139598,37.0644928 30.1166211,37.0067277 L30,37 L16,37 C15.4871642,37 15.0644928,37.3860402 15.0067277,37.8833789 L15,38 L15,58 C15,58.5128358 15.3860402,58.9355072 15.8833789,58.9932723 L16,59 L24,59 L24,61 L15,61 C13.8954305,61 13,60.1045695 13,59 L13,37 C13,35.8954305 13.8954305,35 15,35 L31,35 Z M21,52 L21,54 L23,54 L23,56 L21,56 L21,58 L19,58 L19,56 L17,56 L17,54 L19,54 L19,52 L21,52 Z M34,47 C36.7614237,47 39,49.4624339 39,52.5 C39,55.5375661 36.7614237,58 34,58 C31.2385763,58 29,55.5375661 29,52.5 C29,49.4624339 31.2385763,47 34,47 Z M34,49 C32.3431458,49 31,50.5670034 31,52.5 C31,54.4329966 32.3431458,56 34,56 C35.6568542,56 37,54.4329966 37,52.5 C37,50.5670034 35.6568542,49 34,49 Z M28,48 L28,50 L18,50 L18,48 L28,48 Z M28,44 L28,46 L18,46 L18,44 L28,44 Z M28,40 L28,42 L18,42 L18,40 L28,40 Z" id="icon-your-version"></path>
            </g>
        </g>
    </g>
</svg>