<?xml version="1.0" encoding="UTF-8"?>
<svg width="29px" height="30px" viewBox="0 0 29 30" version="1.1" xmlns="http://www.w3.org/2000/svg" xmlns:xlink="http://www.w3.org/1999/xlink">
    <title>icon-national-record</title>
    <g id="Page-1-Icons" stroke="none" stroke-width="1" fill="none" fill-rule="evenodd">
        <g id="PECOS-2.0-Icons-Overview-v27" transform="translate(-2951.000000, -1614.000000)" fill="#000000">
            <g id="DISPOSITION-COMPARISON-ICONS" transform="translate(2937.000000, 1538.000000)">
                <path d="M35,87 C39.320094,87 42.8403992,88.4981326 42.9947239,90.371689 L42.9965287,90.424 L43,90.4247017 L43,102.448193 C43.0000132,103.010433 42.7633594,103.546706 42.3480179,103.925657 C40.8323273,105.308552 38.382988,106 35,106 C31.6170139,106 29.1676755,105.308553 27.6519847,103.92566 C27.2366517,103.546706 27,103.010439 27,102.448204 L26.9994059,99.4451361 C26.9961115,99.4423019 26.992819,99.4394654 26.9895287,99.4366264 L26.9895287,97.4366264 L26.9995287,97.443 L27,90.4247017 C27.0939284,88.526241 30.6395668,87 35,87 Z M28.999152,100.75631 L29,102.413021 C29.9533463,103.5315 31.9533463,104.09074 35,104.09074 C37.9247876,104.09074 39.8849791,103.575345 40.8805745,102.544554 L41,102.413021 L41.0008084,100.777271 C39.3897589,101.580053 37.4098052,101.981443 35.0609474,101.981443 C32.6917342,101.981443 30.6711358,101.573066 28.999152,100.75631 Z M32,76 C33.1045695,76 34,76.8954305 34,78 L34,86 L32,86 L32,79 C32,78.4871642 31.6139598,78.0644928 31.1166211,78.0067277 L31,78 L17,78 C16.4871642,78 16.0644928,78.3860402 16.0067277,78.8833789 L16,79 L16,99 C16,99.5128358 16.3860402,99.9355072 16.8833789,99.9932723 L17,100 L25,100 L25,102 L16,102 C14.8954305,102 14,101.104569 14,100 L14,78 C14,76.8954305 14.8954305,76 16,76 L32,76 Z M28.9992517,96.7264385 L28.9998629,98.6339674 C30.8521127,99.5322847 32.8693169,99.9814434 35.0514755,99.9814434 C37.2236339,99.9814434 39.2065494,99.5363921 41.0002222,98.6462894 L41.0003058,96.7291476 C39.3028947,97.5763825 37.30595,98 35.0094719,98 C32.7105473,98 30.7071405,97.5754795 28.9992517,96.7264385 Z M22,93 L22,95 L24,95 L24,97 L22,97 L22,99 L20,99 L20,97 L18,97 L18,95 L20,95 L20,93 L22,93 Z M41.0009003,92.81465 C39.5349893,93.5415268 37.3898743,94 35,94 C32.6103116,94 30.4653444,93.5415981 28.9994418,92.8148196 L28.9993825,94.639883 C30.8384332,95.5466277 32.8386391,96 35,96 C37.163324,96 39.1635749,95.5458037 41.0007526,94.6374112 L41.0009003,92.81465 Z M35,89 C31.6862915,89 29,89.6715729 29,90.5 C29,91.3284271 31.6862915,92 35,92 C38.3137085,92 41,91.3284271 41,90.5 C41,89.6715729 38.3137085,89 35,89 Z M26,89 L26,91 L19,91 L19,89 L26,89 Z M29,85 L29,87 L19,87 L19,85 L29,85 Z M29,81 L29,83 L19,83 L19,81 L29,81 Z" id="icon-national-record"></path>
            </g>
        </g>
    </g>
</svg>