<?xml version="1.0" encoding="UTF-8"?>
<svg width="218px" height="93px" viewBox="0 0 218 93" version="1.1" xmlns="http://www.w3.org/2000/svg" xmlns:xlink="http://www.w3.org/1999/xlink">
    <title>icon-new-version-shape</title>
    <g id="Page-1-Icons" stroke="none" stroke-width="1" fill="none" fill-rule="evenodd">
        <g id="PECOS-2.0-Icons-Overview-v28" transform="translate(-2838.000000, -1315.000000)">
            <g id="DISPOSITION-COMPARISON-ICONS" transform="translate(2823.000000, 1197.000000)">
                <g id="icon-new-version-shape" transform="translate(15.000000, 119.000000)">
                    <path d="M5.5,10.5 L189.617024,10.5 L216.600822,51.2333794 L189.615304,91.5 L5.5,91.5 L5.5,10.5 Z" id="selected-version-shape" stroke="#ABE0DF" fill="#C2F4F4"></path>
                    <g id="icon-new-badge">
                        <path d="M42,-0.5 C42.4142136,-0.5 42.7892136,-0.332106781 43.0606602,-0.0606601718 C43.3321068,0.210786438 43.5,0.585786438 43.5,1 L43.5,1 L43.5,19 C43.5,19.4142136 43.3321068,19.7892136 43.0606602,20.0606602 C42.7892136,20.3321068 42.4142136,20.5 42,20.5 L42,20.5 L0.5,20.5 L0.5,1 C0.5,0.585786438 0.667893219,0.210786438 0.939339828,-0.0606601718 C1.21078644,-0.332106781 1.58578644,-0.5 2,-0.5 L2,-0.5 L42,-0.5 Z" id="label-bgd" stroke="#0B8080" fill="#149D9D"></path>
                        <polygon id="Rectangle" fill="#0B8080" transform="translate(2.500000, 22.918961) scale(-1, 1) translate(-2.500000, -22.918961) " points="0 21 5 21 0 24.8379211"></polygon>
                        <path d="M10.6796875,14 L10.6796875,9.546875 C10.6796875,8.9453125 10.6523438,8.28125 10.5976562,7.5546875 L10.5976562,7.5546875 L10.5683594,7.17382812 L10.6152344,7.17382812 L14.828125,14 L16.5449219,14 L16.5449219,5.43359375 L15.2617188,5.43359375 L15.2617188,9.921875 C15.2617188,10.2382812 15.2734375,10.6787109 15.296875,11.2431641 C15.3203125,11.8076172 15.3359375,12.1347656 15.34375,12.2246094 L15.34375,12.2246094 L15.3085938,12.2246094 L11.1074219,5.43359375 L9.40820312,5.43359375 L9.40820312,14 L10.6796875,14 Z M23.6523438,14 L23.6523438,12.8105469 L20.2070312,12.8105469 L20.2070312,10.1210938 L23.4355469,10.1210938 L23.4355469,8.94921875 L20.2070312,8.94921875 L20.2070312,6.6171875 L23.6523438,6.6171875 L23.6523438,5.43359375 L18.8066406,5.43359375 L18.8066406,14 L23.6523438,14 Z M28.1992188,14 L29.6171875,8.9140625 C29.6757812,8.71875 29.7490234,8.421875 29.8369141,8.0234375 C29.9248047,7.625 29.9882812,7.30078125 30.0273438,7.05078125 C30.046875,7.21484375 30.1035156,7.50683594 30.1972656,7.92675781 C30.2910156,8.34667969 30.3691406,8.66796875 30.4316406,8.890625 L30.4316406,8.890625 L31.8847656,14 L33.4082031,14 L35.640625,5.43359375 L34.2226562,5.43359375 L33.0039062,10.4140625 C32.78125,11.2773438 32.640625,11.9882812 32.5820312,12.546875 C32.4296875,11.6210938 32.2851562,10.9257812 32.1484375,10.4609375 L32.1484375,10.4609375 L30.71875,5.43359375 L29.3300781,5.43359375 L27.9355469,10.4375 C27.8652344,10.6914062 27.7871094,11.0234375 27.7011719,11.4335938 C27.6152344,11.84375 27.5507812,12.2148438 27.5078125,12.546875 C27.4257812,11.9335938 27.2890625,11.2265625 27.0976562,10.4257812 L27.0976562,10.4257812 L25.8730469,5.43359375 L24.4433594,5.43359375 L25.5683594,9.7109375 L26.6757812,14 L28.1992188,14 Z" id="NEW" fill="#FFFFFF" fill-rule="nonzero"></path>
                    </g>
                </g>
            </g>
        </g>
    </g>
</svg>