<?xml version="1.0" encoding="UTF-8"?>
<svg width="36px" height="36px" viewBox="0 0 36 36" version="1.1" xmlns="http://www.w3.org/2000/svg" xmlns:xlink="http://www.w3.org/1999/xlink">
    <title>icon-welcome-small</title>
    <g id="Page-1-Icons" stroke="none" stroke-width="1" fill="none" fill-rule="evenodd">
        <g id="PECOS-2.0-Icons-Overview-v21" transform="translate(-2090.000000, -790.000000)">
            <g id="Dashboard-Icons" transform="translate(2078.000000, 564.000000)">
                <g id="icon-welcome-small" transform="translate(12.000000, 226.000000)">
                    <circle id="Oval-Copy-13" fill="#15BBBB" cx="18" cy="18" r="18"></circle>
                    <path d="M19.0621681,30 C19.6144529,30 20.0621681,30.4477153 20.0621681,31 C20.0621681,31.5522847 19.6144529,32 19.0621681,32 L17,32 C16.4477153,32 16,31.5522847 16,31 C16,30.4477153 16.4477153,30 17,30 L19.0621681,30 Z M19.542099,27 C20.0943837,27 20.542099,27.4477153 20.542099,28 C20.542099,28.5522847 20.0943837,29 19.542099,29 L16.5668907,29 C16.014606,29 15.5668907,28.5522847 15.5668907,28 C15.5668907,27.4477153 16.014606,27 16.5668907,27 L19.542099,27 Z M18.0160994,9.97224998 C21.3726576,9.97224998 24.0317802,12.7130311 24.0317802,16.0656293 C24.0317802,17.8309384 23.0277533,19.3976155 22.0646931,20.8062815 C21.4304622,21.7339696 20.9370409,23.1392499 20.5844292,25.0221223 C20.4846254,25.5550541 20.0460997,25.9522103 19.5164579,26.0074938 L19.3927281,26.014089 L16.6599449,26.0214493 C16.0738362,26.0230279 15.5700386,25.6062016 15.4618117,25.0301696 C15.1055186,23.1334944 14.6035301,21.7270431 13.9558463,20.8108159 C12.9720881,19.4191706 12.0004186,17.8333453 12.0004186,16.0656293 C12.0004186,12.7130311 14.6595412,9.97224998 18.0160994,9.97224998 Z M13.0502525,20.9497475 C13.4407768,21.3402718 13.4407768,21.9734367 13.0502525,22.363961 L10.9289322,24.4852814 C10.5384079,24.8758057 9.90524292,24.8758057 9.51471863,24.4852814 C9.12419433,24.0947571 9.12419433,23.4615921 9.51471863,23.0710678 L11.636039,20.9497475 C12.0265633,20.5592232 12.6597282,20.5592232 13.0502525,20.9497475 Z M23.1039307,20.9497475 C23.494455,20.5592232 24.1276199,20.5592232 24.5181442,20.9497475 L24.5181442,20.9497475 L26.6394646,23.0710678 C27.0299889,23.4615921 27.0299889,24.0947571 26.6394646,24.4852814 C26.2489403,24.8758057 25.6157753,24.8758057 25.225251,24.4852814 L25.225251,24.4852814 L23.1039307,22.363961 C22.7134064,21.9734367 22.7134064,21.3402718 23.1039307,20.9497475 Z M18.0004186,11.9952132 C15.7912796,11.9952132 14.0004186,13.7944018 14.0004186,16.0138134 C14.0004186,17.0338196 14.3807757,18.5638484 14.9945899,19.2958637 C15.8508335,20.3169926 16.3836922,21.6875298 16.593166,23.4074755 C16.6340891,23.7429719 16.9189151,23.9952132 17.2568981,23.9952132 L18.778673,23.9952132 C19.1059272,23.9952124 19.3850927,23.7583452 19.4383837,23.4354592 C19.7239514,21.7052263 20.227995,20.3406578 20.9505147,19.3417536 C21.5449588,18.5199174 22.0004186,17.0559897 22.0004186,16.0138134 C22.0004186,13.7944018 20.2095576,11.9952132 18.0004186,11.9952132 Z M10,15 C10.5522847,15 11,15.4477153 11,16 C11,16.5522847 10.5522847,17 10,17 L7,17 C6.44771525,17 6,16.5522847 6,16 C6,15.4477153 6.44771525,15 7,15 L10,15 Z M29,15 C29.5522847,15 30,15.4477153 30,16 C30,16.5522847 29.5522847,17 29,17 L26,17 C25.4477153,17 25,16.5522847 25,16 C25,15.4477153 25.4477153,15 26,15 L29,15 Z M26.4852814,7.51471863 C26.8758057,7.90524292 26.8758057,8.5384079 26.4852814,8.92893219 L24.363961,11.0502525 C23.9734367,11.4407768 23.3402718,11.4407768 22.9497475,11.0502525 C22.5592232,10.6597282 22.5592232,10.0265633 22.9497475,9.63603897 L25.0710678,7.51471863 C25.4615921,7.12419433 26.0947571,7.12419433 26.4852814,7.51471863 Z M8.58296661,7.4985115 C8.9734909,7.10798721 9.60665588,7.10798721 9.99718018,7.4985115 L9.99718018,7.4985115 L12.1185005,9.61983185 C12.5090248,10.0103561 12.5090248,10.6435211 12.1185005,11.0340454 C11.7279762,11.4245697 11.0948112,11.4245697 10.704287,11.0340454 L10.704287,11.0340454 L8.58296661,8.91272507 C8.19244232,8.52220078 8.19244232,7.8890358 8.58296661,7.4985115 Z M18,4 C18.5522847,4 19,4.44771525 19,5 L19,8 C19,8.55228475 18.5522847,9 18,9 C17.4477153,9 17,8.55228475 17,8 L17,5 C17,4.44771525 17.4477153,4 18,4 Z" id="lightbulb-small" fill="#FFFFFF"></path>
                </g>
            </g>
        </g>
    </g>
</svg>