<?xml version="1.0" encoding="UTF-8"?>
<svg width="50px" height="50px" viewBox="0 0 50 50" version="1.1" xmlns="http://www.w3.org/2000/svg" xmlns:xlink="http://www.w3.org/1999/xlink">
    <title>icon-welcome-large</title>
    <g id="Page-1-Icons" stroke="none" stroke-width="1" fill="none" fill-rule="evenodd">
        <g id="PECOS-2.0-Icons-Overview-v21" transform="translate(-2083.000000, -833.000000)">
            <g id="Dashboard-Icons" transform="translate(2078.000000, 564.000000)">
                <g id="icon-welcome-large" transform="translate(5.000000, 269.000000)">
                    <circle id="teal-Oval" fill="#15BBBB" cx="25" cy="25" r="25"></circle>
                    <path d="M26.3882866,39.980896 C26.9405713,39.980896 27.3882866,40.4286112 27.3882866,40.980896 L27.3882866,41.0060043 C27.3882866,41.5582891 26.9405713,42.0060043 26.3882866,42.0060043 L23.3882866,42.0060043 C22.8360018,42.0060043 22.3882866,41.5582891 22.3882866,41.0060043 L22.3882866,40.980896 C22.3882866,40.4286112 22.8360018,39.980896 23.3882866,39.980896 L26.3882866,39.980896 Z M27.3882866,36.980896 C27.9405713,36.980896 28.3882866,37.4286112 28.3882866,37.980896 L28.3882866,38.0060043 C28.3882866,38.5582891 27.9405713,39.0060043 27.3882866,39.0060043 L22.6883153,39.0060043 C22.1360305,39.0060043 21.6883153,38.5582891 21.6883153,38.0060043 L21.6883153,37.980896 C21.6883153,37.4286112 22.1360305,36.980896 22.6883153,36.980896 L27.3882866,36.980896 Z M25.0423609,13.9949509 C29.5177718,13.9949509 33.1458092,17.6193124 33.1458092,22.090189 C33.1458092,24.4443269 31.8071066,26.5335782 30.5230264,28.4121127 C29.6624309,29.6711138 28.9962805,31.774209 28.524575,34.7213985 C28.4068433,35.4569798 27.8054304,36.0108376 27.0759805,36.0788988 L26.9284888,36.0859436 L23.183318,36.0957781 C22.3858458,36.0978722 21.7053573,35.5195107 21.5788861,34.7321281 C21.1024321,31.766056 20.4248533,29.6613998 19.5461496,28.4181596 C18.234472,26.5623231 16.9389126,24.4475367 16.9389126,22.090189 C16.9389126,17.6193124 20.56695,13.9949509 25.0423609,13.9949509 Z M24.9970337,16.0086439 C21.6833252,16.0086439 18.9970337,18.7004582 18.9970337,22.0209795 C18.9970337,23.5470381 19.5675693,25.8361551 20.4882907,26.931343 C21.7727432,28.4591849 22.5720526,30.509857 22.8862188,33.0833593 C22.9474792,33.5850454 23.3734372,33.9621658 23.8788496,33.9621658 L26.1672872,33.9621658 C26.656572,33.9621574 27.0740038,33.608113 27.1538677,33.1253901 C27.5821991,30.5364163 28.3383025,28.4946196 29.4221779,27 C30.3138441,25.7704289 30.9970337,23.5802073 30.9970337,22.0209795 C30.9970337,18.7004582 28.3107422,16.0086439 24.9970337,16.0086439 Z M15.7071068,28.8786797 C16.0976311,28.4881554 16.7307961,28.4881554 17.1213203,28.8786797 C17.5118446,29.2692039 17.5118446,29.9023689 17.1213203,30.2928932 L17.1213203,30.2928932 L14.2928932,33.1213203 C13.9023689,33.5118446 13.2692039,33.5118446 12.8786797,33.1213203 C12.4881554,32.7307961 12.4881554,32.0976311 12.8786797,31.7071068 L12.8786797,31.7071068 Z M34.2928932,28.8786797 L37.1213203,31.7071068 C37.5118446,32.0976311 37.5118446,32.7307961 37.1213203,33.1213203 C36.7307961,33.5118446 36.0976311,33.5118446 35.7071068,33.1213203 L32.8786797,30.2928932 C32.4881554,29.9023689 32.4881554,29.2692039 32.8786797,28.8786797 C33.2692039,28.4881554 33.9023689,28.4881554 34.2928932,28.8786797 Z M39.9383545,21.0189304 C40.4906392,21.0189304 40.9383545,21.4666457 40.9383545,22.0189304 C40.9383545,22.5712152 40.4906392,23.0189304 39.9383545,23.0189304 L35.9383545,23.0189304 C35.3860697,23.0189304 34.9383545,22.5712152 34.9383545,22.0189304 C34.9383545,21.4666457 35.3860697,21.0189304 35.9383545,21.0189304 L39.9383545,21.0189304 Z M13.9383545,21.0189304 C14.4906392,21.0189304 14.9383545,21.4666457 14.9383545,22.0189304 C14.9383545,22.5712152 14.4906392,23.0189304 13.9383545,23.0189304 L9.93835449,23.0189304 C9.38606974,23.0189304 8.93835449,22.5712152 8.93835449,22.0189304 C8.93835449,21.4666457 9.38606974,21.0189304 9.93835449,21.0189304 L13.9383545,21.0189304 Z M14.2928932,10.8786797 L17.1213203,13.7071068 C17.5118446,14.0976311 17.5118446,14.7307961 17.1213203,15.1213203 C16.7307961,15.5118446 16.0976311,15.5118446 15.7071068,15.1213203 L12.8786797,12.2928932 C12.4881554,11.9023689 12.4881554,11.2692039 12.8786797,10.8786797 C13.2692039,10.4881554 13.9023689,10.4881554 14.2928932,10.8786797 Z M35.7071068,10.8786797 C36.0976311,10.4881554 36.7307961,10.4881554 37.1213203,10.8786797 C37.5118446,11.2692039 37.5118446,11.9023689 37.1213203,12.2928932 L37.1213203,12.2928932 L34.2928932,15.1213203 C33.9023689,15.5118446 33.2692039,15.5118446 32.8786797,15.1213203 C32.4881554,14.7307961 32.4881554,14.0976311 32.8786797,13.7071068 L32.8786797,13.7071068 Z M25,6 C25.5522847,6 26,6.44771525 26,7 L26,11 C26,11.5522847 25.5522847,12 25,12 C24.4477153,12 24,11.5522847 24,11 L24,7 C24,6.44771525 24.4477153,6 25,6 Z" id="lightbulb-copy" fill="#FFFFFF"></path>
                </g>
            </g>
        </g>
    </g>
</svg>