<?xml version="1.0" encoding="UTF-8"?>
<svg width="32px" height="32px" viewBox="0 0 32 32" version="1.1" xmlns="http://www.w3.org/2000/svg" xmlns:xlink="http://www.w3.org/1999/xlink">
    <title>icon-watch-list-orange-small</title>
    <g id="Page-1" stroke="none" stroke-width="1" fill="none" fill-rule="evenodd">
        <g id="PECOS-2.0-Icons-&amp;-Illus-v14" transform="translate(-1207.000000, -838.000000)">
            <g id="Card-Icons" transform="translate(876.000000, 523.000000)">
                <g id="Small-Icons-Column-2" transform="translate(323.000000, 50.000000)">
                    <g id="icon-watch-list-orange-small" transform="translate(8.000000, 265.000000)">
                        <g id="flag" transform="translate(2.000000, 0.000000)">
                            <path d="M9,6 L27.4806662,6 C28.032951,6 28.4806662,6.44771525 28.4806662,7 C28.4806662,7.13599651 28.4529266,7.27056392 28.3991435,7.39547364 L25.3401101,14.5 L25.3401101,14.5 L28.3991435,21.6045264 C28.6175576,22.1117874 28.3834009,22.7000633 27.8761399,22.9184773 C27.7512301,22.9722604 27.6166627,23 27.4806662,23 L10,23 C9.44771525,23 9,22.5522847 9,22 L9,6 L9,6 Z" id="Rectangle" fill="#EC8400"></path>
                            <polygon id="Rectangle" fill="#A85E00" points="9 18 18.4699707 18 9 22.078125"></polygon>
                            <path d="M2,1 L18,1 C18.5522847,1 19,1.44771525 19,2 L19,17.5 C19,17.7761424 18.7761424,18 18.5,18 L2,18 L2,18 L2,1 Z" id="Rectangle" fill="#FF950F"></path>
                            <rect id="pole" fill="#D47700" x="0" y="0" width="2" height="32" rx="1"></rect>
                        </g>
                        <path d="M10,3 L10,5 L12,5 L12,7 L10,7 L10,9 L8,9 L8,7 L6,7 L6,5 L8,5 L8,3 L10,3 Z" id="cross" fill="#FFCB89"></path>
                    </g>
                </g>
            </g>
        </g>
    </g>
</svg>