<?xml version="1.0" encoding="UTF-8"?>
<svg width="19px" height="21px" viewBox="0 0 19 21" version="1.1" xmlns="http://www.w3.org/2000/svg" xmlns:xlink="http://www.w3.org/1999/xlink">
    <title>Combined Shape</title>
    <g id="APPLICATION-LEFT-NAV" stroke="none" stroke-width="1" fill="none" fill-rule="evenodd">
        <g id="Grouped-By-Enrollment" transform="translate(-348.000000, -563.000000)" fill="#AF9971">
            <g id="2.0-Enrollment-Timeline" transform="translate(150.000000, 248.000000)">
                <g id="icon-application-event-note" transform="translate(184.000000, 303.000000)">
                    <path d="M30.5,13.9993379 L32,14 C32.5522847,14 33,14.4477153 33,15 L33,31 C33,32.1045695 32.1045695,33 31,33 L16,33 C14.8954305,33 14,32.1045695 14,31 L14,16 C14,14.8954305 14.8954305,14 16,14 L16.5000046,13.9993975 L16.5000046,13.9993975 L16.5,12.9963379 C16.5,12.4440531 16.9477153,11.9963379 17.5,11.9963379 C18.0522847,11.9963379 18.5,12.4440531 18.5,12.9963379 L18.5,13.9993379 L20.5000046,13.9993975 L20.5000046,13.9993975 L20.5,12.9963379 C20.5,12.4440531 20.9477153,11.9963379 21.5,11.9963379 C22.0522847,11.9963379 22.5,12.4440531 22.5,12.9963379 L22.5,13.9993379 L24.5000046,13.9993975 L24.5000046,13.9993975 L24.5,12.9963379 C24.5,12.4440531 24.9477153,11.9963379 25.5,11.9963379 C26.0522847,11.9963379 26.5,12.4440531 26.5,12.9963379 L26.5,13.9993379 L28.5000046,13.9993975 L28.5000046,13.9993975 L28.5,12.9963379 C28.5,12.4440531 28.9477153,11.9963379 29.5,11.9963379 C30.0522847,11.9963379 30.5,12.4440531 30.5,12.9963379 L30.5,13.9993379 Z M29.9969817,16.0019141 L17.0135938,16.0266901 C16.4624881,16.0277418 16.0161141,16.4744726 16.0155027,17.025579 L16.0155027,17.025579 L16.0011106,29.9988906 C16.0011102,29.9992604 16.00111,29.9996302 16.00111,30 L16.0078377,30.1166211 C16.0656028,30.6139598 16.4882741,31 17.00111,31 L17.00111,31 L29.9844979,31 C30.5363503,31 30.9838863,30.5529593 30.9844973,30.0011072 L30.9844973,30.0011072 L30.9988894,17.0030195 L30.9988894,17.0030195 C30.9978343,16.4477202 30.5492655,16.0008601 29.9969817,16.0019141 L29.9969817,16.0019141 Z M29,27 L29,29 L18,29 L18,27 L29,27 Z M29,24 L29,26 L18,26 L18,24 L29,24 Z M29,21 L29,23 L18,23 L18,21 L29,21 Z M29,18 L29,20 L18,20 L18,18 L29,18 Z"></path>
                </g>
            </g>
        </g>
    </g>
</svg>