<?xml version="1.0" encoding="UTF-8"?>
<svg width="36px" height="36px" viewBox="0 0 36 36" version="1.1" xmlns="http://www.w3.org/2000/svg" xmlns:xlink="http://www.w3.org/1999/xlink">
    <title>icon-tl-revo-closed-not-actionable</title>
    <defs>
        <linearGradient x1="50%" y1="0%" x2="50%" y2="100%" id="linearGradient-1">
            <stop stop-color="#C88FA3" offset="0%"></stop>
            <stop stop-color="#B8768F" offset="100%"></stop>
        </linearGradient>
    </defs>
    <g id="Page-1-Icons" stroke="none" stroke-width="1" fill="none" fill-rule="evenodd">
        <g id="PECOS-2.0-Icons-Overview-v32-pending-reviews" transform="translate(-3019.000000, -2419.000000)">
            <g id="24x24-status-icons" transform="translate(30.000000, 2206.000000)">
                <g id="Revocation-Time-Line-Icons" transform="translate(2971.000000, 2.000000)">
                    <g id="Revocation-TL-Closed-Not-Actionable" transform="translate(13.000000, 205.000000)">
                        <g id="icon-tl-revo-closed-not-actionable" transform="translate(5.000000, 6.000000)">
                            <g id="revocation-icon">
                                <path d="M24.970022,5.00026972 C26.0911479,5.00026972 27,5.90912184 27,7.03024775 L27,24.970022 C27,26.0911479 26.0911479,27 24.970022,27 L20.2303647,27 L20.2309586,25.9311686 C20.7364517,25.6381041 21.0764997,25.0906856 21.0764997,24.463742 C21.0764997,23.5279179 20.3188446,22.7692826 19.3842297,22.7692826 C18.4496148,22.7692826 17.6919597,23.5279179 17.6919597,24.463742 C17.6919597,25.0906856 18.0320076,25.6381041 18.5375008,25.9311686 L18.5380947,27 L11.4612846,27 L11.4615929,25.9515753 C12.343627,25.7429279 13,24.9495089 13,24.0025874 C13,22.8965889 12.1045695,22 11,22 C9.8954305,22 9,22.8965889 9,24.0025874 C9,24.6435638 9.30075087,25.2142052 9.76866347,25.5807497 L9.76901463,27 L7.03046791,27 C5.909342,27 5.00048987,26.0911479 5.00048987,24.970022 L4.99956392,17.8684853 C6.3390402,18.5903485 7.87163343,19 9.49990493,19 C14.7465576,19 18.9998099,14.7467051 18.9998099,9.5 C18.9998099,7.8717122 18.5901625,6.33910363 17.8683064,4.99961395 L24.970022,5.00026972 Z" id="enrollment-card" fill="url(#linearGradient-1)"></path>
                                <path d="M9,0 C13.9705627,0 18,4.02941941 18,8.99996016 C18,13.9705009 13.9705627,17.9999203 9,17.9999203 C4.02943725,17.9999203 0,13.9705009 0,8.99996016 C0,4.02941941 4.02943725,0 9,0 Z M2,8.99996901 C2,12.8659451 5.13400675,15.999938 9,15.999938 C10.4558756,15.999938 11.8079436,15.5554865 12.9279217,14.7948651 L3.20507825,5.07206467 C2.44445347,6.19203786 2,7.54409983 2,8.99996901 Z M9,2 C7.31184961,2 5.76327279,2.5975828 4.55426804,3.59275076 L14.4072422,13.4456813 C15.4024146,12.2366819 16,10.6881119 16,8.99996901 C16,5.13399288 12.8659932,2 9,2 Z" id="Combined-Shape" fill="#B36C86"></path>
                            </g>
                            <g id="closed-not-actionable" transform="translate(11.000000, 11.000000)">
                                <circle id="Oval" stroke="#E6D1D9" fill="#848D94" cx="12" cy="12" r="12.5"></circle>
                                <path d="M12,9 C12.5522847,9 13,9.44771525 13,10 L12.9990099,15 L15.718975,15 C16.0503459,15 16.318975,15.2686292 16.318975,15.6 C16.318975,15.7403619 16.2697653,15.8762816 16.1799078,15.9841106 L12.4609328,20.4468807 C12.2487943,20.7014468 11.8704555,20.7358413 11.6158894,20.5237028 C11.5880115,20.5004713 11.5622988,20.4747585 11.5390672,20.4468807 L7.8200922,15.9841106 C7.60795375,15.7295445 7.64234819,15.3512057 7.89691433,15.1390672 C8.00474333,15.0492097 8.14066306,15 8.28102497,15 L10.9990099,15 L11,10 C11,9.44771525 11.4477153,9 12,9 Z" id="Combined-Shape" fill="#FFFFFF"></path>
                                <path d="M7.05954326,6 L17,6 C17.5522847,6 18,6.44771525 18,7 L18,10.041958 C18,10.57107 17.57107,11 17.041958,11 C16.5128459,11 16.0839159,10.57107 16.0839159,10.041958 L16.0839159,7.99421842 L16.0839159,7.99421842 L8.12457649,7.99421842 L8.09213284,10.0160446 C8.08337201,10.5620034 7.63829059,11 7.09226157,11 L7.0149686,11 C6.46268385,11 6.0149686,10.5522847 6.0149686,10 C6.0149686,9.9950476 6.01500539,9.99009527 6.01507896,9.98514342 L6.05965362,6.98514342 C6.06777262,6.43871217 6.51305169,6 7.05954326,6 Z" id="Rectangle" fill="#FFFFFF"></path>
                            </g>
                        </g>
                    </g>
                </g>
            </g>
        </g>
    </g>
</svg>