<?xml version="1.0" encoding="UTF-8"?>
<svg width="36px" height="36px" viewBox="0 0 36 36" version="1.1" xmlns="http://www.w3.org/2000/svg" xmlns:xlink="http://www.w3.org/1999/xlink">
    <title>icon-tl-revo-in-progress</title>
    <defs>
        <linearGradient x1="50%" y1="0%" x2="50%" y2="100%" id="linearGradient-1">
            <stop stop-color="#C88FA3" offset="0%"></stop>
            <stop stop-color="#B8768F" offset="100%"></stop>
        </linearGradient>
    </defs>
    <g id="Page-1-Icons" stroke="none" stroke-width="1" fill="none" fill-rule="evenodd">
        <g id="PECOS-2.0-Icons-Overview-v32-pending-reviews" transform="translate(-3018.000000, -2308.000000)">
            <g id="24x24-status-icons" transform="translate(30.000000, 2206.000000)">
                <g id="Revocation-Time-Line-Icons" transform="translate(2971.000000, 2.000000)">
                    <g id="Revocation-TL-In-Progress" transform="translate(12.000000, 94.000000)">
                        <g id="icon-tl-revo-in-progress" transform="translate(5.000000, 6.000000)">
                            <g id="revocation-icon">
                                <path d="M24.970022,5.00026972 C26.0911479,5.00026972 27,5.90912184 27,7.03024775 L27,24.970022 C27,26.0911479 26.0911479,27 24.970022,27 L20.2303647,27 L20.2309586,25.9311686 C20.7364517,25.6381041 21.0764997,25.0906856 21.0764997,24.463742 C21.0764997,23.5279179 20.3188446,22.7692826 19.3842297,22.7692826 C18.4496148,22.7692826 17.6919597,23.5279179 17.6919597,24.463742 C17.6919597,25.0906856 18.0320076,25.6381041 18.5375008,25.9311686 L18.5380947,27 L11.4612846,27 L11.4615929,25.9515753 C12.343627,25.7429279 13,24.9495089 13,24.0025874 C13,22.8965889 12.1045695,22 11,22 C9.8954305,22 9,22.8965889 9,24.0025874 C9,24.6435638 9.30075087,25.2142052 9.76866347,25.5807497 L9.76901463,27 L7.03046791,27 C5.909342,27 5.00048987,26.0911479 5.00048987,24.970022 L4.99956392,17.8684853 C6.3390402,18.5903485 7.87163343,19 9.49990493,19 C14.7465576,19 18.9998099,14.7467051 18.9998099,9.5 C18.9998099,7.8717122 18.5901625,6.33910363 17.8683064,4.99961395 L24.970022,5.00026972 Z" id="enrollment-card" fill="url(#linearGradient-1)"></path>
                                <path d="M9,0 C13.9705627,0 18,4.02941941 18,8.99996016 C18,13.9705009 13.9705627,17.9999203 9,17.9999203 C4.02943725,17.9999203 0,13.9705009 0,8.99996016 C0,4.02941941 4.02943725,0 9,0 Z M2,8.99996901 C2,12.8659451 5.13400675,15.999938 9,15.999938 C10.4558756,15.999938 11.8079436,15.5554865 12.9279217,14.7948651 L3.20507825,5.07206467 C2.44445347,6.19203786 2,7.54409983 2,8.99996901 Z M9,2 C7.31184961,2 5.76327279,2.5975828 4.55426804,3.59275076 L14.4072422,13.4456813 C15.4024146,12.2366819 16,10.6881119 16,8.99996901 C16,5.13399288 12.8659932,2 9,2 Z" id="Combined-Shape" fill="#B36C86"></path>
                            </g>
                            <g id="in-progress-icon" transform="translate(11.000000, 11.000000)">
                                <circle id="Oval" stroke="#E6D1D9" fill="#A25773" cx="12" cy="12" r="12.5"></circle>
                                <path d="M13,16 C13.5522847,16 14,16.4477153 14,17 C14,17.5522848 13.5522847,18 13,18 C12.4477153,18 12,17.5522848 12,17 C12,16.4477153 12.4477153,16 13,16 Z M9.63903809,15.4550781 C10.1913228,15.4550781 10.6390381,15.9027934 10.6390381,16.4550781 C10.6390381,17.0073629 10.1913228,17.4550781 9.63903809,17.4550781 C9.08675334,17.4550781 8.63903809,17.0073629 8.63903809,16.4550781 C8.63903809,15.9027934 9.08675334,15.4550781 9.63903809,15.4550781 Z M7.52319336,13.1962891 C8.07547811,13.1962891 8.52319336,13.6440043 8.52319336,14.1962891 C8.52319336,14.7485738 8.07547811,15.1962891 7.52319336,15.1962891 C6.97090861,15.1962891 6.52319336,14.7485738 6.52319336,14.1962891 C6.52319336,13.6440043 6.97090861,13.1962891 7.52319336,13.1962891 Z M12.0452149,6.02038574 C13.9293019,6.02038574 15.479617,6.75146472 16.6961604,8.21362267 L18.1197576,7.06146541 C18.3433023,6.88044246 18.6712692,6.91491317 18.8522921,7.13845789 C18.9267196,7.23036815 18.9676506,7.3448722 18.9683528,7.46313652 L18.9960712,12.131478 C18.9977791,12.4191213 18.7659827,12.6536867 18.4783395,12.6553946 C18.4398782,12.655623 18.4015101,12.6515903 18.3639368,12.6433704 L13.8033727,11.6456549 C13.5223703,11.5841799 13.3444081,11.3065471 13.405883,11.0255447 C13.4311584,10.9100107 13.4950017,10.8065189 13.586912,10.7320914 L15.107,9.50038574 L15.0862548,9.47321743 C14.2891042,8.48834461 13.2754242,7.9959082 12.0452149,7.9959082 C11.0110703,7.9959082 10.1023696,8.34388858 9.319113,9.03984934 C8.92335231,9.3911342 8.341581,9.43449735 7.89818388,9.14566076 L7.88275146,9.13562012 C7.48033594,8.87380049 7.36636044,8.3353315 7.62818007,7.93291597 C7.66071132,7.88291559 7.69830282,7.83639649 7.74032835,7.79406237 C8.91593297,6.61161128 10.3508952,6.02038574 12.0452149,6.02038574 Z M7,10 C7.55228475,10 8,10.4477153 8,11 C8,11.5522848 7.55228475,12 7,12 C6.44771525,12 6,11.5522848 6,11 C6,10.4477153 6.44771525,10 7,10 Z" id="arrow-circle" fill="#FFFFFF"></path>
                            </g>
                        </g>
                    </g>
                </g>
            </g>
        </g>
    </g>
</svg>