<?xml version="1.0" encoding="UTF-8"?>
<svg width="24px" height="24px" viewBox="0 0 24 24" version="1.1" xmlns="http://www.w3.org/2000/svg" xmlns:xlink="http://www.w3.org/1999/xlink">
    <title>icon-approved-letter-issued</title>
    <g id="Page-1-Icons" stroke="none" stroke-width="1" fill="none" fill-rule="evenodd">
        <g id="PECOS-2.0-Icons-Overview-v28" transform="translate(-1098.000000, -2375.000000)">
            <g id="24x24-status-icons" transform="translate(24.000000, 2077.000000)">
                <g id="Fingerprint-Status-Icons" transform="translate(1061.000000, 3.000000)">
                    <g id="icon-approved-letter-issued" transform="translate(13.000000, 295.000000)">
                        <circle id="Oval" fill="#457389" cx="12" cy="12" r="12"></circle>
                        <path d="M7.9054155,10.9696059 L10.9321644,10.9490598 L10.9321644,10.9490598 L10.5767284,3.62215868 C10.5506723,3.08504319 10.9649679,2.62850244 11.5020833,2.60244638 C11.517798,2.60168404 11.5335289,2.60130271 11.549262,2.60130271 C12.1200448,2.60130271 12.5888647,3.0522352 12.6110576,3.62258633 L12.9360357,11.9744303 C12.9575094,12.5262975 12.5275405,12.991082 11.9756734,13.0125557 C11.9642226,13.0130012 11.9527649,13.0132499 11.9413055,13.0133017 L7.90542874,13.0315184 C7.33926117,13.0340739 6.87822002,12.577176 6.87566452,12.0110085 C6.87565755,12.0094661 6.87565407,12.0079237 6.87565407,12.0063813 C6.87565407,11.4365194 7.33556675,10.9734742 7.9054155,10.9696059 Z" id="Rectangle" fill="#FFFFFF" transform="translate(9.925966, 7.818735) rotate(45.000000) translate(-9.925966, -7.818735) "></path>
                        <path d="M14.560931,12.2005101 C14.6998907,12.2005101 14.8339323,12.2519467 14.9372203,12.3449059 L18.5338813,15.5819008 C18.7647911,15.7897196 18.78351,16.1453795 18.5756912,16.3762893 C18.5624972,16.3909493 18.5485413,16.4049052 18.5338813,16.4180992 L14.9372203,19.6550941 C14.7063105,19.862913 14.3506506,19.844194 14.1428317,19.6132842 C14.0498726,19.5099962 13.998436,19.3759546 13.998436,19.2369949 L13.998,16.9995101 L10,17 C9.44771525,17 9,16.5522847 9,16 C9,15.4477153 9.44771525,15 10,15 L13.998,14.9995101 L13.998436,12.7630051 C13.998436,12.4523477 14.2502736,12.2005101 14.560931,12.2005101 Z" id="arrow-right" fill="#FFFFFF"></path>
                    </g>
                </g>
            </g>
        </g>
    </g>
</svg>