<?xml version="1.0" encoding="UTF-8"?>
<svg width="24px" height="24px" viewBox="0 0 24 24" version="1.1" xmlns="http://www.w3.org/2000/svg" xmlns:xlink="http://www.w3.org/1999/xlink">
    <title>icon-cancelled-warning</title>
    <g id="Page-1" stroke="none" stroke-width="1" fill="none" fill-rule="evenodd">
        <g id="PECOS-2.0-Icons-&amp;-Illus-Overview-v17" transform="translate(-1243.000000, -2509.000000)">
            <g id="Fingerprint-Status-Icons" transform="translate(1226.000000, 2208.000000)">
                <g id="icon-cancelled-warning" transform="translate(17.000000, 301.000000)">
                    <path d="M12,0 C13.0075684,0 13.7696126,0.495768229 14.2861328,1.48730469 L23.7683105,20.9908447 C23.9962411,21.7269799 23.9962411,22.388601 23.7683105,22.975708 C23.5403799,23.5628151 22.960546,23.9042457 22.0288086,24 L1.99829102,24 C1.04443359,23.7970378 0.442153412,23.4556071 0.191450472,22.975708 C-0.059252469,22.4958089 -0.059252469,21.8341878 0.191450472,20.9908447 L9.76550293,1.48730469 C10.2475993,0.495768229 10.9924316,0 12,0 Z" id="Triangle" fill="#F58900"></path>
                    <path d="M12.0025635,17.5703125 C13.0380974,17.5703125 13.8775635,18.4097786 13.8775635,19.4453125 C13.8775635,20.4808464 13.0380974,21.3203125 12.0025635,21.3203125 C10.9670296,21.3203125 10.1275635,20.4808464 10.1275635,19.4453125 C10.1275635,18.4097786 10.9670296,17.5703125 12.0025635,17.5703125 Z M12.0108337,5.56622314 C12.9702586,5.56622314 13.7480262,6.34399068 13.7480262,7.30341556 C13.7480262,7.34758287 13.7463418,7.39173412 13.7429766,7.43577305 L13.088562,16 L10.8606262,16 L10.2657693,7.43671553 C10.1988199,6.47294306 10.9258387,5.63737789 11.8896111,5.5704285 C11.9299579,5.56762577 11.9703897,5.56622314 12.0108337,5.56622314 Z" id="exclamation-mark" fill="#FFFFFF"></path>
                </g>
            </g>
        </g>
    </g>
</svg>