<?xml version="1.0" encoding="UTF-8"?>
<svg width="144px" height="181px" viewBox="0 0 144 181" version="1.1" xmlns="http://www.w3.org/2000/svg" xmlns:xlink="http://www.w3.org/1999/xlink">
    <title>illus-dashboard-get-started-1379760440</title>
    <defs>
        <polygon id="path-1" points="14.4173477 -3.07862094e-14 3.26944407 7.14366077 7.11671057 8.1965248 1.54203766e-14 34.1124696 9.04061509 36.5859418 16.1562405 10.6694554 20.003507 11.7223195"></polygon>
        <linearGradient x1="58.1287326%" y1="-9.25232428%" x2="38.6700084%" y2="110.649667%" id="linearGradient-3">
            <stop stop-color="#BEE2EC" offset="0%"></stop>
            <stop stop-color="#DBEEEA" offset="100%"></stop>
        </linearGradient>
        <polygon id="path-4" points="4.03227818 8.81123708 8.77693275 10.1094444 1.54203766e-14 42.0755662 11.1500739 45.1269221 19.9275492 13.1608004 24.6722037 14.4584661 17.7817391 0"></polygon>
        <linearGradient x1="55.4311279%" y1="5.12619404%" x2="41.6279308%" y2="100.534326%" id="linearGradient-6">
            <stop stop-color="#BEE2EC" offset="0%"></stop>
            <stop stop-color="#D7ECEA" offset="100%"></stop>
        </linearGradient>
        <polygon id="path-7" points="4.03227818 8.81123708 8.77693275 10.1094444 0 42.0755662 11.1500739 45.125839 19.9275492 13.1602588 24.6722037 14.4590077 17.7817391 0"></polygon>
        <linearGradient x1="55.4312136%" y1="5.12621027%" x2="41.6273539%" y2="100.536633%" id="linearGradient-9">
            <stop stop-color="#BEE2EC" offset="0%"></stop>
            <stop stop-color="#DAEEEC" offset="100%"></stop>
        </linearGradient>
    </defs>
    <g id="Page-2-Illustrations" stroke="none" stroke-width="1" fill="none" fill-rule="evenodd">
        <g id="PECOS-2.0-Illustrations-v31" transform="translate(-1004.000000, -120.000000)">
            <g id="Dashboard-Welcome-" transform="translate(985.000000, 46.000000)">
                <g id="How-to-get-started" transform="translate(19.000000, 47.000000)">
                    <g id="illus-dashboard-get-started-1379760440" transform="translate(0.000000, 27.000000)">
                        <g id="Group-144" transform="translate(0.000000, 14.624955)">
                            <path d="M95.330626,106.47683 C93.6742017,104.972274 92.9043144,102.614162 93.5423606,100.311835 C94.4457167,97.0514222 97.8252997,95.1390442 101.091488,96.0408027 C101.594438,96.1794515 102.060494,96.3825503 102.493996,96.6295184 L110.107689,81.6635761 C114.229488,82.6330343 113.926742,82.4759712 118.037148,83.4930899 L117.051866,95.9059452 C117.543422,95.9606464 119.702796,96.4865368 120.194895,96.6224776 C125.21571,98.0084236 128.160706,103.194754 126.772304,108.207232 C126.129918,110.527432 124.669899,112.401898 122.789941,113.610742 C124.873357,115.429965 125.990481,118.241936 125.579223,121.063655 C124.786548,126.504535 119.131484,129.704289 114.04719,127.587729 C112.608873,126.988723 111.407111,126.00085 110.531425,124.786049 C108.733936,127.092709 105.658727,128.218147 102.661646,127.390587 C99.5712458,126.538114 97.4775212,123.862626 97.2219772,120.849182 C95.8037351,121.376697 94.2129601,121.480684 92.6428023,121.046865 C88.6772585,119.95284 86.3513198,115.856202 87.4483686,111.897672 C88.4260549,108.365378 91.7985847,106.138874 95.330626,106.47683" id="Fill-75" fill="#AFD8C8"></path>
                            <path d="M34.100981,90.4894363 C36.2836848,89.9868346 38.1115569,88.3073431 38.6844963,85.9876844 C39.4961605,82.7034418 37.4870746,79.3845371 34.197556,78.5743084 C33.6908084,78.4491996 33.1846034,78.3982895 32.6854517,78.4020807 L33.388062,61.6309966 C29.3183475,60.4622308 29.6596154,60.4725212 25.5768794,59.3508744 L18.1275819,70.0761143 C17.6718346,69.8833058 19.9711881,70.4454832 19.4747491,70.323624 C14.4170396,69.0774099 7.08601927,71.5812115 5.8375973,76.6299762 C5.25977488,78.9675077 5.61297901,81.3153294 6.65902749,83.2878247 C3.9505866,83.8559597 1.59697751,85.7618385 0.572088721,88.4227032 C-1.40607143,93.5548738 1.9556072,99.1084066 7.42674461,99.7480323 C8.97465764,99.9289256 10.5068365,99.6548777 11.8670251,99.0233759 C12.3021552,101.913878 14.4316886,104.39764 17.4504717,105.141252 C20.563117,105.908153 23.701805,104.598573 25.4021763,102.096396 C26.3804053,103.249455 27.7161788,104.118176 29.2977303,104.507043 C33.2925721,105.491124 37.3297333,103.056105 38.3155581,99.0683284 C39.1944992,95.5105796 37.3465526,91.9208765 34.100981,90.4894363" id="Fill-77" fill="#AFD8C8"></path>
                            <polygon id="Fill-79" fill="#00666A" points="73.2501051 21.146804 17.5322891 33.0965941 13.1169662 49.9462097 62.3360432 62.7977584"></polygon>
                            <polygon id="Fill-81" fill="#00666A" points="93.4582101 26.4234184 137.288076 64.36606 132.872753 81.2156757 83.6542183 68.364127"></polygon>
                            <path d="M65.5175931,155.229526 C65.5175931,155.229526 65.5316996,158.212099 68.0160648,162.718725 C68.563504,163.71093 69.6464463,164.319685 68.322609,165.556692 C66.7285787,163.857703 64.1807345,161.141054 64.1807345,161.141054 L61.3719207,156.873272 L60.7355022,157.467945 L58.8750768,155.484618 C58.8750768,155.484618 61.6068476,151.894373 63.110271,152.66344 C64.1167129,153.736343 65.5175931,155.229526 65.5175931,155.229526" id="Fill-83" fill="#212B53"></path>
                            <path d="M66.0384472,151.641447 L65.5175931,155.229526 C64.3359056,154.975517 63.4130174,154.054802 63.1563883,152.875746 L63.1108135,152.66344 L62.90844,149.508098 L66.0384472,151.641447 Z" id="Fill-85" fill="#F6B58E"></path>
                            <path d="M44.8548802,149.834735 C44.8548802,149.834735 44.8689867,152.816766 47.3533518,157.323393 C47.9007911,158.315598 48.984276,158.924353 47.6598961,160.161901 C46.0658658,158.462912 43.5180216,155.745721 43.5180216,155.745721 L40.7092078,151.477939 L40.0727893,152.072612 L38.2123638,150.089285 C38.2123638,150.089285 40.9441347,146.499041 42.4475581,147.268108 C43.454,148.341011 44.8548802,149.834735 44.8548802,149.834735" id="Fill-87" fill="#212B53"></path>
                            <path d="M45.375463,146.246115 L44.8551515,149.834735 C43.673464,149.580184 42.7500332,148.660011 42.4939466,147.480414 L42.4478294,147.268108 L42.2454559,144.112765 L45.375463,146.246115 Z" id="Fill-89" fill="#F6B58E"></path>
                            <polygon id="Fill-91" fill="#F39F85" points="88.6996661 17.3696543 87.7312031 23.5752695 81.1749532 22.1373302 84.9310702 13.1056633"></polygon>
                            <path d="M91.9831081,18.1037345 C92.7470273,17.9477546 93.438244,17.7089105 93.7572671,17.3406247 C95.405553,13.7390065 91.3602535,5.51810984 91.3602535,5.51810984 L87.560732,4.65101349 L83.5572093,8.23800859 L84.3222136,14.0883364 C84.5267573,15.6497597 85.5331992,17.0064595 87.0339098,17.7408647 C88.5986421,18.2889606 90.3201731,18.442774 91.9831081,18.1037345" id="Fill-93" fill="#F6B58E"></path>
                            <path d="M84.8445868,11.4041289 C84.9200021,10.3853854 84.3953502,8.15779811 85.4186113,8.14588298 C86.1651687,8.13775903 88.6696085,7.80413545 89.5067728,7.65736274 C91.5006671,7.30803285 94.9176864,5.90583894 94.3854387,2.87668847 C94.1190436,1.36238403 92.4181297,0.31439437 91.4171134,0.0896317305 C90.4356291,-0.131339732 89.4058573,0.0679678616 88.5274587,0.558654492 C86.4662875,1.70954753 83.8517088,3.91059661 82.6494041,3.88080879 C80.6267543,3.83152349 78.8780955,5.3171233 79.1976611,6.9695349 C79.5383865,8.73459862 80.931671,11.2351507 82.1008797,12.773827 C82.7774474,13.664212 83.6064734,14.4240722 84.5499787,15.0257862 L84.8445868,11.4041289 Z" id="Fill-95" fill="#212B53"></path>
                            <path d="M82.8608383,11.9774632 C83.2362872,11.5078988 84.0815899,11.4358664 84.7483915,11.8176921 C85.4146506,12.1989762 85.6512052,12.8884288 85.2752137,13.3579932 C84.8997647,13.8280992 84.0550046,13.8995899 83.388203,13.5183058 C82.7214013,13.1370217 82.4859319,12.4470275 82.8608383,11.9774632" id="Fill-97" fill="#F6B58E"></path>
                            <path d="M84.9463161,20.9738722 C85.1682216,21.031823 88.5754749,22.5011749 88.7838166,22.580248 C101.188823,27.2937643 93.9234521,43.054229 93.8203664,41.7533136 L87.0460088,67.6064332 L59.4250118,60.3939896 L67.1781409,30.8065607 C68.9012996,24.2310349 69.6728146,19.4422366 81.898235,20.4144027 C82.8650702,20.4918511 83.8796504,20.6954914 84.9463161,20.9738722" id="Fill-99" fill="#63C0C4"></path>
                            <path d="M87.0460631,67.6061624 C86.1969625,83.7224561 82.3692281,100.307773 78.8209101,114.140694 C73.1056223,136.422525 67.0148857,152.205737 67.0148857,152.205737 L62.4568705,151.015849 L69.6072195,84.9237176 C69.6072195,84.9237176 66.0909123,94.111906 60.4835933,109.785715 C56.0829194,122.084835 52.7744113,132.588562 45.9137873,146.696073 C41.3281017,145.498603 41.3416654,145.502394 41.3416654,145.502394 C41.3416654,145.502394 49.4290094,98.5427088 59.425066,60.3942604 C70.1334991,63.1899827 81.5374893,66.1676815 87.0460631,67.6061624" id="Fill-101" fill="#212B53"></path>
                            <polygon id="Fill-103" fill="#AFD8C8" points="88.3293172 20.1130583 82.5592313 18.6063362 81.1843937 20.360568 88.539829 22.7143474"></polygon>
                            <path d="M101.237273,79.8114237 C101.366402,80.1369233 101.702244,81.2899827 101.136358,83.6204734 C100.628525,85.7115784 98.2136073,89.7150613 100.641547,89.6164907 C102.425472,88.052901 104.726995,86.4270276 104.726995,86.4270276 C105.703597,85.37633 105.871246,82.9862637 105.676469,81.4670848 L104.485015,76.8423904 C104.485015,76.8423904 102.31479,75.7461987 102.22147,75.6768743 L101.548701,76.4166954 C101.636595,77.5713796 101.519945,78.7157735 101.237273,79.8114237" id="Fill-105" fill="#F6B58E"></path>
                            <path d="M101.957897,80.829788 C101.957897,80.829788 102.040365,80.9326914 102.142366,81.1433725 C102.349622,80.9126523 102.568815,80.6970968 102.793976,80.4896652 C103.185701,79.4368012 103.611608,78.3974771 104.01527,77.3494874 C103.336532,77.192966 102.383803,76.9709113 102.318696,76.9438315 L98.2137158,83.2550581 C98.2137158,83.2550581 98.8029319,84.0777435 100.070343,83.0979951 C101.33667,82.1187882 101.957897,80.829788 101.957897,80.829788" id="Fill-107" fill="#F6B58E"></path>
                            <path d="M89.65603,41.8165721 C98.5984424,56.6590303 100.001493,77.8923298 100.001493,77.8923298 L106.509455,78.3678518 C106.509455,78.3678518 108.254859,47.3603562 94.8797618,27.0986812 C90.3049273,20.1684095 81.4037492,28.1206742 89.65603,41.8165721" id="Fill-109" fill="#63C0C4"></path>
                            <path d="M109.810639,83.576929 L116.613209,57.6160317 C117.173128,55.4794327 119.382959,54.1882661 121.523886,54.7471939 C123.664271,55.3061217 124.957725,57.5120452 124.397807,59.6486442 L117.595236,85.6095415 L109.810639,83.576929 Z" id="Fill-111" fill="#00898B"></path>
                            <path d="M24.9162087,61.41035 L31.7187792,35.4494527 C32.2786972,33.3128537 34.4885289,32.0216871 36.6289134,32.5806149 C38.7698404,33.1395427 40.0632946,35.3454662 39.5033765,37.4820652 L32.700806,63.4429626 L24.9162087,61.41035 Z" id="Fill-113" fill="#00898B"></path>
                            <path d="M68.7491125,39.2231362 C68.7491125,39.2231362 51.9640493,29.7798558 50.4112532,22.8192547 C48.8579146,15.8591952 79.6246529,7.72278762 79.6246529,7.72278762 L81.2919283,11.395355 C81.2919283,11.395355 70.4956012,20.6344535 63.1488467,21.4630965 C70.0246623,20.981617 84.6991817,22.1920857 84.6991817,22.1920857 L71.6810866,33.4296761 L68.7491125,39.2231362 Z" id="Fill-115" fill="#63C0C4"></path>
                            <path d="M79.6245987,7.72300426 C79.6245987,7.72300426 82.5533174,5.02043662 86.709841,5.70339008 C89.3027174,6.1301683 92.0686692,6.35222296 92.9893872,6.25256916 C93.3420488,6.21411579 93.5916247,6.58348476 93.4451345,6.9062764 C92.230351,9.57147388 91.0812168,9.64350624 85.3398864,10.1916021 C81.8989945,10.6617081 80.9261911,11.9084637 80.9261911,11.9084637 L79.6245987,7.72300426 Z" id="Fill-117" fill="#F39F85"></path>
                            <path d="M91.2434411,51.5880602 L92.5206186,46.8528801 C91.3448992,46.4293514 87.6104844,35.03199 92.0388286,24.3825736 L88.4427657,22.2746792 C80.2989961,38.9840213 90.8956626,51.2473959 91.2434411,51.5880602" id="Fill-119" fill="#00898B"></path>
                            <path d="M63.8472794,43.5083037 C65.7988543,41.4442785 81.1217284,35.8452516 75.4710049,20.6567131 L71.643813,21.4913137 C76.3070841,28.6268505 68.2533789,35.4439284 65.222117,37.6790981 L63.8472794,43.5083037 Z" id="Fill-121" fill="#00898B"></path>
                            <path d="M115.298704,132.067817 C115.298704,129.683166 113.362321,127.749666 110.972903,127.749666 C108.584028,127.749666 106.647644,129.683166 106.647644,132.067817 C106.647644,134.451926 108.584028,136.385426 110.972903,136.385426 C113.362321,136.385426 115.298704,134.451926 115.298704,132.067817" id="Fill-123" fill="#AFD8C8"></path>
                        </g>
                        <g id="Group-147" transform="translate(14.914564, -0.000000)">
                            <mask id="mask-2" fill="white">
                                <use xlink:href="#path-1"></use>
                            </mask>
                            <g id="Clip-146"></g>
                            <polygon id="Fill-145" fill="url(#linearGradient-3)" mask="url(#mask-2)" points="14.4173477 -3.07862094e-14 3.26944407 7.14366077 7.11671057 8.1965248 1.54203766e-14 34.1124696 9.04061509 36.5859418 16.1562405 10.6694554 20.003507 11.7223195"></polygon>
                        </g>
                        <g id="Group-150" transform="translate(0.780973, 135.873078)">
                            <mask id="mask-5" fill="white">
                                <use xlink:href="#path-4"></use>
                            </mask>
                            <g id="Clip-149"></g>
                            <polygon id="Fill-148" fill="url(#linearGradient-6)" mask="url(#mask-5)" points="4.03227818 8.81123708 8.77693275 10.1094444 1.54203766e-14 42.0755662 11.1500739 45.1269221 19.9275492 13.1608004 24.6722037 14.4584661 17.7817391 0"></polygon>
                        </g>
                        <g id="Group-153" transform="translate(119.327796, 0.159535)">
                            <mask id="mask-8" fill="white">
                                <use xlink:href="#path-7"></use>
                            </mask>
                            <g id="Clip-152"></g>
                            <polygon id="Fill-151" fill="url(#linearGradient-9)" mask="url(#mask-8)" points="4.03227818 8.81123708 8.77693275 10.1094444 0 42.0755662 11.1500739 45.125839 19.9275492 13.1602588 24.6722037 14.4590077 17.7817391 0"></polygon>
                        </g>
                    </g>
                </g>
            </g>
        </g>
    </g>
</svg>