<?xml version="1.0" encoding="UTF-8"?>
<svg width="172px" height="157px" viewBox="0 0 172 157" version="1.1" xmlns="http://www.w3.org/2000/svg" xmlns:xlink="http://www.w3.org/1999/xlink">
    <title>illus-dashboard-what's-new-1099567718</title>
    <defs>
        <path d="M39.7038108,21.3830084 C39.7038108,21.3830084 6.782016,3.24392909 0.3496259,31.0963828 L0.3496259,31.0963828 C-4.771314,53.2674597 47.7125698,56.1177637 69.3385602,56.3587671 L69.3385602,56.3587671 C75.3351693,56.4250532 81.2997417,55.8587568 87.1772401,54.6717439 L87.1772401,54.6717439 C105.465255,50.9748595 145.49755,41.2721236 139.882916,28.0799543 L139.882916,28.0799543 C132.63893,11.0591468 110.879043,22.9264116 110.879043,22.9264116 L110.879043,22.9264116 C110.879043,22.9264116 113.610786,10.0763115 76.5829568,1.58882148 L76.5829568,1.58882148 C71.7532221,0.482006618 67.5531314,0 63.905468,0 L63.905468,0 C39.5888073,-0.0016366948 39.7038108,21.3830084 39.7038108,21.3830084" id="path-1"></path>
        <linearGradient x1="2.14205427e-05%" y1="50.000195%" x2="99.9998261%" y2="50.000195%" id="linearGradient-3">
            <stop stop-color="#DAF7F0" offset="0%"></stop>
            <stop stop-color="#C1E4EC" offset="100%"></stop>
        </linearGradient>
        <polygon id="path-4" points="0 0 23.5484376 0 23.5484376 22.3114235 0 22.3114235"></polygon>
        <polygon id="path-6" points="0 0 11.6970432 0 11.6970432 22.1551191 0 22.1551191"></polygon>
        <polygon id="path-8" points="0 0 22 0 22 36 0 36"></polygon>
        <path d="M0.183232137,4.29918806 C-0.81935162,8.1180062 2.47056886,9.39094558 5.71489868,9.75388265 L5.71489868,9.75388265 L5.71489868,0 C3.21480555,0.395261794 0.906521771,1.54708576 0.183232137,4.29918806" id="path-10"></path>
        <linearGradient x1="0.00317511098%" y1="50.0013218%" x2="99.9985547%" y2="50.0013218%" id="linearGradient-12">
            <stop stop-color="#D8ECE6" offset="0%"></stop>
            <stop stop-color="#C3E3EC" offset="100%"></stop>
        </linearGradient>
        <polygon id="path-13" points="0 0 18.2419302 0 18.2419302 10 0 10"></polygon>
        <path d="M0,9.70010173 C2.83267457,9.38555443 5.70075758,8.38494405 5.72875494,5.62156663 L5.72875494,5.62156663 L5.72875494,5.54018311 C5.72463768,5.15361139 5.6661726,4.7328586 5.54512516,4.27548321 L5.54512516,4.27548321 C4.82048748,1.53855544 2.50617589,0.393082401 0,0 L0,0 L0,9.70010173 Z" id="path-15"></path>
        <linearGradient x1="0.00220569211%" y1="50.0013218%" x2="99.9984534%" y2="50.0013218%" id="linearGradient-17">
            <stop stop-color="#DCEFE9" offset="0%"></stop>
            <stop stop-color="#C0E3EC" offset="100%"></stop>
        </linearGradient>
        <linearGradient x1="-0.000106598454%" y1="49.9995518%" x2="100.000274%" y2="49.9995518%" id="linearGradient-18">
            <stop stop-color="#E4F1EE" offset="0%"></stop>
            <stop stop-color="#C1E4EE" offset="100%"></stop>
        </linearGradient>
    </defs>
    <g id="Page-2-Illustrations" stroke="none" stroke-width="1" fill="none" fill-rule="evenodd">
        <g id="PECOS-2.0-Illustrations-v31" transform="translate(-1303.000000, -125.000000)">
            <g id="Dashboard-Welcome-" transform="translate(985.000000, 46.000000)">
                <g id="What's-new?" transform="translate(317.000000, 47.000000)">
                    <g id="illus-dashboard-what's-new-1099567718" transform="translate(1.000000, 32.000000)">
                        <g id="Group-3" transform="translate(13.924768, 25.148102)">
                            <mask id="mask-2" fill="white">
                                <use xlink:href="#path-1"></use>
                            </mask>
                            <g id="Clip-2"></g>
                            <path d="M39.7038108,21.3830084 C39.7038108,21.3830084 6.782016,3.24392909 0.3496259,31.0963828 L0.3496259,31.0963828 C-4.771314,53.2674597 47.7125698,56.1177637 69.3385602,56.3587671 L69.3385602,56.3587671 C75.3351693,56.4250532 81.2997417,55.8587568 87.1772401,54.6717439 L87.1772401,54.6717439 C105.465255,50.9748595 145.49755,41.2721236 139.882916,28.0799543 L139.882916,28.0799543 C132.63893,11.0591468 110.879043,22.9264116 110.879043,22.9264116 L110.879043,22.9264116 C110.879043,22.9264116 113.610786,10.0763115 76.5829568,1.58882148 L76.5829568,1.58882148 C71.7532221,0.482006618 67.5531314,0 63.905468,0 L63.905468,0 C39.5888073,-0.0016366948 39.7038108,21.3830084 39.7038108,21.3830084" id="Fill-1" fill="url(#linearGradient-3)" mask="url(#mask-2)"></path>
                        </g>
                        <g id="arm-andshirt">
                            <path d="M74.1069169,92.315847 C74.1069169,92.315847 58.6143076,57.8437812 32.0111316,55.8596979 C14.2993662,82.5087718 41.131317,106.704849 41.131317,106.704849 L72.3715968,117.765633 L74.1069169,92.315847 Z" id="Fill-4" fill="#00898B"></path>
                            <path d="M58.2522521,69.4828089 L51.4752623,84.8104557 L32.6393381,55.9191099 C32.4298675,55.8990604 32.2220398,55.8757375 32.0109263,55.8597797 C31.9411028,55.9645282 31.8782616,56.0692767 31.810081,56.1740251 L41.898349,71.6481561 L26.4455802,69.3862439 C26.4201151,69.5319097 26.399168,69.6767572 26.3757566,69.8216047 L26.3190763,70.2074555 L42.5037601,72.5765712 L59.3160341,98.3639253 L32.068428,95.2558419 C32.2495585,95.5598579 32.4319211,95.8610098 32.6151052,96.1552057 L59.9054268,99.26779 L71.8436077,117.579131 L72.3713915,117.765715 L72.4272503,116.946958 L52.0190644,85.6443517 L58.8802531,70.1260299 C58.6728362,69.9108046 58.4633656,69.6963976 58.2522521,69.4828089" id="Fill-6" fill="#00666A"></path>
                            <path d="M65.939946,108.453003 C65.939946,108.453003 38.6738572,92.4526747 21.9909621,105.569965 C26.9048958,148.526657 82.1003969,145.332647 82.1003969,145.332647 L83.5408152,120.087857 L65.939946,108.453003 Z" id="Fill-8" fill="#FED147"></path>
                            <path d="M21.9911675,105.570824 C22.0100609,105.736131 22.0322401,105.898982 22.0523657,106.06306 L60.5436139,124.836768 L39.4511574,134.76455 C39.7214156,134.946223 39.9937273,135.124622 40.2668606,135.300158 L61.5034821,125.304863 L76.5373097,132.637255 L76.0210263,131.459244 L46.7505915,117.182765 L40.913755,100.497889 C40.6135139,100.47743 40.312862,100.460245 40.0117993,100.446742 L45.6843451,116.662705 L22.3649287,105.289313 C22.2404785,105.382605 22.1147962,105.473032 21.9911675,105.569597 L21.9911675,105.570824 Z" id="Fill-10" fill="#FEFEFE"></path>
                            <path d="M84.5712463,100.017805 C84.5712463,100.017805 81.9602569,62.2322509 107.002672,50.0826563 C142.09721,82.5996902 109.902402,116.897448 109.902402,116.897448 L84.5712463,100.017805 Z" id="Fill-12" fill="#FED147"></path>
                            <path d="M107.002548,50.0826153 C107.124945,50.1959565 107.243234,50.3088884 107.363577,50.4222295 L99.1782057,94.2979253 L123.239805,80.1536089 C123.266913,80.4629442 123.289503,80.771052 123.308807,81.0783414 L98.9761282,95.3814173 L96.6140392,108.042479 L95.8595344,107.539605 L100.568105,82.3005433 L100.568105,82.3009525 L88.9720591,71.0392647 C89.0796695,70.7585716 89.1893335,70.4782876 89.3022834,70.1988219 L100.7517,81.3177081 L106.533909,50.3211636 C106.690807,50.2421931 106.843597,50.15954 107.002548,50.0826153" id="Fill-14" fill="#FEFEFE"></path>
                            <path d="M96.1628149,90.2567622 C96.1628149,90.2567622 117.767858,59.2197096 144.281907,62.1547125 C156.759782,91.5992611 125.911336,110.453985 125.911336,110.453985 L93.1595816,115.589524 L96.1628149,90.2567622 Z" id="Fill-16" fill="#053C5D"></path>
                            <path d="M115.969943,70.7259195 L119.795041,87.035174 L143.653741,62.0976737 C143.863212,62.1164957 144.071861,62.1316351 144.282153,62.1545488 C144.33144,62.270345 144.373745,62.3849136 144.421389,62.5003006 L131.643272,75.8569577 L147.249653,76.4711274 C147.247599,76.6188391 147.241438,76.7649141 147.237742,76.9122167 L147.222134,77.30175 L130.876446,76.658529 L109.58109,98.9167599 L136.937128,100.865245 C136.702603,101.131208 136.467668,101.393079 136.233554,101.648813 L108.8348,99.6974633 L93.7134876,115.503025 L93.1598281,115.58977 L93.2563488,114.774287 L119.106663,87.7549105 L115.233921,71.2431151 C115.477482,71.0692162 115.722686,70.8969541 115.969943,70.7259195" id="Fill-18" fill="#00666A"></path>
                            <path d="M101.204279,107.617061 C101.204279,107.617061 130.963479,96.8975286 144.933524,112.852848 C132.156229,154.171208 78.497667,140.897613 78.497667,140.897613 L101.204279,107.617061 Z" id="Fill-20" fill="#00898B"></path>
                            <path d="M144.933401,112.853625 C144.884114,113.012794 144.832362,113.169098 144.782254,113.326221 L103.477117,124.71107 L122.370954,138.341464 C122.071945,138.470354 121.771293,138.595561 121.47023,138.718313 L102.447426,124.994627 L86.3140827,129.441118 L87.0394259,128.377675 L118.449747,119.720378 L127.273387,104.393141 C127.572396,104.42833 127.870995,104.466792 128.170004,104.508528 L119.594031,119.405315 L144.617963,112.508283 C144.723109,112.62326 144.829898,112.734556 144.933401,112.852398 L144.933401,112.853625 Z" id="Fill-22" fill="#00666A"></path>
                            <polygon id="Fill-24" fill="#FED147" points="85.4334026 0 89.6441722 6.74481927 97.2077035 8.52226982 92.2465363 14.7237064 92.7102467 22.3110143 85.4334026 19.6550678 78.1565585 22.3110143 78.6206796 14.7237064 73.6591017 8.52226982 81.2230437 6.74481927"></polygon>
                            <polygon id="Fill-26" fill="#F6A506" points="97.2077035 8.52210615 89.6441722 6.74506477 85.5106192 0.15573151 85.522941 19.70155 92.7102467 22.3112598 92.2465363 14.7239519"></polygon>
                            <polygon id="Fill-28" fill="#FED147" points="128.605826 16.8845936 132.816185 23.6298221 140.379716 25.4068635 135.418549 31.6083 135.88267 39.195608 128.605826 36.5396615 121.328571 39.195608 121.792692 31.6083 116.831525 25.4068635 124.395056 23.6298221"></polygon>
                            <polygon id="Fill-30" fill="#F6A506" points="140.380127 25.4067407 132.816185 23.6296993 128.683042 17.0403661 128.694953 36.5861845 135.88267 39.1958944 135.418549 31.6085865"></polygon>
                            <polygon id="Fill-32" fill="#FED147" points="40.6724121 16.8845936 44.882771 23.6298221 52.446713 25.4068635 47.485135 31.6083 47.9492562 39.195608 40.6724121 36.5396615 33.395568 39.195608 33.8596891 31.6083 28.8981111 25.4068635 36.4616424 23.6298221"></polygon>
                            <polygon id="Fill-34" fill="#F6A506" points="52.4465076 25.4067407 44.8829763 23.6296993 40.7494233 17.0403661 40.7617451 36.5861845 47.9490508 39.1958944 47.4853404 31.6085865"></polygon>
                            <g id="Group-38" transform="translate(0.000000, 57.851146)">
                                <mask id="mask-5" fill="white">
                                    <use xlink:href="#path-4"></use>
                                </mask>
                                <g id="Clip-37"></g>
                                <polygon id="Fill-36" fill="#FED147" mask="url(#mask-5)" points="11.7741366 0 15.9849063 6.74522844 23.5484376 8.52226982 18.5868596 14.7237064 19.0509807 22.3114235 11.7741366 19.6550678 4.49729255 22.3114235 4.96141366 14.7237064 -0.000164290661 8.52226982 7.56377773 6.74522844"></polygon>
                            </g>
                            <polygon id="Fill-39" fill="#F6A506" points="23.5484376 66.3732524 15.9849063 64.5962111 11.8513532 58.0068778 11.863675 77.5526963 19.0509807 80.1619969 18.5868596 72.5750982"></polygon>
                            <polygon id="Fill-41" fill="#FED147" points="160.22574 57.8511463 164.436099 64.5963747 171.99963 66.3734161 167.038463 72.5748527 167.502584 80.1625698 160.22574 77.5062141 152.948485 80.1625698 153.412606 72.5748527 148.451439 66.3734161 156.014971 64.5963747"></polygon>
                            <g id="Group-45" transform="translate(160.302957, 58.006878)">
                                <mask id="mask-7" fill="white">
                                    <use xlink:href="#path-6"></use>
                                </mask>
                                <g id="Clip-44"></g>
                                <polygon id="Fill-43" fill="#F6A506" mask="url(#mask-7)" points="11.6970843 8.36637464 4.1331423 6.58933326 0 0 0.0119110729 19.5458185 7.19962748 22.1551191 6.73550636 14.5682204"></polygon>
                            </g>
                            <path d="M107.741405,107.26865 L103.741338,104.765325 L116.221678,99.2214306 L111.055969,87.50065 C108.667182,82.5021841 102.496836,78.4493186 96.60373,78.4460452 L70.9086706,78.4460452 C65.0151539,78.4493186 58.8452181,82.5021841 56.4560212,87.50065 L51.2899014,99.2214306 L63.7706521,104.765325 L59.770996,107.26865 L57.554715,126.314867 L83.7562003,125.905284 L109.957686,126.314867 L107.741405,107.26865 Z" id="Fill-46" fill="#63C0C4"></path>
                            <path d="M116.221842,99.2214306 L118.79833,107.700737 C120.678226,113.886625 118.672237,120.528333 113.601406,124.9069 L101.910483,134.004878 L98.1523337,123.823408 L104.618403,117.815511 C106.74186,115.842885 107.37479,112.877194 106.22147,110.303082 L103.741091,104.765325 L116.221842,99.2214306 Z" id="Fill-48" fill="#825A46"></path>
                        </g>
                        <g id="left-arm" transform="translate(48.000000, 99.000000)">
                            <mask id="mask-9" fill="white">
                                <use xlink:href="#path-8"></use>
                            </mask>
                            <g id="Clip-2"></g>
                            <path d="M3.37162269,0 L0.715464711,8.77592241 C-1.22256096,15.1781998 0.845880247,22.0522418 6.07308736,26.5839769 L18.1255153,36.0002117 L22.0002964,25.4625832 L15.3338607,19.2445226 C13.1447428,17.2028915 12.4926651,14.1334572 13.6812249,11.4693001 L16.2383009,5.73782622 L3.37162269,0 Z" id="Fill-1" fill="#825A46" mask="url(#mask-9)"></path>
                        </g>
                        <g id="left-foot" transform="translate(30.441779, 146.944531)">
                            <polygon id="Fill-50" fill="#825A46" points="34.7402529 6.86762729 24.3283323 8.27600316 22.3239863 6.08160461 23.3409454 2.10607295 33.3478896 0.66864574"></polygon>
                            <path d="M24.3282912,1.96433518 L13.5573955,0.66848207 C13.5573955,0.66848207 9.4008418,-0.418283276 5.6821227,0.179519499 L5.6821227,9.92358198 C8.46397431,10.2411008 11.2236467,9.88552883 11.2236467,9.88552883 L24.3282912,8.27624867 L24.1791975,8.05161231 C22.9741255,6.23447191 23.0336808,3.71969035 24.3282912,1.96433518" id="Fill-52" fill="#00898B"></path>
                            <path d="M16.5582208,3.05546917 L16.5582208,7.05546917 L15.5582208,7.05546917 L15.5582208,3.05546917 L16.5582208,3.05546917 Z M19.5582208,3.05546917 L19.5582208,7.05546917 L18.5582208,7.05546917 L18.5582208,3.05546917 L19.5582208,3.05546917 Z" id="laces" fill="#FFFFFF"></path>
                            <g id="Group-57" transform="translate(-0.000000, 0.173341)">
                                <mask id="mask-11" fill="white">
                                    <use xlink:href="#path-10"></use>
                                </mask>
                                <g id="Clip-56"></g>
                                <path d="M0.183232137,4.29918806 C-0.81935162,8.1180062 2.47056886,9.39094558 5.71489868,9.75388265 L5.71489868,9.75388265 L5.71489868,0 C3.21480555,0.395261794 0.906521771,1.54708576 0.183232137,4.29918806" id="Fill-55" fill="url(#linearGradient-12)" mask="url(#mask-11)"></path>
                            </g>
                        </g>
                        <g id="right-foot" transform="translate(105.000000, 147.000000)">
                            <polygon id="Fill-1" fill="#825A46" points="0 7.60268566 10.6130599 8.22933876 12.6222826 6.04703967 11.6024374 2.09342828 1.57114625 0.663926755"></polygon>
                            <g id="Group-4" transform="translate(10.612772, 0.000000)">
                                <mask id="mask-14" fill="white">
                                    <use xlink:href="#path-13"></use>
                                </mask>
                                <g id="Clip-3"></g>
                                <path d="M18.2419302,0.114954222 C14.6368577,-0.331027467 10.7971014,0.663886063 10.7971014,0.663886063 L0,1.9525941 C1.29776021,3.6982706 1.35704875,6.19877925 0.149044796,8.00630722 L0,8.22929807 L13.1365283,9.8301119 C13.1365283,9.8301119 15.6126482,10.1475076 18.2419302,9.91475076 L18.2419302,0.114954222 Z" id="Fill-2" fill="#00898B" mask="url(#mask-14)"></path>
                            </g>
                            <g id="Group-7" transform="translate(29.271245, 0.171312)">
                                <mask id="mask-16" fill="white">
                                    <use xlink:href="#path-15"></use>
                                </mask>
                                <g id="Clip-6"></g>
                                <path d="M0,9.70010173 C2.83267457,9.38555443 5.70075758,8.38494405 5.72875494,5.62156663 L5.72875494,5.62156663 L5.72875494,5.54018311 C5.72463768,5.15361139 5.6661726,4.7328586 5.54512516,4.27548321 L5.54512516,4.27548321 C4.82048748,1.53855544 2.50617589,0.393082401 0,0 L0,0 L0,9.70010173 Z" id="Fill-5" fill="url(#linearGradient-17)" mask="url(#mask-16)"></path>
                            </g>
                            <path d="M16,3 L16,7 L15,7 L15,3 L16,3 Z M19,3 L19,7 L18,7 L18,3 L19,3 Z" id="laces" fill="#FFFFFF"></path>
                        </g>
                        <polygon id="laptop" fill="url(#linearGradient-18)" points="63.9517826 137.381993 107.144208 137.381993 107.144208 111.629418 63.9517826 111.629418"></polygon>
                        <g id="head-and-legs" transform="translate(30.299785, 39.118103)">
                            <polygon id="Fill-78" fill="#CAB7CC" points="33.6519977 99.3363343 76.8444232 99.3363343 76.8444232 97.1906274 33.6519977 97.1906274"></polygon>
                            <path d="M53.5204067,83.0178325 C53.5204067,83.968343 54.2938049,84.7392262 55.2483337,84.7392262 C56.2024517,84.7392262 56.97585,83.968343 56.97585,83.0178325 C56.97585,82.067322 56.2024517,81.2964387 55.2483337,81.2964387 C54.2938049,81.2964387 53.5204067,82.067322 53.5204067,83.0178325" id="Fill-80" fill="#FEFEFE"></path>
                            <path d="M107.764788,91.3919405 C116.394976,106.704448 29.483574,116.102759 29.483574,116.102759 L28.0102975,109.282242 C28.0102975,109.282242 97.1232712,72.5110293 107.764788,91.3919405" id="Fill-81" fill="#212B53"></path>
                            <path d="M0.441790707,91.3919405 C-6.8892693,107.36199 79.4450622,116.9387 79.4450622,116.9387 L80.0862065,109.266694 C80.0862065,109.266694 9.10894451,72.5110293 0.441790707,91.3919405" id="Fill-82" fill="#053C5D"></path>
                            <path d="M58.0071025,39.2730313 C57.2070069,36.8589065 55.7563204,29.701231 55.7563204,29.701231 L46.5075777,31.5003677 L46.5075777,39.314767 C46.5075777,39.314767 49.5765272,41.4829785 52.1587657,41.5042555 C54.9796363,41.5275784 58.1064983,39.545541 58.0071025,39.2730313" id="neck" fill="#825A46"></path>
                            <path d="M58.0130991,17.0182375 L56.2707966,6.78275737 L38.4990651,8.87895424 L39.5759904,20.6701127 C39.5759904,20.6701127 40.949871,35.2624744 50.410138,33.5259412 C60.6421604,31.6482431 58.4685949,16.8881202 58.0130991,17.0182375" id="face" fill="#9E7059"></path>
                            <path d="M62.1636972,15.6182906 C61.926708,14.3764484 62.2577536,12.4390109 62.9194343,11.3608382 C65.9887946,6.35664388 61.3430654,4.90162221 59.7231595,4.46953478 C57.9311591,3.99202907 57.3610705,1.21373965 54.954623,0.326651069 C51.2806731,-1.0273047 49.211843,2.24935828 47.2185866,2.50181846 C45.2257408,2.75427863 43.2567173,0.633531344 40.9451477,2.82670237 C38.6335781,5.01946423 39.6221971,7.06287769 39.0352687,8.24498051 C38.4483404,9.4274925 36.0361427,7.44627344 34.2835721,11.1468404 C32.9499427,13.9619554 34.4223977,15.6129713 36.2279521,16.5606176 C38.3300511,17.6633407 40.8412338,17.6633407 43.0213709,16.7238779 C44.9086599,15.9104406 47.5143098,14.5478922 50.1499427,12.4091412 C50.8416064,11.8477549 56.2652518,11.475816 56.7158189,12.2430167 C58.2441328,14.8445431 58.368583,23.496521 58.368583,23.496521 L59.950702,21.2898472 C59.950702,21.2898472 62.8841118,19.3900537 62.1636972,15.6182906" id="Fill-85" fill="#212B53"></path>
                            <path d="M56.3345003,18.2938774 C55.8576467,19.5287636 56.1418695,20.7865636 56.969073,21.1036732 C57.7962765,21.4203736 58.8534869,20.6764959 59.3299298,19.4416096 C59.8063727,18.2067234 59.5225606,16.9489234 58.6953571,16.6318138 C57.8677429,16.3151134 56.8109432,17.0589912 56.3345003,18.2938774" id="ear" fill="#9E7059"></path>
                        </g>
                    </g>
                </g>
            </g>
        </g>
    </g>
</svg>