<?xml version="1.0" encoding="UTF-8"?>
<svg width="590px" height="409px" viewBox="0 0 590 409" version="1.1" xmlns="http://www.w3.org/2000/svg" xmlns:xlink="http://www.w3.org/1999/xlink">
    <title>illus-address-landing</title>
    <defs>
        <linearGradient x1="48.0851927%" y1="0%" x2="48.0851927%" y2="75.4218011%" id="linearGradient-1">
            <stop stop-color="#F1FCFC" offset="0%"></stop>
            <stop stop-color="#C4EEEE" offset="100%"></stop>
        </linearGradient>
        <filter x="0.0%" y="0.0%" width="100.0%" height="100.0%" filterUnits="objectBoundingBox" id="filter-2">
            <feGaussianBlur stdDeviation="0" in="SourceGraphic"></feGaussianBlur>
        </filter>
        <linearGradient x1="50%" y1="0%" x2="50%" y2="100%" id="linearGradient-3">
            <stop stop-color="#C9EDEE" offset="0%"></stop>
            <stop stop-color="#99D7D9" offset="100%"></stop>
        </linearGradient>
        <linearGradient x1="50%" y1="0%" x2="50%" y2="100%" id="linearGradient-4">
            <stop stop-color="#20B2B2" stop-opacity="0.128134561" offset="0%"></stop>
            <stop stop-color="#0E7B7B" stop-opacity="0.234769381" offset="100%"></stop>
        </linearGradient>
    </defs>
    <g id="Page-2-Illustrations" stroke="none" stroke-width="1" fill="none" fill-rule="evenodd">
        <g id="PECOS-2.0-Illustrations-v31" transform="translate(-999.000000, -923.000000)">
            <g id="Application-Enrollment-Address-Landing" transform="translate(985.000000, 888.000000)">
                <g id="illus-address-landing" transform="translate(14.000000, 35.000000)">
                    <rect id="gradient-rectangle" fill="url(#linearGradient-1)" filter="url(#filter-2)" x="0" y="0" width="590" height="409"></rect>
                    <g id="illustration-parts" transform="translate(55.000000, 109.795917)">
                        <g id="leaf-copy-2" transform="translate(437.850008, 50.114705) scale(-1, 1) rotate(13.000000) translate(-437.850008, -50.114705) translate(406.894210, 14.598294)">
                            <path d="M26.8151937,49.6351329 C38.5639788,57.4715334 55.5778402,71.6692248 57.2470985,71.0106938 C58.8746241,70.3686265 59.5107868,69.4704548 59.5107868,68.7608229 C59.5107868,68.0511911 64.048023,52.3504598 60.6475607,29.0459916 C57.2470985,5.74152344 37.8585005,0 24.7788708,0 C11.6992411,0 0,5.79031258 0,23.0274079 C0,40.2645032 15.0664085,41.7987323 26.8151937,49.6351329 Z" id="Oval" fill="#0E7B7B"></path>
                            <path d="M13.5693581,3.48863682 C20.8365303,4.19691038 29.460137,9.27973386 39.4401782,18.7371073 C50.8941654,29.5912342 57.8029724,49.8468925 58.4237007,69.2504426" id="Line" stroke="#135454" stroke-width="1.82135445" stroke-linecap="square" transform="translate(35.996529, 36.369540) rotate(-1.000000) translate(-35.996529, -36.369540) "></path>
                        </g>
                        <g id="leaf-copy" transform="translate(432.290972, 84.237643) scale(-1, 1) rotate(-31.000000) translate(-432.290972, -84.237643) translate(414.081679, 57.372665)">
                            <path d="M15.7736433,37.5445236 C22.6846934,43.4720573 32.6928472,54.2113367 33.6747638,53.7132171 C34.6321318,53.2275508 35.0063452,52.5481645 35.0063452,52.0113917 C35.0063452,51.4746189 37.6753076,39.5984247 35.6750357,21.970686 C33.6747638,4.34294722 22.2697062,2.27373675e-13 14.5758064,2.27373675e-13 C6.88190654,2.27373675e-13 4.54641199e-13,4.37985183 4.54641199e-13,17.4181675 C4.54641199e-13,30.4564832 8.86259323,31.6169898 15.7736433,37.5445236 Z" id="Oval" fill="#62C1C5"></path>
                            <path d="M7.92681186,2.45545552 C12.1999127,2.96984465 17.2581481,6.78898035 23.1015181,13.9128626 C29.8078917,22.0888666 33.8128072,37.3891421 34.1210321,52.0633297" id="Line" stroke="#3D9E9E" stroke-width="1.82135445" stroke-linecap="square" transform="translate(21.023922, 27.259393) rotate(-1.000000) translate(-21.023922, -27.259393) "></path>
                        </g>
                        <g id="Map" transform="translate(24.044671, 19.124222)">
                            <path d="M53.2656335,0 L374.385353,0 C374.800222,7.36228408e-15 375.162655,0.280399086 375.266844,0.681972026 L431.264625,216.512474 C431.390935,216.999308 431.098673,217.49636 430.611839,217.622671 C430.537148,217.642049 430.460297,217.651856 430.383134,217.651856 L1.15671214,217.651856 C0.653759,217.651856 0.246034919,217.244132 0.246034919,216.741179 C0.246034919,216.669182 0.254572948,216.597438 0.271470153,216.527451 L52.3803915,0.696949299 C52.4791084,0.288072626 52.8450088,-4.03055768e-15 53.2656335,0 Z" id="Rectangle-Copy-4" fill="url(#linearGradient-3)"></path>
                            <path d="M55.8660481,2.73203167 L371.989908,2.73203167 C372.410785,2.73203167 372.776835,3.0204423 372.875308,3.42963693 L422.185164,208.332012 C422.30284,208.821005 422.001828,209.312808 421.512835,209.430484 C421.443056,209.447277 421.371535,209.455761 421.299763,209.455761 L10.2404078,209.455761 C9.73745461,209.455761 9.32973053,209.048037 9.32973053,208.545084 C9.32973053,208.478509 9.33703093,208.412135 9.35150083,208.347151 L54.9771412,3.44477587 C55.0698805,3.02828847 55.4393605,2.73203167 55.8660481,2.73203167 Z" id="Rectangle" fill="#FFFFFF"></path>
                            <path d="M62.8437033,7.28541779 L365.232144,7.28541779 C365.661514,7.28541779 366.032553,7.5853274 366.122579,8.00515264 L406.741467,197.426015 C406.846922,197.917789 406.533748,198.401938 406.041975,198.507392 C405.979219,198.52085 405.915215,198.527635 405.851032,198.527635 L26.5944878,198.527635 C26.0915346,198.527635 25.6838105,198.119911 25.6838105,197.616958 C25.6838105,197.559517 25.6892451,197.502205 25.7000415,197.445789 L61.949257,8.02492603 C62.0313853,7.59576308 62.4067526,7.28541779 62.8437033,7.28541779 Z" id="Rectangle-Copy" fill="#B2E8DC"></path>
                            <polygon id="Rectangle" fill="#62C1C5" points="264.034746 7.28541779 291.140446 7.28541779 327.767272 198.527635 286.921925 198.527635"></polygon>
                            <polygon id="Rectangle" fill="#62C1C5" points="39.1155747 127.494811 279.414261 127.494811 286.796363 154.815128 33.6871918 154.815128"></polygon>
                            <polygon id="Rectangle-Copy-3" fill="#62C1C5" points="56.2745948 37.4411928 286.8079 36.4270889 294.990544 57.3726651 52.5072167 57.3726651"></polygon>
                            <polygon id="Rectangle-Copy-2" fill="#62C1C5" points="321.394019 7.28541779 337.069505 7.36116379 383.305615 198.527635 362.384202 198.527635"></polygon>
                            <polygon id="Rectangle" fill="#62C1C5" points="80.5963559 53.7299562 99.2406461 53.7299562 86.0714342 142.976324 60.0906664 142.976324"></polygon>
                        </g>
                        <g id="Leaves" transform="translate(0.000000, 141.490474)">
                            <g id="leaf-copy" transform="translate(109.912419, 80.992222) scale(-1, 1) rotate(-11.000000) translate(-109.912419, -80.992222) translate(84.098002, 50.864642)">
                                <path d="M22.3615164,42.1040971 C32.1589714,48.7514969 46.3470374,60.7950021 47.7390522,60.2363886 C49.0962656,59.6917409 49.6267695,58.9298468 49.6267695,58.327886 C49.6267695,57.7259251 53.410426,44.4074332 50.5747391,24.6389036 C47.7390522,4.87037401 31.5706644,0 20.663402,0 C9.75613957,0 0,4.91176047 0,19.5335071 C0,34.1552537 12.5640614,35.4566974 22.3615164,42.1040971 Z" id="Oval" fill="#3D9E9E"></path>
                                <path d="M10.6055967,2.85385622 C16.6656374,3.45290919 23.8557582,7.76240767 32.1759589,15.7823517 C41.7249649,24.9867561 47.4813642,42.1672997 47.9942403,58.6263656" id="Line" stroke="#62C1C5" stroke-width="2.1519031" stroke-linecap="square"></path>
                            </g>
                            <g id="leaf" transform="translate(49.554867, 52.783335) rotate(9.000000) translate(-49.554867, -52.783335) translate(6.771599, 6.119627)">
                                <path d="M42.3639508,81.6024352 C58.6016659,91.8824501 76.812804,94.017744 79.119846,93.1538641 C81.3692102,92.3115818 82.2484355,91.1333344 82.2484355,90.202419 C82.2484355,89.2715036 88.5192411,68.6748341 83.8195436,38.1033646 C79.119846,7.53189507 52.3233283,-7.10564833e-15 34.2462849,-7.10564833e-15 C16.1692414,-7.10564833e-15 0,7.59589806 0,30.2080139 C0,52.8201297 26.1262357,71.3224202 42.3639508,81.6024352 Z" id="Oval" fill="#0E7B7B"></path>
                                <path d="M8.15272673,8.60788008 C21.4471413,11.3348383 36.5985982,20.7081362 53.6070973,36.7277737 C70.6155964,52.7474112 79.119846,71.556108 79.119846,93.1538641" id="Line" stroke="#B2E8DC" stroke-width="2.1519031" stroke-linecap="square"></path>
                            </g>
                            <g id="leaf-copy" transform="translate(49.604976, 88.178875) rotate(-23.000000) translate(-49.604976, -88.178875) translate(23.790560, 58.051294)">
                                <path d="M22.3615164,42.1040971 C32.1589714,48.7514969 46.3470374,60.7950021 47.7390522,60.2363886 C49.0962656,59.6917409 49.6267695,58.9298468 49.6267695,58.327886 C49.6267695,57.7259251 53.410426,44.4074332 50.5747391,24.6389036 C47.7390522,4.87037401 31.5706644,0 20.663402,0 C9.75613957,0 0,4.91176047 0,19.5335071 C0,34.1552537 12.5640614,35.4566974 22.3615164,42.1040971 Z" id="Oval" fill="#62C1C5"></path>
                                <path d="M10.6057681,2.85393441 C16.6658058,3.45297713 23.8559004,7.76244412 32.1760521,15.7823354 C41.7250017,24.9866793 47.4812946,42.1671851 47.9940682,58.6262461" id="Line" stroke="#FFFFFF" stroke-width="2.1519031" stroke-linecap="square" transform="translate(29.299918, 30.740090) rotate(-1.000000) translate(-29.299918, -30.740090) "></path>
                            </g>
                        </g>
                        <g id="marker" transform="translate(156.046933, 0.000000)">
                            <path d="M150.110597,44.3991397 C174.749548,44.3991397 194.723364,77.8325144 194.723364,119.074672 C194.723364,130.601266 193.163164,141.517898 190.376972,151.265151 C184.503624,178.63288 172.353363,214.243471 153.926778,258.09472 L153.102965,260.050798 C152.35343,261.82653 150.306297,262.658428 148.530564,261.908893 C147.692771,261.555262 147.026096,260.888586 146.672466,260.050792 C124.545093,207.628292 111.288212,166.852581 106.901821,137.723662 C106.787241,136.987822 106.680509,136.245844 106.58045,135.499642 C105.710274,129.178053 105.275044,123.430075 105.275044,118.253547 L105.500473,118.253209 C105.763598,77.3894769 125.63544,44.3991397 150.110597,44.3991397 Z" id="marker-shadow" fill="url(#linearGradient-4)" transform="translate(149.999204, 153.292704) rotate(104.000000) translate(-149.999204, -153.292704) "></path>
                            <g id="Group"></g>
                            <path d="M44.6121171,0 C69.250709,0 89.2242341,19.5207098 89.2242341,43.6007257 L89.222,43.409 L89.225535,43.4096532 L89.224,43.57 L89.2242341,43.6007257 C89.2242341,48.87923 88.2644735,53.9386521 86.5062,58.6213999 C81.2856219,75.2386644 68.540954,97.6405389 48.273286,125.826625 L47.4417807,126.980376 C46.3132097,128.542853 44.1316843,128.894603 42.5692073,127.766032 C42.2670446,127.547781 42.0017968,127.282533 41.7835465,126.98037 C21.0368036,98.256914 8.01608052,75.4737923 2.72137711,58.6310045 C0.961122969,53.945831 4.09272616e-12,48.8829749 4.09272616e-12,43.6007257 C4.09272616e-12,43.5669936 3.91946675e-05,43.5332705 0.000117541913,43.4995564 C4.2044534e-05,43.4692737 0,43.4394473 0,43.4096532 C0.105856408,19.4174222 20.0387952,0 44.6121171,0 Z" id="marker-white" fill="#FFFFFF"></path>
                            <path d="M44.6127675,3.40930608 C67.032807,3.40930608 85.2682402,21.2085541 85.7826265,43.3591444 L85.7937837,43.3594725 L85.7899284,43.8436682 L85.7937837,44.320979 C85.7937837,50.5626709 84.3868196,56.4778979 81.8707786,61.7707214 C76.3675841,76.8191057 65.0804001,96.3767902 48.0079326,120.442769 L47.2407351,121.521826 C46.2064609,122.973258 44.1913983,123.311431 42.7399669,122.277156 C42.4479763,122.069087 42.1927018,121.813812 41.9846331,121.521821 C24.4827756,96.9607722 12.9399088,77.0434038 7.35603257,61.7697158 C4.83871544,56.4778979 3.43175135,50.5626709 3.43175135,44.320979 C3.43175135,44.1672268 3.43260508,44.0136727 3.43430809,43.860321 C3.43312716,43.6924685 3.43175135,43.5254344 3.43175135,43.3594725 L3.44290857,43.3591444 C3.95729487,21.2085541 22.192728,3.40930608 44.6127675,3.40930608 Z M45.7566846,27.2744486 C36.280165,27.2744486 28.5979279,34.9064402 28.5979279,44.320979 C28.5979279,53.7355178 36.280165,61.3675094 45.7566846,61.3675094 C55.2332043,61.3675094 62.9154414,53.7355178 62.9154414,44.320979 C62.9154414,34.9064402 55.2332043,27.2744486 45.7566846,27.2744486 Z" id="marker-yellow" fill="#FED147"></path>
                        </g>
                    </g>
                </g>
            </g>
        </g>
    </g>
</svg>