<?xml version="1.0" encoding="UTF-8"?>
<svg width="391px" height="412px" viewBox="0 0 391 412" version="1.1" xmlns="http://www.w3.org/2000/svg" xmlns:xlink="http://www.w3.org/1999/xlink">
    <title>illus-app-setup-step-5-1045137949</title>
    <defs>
        <path d="M22.1073262,12.1368262 C22.1073262,12.1368262 4.01147381,2.1290881 0.476647619,17.496319 L0.476647619,17.496319 C-2.33855238,29.7281024 26.508869,31.3014119 38.3962,31.4345381 L38.3962,31.4345381 C41.6917714,31.4708452 44.9715167,31.1580452 48.2009905,30.5035857 L48.2009905,30.5035857 C58.2524833,28.463869 80.2564738,23.1108929 77.1712976,15.8317762 L77.1712976,15.8317762 C73.1886833,6.44125952 61.2287381,12.9886476 61.2287381,12.9886476 L61.2287381,12.9886476 C61.2287381,12.9886476 62.7294333,5.89851429 42.3778833,1.21582381 L42.3778833,1.21582381 C39.7237381,0.605119048 37.4149762,0.339797619 35.4097048,0.338866667 L35.4097048,0.338866667 C22.0440214,0.337935714 22.1073262,12.1368262 22.1073262,12.1368262" id="path-1"></path>
        <linearGradient x1="0.000191487599%" y1="50.0003857%" x2="99.9992442%" y2="50.0003857%" id="linearGradient-3">
            <stop stop-color="#C6EAEA" offset="0%"></stop>
            <stop stop-color="#B0E1ED" offset="100%"></stop>
        </linearGradient>
        <path d="M43.6328071,0.84065 C32.6056762,2.61597619 28.1454833,8.97717381 26.3468833,13.5714238 L26.3468833,13.5714238 C25.6207405,15.4286738 23.2747405,16.1045452 21.7023619,14.87755 L21.7023619,14.87755 C18.9709476,12.7428762 14.7658357,11.025269 9.66142381,14.0713452 L9.66142381,14.0713452 C0.461752381,19.5630333 0.461752381,24.5157 0.461752381,24.5157 L0.461752381,24.5157 C0.461752381,24.5157 80.4463881,32.4418286 106.540983,25.3693833 L106.540983,25.3693833 C111.511338,24.0232262 114.526693,18.5725 112.532593,13.8246429 L112.532593,13.8246429 C111.4741,11.3073476 109.089931,9.16150238 103.80026,7.67477143 L103.80026,7.67477143 C97.6485262,5.94785476 92.2908952,9.03582381 88.8826786,11.9227071 L88.8826786,11.9227071 C87.4434262,13.1431857 85.3059595,12.4161119 84.7399405,10.61565 L84.7399405,10.61565 C84.0128667,8.30875 82.2636071,5.81379762 78.3042667,4.37268333 L78.3042667,4.37268333 C72.4364738,2.23800952 64.1193452,7.17391905 59.2271905,10.7012976 L59.2271905,10.7012976 C57.908031,11.6518 56.1317738,10.6314762 56.2332476,9.0106881 L56.2332476,9.0106881 C56.4734333,5.18354286 55.210131,0.494335714 47.5828381,0.493404762 L47.5828381,0.493404762 C46.4200786,0.493404762 45.1092976,0.603257143 43.6328071,0.84065" id="path-4"></path>
        <linearGradient x1="-0.000496071687%" y1="50.0009023%" x2="99.9993804%" y2="50.0009023%" id="linearGradient-6">
            <stop stop-color="#D4EDE5" offset="0%"></stop>
            <stop stop-color="#BEE7EB" offset="100%"></stop>
        </linearGradient>
        <polygon id="path-7" points="0.604188095 0.64515 0.13312619 293.942629 230.596905 293.942629 232.520252 0.154538095"></polygon>
        <linearGradient x1="50%" y1="0%" x2="50%" y2="100%" id="linearGradient-9">
            <stop stop-color="#E0F4F4" offset="0%"></stop>
            <stop stop-color="#CFEDF3" offset="100%"></stop>
        </linearGradient>
        <path d="M6.46546429,0.596740476 C3.79921667,0.74662381 2.58897857,2.48005714 1.9959619,4.8269881 L1.9959619,4.8269881 C0.561364286,10.4927643 -0.842511905,22.0933619 2.73327619,27.1493643 L2.73327619,27.1493643 C6.51759762,32.5023405 17.4162571,31.1329095 23.7448714,30.381631 L23.7448714,30.381631 C26.2128262,30.088381 27.8745762,28.5476548 28.3223643,26.2128262 L28.3223643,26.2128262 C29.6452476,19.3219167 31.5825595,5.50099762 26.09925,2.68765952 L26.09925,2.68765952 C22.6072476,0.89557619 16.8018286,0.441271429 11.7923738,0.441271429 L11.7923738,0.441271429 C9.83271905,0.441271429 7.99595,0.511092857 6.46546429,0.596740476" id="path-10"></path>
        <polygon id="path-12" points="0.0921642857 6.93559524 12.5241024 18.4868524 13.9847667 21.5608571 21.388631 8.54986667 4.38385476 0.518540476"></polygon>
        <linearGradient x1="0.00306390977%" y1="49.9982007%" x2="99.9982506%" y2="49.9982007%" id="linearGradient-14">
            <stop stop-color="#CAE9E9" offset="0%"></stop>
            <stop stop-color="#9ED4D9" offset="100%"></stop>
        </linearGradient>
        <path d="M15.1586976,1.06594048 C5.62295238,9.51154048 -0.541814286,21.9220667 0.326764286,32.9119595 L0.326764286,32.9119595 C1.35267381,45.8698857 1.75484524,56.088019 1.75484524,56.088019 L1.75484524,56.088019 L29.7960619,56.088019 C29.7960619,56.088019 32.7015643,0.897438095 16.716181,0.900230952 L16.716181,0.900230952 C16.2162595,0.900230952 15.6967881,0.95422619 15.1586976,1.06594048" id="path-15"></path>
        <linearGradient x1="62.8450168%" y1="11.5967077%" x2="47.5576197%" y2="82.5236614%" id="linearGradient-17">
            <stop stop-color="#D4EDE6" offset="0%"></stop>
            <stop stop-color="#AFDEEA" offset="100%"></stop>
        </linearGradient>
        <path d="M34.1706071,12.8331786 C32.4492762,16.0040024 28.7636357,17.5633476 25.2893214,16.5905024 L25.2893214,16.5905024 L2.47354048,10.2013762 L0.09775,14.9538881 C0.09775,14.9538881 21.7228429,31.5890762 34.8669595,29.9254643 L34.8669595,29.9254643 C48.0110762,28.2618524 52.8585452,10.2013762 52.8585452,10.2013762 L52.8585452,10.2013762 L41.0438286,0.171295238 L34.1706071,12.8331786 Z" id="path-18"></path>
        <linearGradient x1="69.502977%" y1="19.9030937%" x2="39.846765%" y2="61.9062429%" id="linearGradient-20">
            <stop stop-color="#D4ECE6" offset="0%"></stop>
            <stop stop-color="#B2E1ED" offset="100%"></stop>
        </linearGradient>
        <path d="M0.09775,5.64436429 C0.09775,5.64436429 6.23272619,10.3633619 13.9531143,14.5228571 L13.9531143,14.5228571 C13.5313929,12.8704167 13.3358929,11.1779452 13.3973357,9.53109048 L13.3973357,9.53109048 C13.46995,7.6226381 13.899119,5.87058571 14.6001262,4.28703571 L14.6001262,4.28703571 L2.47354048,0.891852381 L0.09775,5.64436429 Z" id="path-21"></path>
        <linearGradient x1="152.868493%" y1="-181.723933%" x2="44.9770484%" y2="71.9651289%" id="linearGradient-23">
            <stop stop-color="#B8E3EC" offset="0%"></stop>
            <stop stop-color="#B3E2ED" offset="100%"></stop>
        </linearGradient>
        <path d="M33.25455,11.533569 C32.90265,12.647919 31.3516833,12.7987333 30.7689071,11.7867881 L30.7689071,11.7867881 C28.9982357,8.71185238 25.9372643,5.71884048 21.0991048,7.67942619 L21.0991048,7.67942619 C16.1818143,9.67166429 14.4697929,13.0435738 13.9130833,15.62045 L13.9130833,15.62045 C13.5788714,17.1770024 12.0549024,18.2075667 10.5253476,17.7616405 L10.5253476,17.7616405 C8.18120952,17.0783214 4.95266667,16.8372048 2.21845952,19.1645857 L2.21845952,19.1645857 C-2.737,23.3818 2.21845952,29.6499024 2.21845952,29.6499024 L2.21845952,29.6499024 L93.5811952,29.6499024 C93.5811952,29.6499024 93.5811952,22.3261 89.5520333,19.1645857 L89.5520333,19.1645857 C86.683769,16.9126119 80.2890571,17.867769 76.8436024,18.6041524 L76.8436024,18.6041524 C75.9396476,18.7968595 75.2060571,17.9096619 75.5523714,17.0531857 L75.5523714,17.0531857 C77.5492643,12.1172762 80.0311833,0.242978571 57.6948429,0.242978571 L57.6948429,0.242978571 C40.1333571,0.242978571 34.7878286,6.67865238 33.25455,11.533569" id="path-24"></path>
        <linearGradient x1="99.9990922%" y1="49.9998803%" x2="7.32082389e-05%" y2="49.9998803%" id="linearGradient-26">
            <stop stop-color="#D3EDE6" offset="0%"></stop>
            <stop stop-color="#B1E1EC" offset="100%"></stop>
        </linearGradient>
        <polygon id="path-27" points="2.21752857 8.18214048 33.4574976 8.68299286 0.673078571 0.774552381"></polygon>
        <linearGradient x1="5.00951868%" y1="45.2454866%" x2="86.0484595%" y2="58.0481574%" id="linearGradient-29">
            <stop stop-color="#CCE7DF" offset="0%"></stop>
            <stop stop-color="#BDE6EA" offset="100%"></stop>
        </linearGradient>
        <polygon id="path-30" points="0.127540476 5.80728095 2.99208095 16.5541952 27.8717833 0.304421429"></polygon>
        <linearGradient x1="50%" y1="0%" x2="50%" y2="100%" id="linearGradient-32">
            <stop stop-color="#D4EDE6" offset="0%"></stop>
            <stop stop-color="#C4E8E7" offset="100%"></stop>
        </linearGradient>
        <polygon id="path-33" points="21.310431 1.35360476 0.139642857 10.4545952 39.3960429 2.21752857 31.7622333 0.314661905"></polygon>
        <linearGradient x1="-0.000738237526%" y1="49.9963267%" x2="99.9985453%" y2="49.9963267%" id="linearGradient-35">
            <stop stop-color="#C7E5E2" offset="0%"></stop>
            <stop stop-color="#B5E4EB" offset="100%"></stop>
        </linearGradient>
        <polygon id="path-36" points="0.390069048 7.6226381 35.130419 10.010531 46.6425762 5.54940714 41.7075976 0.665630952"></polygon>
        <linearGradient x1="22.4331323%" y1="50%" x2="93.7288975%" y2="50%" id="linearGradient-38">
            <stop stop-color="#C6E8E9" offset="0%"></stop>
            <stop stop-color="#B0E2EF" offset="100%"></stop>
        </linearGradient>
        <path d="M0.619083333,1.87307619 C0.619083333,2.4027881 1.04918333,2.83195714 1.57889524,2.83195714 L1.57889524,2.83195714 C2.10767619,2.83195714 2.53684524,2.4027881 2.53684524,1.87307619 L2.53684524,1.87307619 C2.53684524,1.34429524 2.10767619,0.91512619 1.57889524,0.91512619 L1.57889524,0.91512619 C1.04918333,0.91512619 0.619083333,1.34429524 0.619083333,1.87307619" id="path-39"></path>
        <linearGradient x1="0.0337475728%" y1="50.0020738%" x2="100.028893%" y2="50.0020738%" id="linearGradient-41">
            <stop stop-color="#DBDCDD" offset="0%"></stop>
            <stop stop-color="#BEC0C2" offset="100%"></stop>
        </linearGradient>
    </defs>
    <g id="Page-2-Illustrations" stroke="none" stroke-width="1" fill="none" fill-rule="evenodd">
        <g id="PECOS-2.0-Illustrations-v31" transform="translate(-536.000000, -829.000000)">
            <g id="Application-Setup-Wizard-8551-Non-Physician" transform="translate(25.000000, 766.000000)">
                <g id="Step-5-Illustration" transform="translate(511.000000, 46.000000)">
                    <g id="illus-app-setup-step-5-1045137949" transform="translate(0.000000, 17.311869)">
                        <g id="cloud" transform="translate(296.042857, 99.611905)">
                            <mask id="mask-2" fill="white">
                                <use xlink:href="#path-1"></use>
                            </mask>
                            <g id="Clip-3"></g>
                            <path d="M22.1073262,12.1368262 C22.1073262,12.1368262 4.01147381,2.1290881 0.476647619,17.496319 L0.476647619,17.496319 C-2.33855238,29.7281024 26.508869,31.3014119 38.3962,31.4345381 L38.3962,31.4345381 C41.6917714,31.4708452 44.9715167,31.1580452 48.2009905,30.5035857 L48.2009905,30.5035857 C58.2524833,28.463869 80.2564738,23.1108929 77.1712976,15.8317762 L77.1712976,15.8317762 C73.1886833,6.44125952 61.2287381,12.9886476 61.2287381,12.9886476 L61.2287381,12.9886476 C61.2287381,12.9886476 62.7294333,5.89851429 42.3778833,1.21582381 L42.3778833,1.21582381 C39.7237381,0.605119048 37.4149762,0.339797619 35.4097048,0.338866667 L35.4097048,0.338866667 C22.0440214,0.337935714 22.1073262,12.1368262 22.1073262,12.1368262" id="Fill-2" fill="url(#linearGradient-3)" mask="url(#mask-2)"></path>
                        </g>
                        <g id="upper-left-cloud-7" transform="translate(0.000000, 73.545238)">
                            <mask id="mask-5" fill="white">
                                <use xlink:href="#path-4"></use>
                            </mask>
                            <g id="Clip-6"></g>
                            <path d="M43.6328071,0.84065 C32.6056762,2.61597619 28.1454833,8.97717381 26.3468833,13.5714238 L26.3468833,13.5714238 C25.6207405,15.4286738 23.2747405,16.1045452 21.7023619,14.87755 L21.7023619,14.87755 C18.9709476,12.7428762 14.7658357,11.025269 9.66142381,14.0713452 L9.66142381,14.0713452 C0.461752381,19.5630333 0.461752381,24.5157 0.461752381,24.5157 L0.461752381,24.5157 C0.461752381,24.5157 80.4463881,32.4418286 106.540983,25.3693833 L106.540983,25.3693833 C111.511338,24.0232262 114.526693,18.5725 112.532593,13.8246429 L112.532593,13.8246429 C111.4741,11.3073476 109.089931,9.16150238 103.80026,7.67477143 L103.80026,7.67477143 C97.6485262,5.94785476 92.2908952,9.03582381 88.8826786,11.9227071 L88.8826786,11.9227071 C87.4434262,13.1431857 85.3059595,12.4161119 84.7399405,10.61565 L84.7399405,10.61565 C84.0128667,8.30875 82.2636071,5.81379762 78.3042667,4.37268333 L78.3042667,4.37268333 C72.4364738,2.23800952 64.1193452,7.17391905 59.2271905,10.7012976 L59.2271905,10.7012976 C57.908031,11.6518 56.1317738,10.6314762 56.2332476,9.0106881 L56.2332476,9.0106881 C56.4734333,5.18354286 55.210131,0.494335714 47.5828381,0.493404762 L47.5828381,0.493404762 C46.4200786,0.493404762 45.1092976,0.603257143 43.6328071,0.84065" id="Fill-5" fill="url(#linearGradient-6)" mask="url(#mask-5)"></path>
                        </g>
                        <g id="clipboard-branches-and-leaves" transform="translate(2.792857, 55.857143)">
                            <path d="M108.404098,105.399356 C108.404098,105.399356 98.2539245,44.3391207 53.9945864,34.4542683 C10.7015769,99.3733017 74.6626602,141.778183 74.6626602,141.778183 L108.404098,105.399356 Z" id="Fill-8" fill="#1B2B57"></path>
                            <path d="M53.9943071,34.4546407 C53.8434929,34.6808621 53.6991952,34.9052217 53.5511738,35.1305121 L83.1051881,101.807184 L39.6455381,88.3819193 C39.7200143,88.8837026 39.8000762,89.3817621 39.8857238,89.8770288 L83.8350548,103.454038 L92.3625786,122.694962 L93.3680071,121.611334 L76.3678857,83.2560955 L90.4774,60.9830598 C90.2009071,60.5780955 89.9216214,60.1731312 89.63675,59.7709598 L75.7050476,81.7619169 L54.8265786,34.6575883 C54.5491548,34.5905598 54.2754548,34.5170145 53.9943071,34.4546407 Z" id="Fill-10" fill="#006669"></path>
                            <path d="M87.9004307,100.752321 C87.9004307,100.752321 41.9458283,59.5427833 1.05746881,74.1959738 C-7.57432167,125.711155 48.4168783,144.070467 48.4168783,144.070467 L102.235235,139.898869 L87.9004307,100.752321 Z" id="Fill-12" fill="#57C4C4"></path>
                            <path d="M49.1427419,77.1598469 L49.2507324,104.531709 L2.03189667,73.8679993 C1.70699429,73.9778517 1.3820919,74.0793255 1.05812048,74.1956945 C1.02367524,74.3986421 0.999470476,74.596935 0.967818095,74.7980207 L26.2571395,91.2209517 L1.77029905,98.076485 C1.82894905,98.310154 1.89411571,98.5400993 1.95555857,98.7728374 L2.12871571,99.386335 L27.7755229,92.2068302 L69.9206681,119.575899 L27.3277348,132.97789 C27.7997276,133.311171 28.2707895,133.639797 28.7390586,133.958183 L71.3980895,120.535711 L101.325416,139.969342 L102.234956,139.89859 L101.774135,138.639942 L50.6136467,105.417045 L50.5047252,77.704454 C50.0532133,77.5201255 49.5989086,77.3385898 49.1427419,77.1598469" id="Fill-14" fill="#006669"></path>
                            <path d="M86.4790526,130.253178 C86.4790526,130.253178 35.289705,124.417969 19.1944693,155.048164 C55.053824,215.930588 135.027288,174.614921 135.027288,174.614921 L86.4790526,130.253178 Z" id="Fill-16" fill="#FFCF51"></path>
                            <path d="M19.1945624,155.049374 C19.3323433,155.283974 19.4738481,155.512989 19.613491,155.744796 L89.3418243,158.288158 L64.5682505,187.075067 C65.0905148,187.168162 65.61371,187.254741 66.1378362,187.335734 L91.0799124,158.350531 L118.314924,159.343858 L116.763958,157.926948 L63.7397029,155.99336 L43.9681362,134.946389 C43.5082457,135.114891 43.0492862,135.288048 42.5921886,135.466791 L61.8079767,155.921677 L19.5632195,154.381881 C19.4403338,154.603448 19.3137243,154.822222 19.1945624,155.047512 L19.1945624,155.049374 Z" id="Fill-18" fill="#FEFEFE"></path>
                            <path d="M280.266659,159.385937 C280.266659,159.385937 287.515985,97.913289 331.257714,85.9458962 C377.574456,148.742358 315.69219,194.127218 315.69219,194.127218 L280.266659,159.385937 Z" id="Fill-20" fill="#FFCF51"></path>
                            <path d="M331.258086,85.94571 C331.419141,86.1644838 331.57461,86.3813957 331.732872,86.6001695 L305.367369,154.600655 L348.142769,139.132881 C348.092498,139.638389 348.03571,140.139241 347.974267,140.639162 L304.715703,156.280093 L297.10796,175.902708 L296.053191,174.867489 L311.219336,135.751662 L311.219336,135.751662 L296.070879,114.170324 C296.328753,113.753258 296.588488,113.33526 296.85381,112.920986 L311.80956,134.227693 L330.436055,86.1877576 C330.710686,86.1076957 330.979731,86.0220481 331.258086,85.94571" id="Fill-22" fill="#FEFEFE"></path>
                            <path d="M300.527627,153.773876 C300.527627,153.773876 344.480682,110.436181 386.016053,123.137165 C397.075768,174.186869 342.01552,195.175191 342.01552,195.175191 L288.061244,193.554403 L300.527627,153.773876 Z" id="Fill-24" fill="#006669"></path>
                            <path d="M338.124791,128.373585 L339.312686,155.719381 L385.028034,122.855831 C385.35666,122.949857 385.687148,123.037366 386.015774,123.136978 C386.059529,123.338064 386.092112,123.534495 386.134005,123.73465 L361.650888,141.336166 L386.434703,147.024285 C386.387224,147.261678 386.332298,147.494416 386.282026,147.729016 L386.13866,148.349962 L360.179984,142.392797 L319.377272,171.725245 L362.557636,183.095897 C362.101469,183.452452 361.647165,183.80249 361.194722,184.142288 L317.947329,172.753947 L288.973298,193.582145 L288.061895,193.555147 L288.462205,192.275088 L337.993526,156.668952 L336.790736,128.982428 C337.232938,128.776688 337.678865,128.574671 338.124791,128.373585" id="Fill-26" fill="#57C4C4"></path>
                            <path d="M303.3432,183.174284 C303.3432,183.174284 354.199266,174.924184 371.726307,204.758415 C338.78735,267.268143 256.949188,229.783345 256.949188,229.783345 L303.3432,183.174284 Z" id="Fill-28" fill="#57C4C4"></path>
                            <path d="M371.7264,204.758973 C371.598859,205.00009 371.469457,205.23469 371.340985,205.473014 L301.810014,211.312878 L327.918574,238.896066 C327.401895,239.013366 326.882424,239.124149 326.362952,239.230278 L300.076581,211.458106 L272.919769,213.73894 L274.401845,212.250347 L327.276216,207.808773 L346.02839,185.850399 C346.495728,185.99749 346.962135,186.149235 347.427612,186.305635 L329.201426,207.647718 L371.32609,204.109168 C371.459216,204.325149 371.596066,204.537406 371.7264,204.757111 L371.7264,204.758973 Z" id="Fill-30" fill="#FEFEFE"></path>
                            <path d="M72.011494,13.7773505 L71.5441374,304.986703 C71.5320536,312.273267 77.4361536,318.186677 84.7227179,318.186677 L307.941825,318.186677 C315.186496,318.186677 321.072908,312.338434 321.120387,305.093762 L323.030053,13.4086933 C323.077249,6.0858219 317.14522,0.127726667 309.822349,0.143521401 L85.1630583,0.619269524 C77.9034917,0.634164762 72.0235964,6.51778381 72.011494,13.7773505" id="Fill-clipboard" fill="#006669"></path>
                        </g>
                        <g id="paper-bgd" transform="translate(83.785714, 67.959524)">
                            <mask id="mask-8" fill="white">
                                <use xlink:href="#path-7"></use>
                            </mask>
                            <g id="Clip-36"></g>
                            <polygon id="Fill-35" fill="url(#linearGradient-9)" mask="url(#mask-8)" points="0.604188095 0.64515 0.13312619 293.942629 230.596905 293.942629 232.520252 0.154538095"></polygon>
                        </g>
                        <g id="Group-128" transform="translate(83.785714, 67.959524)">
                            <polygon id="Fill-38" fill="#108B8B" points="0.604560476 0.64533619 0.133498571 18.4572481 232.677956 18.4572481 232.519694 0.153793333"></polygon>
                            <polygon id="Fill-40" fill="#FEFEFE" points="22.9969443 32.6863898 22.5696371 38.8818779 104.902135 38.8818779 106.582504 33.4097398"></polygon>
                            <polygon id="Fill-42" fill="#FED774" points="110.88611 260.647024 110.458803 266.842512 192.791301 266.842512 194.47167 261.370374"></polygon>
                            <polygon id="Fill-44" fill="#FEFEFE" points="22.8201564 47.67072 22.8843921 52.3953033 148.238992 52.3953033 149.519983 48.2227748"></polygon>
                            <polygon id="Fill-46" fill="#57C4C4" points="108.973748 161.449672 109.267929 193.14767 199.27706 193.14767 198.584431 161.449672"></polygon>
                            <polygon id="Fill-48" fill="#006669" points="109.483258 204.205336 199.89363 204.205336 199.041808 209.365605 109.18163 209.365605"></polygon>
                            <polygon id="Fill-50" fill="#FEFEFE" points="110.353326 214.526712 200.763698 214.526712 199.911876 219.686981 110.050767 219.686981"></polygon>
                            <polygon id="Fill-52" fill="#006669" points="22.5347264 60.7177383 112.945098 60.7177383 112.093276 65.8780074 22.2330979 65.8780074"></polygon>
                            <polygon id="Fill-54" fill="#57C4C4" points="23.404236 73.6192488 113.815538 73.6192488 112.962786 78.7795179 23.1026074 78.7795179"></polygon>
                            <polygon id="Fill-56" fill="#57C4C4" points="23.404236 85.9111717 113.815538 85.9111717 112.962786 91.0714407 23.1026074 91.0714407"></polygon>
                            <polygon id="Fill-58" fill="#006669" points="109.477859 224.848088 199.88823 224.848088 199.036409 230.008357 109.17623 230.008357"></polygon>
                            <polygon id="Fill-60" fill="#108B8B" points="86.8040481 157.361301 86.669991 208.460347 30.931079 208.460347 32.9698648 157.361301"></polygon>
                            <polygon id="Fill-62" fill="#FEFEFE" points="39.4413802 198.405037 41.9968445 198.405037 42.0238421 197.17618 40.4896326 197.177111 40.5324564 195.337549 39.5130636 195.340342"></polygon>
                            <path d="M68.0367929,197.149555 L71.8434571,197.1449 L71.8332167,198.405409 L68.0237595,198.405409 L68.0367929,197.149555 Z M60.4923548,197.157002 L64.2534024,197.153278 L64.2375762,198.405409 L60.4746667,198.405409 L60.4923548,197.157002 Z M53.0372881,197.16445 L56.75365,197.160726 L56.7341,198.405409 L53.0168071,198.405409 L53.0372881,197.16445 Z M45.6734548,197.171897 L49.3442,197.168174 L49.3209262,198.405409 L45.6473881,198.405409 L45.6734548,197.171897 Z" id="Fill-64" fill="#FEFEFE"></path>
                            <polygon id="Fill-66" fill="#FEFEFE" points="75.6657614 198.405037 78.3757638 198.405037 78.3934519 195.242592 77.3098233 195.244454 77.297721 197.139873 75.67414 197.141735"></polygon>
                            <path d="M77.4354088,174.656628 L78.5087969,174.637078 L78.4799374,179.75173 L77.4037564,179.766625 L77.4354088,174.656628 Z M77.373035,184.90269 L78.4510779,184.890587 L78.4222183,190.05458 L77.3413826,190.062028 L77.373035,184.90269 Z" id="Fill-68" fill="#FEFEFE"></path>
                            <polygon id="Fill-70" fill="#FEFEFE" points="77.4663164 169.57009 78.5378426 169.545885 78.5545998 166.465364 75.8836974 166.533324 75.8762498 167.762181 77.4774879 167.723081"></polygon>
                            <path d="M68.3508962,166.725379 L72.1063581,166.629491 L72.0951867,167.854624 L68.3387938,167.946789 L68.3508962,166.725379 Z M60.9079319,166.914362 L64.6187081,166.820336 L64.6038129,168.037091 L60.8911748,168.128324 L60.9079319,166.914362 Z M53.5534081,167.101484 L57.2194986,167.00932 L57.2008795,168.218627 L53.5329271,168.307998 L53.5534081,167.101484 Z M46.2854629,167.287674 L49.9087295,167.194579 L49.8863867,168.3983 L46.2612581,168.486741 L46.2854629,167.287674 Z" id="Fill-72" fill="#FEFEFE"></path>
                            <polygon id="Fill-74" fill="#FEFEFE" points="40.094164 170.429173 41.1023855 170.40683 41.1433474 168.611954 42.657076 168.574716 42.6840736 167.379373 40.1639855 167.442678"></polygon>
                            <path d="M39.9790983,175.365734 L40.9891817,175.346184 L40.8756055,180.310953 L39.8627293,180.324918 L39.9790983,175.365734 Z M39.7463602,185.308306 L40.7620293,185.297134 L40.6475221,190.305658 L39.6299912,190.313106 L39.7463602,185.308306 Z" id="Fill-76" fill="#FEFEFE"></path>
                            <polygon id="Fill-78" fill="#108B8B" points="86.8040481 97.7598681 86.669991 148.858913 30.931079 148.858913 32.9698648 97.7598681"></polygon>
                            <polygon id="Fill-80" fill="#FEFEFE" points="39.4413802 138.803604 41.9968445 138.803604 42.0238421 137.574746 40.4896326 137.575677 40.5324564 135.737046 39.5130636 135.738908"></polygon>
                            <path d="M68.0367929,137.548121 L71.8434571,137.544397 L71.8332167,138.803976 L68.0237595,138.803976 L68.0367929,137.548121 Z M60.4923548,137.555569 L64.2534024,137.551845 L64.2375762,138.803976 L60.4746667,138.803976 L60.4923548,137.555569 Z M53.0372881,137.563016 L56.75365,137.559293 L56.7341,138.803976 L53.0168071,138.803976 L53.0372881,137.563016 Z M45.6734548,137.570464 L49.3442,137.567671 L49.3209262,138.803976 L45.6473881,138.803976 L45.6734548,137.570464 Z" id="Fill-82" fill="#FEFEFE"></path>
                            <polygon id="Fill-84" fill="#FEFEFE" points="75.6657614 138.803604 78.3757638 138.803604 78.3934519 135.642089 77.3098233 135.643951 77.297721 137.53937 75.67414 137.540301"></polygon>
                            <path d="M77.4354088,115.05566 L78.5087969,115.035179 L78.4799374,120.150762 L77.4037564,120.166589 L77.4354088,115.05566 Z M77.373035,125.300791 L78.4510779,125.28962 L78.4222183,130.453612 L77.3413826,130.460129 L77.373035,125.300791 Z" id="Fill-86" fill="#FEFEFE"></path>
                            <polygon id="Fill-88" fill="#FEFEFE" points="77.4663164 109.968657 78.5378426 109.944452 78.5545998 106.864862 75.8836974 106.932821 75.8762498 108.160747 77.4774879 108.121647"></polygon>
                            <path d="M68.3508962,107.124411 L72.1063581,107.028523 L72.0951867,108.252725 L68.3387938,108.345821 L68.3508962,107.124411 Z M60.9079319,107.313395 L64.6187081,107.219368 L64.6038129,108.437054 L60.8911748,108.527356 L60.9079319,107.313395 Z M53.5534081,107.500516 L57.2194986,107.407421 L57.2008795,108.617659 L53.5329271,108.707961 L53.5534081,107.500516 Z M46.2854629,107.685775 L49.9087295,107.593611 L49.8863867,108.796402 L46.2612581,108.885773 L46.2854629,107.685775 Z" id="Fill-90" fill="#FEFEFE"></path>
                            <polygon id="Fill-92" fill="#FEFEFE" points="40.094164 110.828205 41.1023855 110.804931 41.1433474 109.010986 42.657076 108.973748 42.6840736 107.777474 40.1639855 107.84171"></polygon>
                            <path d="M39.9790983,115.765232 L40.9891817,115.745682 L40.8756055,120.70952 L39.8627293,120.724415 L39.9790983,115.765232 Z M39.7463602,125.706872 L40.7620293,125.695701 L40.6475221,130.704225 L39.6299912,130.711672 L39.7463602,125.706872 Z" id="Fill-94" fill="#FEFEFE"></path>
                            <path d="M80.8796533,90.521341 C79.0466081,88.8465576 77.1623605,87.29466 75.3004557,85.9112648 C72.47967,101.49727 63.5620771,119.939436 60.0123557,119.117405 C56.916939,118.400572 52.2100438,113.762567 47.8885629,104.54707 C45.8544319,106.153893 43.8566081,107.915255 42.0421819,109.563041 C41.4361319,122.291953 55.6703938,134.09736 60.1855129,135.14375 C64.9007867,136.234827 84.5308486,107.1286 80.8796533,90.521341" id="Fill-96" fill="#FFCF51"></path>
                            <path d="M80.8796533,148.686315 C79.0466081,147.011531 77.1623605,145.459634 75.3004557,144.07717 C72.47967,159.662243 63.5620771,178.105341 60.0123557,177.28331 C56.916939,176.565546 52.2100438,171.928472 47.8885629,162.712043 C45.8544319,164.318867 43.8566081,166.08116 42.0421819,167.728015 C41.4361319,180.457858 55.6703938,192.263265 60.1855129,193.308724 C64.9007867,194.3998 84.5308486,165.294505 80.8796533,148.686315" id="Fill-98" fill="#FFCF51"></path>
                            <polygon id="Fill-100" fill="#108B8B" points="32.4138069 217.767729 30.9317307 268.867705 86.6706426 268.867705 86.2479902 217.767729"></polygon>
                            <polygon id="Fill-102" fill="#FEFEFE" points="78.478634 258.811465 75.9231698 258.811465 75.9352721 257.582608 77.4685507 257.58447 77.4853079 255.744908 78.5037698 255.7477"></polygon>
                            <path d="M49.896441,258.811465 L46.0869838,258.811465 L46.1158433,257.551886 L49.9225076,257.55561 L49.896441,258.811465 Z M57.4455338,258.811465 L53.6816933,258.811465 L53.706829,257.559334 L57.4678767,257.563989 L57.4455338,258.811465 Z M64.9033933,258.811465 L61.1861005,258.811465 L61.2056505,257.567712 L64.9220124,257.571436 L64.9033933,258.811465 Z M72.2728124,258.811465 L68.5992743,258.811465 L68.6151005,257.57516 L72.2858457,257.578884 L72.2728124,258.811465 Z" id="Fill-104" fill="#FEFEFE"></path>
                            <polygon id="Fill-106" fill="#FEFEFE" points="42.2542529 258.811465 39.5442505 258.811465 39.6271052 255.64995 40.7098029 255.651812 40.6623243 257.547231 42.2859052 257.549093"></polygon>
                            <path d="M41.1050852,240.174264 L40.0298352,240.157506 L40.1620305,235.042854 L41.2354186,235.063335 L41.1050852,240.174264 Z M40.8425567,250.468735 L39.761721,250.461287 L39.8957781,245.298225 L40.973821,245.309397 L40.8425567,250.468735 Z" id="Fill-108" fill="#FEFEFE"></path>
                            <polygon id="Fill-110" fill="#FEFEFE" points="41.3651002 229.976518 40.294505 229.952313 40.3754979 226.872723 43.0436074 226.939751 43.012886 228.16954 41.4125788 228.129509"></polygon>
                            <path d="M50.5446631,228.352751 L46.7901321,228.260587 L46.8189917,227.036384 L50.5707298,227.131341 L50.5446631,228.352751 Z M57.9857655,228.535218 L54.2759202,228.444915 L54.300125,227.22723 L58.0071774,227.322187 L57.9857655,228.535218 Z M65.3384274,228.715822 L61.6732679,228.62552 L61.6928179,227.415282 L65.3561155,227.509308 L65.3384274,228.715822 Z M72.6045107,228.893634 L68.982175,228.804263 L68.9980012,227.601472 L72.617544,227.693637 L72.6045107,228.893634 Z" id="Fill-112" fill="#FEFEFE"></path>
                            <polygon id="Fill-114" fill="#FEFEFE" points="78.7104412 230.836532 77.7022198 230.813258 77.7189769 229.018382 76.2052483 228.982075 76.2164198 227.785801 78.734646 227.850037"></polygon>
                            <path d="M78.6282381,240.732463 L77.6162929,240.716636 L77.6591167,235.753729 L78.6692,235.773279 L78.6282381,240.732463 Z M78.5453833,250.71972 L77.5287833,250.713203 L77.5725381,245.703748 L78.5872762,245.71492 L78.5453833,250.71972 Z" id="Fill-116" fill="#FEFEFE"></path>
                            <polygon id="Fill-118" fill="#FEFEFE" points="110.542403 246.224523 110.910129 255.070433 203.593886 255.070433 203.761458 246.224523"></polygon>
                            <polygon id="Fill-120" fill="#57C4C4" points="160.702955 32.6863898 156.937253 93.9095421 220.615326 93.8806826 220.522231 32.6863898"></polygon>
                            <path d="M211.818013,94.4456776 C211.869215,93.7800467 211.917625,93.1134848 211.92321,92.4366824 C212.031201,77.1448586 201.234015,65.3422443 188.069417,65.6531824 C175.183175,65.9585348 164.296617,77.8104895 163.485758,92.5148824 C163.450382,93.1656181 163.456898,93.8061133 163.464346,94.4456776 L211.818013,94.4456776 Z" id="Fill-122" fill="#006669"></path>
                            <path d="M202.146628,50.276735 C202.281616,42.574035 196.345863,36.7034493 188.97272,37.0506945 C181.687087,37.3951469 175.571661,43.6995564 175.230001,51.2430636 C174.882756,58.9057326 180.602528,65.0602588 188.093901,64.8787231 C195.67837,64.6943945 202.009778,58.1041826 202.146628,50.276735" id="Fill-124" fill="#006669"></path>
                            <path d="M164.159488,112.412872 L144.388852,113.229318 C141.005771,113.36896 138.445652,110.805118 138.724007,107.525372 L140.675283,84.5485367 C140.959224,81.2157271 143.998783,78.4843129 147.405138,78.4843129 L167.307038,78.4843129 C170.528133,78.4843129 172.895545,81.1123914 172.592986,84.3195224 L170.501136,106.436158 C170.203231,109.593949 167.360102,112.280677 164.159488,112.412872" id="Fill-126" fill="#FEFEFE"></path>
                        </g>
                        <g id="little-plant" transform="translate(224.359524, 148.021429)">
                            <mask id="mask-11" fill="white">
                                <use xlink:href="#path-10"></use>
                            </mask>
                            <g id="Clip-130"></g>
                            <path d="M6.46546429,0.596740476 C3.79921667,0.74662381 2.58897857,2.48005714 1.9959619,4.8269881 L1.9959619,4.8269881 C0.561364286,10.4927643 -0.842511905,22.0933619 2.73327619,27.1493643 L2.73327619,27.1493643 C6.51759762,32.5023405 17.4162571,31.1329095 23.7448714,30.381631 L23.7448714,30.381631 C26.2128262,30.088381 27.8745762,28.5476548 28.3223643,26.2128262 L28.3223643,26.2128262 C29.6452476,19.3219167 31.5825595,5.50099762 26.09925,2.68765952 L26.09925,2.68765952 C22.6072476,0.89557619 16.8018286,0.441271429 11.7923738,0.441271429 L11.7923738,0.441271429 C9.83271905,0.441271429 7.99595,0.511092857 6.46546429,0.596740476" id="Fill-129" mask="url(#mask-11)"></path>
                        </g>
                        <g id="Group-208" transform="translate(0.521251, 27.714639)">
                            <path d="M251.008584,141.592178 C250.784224,141.487912 250.559865,141.394816 250.335505,141.294274 C250.112077,141.233762 249.752729,141.127633 249.218362,140.961924 C242.815272,139.856883 236.418698,138.745326 230.029572,137.790169 C228.108086,137.501574 226.212667,137.168293 224.327488,136.781947 C224.276286,140.934926 224.836719,145.002257 226.571084,147.456247 C230.355405,152.809224 241.254065,151.439793 247.582679,150.688514 C250.051565,150.396195 251.713315,148.854538 252.161103,146.518778 C252.388255,145.335538 252.635888,143.927007 252.861179,142.403038 C252.243027,142.137716 251.626736,141.866809 251.008584,141.592178" id="Fill-132" fill="#57C4C4"></path>
                            <path d="M236.61066,149.175716 C237.904684,148.949495 243.730584,147.718776 244.983646,143.70544 C245.621348,141.664793 244.363632,138.432526 242.707467,137.682178 C237.647741,135.389243 235.662951,147.971064 235.662951,147.971064 L236.279241,149.094724 C236.389094,149.119859 236.499877,149.147788 236.61066,149.175716" id="Fill-134" fill="#1B2B57"></path>
                            <path d="M236.117907,149.055251 C237.31325,146.548196 241.190667,139.054961 244.601676,139.94402 L244.445276,139.605154 C240.781979,138.641618 236.841257,146.70832 235.801383,148.990085 C235.906581,149.012427 236.01271,149.031977 236.117907,149.055251" id="Fill-136" fill="#006669"></path>
                            <path d="M230.510409,137.477927 C232.762382,143.235868 233.611411,146.823758 233.929797,148.688456 C234.800237,148.785275 235.689297,148.947261 236.588597,149.170689 C237.71598,145.185282 239.873928,135.941856 237.208611,130.786242 C235.681849,127.829537 234.048959,126.674225 232.692561,126.27857 C230.203194,125.550565 228.358978,128.134889 228.948271,131.990894 C229.171699,133.452489 229.643692,135.262261 230.510409,137.477927" id="Fill-138" fill="#006669"></path>
                            <path d="M230.974023,148.613421 C231.975728,148.545462 233.02398,148.579907 234.09923,148.709309 C233.95214,145.444459 233.050047,138.115071 227.858125,135.375278 C226.476592,134.646343 225.221668,135.94409 225.410652,138.043388 C225.886368,143.307924 229.271311,147.046628 230.974023,148.613421" id="Fill-140" fill="#108B8B"></path>
                            <path d="M234.970602,148.834336 C235.058111,148.849231 235.14469,148.862265 235.232199,148.87716 C235.684642,144.559403 236.294416,133.664467 231.963625,126.156336 L231.72344,126.158198 C236.025371,133.620712 235.402563,144.626431 234.970602,148.834336" id="Fill-142" fill="#FEFEFE"></path>
                            <path d="M232.716859,148.595733 C232.810885,148.599457 232.902118,148.601319 232.996145,148.606905 C231.936721,145.459355 229.083352,137.730588 225.893909,135.833307 L225.724476,136.108869 C228.737037,137.895366 231.602509,145.395119 232.716859,148.595733" id="Fill-144" fill="#006669"></path>
                            <path d="M242.956379,126.269261 C242.949887,127.609832 244.218776,129.216656 245.794878,129.844118 C247.374704,130.475304 248.638937,129.873908 248.612871,128.514718 C248.587735,127.169492 247.309537,125.593389 245.760433,124.981754 C244.215983,124.371049 242.96199,124.942654 242.956379,126.269261" id="Fill-146" fill="#F9A524"></path>
                            <path d="M282.592819,175.425129 L191.350176,175.425129 C189.385867,175.425129 188.272447,173.818305 188.875705,171.853996 C189.478031,169.889686 191.578259,168.282862 193.5435,168.282862 L284.785212,168.282862 C286.750452,168.282862 287.863871,169.889686 287.261545,171.853996 C286.657357,173.818305 284.557128,175.425129 282.592819,175.425129" id="Fill-148" fill="#FEFEFE"></path>
                            <path d="M245.962915,168.282583 L193.542848,168.282583 C191.57947,168.282583 189.47831,169.890338 188.875053,171.853716 C188.271796,173.818026 189.386146,175.42485 191.350455,175.42485 L238.937017,175.42485 L245.962915,168.282583 Z" id="Fill-150" fill="#F58A26"></path>
                            <path d="M284.307447,189.0512 L193.064804,189.0512 C191.100495,189.0512 189.987076,187.443445 190.590333,185.480066 C191.192659,183.515757 193.292887,181.908002 195.258128,181.908002 L286.49984,181.908002 C288.46508,181.908002 289.578499,183.515757 288.976173,185.480066 C288.371985,187.443445 286.271757,189.0512 284.307447,189.0512" id="Fill-152" fill="#FEFEFE"></path>
                            <path d="M261.140883,181.908188 L195.257383,181.908188 C193.294005,181.908188 191.192845,183.515943 190.589588,185.480253 C189.987262,187.443631 191.100681,189.051386 193.06499,189.051386 L254.460369,189.051386 L261.140883,181.908188 Z" id="Fill-154" fill="#F58A26"></path>
                            <polygon id="Fill-156" fill="#003F5F" points="150.736727 13.312619 147.517493 52.8808881 240.476812 52.8808881 240.34741 13.312619"></polygon>
                            <polygon id="Fill-158" fill="#F58A26" points="148.867467 36.2859171 147.517587 52.8810743 240.475975 52.8810743 240.42291 36.2859171"></polygon>
                            <path d="M186.476547,10.966619 L186.476547,10.966619 C186.617121,8.57127857 188.60005,6.70099524 190.999114,6.70099524 L196.994447,6.70099524 C199.492192,6.70099524 201.518876,8.72302381 201.524477,11.220769 C201.530978,13.7278238 199.500571,15.7619548 196.994447,15.7619548 L190.999114,15.7619548 C188.393378,15.7619548 186.323871,13.568631 186.476547,10.966619 M206.076819,0 L182.522792,0 C180.123728,0 178.1408,1.87028333 178.000226,4.26562381 L177.36904,15.0246405 C177.216364,17.6266524 179.285871,19.8209071 181.892538,19.8209071 L206.101023,19.8209071 C208.607147,19.8209071 210.637554,17.7858452 210.63198,15.2797214 L210.606833,4.52070476 C210.601247,2.02295952 208.573633,0 206.076819,0" id="Fill-160" fill="#003F5F"></path>
                            <path d="M164.144117,253.315122 C162.311072,251.640339 160.426824,250.088441 158.564919,248.705046 C155.744133,264.29012 146.826541,282.733217 143.276819,281.911186 C140.181402,281.194353 135.474507,276.557279 131.153026,267.34085 C129.118895,268.946743 127.121072,270.709036 125.306645,272.356822 C124.700595,285.085734 138.934857,296.891141 143.449976,297.937531 C148.16525,299.028608 167.795312,269.922381 164.144117,253.315122" id="Fill-162" fill="#FFCF51"></path>
                            <path d="M54.2017127,212.65047 C53.5993865,213.980801 53.5081532,215.486151 53.9466318,216.879787 L54.7183913,222.367751 L55.6605151,223.000799 L59.1692746,224.450292 C58.7922389,223.371318 59.1692746,222.252313 59.1692746,222.252313 L60.7100008,216.576296 C60.7100008,216.576296 63.1062722,206.998658 56.6035698,207.407346 C56.6361532,199.605035 54.4623794,200.893473 54.4623794,200.893473 L54.313427,207.638223 L54.2017127,212.65047 Z" id="Fill-164" fill="#9E7059"></path>
                            <path d="M38.0210156,231.621418 C38.0210156,231.621418 42.567787,248.973439 46.4442727,249.283446 C50.3216894,249.593454 54.3545751,221.795215 54.3545751,221.795215 L59.6274894,222.432918 C59.6274894,222.432918 61.6755846,262.406151 49.8487656,263.134156 C38.0210156,263.862161 36.4598084,255.021837 36.4598084,255.021837 L38.0210156,231.621418 Z" id="Fill-166" fill="#52B7B8"></path>
                            <path d="M37.526866,279.060889 L6.5857327,279.060889 L6.5857327,232.067344 C15.4260565,218.577844 26.442947,222.253244 26.442947,222.253244 C26.442947,222.253244 36.4599946,222.432918 38.0212018,231.621418 C38.0212018,238.272142 37.526866,279.060889 37.526866,279.060889" id="Fill-168" fill="#57C4C4"></path>
                            <path d="M22.826197,216.01065 L22.3681684,222.654857 L22.5860113,222.861528 C24.7663018,224.936621 28.1754494,224.9841 30.4125279,222.971381 L30.5167946,217.972166 L22.826197,216.01065 Z" id="Fill-170" fill="#825A46"></path>
                            <path d="M20.396132,202.130057 L20.9556344,213.112502 C22.0485725,213.067816 22.6899987,214.240816 22.4805344,215.267657 C22.5950415,215.518083 22.6583463,215.795507 22.6648629,216.076654 C24.5612129,217.434914 28.0066677,219.206516 32.4491725,218.356557 C39.3996629,217.026226 35.2057225,203.590721 35.2057225,203.590721 L20.396132,202.130057 Z" id="Fill-172" fill="#9E7059"></path>
                            <path d="M16.9027332,210.378574 C16.8505998,209.5733 15.753007,207.865934 15.1413713,207.337153 C11.2071665,203.93266 14.7270975,201.450741 15.9755046,200.649191 C17.356107,199.761993 17.0851998,197.2568 18.8735594,195.857579 C21.6031118,193.720112 24.2339832,195.934848 25.9823118,195.611807 C27.7306403,195.287836 28.8161308,192.962317 31.3585618,194.193967 C33.9000618,195.425617 33.620776,197.421579 34.4353594,198.26316 C35.2499427,199.106603 36.7469141,196.779222 39.2260403,199.437091 C42.9973284,203.482079 35.6009118,205.211788 35.6009118,205.211788 C35.6009118,205.211788 31.5531308,206.887503 26.1936379,204.784481 C25.4591165,204.496817 24.5858832,204.65601 24.119476,205.292781 C22.8403475,207.042041 22.8254522,216.203543 22.8254522,216.203543 L21.0370927,214.716812 C21.0370927,214.716812 17.140126,214.067938 16.9027332,210.378574" id="Fill-174" fill="#1B2B57"></path>
                            <path d="M21.0715379,211.277688 C21.4243689,212.13975 22.4093165,212.552162 23.2713784,212.199331 C24.1334403,211.8465 24.5449213,210.862483 24.1930213,210.000421 C23.8401903,209.138359 22.8552427,208.725947 21.9931808,209.078778 C21.1311189,209.431609 20.718707,210.415626 21.0715379,211.277688" id="Fill-176" fill="#9E7059"></path>
                            <path d="M30.514281,367.669589 C30.514281,367.669589 32.2588858,370.082617 40.4782644,372.176329 C42.2880358,372.63715 44.239312,372.951812 44.239312,375.937377 L36.125131,375.937377 L27.8284834,374.502779 L27.8284834,375.937377 L23.3478096,375.937377 C23.3478096,375.937377 22.0994025,368.60892 24.7163096,367.669589 L30.514281,367.669589 Z" id="Fill-178" fill="#1B2B57"></path>
                            <path d="M30.9401918,362.405705 L30.5138156,367.669309 C28.8790632,368.802278 26.732287,368.873962 25.0249203,367.853638 L24.7167751,367.669309 L24.7167751,362.405705 L30.9401918,362.405705 Z" id="Fill-180" fill="#825A46"></path>
                            <path d="M7.46408628,367.669589 C7.46408628,367.669589 9.20776009,370.082617 17.4280696,372.176329 C19.237841,372.63715 21.1891172,372.951812 21.1891172,375.937377 L13.0749363,375.937377 L4.77828866,374.502779 L4.77828866,375.937377 L0.297614848,375.937377 C0.297614848,375.937377 -0.950792295,368.60892 1.66611485,367.669589 L7.46408628,367.669589 Z" id="Fill-182" fill="#1B2B57"></path>
                            <path d="M7.89009009,362.405705 L7.4637139,367.669309 C5.82896151,368.802278 3.68125437,368.873962 1.97481866,367.853638 L1.66667342,367.669309 L1.66667342,362.405705 L7.89009009,362.405705 Z" id="Fill-184" fill="#825A46"></path>
                            <path d="M17.8887048,256.378886 C13.2358048,246.671846 19.7506096,238.271862 19.7506096,238.271862 L6.60556199,232.067996 C6.60556199,232.067996 -2.66858563,253.470591 9.16475009,264.404627 C20.9980858,275.338662 37.0616691,273.477689 37.0616691,273.477689 L37.0616691,267.312922 C37.0616691,267.312922 22.5416048,266.085927 17.8887048,256.378886" id="Fill-186" fill="#57C4C4"></path>
                            <path d="M36.1140527,272.633315 L43.5207098,272.787853 C46.528617,272.621212 48.5292337,268.130298 49.0291551,264.791903 C49.1036313,264.29012 48.6111575,263.892603 48.131717,264.059243 C45.6181456,264.931546 39.1536122,267.220758 37.4816218,268.25877 L36.1140527,272.633315 Z" id="Fill-188" fill="#9E7059"></path>
                            <path d="M37.526866,279.060889 C46.755397,305.117315 32.3312208,362.812158 32.3312208,362.812158 L24.1109113,362.812158 C24.1109113,362.812158 27.9883279,281.000063 17.2870303,279.060889 L37.526866,279.060889 Z" id="Fill-190" fill="#1B2B57"></path>
                            <path d="M16.2368229,249.903181 C16.332711,251.932658 16.8056348,254.118534 17.8892634,256.378886 C22.5412325,266.085927 37.818161,267.371572 37.818161,267.371572 L37.818161,273.597781 C37.818161,273.597781 20.9986444,275.338662 9.1643777,264.404627 C4.87454913,260.440631 3.36640628,255.100689 3.17742294,249.903181 L16.2368229,249.903181 Z" id="Fill-192" fill="#57C4C4"></path>
                            <path d="M55.6222529,213.475108 C55.6222529,213.475108 53.9158172,212.962153 53.6486339,209.848117 C53.3814506,206.734082 51.9105458,207.696686 51.9105458,207.696686 C51.9105458,207.696686 52.6748577,219.975017 54.6335815,220.437701 C56.5904434,220.898522 55.6222529,213.475108 55.6222529,213.475108" id="Fill-194" fill="#825A46"></path>
                            <path d="M28.4278306,279.060889 C30.940471,311.010244 10.5405115,362.812158 10.5405115,362.812158 L0.769235324,362.812158 C0.769235324,362.812158 7.40971866,329.689804 7.54470675,298.600649 C7.57449723,291.874518 7.29893532,285.242413 6.5858258,279.060889 L28.4278306,279.060889 Z" id="Fill-196" fill="#003F5F"></path>
                            <path d="M37.7395887,268.403998 C37.1363315,268.352796 22.9002077,267.041084 18.1858648,257.207434 C13.4631434,247.356096 20.0319434,238.7001 20.098972,238.613522 L20.8353553,239.183265 C20.7711196,239.26612 14.5560815,247.480843 19.0246529,256.805262 C23.5109125,266.163196 37.6753529,267.464667 37.8177887,267.47677 L37.7395887,268.403998 Z" id="Fill-198" fill="#33A9A6"></path>
                            <path d="M34.8726277,274.57435 C29.7347015,274.57435 18.2653682,273.546579 9.30588247,265.269481 C-2.63265087,254.238627 6.5409539,232.620981 6.63498009,232.40407 L7.48959437,232.774589 C7.39836104,232.985915 -1.51457706,254.003096 9.93706818,264.586162 C21.4799468,275.250222 37.3070682,273.555889 37.4643991,273.53727 L37.5714587,274.462636 C37.5314277,274.467291 36.5325158,274.57435 34.8726277,274.57435" id="Fill-200" fill="#33A9A6"></path>
                            <polygon id="Fill-202" fill="#F69C82" points="349.319576 218.7281 349.943314 226.621645 357.688837 226.955857 354.568285 214.718488"></polygon>
                            <path d="M327.536686,224.842874 C327.41287,224.474217 326.869193,223.247222 324.70566,221.575231 C322.763693,220.075467 317.81382,218.138155 319.960596,216.649562 C322.612879,216.86275 325.752982,216.79386 325.752982,216.79386 C327.345841,217.079662 329.212401,219.062591 330.139629,220.51767 L332.454908,225.335348 C332.454908,225.335348 331.389898,227.700898 331.359177,227.821922 L330.250412,227.611527 C329.493548,226.543724 328.569112,225.618358 327.536686,224.842874" id="Fill-204" fill="#F8AF89"></path>
                            <path d="M327.419479,223.484615 C327.419479,223.484615 327.415756,223.341248 327.35152,223.091753 C327.695041,223.15785 328.037632,223.205329 328.379291,223.240705 C329.47316,223.908198 330.586579,224.542177 331.687896,225.196636 C331.219627,225.773827 330.565167,226.584686 330.52886,226.649853 L322.469606,223.789036 C322.469606,223.789036 322.381165,222.68865 324.170456,222.724027 C325.959746,222.759403 327.419479,223.484615 327.419479,223.484615" id="Fill-206" fill="#F8AF89"></path>
                        </g>
                        <g id="Group-211" transform="translate(327.695238, 250.426190)">
                            <mask id="mask-13" fill="white">
                                <use xlink:href="#path-12"></use>
                            </mask>
                            <g id="Clip-210"></g>
                            <polygon id="Fill-209" fill="url(#linearGradient-14)" mask="url(#mask-13)" points="0.0921642857 6.93559524 12.5241024 18.4868524 13.9847667 21.5608571 21.388631 8.54986667 4.38385476 0.518540476"></polygon>
                        </g>
                        <g id="Group-214" transform="translate(338.866667, 248.564286)">
                            <mask id="mask-16" fill="white">
                                <use xlink:href="#path-15"></use>
                            </mask>
                            <g id="Clip-213"></g>
                            <path d="M15.1586976,1.06594048 C5.62295238,9.51154048 -0.541814286,21.9220667 0.326764286,32.9119595 L0.326764286,32.9119595 C1.35267381,45.8698857 1.75484524,56.088019 1.75484524,56.088019 L1.75484524,56.088019 L29.7960619,56.088019 C29.7960619,56.088019 32.7015643,0.897438095 16.716181,0.900230952 L16.716181,0.900230952 C16.2162595,0.900230952 15.6967881,0.95422619 15.1586976,1.06594048" id="Fill-212" fill="url(#linearGradient-17)" mask="url(#mask-16)"></path>
                        </g>
                        <g id="Group-229" transform="translate(295.111905, 261.597619)">
                            <path d="M49.6796221,140.157767 C49.6796221,140.157767 46.9174864,142.719748 40.6205245,144.323779 C39.2334055,144.67661 37.7392269,144.205548 37.7392269,146.492898 L45.381415,146.492898 L51.7379579,145.393443 L51.7379579,146.492898 L55.1703793,146.492898 C55.1703793,146.492898 56.1264674,140.877393 54.121196,140.157767 L49.6796221,140.157767 Z" id="Fill-215" fill="#1B2B57"></path>
                            <path d="M50.0668983,136.124881 L49.6796221,140.157767 C50.932684,141.026345 52.5776769,141.081272 53.885665,140.298341 L54.121196,140.157767 L54.8343055,136.124881 L50.0668983,136.124881 Z" id="Fill-217" fill="#F8AF89"></path>
                            <path d="M9.92776929,6.42245429 C9.54142405,6.38335429 8.22412643,6.12734238 6.10993357,4.39204714 C4.21451452,2.83456381 1.21964071,-1.55766952 0.249588333,0.867461429 C1.04927643,3.40523762 1.68418595,6.48110429 1.68418595,6.48110429 C2.31816452,7.96969714 4.66788833,9.34657571 6.29426214,9.9256281 L11.5066645,11.1051448 C11.5066645,11.1051448 13.5743098,9.5383519 13.686024,9.48156381 L13.2326502,8.44913762 C12.0233431,7.94921619 10.9145788,7.25565667 9.92776929,6.42245429" id="Fill-219" fill="#F8AF89"></path>
                            <path d="M8.57770214,6.61069286 C8.57770214,6.61069286 8.43712833,6.63862143 8.17925452,6.63210476 C8.32169024,6.95235238 8.44271405,7.27539286 8.55535929,7.60029524 C9.45000452,8.51821429 10.3157902,9.4622 11.200195,10.3894286 C11.6582236,9.80385952 12.3024426,8.98462143 12.3592307,8.93435 L7.76963548,1.71760714 C7.76963548,1.71760714 6.67576643,1.87773095 7.11052119,3.61302619 C7.54527595,5.35018333 8.57770214,6.61069286 8.57770214,6.61069286" id="Fill-221" fill="#F8AF89"></path>
                            <path d="M76.6644871,134.514799 C76.6644871,134.514799 73.9014205,137.07678 67.6044586,138.681742 C66.2173395,139.033642 64.723161,138.56258 64.723161,140.84993 L72.365349,140.84993 L78.7218919,139.750475 L78.7218919,140.84993 L82.1543133,140.84993 C82.1543133,140.84993 83.1104014,135.234425 81.106061,134.514799 L76.6644871,134.514799 Z" id="Fill-223" fill="#1B2B57"></path>
                            <path d="M77.0508324,130.48182 L76.6644871,134.514706 C77.9166181,135.383285 79.561611,135.438211 80.87053,134.65528 L81.10513,134.514706 L81.8182395,130.48182 L77.0508324,130.48182 Z" id="Fill-225" fill="#F8AF89"></path>
                            <path d="M73.5507307,43.0550581 C73.5507307,43.0550581 71.3062045,54.9414581 73.3151998,79.5511843 C73.6698926,83.897801 74.6548402,88.1690105 76.2402521,92.2316867 C81.6416379,106.072156 82.381745,131.61842 82.381745,131.61842 L76.203945,131.61842 L54.4289688,69.3553938 L73.5507307,43.0550581 Z" id="Fill-227" fill="#1B2B57"></path>
                        </g>
                        <g id="Group-232" transform="translate(305.352381, 258.804762)">
                            <mask id="mask-19" fill="white">
                                <use xlink:href="#path-18"></use>
                            </mask>
                            <g id="Clip-231"></g>
                            <path d="M34.1706071,12.8331786 C32.4492762,16.0040024 28.7636357,17.5633476 25.2893214,16.5905024 L25.2893214,16.5905024 L2.47354048,10.2013762 L0.09775,14.9538881 C0.09775,14.9538881 21.7228429,31.5890762 34.8669595,29.9254643 L34.8669595,29.9254643 C48.0110762,28.2618524 52.8585452,10.2013762 52.8585452,10.2013762 L52.8585452,10.2013762 L41.0438286,0.171295238 L34.1706071,12.8331786 Z" id="Fill-230" fill="url(#linearGradient-20)" mask="url(#mask-19)"></path>
                        </g>
                        <g id="Group-237" transform="translate(292.319048, 242.047619)">
                            <path d="M48.3022781,62.6050581 L52.3807805,156.753203 L57.9050519,156.753203 C57.9050519,156.753203 64.101471,134.804139 63.6369257,117.497734 C63.4889043,112.018149 64.4198567,106.55532 66.46609,101.469527 C74.8940019,80.5128581 76.3434948,62.6050581 76.3434948,62.6050581 L48.3022781,62.6050581 Z" id="Fill-leg" fill="#003F5F"></path>
                            <polygon id="Fill-paper" fill="#FEFEFE" points="0.0600464286 16.9284381 19.9023655 31.8637071 42.5980536 14.1253405 24.0618607 0.385414286"></polygon>
                        </g>
                        <g id="Group-240" transform="translate(305.352381, 268.114286)">
                            <mask id="mask-22" fill="white">
                                <use xlink:href="#path-21"></use>
                            </mask>
                            <g id="Clip-239"></g>
                            <path d="M0.09775,5.64436429 C0.09775,5.64436429 6.23272619,10.3633619 13.9531143,14.5228571 L13.9531143,14.5228571 C13.5313929,12.8704167 13.3358929,11.1779452 13.3973357,9.53109048 L13.3973357,9.53109048 C13.46995,7.6226381 13.899119,5.87058571 14.6001262,4.28703571 L14.6001262,4.28703571 L2.47354048,0.891852381 L0.09775,5.64436429 Z" id="Fill-238" fill="url(#linearGradient-23)" mask="url(#mask-22)"></path>
                        </g>
                        <g id="right-man-upper" transform="translate(300.697619, 226.221429)">
                            <path d="M57.16811,42.6914281 C57.1197005,42.870171 52.2294076,60.541509 39.4772219,62.1548495 C27.5824433,63.6592686 8.32383143,49.7527019 5.36526476,47.5528614 C5.21631238,47.7390519 5.06363619,47.9215186 4.90537429,48.1011924 C7.75408857,50.240521 25.2355124,62.9833971 37.5697005,62.9833971 C38.2520886,62.9833971 38.9186505,62.9442971 39.5665933,62.8623733 C52.7954267,61.188521 57.8076743,43.0600852 57.8570148,42.8766876 L57.16811,42.6914281 Z" id="Fill-241" fill="#92D3E0"></path>
                            <path d="M0.957298333,45.3578619 L5.22850786,46.3251214 C5.63905786,45.2889714 6.164115,44.3217119 6.78878405,43.4279976 C5.90903405,42.9802095 5.08979595,42.4290857 4.34224119,41.798831 C3.95589595,41.7606619 2.64232214,41.5027881 0.535576905,39.7758714 C0.907026905,41.3389405 1.07552929,42.9299381 1.01594833,44.4827667 C1.0047769,44.7778786 0.984295952,45.0692667 0.957298333,45.3578619" id="Fill-243" fill="#F8AF89"></path>
                            <path d="M6.49488238,43.8732721 L2.1836419,37.0940769 C2.1836419,37.0940769 1.08977286,37.2542007 1.52452762,38.989496 C1.95928238,40.7257221 2.99170857,41.9871626 2.99170857,41.9871626 C2.99170857,41.9871626 2.85113476,42.0150912 2.5941919,42.0085745 C2.73569667,42.3288221 2.85765143,42.6518626 2.96936571,42.976765 C3.82956571,43.8593079 4.66463,44.7660555 5.51365857,45.6588388 C5.79946095,45.0360317 6.12715619,44.4402221 6.49488238,43.8732721" id="Fill-245" fill="#F8AF89"></path>
                            <path d="M25.9884667,22.4486133 C25.9381952,22.4514062 25.8897857,22.4569919 25.8404452,22.4588538 C27.0478905,23.6141657 27.4202714,24.4436443 27.5189524,24.7341014 C28.0207357,25.1102062 28.4945905,25.52448 28.9386548,25.9713371 C28.9907881,25.5309967 29.0671262,25.1027586 29.1564976,24.6810371 C28.0058405,24.0852276 26.9464167,23.3283633 25.9884667,22.4486133" id="Fill-247" fill="#F8AF89"></path>
                            <path d="M26.763019,23.116851 C26.1709333,22.9036629 25.2241548,22.6355486 24.1507667,22.6141367 C22.3614762,22.5787605 22.4499167,23.6800771 22.4499167,23.6800771 L28.9377238,25.9832533 C28.9889262,25.539189 29.0634024,25.1053652 29.1509119,24.678989 C28.3046762,24.2395795 27.507781,23.7154533 26.763019,23.116851" id="Fill-249" fill="#F8AF89"></path>
                            <polygon id="Fill-251" fill="#FEFEFE" points="49.1432074 27.6098133 49.1432074 23.7296038 55.621705 21.0354276 57.9770145 24.0219229"></polygon>
                            <path d="M45.5912517,23.3259429 C44.5066921,23.4097286 43.4845064,23.3408381 42.9101088,22.9284262 C39.2542588,18.2950762 41.362866,4.51232619 41.362866,4.51232619 L52.9010898,5.32039286 L54.2295588,14.2612595 C54.5842517,16.6472905 53.7827017,19.060319 52.0697493,20.7593071 C50.1957421,22.2106619 47.9540088,23.1434762 45.5912517,23.3259429" id="Fill-253" fill="#F8AF89"></path>
                            <path d="M47.6004331,6.12976286 C47.6004331,6.12976286 43.9194474,7.23759619 39.8912164,6.96203429 C35.8629855,6.68554143 37.9222521,2.05684619 37.9222521,2.05684619 C37.9222521,2.05684619 40.9906712,3.07717 46.1071855,1.74777 C49.5591569,0.850331905 50.4295974,0.0674009524 52.8081807,1.02535095 C56.0385855,2.32496048 55.8970807,7.93022476 55.8970807,7.93022476 L55.4716355,19.7998676 L54.8264855,20.6246914 C54.8264855,20.6246914 53.935564,12.9340938 53.6804831,10.5685438 C52.9031379,9.56218429 52.1872355,9.63945333 51.6640402,9.96807952 C51.0980212,10.3246343 50.828045,11.0098152 50.8997283,11.6754462 L52.2086474,23.8104105 C52.2086474,23.8104105 44.8401593,27.9754914 42.8078902,27.5844914 C40.7756212,27.1925605 41.1200736,18.0580557 41.1200736,18.0580557 C41.1200736,18.0580557 43.281745,16.8301295 45.2516402,18.6073176 C47.2019855,20.3696105 49.0955426,18.1139129 49.0955426,18.1139129 L47.6004331,6.12976286 Z" id="Fill-255" fill="#1B2B57"></path>
                            <path d="M52.6133324,9.55715714 C51.7373062,9.5776381 50.9925443,10.5002119 50.9506514,11.6145619 C50.9087586,12.7289119 51.58463,13.6151786 52.4606562,13.5937667 C53.3366824,13.5723548 54.0805133,12.6507119 54.1233371,11.5363619 C54.16523,10.4220119 53.4884276,9.53574524 52.6133324,9.55715714" id="Fill-257" fill="#F8AF89"></path>
                        </g>
                        <g id="cloud" transform="translate(258.804762, 9.309524)">
                            <mask id="mask-25" fill="white">
                                <use xlink:href="#path-24"></use>
                            </mask>
                            <g id="Clip-261"></g>
                            <path d="M33.25455,11.533569 C32.90265,12.647919 31.3516833,12.7987333 30.7689071,11.7867881 L30.7689071,11.7867881 C28.9982357,8.71185238 25.9372643,5.71884048 21.0991048,7.67942619 L21.0991048,7.67942619 C16.1818143,9.67166429 14.4697929,13.0435738 13.9130833,15.62045 L13.9130833,15.62045 C13.5788714,17.1770024 12.0549024,18.2075667 10.5253476,17.7616405 L10.5253476,17.7616405 C8.18120952,17.0783214 4.95266667,16.8372048 2.21845952,19.1645857 L2.21845952,19.1645857 C-2.737,23.3818 2.21845952,29.6499024 2.21845952,29.6499024 L2.21845952,29.6499024 L93.5811952,29.6499024 C93.5811952,29.6499024 93.5811952,22.3261 89.5520333,19.1645857 L89.5520333,19.1645857 C86.683769,16.9126119 80.2890571,17.867769 76.8436024,18.6041524 L76.8436024,18.6041524 C75.9396476,18.7968595 75.2060571,17.9096619 75.5523714,17.0531857 L75.5523714,17.0531857 C77.5492643,12.1172762 80.0311833,0.242978571 57.6948429,0.242978571 L57.6948429,0.242978571 C40.1333571,0.242978571 34.7878286,6.67865238 33.25455,11.533569" id="Fill-260" fill="url(#linearGradient-26)" mask="url(#mask-25)"></path>
                        </g>
                        <g id="upper-left-plane" transform="translate(69.821429, 7.447619)">
                            <g id="Group-267" transform="translate(0.000000, 7.447619)">
                                <polygon id="Fill-263" fill="#A1D6C4" points="5.010665 0.734428333 0.47134119 7.66536881 8.50639119 6.73814024 36.250634 1.23528071"></polygon>
                                <polygon id="Fill-265" fill="#57C4C4" points="0.47134119 7.66527571 13.8779864 8.30111619 10.797465 6.28374238"></polygon>
                            </g>
                            <g id="Group-270" transform="translate(2.792857, 0.000000)">
                                <mask id="mask-28" fill="white">
                                    <use xlink:href="#path-27"></use>
                                </mask>
                                <g id="Clip-269"></g>
                                <polygon id="Fill-268" fill="url(#linearGradient-29)" mask="url(#mask-28)" points="2.21752857 8.18214048 33.4574976 8.68299286 0.673078571 0.774552381"></polygon>
                            </g>
                            <g id="Group-273" transform="translate(8.378571, 8.378571)">
                                <mask id="mask-31" fill="white">
                                    <use xlink:href="#path-30"></use>
                                </mask>
                                <g id="Clip-272"></g>
                                <polygon id="Fill-271" fill="url(#linearGradient-32)" mask="url(#mask-31)" points="0.127540476 5.80728095 2.99208095 16.5541952 27.8717833 0.304421429"></polygon>
                            </g>
                        </g>
                        <g id="upper-left-swirl" transform="translate(46.547619, 25.135714)" fill="#57C4C4">
                            <path d="M24.4447614,1.70085 C24.395421,1.63940714 24.3572519,1.56679286 24.3339781,1.4876619 C24.2352971,1.15438095 24.4261424,0.803411905 24.7603543,0.704730952 C25.8132614,0.393792857 26.8931662,0.180604762 27.9665543,0.0716833333 C28.3137995,0.0344452381 28.6219448,0.286733333 28.657321,0.633978571 C28.6917662,0.980292857 28.440409,1.28936905 28.0940948,1.32474524 C27.0979757,1.42621905 26.09534,1.6245119 25.1159781,1.91310714 C24.862759,1.98851429 24.6002305,1.89541905 24.4447614,1.70085" id="Fill-274"></path>
                            <path d="M32.0391917,23.4950969 C31.954475,23.3880374 31.9032703,23.2521183 31.9032703,23.1059588 C31.9023417,22.7577826 32.1834893,22.4747731 32.5307345,22.4738421 C34.789225,22.4673255 37.0840226,23.2679445 38.8286274,24.6699588 C39.0976726,24.8887326 39.1423583,25.2843874 38.9245155,25.5562255 C38.7076036,25.8271326 38.3100869,25.8699564 38.0382488,25.6521136 C36.5384845,24.4455993 34.4801488,23.727835 32.5353893,23.7334207 C32.3343036,23.7343517 32.1555607,23.6412564 32.0391917,23.4950969 M39.0166798,34.5622588 C38.8379369,34.3369683 38.8314202,34.011135 39.0185417,33.776535 C39.9876631,32.563504 40.4419679,31.2415517 40.3665607,29.8488469 C40.3395631,29.358235 40.242744,28.8741398 40.0761036,28.4086636 C39.9597345,28.0800374 40.1310298,27.7197588 40.458725,27.6033898 C40.7864202,27.4870207 41.1485607,27.657385 41.2630679,27.9860112 C41.4688083,28.5650636 41.591694,29.1692517 41.6252083,29.7799564 C41.7164417,31.4677731 41.1550774,33.1211445 40.0025583,34.5641207 C39.7856464,34.8359588 39.3890607,34.8797136 39.1172226,34.6628017 C39.0790536,34.6320802 39.0455393,34.598566 39.0166798,34.5622588 M15.8964774,7.02748024 C15.7047012,6.78450167 15.7149417,6.43167071 15.9337155,6.20172548 C16.6207583,5.47837548 17.3617964,4.80064214 18.1363488,4.18528262 C19.0766107,3.43958976 20.0783155,2.77675167 21.1153964,2.21631833 C21.4216798,2.0487469 21.8033702,2.16046119 21.9690798,2.47046833 C22.1347893,2.77582071 22.0212131,3.15844214 21.7149298,3.32415167 C20.7430155,3.85013976 19.8018226,4.47201595 18.9202107,5.17209214 C18.191275,5.75114452 17.4939917,6.38977786 16.8469798,7.0693731 C16.607725,7.32166119 16.2092774,7.33283262 15.9569893,7.0926469 C15.9346464,7.071235 15.9141655,7.0498231 15.8964774,7.02748024 M22.5974726,26.9396207 C22.5844393,26.9228636 22.571406,26.9051755 22.5593036,26.8874874 C22.3721821,26.5933064 22.4578298,26.2041683 22.7501488,26.016116 C24.9537131,24.608516 26.8091012,23.6905969 28.590944,23.1301636 C28.9223631,23.0258969 29.276125,23.2111564 29.3813226,23.5425755 C29.4855893,23.8739945 29.3012607,24.2277564 28.9689107,24.3320231 C27.2969202,24.8580112 25.5364893,25.7312445 23.429744,27.0783326 C23.1551131,27.2542826 22.7957655,27.1900469 22.5974726,26.9396207 M30.0246107,38.683585 C29.9454798,38.5830421 29.8952083,38.4582945 29.8886917,38.3195826 C29.8737964,37.9723374 30.1437726,37.6781564 30.4910179,37.6623302 C31.0207298,37.6390564 31.5495107,37.588785 32.0643274,37.5124469 C33.5259226,37.296466 34.983794,36.7918898 36.2796798,36.0527136 C36.5813083,35.8804874 36.9676536,35.9875469 37.1389488,36.2882445 C37.311175,36.5898731 37.2059774,36.9743564 36.9034179,37.1475136 C35.473475,37.9639588 33.8629274,38.5206683 32.248656,38.7589921 C31.6919464,38.8418469 31.1194107,38.8967731 30.545944,38.9219088 C30.3364798,38.9312183 30.1465655,38.8362612 30.0246107,38.683585 M10.9484655,15.8082231 C10.8293036,15.6583398 10.7790321,15.4563231 10.8311655,15.2570993 C11.3776345,13.169904 12.2750726,11.1609088 13.4974131,9.28410881 C13.6873274,8.99272071 14.0783274,8.90986595 14.3697155,9.10071119 C14.6620345,9.28969452 14.7430274,9.68162548 14.5531131,9.97208262 C13.4043179,11.7343755 12.5627369,13.620485 12.0507131,15.575485 C11.9622726,15.9124898 11.6178202,16.1145064 11.2817464,16.026066 C11.1448964,15.9897588 11.0294583,15.9115588 10.9484655,15.8082231 M20.2756774,36.2351802 C20.1211393,36.0406112 20.0904179,35.7631874 20.2198202,35.5332421 C20.3920464,35.2306826 20.7755988,35.1236231 21.0790893,35.2949183 C22.9149274,36.3329302 24.8494464,37.0432469 26.831444,37.4053874 C27.1731036,37.4668302 27.4011869,37.7954564 27.3378821,38.1389779 C27.2745774,38.4815683 26.9468821,38.7077898 26.6042917,38.645416 C24.4845131,38.2572088 22.4168679,37.4984826 20.459075,36.3925112 C20.3855298,36.3515493 20.3250179,36.2966231 20.2756774,36.2351802 M11.3385345,25.8299255 C11.2966417,25.7768612 11.2621964,25.7172802 11.2389226,25.6502517 C10.7771702,24.353435 10.469956,23.0193802 10.3265893,21.6862564 C10.2381488,20.854916 10.2092893,20.0049564 10.2437345,19.1596517 C10.2576988,18.8124064 10.5509488,18.5414993 10.898194,18.5554636 C11.2482321,18.5684969 11.5172774,18.8636088 11.5023821,19.2099231 C11.4716607,19.993785 11.4977274,20.7813707 11.5796512,21.5521993 C11.7127774,22.7875731 11.9967179,24.0238779 12.424956,25.2266683 C12.542256,25.5543636 12.3718917,25.9155731 12.0432655,26.0319421 C11.7825988,26.1250374 11.5014512,26.035666 11.3385345,25.8299255 M14.3566821,32.9191279 C14.1425631,32.6491517 14.1853869,32.2572207 14.4516393,32.0384469 C14.5717321,31.9416279 14.690894,31.8438779 14.8119179,31.7479898 C14.124875,30.9445779 13.498344,30.0899636 12.950944,29.202766 C12.7684774,28.9067231 12.8597107,28.518516 13.1566845,28.3360493 C13.4517964,28.1535826 13.8418655,28.2410921 14.0234012,28.5408588 C14.5447345,29.3861636 15.1433369,30.2016779 15.8005893,30.9650588 C16.9559012,30.0648279 18.1949988,29.1487707 19.5681536,28.1796493 C19.852094,27.9785636 20.2477488,28.0502469 20.4460417,28.3304636 C20.6471274,28.614404 20.5791679,29.0081969 20.2952274,29.2083517 C18.9704821,30.1439588 17.7732774,31.0283636 16.6561345,31.8950802 C17.097406,32.3456612 17.5600893,32.7757612 18.0432536,33.1825874 C18.3122988,33.4143945 18.3439512,33.8053945 18.1195917,34.070716 C17.8952321,34.3369683 17.4967845,34.3714136 17.2314631,34.147054 C16.6822012,33.6843707 16.159006,33.1946898 15.6618774,32.680804 C15.5231655,32.7915874 15.3853845,32.9033017 15.2485345,33.015016 C14.9785583,33.2347207 14.5829036,33.1946898 14.3622679,32.9256445 C14.360406,32.9228517 14.358544,32.9209898 14.3566821,32.9191279 M7.07942738,40.0232255 C6.89882262,39.7951421 6.89416786,39.465585 7.086875,39.230985 C8.37065833,37.6697779 9.86762976,36.0992612 11.5358964,34.5622588 C11.7909774,34.3257969 12.190356,34.342554 12.4258869,34.598566 C12.6558321,34.8406136 12.6455917,35.2530255 12.3895798,35.4885564 C10.7641369,36.9864588 9.30719643,38.5150826 8.05972024,40.032535 C7.83815357,40.3006493 7.44249881,40.3397493 7.17252262,40.1181826 C7.13714643,40.0893231 7.106425,40.0576707 7.07942738,40.0232255 M1.90147024,48.7388017 C1.76834405,48.5712302 1.72365833,48.341285 1.80372024,48.126235 L1.91357262,47.8404326 C2.65181786,45.974804 3.61535357,44.1296564 4.779975,42.3552612 C4.97082024,42.0638731 5.36182024,41.9828802 5.65227738,42.1737255 C5.94459643,42.3627088 6.02465833,42.7555707 5.8338131,43.0460279 C4.71573929,44.7496707 3.79130357,46.5175493 3.08657262,48.302185 L2.98509881,48.5675064 C2.86314405,48.8933398 2.49914167,49.0581183 2.17330833,48.9370945 C2.062525,48.8952017 1.97036071,48.8253802 1.90147024,48.7388017 M0.55345119,58.7502636 C0.478975,58.6562374 0.429634524,58.5417302 0.419394048,58.4132588 C0.229479762,56.2376231 0.33840119,54.0480231 0.745227381,51.9021779 C0.810394048,51.5605183 1.14088214,51.3352279 1.48254167,51.4003945 C1.82327024,51.4646302 2.04856071,51.7941874 1.984325,52.1367779 C1.59891071,54.1690469 1.4937131,56.2441398 1.67431786,58.3034064 C1.70410833,58.6506517 1.44902738,58.956004 1.10178214,58.9857945 C0.883008333,59.0053445 0.680060714,58.9103874 0.55345119,58.7502636 M3.83692024,68.2748374 C3.82761071,68.263666 3.8201631,68.2534255 3.81271548,68.242254 C2.60247738,66.5050969 1.68828214,64.4979636 1.09433452,62.281366 C1.0049631,61.9452921 1.2041869,61.6008398 1.54119167,61.5096064 C1.87726548,61.419304 2.2207869,61.6222517 2.31202024,61.9555326 C2.86872976,64.0315564 3.72055119,65.9046326 4.84700357,67.5226279 C5.04529643,67.8084302 4.975475,68.2012921 4.68967262,68.399585 C4.41597262,68.5904302 4.04172976,68.5327112 3.83692024,68.2748374" id="Fill-276"></path>
                        </g>
                        <g id="upper-right-plane" transform="translate(202.947619, 0.000000)">
                            <g id="Group-281">
                                <mask id="mask-34" fill="white">
                                    <use xlink:href="#path-33"></use>
                                </mask>
                                <g id="Clip-280"></g>
                                <polygon id="Fill-279" fill="url(#linearGradient-35)" mask="url(#mask-34)" points="21.310431 1.35360476 0.139642857 10.4545952 39.3960429 2.21752857 31.7622333 0.314661905"></polygon>
                            </g>
                            <g id="Group-286" transform="translate(0.000000, 1.861905)">
                                <polyline id="Fill-282" fill="#A1D6C4" points="0.139084286 8.59259738 38.6888914 2.63636405 39.3954843 0.354599762"></polyline>
                                <polygon id="Fill-284" fill="#57C4C4" points="39.126346 9.19259619 39.0695579 9.26614143 36.916265 14.9477438 0.234879286 8.60423429"></polygon>
                            </g>
                            <g id="upper-right-plane-wing" transform="translate(0.000000, 2.792857)">
                                <mask id="mask-37" fill="white">
                                    <use xlink:href="#path-36"></use>
                                </mask>
                                <g id="Clip-288"></g>
                                <polygon id="Fill-287" fill="url(#linearGradient-38)" mask="url(#mask-37)" points="0.390069048 7.6226381 35.130419 10.010531 46.6425762 5.54940714 41.7075976 0.665630952"></polygon>
                            </g>
                        </g>
                        <g id="2women" transform="translate(62.838913, 5.329049)">
                            <path d="M263.972665,85.8436789 C262.787562,85.2897623 261.62201,84.6408885 260.510453,83.9166075 C260.255372,83.7518289 259.918367,83.8244432 259.750796,84.0776623 C259.585086,84.3308813 259.65677,84.6706789 259.91185,84.8373194 C261.06437,85.5895289 262.27647,86.2626075 263.50812,86.8379361 C263.954046,87.0474004 264.404627,87.2438313 264.858,87.4300218 C265.024641,87.4989123 265.204315,87.4802932 265.348612,87.3937146 C265.447293,87.3350646 265.528286,87.2447623 265.573903,87.132117 C265.690272,86.8519004 265.555284,86.5307218 265.275067,86.4152837 C264.83845,86.2356099 264.403696,86.0438337 263.972665,85.8436789" id="Fill-290" fill="#57C4C4"></path>
                            <path d="M198.138691,0.0260679825 C196.412706,0.0763394111 194.610382,0.18153703 192.629315,0.349108459 C192.327687,0.375175125 192.105189,0.640496554 192.128463,0.942125125 C192.153599,1.24468465 192.419851,1.46904417 192.72241,1.44297751 C194.682065,1.27726798 196.464839,1.17300132 198.170344,1.12366084 C198.268094,1.12086798 198.357465,1.09293941 198.435665,1.04546084 C198.601375,0.946779887 198.709365,0.764313221 198.702849,0.558572744 C198.69447,0.256013221 198.442182,0.0167584587 198.138691,0.0260679825" id="Fill-292" fill="#57C4C4"></path>
                            <path d="M207.207285,1.34252774 C207.34972,1.25781108 207.452125,1.1088587 207.471675,0.93011584 C207.503328,0.628487268 207.285485,0.358511078 206.983856,0.325927744 C205.233666,0.137875363 203.373623,0.0280229825 201.455861,9.44110576e-05 C201.153301,-0.00549130323 200.902875,0.237487268 200.900082,0.540046792 C200.895428,0.843537268 201.136544,1.09303251 201.440966,1.09675632 C203.323351,1.12561584 205.148949,1.23267536 206.867487,1.41793489 C206.991304,1.43096822 207.108604,1.4021087 207.207285,1.34252774" id="Fill-294" fill="#57C4C4"></path>
                            <path d="M254.082227,78.2188066 C253.887658,77.9869994 253.543205,77.9497613 253.309536,78.1527089 C253.077729,78.3482089 253.047939,78.6935923 253.24437,78.9253994 C254.439712,80.3488256 255.773767,81.670778 257.208365,82.8521566 C257.392693,83.0039018 257.645912,83.0150732 257.83955,82.8996351 C257.892615,82.8689137 257.941024,82.8279518 257.981055,82.7776804 C258.173762,82.5440113 258.140248,82.197697 257.906579,82.0049899 C256.524115,80.8655042 255.237539,79.5919613 254.082227,78.2188066" id="Fill-296" fill="#57C4C4"></path>
                            <path d="M251.988422,76.3973982 C252.24071,76.2288958 252.308669,75.8881673 252.140167,75.6358792 C251.86926,75.229053 251.606731,74.8157101 251.355374,74.3958506 C250.682295,73.2703292 250.085555,72.0963982 249.580979,70.9066411 C249.462748,70.6273554 249.140638,70.497022 248.862284,70.615253 C248.590445,70.732553 248.450803,71.0565244 248.569965,71.3348792 C249.094091,72.5711839 249.715036,73.7907316 250.41325,74.9590768 C250.673917,75.3947625 250.945755,75.8230006 251.227834,76.245653 C251.389819,76.4904935 251.715653,76.5612458 251.966079,76.4122935 C251.972595,76.4076387 251.980974,76.402053 251.988422,76.3973982" id="Fill-298" fill="#57C4C4"></path>
                            <path d="M248.120966,68.548818 C248.164721,68.5348537 248.206614,68.5171656 248.244783,68.4938918 C248.454247,68.3682132 248.562238,68.1112704 248.487761,67.8654989 C247.994357,66.2251608 247.61639,64.4991751 247.329657,62.5888608 C247.285902,62.2881632 247.005685,62.0814918 246.705919,62.1271085 C246.408014,62.1717942 246.200411,62.4510799 246.245097,62.7499156 C246.538347,64.7142251 246.928416,66.4914132 247.437647,68.1810918 C247.523295,68.4715489 247.830509,68.6363275 248.120966,68.548818" id="Fill-300" fill="#57C4C4"></path>
                            <path d="M238.234159,20.5134439 C238.635399,21.1139082 239.020814,21.7227511 239.390402,22.3409035 C239.948973,23.2746487 240.47403,24.2353916 240.954402,25.1979963 C241.088459,25.4689035 241.418947,25.5787558 241.689854,25.4446987 C241.702887,25.438182 241.714059,25.4316654 241.728023,25.4232868 C241.971002,25.2789892 242.065028,24.9671201 241.936556,24.7083154 C241.445014,23.7205749 240.905061,22.7346963 240.332525,21.7776773 C239.953628,21.1436987 239.557973,20.5190296 239.146492,19.9046011 C238.978921,19.652313 238.657742,19.554563 238.384973,19.7528558 C238.134547,19.9213582 238.065656,20.2611558 238.234159,20.5134439" id="Fill-302" fill="#57C4C4"></path>
                            <path d="M242.28706,28.1610316 C242.964793,29.8423316 243.52895,31.572972 243.966498,33.3026816 C244.040043,33.5968625 244.337948,33.7746744 244.63306,33.7011292 C244.685193,33.6880958 244.734534,33.6666839 244.78015,33.6396863 C244.983098,33.5186625 245.091089,33.274753 245.029646,33.0345673 C244.581858,31.2564482 244.001874,29.4783292 243.305522,27.7504816 C243.192877,27.468403 242.872629,27.3324839 242.591481,27.4460601 C242.314058,27.5568435 242.173484,27.878953 242.28706,28.1610316" id="Fill-304" fill="#57C4C4"></path>
                            <path d="M232.735768,13.8222237 C234.013035,15.1004213 235.222342,16.4651975 236.328313,17.8802451 C236.500539,18.1008808 236.807754,18.1530142 237.041423,18.0133713 C237.060973,18.0012689 237.080523,17.9891666 237.099142,17.9742713 C237.337465,17.7880808 237.379358,17.4426975 237.193168,17.2034427 C236.059268,15.7539499 234.82017,14.3547285 233.513113,13.0458094 C233.298063,12.8316904 232.949887,12.8288975 232.735768,13.0458094 C232.52258,13.2599285 232.52258,13.6081046 232.735768,13.8222237" id="Fill-306" fill="#57C4C4"></path>
                            <path d="M223.278967,6.61274227 C223.455848,6.71421608 223.667175,6.7039756 223.831022,6.6062256 C223.910153,6.55874703 223.978113,6.49171846 224.026522,6.40513989 C224.176405,6.14168036 224.082379,5.80653751 223.81892,5.65758513 C222.200925,4.74152798 220.517763,3.9278756 218.818775,3.23617798 C218.535765,3.12260179 218.217379,3.25758989 218.102872,3.53780655 C217.989296,3.81895417 218.124284,4.13827084 218.405432,4.25277798 C220.061596,4.92678751 221.701003,5.72088989 223.278967,6.61274227" id="Fill-308" fill="#57C4C4"></path>
                            <path d="M246.058162,51.1716608 C246.157774,51.1697989 246.2518,51.1418704 246.331862,51.0943918 C246.493848,50.9975727 246.601838,50.816968 246.598114,50.6140204 L246.588805,49.9195299 C246.5646,48.3182918 246.540395,46.7151918 246.4864,45.1158156 C246.47616,44.8123251 246.22201,44.5758632 245.91945,44.5861037 C245.61596,44.5972751 245.379498,44.8486323 245.388807,45.1530537 C245.442802,46.7459132 245.466076,48.3415656 245.491212,49.936287 L245.501452,50.6307775 C245.505176,50.934268 245.755602,51.1763156 246.058162,51.1716608" id="Fill-310" fill="#57C4C4"></path>
                            <path d="M230.353833,11.6061846 C230.538162,11.7653775 230.796966,11.7802727 230.994328,11.6620418 C231.043669,11.6331823 231.089285,11.5959442 231.128385,11.5493966 C231.326678,11.3203823 231.301543,10.974068 231.071597,10.7757751 C229.670514,9.56460608 228.184714,8.43163703 226.65609,7.40852036 C226.403802,7.24001798 226.064935,7.30890846 225.894571,7.55933465 C225.726069,7.81069179 225.794028,8.15235132 226.045385,8.3208537 C227.537702,9.31883465 228.986264,10.4238751 230.353833,11.6061846" id="Fill-312" fill="#57C4C4"></path>
                            <path d="M246.100893,53.3676844 C245.79554,53.3769939 245.558147,53.6264892 245.567457,53.9318416 C245.625176,56.0851344 245.719202,57.8381177 245.858845,59.4468035 C245.886774,59.748432 246.152095,59.9718606 246.454655,59.944863 C246.540302,59.9374154 246.619433,59.9104177 246.688324,59.8694558 C246.862412,59.7651892 246.972264,59.5678273 246.953645,59.3509154 C246.814933,57.7645725 246.721838,56.033932 246.663188,53.9020511 C246.65574,53.5985606 246.402521,53.3593058 246.100893,53.3676844" id="Fill-314" fill="#57C4C4"></path>
                            <path d="M268.327381,87.4933266 C268.037855,87.406748 267.73064,87.5705956 267.644993,87.8610527 C267.556552,88.1505789 267.721331,88.4568623 268.011788,88.5443718 C269.680985,89.048017 271.449795,89.4567051 273.420621,89.7927789 C273.555609,89.8160527 273.685943,89.7871932 273.794864,89.7229575 C273.927059,89.6428956 274.02574,89.5079075 274.053669,89.3431289 C274.104871,89.0452242 273.903785,88.7612837 273.60495,88.7100813 C271.681602,88.3823861 269.954685,87.9830075 268.327381,87.4933266" id="Fill-316" fill="#57C4C4"></path>
                            <path d="M245.076286,35.8518154 C244.778382,35.9030177 244.573572,36.1832344 244.624775,36.4830011 C244.896613,38.1326487 245.094905,39.8986654 245.228963,41.8825249 C245.249444,42.1850844 245.511972,42.4131677 245.813601,42.3926868 C245.902972,42.3871011 245.985827,42.3601035 246.058441,42.3163487 C246.228805,42.2139439 246.338658,42.0212368 246.324694,41.8080487 C246.187844,39.788813 245.985827,37.9883511 245.706541,36.3042582 C245.657201,36.0054225 245.374191,35.8024749 245.076286,35.8518154" id="Fill-318" fill="#57C4C4"></path>
                            <path d="M294.340425,90.7716754 C294.039727,90.7279206 293.762303,90.9373849 293.719479,91.2380825 C293.676655,91.5387801 293.88612,91.8171349 294.185886,91.8580968 C296.140886,92.1345896 297.883629,92.4678706 299.518382,92.8765587 C299.665472,92.9137968 299.813494,92.8867992 299.933586,92.8151158 C300.05461,92.7434325 300.146775,92.6252016 300.184013,92.4781111 C300.257558,92.1829992 300.079746,91.8850944 299.786496,91.8115492 C298.112644,91.3935516 296.331732,91.0537539 294.340425,90.7716754" id="Fill-320" fill="#57C4C4"></path>
                            <path d="M212.177546,1.16527441 C211.546361,1.02656251 210.914244,0.901814887 210.280265,0.790100602 C209.983292,0.738898221 209.696558,0.937191078 209.644425,1.23602679 C209.592292,1.53486251 209.791515,1.81973393 210.090351,1.87186727 C210.709435,1.97985774 211.325725,2.10181251 211.941085,2.2368006 C213.082432,2.48722679 214.228435,2.79444108 215.349301,3.15006489 C215.50477,3.19940536 215.666756,3.17613155 215.797089,3.09793155 C215.908804,3.03183393 215.996313,2.92570536 216.037275,2.79351013 C216.13037,2.50398393 215.970246,2.19490774 215.68072,2.10367441 C214.528201,1.73874108 213.349615,1.42314822 212.177546,1.16527441" id="Fill-322" fill="#57C4C4"></path>
                            <path d="M276.835075,89.1751851 C276.538101,89.138878 276.26254,89.3511351 276.225301,89.6546256 C276.188994,89.9553232 276.404044,90.2290232 276.704742,90.2653304 C278.67743,90.5017923 280.674323,90.6656399 282.192706,90.7820089 C282.310937,90.7913185 282.42172,90.7624589 282.516678,90.7056708 C282.663768,90.6172304 282.768035,90.4608304 282.781999,90.2765018 C282.805273,89.9739423 282.57812,89.7104827 282.277423,89.686278 C280.76928,89.5717708 278.788213,89.4097851 276.835075,89.1751851" id="Fill-324" fill="#57C4C4"></path>
                            <path d="M285.560892,89.924788 C285.258332,89.9033761 284.995804,90.1295975 284.973461,90.432157 C284.952049,90.7356475 285.179201,90.9972451 285.48083,91.019588 C287.141649,91.1387499 289.070582,91.2811856 290.936211,91.4701689 C291.058166,91.4822713 291.174535,91.4534118 291.274147,91.3947618 C291.417513,91.3091142 291.518987,91.1582999 291.538537,90.9786261 C291.569259,90.6769975 291.348623,90.4079523 291.047925,90.3762999 C289.164609,90.1873166 287.228228,90.0439499 285.560892,89.924788" id="Fill-326" fill="#57C4C4"></path>
                            <polygon id="Fill-328" fill="#FFCF51" points="240.943416 278.732637 250.654181 284.922539 254.750371 276.387568 242.203926 262.008077"></polygon>
                            <polygon id="Fill-330" fill="#9E7059" points="189.693743 221.868203 201.582005 252.932223 209.173922 247.283203 192.211038 218.687139"></polygon>
                            <path d="M189.003721,211.323213 C189.940259,212.081939 190.563997,213.160913 190.754843,214.35067 L192.210852,218.687046 L191.748169,219.50256 L189.693557,221.86811 C189.573464,220.932503 188.882697,220.246391 188.882697,220.246391 L185.648569,216.624987 C185.648569,216.624987 180.34214,210.438808 185.294807,208.33951 C182.389305,202.59181 184.469052,202.739832 184.469052,202.739832 L187.071064,207.66457 L189.003721,211.323213 Z" id="Fill-332" fill="#9E7059"></path>
                            <path d="M188.259145,212.455996 C188.259145,212.455996 189.329741,211.447774 188.377376,209.049641 C187.425012,206.652438 188.866126,206.819079 188.866126,206.819079 C188.866126,206.819079 192.835707,216.166772 191.561234,217.23085 C190.28676,218.293998 188.259145,212.455996 188.259145,212.455996" id="Fill-334" fill="#825A46"></path>
                            <path d="M223.76809,259.318183 L220.209059,259.595607 L208.114125,245.496333 L201.581633,252.932781 C201.581633,252.932781 207.573242,264.248507 216.343745,275.96175 C216.842735,278.343126 219.441023,302.309564 219.441023,302.309564 L240.411656,302.309564 C240.411656,302.309564 237.071399,284.723874 242.972706,274.936772 C248.873083,265.1506 223.76809,259.318183 223.76809,259.318183" id="Fill-336" fill="#FFCF51"></path>
                            <path d="M239.899726,352.007899 C239.899726,352.007899 239.788011,400.858694 239.788011,400.602682 C239.788011,400.34667 236.621842,400.602682 236.621842,400.602682 C236.621842,400.602682 231.971735,375.051763 230.943033,363.530296 C229.9134,352.007899 230.943033,351.239863 230.943033,351.239863 L239.899726,352.007899 Z" id="Fill-338" fill="#9E7059"></path>
                            <path d="M229.717434,352.007899 C229.717434,352.007899 229.60572,400.858694 229.60572,400.602682 C229.60572,400.34667 226.439551,400.602682 226.439551,400.602682 C226.439551,400.602682 221.788513,375.051763 220.760741,363.530296 C219.731108,352.007899 220.760741,351.239863 220.760741,351.239863 L229.717434,352.007899 Z" id="Fill-340" fill="#9E7059"></path>
                            <path d="M223.238005,235.128875 L235.965986,239.584413 L234.711063,249.084783 C234.693375,249.219771 234.657998,249.348242 234.631932,249.481368 C234.388022,249.525123 234.143182,249.57074 233.900203,249.630321 C233.860172,249.640561 233.822003,249.653594 233.781972,249.663835 C233.743803,249.673144 233.704703,249.677799 233.666534,249.68804 C230.73031,250.409528 228.650563,252.836521 227.716817,255.644273 C225.907046,255.946833 224.036763,255.949625 222.208372,255.573521 C220.961827,255.317509 219.834444,254.925578 219.314041,254.326044 C216.628244,248.46663 223.238005,235.128875 223.238005,235.128875" id="Fill-342" fill="#9E7059"></path>
                            <path d="M222.908914,243.12827 C224.057709,245.422137 224.266242,248.12376 223.16958,250.443694 C221.439871,254.105129 221.592547,258.216215 222.744135,260.471913 C223.528928,262.008915 225.58354,263.545918 227.406345,264.680748 C229.321314,265.87516 230.579961,267.880432 230.785702,270.127751 C231.068711,273.218513 231.362892,277.012144 234.010521,277.924477 C241.691809,280.570244 244.50794,280.313301 245.532919,273.912072 C245.794516,272.278251 245.704214,269.875463 244.87008,267.640246 C243.854411,264.920003 243.942852,261.892546 245.107473,259.233746 C245.875509,257.47797 246.556035,255.546244 246.556035,254.214051 C246.556035,252.763627 245.228497,250.722979 243.833,248.982098 C242.092119,246.809256 241.324083,244.043396 241.571716,241.27102 C241.818419,238.499575 241.431142,234.958232 238.619666,232.558237 C233.370026,228.080356 221.720088,235.128596 221.720088,235.128596 C221.720088,235.128596 220.601083,238.523779 222.908914,243.12827" id="Fill-344" fill="#1B2B57"></path>
                            <path d="M254.750371,276.388033 L259.414443,281.215952 C262.512652,284.423083 263.470602,288.888862 259.747724,291.341921 L244.508964,303.446164 L245.910047,306.069588 C247.089564,308.278738 246.871721,310.972914 245.350545,312.96329 L243.740928,315.072828 L240.175381,302.835459 L251.223924,289.039676 C252.407164,287.805233 252.128809,285.78879 250.654181,284.923005 L254.750371,276.388033 Z" id="Fill-346" fill="#9E7059"></path>
                            <path d="M219.440558,302.309192 C219.440558,302.309192 216.367484,310.280006 216.367484,318.350433 C216.367484,322.78549 220.208593,356.232747 220.208593,356.232747 L240.174729,356.232747 C238.822055,331.531787 246.309705,328.503399 246.309705,317.825375 C246.309705,310.293971 240.411191,302.309192 240.411191,302.309192 L219.440558,302.309192 Z" id="Fill-348" fill="#003F5F"></path>
                            <path d="M239.788756,396.887251 C239.788756,396.887251 241.535223,398.260406 241.214975,400.008734 C240.894728,401.757063 240.441354,405.854184 240.441354,405.854184 L238.646478,405.854184 L238.702335,402.033556 C238.696749,401.784061 234.851916,405.854184 234.20118,405.854184 L224.702673,405.854184 C224.702673,405.854184 224.071487,403.277308 229.648823,402.449692 C235.22709,401.620213 239.788756,396.887251 239.788756,396.887251" id="Fill-350" fill="#1B2B57"></path>
                            <path d="M229.644727,396.887251 C229.644727,396.887251 231.390262,398.260406 231.070946,400.008734 C230.750698,401.757063 230.297324,405.854184 230.297324,405.854184 L228.502448,405.854184 L228.558305,402.033556 C228.55272,401.784061 224.707886,405.854184 224.05715,405.854184 L214.558643,405.854184 C214.558643,405.854184 213.927458,403.277308 219.504793,402.449692 C225.08306,401.620213 229.644727,396.887251 229.644727,396.887251" id="Fill-352" fill="#1B2B57"></path>
                            <polygon id="Fill-354" fill="#C59C6E" points="30.7504743 258.664469 38.7855243 273.798962 29.9321671 273.372585 29.310291 258.17665"></polygon>
                            <polygon id="Fill-356" fill="#FEFEFE" points="18.1321595 251.956864 25.5546429 251.946623 28.6305095 299.921392 15.3290619 299.921392"></polygon>
                            <path d="M4.50515786,392.78985 C4.50515786,392.78985 2.67118167,394.231896 3.00725548,396.068665 C3.34332929,397.907296 3.8199769,402.212019 3.8199769,402.212019 L5.70608643,402.212019 L5.64836738,398.197753 C5.65302214,397.934293 9.69335548,402.212019 10.3776055,402.212019 L20.358346,402.212019 C20.358346,402.212019 21.021184,399.503879 15.1599079,398.633438 C9.29863167,397.762998 4.50515786,392.78985 4.50515786,392.78985" id="Fill-358" fill="#003F5F"></path>
                            <path d="M8.83120048,390.957922 L10.1848052,394.478784 C10.5171552,395.446044 11.166029,396.267144 12.028091,396.819198 C12.9795243,397.428041 14.469979,398.278001 16.6875076,398.934322 C13.9747124,401.250532 9.65881714,398.831918 7.18993143,397.121758 C5.98621,396.288556 5.13438857,395.044803 4.77690286,393.625101 L4.21181476,390.957922 L8.83120048,390.957922 Z" id="Fill-360" fill="#D9B183"></path>
                            <path d="M23.5192086,392.78985 C23.5192086,392.78985 21.6852324,394.231896 22.0213062,396.068665 C22.35738,397.907296 22.8340276,402.212019 22.8340276,402.212019 L24.7201371,402.212019 L24.6614871,398.197753 C24.6670729,397.934293 28.7064752,402.212019 29.3907252,402.212019 L39.3723967,402.212019 C39.3723967,402.212019 40.0352348,399.503879 34.1739586,398.633438 C28.3126824,397.762998 23.5192086,392.78985 23.5192086,392.78985" id="Fill-362" fill="#003F5F"></path>
                            <path d="M27.8453443,390.957922 L29.198949,394.478784 C29.531299,395.446044 30.1801729,396.267144 31.0413038,396.819198 C31.9936681,397.428041 33.4841229,398.278001 35.7016514,398.934322 C32.9888562,401.250532 28.672961,398.831918 26.2040752,397.121758 C25.0003538,396.288556 24.1485324,395.044803 23.7910467,393.625101 L23.2250276,390.957922 L27.8453443,390.957922 Z" id="Fill-364" fill="#D9B183"></path>
                            <path d="M12.4395719,299.921858 C12.4395719,299.921858 11.1930267,307.092984 18.3632219,342.336979 C12.5587338,360.703739 21.8542933,391.43727 21.8542933,391.43727 L28.6306957,391.43727 L33.2435648,299.921858 L12.4395719,299.921858 Z" id="Fill-366" fill="#108B8B"></path>
                            <path d="M24.7396871,251.956863 L27.14713,310.165592 L35.12353,306.750859 C35.12353,306.750859 31.5291229,295.824271 31.8707824,280.644161 C30.6512348,269.66544 36.8793062,275.449447 29.2482895,254.313104 C26.4079538,251.946623 24.7396871,251.956863 24.7396871,251.956863" id="Fill-368" fill="#FFCF51"></path>
                            <path d="M25.7811436,245.944773 L24.8464674,250.852754 C24.4359174,253.012564 21.9819269,254.082228 20.1200221,252.914814 L16.8458626,250.862995 L22.6913126,237.650918 L25.7811436,245.944773 Z" id="Fill-370" fill="#C59C6E"></path>
                            <path d="M5.91880905,299.921858 C5.91880905,299.921858 -2.95875286,307.092984 4.21237333,342.336979 C-1.59304571,360.703739 3.52905429,391.43727 3.52905429,391.43727 L9.61189714,391.43727 L26.7237329,299.921858 L5.91880905,299.921858 Z" id="Fill-372" fill="#57C4C4"></path>
                            <path d="M18.1321595,247.024864 C18.1321595,247.024864 10.6379929,251.235562 8.30968095,254.996609 C6.08935952,258.579845 5.32132381,266.737781 5.10813571,273.999209 C4.81488571,283.97064 0,310.165778 0,310.165778 L20.0890214,310.165778 L20.5898738,253.139359 L18.1321595,247.024864 Z" id="Fill-374" fill="#FFCF51"></path>
                            <path d="M32.9214552,231.224089 C28.3774767,230.072501 24.0075862,234.730986 24.0075862,234.730986 L20.589129,253.139639 L15.332041,245.038491 C15.332041,245.038491 15.0322743,234.029979 20.1143433,226.740622 C23.7525052,222.325115 30.73651,223.593072 34.2676124,227.885693 C35.9852195,229.97382 36.3436362,232.856979 36.1769957,235.510193 C35.9535671,239.071086 34.9444148,259.51387 34.9444148,259.51387 L24.5354362,251.803722 C24.5354362,251.803722 24.7849314,249.724905 25.7810505,245.945239 C27.4949338,239.439743 35.9721862,231.996779 32.9214552,231.224089" id="Fill-376" fill="#1B2B57"></path>
                            <path d="M22.6469062,234.447884 C23.3181229,234.175115 24.1867014,234.628488 24.58608,235.459829 C24.9854586,236.291169 24.7648229,237.185815 24.0936062,237.458584 C23.4223895,237.731353 22.553811,237.27891 22.1544324,236.446638 C21.7550538,235.615298 21.9756895,234.720653 22.6469062,234.447884" id="Fill-378" fill="#D9B183"></path>
                            <path d="M27.5225831,246.808511 C28.3669569,247.119449 29.1945736,247.293537 29.7447664,247.097106 C33.6966593,244.232566 35.1238093,232.792092 35.1238093,232.792092 L31.9939474,229.467661 L25.7621521,230.838023 L22.6918712,237.650732 C21.8717021,239.469813 21.9666593,241.570042 22.9460212,243.307199 C24.1097117,244.884232 25.6839521,246.130778 27.5225831,246.808511" id="Fill-380" fill="#D9B183"></path>
                            <path d="M33.9624462,230.985951 C33.6384748,234.446301 24.0077724,234.730242 24.0077724,234.730242 L23.505989,230.045689 L29.1205629,226.954927 L33.5649295,229.628623 C33.5649295,229.628623 34.0127176,230.408761 33.9624462,230.985951" id="Fill-382" fill="#1B2B57"></path>
                            <path d="M33.7524233,231.657726 C33.4331067,232.945233 34.737371,235.18976 34.737371,235.18976 L35.5035448,233.805433 L35.4821329,232.607298 L34.7252686,231.672622 C34.7252686,231.672622 34.072671,230.370219 33.7524233,231.657726" id="Fill-384" fill="#1B2B57"></path>
                            <path d="M10.3581486,254.997075 C0.638074762,256.130975 5.2295319,281.207108 7.3176581,291.503442 C7.83154381,294.037494 10.4223843,295.583806 12.8884771,294.80553 C21.3461795,292.138351 33.7017795,281.06188 33.7017795,281.06188 L31.7439867,278.595787 L15.3294343,282.427587 C15.3294343,282.427587 21.6263962,253.681639 10.3581486,254.997075" id="Fill-386" fill="#D9B183"></path>
                            <path d="M29.804906,272.706954 L26.6303583,292.353773 C26.539125,292.922585 26.9776036,293.439264 27.554794,293.439264 L40.1217202,293.439264 C40.5816107,293.439264 40.9735417,293.104121 41.045225,292.649816 L44.1629845,273.002997 C44.2532869,272.435116 43.8138774,271.9203 43.2394798,271.9203 L30.7284107,271.9203 C30.2694512,271.9203 29.8775202,272.254512 29.804906,272.706954" id="Fill-388" fill="#FEFEFE"></path>
                            <path d="M43.7524345,281.405494 C43.8297036,280.715658 43.763606,280.282766 43.5336607,278.853754 C43.233894,276.995573 43.312094,274.084485 41.4148131,275.534908 C39.6208679,277.78502 39.4123345,280.178499 39.4123345,280.178499 C39.0474012,281.497658 39.8554679,283.331635 40.6104702,284.326823 L41.9147345,287.169951 C41.9147345,287.169951 44.1676393,284.548389 43.7524345,281.405494" id="Fill-390" fill="#C59C6E"></path>
                        </g>
                        <g id="Group-395" transform="translate(97.750000, 283.009524)">
                            <mask id="mask-40" fill="white">
                                <use xlink:href="#path-39"></use>
                            </mask>
                            <g id="Clip-394"></g>
                            <path d="M0.619083333,1.87307619 C0.619083333,2.4027881 1.04918333,2.83195714 1.57889524,2.83195714 L1.57889524,2.83195714 C2.10767619,2.83195714 2.53684524,2.4027881 2.53684524,1.87307619 L2.53684524,1.87307619 C2.53684524,1.34429524 2.10767619,0.91512619 1.57889524,0.91512619 L1.57889524,0.91512619 C1.04918333,0.91512619 0.619083333,1.34429524 0.619083333,1.87307619" id="Fill-393" fill="url(#linearGradient-41)" mask="url(#mask-40)"></path>
                        </g>
                    </g>
                </g>
            </g>
        </g>
    </g>
</svg>