<?xml version="1.0" encoding="UTF-8"?>
<svg width="172px" height="165px" viewBox="0 0 172 165" version="1.1" xmlns="http://www.w3.org/2000/svg" xmlns:xlink="http://www.w3.org/1999/xlink">
    <title>illus-dashboard-help-center-1208535124</title>
    <defs>
        <polygon id="path-1" points="0 0 1.00146226 0 1.00146226 7.51676902 0 7.51676902"></polygon>
        <polygon id="path-3" points="0 -1.23400312e-14 43.7872154 -1.23400312e-14 43.7872154 48.0146009 0 48.0146009"></polygon>
        <polygon id="path-5" points="0 165 172 165 172 0 0 0"></polygon>
    </defs>
    <g id="Page-2-Illustrations" stroke="none" stroke-width="1" fill="none" fill-rule="evenodd">
        <g id="PECOS-2.0-Illustrations-v31" transform="translate(-1601.000000, -117.000000)">
            <g id="Dashboard-Welcome-" transform="translate(985.000000, 46.000000)">
                <g id="Help-Center" transform="translate(615.000000, 47.000000)">
                    <g id="illus-dashboard-help-center-1208535124" transform="translate(1.000000, 24.000000)">
                        <path d="M91.451679,45.514566 C91.3271463,45.1416086 90.7788564,43.9016012 88.6008311,42.2113531 C86.645927,40.6943412 81.6611592,38.7357722 83.8231855,37.2317856 C86.4941527,37.4462687 89.6554675,37.3772347 89.6554675,37.3772347 C91.2592586,37.6663961 93.1376271,39.6709878 94.0724872,41.1419769 L96.4027191,46.0125661 C96.4027191,46.0125661 95.3303541,48.4035747 95.2996533,48.5260124 L94.1836154,48.3123977 C93.4212849,47.2339039 92.4907488,46.2978199 91.451679,45.514566" id="Fill-1" fill="#F6B58E"></path>
                        <path d="M91.3331999,44.1416572 C91.3331999,44.1416572 91.3293083,43.9962082 91.2644475,43.7435176 C91.6103717,43.8112491 91.9554311,43.8590085 92.2996257,43.8950451 C93.4009619,44.5693208 94.5221887,45.2097308 95.6304433,45.8722838 C95.159554,46.4553825 94.500136,47.2751072 94.463814,47.3419704 L86.349297,44.4494882 C86.349297,44.4494882 86.2602215,43.3358261 88.0611894,43.3718627 C89.8630221,43.4083336 91.3331999,44.1416572 91.3331999,44.1416572" id="Fill-3" fill="#F6B58E"></path>
                        <path d="M144.735897,49.1029024 C144.735897,49.1029024 137.14805,66.4039576 123.813104,66.0457622 C110.478591,65.6875668 91.5055134,45.7419441 91.5055134,45.7419441 L94.5980758,41.3580665 L116.324278,51.2494698 C119.63261,52.7556272 123.538959,51.7639686 125.736875,48.8601979 L134.514702,37.265087 L144.735897,49.1029024 Z" id="Fill-5" fill="#63C0C4"></path>
                        <path d="M144.407356,48.9574534 C144.332117,49.1285188 136.759837,66.0331711 123.823136,65.6849617 C111.756003,65.3610662 94.7213978,48.5046075 92.1139941,45.8513565 C91.9371403,46.0146067 91.7568274,46.1739494 91.5721903,46.3289503 C94.0788436,48.904918 109.524359,64.3238192 121.798615,66.2194327 C122.477059,66.3245033 123.146854,66.3878931 123.80411,66.4056943 C137.223807,66.7664948 144.987211,49.4233245 145.064612,49.2479173 L144.407356,48.9574534 Z" id="Fill-7" fill="#63C0C4"></path>
                        <path d="M81.223003,39.3015038 L90.3545371,39.2520077 C90.3545371,39.2520077 89.6592295,36.4632937 89.9195374,34.3215022 C90.0181258,33.5121977 90.5071762,32.7966753 91.1955653,32.3638015 C100.145489,26.7455609 97.9510326,20.3275676 97.9510326,20.3275676 C97.9510326,20.3275676 96.977256,12.1789477 85.4735466,11.4521367 C73.2092364,10.6771321 74.0018352,21.6157685 74.0018352,21.6157685 C74.0018352,21.6157685 73.4751656,27.7068271 79.8591968,31.8063192 C80.7724367,32.3928914 81.3522921,33.382379 81.489797,34.4621754 C81.8352888,37.1740402 81.223003,39.3015038 81.223003,39.3015038" id="Fill-9" fill="#FED147"></path>
                        <path d="M90.3546236,39.2296477 L90.372397,42.5137568 C90.3792707,43.7446465 89.583645,44.755843 88.6055443,44.7610531 L83.0448128,44.7914691 C82.0662797,44.7970897 81.2602763,43.7941426 81.2537902,42.5636871 L81.2360616,39.2791438 L90.3546236,39.2296477 Z" id="Fill-11" fill="#63C0C4"></path>
                        <polygon id="Fill-13" fill="#00898B" points="88.0302291 44.7643094 87.4097276 46.2682959 83.9517828 46.2873997 83.1877227 44.7907941"></polygon>
                        <path d="M89.792367,24.5537089 C89.0910057,25.6061521 87.9684817,25.9074705 86.8061764,25.8132542 L86.7953419,23.8130042 C86.7932042,23.4413494 86.9350331,23.083154 87.1975031,22.8209115 C87.665798,22.3528695 88.5003401,21.8574744 89.5381128,22.3771834 C90.1914771,22.7818356 90.26931,23.8381865 89.792367,24.5537089 M84.1650451,25.2153935 C83.2842356,24.9266663 82.0371788,24.3357524 81.9169701,23.4548088 C81.8875666,23.2398916 81.9805337,23.0193301 82.1409561,22.8734468 C83.6781567,21.4767018 84.1434248,23.9801621 84.1365063,24.2940715 C84.1698015,24.5971265 84.1685043,24.9066942 84.1650451,25.2153935 M90.3263875,24.6570429 C91.7010038,22.0537221 88.2798135,20.7846249 86.6738603,22.5712602 C86.383284,22.8942873 86.2544273,23.331937 86.2479412,23.7674157 C86.237131,24.5385127 86.2544273,25.7394443 86.2544273,25.7394443 C85.7692686,25.6582533 85.2300592,25.5327764 84.8205714,25.4142462 C84.8370028,24.6700682 84.8244631,23.9007078 84.6069632,23.2611662 C83.6401051,20.420351 80.0113602,22.6394258 82.1409561,24.6626872 C82.6395193,25.1363734 83.3724462,25.4889246 84.1624506,25.7420493 C84.2251494,30.2401153 84.2874158,34.737747 84.3496821,39.2353788 L84.9732105,39.2323396 C84.9351588,36.4675052 84.8966748,33.703105 84.8586231,30.9387048 C84.8387324,29.5041865 84.8188418,28.069234 84.7989512,26.6347157 C84.7954919,26.4093782 84.8015456,26.1697129 84.8080317,25.9244033 C85.2741645,26.0381575 85.739865,26.1180459 86.1843776,26.164937 L86.2544273,39.2253927 L86.878388,39.2219193 L86.8083384,26.211828 C86.9341683,26.2170381 87.0638899,26.2244191 87.1810717,26.2235508 C88.3671593,26.2144331 89.7344247,25.7780859 90.3263875,24.6570429" id="Fill-15" fill="#FEFEFE"></path>
                        <path d="M73.7809194,9.27908455 C73.9690156,9.08848117 73.967286,8.78151856 73.7774601,8.59308607 L69.1416434,3.98908113 C68.9518175,3.80064863 68.646107,3.80195116 68.4584431,3.99255454 C68.2707792,4.18315791 68.2725088,4.49012052 68.4623347,4.67855301 L73.0977191,9.28299213 C73.287545,9.47142462 73.5932555,9.46968792 73.7809194,9.27908455" id="Fill-17" fill="#FED147"></path>
                        <path d="M94.1334996,9.16823935 C93.9436737,8.97937268 93.9419441,8.67284425 94.1296079,8.48224088 L98.7152657,3.82787148 C98.9029295,3.63726811 99.2082077,3.63553141 99.3980336,3.8239639 C99.5878595,4.01239639 99.5895891,4.319359 99.4019252,4.50996237 L94.8162675,9.16433176 C94.629036,9.35493514 94.3228931,9.35667184 94.1334996,9.16823935" id="Fill-19" fill="#FED147"></path>
                        <g id="Group-23" transform="translate(84.886248, 0.000000)">
                            <mask id="mask-2" fill="white">
                                <use xlink:href="#path-1"></use>
                            </mask>
                            <g id="Clip-22"></g>
                            <path d="M0.521054185,7.51676902 C0.787848227,7.51546062 1.00275364,7.29750414 1.00146226,7.02918322 L0.965999192,0.48223956 C0.964269571,0.214352814 0.747202133,-0.00143278162 0.480408091,-0.000136118716 C0.213181644,0.00117227587 -0.00129136216,0.219128753 0,0.487449675 L0.0354630845,7.03439334 C0.0367603002,7.30228008 0.253827738,7.51806568 0.521054185,7.51676902" id="Fill-21" fill="#FED147" mask="url(#mask-2)"></path>
                        </g>
                        <path d="M47.3868594,74.6321619 C47.3868594,74.6321619 40.9340758,41.9087322 18.602074,34.9675565 C-1.76637546,54.4242968 16.3924832,80.532183 16.3924832,80.532183 L40.8999158,96.1998671 L47.3868594,74.6321619 Z" id="Fill-24" fill="#63C0C4"></path>
                        <path d="M38.3359256,51.8571863 L29.5330194,63.7188814 L19.127187,35.1418349 C18.9520628,35.0836552 18.7791007,35.0224364 18.602247,34.9677302 C18.522252,35.0441452 18.4478783,35.1218627 18.3687482,35.1982778 L23.9420195,50.5038589 L11.1886589,45.5169105 C11.1380675,45.6371773 11.0918001,45.7578783 11.0433707,45.8781451 L10.918838,46.1994356 L24.2767012,51.4225758 L33.5643336,76.929128 L10.9032714,68.8933939 C10.9984006,69.1908047 11.0943946,69.4856103 11.1934154,69.7752059 L33.8899348,77.8230969 L40.4854121,95.9351933 L40.8996563,96.1996066 L41.1085081,95.5062271 L29.8335411,64.5438163 L38.7458458,52.5345012 C38.6109353,52.3082954 38.4742953,52.0825237 38.3359256,51.8571863" id="Fill-26" fill="#FEFEFE"></path>
                        <g id="Group-30" transform="translate(0.000000, 73.830277)">
                            <mask id="mask-4" fill="white">
                                <use xlink:href="#path-3"></use>
                            </mask>
                            <g id="Clip-29"></g>
                            <path d="M37.2380054,13.0872925 C37.2380054,13.0872925 17.0961363,-6.05076237 0.267788574,1.95935525 C-3.98361989,39.9059253 43.7872154,48.0146009 43.7872154,48.0146009 L37.2380054,13.0872925 Z" id="Fill-28" fill="#00666A" mask="url(#mask-4)"></path>
                        </g>
                        <path d="M0.267788574,75.7905442 C0.251357174,75.9364274 0.237952611,76.0810081 0.223250833,76.2264571 L29.4067138,99.9598334 L9.43910402,104.35717 C9.63411879,104.566443 9.83129558,104.773546 10.0306344,104.978911 L30.1344519,100.551616 L41.5330868,109.821713 L41.3238027,108.70588 L19.1314678,90.6571731 L17.4273587,75.1457924 C17.174834,75.0689432 16.9214445,74.9951333 16.6667578,74.9239284 L18.32287,90.0002645 L0.642251524,75.6212154 C0.517718811,75.6776583 0.392753692,75.7301937 0.268220979,75.7896758 L0.267788574,75.7905442 Z" id="Fill-31" fill="#00898B"></path>
                        <polygon id="Fill-33" fill="#F39F85" points="135.405414 25.2437886 136.033266 33.2235139 143.831695 33.5621714 140.689838 21.1916217"></polygon>
                        <path d="M132.071137,26.7020998 C131.081793,26.6747467 130.165094,26.5258243 129.685125,26.1333289 C126.831682,21.9665395 130.082073,10.7339657 130.082073,10.7339657 L134.642651,8.80578902 L140.438178,12.4350683 L140.767671,19.9623819 C140.855882,21.9717496 139.895077,23.8994921 138.180158,25.1546957 C136.344598,26.1889035 134.22538,26.761582 132.071137,26.7020998" id="Fill-35" fill="#F6B58E"></path>
                        <path d="M139.524679,16.7012407 C139.206861,15.4364853 139.372472,12.5192551 138.090391,12.7298305 C137.155098,12.8835289 133.949246,13.0159527 132.870827,13.0159527 C130.300178,13.0159527 125.717979,12.0060587 125.717979,8.07850038 C125.717979,6.11472121 127.614941,4.42186801 128.816163,3.91865774 C129.995764,3.42413099 131.327573,3.44801068 132.533551,3.87133253 C135.364508,4.86429361 139.118218,7.05688367 140.615205,6.75426282 C143.133966,6.24584243 145.64624,7.72942268 145.611215,9.87816093 C145.573164,12.1732166 144.380158,15.6257861 143.256769,17.8192445 C142.606431,19.0883417 141.736864,20.2267518 140.689579,21.1914915 L139.524679,16.7012407 Z" id="Fill-37" fill="#212B53"></path>
                        <path d="M142.130915,16.9851051 C141.558411,16.4771189 140.485613,16.573506 139.736255,17.2000224 C138.986464,17.8265387 138.842906,18.746124 139.415843,19.2541102 C139.988347,19.7620964 141.060712,19.6657093 141.810503,19.039193 C142.560294,18.4126766 142.703852,17.4930913 142.130915,16.9851051" id="Fill-39" fill="#F6B58E"></path>
                        <path d="M139.618381,28.4661579 C157.465908,24.7504776 154.355617,93.6433939 154.355617,93.6433939 L126.122581,84.0902139 C126.122581,84.0902139 125.718282,73.7598584 124.686131,60.6603268 C123.810942,49.550625 130.017687,37.0046681 139.618381,28.4661579" id="Fill-41" fill="#93CEC6"></path>
                        <path d="M90.2992757,47.0571073 C89.9096786,47.0184656 88.5830593,46.7592624 86.4556254,45.0047562 C84.5465562,43.4304331 81.5318268,38.9896784 80.5550233,41.4414717 C81.3597295,44.0078875 81.9988245,47.1174578 81.9988245,47.1174578 C82.637487,48.6218785 85.0031762,50.0129792 86.6402625,50.598683 L91.8887974,51.7917993 C91.8887974,51.7917993 93.9703963,50.2074902 94.0823893,50.1506131 L93.6257693,49.1059851 C92.4085486,48.6010381 91.2916458,47.8989751 90.2992757,47.0571073" id="Fill-43" fill="#F6B58E"></path>
                        <path d="M88.9400098,47.2481015 C88.9400098,47.2481015 88.7977485,47.2767571 88.5383053,47.2693761 C88.6814315,47.5928374 88.804667,47.9202063 88.9162275,48.2488777 C89.8173601,49.1762782 90.6890891,50.1305976 91.5798439,51.0671158 C92.0407879,50.4757677 92.6893958,49.6473594 92.7460409,49.596995 L88.1253583,42.3015315 C88.1253583,42.3015315 87.0244545,42.4626108 87.4620486,44.2179854 C87.8996428,45.9729258 88.9400098,47.2481015 88.9400098,47.2481015" id="Fill-45" fill="#F6B58E"></path>
                        <path d="M143.831825,48.0541497 C143.831825,48.0541497 138.952131,66.3125635 125.717936,67.9941281 C112.484606,69.6756927 90.7112714,52.858744 90.7112714,52.858744 L93.1042021,48.0541497 L116.075731,54.5133897 C119.573457,55.4972331 123.283927,53.9207392 125.017007,50.7147817 L131.936788,37.9143975 L143.831825,48.0541497 Z" id="Fill-47" fill="#93CEC6"></path>
                        <path d="M104.102905,56.7879088 C104.176847,54.8588638 104.607955,53.088293 105.313208,51.487051 L93.1042454,48.0540194 L90.7113147,52.859048 C90.7113147,52.859048 96.8886561,57.6293424 104.662438,61.8347736 C104.237816,60.163195 104.039774,58.4534089 104.102905,56.7879088" id="Fill-49" fill="#93CEC6"></path>
                        <path d="M143.485122,47.960411 C143.436693,48.1410283 138.512462,66.0052101 125.673485,67.6364103 C113.697156,69.158198 94.3081048,55.0982686 91.3296974,52.8739836 C91.1792204,53.0624161 91.0252841,53.2478094 90.866159,53.4288609 C93.7338707,55.5923611 111.334494,68.4739363 123.753173,68.4739363 C124.439833,68.4739363 125.11179,68.4344262 125.763857,68.3514986 C139.081939,66.6590795 144.128541,48.3320659 144.1787,48.1471068 L143.485122,47.960411 Z" id="Fill-51" fill="#00898B"></path>
                        <path d="M86.8907116,50.6558206 L91.1914142,51.6331513 C91.6047937,50.5863524 92.1336253,49.6077191 92.7619101,48.7046325 C91.8767766,48.2522209 91.0521797,47.6956069 90.2993622,47.0569337 C89.9101975,47.0187262 88.5870374,46.7590888 86.466522,45.0128319 C86.840985,46.5923651 87.0100554,48.2014223 86.9503835,49.7705352 C86.9387086,50.0696827 86.9188179,50.3644883 86.8907116,50.6558206" id="Fill-53" fill="#F6B58E"></path>
                        <path d="M92.465972,49.1548299 L88.125488,42.3013578 C88.125488,42.3013578 87.0245842,42.4624372 87.4621784,44.2178118 C87.8993401,45.9727522 88.9401395,47.2479278 88.9401395,47.2479278 C88.9401395,47.2479278 88.7978782,47.2765834 88.538435,47.2696366 C88.6815612,47.5930979 88.8043643,47.9200326 88.9167896,48.2491382 C89.7828974,49.1409362 90.6234932,50.0574823 91.4792232,50.9597005 C91.7659079,50.3305792 92.0966979,49.7288109 92.465972,49.1548299" id="Fill-55" fill="#F6B58E"></path>
                        <polygon id="Fill-57" fill="#63C0C4" points="135.405414 32.713791 135.405414 28.7905744 141.928247 26.0682893 144.299557 29.0858143"></polygon>
                        <path d="M80.642153,103.912748 C80.6110198,103.902327 80.5807514,103.885829 80.5543747,103.862817 C80.4432466,103.767733 80.4302744,103.600141 80.5249712,103.488123 C80.824628,103.136875 81.155418,102.813413 81.5082607,102.52816 C81.6219833,102.435246 81.7880269,102.453481 81.8801292,102.568104 C81.9717991,102.682292 81.9536381,102.84945 81.8399155,102.941495 C81.5125848,103.205909 81.205577,103.505925 80.927108,103.833293 C80.8548964,103.918392 80.7411738,103.946179 80.642153,103.912748" id="Fill-59" fill="#63C0C4"></path>
                        <path d="M88.3017364,109.866563 C88.2476858,109.848328 88.1983916,109.812291 88.1650963,109.760624 C88.0851014,109.637752 88.1192614,109.473199 88.2411997,109.392877 C89.0342309,108.871865 90.0248713,108.627424 90.9592991,108.72164 C91.1037225,108.736837 91.2105266,108.866221 91.1958248,109.012538 C91.1815554,109.158422 91.0514014,109.264795 90.9061133,109.250033 C90.1022719,109.168842 89.2141115,109.388101 88.5309112,109.837039 C88.4604291,109.883496 88.3761101,109.891745 88.3017364,109.866563 M93.289531,112.172907 C93.1749436,112.1347 93.0979755,112.020946 93.1105152,111.895469 C93.1736464,111.24377 93.0309527,110.672394 92.6858933,110.19784 C92.563955,110.030682 92.4186668,109.881759 92.2539204,109.755414 C92.1380358,109.666408 92.1155508,109.499684 92.2041938,109.383759 C92.2924045,109.266966 92.4593129,109.243954 92.5747651,109.333395 C92.7797252,109.491001 92.960903,109.676394 93.1126773,109.884364 C93.5308131,110.459214 93.7119909,111.173 93.63632,111.947136 C93.6224831,112.093019 93.4927615,112.199826 93.3474733,112.185499 C93.3275827,112.183762 93.307692,112.178986 93.289531,112.172907 M78.8536816,107.759072 C78.7304461,107.717391 78.653478,107.590177 78.6776927,107.458622 C78.753796,107.045286 78.8597353,106.635424 78.9916189,106.239889 C79.1511764,105.760558 79.3522449,105.296424 79.5887705,104.860077 C79.6579554,104.730692 79.8179453,104.682499 79.9472345,104.753704 C80.0756589,104.823172 80.122791,104.984685 80.0531738,105.113202 C79.8317823,105.52263 79.6432536,105.958543 79.493209,106.408349 C79.3691087,106.780873 79.2696555,107.166421 79.1978762,107.555443 C79.1714995,107.69959 79.0331298,107.795108 78.8895712,107.768189 C78.8770315,107.765584 78.8649241,107.762545 78.8536816,107.759072 M85.768274,113.253138 C85.7596259,113.250533 85.7514102,113.247059 85.7431945,113.243152 C85.6095813,113.182801 85.5507742,113.025195 85.6108785,112.891903 C86.0636068,111.888088 86.5063898,111.137831 87.0049531,110.529984 C87.0979202,110.417533 87.2648286,110.401468 87.377254,110.493948 C87.4901117,110.587296 87.5061107,110.754888 87.4131436,110.868208 C86.9452811,111.438281 86.525848,112.151199 86.0930104,113.110728 C86.0363653,113.236205 85.8954012,113.295687 85.768274,113.253138 M91.06913,115.695379 C91.0181062,115.678012 90.9718389,115.645449 90.9381112,115.59769 C90.8533598,115.478725 90.8806013,115.31287 90.9995128,115.227771 C91.1802582,115.097953 91.3549499,114.958148 91.5183991,114.813133 C91.9832347,114.400232 92.3806152,113.887469 92.6677323,113.328685 C92.7343227,113.198432 92.894745,113.147633 93.0236018,113.214062 C93.1537558,113.281359 93.2043472,113.44157 93.1377568,113.571823 C92.8212361,114.188788 92.3823448,114.755822 91.8686474,115.210839 C91.6917936,115.36801 91.5028325,115.519104 91.3069529,115.659343 C91.2356061,115.71101 91.146963,115.720996 91.06913,115.695379 M79.1222053,111.997934 C79.0461019,111.972752 78.982106,111.912402 78.9548644,111.829474 C78.669477,110.9672 78.525486,110.051522 78.526347,109.107189 C78.526347,108.960872 78.6448299,108.841907 78.7909828,108.84234 C78.9371358,108.841907 79.0551825,108.961306 79.0551825,109.108057 C79.0538852,109.994645 79.1892281,110.85388 79.4568869,111.662316 C79.5027219,111.801687 79.4279158,111.951912 79.2895461,111.997934 C79.232901,112.016604 79.1745263,112.015736 79.1222053,111.997934 M87.0784619,117.07085 C86.9798735,117.037852 86.9054998,116.946675 86.8985814,116.835526 C86.8895008,116.689209 87.0001966,116.563298 87.1463496,116.553746 C88.0297535,116.498605 88.8729437,116.304963 89.6530028,115.977594 C89.7874809,115.920717 89.9427143,115.984541 89.9993594,116.120438 C90.0555721,116.255901 89.9920085,116.410902 89.8570981,116.467779 C89.022556,116.818159 88.1214234,117.024827 87.1792124,117.083875 C87.1441875,117.086046 87.1100275,117.08127 87.0784619,117.07085 M81.5531876,115.448333 C81.5263785,115.43965 81.5004342,115.42619 81.4770843,115.407955 C81.0174375,115.055838 80.6044905,114.655093 80.248621,114.217443 C80.0272295,113.943912 79.8231342,113.649975 79.641524,113.343881 C79.5667179,113.21797 79.6082288,113.054719 79.7336263,112.980041 C79.8594562,112.90406 80.0216082,112.946609 80.0959819,113.072086 C80.2641875,113.356038 80.4540134,113.6287 80.6589735,113.881825 C80.9880339,114.288214 81.3715774,114.659001 81.7974966,114.985501 C81.9138136,115.074507 81.9362987,115.241231 81.8476556,115.35759 C81.7771735,115.450504 81.6573973,115.483935 81.5531876,115.448333 M84.2375594,117.258848 C84.1000546,117.212825 84.0256808,117.064771 84.0693538,116.926703 C84.0892444,116.864182 84.1091351,116.802963 84.1294581,116.740876 C83.7044037,116.615399 83.2879975,116.457359 82.8923467,116.26936 C82.7604631,116.207273 82.703818,116.048365 82.7660843,115.915941 C82.8287831,115.783951 82.9857462,115.724903 83.1184946,115.789596 C83.4951196,115.968042 83.8920676,116.118267 84.2980962,116.237231 C84.4987322,115.653698 84.7248801,115.045417 84.9864853,114.38764 C85.0401036,114.251309 85.1957695,114.185314 85.3293827,114.238718 C85.4651579,114.29299 85.5313159,114.447991 85.4772653,114.583454 C85.2256054,115.218654 85.0068084,115.806528 84.812226,116.369655 C85.0703719,116.426966 85.3315447,116.472555 85.5948795,116.505118 C85.7427621,116.52509 85.8430801,116.656211 85.8249191,116.80166 C85.8067581,116.947544 85.6744421,117.050443 85.5295863,117.032642 C85.2307943,116.995303 84.9345967,116.942768 84.6422907,116.87547 C84.6185085,116.946241 84.5960234,117.017446 84.5731059,117.088217 C84.5285682,117.228021 84.3798208,117.304871 84.2405863,117.260151 C84.2397215,117.259716 84.2384242,117.259282 84.2375594,117.258848 M83.3026993,121.441268 C83.1872471,121.402192 83.1098465,121.286701 83.1241159,121.159922 C83.2188126,120.313278 83.3857211,119.414099 83.6209495,118.488001 C83.6568392,118.345591 83.8008301,118.260058 83.9422266,118.296529 C84.0784343,118.329092 84.1696718,118.477147 84.1333498,118.619122 C83.9046074,119.521775 83.7415906,120.396206 83.6494883,121.21897 C83.6334893,121.364419 83.5029029,121.469923 83.3576147,121.453425 C83.3385889,121.451254 83.3199955,121.446912 83.3026993,121.441268 M83.4756614,125.710089 C83.3904775,125.681433 83.3221575,125.610662 83.3009696,125.516012 L83.2745929,125.390101 C83.1072521,124.561258 83.0237979,123.687696 83.0276895,122.793293 C83.0281219,122.646975 83.1470334,122.528011 83.2931863,122.528875 C83.4389069,122.528445 83.5569536,122.648712 83.5560887,122.795029 C83.5530619,123.65383 83.6321921,124.491356 83.7930468,125.283728 L83.8176939,125.400521 C83.8492595,125.543365 83.7593192,125.685775 83.6166255,125.717904 C83.5681961,125.72789 83.5197667,125.724851 83.4756614,125.710089 M85.2926282,129.556456 C85.2450637,129.540392 85.2013907,129.510868 85.1685279,129.467884 C84.6038067,128.743678 84.1407006,127.944794 83.7930468,127.093374 C83.7372665,126.957477 83.8025597,126.802476 83.9374702,126.746467 C84.0723806,126.690893 84.2271817,126.755585 84.2825296,126.891482 C84.6120224,127.697748 85.0500489,128.454951 85.5849342,129.141384 C85.6748745,129.256874 85.6545514,129.423598 85.5395316,129.513473 C85.46732,129.570784 85.3739204,129.583809 85.2926282,129.556456 M88.6273376,132.166724 C88.6221487,132.164553 88.6169598,132.16325 88.611771,132.161079 C87.7884714,131.825027 87.0075475,131.326593 86.291052,130.680104 C86.1829507,130.581546 86.1738702,130.413954 86.2715937,130.304542 C86.3693173,130.195129 86.5362258,130.188183 86.6451919,130.28457 C87.3158524,130.890246 88.0444553,131.356117 88.8106774,131.668724 C88.9460202,131.724298 89.0113134,131.878865 88.956398,132.014762 C88.9036445,132.145449 88.7587888,132.21101 88.6273376,132.166724" id="Fill-61" fill="#63C0C4"></path>
                        <path d="M90.1983523,132.588743 C90.0807381,132.549233 90.0033376,132.430269 90.0202014,132.302621 C90.0392272,132.156738 90.1719756,132.05514 90.3168314,132.073376 C90.7353997,132.128516 91.1595892,132.1372 91.5772927,132.098124 C91.7230133,132.08423 91.85187,132.19234 91.8652746,132.338223 C91.8786792,132.484107 91.7718751,132.613491 91.6261545,132.626951 C91.1691021,132.6695 90.7051313,132.660382 90.2480789,132.600466 C90.2307827,132.597861 90.2143513,132.593953 90.1983523,132.588743" id="Fill-63" fill="#63C0C4"></path>
                        <path d="M79.6244872,61.2966989 C78.8444281,61.055297 77.9307558,61.0917678 77.1801003,61.3935202 C77.0447575,61.4477923 76.8903888,61.3817975 76.8363381,61.2454661 C76.7818551,61.1091348 76.8488779,60.9554364 76.9833559,60.900296 C77.8555173,60.5494816 78.8746965,60.5091032 79.7805855,60.7891469 C79.91982,60.8325645 79.9980853,60.9810528 79.9552772,61.1212917 C79.9371162,61.1803397 79.8999294,61.2285333 79.8527972,61.2615307 C79.7883688,61.3058166 79.705347,61.321447 79.6244872,61.2966989 M75.6437644,64.8929808 C75.5084216,64.9468187 75.3544853,64.8803897 75.3004347,64.7440584 C75.0146148,64.0211549 74.9916973,63.2852262 75.2351415,62.6165947 C75.3233521,62.3738902 75.4461552,62.1455135 75.6000915,61.9375431 C75.6865726,61.8194471 75.8526162,61.7946991 75.969798,61.8824027 C76.0869798,61.9696721 76.1116269,62.1359616 76.0247135,62.2540576 C75.901478,62.4207813 75.8028896,62.6044378 75.7319751,62.7985146 C75.5313391,63.3507868 75.5516621,63.9395298 75.7920794,64.5482449 C75.8383468,64.6654725 75.7959711,64.7957253 75.6969503,64.8643252 C75.6805189,64.8756138 75.6627903,64.8851656 75.6437644,64.8929808 M88.3179948,56.6275676 C88.1874085,56.692694 88.0282833,56.6397245 87.9629901,56.5086033 C87.7865688,56.1547496 87.5850679,55.8117504 87.3628116,55.4887233 C87.0947204,55.0983988 86.7933339,54.7315199 86.4677328,54.3998092 C86.3648203,54.2956069 86.3661175,54.1275807 86.4703272,54.0246809 C86.5745369,53.9204786 86.7414453,53.9222154 86.8439253,54.027286 C87.1915792,54.3807055 87.5128563,54.7710299 87.7986761,55.1874049 C88.034337,55.5304042 88.24881,55.8951122 88.4360415,56.2711089 C88.4957134,56.3909415 88.4567969,56.5342197 88.3499928,56.6084638 C88.3400475,56.6149764 88.3292374,56.6214891 88.3179948,56.6275676 M82.870121,63.7645567 C82.1895152,62.962199 81.5897691,62.3942965 80.9831045,61.976619 C80.8624635,61.8936913 80.8317627,61.7282701 80.9139197,61.607135 C80.9969415,61.4868681 81.1616879,61.4556075 81.2818965,61.5385351 C81.9287748,61.9835658 82.5609513,62.5814265 83.2731227,63.4198208 C83.3673871,63.5314041 83.3544149,63.6989961 83.2432868,63.7940807 C83.2363683,63.8001592 83.2290174,63.8058035 83.2216665,63.8110136 C83.1109708,63.8874286 82.9591965,63.8691932 82.870121,63.7645567 M78.5629323,67.6634595 C78.336352,67.5831369 78.1127984,67.4902231 77.8996227,67.3886259 C77.2808507,67.0938202 76.7027249,66.6713667 76.2283763,66.1664198 C76.1280583,66.0600466 76.1328148,65.8915862 76.2391865,65.7912915 C76.3446934,65.6909968 76.512899,65.6953385 76.6127846,65.8021459 C77.0425954,66.2593335 77.5662382,66.6418427 78.1266354,66.9088611 C78.3238122,67.0026432 78.5296371,67.0881759 78.7393537,67.1628542 C78.8772909,67.211482 78.9490702,67.3634437 78.9006408,67.5015117 C78.8811826,67.5562179 78.8457253,67.6009381 78.80162,67.6313304 C78.7341648,67.6782215 78.6459541,67.6925493 78.5629323,67.6634595 M89.1006484,60.8030405 C88.9549278,60.7973963 88.8412052,60.6732219 88.8468265,60.5269045 C88.8809865,59.675919 88.7741824,58.8123424 88.5285762,57.9604886 C88.4879301,57.8198155 88.5687899,57.6721956 88.7088892,57.6318172 C88.8494209,57.5910047 88.9960063,57.6721956 89.0366524,57.8133029 C89.2978252,58.7198629 89.4119801,59.6403166 89.3756581,60.5481791 C89.3721989,60.6354485 89.3272287,60.710561 89.2610707,60.7561495 C89.2156682,60.7878444 89.1598879,60.8052114 89.1006484,60.8030405 M82.9224421,67.884021 C82.0009865,68.0893864 81.0782337,68.1410533 80.1796956,68.0364169 C80.0344074,68.0199182 79.9306301,67.8883628 79.9470615,67.7424795 C79.9639253,67.5961621 80.0953765,67.4919598 80.2397999,67.5093269 C81.0799633,67.6065824 81.943909,67.5579546 82.8078547,67.3656146 C82.9505484,67.3339197 83.0919449,67.4242284 83.1235105,67.5670723 C83.1472928,67.6760506 83.1014579,67.7837263 83.0154092,67.8436426 C82.9881677,67.8623122 82.9570345,67.87664 82.9224421,67.884021 M87.5695014,64.7427558 C87.4523195,64.6554864 87.4276724,64.4891969 87.5150183,64.371101 C87.8341334,63.9390956 88.1000626,63.4758295 88.3041579,62.9938939 C88.4317174,62.6934439 88.5385215,62.3791003 88.6219757,62.0591124 C88.6587302,61.9180052 88.8031535,61.8320383 88.9449825,61.8698116 C89.0859466,61.9067166 89.170698,62.0521656 89.1335112,62.1937071 C89.0435709,62.5388772 88.9285511,62.8779688 88.7910462,63.2018643 C88.5700871,63.7220075 88.2834024,64.2221785 87.9392078,64.6880496 C87.9214792,64.7119293 87.9007238,64.7319014 87.8769415,64.747966 C87.7865688,64.8109215 87.6624685,64.812224 87.5695014,64.7427558 M85.7944778,67.23623 C85.6729719,67.3178552 85.5090903,67.285292 85.4273657,67.1632884 C85.3862872,67.1016354 85.3447763,67.0395482 85.302833,66.9778952 C85.040363,67.1237784 84.7701097,67.2570705 84.492938,67.3760348 C84.3588923,67.4337802 84.2032264,67.3712588 84.1457165,67.23623 C84.0882066,67.1016354 84.1487434,66.9475028 84.284951,66.8875865 C84.5288276,66.78295 84.7675153,66.6665908 84.9997169,66.538943 C84.6576844,66.0522314 84.284951,65.548587 83.86768,65.0084717 C83.7781721,64.8929808 83.7993599,64.725823 83.9148121,64.6359485 C84.0285347,64.5469423 84.196308,64.5669145 84.2858159,64.6832737 C84.7182211,65.2429269 85.1034942,65.7643725 85.4572017,66.2693195 C85.8143684,66.0422453 86.1546714,65.7869497 86.4673004,65.5108136 C86.5771313,65.4122556 86.7440397,65.4248467 86.8404661,65.5346933 C86.9373249,65.6445399 86.9265147,65.8125661 86.8171162,65.9093874 C86.4884882,66.1994172 86.1321863,66.4673039 85.7581557,66.7061008 C85.7949102,66.7599387 85.8307998,66.8137765 85.8671219,66.8680486 C85.9475492,66.9887496 85.9164161,67.1515657 85.7975046,67.2340592 C85.7966398,67.2349275 85.7953426,67.2353617 85.7944778,67.23623 M87.7999734,71.020076 C87.6646305,71.0756506 87.5102618,71.0113925 87.4544816,70.8759295 C87.1392581,70.110911 86.7414453,69.3159343 86.272718,68.512274 C86.1983443,68.3854946 86.2450441,68.2183367 86.3669823,68.1488685 C86.4928123,68.0746244 86.6549642,68.1171736 86.7289055,68.2435189 C87.2101726,69.0680196 87.6187956,69.8855735 87.9430995,70.672735 C87.9919613,70.790831 87.9491532,70.9232547 87.8492676,70.9927229 C87.8341334,71.0031432 87.8172696,71.0122609 87.7999734,71.020076 M88.7270502,75.1894706 C88.5813296,75.1981541 88.4554997,75.0865708 88.4464192,74.9406876 L88.4377711,74.8208549 C88.3737751,74.0150238 88.218974,73.1883522 87.9789891,72.3642857 C87.9379106,72.2240468 88.0179056,72.0755585 88.1584373,72.0351801 C88.2985366,71.9939334 88.4455544,72.0746902 88.4866329,72.2157974 C88.7369955,73.0737297 88.8978503,73.9364379 88.9657379,74.779174 L88.9748184,74.9076902 C88.9804397,75.0040773 88.9346047,75.0913467 88.860231,75.1430137 C88.8221794,75.1694985 88.7763444,75.1859972 88.7270502,75.1894706 M87.9266681,79.3714562 C87.7908928,79.31675 87.7255996,79.1621832 87.7805151,79.0258519 C88.1048191,78.2178499 88.31713,77.3686012 88.4113944,76.5019854 C88.426961,76.3565363 88.5579798,76.2514657 88.7028355,76.267096 C88.8481237,76.2831605 88.9531982,76.4142818 88.9371992,76.560165 C88.837746,77.4749743 88.6133276,78.3715483 88.2704303,79.2247046 C88.250972,79.2750691 88.2172444,79.3150133 88.1757335,79.3441031 C88.1052515,79.3927308 88.0118519,79.4061903 87.9266681,79.3714562 M85.3335338,82.7250335 C85.2431611,82.6095427 85.2630517,82.4432532 85.3780715,82.3520762 C86.0279766,81.8384456 86.5996164,81.1880496 87.0769918,80.4195577 C87.1548247,80.2966858 87.3174091,80.2567416 87.4415094,80.3348933 C87.5651773,80.413045 87.603229,80.5767295 87.5258284,80.7009039 C87.0160226,81.5219312 86.4033044,82.2179157 85.7049699,82.7697537 C85.7006458,82.7732271 85.6958894,82.7762663 85.6911329,82.7797398 C85.5774103,82.8587598 85.4200148,82.8357485 85.3335338,82.7250335" id="Fill-65" fill="#63C0C4"></path>
                        <polygon id="Fill-67" fill="#825B46" points="56.3907475 59.7486869 53.1196018 67.0858314 47.7953959 62.2690801 51.5512679 51.580095"></polygon>
                        <path d="M58.2829529,60.2136029 C59.1767346,60.3330013 60.0251137,60.3225811 60.5197853,60.0073692 C63.7572034,56.3251204 62.6459219,45.480266 62.6459219,45.480266 L58.8567547,42.2009328 L53.0616595,44.9167053 L51.5512679,50.8766426 C51.1482662,52.8430269 51.7008801,56.2916888 53.0404716,57.7826501 C54.5236216,59.0738902 56.3366969,59.9526629 58.2829529,60.2136029" id="Fill-69" fill="#9E7059"></path>
                        <path d="M59.1542928,99.1109754 C59.1542928,99.1109754 60.4631835,101.019614 63.0818297,101.922701 C65.7000435,102.825787 85.1958992,98.7180459 85.1958992,98.7180459 L89.1117612,99.1305134 C91.1600649,99.6897324 93.3329013,99.5768466 95.3128849,98.8083546 L101.047011,96.582333 L67.4102063,95.8776649 L54.5357722,79.8218272 L59.1542928,99.1109754 Z" id="Fill-71" fill="#825B46"></path>
                        <path d="M47.7952229,62.2689498 C47.7952229,62.2689498 40.0231709,72.2636871 38.2079336,78.8362471 C36.3926964,85.408373 35.7384672,103.523943 35.7384672,103.523943 L52.0928987,103.523943 C52.0928987,103.523943 56.7888198,94.9771834 60.4339961,87.2232297 C61.5279814,84.8969134 61.5703571,82.2093624 60.5356113,79.855693 C57.8659413,73.7837381 53.8571122,65.4319238 53.8571122,65.4319238 L47.7952229,62.2689498 Z" id="Fill-73" fill="#00898B"></path>
                        <path d="M50.6375091,120.800684 C51.9053214,109.354496 52.0929852,103.523943 52.0929852,103.523943 L35.7381213,103.523943 C35.7381213,103.523943 27.2439525,110.384362 27.2439525,120.571873 C27.2439525,120.645683 27.2465469,120.725137 27.2469793,120.800684 L50.6375091,120.800684 Z" id="Fill-75" fill="#12375A"></path>
                        <polygon id="Fill-77" fill="#93CEC6" points="101.96704 96.5822461 75.2482866 96.5822461 75.2482866 94.6102176 100.78052 94.6102176 112.123374 72.955243 113.861211 73.8726574"></polygon>
                        <path d="M40.3898505,80.5884956 C40.3898505,80.5884956 48.922071,100.534553 53.0242997,100.534553 C57.1260959,100.534553 79.830831,90.7838223 79.830831,90.7838223 L79.2280581,87.3803147 L56.0450828,91.3239376 C56.0450828,91.3239376 53.9876986,85.821622 52.5646529,79.5191195 C52.000364,77.0186985 50.0731338,74.9811094 47.5634537,74.5052522 C42.0827171,73.4658343 40.3898505,80.5884956 40.3898505,80.5884956" id="Fill-79" fill="#9E7059"></path>
                        <path d="M51.7149333,48.9311857 C51.7149333,48.9311857 54.2449365,50.4673013 61.9914766,45.4803529 C63.1779966,45.7916572 61.2840616,34.5812265 51.2613402,37.8740192 C44.245565,40.179495 44.5819762,46.9986672 44.9058478,50.7712246 C45.2552312,54.8468371 43.1424992,57.536559 40.3517556,60.5176131 C38.011146,63.0175999 38.047468,67.6150922 36.4882147,70.0885943 C34.5692002,73.132604 32.5351659,72.9550259 31.0135318,76.0428874 C29.4209832,79.2748954 29.2026186,83.2272018 31.3352413,86.1283675 C32.5472732,87.7778031 35.3730415,91.7548575 39.8445443,90.3381404 C42.3546568,89.5427295 43.0309386,85.1436558 43.1407695,81.4366589 C43.2389255,78.1364853 44.8306093,75.0720693 47.4025557,73.0158106 C49.8149446,71.088068 52.4478602,68.4465397 53.1526808,65.6908231 C54.5355128,60.2840263 51.7149333,48.9311857 51.7149333,48.9311857" id="Fill-81" fill="#212B53"></path>
                        <path d="M50.8058013,49.1480567 C51.4025205,48.7325501 52.3512176,48.9865432 52.9241546,49.7150909 C53.497524,50.4432045 53.4780657,51.3710391 52.8809141,51.7865458 C52.2837624,52.2016183 51.3359301,51.9480594 50.7625607,51.2195116 C50.1896238,50.4905297 50.209082,49.5635634 50.8058013,49.1480567" id="Fill-83" fill="#9E7059"></path>
                        <path d="M91.9300921,89.1278741 C91.9863048,88.6385575 91.7173488,88.1705155 91.2680797,87.974702 L86.9077051,86.0721417 C85.828854,85.6019288 84.6150925,85.5472226 83.4990545,85.9193116 L79.1762992,87.361211 L78.5916873,87.3833539 L78.1264192,91.4220614 C78.9903649,91.103376 79.4962791,90.90626 79.4962791,90.90626 L82.2316747,89.9080888 C82.2316747,89.9080888 88.1980024,94.9866484 90.3301927,90.3752625 C90.9688553,94.9427966 92.2647738,94.4356788 92.2647738,94.4356788 L91.9300921,89.1278741 Z" id="Fill-85" fill="#9E7059"></path>
                        <path d="M47.8689048,45.005147 C48.7272292,48.1255717 53.1442489,49.6226114 57.7337983,48.3496066 C62.3242124,47.0766018 64.8148667,43.615783 64.4909952,40.3950635 C64.0655084,36.1648844 59.2160835,35.7775991 54.6256693,37.0510381 C50.0356875,38.3236087 47.0105804,41.8851564 47.8689048,45.005147" id="Fill-87" fill="#212B53"></path>
                        <path d="M118.20844,114.660737 C118.20844,114.660737 114.109671,81.549154 135.379686,69.6553298 C167.573986,96.5673105 141.128946,128.288227 141.128946,128.288227 L118.20844,114.660737 Z" id="Fill-89" fill="#00666A"></path>
                        <path d="M135.379642,69.6554601 C135.491635,69.7492422 135.600169,69.8430242 135.710865,69.9368063 L130.680694,108.925399 L150.998552,95.3248283 C151.037037,95.5953201 151.071629,95.8653777 151.103627,96.134567 L130.556594,109.888836 L129.10501,121.139646 L128.422242,120.733691 L131.315898,98.3058824 L120.652784,88.9580678 C120.733644,88.7062456 120.815368,88.4544233 120.900985,88.2030353 L131.428323,97.4318856 L134.982262,69.8881786 C135.11501,69.8108952 135.244732,69.7310068 135.37921,69.6554601 L135.379642,69.6554601 Z" id="Fill-91" fill="#00898B"></path>
                        <path d="M137.413287,97.329724 C144.731746,89.7190485 155.805212,81.3559456 168.693051,82.0775465 C181.001467,107.376997 154.987102,125.448715 154.987102,125.448715 L126.650721,131.544115 L127.342569,120.471752 C127.883508,111.808199 131.408476,103.574481 137.413287,97.329724" id="Fill-93" fill="#00898B"></path>
                        <path d="M144.397238,90.9815896 L148.521087,105.143116 L168.141907,82.057531 C168.32568,82.0644778 168.508587,82.067517 168.693224,82.0775031 C168.741653,82.1773636 168.784029,82.2754875 168.831594,82.375348 L158.322849,94.739385 L171.972586,94.5279412 C171.978207,94.6581941 171.979504,94.7867103 171.983396,94.916529 L171.988585,95.2599624 L157.69197,95.4813923 L140.179124,116.086963 L164.14778,116.482497 C163.95536,116.727807 163.763372,116.969643 163.571384,117.205835 L139.565541,116.809432 L127.129566,131.441172 L126.650894,131.544072 L126.695864,130.822471 L147.955068,105.809577 L143.779331,91.4717746 C143.983858,91.3072218 144.190116,91.1439715 144.397238,90.9815896" id="Fill-95" fill="#00666A"></path>
                        <path d="M157.507462,120.189277 C162.683353,120.761956 167.768871,122.58593 171.703759,126.642005 C162.543254,163.602995 115.073805,154.512646 115.073805,154.512646 L126.152892,136.039749 C132.693022,125.134979 144.906308,118.794269 157.507462,120.189277" id="Fill-97" fill="#FED147"></path>
                        <path d="M171.703802,126.642569 C171.668345,126.784979 171.630726,126.924784 171.594404,127.065891 L136.094365,139.07043 L153.240963,150.149739 C152.985844,150.277821 152.729427,150.40243 152.472579,150.524868 L135.209664,139.369143 L121.343724,144.058247 L121.925742,143.087863 L148.921234,133.959307 L155.883824,120.051339 C156.146294,120.067838 156.408764,120.087376 156.671234,120.109519 L149.904524,133.626728 L171.411929,126.353842 C171.50922,126.450229 171.607376,126.543143 171.703802,126.641701 L171.703802,126.642569 Z" id="Fill-99" fill="#FEFEFE"></path>
                        <mask id="mask-6" fill="white">
                            <use xlink:href="#path-5"></use>
                        </mask>
                        <g id="Clip-102"></g>
                        <polygon id="Fill-101" fill="#00898B" mask="url(#mask-6)" points="44.5563346 140.320119 88.5950801 140.320119 88.5950801 138.713667 44.5563346 138.713667"></polygon>
                        <polygon id="Fill-103" fill="#F6A506" mask="url(#mask-6)" points="41.4455247 118.398734 68.5819813 118.398734 75.4135519 137.977044 47.70805 137.977044"></polygon>
                        <polygon id="Fill-104" fill="#FED147" mask="url(#mask-6)" points="42.6025547 119.065672 67.8904788 119.065672 74.2567813 137.310193 48.438296 137.310193"></polygon>
                        <path d="M82.6152182,138.92459 L48.0284191,138.92459 C47.6578478,138.92459 47.3547317,138.620233 47.3547317,138.247709 L47.3547317,137.820914 C47.3547317,137.449259 47.6578478,137.144468 48.0284191,137.144468 L82.6152182,137.144468 C82.9857895,137.144468 83.2889055,137.449259 83.2889055,137.820914 L83.2889055,138.247709 C83.2889055,138.620233 82.9857895,138.92459 82.6152182,138.92459" id="Fill-105" fill="#F6A506" mask="url(#mask-6)"></path>
                        <path d="M59.8888196,138.92459 L47.7637438,138.92459 C47.5388931,138.92459 47.3546885,138.739631 47.3546885,138.513859 L47.3546885,137.555198 C47.3546885,137.329427 47.5388931,137.144468 47.7637438,137.144468 L59.8888196,137.144468 C60.2862,137.144468 60.6118011,137.470968 60.6118011,137.87041 L60.6118011,138.198647 C60.6118011,138.597655 60.2862,138.92459 59.8888196,138.92459" id="Fill-106" fill="#F6A506" mask="url(#mask-6)"></path>
                        <path d="M72.8477023,138.008305 C72.8477023,138.151583 72.7318177,138.267942 72.589124,138.267942 C72.4464303,138.267942 72.3305457,138.151583 72.3305457,138.008305 C72.3305457,137.865026 72.4464303,137.748667 72.589124,137.748667 C72.7318177,137.748667 72.8477023,137.865026 72.8477023,138.008305" id="Fill-107" fill="#FEDA70" mask="url(#mask-6)"></path>
                        <path d="M71.2943729,138.008305 C71.2943729,138.151583 71.1784883,138.267942 71.0357946,138.267942 C70.8931009,138.267942 70.7776487,138.151583 70.7776487,138.008305 C70.7776487,137.865026 70.8931009,137.748667 71.0357946,137.748667 C71.1784883,137.748667 71.2943729,137.865026 71.2943729,138.008305" id="Fill-108" fill="#F08713" mask="url(#mask-6)"></path>
                        <path d="M56.7490385,138.289 L55.2049194,138.289 C55.0371461,138.289 54.9000737,138.151366 54.9000737,137.982905 C54.9000737,137.814879 55.0371461,137.677245 55.2049194,137.677245 L56.7490385,137.677245 C56.9168118,137.677245 57.0538842,137.814879 57.0538842,137.982905 C57.0538842,138.151366 56.9168118,138.289 56.7490385,138.289" id="Fill-109" fill="#F6A506" mask="url(#mask-6)"></path>
                        <path d="M53.9821205,138.289 L52.4380014,138.289 C52.2702281,138.289 52.1331557,138.151366 52.1331557,137.982905 C52.1331557,137.814879 52.2702281,137.677245 52.4380014,137.677245 L53.9821205,137.677245 C54.1498938,137.677245 54.2869662,137.814879 54.2869662,137.982905 C54.2869662,138.151366 54.1498938,138.289 53.9821205,138.289" id="Fill-110" fill="#F08713" mask="url(#mask-6)"></path>
                        <polygon id="Fill-111" fill="#C59C6E" mask="url(#mask-6)" points="115.570509 115.303101 116.312949 121.333809 123.807829 117.285984 119.689169 109.272827"></polygon>
                        <path d="M110.016782,98.8315396 C110.016782,98.8315396 107.319006,113.011302 110.016782,115.303318 C112.714991,117.595335 117.811752,114.098913 117.811752,114.098913 L123.807916,107.067863 L114.21414,98.8315396 L110.016782,98.8315396 Z" id="Fill-112" fill="#D9B183" mask="url(#mask-6)"></path>
                        <path d="M105.819857,94.5453517 C105.819857,94.5453517 106.71926,100.035945 114.21414,100.035945 C116.131425,100.677223 116.567722,102.949267 116.57637,104.84792 C116.586315,107.049193 117.272975,105.579073 118.441334,107.441689 L119.988048,112.314449 C119.988048,112.314449 130.103304,102.242862 122.608423,95.920822 C115.113543,89.5992159 105.819857,94.5453517 105.819857,94.5453517" id="Fill-113" fill="#212B53" mask="url(#mask-6)"></path>
                        <path d="M111.515845,131.743315 L104.820482,140.172413 L82.4352943,137.951167 C82.4352943,137.951167 76.8391055,133.148309 73.2414938,133.549488 C69.6438821,133.951101 68.2446187,135.957864 68.2446187,135.957864 L81.0360309,141.376383 C81.0360309,141.376383 99.7237212,151.611654 109.217611,148.199463 C118.711501,144.78814 122.608337,138.813875 122.608337,138.813875 L111.515845,131.743315 Z" id="Fill-114" fill="#C59C6E" mask="url(#mask-6)"></path>
                        <path d="M118.586795,105.198778 C117.985319,104.819742 117.016732,105.069827 116.423039,105.757563 C115.829779,106.445298 115.836265,107.310177 116.437309,107.689213 C117.039217,108.068249 118.007804,107.818163 118.601064,107.130428 C119.194324,106.442259 119.188271,105.577379 118.586795,105.198778" id="Fill-115" fill="#D9B183" mask="url(#mask-6)"></path>
                        <path d="M113.430449,165.000174 L141.660891,165.000174 C141.156274,157.445941 139.933432,129.202776 130.779412,120.000845 C126.752855,115.952585 119.232463,115.725077 114.700423,119.193277 C106.67109,125.336871 101.622326,134.753719 101.622326,134.753719 L112.715251,141.823845 L113.430449,165.000174 Z" id="Fill-116" fill="#053C5D" mask="url(#mask-6)"></path>
                        <path d="M101.622499,134.753676 L94.9271362,143.182774 L72.5419486,140.961094 C72.5419486,140.961094 66.9457598,136.15867 63.3477157,136.559849 C59.7505364,136.961462 58.351273,138.968225 58.351273,138.968225 L71.1426852,144.386744 C71.1426852,144.386744 89.8303755,154.621581 99.3242652,151.209824 C108.818155,147.798501 112.714991,141.823802 112.714991,141.823802 L101.622499,134.753676 Z" id="Fill-117" fill="#D9B183" mask="url(#mask-6)"></path>
                    </g>
                </g>
            </g>
        </g>
    </g>
</svg>