<?xml version="1.0" encoding="UTF-8"?>
<svg width="320px" height="222px" viewBox="0 0 320 222" version="1.1" xmlns="http://www.w3.org/2000/svg" xmlns:xlink="http://www.w3.org/1999/xlink">
    <title>illus-file-not-found</title>
    <defs>
        <linearGradient x1="50%" y1="0%" x2="50%" y2="100%" id="linearGradient-1">
            <stop stop-color="#299393" offset="0%"></stop>
            <stop stop-color="#005959" offset="100%"></stop>
        </linearGradient>
        <path d="M23.0820525,37.1306337 L241.203014,37.1306337 C242.407041,37.1306337 243.424717,38.0227494 243.582355,39.2164121 L264.211277,195.422283 C264.384817,196.736357 263.460231,197.942306 262.146157,198.115846 C262.041982,198.129604 261.937016,198.136505 261.831936,198.136505 L43.7109746,198.136505 C42.5069479,198.136505 41.4892713,197.244389 41.3316334,196.050726 L20.7027112,39.8448552 C20.5291715,38.5307813 21.4537571,37.3248322 22.767831,37.1512924 C22.8720063,37.1375348 22.9769727,37.1306337 23.0820525,37.1306337 Z" id="path-2"></path>
        <mask id="mask-3" maskContentUnits="userSpaceOnUse" maskUnits="objectBoundingBox" x="0" y="0" width="244.225459" height="161.005871" fill="white">
            <use xlink:href="#path-2"></use>
        </mask>
        <linearGradient x1="50%" y1="0%" x2="50%" y2="100%" id="linearGradient-4">
            <stop stop-color="#42CDCD" offset="0%"></stop>
            <stop stop-color="#28AAAA" offset="100%"></stop>
        </linearGradient>
        <linearGradient x1="50%" y1="0%" x2="50%" y2="100%" id="linearGradient-5">
            <stop stop-color="#044B88" offset="0%"></stop>
            <stop stop-color="#1B2B57" offset="100%"></stop>
        </linearGradient>
        <linearGradient x1="50%" y1="0%" x2="50%" y2="100%" id="linearGradient-6">
            <stop stop-color="#156EA8" offset="0%"></stop>
            <stop stop-color="#004381" offset="100%"></stop>
        </linearGradient>
        <linearGradient x1="50%" y1="17.1618315%" x2="50%" y2="100%" id="linearGradient-7">
            <stop stop-color="#7CDDDD" stop-opacity="0.5" offset="0%"></stop>
            <stop stop-color="#E4FFFF" offset="100%"></stop>
        </linearGradient>
        <linearGradient x1="39.3636618%" y1="32.2396263%" x2="50%" y2="50%" id="linearGradient-8">
            <stop stop-color="#FFFFFF" offset="0%"></stop>
            <stop stop-color="#DFFEFE" stop-opacity="0" offset="100%"></stop>
        </linearGradient>
        <linearGradient x1="39.3636618%" y1="32.4031681%" x2="50%" y2="50%" id="linearGradient-9">
            <stop stop-color="#FFFFFF" offset="0%"></stop>
            <stop stop-color="#DFFEFE" stop-opacity="0" offset="100%"></stop>
        </linearGradient>
    </defs>
    <g id="Page-2-Illustrations" stroke="none" stroke-width="1" fill="none" fill-rule="evenodd">
        <g id="PECOS-2.0-Illustrations-v31" transform="translate(-999.000000, -1449.000000)">
            <g id="illus-file-not-found" transform="translate(985.000000, 1398.000000)">
                <g transform="translate(14.000000, 51.000000)">
                    <g id="folder" transform="translate(0.000000, 17.873267)">
                        <path d="M13.5668703,0 L63.4316107,0 C66.6804285,-1.70597122e-15 69.708819,1.64314927 71.4798259,4.36681442 L80.6527161,18.4739759 L80.6527161,18.4739759 L242.717463,18.4739759 C249.911497,18.4739759 256.001822,23.7833248 256.982924,30.9101445 L277.751168,181.772673 C278.835762,189.65127 273.328135,196.917371 265.449539,198.001965 C264.798764,198.091553 264.142621,198.136505 263.485708,198.136505 L28.6228573,198.136505 C26.198561,198.136505 24.1548138,196.328795 23.8587788,193.922641 L1.65667393,13.4653407 C0.847388611,6.8875209 5.52370976,0.899088994 12.1015296,0.0898036698 C12.5876859,0.0299906665 13.0770483,-1.68637801e-15 13.5668703,0 Z" id="Rectangle-Copy-5" fill="url(#linearGradient-1)"></path>
                        <use id="Rectangle" stroke-opacity="0.187996818" stroke="#000000" mask="url(#mask-3)" stroke-width="7.2" stroke-dasharray="5.399999856948853" xlink:href="#path-2"></use>
                        <path d="M63.0388367,46.1250596 L289.636595,46.3361142 C297.589491,46.3435215 304.030583,52.7966232 304.023176,60.7495202 C304.022368,61.6169007 303.943192,62.4824345 303.786615,63.3355659 L281.194877,186.429131 C279.940221,193.265259 273.981754,198.229673 267.031444,198.229673 L28.4331578,198.229673 C26.1135619,198.229673 24.2331578,196.349269 24.2331578,194.029673 C24.2331578,193.778196 24.2557438,193.527226 24.3006437,193.279789 L48.8568045,57.9540211 C50.1005886,51.0996909 56.0725753,46.1185712 63.0388367,46.1250596 Z" id="Rectangle" fill="url(#linearGradient-4)"></path>
                    </g>
                    <g id="magnifying-glass" transform="translate(98.635603, 0.000000)">
                        <path d="M175.468007,109.118758 L175.468233,133.456745 C179.767388,135.627475 182.715549,140.083951 182.715549,145.229007 L182.715549,216.103019 C182.715549,223.381954 176.814806,229.282697 169.535871,229.282697 L169.533122,229.282697 C162.254187,229.282697 156.353444,223.381954 156.353444,216.103019 L156.353444,145.229007 C156.353444,139.923835 159.487955,135.350768 164.00601,133.260773 L164.006222,109.118758 L175.468007,109.118758 Z" id="handle" fill="url(#linearGradient-5)" transform="translate(169.534496, 169.200728) rotate(-45.000000) translate(-169.534496, -169.200728) "></path>
                        <path d="M75.0746927,0 C116.537301,0 150.149385,33.5459115 150.149385,74.9268904 C150.149385,116.307869 116.537301,149.853781 75.0746927,149.853781 C33.6120848,149.853781 0,116.307869 0,74.9268904 C0,33.5459115 33.6120848,0 75.0746927,0 Z M75.0746927,5.71960995 C36.7771694,5.71960995 5.73089257,36.7047648 5.73089257,74.9268904 C5.73089257,113.149016 36.7771694,144.134171 75.0746927,144.134171 C113.372216,144.134171 144.418493,113.149016 144.418493,74.9268904 C144.418493,36.7047648 113.372216,5.71960995 75.0746927,5.71960995 Z" id="Combined-Shape" fill="url(#linearGradient-6)"></path>
                        <ellipse id="Oval-Copy" fill="url(#linearGradient-7)" cx="75.0746927" cy="74.9268904" rx="69.3438001" ry="69.2072804"></ellipse>
                        <path d="M75.0746927,17.7307909 C87.9472304,17.7307909 99.828514,21.9664988 109.395612,29.1175875 L103.780907,32.1533685 C95.5749208,26.6569586 85.7000113,23.4504008 75.0746927,23.4504008 C46.5889316,23.4504008 23.4966595,46.4972102 23.4966595,74.9268904 L23.500767,75.5487909 L17.8812607,78.5877021 C17.8243306,77.6881988 17.7882333,76.7830505 17.7734447,75.8727325 L17.765767,74.9268904 C17.765767,43.3383569 43.423847,17.7307909 75.0746927,17.7307909 Z" id="highlight" fill="url(#linearGradient-8)"></path>
                        <path d="M99.0547004,72.095507 C111.711497,72.095507 123.409988,76.1904258 132.892648,83.1252147 L127.245317,86.1771842 C119.142703,80.8893186 109.458419,77.815117 99.0547004,77.815117 C70.5689393,77.815117 47.4766672,100.861926 47.4766672,129.291607 L47.4757747,129.296507 L41.8263772,132.351362 C41.7893344,131.649999 41.7649516,130.945287 41.7534524,130.237449 L41.7457747,129.291607 C41.7457747,97.7030731 67.4038547,72.095507 99.0547004,72.095507 Z" id="highlight-copy" fill="url(#linearGradient-9)" transform="translate(87.319217, 102.223185) scale(-1, -1) translate(-87.319217, -102.223185) "></path>
                    </g>
                    <path d="M174.318172,40.0307523 C175.572761,40.0307523 176.708578,40.5392749 177.530747,41.3614447 C178.352917,42.1836145 178.86144,43.3194316 178.86144,44.57404 L178.86144,44.57404 L178.860594,70.5307559 L204.886264,70.5309156 C206.138709,70.5309156 207.272585,71.0385693 208.09335,71.8593343 C208.914115,72.6800992 209.421769,73.8139755 209.421769,75.0664206 C209.421769,76.3188657 208.914115,77.4527419 208.09335,78.2735069 C207.272585,79.0942718 206.138709,79.6019255 204.88626,79.6019255 L204.88626,79.6019255 L178.860594,79.6017562 L178.86144,105.558821 C178.86144,106.81341 178.352917,107.949227 177.530747,108.771396 C176.708578,109.593566 175.572761,110.102089 174.318172,110.102089 C173.063583,110.102089 171.927766,109.593566 171.105596,108.771396 C170.283426,107.949227 169.774903,106.81341 169.774903,105.558828 L169.774903,105.558828 L169.774582,79.6017562 L143.75008,79.6019255 C142.497635,79.6019255 141.363759,79.0942718 140.542994,78.2735069 C139.722229,77.4527419 139.214575,76.3188657 139.214575,75.0664206 C139.214575,73.8139755 139.722229,72.6800992 140.542994,71.8593343 C141.363759,71.0385693 142.497635,70.5309156 143.750076,70.5309156 L143.750076,70.5309156 L169.774582,70.5307559 L169.774903,44.5740205 C169.774903,43.3194316 170.283426,42.1836145 171.105596,41.3614447 C171.927766,40.5392749 173.063583,40.0307523 174.318172,40.0307523 Z" id="Combined-Shape" stroke-opacity="0.574952879" stroke="#FFFFFF" stroke-width="1.2" fill="#E00F16" transform="translate(174.318172, 75.066421) rotate(45.000000) translate(-174.318172, -75.066421) "></path>
                </g>
            </g>
        </g>
    </g>
</svg>