<?xml version="1.0" encoding="UTF-8"?>
<svg width="419px" height="322px" viewBox="0 0 419 322" version="1.1" xmlns="http://www.w3.org/2000/svg" xmlns:xlink="http://www.w3.org/1999/xlink">
    <title>illus-app-submission-step-3-1390307693</title>
    <defs>
        <linearGradient x1="50%" y1="0%" x2="50%" y2="99.8907343%" id="linearGradient-1">
            <stop stop-color="#E7F5F6" offset="0%"></stop>
            <stop stop-color="#C2E4EE" offset="100%"></stop>
        </linearGradient>
        <polygon id="path-2" points="27.6747694 6.7509569 29.7300366 0.4451875 0.409969828 4.19632112"></polygon>
        <polygon id="path-4" points="0.409969828 0.584252155 24.0536703 8.03504741 20.530097 17.124819"></polygon>
        <linearGradient x1="50%" y1="0%" x2="50%" y2="100%" id="linearGradient-6">
            <stop stop-color="#E6F4F5" offset="0%"></stop>
            <stop stop-color="#D0E9F0" offset="100%"></stop>
        </linearGradient>
        <polygon id="path-7" points="0.237493534 1.40238578 36.4909267 12.8219418 17.3722457 2.27018534 7.61243534 0.317862069"></polygon>
        <linearGradient x1="50%" y1="0%" x2="50%" y2="100%" id="linearGradient-9">
            <stop stop-color="#ECF7F8" offset="0%"></stop>
            <stop stop-color="#CCE6ED" offset="100%"></stop>
        </linearGradient>
        <polygon id="path-10" points="0.0577931034 4.69749569 10.4984784 9.97563147 43.4820862 10.9554052 5.16525862 0.552646552"></polygon>
        <linearGradient x1="50%" y1="0%" x2="50%" y2="100%" id="linearGradient-12">
            <stop stop-color="#E9F6F6" offset="0%"></stop>
            <stop stop-color="#D4EBF1" offset="100%"></stop>
        </linearGradient>
        <polygon id="path-13" points="0.628409698 0.0562579741 15.8496683 0.0562579741 15.8496683 0.903017241 0.628409698 0.903017241"></polygon>
        <path d="M1.71031466,25.0460862 C6.84396767,34.6153599 23.1587802,50.3233448 23.1587802,50.3233448 L23.1587802,50.3233448 L31.3807522,29.4627435 C31.3807522,29.4627435 19.6460431,30.1580668 12.4309353,22.206097 L12.4309353,22.206097 C5.2167306,14.2541272 14.0328879,3.95340948 14.0328879,3.95340948 L14.0328879,3.95340948 L9.53586207,0.370237069 C9.53586207,0.370237069 -3.4251444,15.4768125 1.71031466,25.0460862" id="path-15"></path>
        <linearGradient x1="99.9995744%" y1="49.9999177%" x2="-0.00122657981%" y2="49.9999177%" id="linearGradient-17">
            <stop stop-color="#D8ECEB" offset="0%"></stop>
            <stop stop-color="#C3E4EE" offset="100%"></stop>
        </linearGradient>
        <linearGradient x1="50%" y1="0%" x2="50%" y2="100%" id="linearGradient-18">
            <stop stop-color="#CAE7EC" offset="0%"></stop>
            <stop stop-color="#D7ECEA" offset="100%"></stop>
        </linearGradient>
        <path d="M29.2487284,0.253747845 L25.4488319,4.97833405 C25.4488319,4.97833405 41.1848103,6.2904181 36.7500927,13.144319 L36.7500927,13.144319 C32.314472,19.9982198 17.8300754,29.5124095 17.8300754,29.5124095 L17.8300754,29.5124095 L7.89869181,29.4672586 C-3.03775,36.3536681 0.889471983,80.3188685 0.889471983,80.3188685 L0.889471983,80.3188685 L33.8757888,77.1402478 L31.0439267,44.6162759 C31.0439267,44.6162759 46.4304375,26.710347 49.5855797,13.4341875 L49.5855797,13.4341875 C52.6946681,0.346758621 29.9088341,0.253747845 29.2631767,0.253747845 L29.2631767,0.253747845 C29.2541466,0.253747845 29.2487284,0.253747845 29.2487284,0.253747845" id="path-19"></path>
        <linearGradient x1="99.9986868%" y1="49.9997665%" x2="0.000792916858%" y2="49.9997665%" id="linearGradient-21">
            <stop stop-color="#D7ECEA" offset="0%"></stop>
            <stop stop-color="#C3E4EE" offset="100%"></stop>
        </linearGradient>
        <polygon id="path-22" points="0.852448276 2.81560776 0.632112069 6.15135345 11.5793901 4.22341164 9.37783405 0.53368319"></polygon>
        <linearGradient x1="2.58715994%" y1="46.0877984%" x2="99.1711458%" y2="56.2047063%" id="linearGradient-24">
            <stop stop-color="#DBEEED" offset="0%"></stop>
            <stop stop-color="#C5E6EE" offset="100%"></stop>
        </linearGradient>
    </defs>
    <g id="Page-2-Illustrations" stroke="none" stroke-width="1" fill="none" fill-rule="evenodd">
        <g id="PECOS-2.0-Illustrations-v31" transform="translate(-496.000000, -1415.000000)">
            <g id="Application-Submission-Step-1-&amp;-3" transform="translate(25.000000, 1315.000000)">
                <g id="Step-3" transform="translate(471.000081, 33.000000)">
                    <g id="illus-app-submission-step-3-1390307693" transform="translate(-0.000000, 67.903017)">
                        <polygon id="Fill-1" fill="#AFD8C7" points="368.112279 28.2725668 371.403776 34.7453944 364.491179 33.1687263 340.847479 25.717931"></polygon>
                        <polygon id="Fill-2" fill="#63C0C4" points="371.403325 34.7458459 359.661392 34.016208 362.539308 32.55332"></polygon>
                        <g id="Group-5" transform="translate(340.437419, 21.521610)">
                            <mask id="mask-3" fill="white">
                                <use xlink:href="#path-2"></use>
                            </mask>
                            <use id="Clip-4" fill="url(#linearGradient-1)" xlink:href="#path-2"></use>
                            <polygon id="Fill-3" mask="url(#mask-3)" points="27.6747694 6.7509569 29.7300366 0.4451875 0.409969828 4.19632112"></polygon>
                        </g>
                        <g id="Group-8" transform="translate(340.437419, 25.133679)">
                            <mask id="mask-5" fill="white">
                                <use xlink:href="#path-4"></use>
                            </mask>
                            <g id="Clip-7"></g>
                            <polygon id="Fill-6" fill="url(#linearGradient-6)" mask="url(#mask-5)" points="0.409969828 0.584252155 24.0536703 8.03504741 20.530097 17.124819"></polygon>
                        </g>
                        <g id="Group-15" transform="translate(344.049488, 37.775920)" fill="#63C0C4">
                            <path d="M24.7620873,3.48375022 C24.8234925,3.45214461 24.8803825,3.40879978 24.9282425,3.35371573 C25.1287123,3.12434935 25.1043308,2.7757847 24.8740614,2.57531487 C24.1471325,1.94229978 23.3651196,1.37881703 22.549695,0.900217888 C22.286917,0.743995905 21.9491886,0.831588578 21.7938696,1.09617263 C21.6394537,1.35985366 21.7279494,1.69758211 21.9916304,1.85199806 C22.7483588,2.29718556 23.4734817,2.82003254 24.1489386,3.40789677 C24.3241239,3.55960366 24.5670356,3.58217909 24.7620873,3.48375022" id="Fill-9"></path>
                            <path d="M10.2749817,18.090325 C8.72630711,17.3760384 6.82545582,17.1972409 5.18828556,17.6108228 C4.89299892,17.6857733 4.59229418,17.5069759 4.51824677,17.2116892 C4.44329634,16.9154996 4.62389978,16.6166009 4.91738039,16.5398444 C6.82003772,16.0585362 8.9403222,16.259006 10.7382295,17.0879759 C11.0145528,17.2153013 11.1355571,17.5439996 11.0082317,17.8212259 C10.9540506,17.9377151 10.8637489,18.0271138 10.7571929,18.0812948 C10.6118071,18.1553422 10.4348157,18.1643724 10.2749817,18.090325 L10.2749817,18.090325 Z M1.04163039,24.3988034 C0.74634375,24.4728509 0.445639009,24.2931504 0.372494612,23.9969608 C-0.0194148707,22.4275168 0.135904095,20.9041267 0.82490625,19.5929457 C1.07504203,19.1179586 1.39200108,18.6808983 1.76765625,18.2944069 C1.97896228,18.0749737 2.33023599,18.0713616 2.54786315,18.2835707 C2.76729634,18.4957797 2.77181142,18.8452474 2.55960237,19.0646806 C2.25709159,19.3744155 2.00334375,19.7256892 1.80197091,20.1058595 C1.23397306,21.1894802 1.11296875,22.4076504 1.44437608,23.7296677 C1.50758728,23.9834155 1.38297091,24.2407754 1.15811961,24.3545556 C1.12199892,24.373519 1.08316918,24.3888703 1.04163039,24.3988034 L1.04163039,24.3988034 Z M29.5589149,10.8779263 C29.2708524,10.9772582 28.9556994,10.8237453 28.8572705,10.5347797 C28.5899774,9.75637888 28.2676002,8.99332931 27.8982662,8.26640043 C27.4512726,7.38595862 26.9275226,6.5470556 26.3450765,5.77316983 C26.161764,5.52935517 26.2105269,5.18349957 26.4543416,5.00018707 C26.6990593,4.81416552 27.0440119,4.86473448 27.2273244,5.10945216 C27.8495032,5.9339069 28.4057619,6.82789397 28.8816519,7.76522586 C29.2753675,8.53820862 29.618514,9.3491181 29.9020614,10.1762819 C29.9932662,10.4399629 29.8722619,10.7244134 29.6311563,10.8472237 C29.6085808,10.8589629 29.5851024,10.8688961 29.5589149,10.8779263 L29.5589149,10.8779263 Z M16.3107489,24.0782323 C15.1232813,22.2360772 14.0387575,20.8978056 12.8982468,19.869269 C12.6715894,19.6642841 12.6544321,19.3148164 12.857611,19.0881591 C13.0625959,18.8633078 13.4120636,18.8443444 13.6387209,19.0484263 C14.8532791,20.1446892 15.9974019,21.5533961 17.2399537,23.4795319 C17.4052058,23.7359888 17.3302554,24.0782323 17.0737985,24.2434845 C17.0584472,24.2534177 17.0412899,24.2624478 17.0250356,24.271478 C16.7748998,24.3988034 16.4651649,24.3184349 16.3107489,24.0782323 L16.3107489,24.0782323 Z M6.31796013,30.920394 C5.87096659,30.6910276 5.43480927,30.4381828 5.02122737,30.1690836 C3.82111746,29.3906828 2.74110884,28.3585341 1.89949677,27.1864177 C1.72069935,26.9389909 1.77758944,26.5940384 2.02501616,26.416144 C2.27153987,26.2382496 2.61829849,26.2942366 2.79619289,26.5416634 C3.55924246,27.6036116 4.53721013,28.5373315 5.62263685,29.2434909 C6.00461315,29.4918207 6.40826185,29.7257022 6.82184375,29.9370082 C7.09365194,30.0760728 7.20020797,30.4092862 7.06114332,30.6801914 C7.00605927,30.7885534 6.92027263,30.869825 6.82094073,30.920394 C6.66833082,30.9980534 6.48230927,31.0034716 6.31796013,30.920394 L6.31796013,30.920394 Z M30.0248718,19.7031138 C29.72507,19.6507388 29.5236972,19.3644823 29.5760722,19.0637776 C29.882195,17.3182453 29.8993524,15.5085987 29.6266412,13.6854069 C29.5814903,13.3837991 29.7891843,13.1011547 30.090792,13.0569069 C30.3933028,13.011756 30.6741412,13.220353 30.719292,13.5219608 C31.0091606,15.4634478 30.9901972,17.3922927 30.664208,19.2543142 C30.6335054,19.4322086 30.5197252,19.5757884 30.3707274,19.6516418 C30.2677834,19.7040168 30.1476821,19.7238832 30.0248718,19.7031138 L30.0248718,19.7031138 Z M15.2804063,32.5855578 C13.3154407,32.7526159 11.391111,32.6027151 9.56069504,32.1385642 C9.26450539,32.0636138 9.08570797,31.7629091 9.16065841,31.4667194 C9.23651185,31.1705297 9.53721659,30.9917323 9.83160022,31.0675858 C11.5428179,31.5019371 13.3443373,31.6419047 15.1855894,31.4847797 C15.4899063,31.4585922 15.7571994,31.6843466 15.7842899,31.9877603 C15.8032532,32.2189328 15.6777338,32.4284328 15.4835851,32.5268616 C15.42218,32.5584672 15.3535506,32.5783336 15.2804063,32.5855578 L15.2804063,32.5855578 Z M25.7662425,27.3986267 C25.5477123,27.1864177 25.5431972,26.83695 25.7572123,26.6184198 C26.5374192,25.8165405 27.2155851,24.9342927 27.7709407,23.9978638 C28.1176994,23.4145147 28.4265313,22.7959478 28.6875032,22.1593207 C28.8030894,21.8784823 29.1245636,21.7421267 29.407208,21.8586159 C29.6898524,21.9742022 29.8244019,22.2974823 29.7088157,22.5792237 C29.4279774,23.2646138 29.095667,23.9319435 28.7209149,24.5622496 C28.1204084,25.5727259 27.3889644,26.523603 26.5482554,27.3886935 C26.5049106,27.4338444 26.4552446,27.4690621 26.4019666,27.4961526 C26.1978847,27.5999996 25.9414278,27.568394 25.7662425,27.3986267 L25.7662425,27.3986267 Z M21.4037662,32.0464565 C21.1301519,32.181006 20.7987446,32.0681289 20.664195,31.7945147 C20.5964688,31.65545 20.5278394,31.5163853 20.4565011,31.3782237 C19.874055,31.6057841 19.2780636,31.8053509 18.671236,31.9733121 C18.3777554,32.0554866 18.0734386,31.8830103 17.991264,31.5886267 C17.9090894,31.2960491 18.0770506,30.9953444 18.3759494,30.9086547 C18.9105356,30.7605599 19.4360916,30.5871806 19.9517144,30.3894198 C19.3773955,29.2904478 18.7461864,28.1490341 18.0318998,26.9191246 C17.8783869,26.6563466 17.9686886,26.3177151 18.2323696,26.1651052 C18.4924386,26.0133983 18.8346821,26.1009909 18.986389,26.365575 C19.7277662,27.6388293 20.3797446,28.8199759 20.9730269,29.9604866 C21.7749063,29.5911526 22.549695,29.1595103 23.2730119,28.6763961 C23.5276627,28.5039198 23.8708093,28.5761612 24.0387705,28.829006 C24.2094407,29.0827539 24.1399084,29.4259004 23.8870636,29.5956677 C23.12582,30.1022603 22.3149106,30.555575 21.4751045,30.9438724 C21.5365097,31.0648767 21.5961088,31.185881 21.656611,31.3077884 C21.7884515,31.5786935 21.6800894,31.9064888 21.4100873,32.0437474 L21.4037662,32.0464565 Z M24.5092425,40.402075 C24.2139558,40.4806375 23.911445,40.3054522 23.8337856,40.0101655 C23.3922101,38.3459047 22.7889946,36.5967603 22.0403933,34.8096892 C21.9220981,34.5279478 22.0656778,34.1956375 22.33568,34.0872754 C22.6174213,33.9689802 22.9407015,34.1008207 23.0589968,34.3825621 C23.8283675,36.2156871 24.4469343,38.0135944 24.9002489,39.7266181 C24.9688782,39.983978 24.8451649,40.24495 24.6185075,40.3605362 C24.5841929,40.3776935 24.5471692,40.3921418 24.5092425,40.402075 L24.5092425,40.402075 Z M25.2750011,49.255256 C24.9706843,49.2326806 24.7422209,48.9680966 24.7629903,48.6646828 L24.7792446,48.41545 C24.8686433,46.7367409 24.7774386,44.9894026 24.5083394,43.2240039 C24.4613825,42.9232991 24.6681735,42.6388487 24.9697813,42.5955039 C25.271389,42.548547 25.5540334,42.7562409 25.6000873,43.0587517 C25.8800226,44.8972948 25.9757425,46.7195836 25.8818287,48.4750491 L25.8664774,48.7432453 C25.8511261,48.9437151 25.7319278,49.1116763 25.5648696,49.1956569 C25.47818,49.2399047 25.3788481,49.2615772 25.2750011,49.255256 L25.2750011,49.255256 Z M22.4621024,57.6542194 C22.1966153,57.5034155 22.1045075,57.1665901 22.2553114,56.901103 C23.1511045,55.3253379 23.8238524,53.6339866 24.2582037,51.874006 C24.3313481,51.5778164 24.6311498,51.3972129 24.9273394,51.4694543 C25.2235291,51.5425987 25.4050356,51.8424004 25.3318912,52.1394931 C24.8731584,53.9969996 24.1606778,55.7831677 23.2152188,57.4465254 C23.1610377,57.5449543 23.0797662,57.6190017 22.9858524,57.6659586 C22.8260183,57.7472302 22.6300636,57.7490362 22.4621024,57.6542194 L22.4621024,57.6542194 Z M16.1680722,63.8471116 C16.0127532,63.5843336 16.1003459,63.2466052 16.3631239,63.0903832 C17.8512963,62.2117474 19.2130463,61.0306009 20.4149623,59.5785491 C20.608208,59.3473767 20.9567726,59.310353 21.1915571,59.5054047 C21.4272446,59.7004565 21.4597532,60.0481181 21.2665075,60.2838056 C19.98332,61.8333832 18.5231412,63.0985103 16.9238976,64.0421634 C16.9157705,64.0484845 16.9040313,64.0529996 16.893195,64.0593207 C16.6358351,64.1902582 16.31707,64.0990534 16.1680722,63.8471116 L16.1680722,63.8471116 Z" id="Fill-11"></path>
                            <path d="M13.7776953,65.4087897 C14.0088677,65.2913974 14.131678,65.0232013 14.0585336,64.7649384 C13.974553,64.4714578 13.6693332,64.3016905 13.3758526,64.3847681 C12.5279194,64.6267767 11.6537987,64.7748716 10.778775,64.8227315 C10.4744582,64.8389858 10.2405767,65.0999578 10.2577341,65.4042746 C10.2748914,65.7085914 10.5349603,65.9415698 10.8392772,65.9244125 C11.7973784,65.8729405 12.7518677,65.7122034 13.6792664,65.4476194 C13.713581,65.4376862 13.7469927,65.425044 13.7776953,65.4087897" id="Fill-13"></path>
                        </g>
                        <g id="Group-18" transform="translate(97.525781, 79.314713)">
                            <mask id="mask-8" fill="white">
                                <use xlink:href="#path-7"></use>
                            </mask>
                            <g id="Clip-17"></g>
                            <polygon id="Fill-16" fill="url(#linearGradient-9)" mask="url(#mask-8)" points="0.237493534 1.40238578 36.4909267 12.8219418 17.3722457 2.27018534 7.61243534 0.317862069"></polygon>
                        </g>
                        <g id="Group-23" transform="translate(96.622764, 80.217731)">
                            <polyline id="Fill-19" fill="#AFD8C7" points="37.3937634 11.9186537 1.59364483 2.71600496 1.14033017 0.499097629"></polyline>
                            <polygon id="Fill-21" fill="#63C0C4" points="0.572422629 8.85778642 0.618476509 8.93273685 2.1210972 14.490808 37.3026489 11.9208209"></polygon>
                        </g>
                        <g id="Group-26" transform="translate(90.301643, 81.120748)">
                            <mask id="mask-11" fill="white">
                                <use xlink:href="#path-10"></use>
                            </mask>
                            <g id="Clip-25"></g>
                            <polygon id="Fill-24" fill="url(#linearGradient-12)" mask="url(#mask-11)" points="0.0577931034 4.69749569 10.4984784 9.97563147 43.4820862 10.9554052 5.16525862 0.552646552"></polygon>
                        </g>
                        <g id="Group-176">
                            <path d="M9.83350567,156.746636 C11.003816,156.33486 12.1623871,155.831879 13.2776134,155.252142 C13.5340703,155.120302 13.8456113,155.219634 13.9792578,155.474284 C14.1120014,155.728935 14.0126695,156.042282 13.7571156,156.175929 C12.5994475,156.777338 11.3948225,157.299282 10.1793613,157.728216 C9.73868886,157.883534 9.29621041,158.027114 8.85102291,158.159858 C8.68757679,158.210427 8.51961558,158.175209 8.39229015,158.081295 C8.30469748,158.016278 8.23606817,157.92417 8.20355955,157.812196 C8.12048196,157.536776 8.27670394,157.24781 8.5521242,157.164733 C8.98196041,157.035601 9.40818455,156.895634 9.83350567,156.746636" id="Fill-27" fill="#63C0C4"></path>
                            <path d="M79.8985231,81.9425838 C81.5212451,82.1511808 83.2116934,82.4175709 85.0637817,82.7598144 C85.3464261,82.8130925 85.5315447,83.0830946 85.4809757,83.366642 C85.4286007,83.6483834 85.1576955,83.835308 84.8750511,83.783836 C83.0410231,83.4443015 81.3704412,83.1806205 79.7666826,82.9747325 C79.6754779,82.9629933 79.5924003,82.9277756 79.522868,82.8763037 C79.3765792,82.7688446 79.2916955,82.5864351 79.316077,82.3931894 C79.3531007,82.107836 79.6140727,81.9055601 79.8985231,81.9425838" id="Fill-29" fill="#63C0C4"></path>
                            <path d="M71.2241395,82.3407241 C71.0977171,82.2468103 71.0155425,82.0969095 71.012823,81.9271422 C71.0110274,81.6399828 71.2421998,81.4051983 71.5293593,81.4024892 C73.1981352,81.3880409 74.9626309,81.4575733 76.7731805,81.6092802 C77.0585339,81.6327586 77.272549,81.8847004 77.2463615,82.1709569 C77.222883,82.4572134 76.9718442,82.6703254 76.6855878,82.645944 C74.9075468,82.4969461 73.1755598,82.4283168 71.5374865,82.4427651 C71.4209973,82.4436681 71.3126352,82.4057414 71.2241395,82.3407241" id="Fill-31" fill="#63C0C4"></path>
                            <path d="M19.8694587,150.476265 C20.0753466,150.275795 20.4031419,150.272183 20.6045147,150.486198 C20.8049845,150.691183 20.8022755,151.020784 20.5945815,151.221254 C19.3348725,152.452066 17.9532561,153.574517 16.4903682,154.555194 C16.3034436,154.680713 16.062338,154.668071 15.8916677,154.540745 C15.8447108,154.506431 15.803172,154.464892 15.7688574,154.412517 C15.6090233,154.17412 15.6731376,153.85084 15.9115341,153.691909 C17.321144,152.745547 18.6530945,151.663732 19.8694587,150.476265" id="Fill-33" fill="#63C0C4"></path>
                            <path d="M22.0136731,148.953687 C21.7906279,148.771278 21.7590223,148.443483 21.9414317,148.22134 C22.2349123,147.862842 22.5211688,147.49712 22.7965891,147.124174 C23.5361602,146.125437 24.208908,145.074325 24.7949662,143.999735 C24.9322248,143.74689 25.2482809,143.653879 25.5002227,143.791138 C25.7449404,143.927493 25.8460783,144.245355 25.7079167,144.497297 C25.099283,145.61433 24.4003477,146.706077 23.632783,147.743644 C23.3465266,148.130136 23.0503369,148.509403 22.7451171,148.880543 C22.5690287,149.096364 22.2556817,149.133388 22.0335395,148.969039 C22.0272184,148.964523 22.0199942,148.959105 22.0136731,148.953687" id="Fill-35" fill="#63C0C4"></path>
                            <path d="M26.3912298,141.911688 C26.350594,141.894531 26.3135703,141.873761 26.2792557,141.84938 C26.0923311,141.710315 26.0155746,141.458373 26.1085854,141.233522 C26.7262492,139.732707 27.2436781,138.139785 27.6906716,136.364453 C27.761107,136.086324 28.0446544,135.917459 28.3227837,135.986992 C28.599107,136.057427 28.7697772,136.340975 28.6993419,136.618201 C28.2406091,138.443199 27.7069259,140.082175 27.0693958,141.629044 C26.9610337,141.894531 26.6567169,142.020953 26.3912298,141.911688" id="Fill-37" fill="#63C0C4"></path>
                            <path d="M40.1821091,97.5333571 C39.7486608,98.0616222 39.3287578,98.6007235 38.921497,99.149758 C38.3092514,99.9778248 37.7231932,100.834788 37.1822858,101.69717 C37.0296759,101.940984 36.7082018,102.014129 36.4643871,101.861519 C36.4535509,101.854295 36.4427147,101.84707 36.4309755,101.838943 C36.2151544,101.679109 36.1555552,101.376598 36.301844,101.145426 C36.8562966,100.259566 37.4568031,99.3800274 38.0862061,98.5302881 C38.502497,97.9677084 38.9332363,97.4150619 39.3784238,96.8741545 C39.5608333,96.6520123 39.8714712,96.5906071 40.1107708,96.8019131 C40.33201,96.9843226 40.3645186,97.3112149 40.1821091,97.5333571" id="Fill-39" fill="#63C0C4"></path>
                            <path d="M35.6488723,104.368114 C34.8542171,105.890601 34.1606998,107.469978 33.5872839,109.061095 C33.4906611,109.332 33.1917623,109.471064 32.9217602,109.373539 C32.8729973,109.356381 32.8287494,109.332903 32.7890167,109.303103 C32.6093162,109.169457 32.5289477,108.929254 32.6093162,108.708918 C33.1971805,107.073554 33.9096611,105.450832 34.7268917,103.885903 C34.8596352,103.631252 35.1738852,103.532823 35.4285361,103.665567 C35.6795748,103.795601 35.7825188,104.11256 35.6488723,104.368114" id="Fill-41" fill="#63C0C4"></path>
                            <path d="M45.9904063,91.7347222 C44.666583,92.8210519 43.3996498,93.9949744 42.2248244,95.2266899 C42.0415119,95.4190325 41.7471283,95.440705 41.5394343,95.287192 C41.521374,95.2736468 41.5051197,95.2591985 41.4888654,95.2438472 C41.2811714,95.0460864 41.2739473,94.7173881 41.471708,94.5087912 C42.676333,93.2472761 43.9739688,92.0435541 45.3293977,90.9301338 C45.5515399,90.7486274 45.8793352,90.7775239 46.0617447,91.0023752 C46.2441542,91.2245175 46.2116455,91.5523127 45.9904063,91.7347222" id="Fill-43" fill="#63C0C4"></path>
                            <path d="M55.5787337,85.8157151 C55.4017423,85.8942776 55.2039815,85.8662841 55.0585958,85.758825 C54.9881604,85.70645 54.9303673,85.6360147 54.8924406,85.551131 C54.7759514,85.288353 54.8951496,84.9804241 55.1579276,84.8648379 C56.7689104,84.1514543 58.4322682,83.5401116 60.098335,83.0461612 C60.3755613,82.9657927 60.6636238,83.1229177 60.7448953,83.3974349 C60.8270699,83.6728552 60.6690419,83.9618207 60.3936216,84.0439953 C58.7699966,84.5253034 57.1499837,85.1212948 55.5787337,85.8157151" id="Fill-45" fill="#63C0C4"></path>
                            <path d="M29.9520977,125.716886 C29.8581839,125.705147 29.7723973,125.670833 29.7019619,125.617555 C29.5574792,125.510998 29.4725955,125.331298 29.495171,125.140761 L29.5683154,124.486074 C29.7407917,122.978938 29.913268,121.469093 30.1119317,119.966473 C30.1498585,119.681119 30.4117335,119.481552 30.6961839,119.518576 C30.9806343,119.558309 31.1802011,119.817475 31.1431774,120.102828 C30.9454167,121.600031 30.7738434,123.102652 30.6022701,124.604369 L30.5273197,125.258154 C30.4957141,125.54441 30.2374511,125.749395 29.9520977,125.716886" id="Fill-47" fill="#63C0C4"></path>
                            <path d="M48.4419175,89.8664698 C48.2540899,89.9992134 48.0084692,89.9892802 47.8323809,89.8601487 C47.7890361,89.8276401 47.7502063,89.7888103 47.7167947,89.7409504 C47.5515425,89.507069 47.6075296,89.1819828 47.8423141,89.0167306 C49.2763055,88.0044483 50.7834412,87.0752435 52.3194736,86.2516918 C52.5741244,86.1162392 52.8865684,86.2128621 53.023827,86.4648039 C53.1592796,86.7176487 53.0644628,87.0337047 52.8107149,87.1691573 C51.3117063,87.9710366 49.8415942,88.879472 48.4419175,89.8664698" id="Fill-49" fill="#63C0C4"></path>
                            <path d="M29.708283,127.783532 C29.9954425,127.821458 30.1950093,128.078818 30.1588886,128.365075 C29.9033348,130.390542 29.652296,132.034937 29.3705546,133.539364 C29.3172766,133.821105 29.0454684,134.006223 28.762824,133.953848 C28.6824555,133.937594 28.6111171,133.905989 28.5497119,133.859935 C28.394393,133.746155 28.3104123,133.549297 28.3474361,133.346118 C28.6264684,131.864267 28.8747981,130.239739 29.127643,128.23504 C29.1628606,127.949687 29.4238326,127.748314 29.708283,127.783532" id="Fill-51" fill="#63C0C4"></path>
                            <path d="M5.57379274,157.897441 C5.8546311,157.842357 6.12824532,158.025669 6.18332937,158.307411 C6.23931644,158.589152 6.05600394,158.862766 5.77335955,158.91785 C4.1524436,159.237519 2.44574101,159.458758 0.556628942,159.591501 C0.427497477,159.600531 0.306493166,159.562605 0.210773339,159.490363 C0.0933810973,159.403674 0.0121095456,159.267318 0.0012733387,159.10929 C-0.0185930406,158.823034 0.196325063,158.574704 0.483484546,158.553934 C2.32834877,158.4239 3.99351256,158.208079 5.57379274,157.897441" id="Fill-53" fill="#63C0C4"></path>
                            <path d="M32.3035546,111.36126 C32.5798779,111.437114 32.746033,111.720661 32.6710826,111.99879 C32.2611128,113.528502 31.9098391,115.175605 31.5982981,117.034014 C31.5513412,117.317562 31.2822421,117.508098 31.0005007,117.461142 C30.9156171,117.446693 30.8406667,117.414185 30.7756494,117.365422 C30.6239425,117.253448 30.5381559,117.061105 30.5724705,116.861538 C30.8894296,114.97062 31.2470244,113.291008 31.6669274,111.729691 C31.7409748,111.451562 32.0263283,111.28631 32.3035546,111.36126" id="Fill-55" fill="#63C0C4"></path>
                            <path d="M66.5542761,81.7111405 C67.1611037,81.6388991 67.7697373,81.580203 68.378371,81.5341491 C68.6628214,81.5133797 68.9147632,81.7264918 68.9355326,82.0127483 C68.957205,82.2999078 68.7431899,82.5500435 68.4560305,82.5717159 C67.8627481,82.6159638 67.2694658,82.6737569 66.6770865,82.7441922 C65.5781145,82.8742267 64.4674033,83.0575392 63.3774615,83.2878086 C63.2266576,83.3203172 63.0758537,83.2823905 62.9611705,83.1975069 C62.8627417,83.1243625 62.7895973,83.0160004 62.7616037,82.887772 C62.7020046,82.6060306 62.881705,82.3297073 63.1634464,82.2710112 C64.2831878,82.0326147 65.4246016,81.8456901 66.5542761,81.7111405" id="Fill-57" fill="#63C0C4"></path>
                            <path d="M193.176889,39.3522272 L188.839697,26.981794 L185.074115,24.6700698 C183.011624,23.4031366 180.64301,23.4365483 178.578712,24.7567595 C176.064712,26.3668392 174.468178,29.5797746 174.411288,33.1430806 C174.252357,43.1828263 179.954007,56.0851366 196.413303,60.0773759 C195.925673,57.519128 195.749585,54.9247595 195.88865,52.3267789 C195.937413,51.4345978 196.026811,50.5225504 196.172197,49.4443478 C194.630747,46.2720483 193.624785,42.8812185 193.176889,39.3522272 L193.176889,39.3522272 Z M198.916466,65.3284211 C198.273518,65.1875504 197.616122,65.0439707 196.910865,64.8976819 C176.920772,60.7510267 170.05152,45.1658522 170.24296,33.0789664 C170.324232,27.9037746 172.721742,23.1864125 176.499966,20.7672293 C179.865512,18.6117272 183.733135,18.5647703 187.10771,20.6362918 L192.185376,23.7535073 L197.153777,37.9236539 L197.27749,38.4573371 C197.667594,41.7596711 198.634725,44.9247466 200.1536,47.8640677 L200.519322,48.5729362 L200.400124,49.3793306 C200.208684,50.658003 200.101225,51.6468069 200.051559,52.5841388 C199.875471,55.8512552 200.296277,59.1219836 201.298626,62.2997013 L202.504154,66.1185612 L198.916466,65.3284211 Z" id="Fill-59" fill="#F9B645"></path>
                            <path d="M239.115724,50.2161567 C239.22228,51.2979713 239.27917,52.2127278 239.295424,53.1058119 C239.340575,55.7074045 239.071476,58.2936459 238.493545,60.8329304 C255.084681,57.4348765 261.245967,44.7447752 261.44734,34.7059325 C261.519582,31.1426265 260.039536,27.8746071 257.584232,26.1760317 C255.569601,24.7817731 253.203696,24.6643808 251.096957,25.8554606 L247.250103,28.0308291 L242.471336,40.2369131 C241.897017,43.7478442 240.770051,47.0998442 239.115724,50.2161567 L239.115724,50.2161567 Z M232.189582,66.6510705 L233.530562,62.8782644 C234.647594,59.7384735 235.183987,56.4858054 235.126194,53.2132709 C235.109036,52.275036 235.037698,51.2835231 234.893215,49.9985295 L234.802913,49.1885231 L235.19392,48.4931998 C236.815739,45.6098657 237.89665,42.481814 238.405952,39.1957343 L238.548629,38.6674692 L244.022719,24.6842472 L249.208747,21.7512472 C252.654661,19.802536 256.517769,19.9885575 259.804752,22.263258 C263.493577,24.8169907 265.720418,29.6165274 265.616571,34.7917192 C265.373659,46.8777019 257.948148,62.2064196 237.8217,65.632467 C237.112832,65.7534713 236.450017,65.8726696 235.802554,65.9909649 L232.189582,66.6510705 Z" id="Fill-61" fill="#F9B645"></path>
                            <path d="M223.085362,81.061239 C230.891946,48.3530515 204.296282,47.8753554 210.922622,80.8427088 C217.548963,113.810965 205.64539,118.917528 205.64539,118.917528 C212.608556,121.059485 219.95731,121.191325 226.992717,119.30131 C226.992717,119.30131 215.279681,113.77033 223.085362,81.061239" id="Fill-63" fill="#F9B645"></path>
                            <path d="M252.042777,12.1118091 C252.050001,12.0928457 252.086122,12.0738823 252.087048,12.055822 C252.108697,10.7816647 236.978643,9.47770776 218.292507,9.14178534 C199.606372,8.80676595 184.439294,9.56710647 184.416719,10.8403608 C184.415816,10.8602272 184.452839,10.8800935 184.460063,10.9008629 C184.387822,12.0991668 181.488234,63.1042897 210.422712,80.5469707 C210.259266,80.8088457 210.138262,81.0996172 210.131941,81.4292185 L210.125619,81.8057767 C210.107559,82.7792293 210.889572,83.5901388 211.863025,83.6072961 L222.044544,83.7908856 C223.017997,83.8077659 223.828906,83.025753 223.846063,82.0523004 L223.853288,81.6757422 C223.859609,81.3461409 223.748538,81.0517573 223.595025,80.7835612 C253.152585,64.3847681 252.07077,13.2649621 252.042777,12.1118091" id="Fill-65" fill="#F9B645"></path>
                            <path d="M239.115724,50.2161567 C239.22228,51.2979713 239.27917,52.2127278 239.295424,53.1058119 C239.340575,55.7074045 239.071476,58.2936459 238.493545,60.8329304 C255.084681,57.4348765 261.245967,44.7447752 261.44734,34.7059325 C261.519582,31.1426265 260.039536,27.8746071 257.584232,26.1760317 C255.569601,24.7817731 253.203696,24.6643808 251.096957,25.8554606 L247.250103,28.0308291 L242.471336,40.2369131 C241.897017,43.7478442 240.770051,47.0998442 239.115724,50.2161567 L239.115724,50.2161567 Z M232.189582,66.6510705 L233.530562,62.8782644 C234.647594,59.7384735 235.183987,56.4858054 235.126194,53.2132709 C235.109036,52.275036 235.037698,51.2835231 234.893215,49.9985295 L234.802913,49.1885231 L235.19392,48.4931998 C236.815739,45.6098657 237.89665,42.481814 238.405952,39.1957343 L238.548629,38.6674692 L244.022719,24.6842472 L249.208747,21.7512472 C252.654661,19.802536 256.517769,19.9885575 259.804752,22.263258 C263.493577,24.8169907 265.720418,29.6165274 265.616571,34.7917192 C265.373659,46.8777019 257.948148,62.2064196 237.8217,65.632467 C237.112832,65.7534713 236.450017,65.8726696 235.802554,65.9909649 L232.189582,66.6510705 Z" id="Fill-67" fill="#FED147"></path>
                            <path d="M252.042777,12.1118091 C252.050001,12.0928457 252.086122,12.0738823 252.087048,12.055822 C252.108697,10.7816647 236.979546,9.47770776 218.292507,9.14178534 C217.805781,9.13365819 217.32357,9.12553103 216.842262,9.1183069 C217.853641,12.5145547 218.781943,15.930669 219.721984,19.3016323 C222.267589,28.4428759 223.707902,37.8848241 224.46463,47.3339966 C225.325206,58.0726776 225.684607,68.937781 225.35049,79.7387703 C253.104725,62.3267918 252.07077,13.2414836 252.042777,12.1118091" id="Fill-69" fill="#FED147"></path>
                            <polygon id="Fill-71" fill="#FEFEFE" points="240.322065 22.4788082 257.265377 20.4542435 240.601097 16.9442155 238.575629 0 235.066504 16.6642802 218.122289 18.6888448 234.786569 22.1997759 236.811133 39.1430884"></polygon>
                            <path d="M231.308688,123.035648 L200.824632,122.488419 C199.941481,122.472165 199.230807,121.736206 199.246788,120.852152 L199.284988,118.755346 C199.300339,117.871292 200.036298,117.16152 200.920352,117.176872 L231.403505,117.725003 C232.287559,117.740355 232.99733,118.476314 232.982224,119.360367 L232.944955,121.457173 C232.928701,122.341227 232.192742,123.051902 231.308688,123.035648" id="Fill-73" fill="#FED147"></path>
                            <path d="M236.535442,128.108437 L195.419261,127.370672 C194.300423,127.349903 193.402824,126.418892 193.422367,125.300957 L193.477774,122.245146 C193.497641,121.127211 194.428651,120.228709 195.546587,120.248575 L236.663671,120.987243 C237.781606,121.00711 238.680108,121.93812 238.660565,123.056959 L238.605158,126.111866 C238.585291,127.229802 237.653378,128.128304 236.535442,128.108437" id="Fill-75" fill="#F49B42"></path>
                            <path d="M199.566819,126.965579 C200.678434,127.557055 201.814429,128.112411 202.978419,128.624421 L202.750858,128.674087 L192.102479,151.219719 L196.438768,157.508331 L186.97605,158.72921 C186.97605,158.72921 183.028059,153.944122 183.705322,151.397613 C184.381682,148.850202 199.419628,127.306919 199.419628,127.306919 L199.566819,126.965579 Z" id="Fill-77" fill="#9E7059"></path>
                            <path d="M224.411713,183.028501 C216.317067,181.703775 201.079554,178.077258 199.16606,177.828928 C193.394877,172.162495 185.559397,156.771469 185.559397,156.771469 L196.438948,157.508331 L215.248797,176.47982 C215.248797,176.47982 220.536866,179.49048 225.705737,183.294891 C225.275901,183.199171 224.846968,183.099839 224.411713,183.028501" id="Fill-79" fill="#AFD8C8"></path>
                            <path d="M198.634725,127.901285 L197.994486,122.792014 C197.941208,122.342311 198.128132,121.898027 198.484824,121.618994 L199.330951,120.960695 C199.600954,120.750292 199.943197,120.655475 200.283635,120.696111 L205.323374,121.302938 C205.920268,121.374277 206.389837,121.847458 206.457563,122.445255 L206.527999,123.074658 C206.565022,123.407871 206.472012,123.742891 206.268833,124.008378 L202.379538,129.084238 L198.634725,127.901285 Z" id="Fill-81" fill="#9E7059"></path>
                            <path d="M202.379899,129.084238 L205.972101,126.28669 C206.60331,125.794546 206.611438,124.843669 205.990162,124.340688 L204.45142,123.09633 C204.04145,122.764923 201.391095,123.816035 201.391095,123.816035 C201.391095,123.816035 201.608722,125.899296 203.934894,124.685641 C203.997203,125.042333 204.523662,125.48752 204.523662,125.48752 C204.523662,125.48752 201.363101,125.321365 199.676265,128.229983 L202.379899,129.084238 Z" id="Fill-83" fill="#825A46"></path>
                            <path d="M233.567044,125.89153 C232.45543,126.483909 231.319434,127.038362 230.156348,127.550373 L230.383005,127.600039 L241.031385,150.14567 L236.695096,156.434282 L246.15691,157.655161 C246.15691,157.655161 250.105805,152.870073 249.428542,150.323564 C248.752182,147.776153 233.713333,126.23287 233.713333,126.23287 L233.567044,125.89153 Z" id="Fill-85" fill="#9E7059"></path>
                            <path d="M208.721789,181.954452 C216.817338,180.629726 232.053948,177.004112 233.967442,176.754879 C239.739528,171.089349 247.574106,155.69742 247.574106,155.69742 L236.695457,156.434282 L217.885608,175.405771 C217.885608,175.405771 212.597539,178.415528 207.428668,182.220842 C207.857601,182.125123 208.286535,182.026694 208.721789,181.954452" id="Fill-87" fill="#AFD8C8"></path>
                            <path d="M234.499229,126.827598 L235.140371,121.717423 C235.192746,121.26772 235.006724,120.823436 234.64913,120.545307 L233.803002,119.886104 C233.533,119.676604 233.190757,119.580884 232.850319,119.622423 L227.81058,120.228348 C227.213686,120.300589 226.744117,120.77377 226.67639,121.371567 L226.605955,122.00097 C226.568931,122.334184 226.661039,122.669203 226.865121,122.93469 L230.754416,128.009647 L234.499229,126.827598 Z" id="Fill-89" fill="#9E7059"></path>
                            <path d="M230.753965,128.009737 L227.161762,125.21219 C226.530553,124.720949 226.521523,123.769169 227.144605,123.267091 L228.682443,122.022733 C229.09151,121.691326 231.742769,122.742438 231.742769,122.742438 C231.742769,122.742438 231.525141,124.824796 229.198066,123.611141 C229.136661,123.967832 228.610202,124.41302 228.610202,124.41302 C228.610202,124.41302 231.771665,124.246865 233.457598,127.156386 L230.753965,128.009737 Z" id="Fill-91" fill="#825A46"></path>
                            <path d="M165.261014,284.74933 L168.964288,294.549776 C169.272216,295.91875 169.324591,297.560435 167.910466,298.370442 C167.910466,298.370442 166.974941,298.916767 165.968979,299.26172 C165.294425,299.119946 161.021348,285.886228 161.021348,285.886228 L161.061984,285.806763 C162.756947,283.59708 165.261014,284.74933 165.261014,284.74933" id="Fill-93" fill="#212B53"></path>
                            <polygon id="Fill-95" fill="#212B53" points="165.96907 299.261991 161.021438 285.885596 160.371266 286.262155 165.355018 299.513933"></polygon>
                            <polygon id="Fill-97" fill="#FEFEFE" points="166.736273 288.62508 167.059553 289.510037 165.352851 289.839638 165.030474 288.982675"></polygon>
                            <polygon id="Fill-99" fill="#FEFEFE" points="167.448393 290.518436 167.772576 291.403393 166.06497 291.732994 165.742593 290.876031"></polygon>
                            <path d="M169.368207,282.437154 L165.261285,284.749781 C165.025597,285.735876 165.377774,286.770734 166.167011,287.409167 L166.309688,287.525656 L170.843737,286.358958 L169.368207,282.437154 Z" id="Fill-101" fill="#825A46"></path>
                            <path d="M202.159021,220.605125 C202.159021,220.605125 198.08551,224.991983 197.036204,232.711878 C196.338172,237.849143 198.261598,245.990746 198.471098,252.379593 C198.663441,258.221212 196.027534,262.86272 191.397764,266.430541 L169.367756,282.437425 L170.843286,286.358326 C170.843286,286.358326 200.994129,281.837822 208.910881,268.333199 C216.82673,254.830382 218.7032,224.259636 218.7032,224.259636 L202.159021,220.605125 Z" id="Fill-103" fill="#00666A"></path>
                            <path d="M210.540104,223.150189 C210.540104,223.150189 207.047234,227.356444 209.14404,237.135217 C210.480505,243.377775 216.354632,251.232219 220.299915,256.642196 C223.128165,260.521558 223.188667,265.399657 222.338025,270.125146 C219.107029,288.08345 224.276803,310.009612 224.276803,310.009612 L228.467706,310.009612 C228.467706,310.009612 234.753609,277.879355 236.616533,255.295797 C238.295242,234.932758 229.582029,219.936351 229.399619,219.673573 L210.540104,223.150189 Z" id="Fill-105" fill="#00898B"></path>
                            <path d="M201.276321,195.414105 C201.494852,192.931711 201.568899,190.421323 201.472276,187.881135 C201.303412,183.442805 199.971461,179.418961 197.819571,175.94415 C198.638608,174.934577 199.454033,174.095674 200.255009,173.506907 C204.626515,171.103075 210.512382,169.062256 214.449537,167.833249 C216.159852,170.691299 218.310839,173.251353 220.636108,175.175683 C224.171421,178.099652 228.053492,179.784683 232.197438,180.66693 C232.147772,182.044935 232.052955,183.624312 231.883188,185.448407 C230.718296,197.953389 230.329998,221.536588 230.329998,221.536588 C230.329998,221.536588 224.432393,225.417756 215.430214,227.124458 C206.428035,228.832064 200.873576,229.382002 199.709586,224.492163 C201.912046,213.283913 201.449701,199.15982 201.276321,195.414105" id="Fill-107" fill="#AFD8C8"></path>
                            <path d="M213.315347,142.228286 L218.876127,147.720437 C221.237518,150.052027 222.233546,153.433827 221.513841,156.673853 L220.861862,159.605047 L213.315347,142.228286 Z" id="Fill-109" fill="#9E7059"></path>
                            <path d="M206.581909,140.150172 C193.078189,140.150172 198.821379,166.073088 198.821379,166.073088 C198.821379,166.073088 201.227017,182.887269 206.581909,189.640032 C211.217096,195.483457 220.387236,193.725282 224.731652,190.920511 C226.854646,189.54973 229.233193,188.634071 231.742678,188.332463 C235.421571,187.889985 239.798495,186.264554 239.798495,179.62828 C239.798495,173.381207 232.339573,168.548258 227.430771,165.096927 C224.232284,162.848414 222.001831,159.485577 221.068111,155.68839 C219.496861,149.291416 215.664456,140.150172 206.581909,140.150172" id="Fill-111" fill="#212B53"></path>
                            <path d="M225.033441,314.973949 L236.198346,314.955889 C237.6811,315.163583 239.338137,315.726162 239.615363,317.441895 C239.615363,317.441895 239.809512,318.5806 239.777003,319.712983 C239.382385,320.332453 224.576514,319.629906 224.576514,319.629906 L224.5124,319.55947 C222.944762,317.040052 225.033441,314.973949 225.033441,314.973949" id="Fill-113" fill="#12375A"></path>
                            <g id="Group-117" transform="translate(223.948195, 319.517300)">
                                <mask id="mask-14" fill="white">
                                    <use xlink:href="#path-13"></use>
                                </mask>
                                <g id="Clip-116"></g>
                                <polygon id="Fill-115" fill="#053C5D" mask="url(#mask-14)" points="15.8288989 0.195774138 0.628409698 0.112696552 0.760250216 0.902836638 15.8496683 0.902836638"></polygon>
                            </g>
                            <polygon id="Fill-118" fill="#FEFEFE" points="229.453259 314.95634 230.458317 314.966273 230.145873 316.792174 229.170614 316.792174"></polygon>
                            <polygon id="Fill-120" fill="#FEFEFE" points="231.60849 314.95634 232.614451 314.966273 232.302007 316.792174 231.326749 316.792174"></polygon>
                            <path d="M224.26705,310.00916 L225.033712,314.973949 C225.929505,315.579873 227.093494,315.615994 228.026311,315.068766 L228.196078,314.969434 L228.734276,310.00916 L224.26705,310.00916 Z" id="Fill-122" fill="#825A46"></path>
                            <path d="M369.428878,204.851719 L370.106141,206.216178 C370.85113,207.715186 370.884541,209.468846 370.200054,210.996751 C369.953531,211.544883 369.410817,211.899768 368.809408,211.906089 C368.809408,211.906089 361.636742,213.939684 362.160492,211.98104 C362.683339,210.021492 365.129613,209.139245 365.129613,209.139245 L364.130875,205.737579 L369.428878,204.851719 Z" id="Fill-124" fill="#825A46"></path>
                            <path d="M353.722157,169.896824 C355.749431,172.798219 358.003362,175.539779 360.405388,178.143178 C361.296666,179.108503 362.286372,180.210184 363.368187,181.24143 L361.666903,182.854219 L369.429239,204.851719 L364.130334,205.737579 C364.130334,205.737579 351.693077,188.719316 348.231812,181.583673 C346.885413,178.809605 349.738948,174.332445 353.722157,169.896824" id="Fill-126" fill="#00898B"></path>
                            <polygon id="Fill-128" fill="#825A46" points="378.003117 146.458109 376.344274 153.686762 384.150858 154.978077 383.997345 143.431195"></polygon>
                            <path d="M375.425454,147.495134 C374.517019,147.356069 373.689855,147.114061 373.29343,146.698673 C371.142443,142.547502 375.424551,132.615216 375.424551,132.615216 L379.846626,131.371761 L384.769876,135.368515 L384.210909,142.312718 C384.061008,144.166612 382.954812,145.824552 381.231855,146.779041 C379.421305,147.516806 377.403062,147.797645 375.425454,147.495134" id="Fill-130" fill="#9E7059"></path>
                            <path d="M383.438829,139.177532 C383.291637,137.981034 383.778363,135.323455 382.572835,135.368606 C381.693297,135.402017 378.725982,135.154591 377.73176,135.030877 C375.364049,134.734687 371.258932,133.279927 371.708635,129.676888 C371.934389,127.875369 373.875876,126.539806 375.040769,126.216526 C376.183988,125.898664 377.407577,126.073849 378.470428,126.601211 C380.964562,127.838345 384.171176,130.281909 385.584398,130.178062 C387.962945,130.001071 390.107611,131.651787 389.828579,133.618558 C389.530583,135.719879 388.03609,138.750405 386.74929,140.633196 C386.004301,141.722235 383.996894,143.431647 383.996894,143.431647 L383.438829,139.177532 Z" id="Fill-132" fill="#212B53"></path>
                            <path d="M385.807533,139.738396 C385.337965,139.206519 384.339227,139.171302 383.576178,139.659834 C382.814934,140.148366 382.576538,140.97553 383.045204,141.507407 C383.515676,142.039284 384.514413,142.074502 385.276559,141.58597 C386.039609,141.097437 386.278005,140.270273 385.807533,139.738396" id="Fill-134" fill="#9E7059"></path>
                            <path d="M380.119518,153.232905 C364.977725,153.232905 365.106838,175.839942 365.106838,175.839942 L365.50599,207.160192 L396.316035,207.160192 L396.861458,173.87317 C396.861458,173.87317 395.261311,153.232905 380.119518,153.232905" id="Fill-136" fill="#00898B"></path>
                            <path d="M396.447966,174.267337 C396.447966,174.267337 414.510117,172.701506 418.537574,164.869637 C422.565934,157.037769 388.413822,137.718618 388.413822,137.718618 L385.27674,141.586241 C385.27674,141.586241 395.265917,155.992978 403.768727,159.275445 C395.719231,156.555557 386.047917,154.467781 386.047917,154.467781 L389.853231,170.910822 L396.447966,174.267337 Z" id="Fill-138" fill="#00898B"></path>
                            <path d="M388.41337,137.718889 C388.41337,137.718889 385.763918,133.575845 380.595047,133.09544 C377.368566,132.795639 374.000312,132.198744 372.932946,131.792386 C372.523879,131.636164 372.110297,132.00008 372.185247,132.431723 C372.801105,135.994126 374.148407,136.439313 380.826219,138.885587 C384.782338,140.520951 385.552612,142.312537 385.552612,142.312537 L388.41337,137.718889 Z" id="Fill-140" fill="#825A46"></path>
                            <path d="M361.030998,313.465097 C361.030998,313.465097 358.260541,316.035084 351.943935,317.643358 C350.552386,317.998244 349.053377,317.52416 349.053377,319.818727 L356.719994,319.818727 L363.094392,318.716143 L363.094392,319.818727 L366.5385,319.818727 C366.5385,319.818727 367.497504,314.187511 365.486485,313.465097 L361.030998,313.465097 Z" id="Fill-142" fill="#212B53"></path>
                            <path d="M361.708261,309.419219 L361.030998,313.464736 C362.287998,314.335245 363.93781,314.391232 365.249894,313.60651 L365.486485,313.464736 L365.143338,309.419219 L361.708261,309.419219 Z" id="Fill-144" fill="#825A46"></path>
                            <path d="M365.506351,207.160373 L360.623737,310.762638 L366.400338,310.762638 C366.400338,310.762638 375.505461,278.653151 375.450377,263.931261 C375.444056,262.464761 375.608405,261.011806 376.005733,259.599487 C381.170088,241.250177 386.048188,207.160373 386.048188,207.160373 L365.506351,207.160373 Z" id="Fill-146" fill="#212B53"></path>
                            <path d="M387.271415,313.465097 C387.271415,313.465097 384.500958,316.035084 378.184352,317.643358 C376.792803,317.998244 375.293794,317.52416 375.293794,319.818727 L382.96041,319.818727 L389.335712,318.716143 L389.335712,319.818727 L392.778917,319.818727 C392.778917,319.818727 393.737921,314.187511 391.726902,313.465097 L387.271415,313.465097 Z" id="Fill-148" fill="#212B53"></path>
                            <path d="M387.948678,309.419219 L387.271415,313.464736 C388.528415,314.335245 390.178227,314.391232 391.490311,313.60651 L391.726902,313.464736 L391.383755,309.419219 L387.948678,309.419219 Z" id="Fill-150" fill="#9E7059"></path>
                            <path d="M396.315674,207.160373 C396.315674,207.160373 399.105997,235.586452 394.745327,254.569681 C394.251377,256.717959 394.058131,258.923127 394.263116,261.119265 C396.955913,290.021235 392.580795,310.762638 392.580795,310.762638 L387.4345,310.762638 L372.17712,207.160373 L396.315674,207.160373 Z" id="Fill-152" fill="#053C5D"></path>
                            <polygon id="Fill-154" fill="#63C0C4" points="386.048278 154.467962 384.426459 151.219809 376.910646 151.219809 375.185883 154.071537"></polygon>
                            <path d="M375.185613,154.071086 C365.777979,154.071086 344.769283,174.448573 348.231451,181.584215 C351.692716,188.718955 364.130875,205.73812 364.130875,205.73812 L369.428878,204.851358 L361.666541,182.853858 L376.056121,169.218297 C376.056121,169.218297 384.594149,154.071086 375.185613,154.071086" id="Fill-156" fill="#00898B"></path>
                            <path d="M365.815906,205.092463 C365.725604,204.478411 365.522425,203.877002 365.197339,203.339707 C365.169345,203.286429 365.149479,203.230442 365.119679,203.17897 L364.772018,175.841026 C364.770212,175.517745 364.774727,170.672155 366.272832,165.507799 C366.440794,165.768771 366.606949,166.030646 366.78394,166.284394 C365.454699,171.232026 365.44296,175.762463 365.44296,175.836511 L365.815906,205.092463 Z" id="Fill-158" fill="#63C0C4"></path>
                            <path d="M296.854104,312.939541 C296.854104,312.939541 293.644781,315.916789 286.328535,317.779714 C284.717553,318.189684 282.98105,317.641552 282.98105,320.299132 L291.860419,320.299132 L299.244391,319.022266 L299.244391,320.299132 L303.233018,320.299132 C303.233018,320.299132 304.344632,313.776638 302.014848,312.939541 L296.854104,312.939541 Z" id="Fill-160" fill="#212B53"></path>
                            <path d="M297.639007,308.254236 L296.854285,312.93909 C298.309949,313.948663 300.220733,314.012777 301.740511,313.103439 L302.015029,312.93909 L301.616798,308.254236 L297.639007,308.254236 Z" id="Fill-162" fill="#C49C65"></path>
                            <path d="M326.297433,312.939541 C326.297433,312.939541 323.08811,315.916789 315.771864,317.779714 C314.160881,318.189684 312.424379,317.641552 312.424379,320.299132 L321.303748,320.299132 L328.68772,319.022266 L328.68772,320.299132 L332.676347,320.299132 C332.676347,320.299132 333.787058,313.776638 331.457274,312.939541 L326.297433,312.939541 Z" id="Fill-164" fill="#212B53"></path>
                            <path d="M327.081433,308.254236 L326.297614,312.93909 C327.752374,313.948663 329.663159,314.012777 331.18384,313.103439 L331.457454,312.93909 L331.060127,308.254236 L327.081433,308.254236 Z" id="Fill-166" fill="#D9B183"></path>
                            <path d="M290.757925,210.918008 C290.757925,210.918008 286.764783,248.210814 286.056818,253.79417 C285.348852,259.378428 296.040576,310.951549 296.040576,310.951549 L302.880029,311.152019 C302.880029,311.152019 304.68516,281.057163 304.367298,263.917896 C304.254421,257.871292 306.948121,251.103178 310.42835,245.979458 C325.028333,224.487648 323.744242,209.921077 323.744242,209.921077 L290.757925,210.918008 Z" id="Fill-168" fill="#212B53"></path>
                            <path d="M295.918488,211.511471 C295.918488,211.511471 297.887969,237.198699 301.53074,250.992288 C303.062258,256.792367 325.948327,310.507445 325.948327,310.507445 L332.098777,310.392762 C332.098777,310.392762 331.176796,284.058973 324.537814,266.252376 C322.19629,259.970988 322.915995,256.751732 323.30971,251.487141 C325.027249,228.48368 323.744061,208.830413 323.744061,208.830413 L295.918488,211.511471 Z" id="Fill-170" fill="#053C5D"></path>
                            <path d="M278.133293,136.427032 L279.805681,131.335821 C279.957388,130.890633 280.330334,130.555614 280.789066,130.45267 L281.878105,130.209758 C282.225767,130.132099 282.590586,130.19531 282.892194,130.384944 L287.361226,133.198745 C287.891297,133.531959 288.122469,134.186646 287.919291,134.778123 L287.705275,135.401205 C287.592398,135.730806 287.355808,136.00442 287.04517,136.164254 L281.129504,139.206519 L278.133293,136.427032 Z" id="Fill-172" fill="#D9B183"></path>
                            <path d="M281.129775,139.206158 L285.75232,138.174009 C286.565036,137.992503 286.996678,137.102128 286.635471,136.352623 L285.742387,134.497826 C285.504893,134.003876 282.544803,133.812436 282.544803,133.812436 C282.544803,133.812436 281.823292,135.867703 284.549501,135.76205 C284.449266,136.125063 284.746359,136.778848 284.746359,136.778848 C284.746359,136.778848 281.847674,135.214822 278.966146,137.199654 L281.129775,139.206158 Z" id="Fill-174" fill="#C59C6E"></path>
                        </g>
                        <g id="Group-179" transform="translate(268.196040, 135.301782)">
                            <mask id="mask-16" fill="white">
                                <use xlink:href="#path-15"></use>
                            </mask>
                            <g id="Clip-178"></g>
                            <path d="M1.71031466,25.0460862 C6.84396767,34.6153599 23.1587802,50.3233448 23.1587802,50.3233448 L23.1587802,50.3233448 L31.3807522,29.4627435 C31.3807522,29.4627435 19.6460431,30.1580668 12.4309353,22.206097 L12.4309353,22.206097 C5.2167306,14.2541272 14.0328879,3.95340948 14.0328879,3.95340948 L14.0328879,3.95340948 L9.53586207,0.370237069 C9.53586207,0.370237069 -3.4251444,15.4768125 1.71031466,25.0460862" id="Fill-177" fill="url(#linearGradient-17)" mask="url(#mask-16)"></path>
                        </g>
                        <g id="Group-184" transform="translate(307.928798, 127.174627)">
                            <path d="M10.5695459,6.03757328 L8.33096616,1.16940733 C8.13049634,0.744086207 7.72142953,0.453314655 7.25276358,0.403648707 L6.14385841,0.285353448 C5.78987565,0.248329741 5.43498987,0.352176724 5.15686056,0.574318966 L1.03548987,3.87755603 C0.546957543,4.26946552 0.391638578,4.94582543 0.660737716,5.51111422 L0.944285129,6.10529957 C1.09418599,6.42045259 1.35967306,6.66517026 1.68566228,6.78888362 L7.90925711,9.1394375 L10.5695459,6.03757328 Z" id="Fill-180" fill="#D9B183"></path>
                            <path d="M7.90898621,9.13907629 L3.19794526,8.63880474 C2.37078147,8.55121207 1.84071034,7.7150181 2.11432457,6.9293931 L2.7915875,4.98429397 C2.97128793,4.46686509 5.89074267,3.94040603 5.89074267,3.94040603 C5.89074267,3.94040603 6.84161983,5.90085647 4.11992586,6.10584138 C4.26079655,6.45530905 4.03955733,7.13799009 4.03955733,7.13799009 C4.03955733,7.13799009 6.74228793,5.25519914 9.82970388,6.90049655 L7.90898621,9.13907629 Z" id="Fill-182" fill="#C59C6E"></path>
                        </g>
                        <g id="Group-187" transform="translate(289.868453, 131.689713)">
                            <mask id="mask-20" fill="white">
                                <use xlink:href="#path-19"></use>
                            </mask>
                            <use id="Clip-186" fill="url(#linearGradient-18)" xlink:href="#path-19"></use>
                            <path d="M29.2487284,0.253747845 L25.4488319,4.97833405 C25.4488319,4.97833405 41.1848103,6.2904181 36.7500927,13.144319 L36.7500927,13.144319 C32.314472,19.9982198 17.8300754,29.5124095 17.8300754,29.5124095 L17.8300754,29.5124095 L7.89869181,29.4672586 C-3.03775,36.3536681 0.889471983,80.3188685 0.889471983,80.3188685 L0.889471983,80.3188685 L33.8757888,77.1402478 L31.0439267,44.6162759 C31.0439267,44.6162759 46.4304375,26.710347 49.5855797,13.4341875 L49.5855797,13.4341875 C52.6946681,0.346758621 29.9088341,0.253747845 29.2631767,0.253747845 L29.2631767,0.253747845 C29.2541466,0.253747845 29.2487284,0.253747845 29.2487284,0.253747845" id="Fill-185" fill="url(#linearGradient-21)" mask="url(#mask-20)"></path>
                        </g>
                        <g id="Group-198" transform="translate(289.692554, 135.108661)">
                            <path d="M1.36688847,76.2105576 C0.99755442,71.465202 -1.02339817,41.8110188 5.04939278,30.1693205 C4.92026132,29.9083486 4.79745097,29.6437645 4.67734968,29.3782774 C-2.11333998,41.4335576 0.40517511,73.3570231 0.690528558,76.704508 C0.911767783,76.5356438 1.14113416,76.3758098 1.36688847,76.2105576" id="Fill-188" fill="#32A6A5"></path>
                            <path d="M15.3019796,25.550297 L14.0034408,19.3853983 L6.94003998,20.0129953 L6.25103783,27.2877022 C6.29347964,27.3418832 6.34314558,27.3906462 6.39371455,27.4367001 C9.14249903,26.1417733 12.2425572,25.4834738 15.3019796,25.550297" id="Fill-190" fill="#C59C6E"></path>
                            <path d="M18.1353768,7.49347398 L16.0683704,17.0970623 C15.1102691,16.9011076 14.3770191,17.8438576 14.4140428,18.7802865 C14.2785902,18.9834654 14.1819674,19.2191529 14.1359135,19.4674826 C12.2693768,20.3930753 8.97607295,21.4604417 5.18159451,20.0743102 C-0.756646873,17.9052628 4.86734451,6.65908605 4.86734451,6.65908605 L18.1353768,7.49347398 Z" id="Fill-192" fill="#D9B183"></path>
                            <path d="M19.8408152,12.8379815 C22.4342807,8.98029187 20.6625609,5.85224015 19.2872656,4.3622617 C17.1859445,2.08665825 14.3107376,0.0810569558 11.7877074,0.0151366972 C7.34125054,-0.101352527 5.57494882,0.431427645 3.0076708,2.41987161 C-0.897878769,5.44588239 4.2854402,8.03212377 4.2854402,8.03212377 C4.2854402,8.03212377 7.61576778,10.089197 12.6419617,9.0028673 C13.3318669,8.85386946 14.0786622,9.12025954 14.3992333,9.74875954 C15.27516,11.4744255 13.9766212,19.5555268 13.9766212,19.5555268 C13.9766212,19.5555268 16.585438,17.682669 19.8408152,12.8379815" id="Fill-194" fill="#212B53"></path>
                            <path d="M16.2287462,15.4632332 C15.7943949,16.1730048 14.8660932,16.395147 14.1572247,15.9607957 C13.4474531,15.5264445 13.2253109,14.5981427 13.6596622,13.8892742 C14.0940135,13.1795026 15.0214122,12.9573604 15.7311837,13.3917117 C16.4400523,13.826966 16.6630975,14.7534617 16.2287462,15.4632332" id="Fill-196" fill="#D9B183"></path>
                        </g>
                        <g id="Group-201" transform="translate(295.286557, 156.974196)">
                            <mask id="mask-23" fill="white">
                                <use xlink:href="#path-22"></use>
                            </mask>
                            <g id="Clip-200"></g>
                            <polygon id="Fill-199" fill="url(#linearGradient-24)" mask="url(#mask-23)" points="0.852448276 2.81560776 0.632112069 6.15135345 11.5793901 4.22341164 9.37783405 0.53368319"></polygon>
                        </g>
                        <g id="Group-258" transform="translate(35.424031, 117.459698)">
                            <path d="M39.6608688,193.989504 C39.6608688,193.989504 42.7067459,196.815045 49.6509485,198.584055 C51.1806597,198.974159 52.8295692,198.453118 52.8295692,200.975245 L44.4008063,200.975245 L37.3915864,199.763396 L37.3915864,200.975245 L33.6052351,200.975245 C33.6052351,200.975245 32.551414,194.784159 34.7629033,193.989504 L39.6608688,193.989504 Z" id="Fill-202" fill="#212B53"></path>
                            <path d="M38.9161505,189.542324 L39.6611397,193.989684 C38.2795233,194.946883 36.4653617,195.008288 35.0223401,194.145906 L34.7631742,193.989684 L35.1397323,189.542324 L38.9161505,189.542324 Z" id="Fill-204" fill="#F6B58E"></path>
                            <path d="M6.30566942,193.989504 C6.30566942,193.989504 9.35244959,196.815045 16.2966522,198.584055 C17.8254604,198.974159 19.4743698,198.453118 19.4743698,200.975245 L11.0465099,200.975245 L4.03638709,199.763396 L4.03638709,200.975245 L0.250938813,200.975245 C0.250938813,200.975245 -0.802882307,194.784159 1.40860692,193.989504 L6.30566942,193.989504 Z" id="Fill-206" fill="#212B53"></path>
                            <path d="M5.56140261,189.542324 L6.30548881,193.989684 C4.92387243,194.946883 3.11061381,195.008288 1.66759226,194.145906 L1.40842631,193.989684 L1.7849845,189.542324 L5.56140261,189.542324 Z" id="Fill-208" fill="#F6B58E"></path>
                            <path d="M32.6135416,21.3333295 C32.3769511,20.994698 32.319158,20.5621528 32.4600287,20.1738554 L34.0276666,15.8285364 C34.3066989,15.0564567 35.2331946,14.7476248 35.9203908,15.1973273 L42.6505783,19.6022454 C43.0090761,19.8379329 43.2248972,20.2379696 43.2248972,20.6669028 L43.2248972,27.2742799 C43.2248972,27.2742799 46.5976666,45.1431851 45.0092593,52.1623381 C43.4199489,59.1814911 38.3675675,53.7669998 36.9913692,52.5723079 C39.9550718,43.6857153 38.4831537,29.7322929 38.4831537,29.7322929 L32.6135416,21.3333295 Z" id="Fill-210" fill="#F6B58E"></path>
                            <path d="M44.5414964,65.8994879 C44.5414964,65.8994879 55.519477,62.4030051 58.9599726,57.7028004 C62.4004683,53.0016926 56.5787162,27.2747314 56.5787162,27.2747314 L57.3300265,22.644962 C57.7535416,20.0379513 55.7542614,17.666628 53.113839,17.6440526 L50.181742,17.6177954 C48.9608627,17.6070289 48.137311,18.8622228 48.6330675,19.9774491 L52.4907571,28.6563478 C52.4907571,28.6563478 55.3858304,48.1434599 51.331283,49.6216991 C46.4956257,51.344656 41.0215351,51.7600439 41.0215351,51.7600439 L44.5414964,65.8994879 Z" id="Fill-212" fill="#F6B58E"></path>
                            <path d="M12.7542058,102.233561 C12.7542058,102.233561 13.337555,115.586476 16.2254041,130.06094 C17.0760464,134.324987 16.7563783,138.738033 15.3693438,142.8585 C8.8134386,162.33297 0.659192908,191.616013 0.659192908,191.616013 L6.76358946,191.616013 C6.76358946,191.616013 26.3211369,157.007877 31.094486,139.840617 C35.8669321,122.672453 36.6841627,117.221841 36.6841627,117.221841 L31.0050873,102.233561 L12.7542058,102.233561 Z" id="Fill-214" fill="#212B53"></path>
                            <path d="M24.2460936,29.7360855 L13.2473436,36.9069454 L16.6426884,45.5993894 C16.6905483,45.7221998 16.7546625,45.8359799 16.8088436,45.9542752 C17.0508522,45.9407299 17.2919578,45.9262817 17.5366755,45.9262817 C17.5764082,45.9262817 17.615238,45.9298937 17.6558737,45.9307967 C17.6938005,45.9298937 17.7317272,45.9262817 17.7696539,45.9262817 C20.7143931,45.9262817 23.2446474,47.7368312 24.7806798,50.1749778 C26.5614298,50.0413312 28.3295375,49.608786 29.9721259,48.827676 C31.0909642,48.2957989 32.0662229,47.6627838 32.4183996,46.9746847 C33.5959341,40.810689 24.2460936,29.7360855 24.2460936,29.7360855" id="Fill-216" fill="#F6B58E"></path>
                            <polygon id="Fill-218" fill="#F39F85" points="21.8196862 50.1804862 20.8588759 56.1819388 29.3607832 56.1819388 29.9721259 48.8277664"></polygon>
                            <path d="M24.9101724,50.1804862 L22.3266401,44.4508418 L24.0053492,43.3961176 C25.2451918,42.6177168 25.7870022,41.0898116 25.3147242,39.7036801 L23.475278,34.303637 C23.475278,34.303637 28.709166,33.6633978 28.551138,28.7880077 C28.551138,26.2776198 25.096194,26.2640745 25.096194,26.2640745 C25.096194,26.2640745 24.0640453,28.5071694 20.8583341,28.7735595 C19.4821358,28.6010832 15.7048147,29.1076758 13.1565,33.5559388 C11.4425733,36.5476349 12.1938836,41.2333914 13.6856681,44.7497405 C15.0230367,47.9012707 18.4373448,49.6612513 21.8200474,50.1804862 L24.9101724,50.1804862 Z" id="Fill-220" fill="#212B53"></path>
                            <path d="M20.9369869,41.7817034 C20.629058,42.6847207 21.2512369,43.8794125 22.3267304,44.4510224 C23.4022239,45.0217293 24.5237714,44.7526301 24.8307972,43.8505159 C25.1396291,42.9474987 24.5165472,41.7528069 23.4410537,41.181197 C22.3664632,40.6104901 21.2449158,40.8786862 20.9369869,41.7817034" id="Fill-222" fill="#F6B58E"></path>
                            <path d="M39.4100106,102.233561 L12.7538446,102.233561 L12.7538446,68.0353946 C12.7538446,60.5448666 18.4563985,54.284248 25.9153209,53.5880217 L44.4515558,51.3449269 C44.4515558,51.3449269 46.6314395,54.6815756 52.7051334,62.4339786 C45.405142,66.9436467 36.9574158,69.0214894 36.9574158,69.0214894 L39.4100106,102.233561 Z" id="Fill-224" fill="#63C0C4"></path>
                            <path d="M12.7542058,102.233561 C12.7542058,102.233561 16.5188847,115.859188 30.4099989,131.131015 C32.7298502,133.436418 36.070111,138.234149 35.5951239,145.017614 L33.764708,191.616013 L39.9864968,191.616013 C39.9864968,191.616013 51.1279235,152.920821 48.9480399,133.844582 C46.7681563,114.769246 39.4103718,102.233561 39.4103718,102.233561 L12.7542058,102.233561 Z" id="Fill-226" fill="#053C5D"></path>
                            <polygon id="Fill-228" fill="#C59C6E" points="104.1093 10.6006987 104.544554 41.6708129 96.1130819 39.425912 100.872886 9.13690773"></polygon>
                            <path d="M99.5801263,2.95945708 C99.249622,4.02050234 99.3209604,5.16733424 99.7833052,6.17781053 L100.879568,10.2513213 L101.650745,10.6414248 L104.122303,11.5345088 C103.736715,10.7543019 103.966984,11.595914 103.966984,11.595914 L104.864583,5.31633208 C104.864583,5.31633208 107.505006,1.62570062 101.690478,0.0535476017 C101.135122,-0.0972562776 100.507525,0.0716079465 100.181536,0.545691998 C99.3652082,1.73767476 99.5801263,2.95945708 99.5801263,2.95945708" id="Fill-230" fill="#C59C6E"></path>
                            <path d="M99.8548242,66.1067304 C103.297126,53.2125472 104.545096,41.6701808 104.545096,41.6701808 L96.4107164,37.5325558 L92.7390483,48.2667217 L99.8548242,66.1067304 Z" id="Fill-232" fill="#00666A"></path>
                            <path d="M83.2384942,191.781356 L86.7756127,192.395407 C87.5061537,188.009453 98.5049037,167.213869 99.3988908,156.411976 C100.391307,144.421713 103.178018,131.072409 103.178018,131.072409 L91.347589,127.554254 C91.347589,127.554254 88.3531839,127.554254 91.6428757,151.99261 C84.2453584,161.700948 82.2623326,183.734569 83.2384942,191.781356" id="Fill-234" fill="#C59C6E"></path>
                            <path d="M91.94945,118.665133 C91.94945,118.665133 94.7280341,135.382691 98.5929479,153.262433 C94.5564608,164.058907 100.707814,194.186271 100.821594,194.079715 C101.285745,193.642655 103.410545,196.261405 103.410545,196.261405 C103.410545,196.261405 107.896735,169.672062 108.88915,157.682702 C109.881566,145.691536 110.12809,131.071687 110.12809,131.071687 L91.94945,118.665133 Z" id="Fill-236" fill="#D9B183"></path>
                            <path d="M104.417866,189.64005 L104.417866,192.955808 C104.366394,193.754075 105.733703,194.737046 106.188824,195.395345 C106.692708,196.122274 108.018131,196.868216 109.42142,198.00963 C106.89937,198.00963 103.24256,196.142206 101.97653,194.162793 C101.358866,193.19837 100.869003,193.527791 101.03877,192.395407 L101.735425,187.925653 L104.417866,189.64005 Z" id="Fill-240" fill="#D9B183"></path>
                            <path d="M100.319607,192.395136 C100.319607,192.395136 98.63548,193.82371 98.9452149,195.644192 C99.2531438,197.463772 99.6902041,201.726917 99.6902041,201.726917 L101.421288,201.726917 L101.36801,197.750932 C101.373428,197.491766 105.081217,201.726917 105.709717,201.726917 L114.870827,201.726917 C114.870827,201.726917 115.479461,199.044955 110.100187,198.182574 C104.72001,197.321095 100.319607,192.395136 100.319607,192.395136" id="Fill-238" fill="#053C5D"></path>
                            <path d="M87.1795323,189.365062 L86.9348147,193.158637 C86.8833427,193.956905 87.1045819,194.745239 87.5597026,195.403538 C88.0635862,196.130467 88.9115194,197.125592 90.3148082,198.267006 C87.6581315,199.12126 85.2425604,196.142206 83.9765302,194.162793 C83.3588664,193.19837 83.1186638,192.044314 83.2884311,190.911931 L83.7354246,187.925653 L87.1795323,189.365062 Z" id="Fill-240" fill="#C59C6E"></path>
                            <path d="M83.2384942,191.451574 C83.2384942,191.451574 80.9023886,191.661074 80.5140912,193.438212 C80.1266968,195.21535 79.0223067,198.811164 79.0223067,198.811164 L80.296464,199.827059 L82.0934683,196.261044 C82.0934683,196.261044 85.9574791,201.47055 86.5715308,201.727007 L96.5724468,201.727007 C96.5724468,201.727007 96.5724468,198.417449 90.3145373,198.267548 C84.5469662,198.129386 83.2384942,191.451574 83.2384942,191.451574" id="Fill-242" fill="#212B53"></path>
                            <polygon id="Fill-244" fill="#D9B183" points="134.006756 14.6166873 122.90145 43.6378554 115.900357 38.4283489 131.542422 12.0584394"></polygon>
                            <path d="M132.631099,5.84134631 C131.930358,6.70463079 131.572763,7.79637864 131.626944,8.90618683 L131.136606,13.0952838 L131.708216,13.7445532 L133.673181,15.4882795 C133.603649,14.6213829 133.506123,15.4882795 133.506123,15.4882795 L136.66578,9.98800148 C136.66578,9.98800148 140.486446,7.53811571 135.667946,3.92333769 C135.207407,3.5783851 134.56175,3.50253165 134.084054,3.82219976 C132.883944,4.62678812 132.631099,5.84134631 132.631099,5.84134631" id="Fill-246" fill="#D9B183"></path>
                            <polygon id="Fill-248" fill="#C59C6E" points="103.177657 50.7510125 96.020342 50.7510125 98.8774886 42.3394069 104.473486 45.7780965"></polygon>
                            <path d="M112.685345,59.797981 C112.649224,59.585772 112.600461,59.4078776 112.558922,59.2137289 C119.645802,50.0733883 122.901179,43.6375845 122.901179,43.6375845 L116.878054,36.7800715 L105.94703,49.7817138 L101.929506,49.7988711 C101.929506,49.7988711 96.5032757,46.2184077 91.7633382,51.105537 C90.0313511,52.8917051 88.8781981,57.7345866 90.0349632,62.8537914 C93.2244201,76.9679508 90.7293834,84.4340974 90.7293834,84.4340974 L109.19428,91.3187008 C109.19428,91.3187008 109.614183,79.0457935 109.903149,70.4382332 C109.903149,70.427397 109.904052,70.4183668 109.904052,70.4075306 C109.960039,68.7288215 110.520812,67.1268689 111.403963,65.6973926 C112.419858,64.0511922 113.063709,62.0464939 112.685345,59.797981" id="Fill-250" fill="#00898B"></path>
                            <path d="M105.693102,27.2196474 L93.9556834,31.3283758 L95.1133515,40.0894491 C95.1296058,40.2140655 95.1630175,40.3323607 95.1855929,40.4542681 C95.4113472,40.4958069 95.6371015,40.5373457 95.8610498,40.5924297 C95.8980735,40.6014599 95.9332912,40.6141021 95.9694119,40.6240353 C96.0046295,40.6321625 96.0407502,40.6357745 96.0759679,40.6457077 C98.7841166,41.3103284 100.702125,43.5489082 101.563604,46.1378586 C103.231477,46.4177939 104.956239,46.420503 106.643076,46.0728414 C107.791714,45.8362508 108.831989,45.4750439 109.311492,44.9223974 C111.787565,39.5196452 105.693102,27.2196474 105.693102,27.2196474" id="Fill-252" fill="#D9B183"></path>
                            <path d="M105.422828,34.6757704 C102.263171,36.2208329 103.007257,52.5040398 102.461835,63.5948976 C102.168354,69.5620355 97.6902918,74.4401347 91.7908802,75.3819817 C87.6072013,76.0493114 83.0153586,76.1721217 80.2449017,74.5936476 C82.0762207,73.096445 91.9498112,58.5687036 88.7874448,39.3317273 C88.3711539,36.80057 88.3196819,29.7507144 92.5837293,25.9246304 C97.3200548,21.6750312 107.092507,27.2195571 107.092507,27.2195571 C107.092507,27.2195571 109.763632,32.5536799 105.422828,34.6757704" id="Fill-254" fill="#212B53"></path>
                            <path d="M109.571561,84.005706 C109.571561,84.005706 112.02867,96.5188159 112.02867,103.962387 C112.02867,108.052152 111.025418,133.815234 111.025418,133.815234 C111.025418,133.815234 93.4825024,135.084876 90.0754183,135.084876 C89.2301942,113.973236 84.4171123,113.323967 84.4171123,103.477467 C84.4171123,99.1980681 86.6114442,94.3615077 88.2955714,91.2795099 C89.5047114,89.0662146 90.2632459,87.5220551 90.7292028,84.4346392 L90.842983,84.0346026 L109.571561,84.005706 Z" id="Fill-256" fill="#FED147"></path>
                        </g>
                    </g>
                </g>
            </g>
        </g>
    </g>
</svg>