<?xml version="1.0" encoding="UTF-8"?>
<svg width="20px" height="20px" viewBox="0 0 20 20" version="1.1" xmlns="http://www.w3.org/2000/svg" xmlns:xlink="http://www.w3.org/1999/xlink">
    <title>icon-doc-library-white</title>
    <g id="Page-1-Icons" stroke="none" stroke-width="1" fill="none" fill-rule="evenodd">
        <g id="PECOS-2.0-Icons-Overview-v24" transform="translate(-2412.000000, -180.000000)" fill="#FFFFFF">
            <g id="MODAL-DIALOG-ICONS" transform="translate(2161.000000, 69.000000)">
                <g id="icon-doc-library-white" transform="translate(251.000000, 110.999999)">
                    <path d="M3.48179436,6 L3.4814375,7.561 L3,7.56102633 C2.75454011,7.56102633 2.55039163,7.73790149 2.50805567,7.9711507 L2.5,8.06102633 L2.5,18.4620435 L11.4855118,18.4620435 L11.4854375,18.02 L13,18.0201852 L13,18.9978302 C13,19.5501149 12.5522847,19.9978302 12,19.9978302 L2.0234375,19.9978302 C1.47115275,19.9978302 1.0234375,19.5501149 1.0234375,18.9978302 L1.0234375,7.00000071 C1.0234375,6.44771596 1.47115275,6.00000071 2.0234375,6.00000071 L3.48179436,6 Z" id="Combined-Shape-Copy-8"></path>
                    <path d="M6.50945473,3 L6.5094375,4.561 L6,4.56102633 C5.75454011,4.56102633 5.55039163,4.73790149 5.50805567,4.9711507 L5.5,5.06102633 L5.5,15.4620435 L14.4855118,15.4620435 L14.4854375,15.02 L16,15.0201852 L16,15.9978302 C16,16.5501149 15.5522847,16.9978302 15,16.9978302 L5.0234375,16.9978302 C4.47115275,16.9978302 4.0234375,16.5501149 4.0234375,15.9978302 L4.0234375,4.00000071 C4.0234375,3.44771596 4.47115275,3.00000071 5.0234375,3.00000071 L6.50945473,3 Z" id="Combined-Shape-Copy-8"></path>
                    <path d="M16.495224,-2.39808173e-14 L19,2.56088042 L19,12.9978302 C19,13.5501149 18.5522847,13.9978302 18,13.9978302 L8.0234375,13.9978302 C7.47115275,13.9978302 7.0234375,13.5501149 7.0234375,12.9978302 L7.0234375,1 C7.0234375,0.44771525 7.47115275,-2.38793643e-14 8.0234375,-2.39808173e-14 L16.495224,-2.39808173e-14 Z M15.4795609,1.56513667 L8.99127197,1.56513667 C8.74581208,1.56513667 8.5416636,1.74201183 8.49932764,1.97526104 L8.49127197,2.06513667 L8.49127197,12.4682548 L17.4855118,12.4682548 L17.4855118,3.57021403 L15.9795609,3.57021403 C15.734101,3.57021403 15.5299525,3.39333887 15.4876165,3.16008966 L15.4795609,3.07021403 L15.4795609,1.56513667 Z M15.5056572,8.99743724 C15.7817996,8.99743724 16.0056572,9.22129486 16.0056572,9.49743724 C16.0056572,9.77357961 15.7817996,9.99743724 15.5056572,9.99743724 L10.5078506,9.99743724 C10.2317083,9.99743724 10.0078506,9.77357961 10.0078506,9.49743724 C10.0078506,9.22129486 10.2317083,8.99743724 10.5078506,8.99743724 L15.5056572,8.99743724 Z M15.5153542,7.00136542 C15.7914965,7.00136542 16.0153542,7.22522305 16.0153542,7.50136542 C16.0153542,7.7775078 15.7914965,8.00136542 15.5153542,8.00136542 L10.5112724,8.00136542 C10.2351301,8.00136542 10.0112724,7.7775078 10.0112724,7.50136542 C10.0112724,7.22522305 10.2351301,7.00136542 10.5112724,7.00136542 L15.5153542,7.00136542 Z M15.4966774,5.00500655 C15.7728198,5.00500655 15.9966774,5.22886418 15.9966774,5.50500655 C15.9966774,5.78114893 15.7728198,6.00500655 15.4966774,6.00500655 L10.5114098,6.00500655 C10.2352674,6.00500655 10.0114098,5.78114893 10.0114098,5.50500655 C10.0114098,5.22886418 10.2352674,5.00500655 10.5114098,5.00500655 L15.4966774,5.00500655 Z M13.5081997,3.00212788 C13.7843421,3.00212788 14.0081997,3.22598551 14.0081997,3.50212788 C14.0081997,3.77827026 13.7843421,4.00212788 13.5081997,4.00212788 L10.5002747,4.00212788 C10.2241323,4.00212788 10.0002747,3.77827026 10.0002747,3.50212788 C10.0002747,3.22598551 10.2241323,3.00212788 10.5002747,3.00212788 L13.5081997,3.00212788 Z" id="document-copy"></path>
                </g>
            </g>
        </g>
    </g>
</svg>