<?xml version="1.0" encoding="UTF-8"?>
<svg width="20px" height="20px" viewBox="0 0 20 20" version="1.1" xmlns="http://www.w3.org/2000/svg" xmlns:xlink="http://www.w3.org/1999/xlink">
    <title>icon-close-blue</title>
    <g id="Page-1-Icons" stroke="none" stroke-width="1" fill="none" fill-rule="evenodd">
        <g id="PECOS-2.0-Icons-Overview-v28" transform="translate(-2297.000000, -214.000000)" fill="#0573BB">
            <g id="MODAL-DIALOG-ICONS" transform="translate(2274.000000, 69.000000)">
                <g id="icon-close-blue" transform="translate(23.000000, 145.000000)">
                    <path d="M5.29289322,5.29289322 C5.68341751,4.90236893 6.31658249,4.90236893 6.70710678,5.29289322 L6.70710678,5.29289322 L10.242,8.828 L13.7781746,5.29289322 C14.1686989,4.90236893 14.8018639,4.90236893 15.1923882,5.29289322 C15.5829124,5.68341751 15.5829124,6.31658249 15.1923882,6.70710678 L11.657,10.242 L15.1923882,13.7781746 C15.5528721,14.1386586 15.5806017,14.7058896 15.2755768,15.0981808 L15.1923882,15.1923882 C14.8018639,15.5829124 14.1686989,15.5829124 13.7781746,15.1923882 L13.7781746,15.1923882 L10.242,11.657 L6.70710678,15.1923882 C6.31658249,15.5829124 5.68341751,15.5829124 5.29289322,15.1923882 C4.90236893,14.8018639 4.90236893,14.1686989 5.29289322,13.7781746 L8.828,10.242 L5.29289322,6.70710678 C4.93240926,6.34662282 4.90467972,5.77939176 5.20970461,5.38710056 Z"></path>
                </g>
            </g>
        </g>
    </g>
</svg>