<?xml version="1.0" encoding="UTF-8"?>
<svg width="20px" height="20px" viewBox="0 0 20 20" version="1.1" xmlns="http://www.w3.org/2000/svg" xmlns:xlink="http://www.w3.org/1999/xlink">
    <title>icon-withdraw-white</title>
    <g id="Page-1-Icons" stroke="none" stroke-width="1" fill="none" fill-rule="evenodd">
        <g id="PECOS-2.0-Icons-Overview-v28" transform="translate(-2297.000000, -347.000000)" fill="#FFFFFF">
            <g id="MODAL-DIALOG-ICONS" transform="translate(2274.000000, 69.000000)">
                <g id="icon-withdraw-white" transform="translate(23.000000, 278.000000)">
                    <path d="M10,5 C10.5522847,5 11,5.44771525 11,6 L11,16.258 L14.9991864,12.2592706 C15.3806092,11.8778478 15.9990178,11.8778478 16.3804407,12.2592706 C16.7618635,12.6406935 16.7618635,13.2591021 16.3804407,13.6405249 L10.7071068,19.3138588 C10.3165825,19.7043831 9.68341751,19.7043831 9.29289322,19.3138588 L3.63110397,13.6520695 C3.2433052,13.2642708 3.2433052,12.6355248 3.63110397,12.247726 C4.01890273,11.8599272 4.64764876,11.8599272 5.03544752,12.247726 L9,16.212 L9,6 C9,5.44771525 9.44771525,5 10,5 Z M17,0 C17.5522847,-1.01453063e-16 18,0.44771525 18,1 L18,5.01083478 C18,5.55713564 17.5571356,6 17.0108348,6 C16.4645339,6 16.0216696,5.55713564 16.0216696,5.01083478 L16.0216696,1.99428511 L4.02062481,1.99428511 L4.02062481,5 C4.02062481,5.55228475 3.57290956,6 3.02062481,6 L3,6 C2.44771525,6 2,5.55228475 2,5 L2,1 C2,0.44771525 2.44771525,1.01453063e-16 3,0 L17,0 Z" id="icon-withdraw"></path>
                </g>
            </g>
        </g>
    </g>
</svg>