<?xml version="1.0" encoding="UTF-8"?>
<svg width="20px" height="20px" viewBox="0 0 20 20" version="1.1" xmlns="http://www.w3.org/2000/svg" xmlns:xlink="http://www.w3.org/1999/xlink">
    <title>icon-history-white</title>
    <g id="Page-1-Icons" stroke="none" stroke-width="1" fill="none" fill-rule="evenodd">
        <g id="PECOS-2.0-Icons-Overview-v24" transform="translate(-2181.000000, -416.000000)" fill="#FFFFFF">
            <g id="MODAL-DIALOG-ICONS" transform="translate(2161.000000, 69.000000)">
                <g id="icon-history-white" transform="translate(20.000000, 347.000000)">
                    <path d="M10,2.11792894e-09 C15.5228475,2.11792894e-09 20,4.4771525 20,10 C20,15.5228475 15.5228475,20 10,20 C5.14794799,20 1.10300057,16.5443744 0.191993978,11.9599595 L2.15058527,11.5527433 C2.87344957,15.2278464 6.1129892,18 10,18 C14.418278,18 18,14.418278 18,10 C18,5.581722 14.418278,2 10,2 C7.49404946,2 5.25721145,3.15220774 3.79035825,4.95575096 L5.30442964,6.13487122 C5.52221998,6.3046416 5.56114785,6.61882163 5.39137747,6.83661197 C5.33578163,6.90793324 5.26188406,6.96284166 5.17755335,6.99549061 L0.68052017,8.73653404 C0.423003544,8.83623258 0.133423438,8.70829574 0.0337249009,8.45077911 C0.0114344606,8.39320395 7.56090477e-18,8.33199841 0,8.27025894 L0,3.02372023 C7.72046149e-17,2.74757785 0.223857625,2.52372023 0.5,2.52372023 C0.61137298,2.52372023 0.719557856,2.56090462 0.807396454,2.62937594 L2.21329125,3.72512574 C4.04639555,1.45323107 6.85348762,2.11792894e-09 10,2.11792894e-09 Z M10,4.47704506 C10.5522847,4.47704506 11,4.92476031 11,5.47704506 L11,10 L11,10 L14.0659816,11.8965311 C14.5036211,12.1672428 14.6389428,12.7414749 14.3682312,13.1791144 C14.3476572,13.2123748 14.3250096,13.2443069 14.3004227,13.2747211 L14.2091246,13.3876577 C13.8843238,13.7894397 13.3069314,13.8776555 12.8769775,13.5911875 L9,11.008049 L9,11.008049 L9,5.47704506 C9,4.92476031 9.44771525,4.47704506 10,4.47704506 Z" id="arrow-circle"></path>
                </g>
            </g>
        </g>
    </g>
</svg>