<?xml version="1.0" encoding="UTF-8"?>
<svg width="20px" height="20px" viewBox="0 0 20 20" version="1.1" xmlns="http://www.w3.org/2000/svg" xmlns:xlink="http://www.w3.org/1999/xlink">
    <title>icon-assign-reassign-white</title>
    <g id="Page-1-Icons" stroke="none" stroke-width="1" fill="none" fill-rule="evenodd">
        <g id="PECOS-2.0-Icons-Overview-v31" transform="translate(-2682.000000, -278.000000)" fill="#FFFFFF">
            <g id="MODAL-DIALOG-ICONS" transform="translate(2471.000000, 69.000000)">
                <g id="icon-assign-reassign-white" transform="translate(211.000000, 209.000000)">
                    <path d="M7,5 C9.209139,5 11,7.01471863 11,9.5 C11,10.2644845 10.8305474,10.984444 10.5315924,11.6149347 C12.6066622,12.3949671 14,13.8428806 14,15.5 C14,17.9852814 10.8659932,20 7,20 C3.13400675,20 2.27373675e-13,17.9852814 2.27373675e-13,15.5 C2.27373675e-13,13.8428806 1.39333779,12.3949671 3.46796189,11.6140069 C3.16945256,10.984444 3,10.2644845 3,9.5 C3,7.01471863 4.790861,5 7,5 Z M9.20304856,13.255128 L9.12243125,13.3149836 C8.5072884,13.7490316 7.77969612,14 7,14 C6.18588021,14 5.4285666,13.7263818 4.79675564,13.256429 C3.14021477,13.6623653 2,14.5146048 2,15.5 C2,16.8807119 4.23857625,18 7,18 C9.76142375,18 12,16.8807119 12,15.5 C12,14.5146048 10.8597852,13.6623653 9.20304856,13.255128 Z M7,7 C5.8954305,7 5,8.11928813 5,9.5 C5,10.8807119 5.8954305,12 7,12 C8.1045695,12 9,10.8807119 9,9.5 C9,8.11928813 8.1045695,7 7,7 Z M15,0.391653538 C15.5522847,0.391653538 16,0.839368788 16,1.39165354 L15.9992965,3.99965354 L18.6238956,4 C19.1761804,4 19.6238956,4.44771525 19.6238956,5 C19.6238956,5.55228475 19.1761804,6 18.6238956,6 L15.9992965,5.99965354 L16,8.64056015 C16,9.1928449 15.5522847,9.64056015 15,9.64056015 C14.4477153,9.64056015 14,9.1928449 14,8.64056015 L13.9992965,5.99965354 L11.4292965,6 C10.8770117,6 10.4292965,5.55228475 10.4292965,5 C10.4292965,4.44771525 10.8770117,4 11.4292965,4 L13.9992965,3.99965354 L14,1.39165354 C14,0.839368788 14.4477153,0.391653538 15,0.391653538 Z" id="Combined-Shape"></path>
                </g>
            </g>
        </g>
    </g>
</svg>