<?xml version="1.0" encoding="UTF-8"?>
<svg width="20px" height="20px" viewBox="0 0 20 20" version="1.1" xmlns="http://www.w3.org/2000/svg" xmlns:xlink="http://www.w3.org/1999/xlink">
    <title>icon-fingerprint-white</title>
    <g id="Page-1-Icons" stroke="none" stroke-width="1" fill="none" fill-rule="evenodd">
        <g id="PECOS-2.0-Icons-Overview-v28" transform="translate(-2496.000000, -252.000000)" fill="#FFFFFF">
            <g id="MODAL-DIALOG-ICONS" transform="translate(2274.000000, 69.000000)">
                <g id="icon-fingerprint-white" transform="translate(222.000000, 183.000000)">
                    <path d="M11.5840462,4.97992581 C13.1879804,5.18688891 15.9416443,6.48669937 17.5831576,9.11767562 C18.463627,10.5288698 18.5014571,12.7211367 18.1711925,13.6021448 C17.4211852,15.6028514 15.595234,15.7373384 14.6805675,15.6562606 C11.9124015,15.4108851 11.3321813,12.6207833 11.2973836,12.2942103 C11.0555076,10.0242278 7.29899136,10.6388797 7.85467982,13.0396842 C8.62126623,16.351655 10.4083164,18.1728743 13.2158302,18.5033419 C13.5372482,18.5411456 13.7671364,18.8323733 13.7293032,19.1537879 C13.7238845,19.1998228 13.7130229,19.2450522 13.696946,19.2885277 L13.6535478,19.4058864 C13.5115608,19.7898512 13.1304322,20.0315342 12.7225802,19.9962356 C11.4231235,19.8837708 10.2744383,19.4035763 9.27652452,18.555652 C7.69016252,17.207725 6.38626536,15.2959007 6.2557519,13.0396842 C6.06191688,9.68881291 9.22258552,9.13115139 10.348864,9.32024197 C12.0716702,9.60948344 12.5375985,10.783619 12.9073191,11.8854442 L13.0165097,12.2128653 C13.342387,13.1828772 13.6843503,14.0167842 14.8885285,14.0167842 C15.8611632,14.0167842 16.5425461,13.464166 16.6227672,12.4298865 C16.6595511,11.9556367 16.4820356,11.0710097 15.8204743,9.81990392 C14.4091002,7.15079625 11.5840462,6.13063454 8.97553935,6.37229258 C5.89205081,6.65795401 3.61170755,8.22445554 2.82788655,11.2394793 C2.45481574,12.674523 2.66333268,14.3984169 3.45343737,16.4111612 C3.61444763,16.8214078 3.41243335,17.284517 3.00219771,17.4455553 C2.99959149,17.4465784 2.99697989,17.4475878 2.99436304,17.4485834 C2.56258636,17.6128539 2.07939462,17.3959973 1.9151241,16.9642206 L1.91305015,16.9586676 C1.08756618,14.7417814 0.821819085,12.8353853 1.11580887,11.2394793 C1.78510354,7.60625326 4.92831499,4.12110588 11.5840462,4.97992581 Z M10.930777,7.11688299 C13.4237344,7.51162054 15.0660178,9.14779126 15.8576271,12.0253951 C15.9908229,12.5094569 15.7063575,13.0098246 15.2222871,13.1429891 C15.216022,13.1447126 15.2097386,13.1463688 15.203438,13.1479576 L15.0698756,13.1816365 C14.5830909,13.30434 14.0889783,13.0092353 13.966234,12.5224608 C13.964811,12.5168178 13.9634423,12.5111613 13.962128,12.505492 C13.4074648,10.112908 12.2324263,8.82553887 10.4370125,8.64338456 C8.53109948,8.45001951 5.77400952,9.42571205 5.34390106,11.8619369 C4.94255352,14.1352539 5.88917927,16.3819031 8.18377832,18.6018846 C8.45756022,18.8667287 8.46477711,19.3033717 8.19991509,19.5771362 C8.18325745,19.5943538 8.16571406,19.6106917 8.14735627,19.6260837 C7.79778569,19.9191785 7.28388467,19.9031264 6.95327262,19.588802 C3.98457794,16.7660892 2.95862648,13.8239088 3.87541823,10.762261 C4.90449994,7.32561825 9.13644605,6.83276671 10.930777,7.11688299 Z M10.4654956,12.5748412 C10.5803109,13.8884986 11.0232564,14.8488477 11.7943319,15.4558885 C12.5800077,16.0744236 13.7064899,16.3654289 15.1737785,16.3289044 C15.5720146,16.3189633 15.9028855,16.6337619 15.9127986,17.0319987 L15.9120396,17.0875806 L15.9120396,17.0875806 C15.8877857,17.5518164 15.5058674,17.9166808 15.0410085,17.9197484 C12.979389,17.9332151 11.5159359,17.5269377 10.650649,16.7009162 C9.23971971,15.3540127 8.56617599,14.0243142 8.63001784,12.7118207 C8.65227558,12.2539566 9.01197562,11.8843146 9.46906189,11.8495713 L9.59946423,11.8396594 C10.0407868,11.8061143 10.4269341,12.1339287 10.4654956,12.5748412 Z M12.0041206,2.65928565 C14.3505413,3.07069527 16.5926573,4.32872872 18.7304688,6.43338599 C19.0865007,6.78387682 19.0909766,7.35662676 18.7404758,7.71264886 C18.7293319,7.72396832 18.7178918,7.7349923 18.7061674,7.74570932 L18.6959606,7.75503903 C18.3290313,8.09048407 17.7606927,8.06890564 17.4202314,7.7066258 C15.4531514,5.61348459 13.4132056,4.43852149 11.3003941,4.18173649 C9.34598239,3.94420294 7.73218928,4.11478218 6.4590148,4.69347419 C6.06197508,4.87390622 5.59364741,4.70152477 5.40835994,4.3067276 C5.21261754,3.88965381 5.39204209,3.39286813 5.80911588,3.19712573 C5.8232784,3.19047894 5.83762509,3.18423186 5.85213431,3.17838043 C7.69592532,2.4364927 9.74658741,2.26346111 12.0041206,2.65928565 Z M9.85463733,0 C12.1991151,0 14.1902318,0.412097893 15.8279874,1.23629368 C16.2353462,1.44130129 16.3993896,1.93772062 16.1943864,2.34508163 C16.1776582,2.37832212 16.1587021,2.41039377 16.1376478,2.44107727 L16.0999528,2.49601189 C15.8408863,2.87361135 15.3413866,2.99952969 14.9342646,2.78989059 C13.4096045,2.00479817 11.7363651,1.61225195 9.91454643,1.61225195 C8.11575446,1.61225195 6.47809118,1.99493777 5.00155656,2.76030942 C4.57716848,2.98024965 4.05493135,2.8339679 3.80657562,2.42555833 L3.78205795,2.38524015 C3.52245599,1.95833667 3.65808066,1.40181405 4.08498414,1.14221209 C4.10891764,1.12765802 4.13351417,1.11422337 4.15870014,1.10196367 C5.66608683,0.367321224 7.56473255,0 9.85463733,0 Z" id="fingerprint"></path>
                </g>
            </g>
        </g>
    </g>
</svg>