<?xml version="1.0" encoding="UTF-8"?>
<svg width="20px" height="20px" viewBox="0 0 20 20" version="1.1" xmlns="http://www.w3.org/2000/svg" xmlns:xlink="http://www.w3.org/1999/xlink">
    <title>icon-building-white</title>
    <g id="Page-1-Icons" stroke="none" stroke-width="1" fill="none" fill-rule="evenodd">
        <g id="PECOS-2.0-Icons-Overview-v23" transform="translate(-2240.000000, -385.000000)" fill="#FFFFFF">
            <g id="MODAL-DIALOG-ICONS" transform="translate(2220.000000, 69.000000)">
                <g id="icon-building-white" transform="translate(20.000000, 316.000000)">
                    <path d="M18.2,0 C18.6418278,-8.11624501e-17 19,0.3581722 19,0.8 L19,19.2 C19,19.6418278 18.6418278,20 18.2,20 L9,20 L9,14 L7,14 L7,20 L1.8,20 C1.3581722,20 1,19.6418278 1,19.2 L1,0.8 C1,0.3581722 1.3581722,-1.02906057e-15 1.8,0 L18.2,0 Z M16.2,2 L3.8,2 C3.3581722,2 3,2.3581722 3,2.8 L3,2.8 L3,17.2 C3,17.6418278 3.3581722,18 3.8,18 L3.8,18 L5,18 L5,12 L11,12 L11,18 L16.2,18 C16.6418278,18 17,17.6418278 17,17.2 L17,17.2 L17,2.8 C17,2.3581722 16.6418278,2 16.2,2 L16.2,2 Z M15,12 L15,14 L13,14 L13,12 L15,12 Z M7,8 L7,10 L5,10 L5,8 L7,8 Z M11,8 L11,10 L9,10 L9,8 L11,8 Z M15,8 L15,10 L13,10 L13,8 L15,8 Z M7,4 L7,6 L5,6 L5,4 L7,4 Z M11,4 L11,6 L9,6 L9,4 L11,4 Z M15,4 L15,6 L13,6 L13,4 L15,4 Z" id="building"></path>
                </g>
            </g>
        </g>
    </g>
</svg>