<?xml version="1.0" encoding="UTF-8"?>
<svg width="20px" height="20px" viewBox="0 0 20 20" version="1.1" xmlns="http://www.w3.org/2000/svg" xmlns:xlink="http://www.w3.org/1999/xlink">
    <title>icon-reassign-white</title>
    <g id="Page-1-Icons" stroke="none" stroke-width="1" fill="none" fill-rule="evenodd">
        <g id="PECOS-2.0-Icons-Overview-v30" transform="translate(-2482.000000, -325.000000)" fill="#FFFFFF">
            <g id="MODAL-DIALOG-ICONS" transform="translate(2270.000000, 121.000000)">
                <g id="icon-reassign-white" transform="translate(212.000000, 204.000000)">
                    <path d="M7.13433866,0 C9.10443189,0 10.701508,1.74856257 10.701508,3.90552381 C10.701508,4.52157509 10.5712289,5.10431185 10.3391892,5.62251063 C11.2257245,5.86708931 12.0062978,6.20972711 12.6332987,6.62447799 C11.8477808,6.76794912 11.1062467,7.03407331 10.4278028,7.40178297 C10.0486155,7.28251241 9.62876916,7.18262706 9.17788279,7.10701167 C8.59890199,7.55080353 7.89437899,7.81104763 7.13433866,7.81104763 C6.37431587,7.81104763 5.66980783,7.55081553 5.09109295,7.10729581 C3.1499206,7.43232946 1.78358467,8.20790647 1.78358467,9.1128889 C1.78358467,10.2935205 4.10902918,11.2539096 7.00390705,11.2819923 C6.79160801,11.8281555 6.64117991,12.4059038 6.56171567,13.0060476 C2.88967809,12.8465874 0,11.1644727 0,9.1128889 C0,7.58675142 1.59903601,6.26506386 3.92997386,5.62251818 C3.6974484,5.10431185 3.56716933,4.52157509 3.56716933,3.90552381 C3.56716933,1.74856257 5.16424544,0 7.13433866,0 Z M7.13433866,1.73578836 C6.14929205,1.73578836 5.350754,2.70721201 5.350754,3.90552381 C5.350754,5.10383562 6.14929205,6.07525927 7.13433866,6.07525927 C8.11938528,6.07525927 8.91792333,5.10383562 8.91792333,3.90552381 C8.91792333,2.70721201 8.11938528,1.73578836 7.13433866,1.73578836 Z" id="person-front"></path>
                    <path d="M14,8 C17.3137085,8 20,10.6862915 20,14 C20,17.3137085 17.3137085,20 14,20 C10.6862915,20 8,17.3137085 8,14 C8,10.6862915 10.6862915,8 14,8 Z M17.1372791,11.0473344 L13.0371809,15.5151794 L10.9251764,13.4475884 L9.58833049,14.6946253 L13.0651299,18.2888937 L18.3626421,12.447464 L17.1372791,11.0473344 Z" id="Combined-Shape"></path>
                </g>
            </g>
        </g>
    </g>
</svg>