<?xml version="1.0" encoding="UTF-8"?>
<svg width="20px" height="20px" viewBox="0 0 20 20" version="1.1" xmlns="http://www.w3.org/2000/svg" xmlns:xlink="http://www.w3.org/1999/xlink">
    <title>icon-note-white</title>
    <g id="Page-1-Icons" stroke="none" stroke-width="1" fill="none" fill-rule="evenodd">
        <g id="PECOS-2.0-Icons-Overview-v28" transform="translate(-2495.000000, -145.000000)" fill="#FFFFFF">
            <g id="MODAL-DIALOG-ICONS" transform="translate(2274.000000, 69.000000)">
                <g id="icon-note-white" transform="translate(221.000000, 75.999999)">
                    <path d="M8.02685928,1.00851677 C8.57914403,1.00851677 9.02685928,1.45623202 9.02685928,2.00851677 L9.026,3.00251677 L10.03,3.00251677 L10.0306587,2.02180336 C10.0306587,1.46951861 10.478374,1.02180336 11.0306587,1.02180336 C11.5829435,1.02180336 12.0306587,1.46951861 12.0306587,2.02180336 L12.03,3.00251677 L13,3.00251677 L13.0004578,2.01442299 C13.0004578,1.46213824 13.448173,1.01442299 14.0004578,1.01442299 C14.5527425,1.01442299 15.0004578,1.46213824 15.0004578,2.01442299 L15,3.00251677 L16,3.00307884 C17.1045695,3.00307884 18,3.89850934 18,5.00307884 L18,18.0030788 C18,19.1076483 17.1045695,20.0030788 16,20.0030788 L3,20.0030788 C1.8954305,20.0030788 1,19.1076483 1,18.0030788 L1,5.00307884 C1,3.89850934 1.8954305,3.00307884 3,3.00307884 L4.02123971,3.00316304 C4.02119178,2.99912836 4.02116776,2.99508793 4.02116776,2.99104188 L4.02116776,2.02053354 C4.02116776,1.46824879 4.46888301,1.02053354 5.02116776,1.02053354 C5.5734525,1.02053354 6.02116776,1.46824879 6.02116776,2.02053354 L6.02116776,2.99104188 L6.02,3.00251677 L7.026,3.00251677 L7.02685928,2.00851677 C7.02685928,1.45623202 7.47457453,1.00851677 8.02685928,1.00851677 Z M14.9969817,5.00441068 L4.0113793,5.02537441 C3.46027365,5.02642608 3.01389958,5.47315692 3.0132882,6.02426323 L3.0132882,6.02426323 L3.00111059,17.0013873 C3.00111018,17.0017571 3.00110998,17.0021268 3.00110998,17.0024966 L3.00783771,17.1191178 C3.06560282,17.6164564 3.48827414,18.0024966 4.00110998,18.0024966 L4.00110998,18.0024966 L14.9867124,18.0024966 C15.5385648,18.0024966 15.9861008,17.5554559 15.9867118,17.0036039 L15.9867118,17.0036039 L15.9988894,6.00551611 L15.9988894,6.00551611 C15.9978343,5.45021683 15.5492655,5.00335676 14.9969817,5.00441068 L14.9969817,5.00441068 Z M14,15.0000007 L14,16.0000007 L5,16.0000007 L5,15.0000007 L14,15.0000007 Z M14,13.0000007 L14,14.0000007 L5,14.0000007 L5,13.0000007 L14,13.0000007 Z M14,11.0000007 L14,12.0000007 L5,12.0000007 L5,11.0000007 L14,11.0000007 Z M14,9.00000071 L14,10.0000007 L5,10.0000007 L5,9.00000071 L14,9.00000071 Z M14,7.00000071 L14,8.00000071 L5,8.00000071 L5,7.00000071 L14,7.00000071 Z"></path>
                </g>
            </g>
        </g>
    </g>
</svg>