<?xml version="1.0" encoding="UTF-8"?>
<svg width="20px" height="20px" viewBox="0 0 20 20" version="1.1" xmlns="http://www.w3.org/2000/svg" xmlns:xlink="http://www.w3.org/1999/xlink">
    <title>icon-download-white</title>
    <g id="Page-1-Icons" stroke="none" stroke-width="1" fill="none" fill-rule="evenodd">
        <g id="PECOS-2.0-Icons-Overview-v21" transform="translate(-551.000000, -490.000000)" fill="#FFFFFF">
            <g id="MODAL-DIALOG-ICONS" transform="translate(529.000000, 280.000000)">
                <g id="icon-download-white" transform="translate(22.000000, 210.000000)">
                    <path d="M9.99475098,7.01382446 C10.5470357,7.01382446 10.994751,7.46153971 10.994751,8.01382446 L10.9953159,16.3033089 L12.4842091,14.8132574 C12.8747334,14.4227331 13.5078984,14.4227331 13.8984227,14.8132574 C14.288947,15.2037817 14.288947,15.8369467 13.8984227,16.227471 L10.717478,19.4084157 C10.3269537,19.79894 9.6937887,19.79894 9.30326441,19.4084157 L6.10776408,16.2129153 C5.7194508,15.8246021 5.7194508,15.1950219 6.10776408,14.8067086 C6.49607735,14.4183953 7.12565756,14.4183953 7.51397084,14.8067086 L8.99531591,16.2873089 L8.99475098,8.01382446 C8.99475098,7.46153971 9.44246623,7.01382446 9.99475098,7.01382446 Z M11.5,1.42108547e-14 C14.8287959,1.42108547e-14 17.5731519,2.50228499 17.9546891,5.72847617 C19.1856769,6.53012502 20,7.91996483 20,9.5 C20,11.9852814 17.9852814,14 15.5,14 L14,14 L14,12 L15.5,12 C16.8807119,12 18,10.8807119 18,9.5 C18,8.27872127 17.1242798,7.26197795 15.9665214,7.04345198 C15.9889484,6.86555752 16,6.68406938 16,6.5 C16,4.01471863 13.9852814,2 11.5,2 C10.1348587,2 8.91169557,2.60788089 8.08642653,3.56772677 C7.65520637,3.21312726 7.10249245,3 6.5,3 C5.11928813,3 4,4.11928813 4,5.5 C4,6.06323916 4.1862608,6.58297478 4.50054687,7.00097133 C3.11928813,7 2,8.11928813 2,9.5 C2,10.8254834 3.03153594,11.9100387 4.33562431,11.9946823 L4.5,12 L6,12 L6,14 L4.5,14 C2.01471863,14 3.04359188e-16,11.9852814 0,9.5 C-1.94487864e-16,7.91188607 0.822671747,6.51591742 2.06510398,5.71500532 C2.02196231,5.48415458 2,5.24464208 2,5 C2,2.790861 3.790861,1 6,1 C6.55799237,1 7.08929923,1.11425424 7.57180216,1.32064428 C8.6627659,0.492016278 10.0239247,1.42108547e-14 11.5,1.42108547e-14 Z" id="Combined-Shape"></path>
                </g>
            </g>
        </g>
    </g>
</svg>