<?xml version="1.0" encoding="UTF-8"?>
<svg width="20px" height="20px" viewBox="0 0 20 20" version="1.1" xmlns="http://www.w3.org/2000/svg" xmlns:xlink="http://www.w3.org/1999/xlink">
    <title>icon-tag-red</title>
    <g id="Page-1-Icons" stroke="none" stroke-width="1" fill="none" fill-rule="evenodd">
        <g id="PECOS-2.0-Icons-Overview-v30" transform="translate(-1767.000000, -1290.000000)">
            <g id="TAG-ICONS" transform="translate(1757.000000, 1081.000000)">
                <g id="icon-tag-red" transform="translate(10.000000, 209.000000)">
                    <path d="M17,1.5 C17.6903559,1.5 18.3153559,1.77982203 18.767767,2.23223305 C19.220178,2.68464406 19.5,3.30964406 19.5,4 L19.5,4 L19.5,16 C19.5,16.6903559 19.220178,17.3153559 18.767767,17.767767 C18.3153559,18.220178 17.6903559,18.5 17,18.5 L17,18.5 L8.48121682,18.5 C7.71243787,18.5 6.98640842,18.1462919 6.5125615,17.5409076 L6.5125615,17.5409076 L1.35521995,10.9519155 C1.14327098,10.6811306 1.03697171,10.3556223 1.03641533,10.0299334 C1.03585895,9.7042445 1.14104546,9.37837493 1.35206802,9.10686749 L1.35206802,9.10686749 L6.5136549,2.46582756 C6.98727123,1.85645974 7.71578526,1.5 8.48756344,1.5 L8.48756344,1.5 Z" id="Rectangle" stroke="#C81E24" fill="#FF4D52"></path>
                    <path d="M12.001709,13.046875 C12.6920649,13.046875 13.251709,13.6065191 13.251709,14.296875 C13.251709,14.9872309 12.6920649,15.546875 12.001709,15.546875 C11.311353,15.546875 10.751709,14.9872309 10.751709,14.296875 C10.751709,13.6065191 11.311353,13.046875 12.001709,13.046875 Z M12.001709,4.41491699 C12.6458489,4.41491699 13.1680275,4.93709559 13.1680275,5.58123554 C13.1680275,5.60815527 13.1670955,5.63506694 13.1652332,5.66192218 L12.725708,12 L11.2404175,12 L10.8320801,5.66233051 C10.7904602,5.01636231 11.2803814,4.45896206 11.9263495,4.41734219 C11.9514369,4.41572581 11.9765697,4.41491699 12.001709,4.41491699 Z" id="exclamation-mark" fill="#FFFFFF"></path>
                </g>
            </g>
        </g>
    </g>
</svg>