<?xml version="1.0" encoding="UTF-8"?>
<svg width="20px" height="20px" viewBox="0 0 20 20" version="1.1" xmlns="http://www.w3.org/2000/svg" xmlns:xlink="http://www.w3.org/1999/xlink">
    <title>icon-tag-green</title>
    <g id="Page-1-Icons" stroke="none" stroke-width="1" fill="none" fill-rule="evenodd">
        <g id="PECOS-2.0-Icons-Overview-v30" transform="translate(-1767.000000, -1153.000000)">
            <g id="TAG-ICONS" transform="translate(1757.000000, 1081.000000)">
                <g id="icon-tag-green" transform="translate(10.000000, 72.000000)">
                    <path d="M17,1.5 C17.6903559,1.5 18.3153559,1.77982203 18.767767,2.23223305 C19.220178,2.68464406 19.5,3.30964406 19.5,4 L19.5,4 L19.5,16 C19.5,16.6903559 19.220178,17.3153559 18.767767,17.767767 C18.3153559,18.220178 17.6903559,18.5 17,18.5 L17,18.5 L8.48121682,18.5 C7.71243787,18.5 6.98640842,18.1462919 6.5125615,17.5409076 L6.5125615,17.5409076 L1.35521995,10.9519155 C1.14327098,10.6811306 1.03697171,10.3556223 1.03641533,10.0299334 C1.03585895,9.7042445 1.14104546,9.37837493 1.35206802,9.10686749 L1.35206802,9.10686749 L6.5136549,2.46582756 C6.98727123,1.85645974 7.71578526,1.5 8.48756344,1.5 L8.48756344,1.5 Z" id="Rectangle" stroke="#81D284" fill="#B2F2B5"></path>
                    <path d="M10.1694697,11.5392105 L12.9855627,11.4095422 L12.9855627,11.4095422 L12.6092503,5.1315113 C12.577764,4.60622513 12.9780679,4.15487189 13.5033541,4.12338563 C13.5223365,4.12224781 13.5413486,4.12167851 13.560365,4.12167851 L13.6347867,4.12167851 C14.1619366,4.12167851 14.5985596,4.5308919 14.6326887,5.05693583 L15.1196205,12.5621887 C15.1553769,13.1133148 14.7375872,13.589077 14.1864612,13.6248334 C14.1684544,13.6260017 14.1504194,13.6266823 14.1323758,13.6268746 L10.2261237,13.6685071 C9.67387028,13.6743929 9.22140903,13.2314745 9.21552317,12.6792211 C9.21548531,12.6756688 9.21546638,12.6721164 9.21546638,12.6685638 L9.21546638,12.5381521 C9.21546638,12.0037521 9.63563527,11.5637912 10.1694697,11.5392105 Z" id="checkmark-black" fill="#000000" transform="translate(12.201716, 8.900479) rotate(45.000000) translate(-12.201716, -8.900479) "></path>
                </g>
            </g>
        </g>
    </g>
</svg>