<?xml version="1.0" encoding="UTF-8"?>
<svg width="30px" height="30px" viewBox="0 0 30 30" version="1.1" xmlns="http://www.w3.org/2000/svg" xmlns:xlink="http://www.w3.org/1999/xlink">
    <title>icon-document-general</title>
    <g id="Page-1-Icons" stroke="none" stroke-width="1" fill="none" fill-rule="evenodd">
        <g id="PECOS-2.0-Icons-Overview-v30" transform="translate(-1776.000000, -1739.000000)">
            <g id="INTAKE-ICONS" transform="translate(1761.000000, 1663.000000)">
                <g id="icon-document-general" transform="translate(15.000000, 75.999975)">
                    <path d="M3.00359911,0.0218255697 L21.6237437,0.000479915373 C21.8915741,0.000172881494 22.1483341,0.107316578 22.336504,0.297908553 L26.7116139,4.72933334 C26.896391,4.91648875 27,5.16890272 27,5.43190405 L27,29.0000252 C27,29.55231 26.5522847,30.0000252 26,30.0000252 L3.00474548,30.0000252 C2.45246073,30.0000252 2.00474548,29.55231 2.00474548,29.0000252 L2.00474548,1.02182491 C2.00474548,0.469987796 2.45176236,0.0224581812 3.00359911,0.0218255697 Z" id="Rectangle" fill="#0573BB"></path>
                    <path d="M4.09068298,2.00002523 L19.5046082,2.00002523 C19.7807505,2.00002523 20.0046082,2.22388285 20.0046082,2.50002523 L20.0046082,6.99297757 L20.0046082,6.99297757 L24.5,6.99297757 C24.7761424,6.99297757 25,7.2168352 25,7.49297757 L25,28.0543999 L25,28.0543999 L4.09068298,28.0543999 L4.09068298,2.00002523 Z" id="Rectangle-Copy-5" fill="#E5F5FF"></path>
                    <polygon id="Rectangle" fill="#E3F4FF" points="22 3.00050157 24 5.00050157 22 5.00050157"></polygon>
                    <path d="M22,22.0004552 L22,23.0004552 L7,23.0004552 L7,22.0004552 L22,22.0004552 Z M22,19.0004552 L22,20.0004552 L7,20.0004552 L7,19.0004552 L22,19.0004552 Z M22,16.0004552 L22,17.0004552 L7,17.0004552 L7,16.0004552 L22,16.0004552 Z M22,13.0004552 L22,14.0004552 L7,14.0004552 L7,13.0004552 L22,13.0004552 Z M22,10.0004552 L22,11.0004552 L7,11.0004552 L7,10.0004552 L22,10.0004552 Z M18,7.00045525 L18,8.00045525 L7,8.00045525 L7,7.00045525 L18,7.00045525 Z" id="lines" fill="#0573BB"></path>
                </g>
            </g>
        </g>
    </g>
</svg>