<?xml version="1.0" encoding="UTF-8"?>
<svg width="90px" height="90px" viewBox="0 0 90 90" version="1.1" xmlns="http://www.w3.org/2000/svg" xmlns:xlink="http://www.w3.org/1999/xlink">
    <title>icon-home-pay-fee</title>
    <defs>
        <path d="M71.6084739,16 C72.9891511,16 74.1084111,17.11926 74.1084111,18.4999372 L74.1084111,42.5000628 C74.1084111,43.88074 72.9891511,45 71.6084739,45 L54.5285688,44.9999278 C55.0017014,44.2355126 55.3396152,43.5688509 55.5423105,42.9999426 L71.1502892,43 C71.663125,43 72.0857963,42.6139598 72.1435614,42.1166211 L72.1502892,42 L72.1502892,19 C72.1502892,18.4871642 71.764249,18.0644928 71.2669103,18.0067277 L71.1502892,18 L37.5064935,18 C36.9936577,18 36.5709863,18.3860402 36.5132212,18.8833789 L36.5064935,19 L36.5064935,42 C36.5064935,42.5128358 36.8925337,42.9355072 37.3898724,42.9932723 L37.5064935,43 L43.3147422,42.9998043 C42.7346778,43.6117976 42.1284901,44.2783909 41.4961793,44.9995842 L37.0324047,45 C35.7868429,45 34.7540363,44.0890862 34.5638207,42.8970941 C34.1215634,43.1129325 33.7810707,43.4294495 33.79028,43.887207 C33.8161899,45.1750772 34.9616657,46.3175363 35.5346616,47 C36.1514794,47.9667507 36.8183236,48.5287624 37.5351943,48.6860352 C38.252065,48.8433079 40.5315606,46.7577773 44.373681,42.4294434 C45.4479251,41.0668945 48.7371885,38.197876 50.4966074,38.197876 C53.4464785,38.197876 54.995884,40.1154133 55.3108259,41.8552246 C55.5821581,43.354126 51.8051948,48.1312256 50.3361214,50.1499023 C49.4150947,51.4154996 48.1656787,53.7165147 45.689377,56.9473877 C44.2158813,58.8698827 42.5215858,61.7633057 39.83212,63.9912109 C36.6099901,66.8099365 33.1983373,67.7868652 30.1311511,67.7868652 C29.0039624,68.9220494 27.8060761,70.1160067 26.5374922,71.368737 L25.8973087,72 L25.6517907,72.0004662 C24.1971588,71.9880685 16.7046153,71.7092119 14.7085912,67.3205566 C13.291777,64.2054094 12.731456,61.712986 13.0276282,59.8432867 L13.0691106,59.6128176 L17.1042295,57.6039067 C18.1075175,57.2546658 18.8565849,56.3822326 19.0131126,55.319605 L19.0345154,55.1301759 L19.0604252,55.1174247 C19.8089354,47.5458088 20.2367251,42.9571474 20.3437944,41.3514404 C20.5043984,38.94288 20.3275289,36.9133301 21.2627334,35.4816895 C22.1979378,34.0500488 23.4845972,33.5089823 24.796317,33.1506348 C26.1036683,32.7934807 29.348655,32.0212322 34.5312769,30.8338892 L34.5324675,18.4999372 C34.5324675,17.11926 35.6517275,16 37.0324047,16 L71.6084739,16 Z M25.9305626,34.7687988 C24.2950994,35.1142578 22.1297433,36.4176025 22.1297433,38.762207 C22.1297433,38.76242 22.1289424,38.7723816 22.1273892,38.7915308 L22.120521,38.8759804 C22.0829042,39.3380245 21.9353226,41.1479844 21.7726258,43.2102051 C21.6095382,45.2773792 21.2138655,49.758499 20.5856078,56.6535645 C20.1734772,57.5965308 19.6707335,58.170831 19.0773767,58.3764648 L14.6072633,60.901123 C14.8691977,62.3640137 15.4480879,64.2635905 16.3439339,66.5998535 C17.6379337,69.9744557 24.9748276,70.0994409 25.5165262,70.10407 L25.5481433,70.104248 L29.5974026,65.9414063 C29.5974026,65.9414063 29.8285469,65.9705895 30.2330324,65.976124 L30.4494527,65.9766759 C32.1001521,65.9630018 35.8529005,65.5326078 39.0481242,62.2546387 C41.0176117,60.2341482 44.8931912,55.4675258 47.2831524,51.5361328 C50.1695072,46.7881916 52.1825525,44.5137226 53.0678774,43.2102051 C54.1577846,41.6054688 51.8051948,39.4533691 49.6827313,40.3217773 C49.0081005,40.5978033 46.9692455,42.1741692 46.5133738,42.6740723 C42.8357601,46.6455367 40.6396,48.9036747 39.9248935,49.4484863 C38.8528337,50.2657037 37.9042398,50.6364367 36.4702275,50.1335449 C35.5142193,49.7982837 34.5849187,48.9511158 33.6823255,47.592041 C33.3217139,47.1848145 31.5151688,44.6658452 31.8256519,43.2102051 C32.0326406,42.2397784 32.9349125,41.5030433 34.5324675,41 L34.5312398,32.7849427 C29.7104935,33.9146523 26.8436011,34.5759377 25.9305626,34.7687988 Z M70.1352983,22.0063477 L70.1352983,28.0063477 L38.4805195,28.0063477 L38.4805195,22.0063477 L70.1352983,22.0063477 Z M68.1612723,24.0063477 L40.4545455,24.0063477 L40.4545455,26.0063477 L68.1612723,26.0063477 L68.1612723,24.0063477 Z" id="path-1"></path>
        <filter x="-11.4%" y="-8.9%" width="122.9%" height="125.0%" filterUnits="objectBoundingBox" id="filter-2">
            <feOffset dx="0" dy="2" in="SourceAlpha" result="shadowOffsetOuter1"></feOffset>
            <feGaussianBlur stdDeviation="2" in="shadowOffsetOuter1" result="shadowBlurOuter1"></feGaussianBlur>
            <feColorMatrix values="0 0 0 0 0.0196078431   0 0 0 0 0.450980392   0 0 0 0 0.733333333  0 0 0 0.17 0" type="matrix" in="shadowBlurOuter1"></feColorMatrix>
        </filter>
    </defs>
    <g id="Page-1-Icons" stroke="none" stroke-width="1" fill="none" fill-rule="evenodd">
        <g id="PECOS-2.0-Icons-Overview-v31" transform="translate(-313.000000, -1875.000000)">
            <g id="HOME-PAGE" transform="translate(20.000000, 1725.000000)">
                <g id="icon-home-pay-fee" transform="translate(293.000000, 150.000000)">
                    <circle id="90x90-Oval" fill="#EDFAE8" cx="45" cy="45" r="45"></circle>
                    <g id="Combined-Shape">
                        <use fill="black" fill-opacity="1" filter="url(#filter-2)" xlink:href="#path-1"></use>
                        <use fill="#0573BB" fill-rule="evenodd" xlink:href="#path-1"></use>
                    </g>
                </g>
            </g>
        </g>
    </g>
</svg>