<?xml version="1.0" encoding="UTF-8"?>
<svg width="90px" height="90px" viewBox="0 0 90 90" version="1.1" xmlns="http://www.w3.org/2000/svg" xmlns:xlink="http://www.w3.org/1999/xlink">
    <title>icon-how-to-videos</title>
    <defs>
        <path d="M70,65 C71.1045695,65 72,65.8954305 72,67 L72,71 C72,72.1045695 71.1045695,73 70,73 L18,73 C16.8954305,73 16,72.1045695 16,71 L16,67 C16,65.8954305 16.8954305,65 18,65 L70,65 Z M70,67 L18,67 L18,71 L70,71 L70,67 Z M71,21 C73.209139,21 75,22.790861 75,25 L75,59 C75,61.209139 73.209139,63 71,63 L17,63 C14.790861,63 13,61.209139 13,59 L13,25 C13,22.790861 14.790861,21 17,21 L71,21 Z M71,23 L17,23 C15.8954305,23 15,23.8954305 15,25 L15,25 L15,59 C15,60.1045695 15.8954305,61 17,61 L17,61 L71,61 C72.1045695,61 73,60.1045695 73,59 L73,59 L73,25 C73,23.8954305 72.1045695,23 71,23 L71,23 Z M37,33.284493 C37.3194405,33.284493 37.6342342,33.3610094 37.9180339,33.507638 L51.8836504,40.723145 C52.8649803,41.2301611 53.2494876,42.436704 52.7424715,43.4180339 C52.5521445,43.7864118 52.2520282,44.0865281 51.8836504,44.276855 L37.9180339,51.492362 C36.936704,51.9993781 35.7301611,51.6148708 35.223145,50.6335409 C35.0765164,50.3497412 35,50.0349475 35,49.715507 L35,35.284493 C35,34.1799235 35.8954305,33.284493 37,33.284493 Z M37.5,35.3314498 C37.2238576,35.3314498 37,35.5553074 37,35.8314498 L37,35.8314498 L37,49.2071244 C37,49.2888569 37.0200362,49.3693432 37.0583544,49.4415368 C37.1878167,49.6854509 37.4904982,49.7782324 37.7344123,49.6487701 L37.7344123,49.6487701 L50.3346635,42.9609327 C50.4228899,42.9141048 50.4950689,42.8419258 50.5418968,42.7536994 C50.6713592,42.5097853 50.5785777,42.2071038 50.3346635,42.0776415 L50.3346635,42.0776415 L37.7344123,35.3898041 C37.6622188,35.351486 37.5817324,35.3314498 37.5,35.3314498 Z" id="path-1"></path>
        <filter x="-11.3%" y="-9.6%" width="122.6%" height="126.9%" filterUnits="objectBoundingBox" id="filter-2">
            <feOffset dx="0" dy="2" in="SourceAlpha" result="shadowOffsetOuter1"></feOffset>
            <feGaussianBlur stdDeviation="2" in="shadowOffsetOuter1" result="shadowBlurOuter1"></feGaussianBlur>
            <feColorMatrix values="0 0 0 0 0.0196078431   0 0 0 0 0.450980392   0 0 0 0 0.733333333  0 0 0 0.17 0" type="matrix" in="shadowBlurOuter1"></feColorMatrix>
        </filter>
    </defs>
    <g id="Page-1" stroke="none" stroke-width="1" fill="none" fill-rule="evenodd">
        <g id="PECOS-2.0-Icons-&amp;-Illus-v13" transform="translate(-45.000000, -1658.000000)">
            <g id="Home-Page-Icons" transform="translate(26.000000, 1289.000000)">
                <g id="icon-how-to-videos" transform="translate(19.000000, 369.000000)">
                    <circle id="90x90-Oval" fill="#EDFAE8" cx="45" cy="45" r="45"></circle>
                    <g id="Video">
                        <use fill="black" fill-opacity="1" filter="url(#filter-2)" xlink:href="#path-1"></use>
                        <use fill="#0573BB" fill-rule="evenodd" xlink:href="#path-1"></use>
                    </g>
                </g>
            </g>
        </g>
    </g>
</svg>