<?xml version="1.0" encoding="UTF-8"?>
<svg width="90px" height="90px" viewBox="0 0 90 90" version="1.1" xmlns="http://www.w3.org/2000/svg" xmlns:xlink="http://www.w3.org/1999/xlink">
    <title>icon-home-provider-faqs</title>
    <defs>
        <filter x="-19.0%" y="-19.4%" width="138.1%" height="138.7%" filterUnits="objectBoundingBox" id="filter-1">
            <feOffset dx="0" dy="2" in="SourceAlpha" result="shadowOffsetOuter1"></feOffset>
            <feGaussianBlur stdDeviation="2" in="shadowOffsetOuter1" result="shadowBlurOuter1"></feGaussianBlur>
            <feColorMatrix values="0 0 0 0 0.0196078431   0 0 0 0 0.450980392   0 0 0 0 0.733333333  0 0 0 0.17 0" type="matrix" in="shadowBlurOuter1" result="shadowMatrixOuter1"></feColorMatrix>
            <feMerge>
                <feMergeNode in="shadowMatrixOuter1"></feMergeNode>
                <feMergeNode in="SourceGraphic"></feMergeNode>
            </feMerge>
        </filter>
    </defs>
    <g id="Page-1" stroke="none" stroke-width="1" fill="none" fill-rule="evenodd">
        <g id="PECOS-2.0-Icons-&amp;-Illus-v13" transform="translate(-45.000000, -1549.000000)">
            <g id="Home-Page-Icons" transform="translate(26.000000, 1289.000000)">
                <g id="icon-home-provider-faqs" transform="translate(19.000000, 260.000000)">
                    <circle id="90x90-Oval" fill="#EDFAE8" cx="45" cy="45" r="45"></circle>
                    <g id="speech-bubbles" filter="url(#filter-1)" transform="translate(13.037842, 15.042480)" fill="#0573BB">
                        <path d="M32.0166016,-1.0658141e-14 C36.4348796,-1.14697655e-14 40.0166016,3.581722 40.0166016,8 L40.0166016,21.9575195 L37.9621582,21.9575195 L37.9621582,7.95751953 C37.9621582,4.64381103 35.2758667,1.95751953 31.9621582,1.95751953 L7.9621582,1.95751953 C4.72376126,1.95751953 2.08458644,4.52309442 1.96629668,7.73258127 L1.9621582,7.95751953 L1.9621582,21.9575195 C1.9621582,25.1959165 4.52773309,27.8350913 7.73721994,27.9533811 L7.9621582,27.9575195 L8.99707031,27.9575195 L8.99707031,34.3417969 L15.9599609,27.9575195 L19.962,27.957 L19.962,29.957 L16.9353027,29.9575195 L8.63190384,37.4662278 C8.22226946,37.8366575 7.58990262,37.8048757 7.21947298,37.3952414 C7.05322916,37.211403 6.96118164,36.9723771 6.96118164,36.7245192 L6.96118164,29.9575195 C3.11662718,29.9575195 9.55046788e-15,26.8408924 -7.10542736e-15,22.9963379 L-7.10542736e-15,8 C-9.4228672e-15,3.581722 3.581722,-9.84651654e-15 8,-1.0658141e-14 L32.0166016,-1.0658141e-14 Z" id="Combined-Shape"></path>
                        <path d="M54.0083008,24.0991211 C58.4265788,24.0991211 62.0083008,27.6808431 62.0083008,32.0991211 L62.0083008,45.9575195 C62.0083008,50.3757975 58.4265788,53.9575195 54.0083008,53.9575195 L38.0473633,53.9575195 L29.7439644,61.4662278 C29.33433,61.8366575 28.7019632,61.8048757 28.3315335,61.3952414 C28.1652897,61.211403 28.0732422,60.9723771 28.0732422,60.7245192 L28.0732422,53.9575195 C24.0431315,52.6241862 22.0280762,50.2931315 22.0280762,46.9643555 C22.0379535,46.8837692 22.0446593,46.0432626 22.0481935,44.4428356 L22.049011,44.0268971 C22.0491363,43.9549354 22.049256,43.8816544 22.0493702,43.8070541 L22.0499895,43.3436207 C22.0500817,43.2637432 22.0501684,43.1825463 22.0502496,43.1000302 L22.0510545,41.7633402 C22.0510806,41.667631 22.0511012,41.5706025 22.0511163,41.4722547 L22.0511037,40.5515031 C22.0510858,40.4452395 22.0510624,40.3376565 22.0510334,40.2287543 L22.0501865,38.4962724 C22.0501025,38.3741771 22.050013,38.2507624 22.049918,38.1260285 L22.0492819,37.3617932 C22.0491648,37.2317821 22.0490423,37.1004516 22.0489143,36.9678018 L22.0480799,36.1560715 C22.0467293,34.9147285 22.0449327,33.5665217 22.0426901,32.1114511 C22.0358803,27.6931782 25.612078,24.1059401 30.0303508,24.0991306 L54.0083008,24.0991211 Z M54.0742187,25.9575195 L30.0742187,25.9575195 C26.7605103,25.9575195 24.0742187,28.643811 24.0742187,31.9575195 L24.0742187,31.9575195 L24.0742187,46.0610352 C24.0742187,49.3175736 26.7141647,51.9575195 29.9707031,51.9575195 L29.9707031,51.9575195 L29.9707031,58.0117187 L37.2021701,51.9575195 L54.0742187,51.9575195 C57.3879272,51.9575195 60.0742187,49.271228 60.0742187,45.9575195 L60.0742187,45.9575195 L60.0742187,31.9575195 C60.0742187,28.643811 57.3879272,25.9575195 54.0742187,25.9575195 L54.0742187,25.9575195 Z" id="Combined-Shape" transform="translate(42.018188, 42.911824) scale(-1, 1) translate(-42.018188, -42.911824) "></path>
                        <path d="M38.6418457,44.9575195 L39.7590332,41.7856445 L44.1262207,41.7856445 L45.2668457,44.9575195 L47.2512207,44.9575195 L42.9777832,33.4887695 L40.9465332,33.4887695 L36.6730957,44.9575195 L38.6418457,44.9575195 Z M43.6340332,40.1762695 L40.3059082,40.1762695 L41.3371582,37.199707 C41.6079915,36.4392904 41.8137207,35.7387695 41.9543457,35.0981445 C42.006429,35.3064779 42.1014811,35.6346029 42.239502,36.0825195 C42.3775228,36.5304362 42.4855957,36.8585612 42.5637207,37.0668945 L42.5637207,37.0668945 L43.6340332,40.1762695 Z" id="A" fill-rule="nonzero"></path>
                        <path d="M24.4465332,23.6762695 L21.7121582,20.730957 C22.7225749,20.3455404 23.4921061,19.6788737 24.020752,18.730957 C24.5493978,17.7830404 24.8137207,16.6163737 24.8137207,15.230957 C24.8137207,13.3663737 24.350179,11.9210612 23.4230957,10.8950195 C22.4960124,9.86897786 21.1835124,9.35595703 19.4855957,9.35595703 C17.7616374,9.35595703 16.4348145,9.86116536 15.505127,10.871582 C14.5754395,11.8819987 14.1105957,13.3299154 14.1105957,15.215332 C14.1105957,17.1007487 14.5728353,18.5551758 15.4973145,19.5786133 C16.4217936,20.6020508 17.7460124,21.1137695 19.4699707,21.1137695 L19.4699707,21.1137695 L19.7746582,21.1137695 L21.9309082,23.6762695 L24.4465332,23.6762695 Z M19.4699707,19.5200195 C18.3553874,19.5200195 17.5142415,19.1567383 16.9465332,18.4301758 C16.3788249,17.7036133 16.0949707,16.637207 16.0949707,15.230957 C16.0949707,13.8299154 16.380127,12.7674154 16.9504395,12.043457 C17.520752,11.3194987 18.365804,10.9575195 19.4855957,10.9575195 C20.5949707,10.9575195 21.4296061,11.3194987 21.989502,12.043457 C22.5493978,12.7674154 22.8293457,13.8299154 22.8293457,15.230957 C22.8293457,16.652832 22.5467936,17.7231445 21.9816895,18.4418945 C21.4165853,19.1606445 20.5793457,19.5200195 19.4699707,19.5200195 Z" id="Q" fill-rule="nonzero"></path>
                    </g>
                </g>
            </g>
        </g>
    </g>
</svg>