<?xml version="1.0" encoding="UTF-8"?>
<svg width="14px" height="14px" viewBox="0 0 14 14" version="1.1" xmlns="http://www.w3.org/2000/svg" xmlns:xlink="http://www.w3.org/1999/xlink">
    <title>icon-previous-arrow-up-unavailable</title>
    <g id="Page-1" stroke="none" stroke-width="1" fill="none" fill-rule="evenodd" fill-opacity="0.395077579">
        <g id="PECOS-2.0-Icons-&amp;-Illus-Overview-v17" transform="translate(-473.000000, -1941.000000)" fill="#0573BB">
            <g id="Home-Page-Icons" transform="translate(26.000000, 1321.000000)">
                <g id="icon-previous-arrow-up-unavailable" transform="translate(454.000000, 627.000000) rotate(90.000000) translate(-454.000000, -627.000000) translate(447.000000, 620.000000)">
                    <path d="M7.58715705,1.36033774 L7.59379679,1.36662232 C7.97810239,1.73037148 7.99476668,2.33678967 7.63101752,2.72109527 C7.62498595,2.72746769 7.61886714,2.73375696 7.61266281,2.73996129 L4.34128335,6.01060087 L13,6.01123047 C13.5522847,6.01123047 14,6.45894572 14,7.01123047 C14,7.56351522 13.5522847,8.01123047 13,8.01123047 L4.39928335,8.01060087 L7.62347637,11.2346272 C8.01400066,11.6251515 8.01400066,12.2583165 7.62347637,12.6488408 L7.61827833,12.6540388 C7.22775404,13.0445631 6.59458906,13.0445631 6.20406477,12.6540388 L1.28217657,7.73215063 C0.892436679,7.34241074 0.891539344,6.71079482 1.28017026,6.31994909 L6.19062787,1.38150679 C6.57327567,0.996678287 7.19302103,0.987283982 7.58715705,1.36033774 Z" id="up-arrow"></path>
                </g>
            </g>
        </g>
    </g>
</svg>