<?xml version="1.0" encoding="UTF-8"?>
<svg width="90px" height="90px" viewBox="0 0 90 90" version="1.1" xmlns="http://www.w3.org/2000/svg" xmlns:xlink="http://www.w3.org/1999/xlink">
    <title>icon-ordering-certification</title>
    <defs>
        <path d="M76,23 L76,65 L68,65 L68,77.1682515 C68,77.7205362 67.5522847,78.1682515 67,78.1682515 C66.8082354,78.1682515 66.6205146,78.1131136 66.4592103,78.0094093 L57,71.9279785 L47.5407897,78.0094093 C47.076231,78.3080792 46.457512,78.1735998 46.1588421,77.7090411 C46.0551378,77.5477368 46,77.360016 46,77.1682515 L46,65 L14,65 L14,23 L76,23 Z M74,25 L16,25 L16,63 L46,63 L46,51 L48.001,51 L48.0126953,75.3962402 L56.4769274,70.0255031 C56.8039659,69.8179902 57.2214247,69.8179902 57.5484632,70.0255031 L57.5484632,70.0255031 L66.0126953,75.3962402 L66.001,51 L68,51 L68,63 L74,63 L74,25 Z M40,52 L40,54 L21,54 L21,52 L40,52 Z M40,46 L40,48 L21,48 L21,46 L40,46 Z M40,40 L40,42 L21,42 L21,40 L40,40 Z M40,34 L40,36 L21,36 L21,34 L40,34 Z" id="path-1"></path>
        <filter x="-11.3%" y="-9.1%" width="122.6%" height="125.4%" filterUnits="objectBoundingBox" id="filter-2">
            <feOffset dx="0" dy="2" in="SourceAlpha" result="shadowOffsetOuter1"></feOffset>
            <feGaussianBlur stdDeviation="2" in="shadowOffsetOuter1" result="shadowBlurOuter1"></feGaussianBlur>
            <feColorMatrix values="0 0 0 0 0.0196078431   0 0 0 0 0.450980392   0 0 0 0 0.733333333  0 0 0 0.17 0" type="matrix" in="shadowBlurOuter1"></feColorMatrix>
        </filter>
    </defs>
    <g id="Page-1" stroke="none" stroke-width="1" fill="none" fill-rule="evenodd">
        <g id="PECOS-2.0-Icons-&amp;-Illus-v13" transform="translate(-331.000000, -1441.000000)">
            <g id="Home-Page-Icons" transform="translate(26.000000, 1289.000000)">
                <g id="icon-ordering-certification" transform="translate(305.000000, 152.000000)">
                    <circle id="Oval" fill="#EDFAE8" cx="45" cy="45" r="45"></circle>
                    <g id="Combined-Shape">
                        <use fill="black" fill-opacity="1" filter="url(#filter-2)" xlink:href="#path-1"></use>
                        <use fill="#0573BB" fill-rule="evenodd" xlink:href="#path-1"></use>
                    </g>
                    <g id="seal" transform="translate(44.431086, 29.453425)" stroke="#0573BB" stroke-width="2">
                        <path d="M11.8654023,0.292317542 C12.2562446,-0.097888552 12.8894093,-0.0973728616 13.2796154,0.293469369 L13.2796154,0.293469369 L15.1203579,2.13633223 C15.2824935,2.17559869 15.4431934,2.21854092 15.6023644,2.26506575 L18.1003201,1.58220229 L18.1003201,1.58220229 C18.6395842,1.43815962 19.1876631,1.75518861 19.3301704,2.28877095 L19.3301704,2.28877095 L20.0039416,4.80887745 C20.122541,4.92212797 20.2385536,5.03806446 20.3518815,5.1565893 L22.8606567,5.81519874 C22.8625542,5.81569689 22.8644503,5.81620062 22.8663449,5.81670993 L22.9772211,5.85348251 C23.4425122,6.03837906 23.7055891,6.5467772 23.572454,7.04203031 L23.572454,7.04203031 L22.8973922,9.55236159 C22.9447645,9.71379131 22.9884508,9.87679727 23.0283537,10.0412821 L24.8667308,11.8612495 L24.8667308,11.8612495 C25.2611075,12.2562446 25.2605918,12.8894093 24.8697496,13.2796154 L24.8697496,13.2796154 L23.031298,15.1158721 C22.9908484,15.2834686 22.9464718,15.4495335 22.8982711,15.6139641 L23.572454,18.1211887 C23.7055891,18.6164418 23.4425122,19.1248399 22.9772211,19.3097365 L22.8606567,19.3480202 L22.8606567,19.3480202 L20.3596705,20.0045786 C20.2432292,20.1266139 20.1239453,20.2459132 20.0019249,20.3623702 L19.3301704,22.874448 C19.1876631,23.4080304 18.6395842,23.7250593 18.1060019,23.5825521 C18.1041064,23.5820458 18.1022125,23.581534 18.1003201,23.5810167 L15.6113111,22.9016374 C15.4465853,22.9499422 15.2802189,22.9944091 15.1123154,23.0349347 L13.2796154,24.8697496 C12.8894093,25.2605918 12.2562446,25.2611075 11.8654023,24.8709014 L11.8612495,24.8667308 L10.047672,23.0344492 C9.87875491,22.9936443 9.71139425,22.9488502 9.54569535,22.9001723 L7.04203031,23.572454 C6.5467772,23.7055891 6.03837906,23.4425122 5.85348251,22.9772211 L5.81670993,22.8663449 C5.81620062,22.8644503 5.81569689,22.8625542 5.81519874,22.8606567 L5.1580567,20.360445 C5.03539442,20.2433149 4.91549936,20.1233117 4.79847952,20.0005433 L2.28877095,19.3301704 C1.75518861,19.1876631 1.43815962,18.6395842 1.5806669,18.1060019 L1.58220229,18.1003201 L2.26314237,15.6119686 C2.21497559,15.4475348 2.17063283,15.2814672 2.13021689,15.1138686 L0.293469369,13.2796154 C-0.0973728616,12.8894093 -0.097888552,12.2562446 0.292317542,11.8654023 L0.296488118,11.8612495 L2.13315717,10.0432922 C2.173028,9.8788004 2.21668237,9.71578698 2.26402296,9.55434931 L1.58220229,7.06289886 C1.58168492,7.06100645 1.58117312,7.05911252 1.5806669,7.05721709 C1.43815962,6.52363475 1.75518861,5.97555582 2.28877095,5.83304854 L2.28877095,5.83304854 L4.80624399,5.16064171 C4.92015943,5.0413788 5.0367914,4.92473283 5.15604058,4.81080313 L5.81519874,2.30256229 C5.81569689,2.30066473 5.81620062,2.29876864 5.81670993,2.29687404 L5.85348251,2.18599786 C6.03837906,1.72070673 6.5467772,1.45762991 7.04203031,1.590765 L7.04203031,1.590765 L9.55466311,2.26651999 C9.71480124,2.21962804 9.87648857,2.17636282 10.0396301,2.13681928 L11.8612495,0.296488118 L11.8612495,0.296488118 Z" id="Combined-Shape"></path>
                        <circle id="Oval" cx="12.5689142" cy="12.5465753" r="7"></circle>
                    </g>
                </g>
            </g>
        </g>
    </g>
</svg>