<?xml version="1.0" encoding="UTF-8"?>
<svg width="90px" height="90px" viewBox="0 0 90 90" version="1.1" xmlns="http://www.w3.org/2000/svg" xmlns:xlink="http://www.w3.org/1999/xlink">
    <title>icon-home-my-mac</title>
    <defs>
        <path d="M12.3287248,25.4684648 L14.168934,26 L14.2517475,26.0005586 C14.0874041,26.3200103 14,26.6549016 14,27 C14,29.209139 17.581722,31 22,31 C26.418278,31 30,29.209139 30,27 C30,26.6549016 29.9125959,26.3200103 29.7482525,26.0005586 L30.0198806,26 L31.6789025,25.4750447 C32.8891682,25.8664623 34.0368902,26.3289982 35.1095253,26.8543855 C34.7069048,27.3772429 34.3378484,27.9274293 34.0057646,28.5016741 C33.3475775,28.1925865 32.6582948,27.9083303 31.941074,27.6510567 C31.4006566,30.6586964 27.1560289,33 22,33 C16.8439711,33 12.5993434,30.6586964 12.0582461,27.6513668 C6.04843146,29.8070749 2,33.8580494 2,38.5 C2,45.4035594 10.954305,51 22,51 C22.3856547,51 22.76876,50.9931778 23.1490237,50.979716 L22,52.0759354 L21.9989995,53 C9.84919479,52.9996436 -5.32907052e-14,46.5079091 -5.32907052e-14,38.5 C-5.32907052e-14,32.7793478 5.02635952,27.832448 12.3271017,25.4731036 C12.3272718,25.4717797 12.3279977,25.4701221 12.3287248,25.4684648 Z M22,3.55271368e-15 C28.627417,3.55271368e-15 34,6.04415588 34,13.5 C34,20.9558441 28.627417,27 22,27 C15.372583,27 10,20.9558441 10,13.5 C10,6.04415588 15.372583,3.55271368e-15 22,3.55271368e-15 Z M22,2 C16.4771525,2 12,7.14872538 12,13.5 C12,19.8512746 16.4771525,25 22,25 C27.5228475,25 32,19.8512746 32,13.5 C32,7.14872538 27.5228475,2 22,2 Z" id="path-1"></path>
        <filter x="-19.9%" y="-9.4%" width="139.9%" height="126.4%" filterUnits="objectBoundingBox" id="filter-2">
            <feOffset dx="0" dy="2" in="SourceAlpha" result="shadowOffsetOuter1"></feOffset>
            <feGaussianBlur stdDeviation="2" in="shadowOffsetOuter1" result="shadowBlurOuter1"></feGaussianBlur>
            <feColorMatrix values="0 0 0 0 0.0196078431   0 0 0 0 0.450980392   0 0 0 0 0.733333333  0 0 0 0.17 0" type="matrix" in="shadowBlurOuter1"></feColorMatrix>
        </filter>
    </defs>
    <g id="Page-1-Icons" stroke="none" stroke-width="1" fill="none" fill-rule="evenodd">
        <g id="PECOS-2.0-Icons-Overview-v21" transform="translate(-439.000000, -1799.000000)">
            <g id="Home-Page-Icons" transform="translate(26.000000, 1511.000000)">
                <g id="icon-home-my-mac" transform="translate(413.000000, 288.000000)">
                    <circle id="90x90-Oval-Copy-2" fill="#EDFAE8" cx="45" cy="45" r="45"></circle>
                    <g id="Group-2" transform="translate(15.000000, 14.000000)">
                        <g id="person">
                            <use fill="black" fill-opacity="1" filter="url(#filter-2)" xlink:href="#path-1"></use>
                            <use fill="#0573BB" fill-rule="evenodd" xlink:href="#path-1"></use>
                        </g>
                        <path d="M47,23 C54.1797017,23 60,28.8202983 60,36 C60,43.1797017 54.1797017,49 47,49 C44.9541583,49 43.0186939,48.5274188 41.2968161,47.6854656 L36.9632718,52.052 L36.9638824,55.7570716 C36.9638824,56.4431183 36.4077317,56.9992691 35.7216849,56.9992691 L35.715243,56.9992524 L32.0742718,56.98 L32,57.0560226 L32,58.7578025 C32,59.4438492 31.4438492,60 30.7578025,60 L25.2184693,60 C24.5324226,60 23.9762718,59.4438492 23.9762718,58.7578025 L23.9762718,52.9207453 L35.3019473,41.6773696 C34.4678727,39.961971 34,38.0356243 34,36 C34,28.8202983 39.8202983,23 47,23 Z M47,25 C40.9248678,25 36,29.9248678 36,36 C36,38.30612 36.7096544,40.4464914 37.9224967,42.2146475 L26.0168714,53.9772043 L26.0168714,56.9929649 C26.0168714,57.5424263 26.4601894,57.9889634 27.0096365,57.9929387 L27.0096365,57.9929387 L28.992765,58.007287 L28.992765,58.007287 C29.5522847,58.0073132 30,57.5595979 30,57.0073132 L30,57.0073132 L30,56.0219479 L31.0632718,54.974 L34.0562269,54.9743404 C34.5690628,54.9743404 34.9917341,54.5883002 35.0494992,54.0909616 L35.0562269,53.9743404 L35.0552718,51.047 L40.9868524,45.2124835 C42.7150846,46.342831 44.7807973,47 47,47 C53.0751322,47 58,42.0751322 58,36 C58,29.9248678 53.0751322,25 47,25 Z M50,28 C52.7614237,28 55,30.2385763 55,33 C55,35.7614237 52.7614237,38 50,38 C47.2385763,38 45,35.7614237 45,33 C45,30.2385763 47.2385763,28 50,28 Z M50,30 C48.3431458,30 47,31.3431458 47,33 C47,34.6568542 48.3431458,36 50,36 C51.6568542,36 53,34.6568542 53,33 C53,31.3431458 51.6568542,30 50,30 Z" id="key-copy" fill="#0573BB"></path>
                        <path d="M12.5131974,33 C13.5900479,34.3155382 15.4101838,35.171584 17.9736051,35.5681374 C17.9912017,37.6163326 18,39.3537113 18,40.7802735 C18,42.3813033 16.1710658,44.4545455 12.5131974,47 C8.85532907,44.4545455 7.02639488,42.3813033 7.02639488,40.7802735 C7.02639488,39.3922117 7.01759659,37.654833 7,35.5681374 C9.71150888,35.171584 11.5492414,34.3155382 12.5131974,33 Z M12.5083984,35.6333333 C11.8949718,36.3850694 10.7255057,36.8742385 9,37.1008404 C9.00895826,38.5576992 9.01433322,39.6856315 9.01612487,40.4846373 L9.01679674,41.0222179 L9.01679674,41.0222179 C9.01679674,41.9370921 10.180664,43.1218019 12.5083984,44.5763474 C14.8361328,43.1218019 16,41.9370921 16,41.0222179 L15.9999253,40.852623 L15.9999253,40.852623 L15.9993281,40.4740772 C15.9975365,39.6645113 15.9921615,38.540099 15.9832033,37.1008404 C14.3519352,36.8742385 13.1936669,36.3850694 12.5083984,35.6333333 Z" id="Combined-Shape" fill="#0573BB"></path>
                    </g>
                </g>
            </g>
        </g>
    </g>
</svg>