<?xml version="1.0" encoding="UTF-8"?>
<svg width="69px" height="69px" viewBox="0 0 69 69" version="1.1" xmlns="http://www.w3.org/2000/svg" xmlns:xlink="http://www.w3.org/1999/xlink">
    <title>icon-home-customer-service</title>
    <g id="Page-1" stroke="none" stroke-width="1" fill="none" fill-rule="evenodd">
        <g id="PECOS-2.0-Icons-&amp;-Illus-v14" transform="translate(-442.000000, -1798.000000)">
            <g id="Home-Page-Icons" transform="translate(26.000000, 1289.000000)">
                <g id="icon-home-customer-service" transform="translate(419.000000, 509.000000)">
                    <path d="M63,5 C64.6568542,5 66,6.34314575 66,8 L66,36 C66,37.6568542 64.6568542,39 63,39 L17,39 L16.97,38.999 L22.7282074,39 L21.489,37 L63,37 C63.5128358,37 63.9355072,36.6139598 63.9932723,36.1166211 L64,36 L64,8.064 L41.2493332,26.146036 C40.5185112,26.7268407 39.4830978,26.7248242 38.7545435,26.1411773 L16.004,7.916 L16,8 L16,13.275 L14,13.275 L14,8 C14,6.34314575 15.3431457,5 17,5 L63,5 Z M61.875,7 L18.213,7 L39.3328642,23.9626984 C39.6974949,24.2555615 40.2164097,24.2565849 40.5821928,23.9651624 L61.875,7 Z" id="Combined-Shape" fill="#666666"></path>
                    <path d="M31.7931646,14.4430016 C32.3454494,14.4430016 32.8454494,14.6668592 33.2073782,15.028788 C33.5823182,15.403728 33.8090813,15.9268449 33.7922927,16.5027636 L33.7922927,16.5027636 L32.5432613,28.6484624 C32.4906109,29.1582611 32.2495114,29.6068959 31.893447,29.928081 C31.5373825,30.2492661 31.0663531,30.4430016 30.5538428,30.4430016 L30.5538428,30.4430016 L23.3006346,30.4430016 C22.2334524,32.9167108 21.7484579,36.2178493 21.7484579,40.4430016 C21.7484579,44.8816183 22.2894014,48.527388 23.3988862,51.3733656 L23.3988862,51.3733656 L30.5648735,51.4146813 C31.0784844,51.4146813 31.5503378,51.6092252 31.9066119,51.9315299 C32.262886,52.2538346 32.5035809,52.7039001 32.5548747,53.2149433 L32.5548747,53.2149433 L33.7617258,65.238869 C33.816882,65.7883927 33.644078,66.3082494 33.3201041,66.7045143 C32.9848399,67.1145887 32.4876858,67.392307 31.9137433,67.4335782 L31.9137433,67.4335782 L24.7708724,67.4386071 C22.321915,67.4386011 20.0510244,66.1587759 18.7827394,64.063819 C15.4584987,58.5728287 13.7611532,50.7074331 13.7611532,40.4430016 C13.7611532,30.2495218 15.4405258,22.6555168 18.710338,17.6270217 C20.0017108,15.6410827 22.2098736,14.4430016 24.5787546,14.4430016 L24.5787546,14.4430016 Z" id="Phone-Copy" stroke="#666666" stroke-width="2" transform="translate(23.716422, 40.940804) rotate(-42.000000) translate(-23.716422, -40.940804) "></path>
                </g>
            </g>
        </g>
    </g>
</svg>