<?xml version="1.0" encoding="UTF-8"?>
<svg width="98px" height="94px" viewBox="0 0 98 94" version="1.1" xmlns="http://www.w3.org/2000/svg" xmlns:xlink="http://www.w3.org/1999/xlink">
    <title>icon-home-revalidation</title>
    <defs>
        <filter x="-16.7%" y="-16.7%" width="133.3%" height="133.3%" filterUnits="objectBoundingBox" id="filter-1">
            <feOffset dx="0" dy="2" in="SourceAlpha" result="shadowOffsetOuter1"></feOffset>
            <feGaussianBlur stdDeviation="2" in="shadowOffsetOuter1" result="shadowBlurOuter1"></feGaussianBlur>
            <feColorMatrix values="0 0 0 0 0.0196078431   0 0 0 0 0.450980392   0 0 0 0 0.733333333  0 0 0 0.165455638 0" type="matrix" in="shadowBlurOuter1" result="shadowMatrixOuter1"></feColorMatrix>
            <feMerge>
                <feMergeNode in="shadowMatrixOuter1"></feMergeNode>
                <feMergeNode in="SourceGraphic"></feMergeNode>
            </feMerge>
        </filter>
    </defs>
    <g id="Page-1" stroke="none" stroke-width="1" fill="none" fill-rule="evenodd">
        <g id="PECOS-2.0-Icons-&amp;-Illus-v13" transform="translate(-39.000000, -1435.000000)">
            <g id="Home-Page-Icons" transform="translate(26.000000, 1289.000000)">
                <g id="icon-home-revalidation" transform="translate(21.000000, 150.000000)">
                    <circle id="90x90-Oval" fill="#EDFAE8" cx="45" cy="45" r="45"></circle>
                    <g id="stamp-and-paper" filter="url(#filter-1)" transform="translate(1.577164, 5.577164)">
                        <path d="M67.4228355,14.4228355 C69.6319745,14.4228355 71.4228355,16.2136965 71.4228355,18.4228355 L71.4228355,67.4228355 C71.4228355,69.6319745 69.6319745,71.4228355 67.4228355,71.4228355 L29.4228355,71.4228355 C27.2136965,71.4228355 25.4228355,69.6319745 25.4228355,67.4228355 L25.4219879,51.1800905 C26.0900207,51.4467196 26.7568632,51.6703386 27.4225155,51.8509475 L27.4228355,67.4228355 C27.4228355,68.527405 28.318266,69.4228355 29.4228355,69.4228355 L29.4228355,69.4228355 L67.4228355,69.4228355 C68.527405,69.4228355 69.4228355,68.527405 69.4228355,67.4228355 L69.4228355,67.4228355 L69.4228355,18.4228355 C69.4228355,17.318266 68.527405,16.4228355 67.4228355,16.4228355 L67.4228355,16.4228355 L29.4228355,16.4228355 C28.5369485,16.4228355 27.7855872,16.998809 27.5228018,17.7967061 C27.1477572,17.262419 26.7317238,16.6312242 26.2769139,15.9526072 C27.0095778,15.0207301 28.1463838,14.4228355 29.4228355,14.4228355 L67.4228355,14.4228355 Z" id="Combined-Shape" fill="#0573BB"></path>
                        <path d="M28,5 C31.3137085,5 34,7.6862915 34,11 C34,11.4303012 33.954703,11.8500228 33.8686171,12.2546564 L32.6849613,23.4355194 C39.2356668,24.6873815 44,28.4959502 44,33 C44,33.3377575 43.973208,33.6716041 43.9208797,34.0007547 L44,34 L44,41 C44,46.5228475 36.836556,51 28,51 C19.2879025,51 12.2021191,46.6480763 12.0042478,41.2327279 L12,41 L12,34 L12.0791203,34.0007547 C12.026792,33.6716041 12,33.3377575 12,33 C12,28.4957208 16.7648186,24.6869935 23.3160399,23.4353281 L22.1339413,12.2666215 C22.0461947,11.8582989 22,11.4345441 22,11 C22,7.6862915 24.6862915,5 28,5 Z M42.0010631,37.8438113 C39.2719046,40.9187405 34.0248357,43 28,43 C21.9758159,43 16.7292304,40.9191907 13.9998225,37.844809 L14,41 C14,45.418278 20.2680135,49 28,49 C35.7319865,49 42,45.418278 42,41 L42.0010631,37.8438113 Z M32.4742881,25.4172639 L31.998,29.916 L32,30 C32,32.1421954 30.3160315,33.8910789 28.1996403,33.9951047 L28,34 C25.790861,34 24,32.209139 24,30 C24,29.9682018 24.000371,29.9364902 24.001109,29.9048694 L23.5267072,25.4170722 C17.9883686,26.4834962 14,29.4755957 14,33 C14,37.418278 20.2680135,41 28,41 C35.7319865,41 42,37.418278 42,33 C42,29.4758068 38.0121092,26.4838547 32.4742881,25.4172639 Z M28,7 C25.790861,7 24,8.790861 24,11 C24,11.2834421 24.0294812,11.5599985 24.0855444,11.8267701 L26.003461,29.8813537 C26.0011644,29.9206091 26,29.9601686 26,30 C26,31.1045695 26.8954305,32 28,32 C29.1045695,32 30,31.1045695 30,30 L29.997,29.936 L31.8990504,11.8969205 C31.9651057,11.6085858 32,11.3083679 32,11 C32,8.790861 30.209139,7 28,7 Z" id="stamp-copy" fill="#0573BB" transform="translate(28.000000, 28.000000) rotate(-45.000000) translate(-28.000000, -28.000000) "></path>
                        <path d="M53.4228355,43.4228355 C56.6196584,43.4228355 59.497971,44.7865399 61.507777,46.9639523 L63.2428441,45.657227 C63.4106619,45.5309018 63.6139973,45.4606281 63.8240039,45.4563754 C64.3761754,45.4451936 64.8328636,45.8837524 64.8440453,46.435924 L64.8440453,46.435924 L65.0010601,54.1895227 C65.0032208,54.2962196 64.9882884,54.4025746 64.9568295,54.5045514 C64.7940258,55.032295 64.2342265,55.3281373 63.7064828,55.1653335 L63.7064828,55.1653335 L56.2889569,52.8770995 C56.0878177,52.8150501 55.9113873,52.6911129 55.7847958,52.5229413 C55.4526483,52.0816971 55.5410886,51.4547392 55.9823329,51.1225917 L55.9823329,51.1225917 L57.4754449,49.9982693 C56.4078495,49.0198923 54.9850676,48.4228355 53.4228355,48.4228355 C50.109127,48.4228355 47.4228355,51.109127 47.4228355,54.4228355 C47.4228355,57.736544 50.109127,60.4228355 53.4228355,60.4228355 C54.4063159,60.4228355 55.3345301,60.1862131 56.1536531,59.7667933 L61.2408354,62.1609812 C59.2471615,64.1750999 56.4807106,65.4228355 53.4228355,65.4228355 C47.3477033,65.4228355 42.4228355,60.4979678 42.4228355,54.4228355 C42.4228355,48.3477033 47.3477033,43.4228355 53.4228355,43.4228355 Z" id="do-again-copy-2" stroke="#0573BB" stroke-width="2"></path>
                    </g>
                </g>
            </g>
        </g>
    </g>
</svg>