<?xml version="1.0" encoding="UTF-8"?>
<svg width="90px" height="90px" viewBox="0 0 90 90" version="1.1" xmlns="http://www.w3.org/2000/svg" xmlns:xlink="http://www.w3.org/1999/xlink">
    <title>icon-home-knowledge-base</title>
    <defs>
        <path d="M71.7768938,19.4561375 C71.9392136,19.8318255 72.0229492,20.2367524 72.0229492,20.6460069 L72.022,22.7382419 L72.4522067,22.6588966 C74.0812055,22.3563588 75.6470252,23.4316678 75.9495631,25.0606665 C75.9831167,25.2413342 76,25.4247027 76,25.6084598 L76,65.9720585 C76,67.4257306 74.9577994,68.6702401 73.526707,68.9254599 L45.5977476,73.906286 C45.2501558,73.9682752 44.89435,73.9684183 44.5467085,73.9067086 L16.4756679,68.9238298 C15.0434744,68.6696017 14,67.4245883 14,65.9700058 L14,25.6084598 C14,23.9516055 15.3431458,22.6084598 17,22.6084598 C17.1837571,22.6084598 17.3671256,22.625343 17.5477933,22.6588966 L18.132,22.7672419 L18.1328125,20.6565092 C18.1328125,18.999655 19.4759583,17.6565092 21.1328125,17.6565092 C21.5441981,17.6565092 21.9511877,17.741119 22.3284871,17.9050801 L43.807773,27.2392242 C44.5684213,27.5697752 45.4319733,27.5706858 46.193317,27.2417396 L67.8330798,17.8920624 C69.3540413,17.2349156 71.119747,17.9351759 71.7768938,19.4561375 Z M69.9416686,20.2882051 C69.7235652,19.7808104 69.1354328,19.5462935 68.6280381,19.7643968 L68.6280381,19.7643968 L45.7922946,29.580331 C45.2866025,29.7977025 44.713678,29.7970521 44.2084806,29.5785331 L44.2084806,29.5785331 L21.5298084,19.7690543 C21.4044755,19.7148426 21.2693674,19.6868747 21.1328125,19.6868747 C20.5805278,19.6868747 20.1328125,20.13459 20.1328125,20.6868747 L20.1328125,20.6868747 L20.1328125,60.2297572 C20.1328125,61.0315609 20.6116648,61.755863 21.3493959,62.0699362 L21.3493959,62.0699362 L44.2233035,71.8080101 C44.7198906,72.0194213 45.2808424,72.0211578 45.7787288,71.8128251 L45.7787288,71.8128251 L68.7949579,62.1820465 C69.5387731,61.8708088 70.0229492,61.143359 70.0229492,60.3370526 L70.0229492,60.3370526 L70.0229492,20.6831162 C70.0229492,20.5473259 69.9952936,20.4129582 69.9416686,20.2882051 Z M17,24.6105838 C16.4477153,24.6105838 16,25.0582991 16,25.6105838 L16,25.6105838 L16,64.8500385 C16,65.8010278 16.6696507,66.6205049 17.6015791,66.8099519 L17.6015791,66.8099519 L37.289,70.8122419 L19.9956366,63.7279088 C18.868839,63.2663409 18.1328125,62.1694599 18.1328125,60.9517908 L18.132,24.8072419 L17.1869403,24.6282125 C17.156129,24.6223493 17.1250761,24.6179421 17.0938848,24.6150008 Z M73.9823713,25.4236435 C73.879127,24.8810948 73.3556083,24.5249683 72.8130597,24.6282125 L72.8130597,24.6282125 L72.022,24.7782419 L72.0229492,61.3538731 C72.0229492,62.5868235 71.268588,63.6942305 70.1212317,64.1456065 L53.672,70.6162419 L72.3984209,66.8099519 C73.27553,66.6316489 73.92031,65.8952568 73.9931315,65.0163935 L74,64.8500385 L74,25.6105838 C74,25.5478554 73.9940977,25.4852661 73.9823713,25.4236435 Z M44,27.6452419 L46,27.6452419 L46,73.6452419 L44,73.6452419 L44,27.6452419 Z" id="path-1"></path>
        <filter x="-11.3%" y="-8.9%" width="122.6%" height="124.9%" filterUnits="objectBoundingBox" id="filter-2">
            <feOffset dx="0" dy="2" in="SourceAlpha" result="shadowOffsetOuter1"></feOffset>
            <feGaussianBlur stdDeviation="2" in="shadowOffsetOuter1" result="shadowBlurOuter1"></feGaussianBlur>
            <feColorMatrix values="0 0 0 0 0.0196078431   0 0 0 0 0.450980392   0 0 0 0 0.733333333  0 0 0 0.17 0" type="matrix" in="shadowBlurOuter1"></feColorMatrix>
        </filter>
    </defs>
    <g id="APPLICATION-LEFT-NAV" stroke="none" stroke-width="1" fill="none" fill-rule="evenodd">
        <g id="Home-Page" transform="translate(-600.000000, -544.000000)">
            <g id="Main-Icons-blue-&amp;-green" transform="translate(43.000000, 432.000000)">
                <g id="icon-home-knowledge-base" transform="translate(557.000000, 112.000000)">
                    <circle id="90x90-Oval" fill="#EDFAE8" cx="45" cy="45" r="45"></circle>
                    <g id="book">
                        <use fill="black" fill-opacity="1" filter="url(#filter-2)" xlink:href="#path-1"></use>
                        <use fill="#0573BB" fill-rule="evenodd" xlink:href="#path-1"></use>
                    </g>
                </g>
            </g>
        </g>
    </g>
</svg>