<?xml version="1.0" encoding="UTF-8"?>
<svg width="44px" height="44px" viewBox="0 0 44 44" version="1.1" xmlns="http://www.w3.org/2000/svg" xmlns:xlink="http://www.w3.org/1999/xlink">
    <title>New Icon</title>
    <g id="APPLICATION-LEFT-NAV" stroke="none" stroke-width="1" fill="none" fill-rule="evenodd">
        <g id="Home-Page" transform="translate(-121.000000, -119.000000)">
            <g id="NEWS-AND-ANNOUNCEMENTS" transform="translate(0.000000, 74.000000)">
                <g id="Announcement-1" transform="translate(99.000000, 45.000000)">
                    <g id="New-Icon" transform="translate(22.000000, 0.000000)">
                        <path d="M22,0 L25.990871,5.98590305 C26.178967,6.0326253 26.3657882,6.08257479 26.5512723,6.13568934 L33,2.94744112 L33.4640843,10.1330174 C33.6006776,10.2650015 33.7349985,10.3993224 33.8669826,10.5359157 L41.0525589,11 L37.8643107,17.4487277 C37.9172372,17.6335551 37.967021,17.8197101 38.0136006,18.0071312 L44,22 L38.0140969,25.990871 C37.9673747,26.178967 37.9174252,26.3657882 37.8643107,26.5512723 L41.0525589,33 L33.8669826,33.4640843 C33.7349985,33.6006776 33.6006776,33.7349985 33.4640843,33.8669826 L33,41.0525589 L26.5512723,37.8643107 C26.3657882,37.9174252 26.178967,37.9673747 25.990871,38.0140969 L22,44 L18.0071312,38.0136006 C17.8197101,37.967021 17.6335551,37.9172372 17.4487277,37.8643107 L11,41.0525589 L10.5359157,33.8669826 C10.3993224,33.7349985 10.2650015,33.6006776 10.1330174,33.4640843 L2.94744112,33 L6.13568934,26.5512723 C6.08266882,26.3661165 6.03280216,26.1796285 5.98615121,25.9918699 L-6.18756124e-16,22 L5.98590305,18.009129 C6.0326253,17.821033 6.08257479,17.6342118 6.13568934,17.4487277 L2.94744112,11 L10.1330174,10.5359157 C10.2650015,10.3993224 10.3993224,10.2650015 10.5359157,10.1330174 L11,2.94744112 L17.4487277,6.13568934 C17.6338835,6.08266882 17.8203715,6.03280216 18.0081301,5.98615121 L22,0 Z" id="Combined-Shape" fill="#9FEF80"></path>
                        <text id="NEW" font-family="OpenSans-Bold, Open Sans" font-size="11" font-weight="bold" fill="#000000">
                            <tspan x="9.13085938" y="27">NEW</tspan>
                        </text>
                    </g>
                </g>
            </g>
        </g>
    </g>
</svg>