<?xml version="1.0" encoding="UTF-8"?>
<svg width="40px" height="40px" viewBox="0 0 40 40" version="1.1" xmlns="http://www.w3.org/2000/svg" xmlns:xlink="http://www.w3.org/1999/xlink">
    <title>icon-home-previous</title>
    <g id="Page-1" stroke="none" stroke-width="1" fill="none" fill-rule="evenodd">
        <g id="PECOS-2.0-Icons-&amp;-Illus-v13" transform="translate(-274.000000, -1344.000000)">
            <g id="Home-Page-Icons" transform="translate(26.000000, 1289.000000)">
                <g id="icon-home-previous" transform="translate(248.000000, 55.000000)">
                    <circle id="Oval" fill="#C6E5F8" cx="20" cy="20" r="20"></circle>
                    <path d="M16.5355988,12.9801331 C17.3718716,12.9801331 18.0498047,13.6580661 18.0498047,14.494339 L18.0498047,26.0199585 L18.0498047,26.0199585 L29.5516072,26.0199585 C30.3633474,26.0199585 31.0213928,26.6780039 31.0213928,27.4897441 C31.0213928,28.3017903 30.3636539,28.9603767 29.5516084,28.9614224 L17.0239682,28.9775543 C15.9193997,28.9789767 15.0228168,28.0847 15.0213945,26.9801314 C15.0213934,26.9792729 15.0213928,26.9784145 15.0213928,26.977556 L15.0213928,14.494339 C15.0213928,13.6580661 15.6993259,12.9801331 16.5355988,12.9801331 Z" id="icon-left-chevron" fill="#0573BB" transform="translate(23.021393, 20.980133) rotate(45.000000) translate(-23.021393, -20.980133) "></path>
                </g>
            </g>
        </g>
    </g>
</svg>