<?xml version="1.0" encoding="UTF-8"?>
<svg width="45px" height="41px" viewBox="0 0 45 41" version="1.1" xmlns="http://www.w3.org/2000/svg" xmlns:xlink="http://www.w3.org/1999/xlink">
    <title>icon-announcement</title>
    <g id="Page-1" stroke="none" stroke-width="1" fill="none" fill-rule="evenodd">
        <g id="PECOS-2.0-Icons-&amp;-Illus-v14" transform="translate(-51.000000, -1395.000000)" fill="#0573BB">
            <g id="Home-Page-Icons" transform="translate(26.000000, 1289.000000)">
                <g id="icon-announcement" transform="translate(25.000000, 106.000000)">
                    <path d="M30.4473591,6.11089598 C30.9843026,6.11089598 31.4195813,6.5461747 31.4195813,7.0831182 L31.4195813,27.1386738 C31.4195813,27.6756173 30.9843026,28.110896 30.4473591,28.110896 C29.9104156,28.110896 29.4751369,27.6756173 29.4751369,27.1386738 L29.4745913,26.715634 C27.5977918,25.0993857 25.9671199,24.0061234 24.5825757,23.4358472 C22.9654496,22.7697733 21.0212073,22.3190143 18.7498489,22.0835701 L18.7492424,22.110896 C18.7492424,22.6631807 18.3015271,23.110896 17.7492424,23.110896 L16.9861312,23.109896 L18.7735238,32.9318987 C18.8723813,33.4752638 18.5120367,33.9958881 17.9686716,34.0947455 C17.9096115,34.1054907 17.8497038,34.110896 17.7896743,34.110896 L13.9839501,34.110896 C13.5007069,34.110896 13.0865998,33.765332 13.0001006,33.2898933 L11.1481312,23.109896 L11.0270201,23.110896 C9.92245063,23.110896 9.02702013,22.2154655 9.02702013,21.110896 L9.02613124,21.107896 L8.9384909,21.1060007 C6.82209971,21.0019749 5.13813124,19.2530914 5.13813124,17.110896 C5.13813124,14.9392454 6.86872722,13.1717972 9.02603405,13.1124364 L9.02702013,13.110896 C9.02702013,12.0063265 9.92245063,11.110896 11.0270201,11.110896 L17.7492424,11.110896 C18.279082,11.110896 18.712679,11.52296 18.747047,12.0441019 C20.7725988,11.980118 22.718863,11.5706942 24.5825757,10.8159741 C26.1490279,10.1816312 27.7799183,9.07695954 29.4752468,7.50195908 L29.4751369,7.0831182 C29.4751369,6.5461747 29.9104156,6.11089598 30.4473591,6.11089598 Z M15.0521312,23.109896 L13.1311312,23.109896 L14.7824325,31.7052075 C14.8220065,31.9112461 14.9846878,32.0673224 15.1853715,32.1031221 L15.2734573,32.110896 L16.1758873,32.110896 C16.2075377,32.110896 16.2391166,32.1078908 16.2701989,32.1019208 C16.5112526,32.0556214 16.6783738,31.8434141 16.6759536,31.6063662 L16.6669121,31.5165844 L15.0521312,23.109896 Z M34.9777553,22.4901385 C34.9846279,22.4939962 34.9914532,22.4979375 34.9982297,22.5019617 L37.5150703,23.9965774 C37.9817641,24.2737217 38.142166,24.8725553 37.8764881,25.3458705 L37.8680541,25.360896 C37.6060531,25.8276607 37.0152718,25.9936544 36.5485072,25.7316535 C36.5416346,25.7277958 36.5348093,25.7238544 36.5280328,25.7198303 L34.0111922,24.2252145 C33.5444984,23.9480703 33.3840965,23.3492367 33.6497744,22.8759214 L33.6582084,22.860896 C33.9202094,22.3941313 34.5109906,22.2281375 34.9777553,22.4901385 Z M29.4751369,10.1489819 C28.185724,11.3202059 26.5548702,12.2325187 24.5825757,12.8859204 C22.829425,13.4667219 21.0985838,13.8638011 19.3900521,14.0771579 L18.7503985,14.1485547 L18.7503985,20.1304883 C21.0115793,20.2438916 22.9556384,20.6023104 24.5825757,21.2057446 C26.0739349,21.7588927 27.568585,22.6186997 29.0665259,23.7851658 L29.4751369,24.110896 L29.4751369,10.1489819 Z M15.8047979,13.110896 L11.9714646,13.110896 C11.4586287,13.110896 11.0359574,13.4969362 10.9781923,13.9942749 L10.9714646,14.110896 L10.9714646,20.110896 C10.9714646,20.6237318 11.3575048,21.0464031 11.8548434,21.1041683 L11.9714646,21.110896 L15.8047979,21.110896 C16.3176337,21.110896 16.7403051,20.7248558 16.7980702,20.2275171 L16.8047979,20.110896 L16.8047979,14.110896 C16.8047979,13.5586112 16.3570827,13.110896 15.8047979,13.110896 Z M9.02702013,15.110896 L8.87506294,15.1167461 C7.92234024,15.1903912 7.16207092,15.9506605 7.0884258,16.9033832 L7.08257569,17.0553404 L7.08257569,17.1664515 C7.08257569,18.1892011 7.87219694,19.0275247 8.87506294,19.1050459 L9.02702013,19.110896 L9.02702013,15.110896 Z M39.1381312,16.110896 C39.690416,16.110896 40.1381312,16.5586112 40.1381312,17.110896 C40.1381312,17.6631807 39.690416,18.110896 39.1381312,18.110896 L34.3325757,18.110896 C33.7802909,18.110896 33.3325757,17.6631807 33.3325757,17.110896 C33.3325757,16.5586112 33.7802909,16.110896 34.3325757,16.110896 L39.1381312,16.110896 Z M37.8562309,8.84042162 C37.860255,8.84719808 37.8641964,8.85402338 37.8680541,8.86089598 L37.8764881,8.87592144 C38.142166,9.34923668 37.9817641,9.94807029 37.5150703,10.2252145 L34.9982297,11.7198303 C34.5379948,11.9931389 33.9433403,11.8416052 33.6700316,11.3813703 C33.6660074,11.3745939 33.6620661,11.3677686 33.6582084,11.360896 L33.6497744,11.3458705 C33.3840965,10.8725553 33.5444984,10.2737217 34.0111922,9.99657743 L36.5280328,8.50196171 C36.9882677,8.22865307 37.5829222,8.38018673 37.8562309,8.84042162 Z" transform="translate(22.638131, 20.110896) rotate(-24.000000) translate(-22.638131, -20.110896) "></path>
                </g>
            </g>
        </g>
    </g>
</svg>