<?xml version="1.0" encoding="UTF-8"?>
<svg width="48px" height="48px" viewBox="0 0 48 48" version="1.1" xmlns="http://www.w3.org/2000/svg" xmlns:xlink="http://www.w3.org/1999/xlink">
    <title>icon-warning-banner</title>
    <g id="Page-1-Icons" stroke="none" stroke-width="1" fill="none" fill-rule="evenodd">
        <g id="PECOS-2.0-Icons-Overview-v28" transform="translate(-692.000000, -316.000000)">
            <g id="BANNER-MESSAGE-ICONS" transform="translate(684.000000, 235.000000)">
                <g id="icon-warning-banner" transform="translate(8.000000, 81.000000)">
                    <rect id="Rectangle" fill="#F58900" x="0" y="0" width="48" height="48"></rect>
                    <path d="M24.0383146,8 C25.3853404,8 26.4041232,8.66102431 27.0946629,9.98307292 L39.7714584,35.987793 C40.0761805,36.9693065 40.0761805,37.8514679 39.7714584,38.6342773 C39.4667362,39.4170867 38.6915518,39.8723276 37.445905,40 L10.6669539,40 C9.39173462,39.7293837 8.58654167,39.2741428 8.251375,38.6342773 C7.91620833,37.9944119 7.91620833,37.1122504 8.251375,35.987793 L21.0509985,9.98307292 C21.6955168,8.66102431 22.6912888,8 24.0383146,8 Z" id="Triangle" fill="#FFFFFF"></path>
                    <path d="M24,31.8541451 C25.4238591,31.8541451 26.578125,33.0084109 26.578125,34.4322701 C26.578125,35.8561292 25.4238591,37.0103951 24,37.0103951 C22.5761409,37.0103951 21.421875,35.8561292 21.421875,34.4322701 C21.421875,33.0084109 22.5761409,31.8541451 24,31.8541451 Z M24,14.933917 C25.3313334,14.933917 26.4105923,16.013176 26.4105923,17.3445094 C26.4105923,17.398463 26.4087809,17.4524014 26.4051612,17.5062335 L25.5710106,29.9117193 L22.5075989,29.9117193 L21.6082713,17.5052951 C21.5125196,16.1843798 22.505711,15.0359443 23.8266263,14.9401926 C23.8843229,14.9360103 23.942152,14.933917 24,14.933917 Z" id="exclamation-mark" fill="#F58900"></path>
                </g>
            </g>
        </g>
    </g>
</svg>