<?xml version="1.0" encoding="UTF-8"?>
<svg width="48px" height="48px" viewBox="0 0 48 48" version="1.1" xmlns="http://www.w3.org/2000/svg" xmlns:xlink="http://www.w3.org/1999/xlink">
    <title>icon-info-banner</title>
    <g id="Page-1-Icons" stroke="none" stroke-width="1" fill="none" fill-rule="evenodd">
        <g id="PECOS-2.0-Icons-Overview-v28" transform="translate(-692.000000, -368.000000)">
            <g id="BANNER-MESSAGE-ICONS" transform="translate(684.000000, 235.000000)">
                <g id="icon-info-banner" transform="translate(8.000000, 133.000000)">
                    <rect id="Rectangle" fill="#0573BB" x="0" y="0" width="48" height="48"></rect>
                    <circle id="Oval" fill="#FFFFFF" cx="24" cy="24" r="17"></circle>
                    <path d="M25.589814,21.0277596 C25.819324,21.0277596 26.0053787,21.2138142 26.0053787,21.4433243 L26.0053787,31.033329 C26.0053787,31.5841285 26.4518899,32.0306396 27.0026894,32.0306396 L27.5844352,32.0306396 C27.8139453,32.0306396 28,32.2166943 28,32.4462044 L28,33.5844352 C28,33.8139453 27.8139453,34 27.5844352,34 L20.5633445,34 C20.3338344,34 20.1477798,33.8139453 20.1477798,33.5844352 L20.1477798,32.4462044 C20.1477798,32.2166943 20.3338344,32.0306396 20.5633445,32.0306396 L21.0719539,32.0306396 C21.5823612,32.0306396 21.9961281,31.6168728 21.9961281,31.1064655 L21.9961281,24.0258236 C21.9961281,23.474608 21.5492796,23.0277596 20.998064,23.0277596 L20.4155648,23.0277596 C20.1860547,23.0277596 20,22.8417049 20,22.6121948 L20,21.4433243 C20,21.2138142 20.1860547,21.0277596 20.4155648,21.0277596 L25.589814,21.0277596 Z M24.0099869,14.009943 C25.3906988,14.009943 26.5099869,15.1292311 26.5099869,16.509943 C26.5099869,17.8906549 25.3906988,19.009943 24.0099869,19.009943 C22.629275,19.009943 21.5099869,17.8906549 21.5099869,16.509943 C21.5099869,15.1292311 22.629275,14.009943 24.0099869,14.009943 Z" id="i" fill="#0573BB"></path>
                </g>
            </g>
        </g>
    </g>
</svg>