<?xml version="1.0" encoding="UTF-8"?>
<svg width="22px" height="22px" viewBox="0 0 22 22" version="1.1" xmlns="http://www.w3.org/2000/svg" xmlns:xlink="http://www.w3.org/1999/xlink">
    <title>icon-withdraw-white</title>
    <g id="Page-1-Icons" stroke="none" stroke-width="1" fill="none" fill-rule="evenodd">
        <g id="PECOS-2.0-Icons-Overview-v21" transform="translate(-1820.000000, -2194.000000)" fill="#FFFFFF">
            <g id="MAC-Disposition-Review-Icons" transform="translate(1798.000000, 1592.000000)">
                <g id="White-on-Blue" transform="translate(14.000000, 465.000000)">
                    <g id="icon-withdraw-white" transform="translate(8.000000, 137.000000)">
                        <path d="M11,5 C11.5522847,5 12,5.44771525 12,6 L11.999,18.259 L15.9991864,14.2592706 C16.3806092,13.8778478 16.9990178,13.8778478 17.3804407,14.2592706 C17.7618635,14.6406935 17.7618635,15.2591021 17.3804407,15.6405249 L11.7071068,21.3138588 C11.3165825,21.7043831 10.6834175,21.7043831 10.2928932,21.3138588 L4.63110397,15.6520695 C4.2433052,15.2642708 4.2433052,14.6355248 4.63110397,14.247726 C5.01890273,13.8599272 5.64764876,13.8599272 6.03544752,14.247726 L9.999,18.211 L10,6 C10,5.44771525 10.4477153,5 11,5 Z M18,1 C18.5522847,1 19,1.44771525 19,2 L19,6.01083478 C19,6.55713564 18.5571356,7 18.0108348,7 C17.4645339,7 17.0216696,6.55713564 17.0216696,6.01083478 L17.0216696,2.99428511 L5.02062481,2.99428511 L5.02062481,6 C5.02062481,6.55228475 4.57290956,7 4.02062481,7 L4,7 C3.44771525,7 3,6.55228475 3,6 L3,2 C3,1.44771525 3.44771525,1 4,1 L18,1 Z" id="icon-withdraw"></path>
                    </g>
                </g>
            </g>
        </g>
    </g>
</svg>