<?xml version="1.0" encoding="UTF-8"?>
<svg width="32px" height="32px" viewBox="0 0 32 32" version="1.1" xmlns="http://www.w3.org/2000/svg" xmlns:xlink="http://www.w3.org/1999/xlink">
    <title>icon-disp-reject-selected</title>
    <g id="Page-1-Icons" stroke="none" stroke-width="1" fill="none" fill-rule="evenodd">
        <g id="PECOS-2.0-Icons-Overview-v21" transform="translate(-1813.000000, -1681.000000)">
            <g id="MAC-Disposition-Review-Icons" transform="translate(1798.000000, 1592.000000)">
                <g id="Selected" transform="translate(14.000000, 49.000000)">
                    <g id="icon-disp-reject-selected" transform="translate(1.000000, 40.000000)">
                        <rect id="Rectangle" fill="#E00F16" x="0" y="0" width="32" height="32" rx="6"></rect>
                        <path d="M8.26715927,6.49471512 L16.0450525,14.2718219 L23.8235085,6.49471512 C24.1839924,6.13423115 24.7512235,6.10650162 25.1435147,6.41152651 L25.237722,6.49471512 C25.6282463,6.88523941 25.6282463,7.51840439 25.237722,7.90892868 L25.237722,7.90892868 L17.4590525,15.6868219 L25.237722,23.4652779 C25.6282463,23.8558022 25.6282463,24.4889671 25.237722,24.8794914 C24.8471977,25.2700157 24.2140327,25.2700157 23.8235085,24.8794914 L16.0450525,17.1008219 L8.26715927,24.8794914 C7.90667531,25.2399754 7.33944425,25.2677049 6.94715304,24.96268 L6.85294571,24.8794914 C6.46242142,24.4889671 6.46242142,23.8558022 6.85294571,23.4652779 L6.85294571,23.4652779 L14.6300525,15.6868219 L6.85294571,7.90892868 C6.46242142,7.51840439 6.46242142,6.88523941 6.85294571,6.49471512 C7.24347,6.10419082 7.87663498,6.10419082 8.26715927,6.49471512 Z" id="icon-reject-large" fill="#FFFFFF"></path>
                    </g>
                </g>
            </g>
        </g>
    </g>
</svg>