<?xml version="1.0" encoding="UTF-8"?>
<svg width="32px" height="32px" viewBox="0 0 32 32" version="1.1" xmlns="http://www.w3.org/2000/svg" xmlns:xlink="http://www.w3.org/1999/xlink">
    <title>icon-disp-withdraw-unselected</title>
    <g id="Page-1-Icons" stroke="none" stroke-width="1" fill="none" fill-rule="evenodd">
        <g id="PECOS-2.0-Icons-Overview-v21" transform="translate(-1814.000000, -2011.000000)">
            <g id="MAC-Disposition-Review-Icons" transform="translate(1798.000000, 1592.000000)">
                <g id="Unselected" transform="translate(14.000000, 259.000000)">
                    <g id="icon-disp-withdraw-unselected" transform="translate(2.000000, 160.000000)">
                        <rect id="Rectangle" fill="#8C949B" x="0" y="0" width="32" height="32" rx="6"></rect>
                        <path d="M16,10 C16.5522847,10 17,10.4477153 17,11 L16.999,23.259 L20.9991864,19.2592706 C21.3806092,18.8778478 21.9990178,18.8778478 22.3804407,19.2592706 C22.7618635,19.6406935 22.7618635,20.2591021 22.3804407,20.6405249 L16.7071068,26.3138588 C16.3165825,26.7043831 15.6834175,26.7043831 15.2928932,26.3138588 L9.63110397,20.6520695 C9.2433052,20.2642708 9.2433052,19.6355248 9.63110397,19.247726 C10.0189027,18.8599272 10.6476488,18.8599272 11.0354475,19.247726 L14.999,23.211 L15,11 C15,10.4477153 15.4477153,10 16,10 Z M23,6 C23.5522847,6 24,6.44771525 24,7 L24,11.0108348 C24,11.5571356 23.5571356,12 23.0108348,12 C22.4645339,12 22.0216696,11.5571356 22.0216696,11.0108348 L22.0216696,7.99428511 L10.0206248,7.99428511 L10.0206248,11 C10.0206248,11.5522847 9.57290956,12 9.02062481,12 L9,12 C8.44771525,12 8,11.5522847 8,11 L8,7 C8,6.44771525 8.44771525,6 9,6 L23,6 Z" id="icon-withdraw" fill="#FFFFFF"></path>
                    </g>
                </g>
            </g>
        </g>
    </g>
</svg>