<?xml version="1.0" encoding="UTF-8"?>
<svg width="22px" height="22px" viewBox="0 0 22 22" version="1.1" xmlns="http://www.w3.org/2000/svg" xmlns:xlink="http://www.w3.org/1999/xlink">
    <title>icon-return-white</title>
    <g id="Page-1-Icons" stroke="none" stroke-width="1" fill="none" fill-rule="evenodd">
        <g id="PECOS-2.0-Icons-Overview-v21" transform="translate(-1820.000000, -2130.000000)" fill="#FFFFFF">
            <g id="MAC-Disposition-Review-Icons" transform="translate(1798.000000, 1592.000000)">
                <g id="White-on-Blue" transform="translate(14.000000, 465.000000)">
                    <g id="icon-return-white" transform="translate(8.000000, 73.000000)">
                        <path d="M8.85360235,3.75988478 L8.88427628,3.79055871 C9.27480057,4.181083 9.27480057,4.81424798 8.88427628,5.20477227 L8.87428475,5.21462457 L8.87428475,5.21462457 L3.95224133,9.99999152 L21,10 C21.5522847,10 22,10.4477153 22,11 C22,11.5522847 21.5522847,12 21,12 L3.99824133,11.9999915 L8.88172824,16.8752865 C9.273215,17.264847 9.27377076,17.8980117 8.8835894,18.2888786 C8.88338269,18.2890857 8.8831759,18.2892927 8.88234863,18.2888792 L8.85890823,18.3123196 C8.46807217,18.7021328 7.83530143,18.7023616 7.44418364,18.312831 L0.81864595,11.6968665 C0.427839422,11.3066247 0.427381662,10.6734599 0.817623513,10.2826533 L0.82348039,10.2768362 L7.44473464,3.75457905 C7.83609536,3.36906972 8.46515631,3.37143874 8.85360235,3.75988478 Z" id="back-arrow-22x22"></path>
                    </g>
                </g>
            </g>
        </g>
    </g>
</svg>