<?xml version="1.0" encoding="UTF-8"?>
<svg width="22px" height="22px" viewBox="0 0 22 22" version="1.1" xmlns="http://www.w3.org/2000/svg" xmlns:xlink="http://www.w3.org/1999/xlink">
    <title>icon-approve-white</title>
    <g id="Page-1-Icons" stroke="none" stroke-width="1" fill="none" fill-rule="evenodd">
        <g id="PECOS-2.0-Icons-Overview-v21" transform="translate(-1820.000000, -2065.000000)" fill="#FFFFFF">
            <g id="MAC-Disposition-Review-Icons" transform="translate(1798.000000, 1592.000000)">
                <g id="White-on-Blue" transform="translate(14.000000, 465.000000)">
                    <g id="icon-approve-white" transform="translate(8.000000, 8.000000)">
                        <path d="M3.54918282,9.05604274 L8.00192237,14.0093222 L8.00192237,14.0093222 L18.1946134,4.34339827 C18.8042363,3.76528127 19.7637209,3.77899658 20.3565703,4.37430226 C20.9354603,4.95559062 20.9335159,5.89610093 20.3522276,6.47499084 C20.346344,6.48085014 20.3404114,6.48666 20.3344304,6.49241981 L8.80286992,17.5975177 C8.40505895,17.9806167 7.77200631,17.9686904 7.38890727,17.5708794 C7.38467759,17.5664873 7.38048817,17.5620566 7.37633955,17.5575878 L1.44498246,11.1685658 C0.873971504,10.5534955 0.890964355,9.59716394 1.48346606,9.00276785 C2.03819724,8.44626304 2.939032,8.44482523 3.49553681,8.99955642 C3.51393103,9.01789202 3.53181974,9.03672785 3.54918282,9.05604274 Z" id="new-checkmark"></path>
                    </g>
                </g>
            </g>
        </g>
    </g>
</svg>