<?xml version="1.0" encoding="UTF-8"?>
<svg width="22px" height="22px" viewBox="0 0 22 22" version="1.1" xmlns="http://www.w3.org/2000/svg" xmlns:xlink="http://www.w3.org/1999/xlink">
    <title>icon-reject-white</title>
    <g id="Page-1-Icons" stroke="none" stroke-width="1" fill="none" fill-rule="evenodd">
        <g id="PECOS-2.0-Icons-Overview-v21" transform="translate(-1820.000000, -2099.000000)" fill="#FFFFFF">
            <g id="MAC-Disposition-Review-Icons" transform="translate(1798.000000, 1592.000000)">
                <g id="White-on-Blue" transform="translate(14.000000, 465.000000)">
                    <g id="icon-reject-white" transform="translate(8.000000, 42.000000)">
                        <path d="M3.26715927,1.49471512 L11.0450525,9.2718219 L18.8235085,1.49471512 C19.1839924,1.13423115 19.7512235,1.10650162 20.1435147,1.41152651 L20.237722,1.49471512 C20.6282463,1.88523941 20.6282463,2.51840439 20.237722,2.90892868 L20.237722,2.90892868 L12.4590525,10.6868219 L20.237722,18.4652779 C20.6282463,18.8558022 20.6282463,19.4889671 20.237722,19.8794914 C19.8471977,20.2700157 19.2140327,20.2700157 18.8235085,19.8794914 L11.0450525,12.1008219 L3.26715927,19.8794914 C2.90667531,20.2399754 2.33944425,20.2677049 1.94715304,19.96268 L1.85294571,19.8794914 C1.46242142,19.4889671 1.46242142,18.8558022 1.85294571,18.4652779 L1.85294571,18.4652779 L9.63005249,10.6868219 L1.85294571,2.90892868 C1.46242142,2.51840439 1.46242142,1.88523941 1.85294571,1.49471512 C2.24347,1.10419082 2.87663498,1.10419082 3.26715927,1.49471512 Z" id="icon-reject-large"></path>
                    </g>
                </g>
            </g>
        </g>
    </g>
</svg>