<?xml version="1.0" encoding="UTF-8"?>
<svg width="20px" height="20px" viewBox="0 0 20 20" version="1.1" xmlns="http://www.w3.org/2000/svg" xmlns:xlink="http://www.w3.org/1999/xlink">
    <title>icon-open-new kb-window</title>
    <g id="Page-1-Icons" stroke="none" stroke-width="1" fill="none" fill-rule="evenodd">
        <g id="PECOS-2.0-Icons-Overview-v27" transform="translate(-2073.000000, -942.000000)" fill="#0573BB">
            <g id="KNOWLEDGE-BASE" transform="translate(2063.000000, 896.000000)">
                <path d="M13.2702164,49.5809499 C13.3896675,49.5809499 13.507465,49.6088715 13.6142077,49.6624864 L18.6615818,52.1976883 C18.880421,52.3076071 19.1386125,52.3063249 19.3563493,52.194238 L19.999,51.863 L20,56.0911369 L20,56.091 L20,63.179 L23.7260407,61.3514717 C23.8755816,61.2780889 23.9783408,61.1374351 24.0050204,60.9763642 L24.0118846,60.8943442 L24.026,56.091 L24.0331726,56.0911369 L25.561,54.538 L25.5613785,61.5346273 L25.557,61.594 L26.0548913,61.4381704 C26.2412835,61.3796899 26.3755656,61.2212415 26.4062238,61.0329776 L26.4128685,60.9506722 L26.412,53.673 L27.04599,53.0301285 L28,53.754 L28,62.0784113 C28,62.4247671 27.7677009,62.7280765 27.4333107,62.8183288 L19.264,65.022 L19.2342785,65.0344366 C19.1897175,65.0480092 19.1442165,65.0574248 19.0983519,65.0626841 L19.1871207,65.0439874 C19.0561435,65.0793384 18.9181298,65.0792887 18.7871781,65.0438434 L10.5661563,62.8186226 C10.2320293,62.728183 10,62.4249997 10,62.0788492 L10,50.9878889 C10,50.5646211 10.3431263,50.2214948 10.7663941,50.2214948 C10.8306487,50.2214948 10.8946483,50.2295753 10.9568864,50.2455462 L12.503,50.642 L12.5038223,50.347344 C12.5038223,49.9240762 12.8469487,49.5809499 13.2702164,49.5809499 Z M14.3220248,51.762087 C14.1809362,51.7616586 14.066214,51.8756862 14.0657855,52.0167748 L14.0657855,52.0167748 L14.0388312,60.8931976 C14.0382393,61.0881313 14.1486193,61.2664154 14.3233744,61.3527875 L14.3233744,61.3527875 L18,63.169 L18,53.532 L14.4334737,51.7880558 C14.4161198,51.7795695 14.3979164,51.7731067 14.3792221,51.7687507 Z M11.8887693,52.0862377 C11.74768,52.0862377 11.6333046,52.2006132 11.6333046,52.3417024 L11.6333046,52.3417024 L11.6333046,60.9511631 C11.6333046,61.1741858 11.7779617,61.3714399 11.990673,61.4384699 L11.990673,61.4384699 L12.506603,61.6014291 C12.5047592,61.5798229 12.5038223,61.5580248 12.5038223,61.5360821 L12.503,52.256 L11.961046,52.0966753 C11.949312,52.0932141 11.9373597,52.0906047 11.9252825,52.0888606 Z M30,46 L30,51.7928932 C30,52.0690356 29.7761424,52.2928932 29.5,52.2928932 C29.3673918,52.2928932 29.2402148,52.2402148 29.1464466,52.1464466 L27.229,50.229 L23.5532646,53.9010036 C23.1628446,54.2909219 22.5303807,54.2909219 22.1399607,53.9010036 L22.1385959,53.8996407 C21.7480716,53.5096182 21.7476648,52.8768601 22.1376872,52.4863358 L22.1381414,52.4858813 L25.814,48.814 L23.8535534,46.8535534 C23.6582912,46.6582912 23.6582912,46.3417088 23.8535534,46.1464466 C23.9473216,46.0526784 24.0744985,46 24.2071068,46 L30,46 Z" id="icon-open-new-kb-window"></path>
            </g>
        </g>
    </g>
</svg>