<?xml version="1.0" encoding="UTF-8"?>
<svg width="32px" height="32px" viewBox="0 0 32 32" version="1.1" xmlns="http://www.w3.org/2000/svg" xmlns:xlink="http://www.w3.org/1999/xlink">
    <title>icon-letter-32-blue</title>
    <g id="Page-1-Icons" stroke="none" stroke-width="1" fill="none" fill-rule="evenodd">
        <g id="PECOS-2.0-Icons-Overview-v28" transform="translate(-1874.000000, -1714.000000)" fill="#5CABDE">
            <g id="FILE-TYPE-ICONS-(32x32)" transform="translate(1857.000000, 1126.000000)">
                <g id="icon-letter-32-blue" transform="translate(17.000000, 588.000000)">
                    <path d="M22.6237437,0.000454689604 C22.8915741,0.000147655725 23.1483341,0.107291353 23.336504,0.297883327 L27.7116139,4.72930812 C27.896391,4.91646353 28,5.16887749 28,5.43187882 L28,31 C28,31.5522847 27.5522847,32 27,32 L4.00474548,32 C3.45246073,32 3.00474548,31.5522847 3.00474548,31 L3.00474548,1.02179969 C3.00474548,0.469962571 3.45176236,0.0224329554 4.00359911,0.021800344 L22.6237437,0.000454689604 Z M20.5046082,2 L5.09068298,2 L5.09068298,29.9738007 L26,29.9738007 L26,7.49295235 C26,7.21680997 25.7761424,6.99295235 25.5,6.99295235 L25.5,6.99295235 L21.0046082,6.99295235 L21.0046082,2.5 C21.0046082,2.22385763 20.7807505,2 20.5046082,2 L20.5046082,2 Z M23,25.00043 L23,26.00043 L8,26.00043 L8,25.00043 L23,25.00043 Z M23,23.00043 L23,24.00043 L8,24.00043 L8,23.00043 L23,23.00043 Z M23,21.00043 L23,22.00043 L8,22.00043 L8,21.00043 L23,21.00043 Z M23,19.00043 L23,20.00043 L8,20.00043 L8,19.00043 L23,19.00043 Z M23,17.00043 L23,18.00043 L8,18.00043 L8,17.00043 L23,17.00043 Z M23,15.00043 L23,16.00043 L8,16.00043 L8,15.00043 L23,15.00043 Z M23,13.00043 L23,14.00043 L8,14.00043 L8,13.00043 L23,13.00043 Z M23,11.00043 L23,12.00043 L8,12.00043 L8,11.00043 L23,11.00043 Z M23,9.00043002 L23,10.00043 L8,10.00043 L8,9.00043002 L23,9.00043002 Z M19,7.00043002 L19,8.00043002 L8,8.00043002 L8,7.00043002 L19,7.00043002 Z M23,3.00047634 L23,5.00047634 L25,5.00047634 L23,3.00047634 Z" id="icon-doc"></path>
                </g>
            </g>
        </g>
    </g>
</svg>