<?xml version="1.0" encoding="UTF-8"?>
<svg width="32px" height="32px" viewBox="0 0 32 32" version="1.1" xmlns="http://www.w3.org/2000/svg" xmlns:xlink="http://www.w3.org/1999/xlink">
    <title>icon-docx-blue</title>
    <g id="Page-1-Icons" stroke="none" stroke-width="1" fill="none" fill-rule="evenodd">
        <g id="Artboard" transform="translate(-106.000000, -374.000000)">
            <g id="FILE-TYPE-ICONS-(32x32)" transform="translate(89.000000, 75.000000)">
                <g id="icon-docx-blue" transform="translate(17.000000, 299.000000)">
                    <path d="M26.6237437,0.000454689604 C26.8915741,0.000147655725 27.1483341,0.107291353 27.336504,0.297883327 L31.7116139,4.72930812 C31.896391,4.91646353 32,5.16887749 32,5.43187882 L32,31 C32,31.5522847 31.5522847,32 31,32 L8.00474548,32 C7.45246073,32 7.00474548,31.5522847 7.00474548,31 L7.00474548,1.02179969 C7.00474548,0.469962571 7.45176236,0.0224329554 8.00359911,0.021800344 L26.6237437,0.000454689604 Z M24.5046082,2 L9.09068298,2 L9.09068298,29.9738007 L30,29.9738007 L30,7.49295235 C30,7.21680997 29.7761424,6.99295235 29.5,6.99295235 L29.5,6.99295235 L25.0046082,6.99295235 L25.0046082,2.5 C25.0046082,2.22385763 24.7807505,2 24.5046082,2 L24.5046082,2 Z M27,25.00043 L27,26.00043 L12,26.00043 L12,25.00043 L27,25.00043 Z M27,23.00043 L27,24.00043 L17,24.00043 L17,23.00043 L27,23.00043 Z M27,21.00043 L27,22.00043 L17,22.00043 L17,21.00043 L27,21.00043 Z M27,19.00043 L27,20.00043 L17,20.00043 L17,19.00043 L27,19.00043 Z M27,17.00043 L27,18.00043 L17,18.00043 L17,17.00043 L27,17.00043 Z M27,15.00043 L27,16.00043 L17,16.00043 L17,15.00043 L27,15.00043 Z M27,13.00043 L27,14.00043 L17,14.00043 L17,13.00043 L27,13.00043 Z M27,11.00043 L27,12.00043 L17,12.00043 L17,11.00043 L27,11.00043 Z M27,9.00043002 L27,10.00043 L17,10.00043 L17,9.00043002 L27,9.00043002 Z M23,7.00043002 L23,8.00043002 L12,8.00043002 L12,7.00043002 L23,7.00043002 Z M27,3.00047634 L27,5.00047634 L29,5.00047634 L27,3.00047634 Z" id="icon-doc" fill="#5CABDE"></path>
                    <rect id="Rectangle-Copy-16" fill="#0573BB" x="2.45563569e-11" y="9" width="16" height="15" rx="1"></rect>
                    <path d="M6.15136719,21 L7.56933594,15.9140625 C7.62792969,15.71875 7.70117188,15.421875 7.7890625,15.0234375 C7.87695312,14.625 7.94042969,14.3007812 7.97949219,14.0507812 C7.99902344,14.2148438 8.05566406,14.5068359 8.14941406,14.9267578 C8.24316406,15.3466797 8.32128906,15.6679688 8.38378906,15.890625 L8.38378906,15.890625 L9.83691406,21 L11.3603516,21 L13.5927734,12.4335938 L12.1748047,12.4335938 L10.9560547,17.4140625 C10.7333984,18.2773438 10.5927734,18.9882812 10.5341797,19.546875 C10.3818359,18.6210938 10.2373047,17.9257812 10.1005859,17.4609375 L10.1005859,17.4609375 L8.67089844,12.4335938 L7.28222656,12.4335938 L5.88769531,17.4375 C5.81738281,17.6914062 5.73925781,18.0234375 5.65332031,18.4335938 C5.56738281,18.84375 5.50292969,19.2148438 5.45996094,19.546875 C5.37792969,18.9335938 5.24121094,18.2265625 5.04980469,17.4257812 L5.04980469,17.4257812 L3.82519531,12.4335938 L2.39550781,12.4335938 L3.52050781,16.7109375 L4.62792969,21 L6.15136719,21 Z" id="W" fill="#FFFFFF" fill-rule="nonzero"></path>
                </g>
            </g>
        </g>
    </g>
</svg>