<?xml version="1.0" encoding="UTF-8"?>
<svg width="32px" height="32px" viewBox="0 0 32 32" version="1.1" xmlns="http://www.w3.org/2000/svg" xmlns:xlink="http://www.w3.org/1999/xlink">
    <title>icon-xlsx-blue</title>
    <g id="Page-1-Icons" stroke="none" stroke-width="1" fill="none" fill-rule="evenodd">
        <g id="PECOS-2.0-Icons-Overview-v21" transform="translate(-106.000000, -463.000000)">
            <g id="FILE-TYPE" transform="translate(89.000000, 75.000000)">
                <g id="icon-xlsx-blue" transform="translate(17.000000, 388.000000)">
                    <path d="M26.6237437,0.000454689604 C26.8915741,0.000147655725 27.1483341,0.107291353 27.336504,0.297883327 L31.7116139,4.72930812 C31.896391,4.91646353 32,5.16887749 32,5.43187882 L32,31 C32,31.5522847 31.5522847,32 31,32 L8.00474548,32 C7.45246073,32 7.00474548,31.5522847 7.00474548,31 L7.00474548,1.02179969 C7.00474548,0.469962571 7.45176236,0.0224329554 8.00359911,0.021800344 L26.6237437,0.000454689604 Z M24.5046082,2 L9.09068298,2 L9.09068298,29.9738007 L30,29.9738007 L30,7.49295235 C30,7.21680997 29.7761424,6.99295235 29.5,6.99295235 L29.5,6.99295235 L25.0046082,6.99295235 L25.0046082,2.5 C25.0046082,2.22385763 24.7807505,2 24.5046082,2 L24.5046082,2 Z M27,23.00043 L27,25.00043 L24,25.00043 L24,23.00043 L27,23.00043 Z M23,23.00043 L23,25.00043 L20,25.00043 L20,23.00043 L23,23.00043 Z M19,23.00043 L19,25.00043 L16,25.00043 L16,23.00043 L19,23.00043 Z M27,20.00043 L27,22.00043 L24,22.00043 L24,20.00043 L27,20.00043 Z M23,20.00043 L23,22.00043 L20,22.00043 L20,20.00043 L23,20.00043 Z M19,20.00043 L19,22.00043 L16,22.00043 L16,20.00043 L19,20.00043 Z M27,17.00043 L27,19.00043 L24,19.00043 L24,17.00043 L27,17.00043 Z M23,17.00043 L23,19.00043 L20,19.00043 L20,17.00043 L23,17.00043 Z M19,17.00043 L19,19.00043 L16,19.00043 L16,17.00043 L19,17.00043 Z M27,14.00043 L27,16.00043 L24,16.00043 L24,14.00043 L27,14.00043 Z M23,14.00043 L23,16.00043 L20,16.00043 L20,14.00043 L23,14.00043 Z M19,14.00043 L19,16.00043 L16,16.00043 L16,14.00043 L19,14.00043 Z M27,11.00043 L27,13.00043 L24,13.00043 L24,11.00043 L27,11.00043 Z M23,11.00043 L23,13.00043 L20,13.00043 L20,11.00043 L23,11.00043 Z M19,11.00043 L19,13.00043 L16,13.00043 L16,11.00043 L19,11.00043 Z M27,8.00043002 L27,10.00043 L24,10.00043 L24,8.00043002 L27,8.00043002 Z M23,8.00043002 L23,10.00043 L20,10.00043 L20,8.00043002 L23,8.00043002 Z M19,8.00043002 L19,10.00043 L16,10.00043 L16,8.00043002 L19,8.00043002 Z M27,3.00047634 L27,5.00047634 L29,5.00047634 L27,3.00047634 Z" id="icon-doc" fill="#5CABDE"></path>
                    <rect id="Rectangle-Copy-16" fill="#0573BB" x="2.45563569e-11" y="9" width="15" height="15" rx="1"></rect>
                    <polygon id="X" fill="#FFFFFF" fill-rule="nonzero" points="5.29101562 21 7.453125 17.4960938 9.59765625 21 11.2089844 21 8.32617188 16.5820312 11.0039062 12.4335938 9.4921875 12.4335938 7.51171875 15.6738281 5.53125 12.4335938 3.97265625 12.4335938 6.6328125 16.5585938 3.79101562 21"></polygon>
                </g>
            </g>
        </g>
    </g>
</svg>
