<?xml version="1.0" encoding="UTF-8"?>
<svg width="32px" height="32px" viewBox="0 0 32 32" version="1.1" xmlns="http://www.w3.org/2000/svg" xmlns:xlink="http://www.w3.org/1999/xlink">
    <title>icon-email-32-blue</title>
    <g id="Page-1-Icons" stroke="none" stroke-width="1" fill="none" fill-rule="evenodd">
        <g id="PECOS-2.0-Icons-Overview-v30" transform="translate(-1376.000000, -1618.000000)" fill="#0573BB">
            <g id="FILE-TYPE-ICONS-(32x32)" transform="translate(1359.000000, 938.000000)">
                <g id="icon-email-32-blue" transform="translate(17.000000, 680.000000)">
                    <path d="M29.4,5 C30.8359403,5 32,6.16405965 32,7.6 L32,24.4 C32,25.8359403 30.8359403,27 29.4,27 L2.6,27 C1.16405965,27 -2.68237235e-16,25.8359403 0,24.4 L0,7.6 C-1.75851975e-16,6.16405965 1.16405965,5 2.6,5 L29.4,5 Z M1.984,8.73 L1.98466873,23.70043 C1.98466873,24.3735271 2.49621838,24.9271453 3.15175128,24.9937183 L3.28466873,25.00043 L28.6846687,25.00043 C29.3577658,25.00043 29.911384,24.4888804 29.977957,23.8333475 L29.9846687,23.70043 L29.984,8.789 L17.6044129,18.6958161 C16.6522691,19.4576893 15.2985595,19.4554649 14.3489247,18.6904668 L1.984,8.73 Z M28.6846687,7.00043002 L3.28466873,7.00043002 L3.228,7.003 L15.5706719,16.8524385 C15.8071059,17.0411234 16.1424493,17.0417681 16.379607,16.8539936 L28.8166003,7.00704203 C28.7732172,7.00266952 28.7292045,7.00043002 28.6846687,7.00043002 Z" id="envelope"></path>
                </g>
            </g>
        </g>
    </g>
</svg>