<?xml version="1.0" encoding="UTF-8"?>
<svg width="32px" height="32px" viewBox="0 0 32 32" version="1.1" xmlns="http://www.w3.org/2000/svg" xmlns:xlink="http://www.w3.org/1999/xlink">
    <title>icon-rtf-blue</title>
    <g id="Page-1-Icons" stroke="none" stroke-width="1" fill="none" fill-rule="evenodd">
        <g id="PECOS-2.0-Icons-Overview-v21" transform="translate(-106.000000, -552.000000)">
            <g id="FILE-TYPE" transform="translate(89.000000, 75.000000)">
                <g id="icon-rtf-blue" transform="translate(17.000000, 477.000000)">
                    <path d="M26.6237437,0.000454689604 C26.8915741,0.000147655725 27.1483341,0.107291353 27.336504,0.297883327 L31.7116139,4.72930812 C31.896391,4.91646353 32,5.16887749 32,5.43187882 L32,31 C32,31.5522847 31.5522847,32 31,32 L8.00474548,32 C7.45246073,32 7.00474548,31.5522847 7.00474548,31 L7.00474548,1.02179969 C7.00474548,0.469962571 7.45176236,0.0224329554 8.00359911,0.021800344 L26.6237437,0.000454689604 Z M24.5046082,2 L9.09068298,2 L9.09068298,29.9738007 L30,29.9738007 L30,7.49295235 C30,7.21680997 29.7761424,6.99295235 29.5,6.99295235 L29.5,6.99295235 L25.0046082,6.99295235 L25.0046082,2.5 C25.0046082,2.22385763 24.7807505,2 24.5046082,2 L24.5046082,2 Z M27,3.00047634 L27,5.00047634 L29,5.00047634 L27,3.00047634 Z" id="icon-doc" fill="#5CABDE"></path>
                    <rect id="Rectangle-Copy-16" fill="#0573BB" x="2.45563569e-11" y="9" width="24" height="14" rx="1"></rect>
                    <path d="M4.26513672,20 L4.26513672,16.8632812 L5.53271484,16.8632812 L7.41259766,20 L8.87353516,20 L6.65527344,16.5249023 C7.67220052,16.1095378 8.18066406,15.4130859 8.18066406,14.4355469 C8.18066406,13.6692708 7.93717448,13.0963542 7.45019531,12.7167969 C6.96321615,12.3372396 6.21305339,12.1474609 5.19970703,12.1474609 L5.19970703,12.1474609 L2.98144531,12.1474609 L2.98144531,20 L4.26513672,20 Z M5.15673828,15.7998047 L4.26513672,15.7998047 L4.26513672,13.2324219 L5.11376953,13.2324219 C5.69742839,13.2324219 6.13427734,13.3291016 6.42431641,13.5224609 C6.71435547,13.7158203 6.859375,14.0345052 6.859375,14.4785156 C6.859375,14.9153646 6.72509766,15.2447917 6.45654297,15.4667969 C6.18798828,15.6888021 5.75472005,15.7998047 5.15673828,15.7998047 L5.15673828,15.7998047 Z M12.7246094,20 L12.7246094,13.2485352 L15.0341797,13.2485352 L15.0341797,12.1474609 L9.13134766,12.1474609 L9.13134766,13.2485352 L11.440918,13.2485352 L11.440918,20 L12.7246094,20 Z M17.5102539,20 L17.5102539,16.7773438 L20.4697266,16.7773438 L20.4697266,15.6870117 L17.5102539,15.6870117 L17.5102539,13.2324219 L20.668457,13.2324219 L20.668457,12.1474609 L16.2373047,12.1474609 L16.2373047,20 L17.5102539,20 Z" id="RTF" fill="#FFFFFF" fill-rule="nonzero"></path>
                </g>
            </g>
        </g>
    </g>
</svg>