<?xml version="1.0" encoding="UTF-8"?>
<svg width="32px" height="32px" viewBox="0 0 32 32" version="1.1" xmlns="http://www.w3.org/2000/svg" xmlns:xlink="http://www.w3.org/1999/xlink">
    <title>icon-certified-letter-blue</title>
    <g id="Page-1-Icons" stroke="none" stroke-width="1" fill="none" fill-rule="evenodd">
        <g id="PECOS-2.0-Icons-Overview-v28" transform="translate(-1874.000000, -1654.000000)">
            <g id="FILE-TYPE-ICONS-(32x32)" transform="translate(1857.000000, 1126.000000)">
                <g id="icon-certified-letter-blue" transform="translate(17.000000, 528.000000)">
                    <path d="M19.6237437,0.000454689604 C19.8915741,0.000147655725 20.1483341,0.107291353 20.336504,0.297883327 L24.7116139,4.72930812 C24.896391,4.91646353 25,5.16887749 25,5.43187882 L24.9997455,10.000454 L24.7555662,10.0042609 C24.1512428,10.0227502 23.5637865,10.108262 23.0003793,10.2536141 L23,7.49295235 C23,7.21680997 22.7761424,6.99295235 22.5,6.99295235 L22.5,6.99295235 L18.0046082,6.99295235 L18.0046082,2.5 C18.0046082,2.22385763 17.7807505,2 17.5046082,2 L17.5046082,2 L2.09068298,2 L2.09068298,29.9738007 L18.0047455,29.973454 L18.0047455,31.999454 L1.00474548,32 C0.452460734,32 0.0047454834,31.5522847 0.0047454834,31 L0.0047454834,1.02179969 C0.0047454834,0.469962571 0.451762356,0.0224329554 1.00359911,0.021800344 L19.6237437,0.000454689604 Z M18.0047455,24.999454 L18.0047455,25.999454 L5,26.00043 L5,25.00043 L18.0047455,24.999454 Z M18.0047455,22.999454 L18.0047455,23.999454 L5,24.00043 L5,23.00043 L18.0047455,22.999454 Z M18.0052339,21.8773413 L18.0047455,21.999454 L5,22.00043 L5,21.00043 L17.5862506,21.0004245 C17.7084559,21.3023264 17.8485554,21.5950703 18.0052339,21.8773413 Z M17.2566147,19.99981 L5,20.00043 L5,19.00043 L17.0666332,19.0004053 C17.1090573,19.3406366 17.1728461,19.6742332 17.2566147,19.99981 Z M17.0047455,17.9994537 L5,18.00043 L5,17.00043 L17.0667584,16.999499 C17.02587,17.327077 17.004787,17.6608074 17.0047455,17.9994537 Z M17.2568726,16.0000959 L5,16.00043 L5,15.00043 L17.5866543,14.9994863 C17.4556333,15.323041 17.3451663,15.6571173 17.2568726,16.0000959 Z M18.075674,13.9992943 L5,14.00043 L5,13.00043 L18.7598623,12.9998456 C18.5076548,13.3144015 18.2787214,13.6484216 18.075674,13.9992943 Z M20,11.00043 L20.0001593,11.7587622 C19.9030732,11.8367061 19.8078443,11.9168683 19.7145495,11.9991721 L5,12.00043 L5,11.00043 L20,11.00043 Z M20,9.00043002 L20,10.00043 L5,10.00043 L5,9.00043002 L20,9.00043002 Z M16,7.00043002 L16,8.00043002 L5,8.00043002 L5,7.00043002 L16,7.00043002 Z M20,3.00047634 L20,5.00047634 L22,5.00047634 L20,3.00047634 Z" id="icon-doc" fill="#5CABDE"></path>
                    <path d="M21.4566347,23.6252933 L21.9449588,24.4327863 L21.9728968,28.9021 L25.017368,27.0148596 L28.1489464,28.9021 L28.1213424,24.4862094 L28.6976347,23.6252933 L29.9216688,23.6259658 L29.9216688,32 L24.9707604,29.2221475 L20.0777639,32 L20.0777639,23.6259658 L21.4566347,23.6252933 Z M25.1055951,11.0432387 C25.1682823,11.0738363 25.2190199,11.124404 25.2498276,11.1869882 L25.9392438,12.5857151 C26.0050331,12.5975236 26.0704232,12.6105139 26.1353921,12.6246639 L26.1586347,12.6042933 L27.2751436,11.6069915 C27.3306519,11.5573772 27.3988932,11.531074 27.4678709,11.5274091 L27.5366497,11.5312654 C27.6047854,11.542618 27.6696587,11.5763847 27.7192729,11.631893 C27.7644414,11.6824274 27.7920782,11.7462001 27.7980672,11.8137135 L27.9066347,13.0402933 L27.9364352,13.3748829 C28.0110676,13.4230951 28.0844948,13.4730734 28.1566606,13.5247601 L29.607971,13.0379885 C29.7726449,12.9826745 29.9509803,13.0713283 30.0062943,13.2360022 C30.0274856,13.2990905 30.02812,13.3672745 30.0081063,13.4307461 L29.8056347,14.0722933 L29.5329318,14.9358572 C29.5633157,14.9804849 29.5930863,15.0255797 29.6222314,15.071129 L31.1761754,15.1766193 C31.3494994,15.1882789 31.4805542,15.3382377 31.4688946,15.5115617 C31.4645088,15.5767568 31.4399279,15.6389677 31.3985664,15.6895529 L30.3885739,16.9253282 C30.4057245,17.0038791 30.4212753,17.0830451 30.4351895,17.1627887 L31.8326833,17.8829568 C31.9871432,17.9624507 32.0479151,18.1521077 31.9684212,18.3065676 C31.9387693,18.3641826 31.8920469,18.4112338 31.8346413,18.4412891 L30.4323826,19.1762593 C30.422702,19.2308305 30.4122546,19.2851295 30.4010522,19.3391443 L31.4277414,20.5299467 C31.4713896,20.5805583 31.4977821,20.6437574 31.5030919,20.7103796 C31.5168933,20.8835461 31.3877024,21.0351136 31.2145358,21.048915 L31.2145358,21.048915 L29.6724385,21.1720453 C29.6234557,21.2514734 29.572592,21.3295729 29.5199111,21.4062788 L30.0065943,22.9035337 C30.0276313,22.9682749 30.0270973,23.0380937 30.0050724,23.1025056 C29.9488674,23.2668775 29.7700544,23.3545642 29.6056825,23.2983591 L29.6056825,23.2983591 L28.1516116,22.8019464 C28.1015861,22.8376914 28.0509561,22.8726161 27.9997403,22.9067014 L27.8997791,24.481111 C27.8954424,24.5502237 27.8684195,24.6159736 27.8229022,24.6681612 C27.7087184,24.7990779 27.5100251,24.8126426 27.3791083,24.6984588 L27.3791083,24.6984588 L26.2125098,23.6810451 C26.1219131,23.7021645 26.0304719,23.7210227 25.9382464,23.7375584 L25.2498276,25.1334858 C25.2190199,25.19607 25.1682823,25.2466378 25.1055951,25.2772354 C24.949483,25.3534336 24.7611583,25.2886506 24.6849601,25.1325385 L24.6849601,25.1325385 L24.0027518,23.7374647 C23.9433706,23.7268118 23.8843147,23.7151962 23.8256,23.702634 L22.6893277,24.7156338 C22.6383903,24.7610474 22.5740651,24.7886632 22.5060572,24.7943146 C22.3329383,24.8087007 22.1809354,24.6800223 22.1665493,24.5069033 L22.1665493,24.5069033 L22.0388237,22.9698338 C21.9543054,22.916098 21.871307,22.860108 21.7899093,22.8019464 L20.3565558,23.279786 C20.3353708,23.286872 20.313616,23.2916408 20.2916622,23.2940903 L20.2255745,23.2944785 L20.2255745,23.2944785 L20.1605174,23.2809374 C19.9951372,23.2277724 19.9041688,23.0506065 19.9573338,22.8852263 L19.9573338,22.8852263 L20.1496347,22.2852933 L20.4292227,21.4173356 C20.388791,21.3587622 20.3494208,21.2993716 20.3111406,21.2391927 L18.8224278,21.1365757 C18.7567692,21.1320744 18.6941764,21.1070912 18.6434637,21.0651444 C18.5096052,20.9544238 18.4908482,20.7561533 18.6015688,20.6222948 L18.6015688,20.6222948 L19.5659245,19.4557573 C19.5412456,19.3481048 19.5195782,19.2392707 19.5010176,19.1293523 L18.1669491,18.4397285 C18.1089449,18.409783 18.0616945,18.3625326 18.031749,18.3045283 C17.9520591,18.1501695 18.0125903,17.9604355 18.1669491,17.8807456 L18.1669491,17.8807456 L19.5015246,17.1907442 C19.5128407,17.1239442 19.5253043,17.057545 19.5388941,16.9915687 L18.5158267,15.8121304 C18.4019303,15.6809636 18.4159306,15.4823005 18.5470974,15.3684041 C18.5975549,15.3245902 18.6606551,15.2979849 18.7272503,15.2924452 L20.261039,15.1641315 C20.3123219,15.0804685 20.3656879,14.9982702 20.4210628,14.9176123 L19.9312985,13.4237569 C19.8770627,13.2587247 19.9668809,13.0809729 20.1319131,13.0267371 C20.1965726,13.0054876 20.2663804,13.0057845 20.3308568,13.0275834 L21.7899093,13.5211481 C21.8412421,13.4844691 21.8932114,13.4486536 21.9457971,13.4137226 L22.0386482,11.8567247 C22.0489499,11.6833147 22.1978777,11.5510894 22.3712876,11.5613912 C22.4404062,11.5654973 22.5062385,11.5922954 22.5585745,11.6376294 L23.7209105,12.6439444 C23.8136571,12.6221737 23.9072917,12.6027736 24.0017497,12.5858098 L24.6849601,11.1879355 C24.7611583,11.0318235 24.949483,10.9670405 25.1055951,11.0432387 Z M24.9707604,13.7566761 C22.586509,13.7566761 20.6536914,15.7282175 20.6536914,18.160237 C20.6536914,20.5922566 22.586509,22.563798 24.9707604,22.563798 C27.3550118,22.563798 29.2878294,20.5922566 29.2878294,18.160237 C29.2878294,15.7282175 27.3550118,13.7566761 24.9707604,13.7566761 Z" id="Combined-Shape-Copy-9" fill="#0573BB"></path>
                </g>
            </g>
        </g>
    </g>
</svg>