<?xml version="1.0" encoding="UTF-8"?>
<svg width="32px" height="32px" viewBox="0 0 32 32" version="1.1" xmlns="http://www.w3.org/2000/svg" xmlns:xlink="http://www.w3.org/1999/xlink">
    <title>icon-json-blue</title>
    <g id="Page-1-Icons" stroke="none" stroke-width="1" fill="none" fill-rule="evenodd">
        <g id="Artboard" transform="translate(-106.000000, -508.000000)">
            <g id="FILE-TYPE-ICONS-(32x32)" transform="translate(89.000000, 75.000000)">
                <g id="icon-json-blue" transform="translate(17.000000, 433.000000)">
                    <path d="M26.6237437,0.000454689604 C26.8915741,0.000147655725 27.1483341,0.107291353 27.336504,0.297883327 L31.7116139,4.72930812 C31.896391,4.91646353 32,5.16887749 32,5.43187882 L32,31 C32,31.5522847 31.5522847,32 31,32 L8.00474548,32 C7.45246073,32 7.00474548,31.5522847 7.00474548,31 L7.00474548,1.02179969 C7.00474548,0.469962571 7.45176236,0.0224329554 8.00359911,0.021800344 L26.6237437,0.000454689604 Z M24.5046082,2 L9.09068298,2 L9.09068298,29.9738007 L30,29.9738007 L30,7.49295235 C30,7.21680997 29.7761424,6.99295235 29.5,6.99295235 L29.5,6.99295235 L25.0046082,6.99295235 L25.0046082,2.5 C25.0046082,2.22385763 24.7807505,2 24.5046082,2 L24.5046082,2 Z M27,3.00047634 L27,5.00047634 L29,5.00047634 L27,3.00047634 Z" id="icon-doc" fill="#5CABDE"></path>
                    <rect id="Rectangle-Copy-16" fill="#0573BB" x="2.45563569e-11" y="9" width="32" height="14" rx="1"></rect>
                    <path d="M5.1319987,20.1074219 C5.62613932,20.1074219 6.06746419,20.009847 6.45597331,19.8146973 C6.84448242,19.6195475 7.14794922,19.3366699 7.3663737,18.9660645 C7.58479818,18.595459 7.69401042,18.1577148 7.69401042,17.652832 L7.69401042,17.652832 L7.69401042,12.1796875 L6.30826823,12.1796875 L6.30826823,17.652832 C6.30826823,18.0753581 6.20084635,18.40389 5.9860026,18.6384277 C5.77115885,18.8729655 5.48649089,18.9902344 5.1319987,18.9902344 C4.76676432,18.9902344 4.48030599,18.8917643 4.2726237,18.6948242 C4.06494141,18.4978841 3.96110026,18.1845703 3.96110026,17.7548828 L3.96110026,17.7548828 L2.56998698,17.7548828 C2.56998698,18.2740885 2.67830404,18.7100423 2.89493815,19.0627441 C3.11157227,19.415446 3.41145833,19.6777344 3.79459635,19.8496094 C4.17773437,20.0214844 4.62353516,20.1074219 5.1319987,20.1074219 Z M11.4519857,20.1074219 C12.0141602,20.1074219 12.5056152,20.0205892 12.9263509,19.8469238 C13.3470866,19.6732585 13.6720378,19.425293 13.9012044,19.1030273 C14.1303711,18.7807617 14.2449544,18.4012044 14.2449544,17.9643555 C14.2449544,17.5525716 14.1518555,17.1927083 13.9656576,16.8847656 C13.7794596,16.5768229 13.4974772,16.3100586 13.1197103,16.0844727 C12.7419434,15.8588867 12.2558594,15.6583659 11.6614583,15.4829102 C11.0921224,15.3181966 10.6749674,15.1391602 10.4099935,14.9458008 C10.1450195,14.7524414 10.0125326,14.5161133 10.0125326,14.2368164 C10.0125326,13.9217122 10.1298014,13.6665853 10.3643392,13.4714355 C10.598877,13.2762858 10.9417318,13.1787109 11.3929036,13.1787109 C11.8727214,13.1787109 12.2352702,13.2950846 12.4805501,13.527832 C12.7258301,13.7605794 12.8484701,14.0721029 12.8484701,14.4624023 L12.8484701,14.4624023 L14.2342122,14.4624023 C14.2342122,14.0219727 14.1196289,13.6200358 13.8904622,13.2565918 C13.6612956,12.8931478 13.3327637,12.6048991 12.9048665,12.3918457 C12.4769694,12.1787923 11.9783529,12.0722656 11.4090169,12.0722656 C10.8647461,12.0722656 10.3813477,12.1644694 9.95882161,12.348877 C9.53629557,12.5332845 9.20776367,12.7902018 8.97322591,13.1196289 C8.73868815,13.449056 8.62141927,13.8232422 8.62141927,14.2421875 C8.62141927,14.8401693 8.84521484,15.3253581 9.29280599,15.6977539 C9.74039714,16.0701497 10.3759766,16.3834635 11.1995443,16.6376953 C11.6507161,16.773763 11.993571,16.9044596 12.2281087,17.0297852 C12.4626465,17.1551107 12.6246745,17.2902832 12.7141927,17.4353027 C12.8037109,17.5803223 12.8484701,17.7602539 12.8484701,17.9750977 C12.8484701,18.2902018 12.7285156,18.5408529 12.4886068,18.7270508 C12.2486979,18.9132487 11.9031576,19.0063477 11.4519857,19.0063477 C10.9435221,19.0063477 10.5362142,18.8926595 10.2300618,18.6652832 C9.92390951,18.4379069 9.77083333,18.089681 9.77083333,17.6206055 L9.77083333,17.6206055 L8.37972005,17.6206055 C8.37972005,18.1505534 8.52563477,18.6035156 8.81746419,18.9794922 C9.10929362,19.3554688 9.49064128,19.6374512 9.96150716,19.8254395 C10.432373,20.0134277 10.9291992,20.1074219 11.4519857,20.1074219 Z M17.9868164,20.1074219 C18.6313477,20.1074219 19.1988932,19.9534505 19.6894531,19.6455078 C20.180013,19.3375651 20.5604655,18.8962402 20.8308105,18.3215332 C21.1011556,17.7468262 21.2363281,17.0691732 21.2363281,16.2885742 L21.2363281,16.2885742 L21.2363281,15.8964844 C21.2363281,15.1158854 21.1002604,14.4373372 20.828125,13.8608398 C20.5559896,13.2843424 20.1737467,12.8421224 19.6813965,12.5341797 C19.1890462,12.226237 18.6206055,12.0722656 17.9760742,12.0722656 C17.3387044,12.0722656 16.7738444,12.2271322 16.2814941,12.5368652 C15.7891439,12.8465983 15.4060059,13.2897135 15.1320801,13.8662109 C14.8581543,14.4427083 14.7211914,15.1194661 14.7211914,15.8964844 L14.7211914,15.8964844 L14.7211914,16.2885742 C14.7211914,17.0655924 14.8590495,17.7423503 15.1347656,18.3188477 C15.4104818,18.8953451 15.7954102,19.3375651 16.2895508,19.6455078 C16.7836914,19.9534505 17.3494466,20.1074219 17.9868164,20.1074219 Z M17.9868164,18.9633789 C17.6036784,18.9633789 17.2715658,18.8604329 16.9904785,18.654541 C16.7093913,18.4486491 16.4936523,18.1451823 16.3432617,17.7441406 C16.1928711,17.343099 16.1176758,16.8579102 16.1176758,16.2885742 L16.1176758,16.2885742 L16.1176758,15.8857422 C16.1176758,15.3164062 16.1919759,14.8321126 16.3405762,14.4328613 C16.4891764,14.03361 16.703125,13.7319336 16.9824219,13.527832 C17.2617188,13.3237305 17.5929362,13.2216797 17.9760742,13.2216797 C18.5704753,13.2216797 19.0297038,13.4499512 19.3537598,13.9064941 C19.6778158,14.3630371 19.8398438,15.0227865 19.8398438,15.8857422 L19.8398438,15.8857422 L19.8398438,16.2885742 C19.8398438,17.1551107 19.6796061,17.8175456 19.3591309,18.2758789 C19.0386556,18.7342122 18.5812174,18.9633789 17.9868164,18.9633789 Z M23.4957682,20 L23.4957682,14.5 L26.9386393,20 L28.3297526,20 L28.3297526,12.1796875 L26.9493815,12.1796875 L26.9493815,17.6904297 L23.4957682,12.1796875 L22.1046549,12.1796875 L22.1046549,20 L23.4957682,20 Z" id="JSON" fill="#FFFFFF" fill-rule="nonzero"></path>
                </g>
            </g>
        </g>
    </g>
</svg>