<?xml version="1.0" encoding="UTF-8"?>
<svg width="32px" height="33px" viewBox="0 0 32 33" version="1.1" xmlns="http://www.w3.org/2000/svg" xmlns:xlink="http://www.w3.org/1999/xlink">
    <title>icon-letter-email-32-blue</title>
    <g id="Page-1-Icons" stroke="none" stroke-width="1" fill="none" fill-rule="evenodd">
        <g id="PECOS-2.0-Icons-Overview-v30" transform="translate(-1376.000000, -1566.000000)">
            <g id="FILE-TYPE-ICONS-(32x32)" transform="translate(1359.000000, 938.000000)">
                <g id="icon-letter-email-32-blue" transform="translate(17.000000, 628.000000)">
                    <path d="M16.6070692,0.0390758514 C16.8723531,0.0390758514 17.1267659,0.144486049 17.3143134,0.33210649 L20.6981862,3.71729464 C20.8856385,3.90481983 20.990942,4.15911484 20.990942,4.424264 L20.9904635,11.9990759 L19.0214635,11.9990759 L19.021501,5.50244141 C19.021501,5.25698152 18.8446259,5.05283304 18.6113767,5.01049708 L18.521501,5.00244141 L16,5.00244141 L16,2.53101349 C15.99987,2.25492188 15.7760916,2.03108529 15.5,2.03088349 L15.5,2.03088349 L1.84155273,2.02733231 L1.84155273,25.0285511 L3.99946348,25.0280759 L3.99946348,26.9960759 L1.0894165,26.9963074 C0.576580665,26.996351 0.153909343,26.6103139 0.0961442353,26.1129755 L0.089463485,25.9963074 L0.089463485,25.9963074 L0.0906360023,1.03907585 C0.0907089306,0.48680945 0.538416581,0.0391228336 1.09068298,0.0390758514 L16.6070692,0.0390758514 Z M17,11.00043 L16.9994635,11.9990759 L4,12 L4,11.00043 L17,11.00043 Z M17,9.00043002 L17,10.00043 L4,10.00043 L4,9.00043002 L17,9.00043002 Z M17,7.00043002 L17,8.00043002 L4,8.00043002 L4,7.00043002 L17,7.00043002 Z M13,5.00043002 L13,6.00043002 L4,6.00043002 L4,5.00043002 L13,5.00043002 Z" id="icon-doc" fill="#5CABDE"></path>
                    <path d="M29.4,13 C30.8359403,13 32,14.1640597 32,15.6 L32,29.4239906 C32,30.859931 30.8359403,32.0239906 29.4,32.0239906 L6.6,32.0239906 C5.16405965,32.0239906 4,30.859931 4,29.4239906 L4,15.6 C4,14.1640597 5.16405965,13 6.6,13 L29.4,13 Z M5.984,16.854 L5.98466873,28.7331306 C5.98466873,29.4062277 6.49621838,29.9598459 7.15175128,30.0264189 L7.28466873,30.0331306 L28.6846687,30.0331306 C29.3577658,30.0331306 29.911384,29.521581 29.977957,28.8660481 L29.9846687,28.7331306 L29.984,17.101 L19.740114,25.2482436 C18.7915207,26.0025805 17.4475615,26.001468 16.5002184,25.2455617 L5.984,16.854 Z M28.6846687,15.00043 L7.28466873,15.00043 L7.162,15.006 L17.7689488,23.4755901 C18.0069874,23.6656617 18.3450936,23.6649311 18.5823086,23.4738325 L29.0398193,15.0495363 C28.9269342,15.0175488 28.8078006,15.00043 28.6846687,15.00043 Z" id="envelope" fill="#0573BB"></path>
                </g>
            </g>
        </g>
    </g>
</svg>