<?xml version="1.0" encoding="UTF-8"?>
<svg width="32px" height="32px" viewBox="0 0 32 32" version="1.1" xmlns="http://www.w3.org/2000/svg" xmlns:xlink="http://www.w3.org/1999/xlink">
    <title>icon-png-blue</title>
    <g id="Page-1-Icons" stroke="none" stroke-width="1" fill="none" fill-rule="evenodd">
        <g id="PECOS-2.0-Icons-Overview-v21" transform="translate(-106.000000, -199.000000)">
            <g id="FILE-TYPE" transform="translate(89.000000, 75.000000)">
                <g id="icon-png-blue" transform="translate(17.000000, 124.000000)">
                    <path d="M26.6237437,0.000454689604 C26.8915741,0.000147655725 27.1483341,0.107291353 27.336504,0.297883327 L31.7116139,4.72930812 C31.896391,4.91646353 32,5.16887749 32,5.43187882 L32,31 C32,31.5522847 31.5522847,32 31,32 L8.00474548,32 C7.45246073,32 7.00474548,31.5522847 7.00474548,31 L7.00474548,1.02179969 C7.00474548,0.469962571 7.45176236,0.0224329554 8.00359911,0.021800344 L26.6237437,0.000454689604 Z M24.5046082,2 L9.09068298,2 L9.09068298,29.9738007 L30,29.9738007 L30,7.49295235 C30,7.21680997 29.7761424,6.99295235 29.5,6.99295235 L29.5,6.99295235 L25.0046082,6.99295235 L25.0046082,2.5 C25.0046082,2.22385763 24.7807505,2 24.5046082,2 L24.5046082,2 Z M27,3.00047634 L27,5.00047634 L29,5.00047634 L27,3.00047634 Z" id="icon-doc" fill="#5CABDE"></path>
                    <rect id="Rectangle-Copy-16" fill="#0573BB" x="2.45563569e-11" y="9" width="27" height="14" rx="1"></rect>
                    <path d="M4.82299805,20 L4.82299805,17.0620117 L5.6394043,17.0620117 C6.63126628,17.0620117 7.39575195,16.8435872 7.93286133,16.4067383 C8.4699707,15.9698893 8.73852539,15.3414714 8.73852539,14.5214844 C8.73852539,13.7408854 8.49414062,13.1500651 8.00537109,12.7490234 C7.51660156,12.3479818 6.7816569,12.1474609 5.80053711,12.1474609 L5.80053711,12.1474609 L3.53930664,12.1474609 L3.53930664,20 L4.82299805,20 Z M5.50512695,15.9824219 L4.82299805,15.9824219 L4.82299805,13.2216797 L5.71459961,13.2216797 C6.29825846,13.2216797 6.72794596,13.3326823 7.00366211,13.5546875 C7.27937826,13.7766927 7.41723633,14.1132812 7.41723633,14.5644531 C7.41723633,15.0514323 7.26326497,15.4095052 6.95532227,15.6386719 C6.64737956,15.8678385 6.16398112,15.9824219 5.50512695,15.9824219 L5.50512695,15.9824219 Z M11.0140788,20 L11.0140788,15.9179688 C11.0140788,15.3665365 10.9890137,14.7578125 10.9388835,14.0917969 L10.9388835,14.0917969 L10.912028,13.7426758 L10.9549967,13.7426758 L14.8168132,20 L16.3905436,20 L16.3905436,12.1474609 L15.2142741,12.1474609 L15.2142741,16.2617188 C15.2142741,16.5517578 15.2250163,16.955485 15.2465007,17.4729004 C15.267985,17.9903158 15.2823079,18.2902018 15.2894694,18.3725586 L15.2894694,18.3725586 L15.2572428,18.3725586 L11.4061686,12.1474609 L9.84855143,12.1474609 L9.84855143,20 L11.0140788,20 Z M21.3355306,20.1074219 C21.8404134,20.1074219 22.3103841,20.0751953 22.7454427,20.0107422 C23.1805013,19.9462891 23.6343587,19.8370768 24.107015,19.6831055 L24.107015,19.6831055 L24.107015,15.7407227 L21.2173665,15.7407227 L21.2173665,16.8417969 L22.8448079,16.8417969 L22.8448079,18.8666992 C22.3721517,18.9705404 21.9281413,19.0224609 21.5127767,19.0224609 C20.689209,19.0224609 20.0581055,18.7727051 19.6194661,18.2731934 C19.1808268,17.7736816 18.9615072,17.0441081 18.9615072,16.0844727 C18.9615072,15.1713867 19.2049967,14.4516602 19.6919759,13.925293 C20.1789551,13.3989258 20.84139,13.1357422 21.6792806,13.1357422 C22.3166504,13.1357422 22.9540202,13.2825521 23.59139,13.5761719 L23.59139,13.5761719 L24.0425618,12.5073242 C23.3085124,12.1922201 22.5314941,12.034668 21.7115072,12.034668 C20.4367676,12.034668 19.4359538,12.3918457 18.7090658,13.1062012 C17.9821777,13.8205566 17.6187337,14.8097331 17.6187337,16.0737305 C17.6187337,17.3556315 17.9409993,18.3483887 18.5855306,19.052002 C19.2300618,19.7556152 20.1467285,20.1074219 21.3355306,20.1074219 Z" id="PNG" fill="#FFFFFF" fill-rule="nonzero"></path>
                </g>
            </g>
        </g>
    </g>
</svg>