<?xml version="1.0" encoding="UTF-8"?>
<svg width="32px" height="32px" viewBox="0 0 32 32" version="1.1" xmlns="http://www.w3.org/2000/svg" xmlns:xlink="http://www.w3.org/1999/xlink">
    <title>icon-pdf-blue</title>
    <g id="Page-1-Icons" stroke="none" stroke-width="1" fill="none" fill-rule="evenodd">
        <g id="PECOS-2.0-Icons-Overview-v21" transform="translate(-106.000000, -114.000000)">
            <g id="FILE-TYPE" transform="translate(89.000000, 75.000000)">
                <g id="icon-pdf-blue" transform="translate(17.000000, 39.000000)">
                    <path d="M26.6237437,0.000454689604 C26.8915741,0.000147655725 27.1483341,0.107291353 27.336504,0.297883327 L31.7116139,4.72930812 C31.896391,4.91646353 32,5.16887749 32,5.43187882 L32,31 C32,31.5522847 31.5522847,32 31,32 L8.00474548,32 C7.45246073,32 7.00474548,31.5522847 7.00474548,31 L7.00474548,1.02179969 C7.00474548,0.469962571 7.45176236,0.0224329554 8.00359911,0.021800344 L26.6237437,0.000454689604 Z M24.5046082,2 L9.09068298,2 L9.09068298,29.9738007 L30,29.9738007 L30,7.49295235 C30,7.21680997 29.7761424,6.99295235 29.5,6.99295235 L29.5,6.99295235 L25.0046082,6.99295235 L25.0046082,2.5 C25.0046082,2.22385763 24.7807505,2 24.5046082,2 L24.5046082,2 Z M27,3.00047634 L27,5.00047634 L29,5.00047634 L27,3.00047634 Z" id="icon-doc" fill="#5CABDE"></path>
                    <rect id="Rectangle-Copy-16" fill="#0573BB" x="2.45563569e-11" y="9" width="25" height="14"></rect>
                    <path d="M5.02290039,20 L5.02290039,17.0620117 L5.83930664,17.0620117 C6.83116862,17.0620117 7.5956543,16.8435872 8.13276367,16.4067383 C8.66987305,15.9698893 8.93842773,15.3414714 8.93842773,14.5214844 C8.93842773,13.7408854 8.69404297,13.1500651 8.20527344,12.7490234 C7.71650391,12.3479818 6.98155924,12.1474609 6.00043945,12.1474609 L6.00043945,12.1474609 L3.73920898,12.1474609 L3.73920898,20 L5.02290039,20 Z M5.7050293,15.9824219 L5.02290039,15.9824219 L5.02290039,13.2216797 L5.91450195,13.2216797 C6.49816081,13.2216797 6.92784831,13.3326823 7.20356445,13.5546875 C7.4792806,13.7766927 7.61713867,14.1132812 7.61713867,14.5644531 C7.61713867,15.0514323 7.46316732,15.4095052 7.15522461,15.6386719 C6.8472819,15.8678385 6.36388346,15.9824219 5.7050293,15.9824219 L5.7050293,15.9824219 Z M12.3368978,20 C13.6904134,20 14.7270345,19.6571452 15.4467611,18.9714355 C16.1664876,18.2857259 16.5263509,17.2947591 16.5263509,15.9985352 C16.5263509,14.7775065 16.1790202,13.8304036 15.4843587,13.1572266 C14.7896973,12.4840495 13.8175293,12.1474609 12.5678548,12.1474609 L12.5678548,12.1474609 L10.1401204,12.1474609 L10.1401204,20 L12.3368978,20 Z M12.3368978,18.9204102 L11.4238118,18.9204102 L11.4238118,13.2216797 L12.5356283,13.2216797 C14.2937663,13.2216797 15.1728353,14.1616211 15.1728353,16.0415039 C15.1728353,17.9607747 14.2275228,18.9204102 12.3368978,18.9204102 L12.3368978,18.9204102 Z M19.1191569,20 L19.1191569,16.7773438 L22.0786296,16.7773438 L22.0786296,15.6870117 L19.1191569,15.6870117 L19.1191569,13.2324219 L22.27736,13.2324219 L22.27736,12.1474609 L17.8462077,12.1474609 L17.8462077,20 L19.1191569,20 Z" id="PDF" fill="#FFFFFF" fill-rule="nonzero"></path>
                </g>
            </g>
        </g>
    </g>
</svg>