<?xml version="1.0" encoding="UTF-8"?>
<svg width="32px" height="32px" viewBox="0 0 32 32" version="1.1" xmlns="http://www.w3.org/2000/svg" xmlns:xlink="http://www.w3.org/1999/xlink">
    <title>icon-jpg-blue</title>
    <g id="Page-1-Icons" stroke="none" stroke-width="1" fill="none" fill-rule="evenodd">
        <g id="PECOS-2.0-Icons-Overview-v21" transform="translate(-106.000000, -244.000000)">
            <g id="FILE-TYPE" transform="translate(89.000000, 75.000000)">
                <g id="icon-jpg-blue" transform="translate(17.000000, 169.000000)">
                    <path d="M26.6237437,0.000454689604 C26.8915741,0.000147655725 27.1483341,0.107291353 27.336504,0.297883327 L31.7116139,4.72930812 C31.896391,4.91646353 32,5.16887749 32,5.43187882 L32,31 C32,31.5522847 31.5522847,32 31,32 L8.00474548,32 C7.45246073,32 7.00474548,31.5522847 7.00474548,31 L7.00474548,1.02179969 C7.00474548,0.469962571 7.45176236,0.0224329554 8.00359911,0.021800344 L26.6237437,0.000454689604 Z M24.5046082,2 L9.09068298,2 L9.09068298,29.9738007 L30,29.9738007 L30,7.49295235 C30,7.21680997 29.7761424,6.99295235 29.5,6.99295235 L29.5,6.99295235 L25.0046082,6.99295235 L25.0046082,2.5 C25.0046082,2.22385763 24.7807505,2 24.5046082,2 L24.5046082,2 Z M27,3.00047634 L27,5.00047634 L29,5.00047634 L27,3.00047634 Z" id="icon-doc" fill="#5CABDE"></path>
                    <rect id="Rectangle-Copy-16" fill="#0573BB" x="2.45563569e-11" y="9" width="26" height="14" rx="1"></rect>
                    <path d="M5.48046875,20.1074219 C5.97460938,20.1074219 6.41593424,20.009847 6.80444336,19.8146973 C7.19295247,19.6195475 7.49641927,19.3366699 7.71484375,18.9660645 C7.93326823,18.595459 8.04248047,18.1577148 8.04248047,17.652832 L8.04248047,17.652832 L8.04248047,12.1796875 L6.65673828,12.1796875 L6.65673828,17.652832 C6.65673828,18.0753581 6.54931641,18.40389 6.33447266,18.6384277 C6.11962891,18.8729655 5.83496094,18.9902344 5.48046875,18.9902344 C5.11523438,18.9902344 4.82877604,18.8917643 4.62109375,18.6948242 C4.41341146,18.4978841 4.30957031,18.1845703 4.30957031,17.7548828 L4.30957031,17.7548828 L2.91845703,17.7548828 C2.91845703,18.2740885 3.02677409,18.7100423 3.2434082,19.0627441 C3.46004232,19.415446 3.75992839,19.6777344 4.14306641,19.8496094 C4.52620443,20.0214844 4.97200521,20.1074219 5.48046875,20.1074219 Z M10.9643555,20 L10.9643555,17.1103516 L12.5756836,17.1103516 C13.1772461,17.1103516 13.6919759,17.0136719 14.119873,16.8203125 C14.5477702,16.6269531 14.8736165,16.3476562 15.0974121,15.9824219 C15.3212077,15.6171875 15.4331055,15.1821289 15.4331055,14.6772461 C15.4331055,14.1938477 15.3203125,13.763265 15.0947266,13.385498 C14.8691406,13.0077311 14.5406087,12.712321 14.1091309,12.4992676 C13.677653,12.2862142 13.1665039,12.1796875 12.5756836,12.1796875 L12.5756836,12.1796875 L9.57324219,12.1796875 L9.57324219,20 L10.9643555,20 Z M12.5756836,15.9931641 L10.9643555,15.9931641 L10.9643555,13.3022461 L12.5756836,13.3022461 C12.9051107,13.3022461 13.1790365,13.365804 13.3974609,13.4929199 C13.6158854,13.6200358 13.7770182,13.7883301 13.8808594,13.9978027 C13.9847005,14.2072754 14.0366211,14.4373372 14.0366211,14.6879883 C14.0366211,15.0926107 13.9175618,15.4112956 13.6794434,15.644043 C13.4413249,15.8767904 13.0734049,15.9931641 12.5756836,15.9931641 L12.5756836,15.9931641 Z M19.7407227,20.1074219 C20.5141602,20.1074219 21.1327311,19.9946289 21.5964355,19.769043 C22.06014,19.543457 22.4065755,19.2820638 22.6357422,18.9848633 L22.6357422,18.9848633 L22.6357422,15.9716797 L19.6547852,15.9716797 L19.6547852,17.0244141 L21.2446289,17.0244141 L21.2446289,18.5336914 C21.1228841,18.6625977 20.9519043,18.7709147 20.7316895,18.8586426 C20.5114746,18.9463704 20.1972656,18.9902344 19.7890625,18.9902344 C19.3736979,18.9902344 19.0165202,18.8881836 18.7175293,18.684082 C18.4185384,18.4799805 18.1902669,18.1800944 18.0327148,17.7844238 C17.8751628,17.3887533 17.7963867,16.9098307 17.7963867,16.3476562 L17.7963867,16.3476562 L17.7963867,15.8266602 C17.7963867,14.9744466 17.9512533,14.3218587 18.2609863,13.8688965 C18.5707194,13.4159342 19.0335286,13.1894531 19.6494141,13.1894531 C20.5804036,13.1894531 21.1193034,13.6531576 21.2661133,14.5805664 L21.2661133,14.5805664 L22.6303711,14.5805664 C22.5301107,13.8071289 22.2338053,13.1957194 21.7414551,12.7463379 C21.2491048,12.2969564 20.542806,12.0722656 19.6225586,12.0722656 C18.9529622,12.0722656 18.3764648,12.2199707 17.8930664,12.5153809 C17.409668,12.810791 17.0390625,13.2404785 16.78125,13.8044434 C16.5234375,14.3684082 16.3945312,15.0460612 16.3945312,15.8374023 L16.3945312,15.8374023 L16.3945312,16.3476562 C16.3945312,17.1282552 16.5350749,17.8014323 16.8161621,18.3671875 C17.0972493,18.9329427 17.4893392,19.3644206 17.9924316,19.6616211 C18.4955241,19.9588216 19.0782878,20.1074219 19.7407227,20.1074219 Z" id="JPG" fill="#FFFFFF" fill-rule="nonzero"></path>
                </g>
            </g>
        </g>
    </g>
</svg>