<?xml version="1.0" encoding="UTF-8"?>
<svg width="32px" height="32px" viewBox="0 0 32 32" version="1.1" xmlns="http://www.w3.org/2000/svg" xmlns:xlink="http://www.w3.org/1999/xlink">
    <title>icon-csv-blue</title>
    <g id="Page-1-Icons" stroke="none" stroke-width="1" fill="none" fill-rule="evenodd">
        <g id="PECOS-2.0-Icons-Overview-v21" transform="translate(-106.000000, -286.000000)">
            <g id="FILE-TYPE" transform="translate(89.000000, 75.000000)">
                <g id="icon-csv-blue" transform="translate(17.000000, 211.000000)">
                    <path d="M26.6237437,0.000454689604 C26.8915741,0.000147655725 27.1483341,0.107291353 27.336504,0.297883327 L31.7116139,4.72930812 C31.896391,4.91646353 32,5.16887749 32,5.43187882 L32,31 C32,31.5522847 31.5522847,32 31,32 L8.00474548,32 C7.45246073,32 7.00474548,31.5522847 7.00474548,31 L7.00474548,1.02179969 C7.00474548,0.469962571 7.45176236,0.0224329554 8.00359911,0.021800344 L26.6237437,0.000454689604 Z M24.5046082,2 L9.09068298,2 L9.09068298,29.9738007 L30,29.9738007 L30,7.49295235 C30,7.21680997 29.7761424,6.99295235 29.5,6.99295235 L29.5,6.99295235 L25.0046082,6.99295235 L25.0046082,2.5 C25.0046082,2.22385763 24.7807505,2 24.5046082,2 L24.5046082,2 Z M27,24.00043 L27,26.00043 L24,26.00043 L24,24.00043 L27,24.00043 Z M23,24.00043 L23,26.00043 L20,26.00043 L20,24.00043 L23,24.00043 Z M19,24.00043 L19,26.00043 L16,26.00043 L16,24.00043 L19,24.00043 Z M15,24.00043 L15,26.00043 L12,26.00043 L12,24.00043 L15,24.00043 Z M27,21.00043 L27,23.00043 L24,23.00043 L24,21.00043 L27,21.00043 Z M23,21.00043 L23,23.00043 L20,23.00043 L20,21.00043 L23,21.00043 Z M19,21.00043 L19,23.00043 L16,23.00043 L16,21.00043 L19,21.00043 Z M15,21.00043 L15,23.00043 L12,23.00043 L12,21.00043 L15,21.00043 Z M27,18.00043 L27,20.00043 L24,20.00043 L24,18.00043 L27,18.00043 Z M23,18.00043 L23,20.00043 L20,20.00043 L20,18.00043 L23,18.00043 Z M19,18.00043 L19,20.00043 L16,20.00043 L16,18.00043 L19,18.00043 Z M15,18.00043 L15,20.00043 L12,20.00043 L12,18.00043 L15,18.00043 Z M27,15.00043 L27,17.00043 L24,17.00043 L24,15.00043 L27,15.00043 Z M23,15.00043 L23,17.00043 L20,17.00043 L20,15.00043 L23,15.00043 Z M19,15.00043 L19,17.00043 L16,17.00043 L16,15.00043 L19,15.00043 Z M15,15.00043 L15,17.00043 L12,17.00043 L12,15.00043 L15,15.00043 Z M27,12.00043 L27,14.00043 L24,14.00043 L24,12.00043 L27,12.00043 Z M23,12.00043 L23,14.00043 L20,14.00043 L20,12.00043 L23,12.00043 Z M19,12.00043 L19,14.00043 L16,14.00043 L16,12.00043 L19,12.00043 Z M15,12.00043 L15,14.00043 L12,14.00043 L12,12.00043 L15,12.00043 Z M27,9.00043002 L27,11.00043 L24,11.00043 L24,9.00043002 L27,9.00043002 Z M23,9.00043002 L23,11.00043 L20,11.00043 L20,9.00043002 L23,9.00043002 Z M19,9.00043002 L19,11.00043 L16,11.00043 L16,9.00043002 L19,9.00043002 Z M15,9.00043002 L15,11.00043 L12,11.00043 L12,9.00043002 L15,9.00043002 Z M27,3.00047634 L27,5.00047634 L29,5.00047634 L27,3.00047634 Z" id="icon-doc" fill="#5CABDE"></path>
                    <rect id="Rectangle-Copy-16" fill="#0573BB" x="2.45563569e-11" y="9" width="23" height="14" rx="1"></rect>
                    <path d="M6.24052734,20.1074219 C7.0211263,20.1074219 7.71936849,19.9910482 8.33525391,19.7583008 L8.33525391,19.7583008 L8.33525391,18.6572266 C7.99866536,18.7610677 7.67460938,18.84611 7.36308594,18.9123535 C7.0515625,18.978597 6.72929688,19.0117188 6.39628906,19.0117188 C5.62643229,19.0117188 5.03829753,18.7646484 4.63188477,18.2705078 C4.22547201,17.7763672 4.02226563,17.0476888 4.02226563,16.0844727 C4.02226563,15.1642253 4.23352865,14.4427083 4.65605469,13.9199219 C5.07858073,13.3971354 5.65865885,13.1357422 6.39628906,13.1357422 C6.72213542,13.1357422 7.03276367,13.1831868 7.32817383,13.2780762 C7.62358398,13.3729655 7.90377604,13.4830729 8.16875,13.6083984 L8.16875,13.6083984 L8.63066406,12.5395508 C7.95032552,12.2029622 7.20911458,12.034668 6.40703125,12.034668 C5.64433594,12.034668 4.98011068,12.1975911 4.41435547,12.5234375 C3.84860026,12.8492839 3.41622721,13.3183594 3.11723633,13.9306641 C2.81824544,14.5429688 2.66875,15.2573242 2.66875,16.0737305 C2.66875,17.3699544 2.97669271,18.3662923 3.59257813,19.0627441 C4.20846354,19.759196 5.09111328,20.1074219 6.24052734,20.1074219 Z M11.4083008,20.1074219 C12.2963216,20.1074219 12.9927734,19.9086914 13.4976563,19.5112305 C14.0025391,19.1137695 14.2549805,18.565918 14.2549805,17.8676758 C14.2549805,17.5131836 14.1923177,17.2052409 14.0669922,16.9438477 C13.9416667,16.6824544 13.7447266,16.4479167 13.4761719,16.2402344 C13.2076172,16.0325521 12.7850911,15.8087565 12.2085938,15.5688477 C11.6965495,15.3575846 11.3420573,15.1875 11.1451172,15.0585938 C10.9481771,14.9296875 10.8067383,14.7927246 10.7208008,14.6477051 C10.6348633,14.5026855 10.5918945,14.328125 10.5918945,14.1240234 C10.5918945,13.8268229 10.6993164,13.5878092 10.9141602,13.4069824 C11.1290039,13.2261556 11.4441081,13.1357422 11.8594727,13.1357422 C12.4073242,13.1357422 13.0303711,13.2825521 13.7286133,13.5761719 L13.7286133,13.5761719 L14.1368164,12.5288086 C13.3920247,12.1993815 12.6436523,12.034668 11.8916992,12.034668 C11.1075195,12.034668 10.4826823,12.2226562 10.0171875,12.5986328 C9.55169271,12.9746094 9.31894531,13.4902344 9.31894531,14.1455078 C9.31894531,14.6682943 9.46575521,15.1158854 9.759375,15.4882812 C10.0529948,15.8606771 10.5578776,16.1918945 11.2740234,16.4819336 C11.9686849,16.7612305 12.4270182,17.0029297 12.6490234,17.2070312 C12.8710286,17.4111328 12.9820313,17.6599935 12.9820313,17.9536133 C12.9820313,18.2794596 12.8611816,18.5390625 12.6194824,18.7324219 C12.3777832,18.9257812 12.0027018,19.0224609 11.4942383,19.0224609 C11.1469076,19.0224609 10.7718262,18.9741211 10.3689941,18.8774414 C9.96616211,18.7807617 9.58570964,18.6482747 9.22763672,18.4799805 L9.22763672,18.4799805 L9.22763672,19.6938477 C9.79339193,19.9695638 10.5202799,20.1074219 11.4083008,20.1074219 Z M18.5311523,20 L21.2811523,12.1474609 L19.9491211,12.1474609 L18.3109375,17.0083008 C18.2500651,17.1801758 18.1712891,17.4451497 18.0746094,17.8032227 C17.9779297,18.1612956 17.9063151,18.4763997 17.8597656,18.7485352 C17.8311198,18.5694987 17.768457,18.2964681 17.6717773,17.9294434 C17.5750977,17.5624186 17.4837891,17.2625326 17.3978516,17.0297852 L17.3978516,17.0297852 L15.759668,12.1474609 L14.4383789,12.1474609 L17.1776367,20 L18.5311523,20 Z" id="CSV" fill="#FFFFFF" fill-rule="nonzero"></path>
                </g>
            </g>
        </g>
    </g>
</svg>