<?xml version="1.0" encoding="UTF-8"?>
<svg width="32px" height="32px" viewBox="0 0 32 32" version="1.1" xmlns="http://www.w3.org/2000/svg" xmlns:xlink="http://www.w3.org/1999/xlink">
    <title>icon-tif-blue</title>
    <g id="Page-1-Icons" stroke="none" stroke-width="1" fill="none" fill-rule="evenodd">
        <g id="PECOS-2.0-Icons-Overview-v21" transform="translate(-106.000000, -158.000000)">
            <g id="FILE-TYPE" transform="translate(89.000000, 75.000000)">
                <g id="icon-tif-blue" transform="translate(17.000000, 83.000000)">
                    <path d="M26.6237437,0.000454689604 C26.8915741,0.000147655725 27.1483341,0.107291353 27.336504,0.297883327 L31.7116139,4.72930812 C31.896391,4.91646353 32,5.16887749 32,5.43187882 L32,31 C32,31.5522847 31.5522847,32 31,32 L8.00474548,32 C7.45246073,32 7.00474548,31.5522847 7.00474548,31 L7.00474548,1.02179969 C7.00474548,0.469962571 7.45176236,0.0224329554 8.00359911,0.021800344 L26.6237437,0.000454689604 Z M24.5046082,2 L9.09068298,2 L9.09068298,29.9738007 L30,29.9738007 L30,7.49295235 C30,7.21680997 29.7761424,6.99295235 29.5,6.99295235 L29.5,6.99295235 L25.0046082,6.99295235 L25.0046082,2.5 C25.0046082,2.22385763 24.7807505,2 24.5046082,2 L24.5046082,2 Z M27,3.00047634 L27,5.00047634 L29,5.00047634 L27,3.00047634 Z" id="icon-doc" fill="#5CABDE"></path>
                    <rect id="Rectangle-Copy-16" fill="#0573BB" x="2.45563569e-11" y="9" width="21" height="14" rx="1"></rect>
                    <path d="M6.53076172,20 L6.53076172,13.2485352 L8.84033203,13.2485352 L8.84033203,12.1474609 L2.9375,12.1474609 L2.9375,13.2485352 L5.24707031,13.2485352 L5.24707031,20 L6.53076172,20 Z M11.3271484,20 L11.3271484,12.1474609 L10.043457,12.1474609 L10.043457,20 L11.3271484,20 Z M14.6733398,20 L14.6733398,16.7773438 L17.6328125,16.7773438 L17.6328125,15.6870117 L14.6733398,15.6870117 L14.6733398,13.2324219 L17.831543,13.2324219 L17.831543,12.1474609 L13.4003906,12.1474609 L13.4003906,20 L14.6733398,20 Z" id="TIF" fill="#FFFFFF" fill-rule="nonzero"></path>
                </g>
            </g>
        </g>
    </g>
</svg>