<?xml version="1.0" encoding="UTF-8"?>
<svg width="36px" height="36px" viewBox="0 0 36 36" version="1.1" xmlns="http://www.w3.org/2000/svg" xmlns:xlink="http://www.w3.org/1999/xlink">
    <title>icon-tl-site-visit-warning</title>
    <defs>
        <linearGradient x1="50%" y1="0%" x2="50%" y2="100%" id="linearGradient-1">
            <stop stop-color="#D3BA89" offset="0%"></stop>
            <stop stop-color="#C0A76B" offset="99.6138139%"></stop>
        </linearGradient>
        <linearGradient x1="50%" y1="0%" x2="50%" y2="100%" id="linearGradient-2">
            <stop stop-color="#CEB47E" offset="0%"></stop>
            <stop stop-color="#B69C66" offset="100%"></stop>
        </linearGradient>
        <linearGradient x1="50%" y1="0%" x2="50%" y2="100%" id="linearGradient-3">
            <stop stop-color="#B39559" offset="0%"></stop>
            <stop stop-color="#9C7F42" offset="100%"></stop>
        </linearGradient>
    </defs>
    <g id="Page-1-Icons" stroke="none" stroke-width="1" fill="none" fill-rule="evenodd">
        <g id="PECOS-2.0-Icons-Overview-v28" transform="translate(-818.000000, -2543.000000)">
            <g id="SITE-VISIT-TIMELINE" transform="translate(795.000000, 2077.000000)">
                <g id="Site-Visit-Warning" transform="translate(18.000000, 460.000000)">
                    <g id="icon-tl-site-visit-warning" transform="translate(5.000000, 6.000000)">
                        <g id="building">
                            <rect id="bldg" stroke="url(#linearGradient-2)" fill="url(#linearGradient-1)" x="0.5" y="0.5" width="21" height="25" rx="2"></rect>
                            <path d="M16.6666667,17.9909668 L16.6666667,19.9909668 L18.6666667,19.9909668 L18.6666667,21.9909668 L16.6666667,21.9909668 L16.6666667,23.9909668 L14.6666667,23.9909668 L14.6666667,21.9909668 L12.6666667,21.9909668 L12.6666667,19.9909668 L14.6666667,19.9909668 L14.6666667,17.9909668 L16.6666667,17.9909668 Z" id="cross" fill="#E4D5AE"></path>
                            <path d="M9,18 L9,26 L3,26 L3,18 L9,18 Z M7,13 L7,16 L3,16 L3,13 L7,13 Z M13,13 L13,16 L9,16 L9,13 L13,13 Z M19,13 L19,16 L15,16 L15,13 L19,13 Z M7,8 L7,11 L3,11 L3,8 L7,8 Z M13,8 L13,11 L9,11 L9,8 L13,8 Z M19,8 L19,11 L15,11 L15,8 L19,8 Z M7,3 L7,6 L3,6 L3,3 L7,3 Z M13,3 L13,6 L9,6 L9,3 L13,3 Z M19,3 L19,6 L15,6 L15,3 L19,3 Z" id="Combined-Shape" fill="url(#linearGradient-3)"></path>
                        </g>
                        <g id="icon-warning" transform="translate(11.000000, 11.000000)">
                            <path d="M12,-0.5 C12.6082224,-0.5 13.1405736,-0.34609499 13.5998735,-0.0472851627 C14.0478791,0.244176781 14.4291196,0.677384265 14.73286,1.26262669 L14.73286,1.26262669 L24.2342252,20.8056329 C24.5124527,21.6804221 24.5035336,22.4634686 24.2344171,23.156663 C24.0801164,23.554113 23.8095393,23.8713443 23.4161914,24.1029641 C23.0688683,24.3074826 22.6166601,24.4450697 22.0537723,24.5 L22.0537723,24.5 L1.94667742,24.5 C0.750142177,24.2549885 0.0522232676,23.7890371 -0.251720395,23.2072238 C-0.552302586,22.6318452 -0.58917079,21.8375443 -0.275493217,20.8074002 L-0.275493217,20.8074002 L9.31583674,1.26867185 C9.60097834,0.682215862 9.96915379,0.248134042 10.4086538,-0.0444017612 C10.8595728,-0.344538173 11.3888635,-0.5 12,-0.5 L12,-0.5 Z" id="Triangle" stroke="#E4D5AE" fill="#F58900"></path>
                            <path d="M12.0025635,17.5703125 C13.0380974,17.5703125 13.8775635,18.4097786 13.8775635,19.4453125 C13.8775635,20.4808464 13.0380974,21.3203125 12.0025635,21.3203125 C10.9670296,21.3203125 10.1275635,20.4808464 10.1275635,19.4453125 C10.1275635,18.4097786 10.9670296,17.5703125 12.0025635,17.5703125 Z M12.0108337,5.56622314 C12.9702586,5.56622314 13.7480262,6.34399068 13.7480262,7.30341556 C13.7480262,7.34758287 13.7463418,7.39173412 13.7429766,7.43577305 L13.088562,16 L10.8606262,16 L10.2657693,7.43671553 C10.1988199,6.47294306 10.9258387,5.63737789 11.8896111,5.5704285 C11.9299579,5.56762577 11.9703897,5.56622314 12.0108337,5.56622314 Z" id="exclamation-mark" fill="#FFFFFF"></path>
                        </g>
                    </g>
                </g>
            </g>
        </g>
    </g>
</svg>