<?xml version="1.0" encoding="UTF-8"?>
<svg width="36px" height="36px" viewBox="0 0 36 36" version="1.1" xmlns="http://www.w3.org/2000/svg" xmlns:xlink="http://www.w3.org/1999/xlink">
    <title>icon-tl-site-visit-failed</title>
    <defs>
        <linearGradient x1="50%" y1="0%" x2="50%" y2="100%" id="linearGradient-1">
            <stop stop-color="#D3BA89" offset="0%"></stop>
            <stop stop-color="#C0A76B" offset="99.6138139%"></stop>
        </linearGradient>
        <linearGradient x1="50%" y1="0%" x2="50%" y2="100%" id="linearGradient-2">
            <stop stop-color="#CEB47E" offset="0%"></stop>
            <stop stop-color="#B69C66" offset="100%"></stop>
        </linearGradient>
        <linearGradient x1="50%" y1="0%" x2="50%" y2="100%" id="linearGradient-3">
            <stop stop-color="#B39559" offset="0%"></stop>
            <stop stop-color="#9C7F42" offset="100%"></stop>
        </linearGradient>
    </defs>
    <g id="Page-1-Icons" stroke="none" stroke-width="1" fill="none" fill-rule="evenodd">
        <g id="PECOS-2.0-Icons-Overview-v28" transform="translate(-818.000000, -2187.000000)">
            <g id="SITE-VISIT-TIMELINE" transform="translate(795.000000, 2077.000000)">
                <g id="Site-Visit-Failed" transform="translate(18.000000, 104.000000)">
                    <g id="icon-tl-site-visit-failed" transform="translate(5.000000, 6.000000)">
                        <g id="building">
                            <rect id="bldg" stroke="url(#linearGradient-2)" fill="url(#linearGradient-1)" x="0.5" y="0.5" width="21" height="25" rx="2"></rect>
                            <path d="M16.6666667,17.9909668 L16.6666667,19.9909668 L18.6666667,19.9909668 L18.6666667,21.9909668 L16.6666667,21.9909668 L16.6666667,23.9909668 L14.6666667,23.9909668 L14.6666667,21.9909668 L12.6666667,21.9909668 L12.6666667,19.9909668 L14.6666667,19.9909668 L14.6666667,17.9909668 L16.6666667,17.9909668 Z" id="cross" fill="#E4D5AE"></path>
                            <path d="M9,18 L9,26 L3,26 L3,18 L9,18 Z M7,13 L7,16 L3,16 L3,13 L7,13 Z M13,13 L13,16 L9,16 L9,13 L13,13 Z M19,13 L19,16 L15,16 L15,13 L19,13 Z M7,8 L7,11 L3,11 L3,8 L7,8 Z M13,8 L13,11 L9,11 L9,8 L13,8 Z M19,8 L19,11 L15,11 L15,8 L19,8 Z M7,3 L7,6 L3,6 L3,3 L7,3 Z M13,3 L13,6 L9,6 L9,3 L13,3 Z M19,3 L19,6 L15,6 L15,3 L19,3 Z" id="Combined-Shape" fill="url(#linearGradient-3)"></path>
                        </g>
                        <g id="icon-completed-failed" transform="translate(11.000000, 11.000000)">
                            <circle id="Oval" stroke="#E4D5AE" fill="#E00F16" cx="12" cy="12" r="12.5"></circle>
                            <path d="M12.0025635,16.5703125 C13.0380974,16.5703125 13.8775635,17.4097786 13.8775635,18.4453125 C13.8775635,19.4808464 13.0380974,20.3203125 12.0025635,20.3203125 C10.9670296,20.3203125 10.1275635,19.4808464 10.1275635,18.4453125 C10.1275635,17.4097786 10.9670296,16.5703125 12.0025635,16.5703125 Z M12.0025635,3.62237549 C12.9687734,3.62237549 13.7520413,4.40564339 13.7520413,5.37185331 C13.7520413,5.41223291 13.7506433,5.45260041 13.7478498,5.49288327 L13.088562,15 L10.8606262,15 L10.2481202,5.49349576 C10.1856903,4.52454347 10.920572,3.68844309 11.8895243,3.62601329 C11.9271553,3.62358871 11.9648545,3.62237549 12.0025635,3.62237549 Z" id="exclamation-mark" fill="#FFFFFF"></path>
                        </g>
                    </g>
                </g>
            </g>
        </g>
    </g>
</svg>