<?xml version="1.0" encoding="UTF-8"?>
<svg width="80px" height="80px" viewBox="0 0 80 80" version="1.1" xmlns="http://www.w3.org/2000/svg" xmlns:xlink="http://www.w3.org/1999/xlink">
    <title>icon-mod-records-contractor-overview</title>
    <defs>
        <linearGradient x1="50%" y1="0%" x2="50%" y2="100%" id="linearGradient-1">
            <stop stop-color="#7C7CD2" offset="0%"></stop>
            <stop stop-color="#7272B0" offset="100%"></stop>
        </linearGradient>
        <linearGradient x1="50%" y1="0%" x2="50%" y2="100%" id="linearGradient-2">
            <stop stop-color="#F4F4FA" offset="0%"></stop>
            <stop stop-color="#DFDFF1" offset="100%"></stop>
        </linearGradient>
        <linearGradient x1="50%" y1="0%" x2="50%" y2="100%" id="linearGradient-3">
            <stop stop-color="#7C7CD0" offset="0%"></stop>
            <stop stop-color="#4242A8" offset="100%"></stop>
        </linearGradient>
        <linearGradient x1="50%" y1="1.32000086%" x2="100%" y2="98.6799991%" id="linearGradient-4">
            <stop stop-color="#5D5DBD" offset="0.0819493007%"></stop>
            <stop stop-color="#292978" offset="100%"></stop>
        </linearGradient>
    </defs>
    <g id="Page-1-Icons" stroke="none" stroke-width="1" fill="none" fill-rule="evenodd">
        <g id="PECOS-2.0-Icons-Overview-v30" transform="translate(-1787.000000, -3031.000000)">
            <g id="MOD-RECORDS-OVERVIEW" transform="translate(1771.000000, 2773.000000)">
                <g id="icon-mod-records-contractor-overview" transform="translate(16.000000, 258.000000)">
                    <circle id="purple-80x80-oval" fill="#DFDFF1" cx="40" cy="40" r="40"></circle>
                    <g id="icon-record" transform="translate(19.000000, 25.000000)">
                        <g id="page">
                            <rect fill="url(#linearGradient-1)" x="0" y="0" width="31" height="37" rx="2"></rect>
                            <rect id="page-copy" fill="url(#linearGradient-2)" x="2" y="2" width="27" height="33" rx="1"></rect>
                            <path d="M26,30 L26,32 L5,32 L5,30 L26,30 Z M26,26 L26,28 L5,28 L5,26 L26,26 Z M26,22 L26,24 L5,24 L5,22 L26,22 Z M26,18 L26,20 L5,20 L5,18 L26,18 Z M26,14 L26,16 L5,16 L5,14 L26,14 Z M26,10 L26,12 L13,12 L13,10 L26,10 Z M26,6 L26,8 L13,8 L13,6 L26,6 Z" id="Combined-Shape" fill="#A5A5D6"></path>
                        </g>
                        <path d="M9,5 L9,7 L11,7 L11,9 L9,9 L9,11 L7,11 L7,9 L5,9 L5,7 L7,7 L7,5 L9,5 Z" id="cross" fill="#9292C9"></path>
                    </g>
                    <path d="M38.5233536,27.5680185 C37.8806737,26.6022729 37.5593338,24.7560398 37.5593338,22.0293191 C37.5593338,17.2575581 40.7378718,15.2489193 47.0949478,16.003403 C49.8060277,16.2334789 51.1615677,18.7343974 51.1615677,23.5061585 C51.1615677,26.8009459 51.4410451,34.6322264 52,47 L45,47 C44.4445599,44.8722964 43.9661261,43.818794 43.5646985,43.8394928 C40.7487246,43.9846931 40.1258682,43.4636287 39,43 C35.6530664,41.6217442 32.4506569,38.8151534 32.4506569,35.0781799 C32.4506569,32.5868643 34.4748891,30.0834771 38.5233536,27.5680185 Z" id="Rectangle" fill="#DFDFF1"></path>
                    <g id="mac" transform="translate(34.000000, 16.000000)">
                        <path d="M15.4934315,12.630512 C16.2550664,12.8554462 16.9708117,13.135805 17.6288544,13.4638025 C16.5091185,14.7747319 15.8333333,16.4751136 15.8333333,18.3333333 C15.8333333,18.9379985 15.9048891,19.525951 16.0399946,20.0891848 L16.0399946,20.0891848 L9.60902208,26.4425878 C4.19058123,25.991954 0,22.9435238 0,19.25 C0,16.300928 2.67154934,13.7631115 6.50656847,12.630512 C6.50206139,12.6707441 6.5,12.7102517 6.5,12.75 C6.5,13.9926407 8.51471863,15 11,15 C13.4852814,15 15.5,13.9926407 15.5,12.75 Z M7.10477693,16.3155572 C6.54247894,17.2769705 5.63383968,17.7816187 4.37885916,17.8295016 C4.26708427,17.8339619 4.17866434,17.9258198 4.17866434,18.0376834 L4.17866434,20.3715588 L4.17866434,20.3715588 C4.17866434,21.0854413 5.03385503,21.9927227 6.74423642,23.093403 L6.99438161,23.2519789 C7.06191838,23.2941595 7.14759009,23.2941595 7.21512694,23.2519791 C9.09230199,22.0795801 10.0308895,21.11944 10.0308895,20.3715588 L10.0308895,18.0377774 L10.0308895,18.0377774 C10.0308872,17.9257325 9.94226694,17.8337549 9.83029945,17.8295904 C8.55739401,17.7822462 7.6488865,17.2775684 7.10477693,16.3155572 Z M11,0 C14.3137085,0 17,3.02207794 17,6.75 C17,10.4779221 14.3137085,13.5 11,13.5 C7.6862915,13.5 5,10.4779221 5,6.75 C5,3.02207794 7.6862915,0 11,0 Z" id="person" fill="url(#linearGradient-3)"></path>
                        <path d="M23.75,11.9880028 C27.2017797,11.9880028 30,14.7862231 30,18.2380028 C30,21.6897825 27.2017797,24.4880028 23.75,24.4880028 C22.9472429,24.4880028 22.1798339,24.3366592 21.4747495,24.0609482 L21.4835973,24.0689415 L20.1564895,25.6814452 C20.0773412,25.7776145 19.9593212,25.8333333 19.83477,25.8333333 L18.6322323,25.8333333 C18.4328475,25.8333333 18.2712142,25.9949667 18.2712142,26.1943515 L18.2712142,27.1107928 C18.2712142,27.3409114 18.0846661,27.5274595 17.8545475,27.5274595 L16.25,27.5274595 C16.0198814,27.5274595 15.8333333,27.7140075 15.8333333,27.9441261 L15.8333333,29.5833333 C15.8333333,29.813452 15.6467853,30 15.4166667,30 L12.1620973,30 C11.9319786,30 11.7454306,29.813452 11.7454306,29.5833333 L11.7454306,26.8253056 C11.7454306,26.7134408 11.7904117,26.6062744 11.8702521,26.5279212 L17.9472258,20.5641743 C17.658734,19.8451756 17.5,19.0601263 17.5,18.2380028 C17.5,14.7862231 20.2982203,11.9880028 23.75,11.9880028 Z M25.4166667,14.4880028 C24.2660734,14.4880028 23.3333333,15.4207429 23.3333333,16.5713361 C23.3333333,17.7219293 24.2660734,18.6546695 25.4166667,18.6546695 C26.5672599,18.6546695 27.5,17.7219293 27.5,16.5713361 C27.5,15.4207429 26.5672599,14.4880028 25.4166667,14.4880028 Z" id="icon-mac-routing" fill="url(#linearGradient-4)"></path>
                    </g>
                </g>
            </g>
        </g>
    </g>
</svg>