<?xml version="1.0" encoding="UTF-8"?>
<svg width="24px" height="24px" viewBox="0 0 24 24" version="1.1" xmlns="http://www.w3.org/2000/svg" xmlns:xlink="http://www.w3.org/1999/xlink">
    <title>icon-info-message-large</title>
    <g id="Page-1-Icons" stroke="none" stroke-width="1" fill="none" fill-rule="evenodd">
        <g id="PECOS-2.0-Icons-Overview-v24" transform="translate(-1495.000000, -1850.000000)">
            <g id="Other-General-Status-Icons" transform="translate(1480.000000, 1735.000000)">
                <g id="icon-info-message-large" transform="translate(15.000000, 115.000000)">
                    <circle id="Oval" fill="#0673BB" cx="12" cy="12" r="12"></circle>
                    <path d="M9.5,10.0148544 L13.5426598,10.0148544 C13.8188021,10.0148544 14.0426598,10.2387121 14.0426598,10.5148544 L14.0426598,16.3342972 C14.0426598,16.8862743 14.4901257,17.3337402 15.0421028,17.3337402 L15.5415459,17.3337402 C15.8176882,17.3337402 16.0415459,17.5575979 16.0415459,17.8337402 L16.0415459,18.5 C16.0415459,18.7761424 15.8176882,19 15.5415459,19 L9.5,19 C9.22385763,19 9,18.7761424 9,18.5 L9,17.8337402 C9,17.5575979 9.22385763,17.3337402 9.5,17.3337402 L9.98660088,17.3337402 C10.5314855,17.3337402 10.9732018,16.892024 10.9732018,16.3471394 L10.9732018,12.7073956 C10.9732018,12.1625109 10.5314855,11.7207947 9.98660088,11.7207947 L9.5,11.7207947 C9.22385763,11.7207947 9,11.4969371 9,11.2207947 L9,10.5148544 C9,10.2387121 9.22385763,10.0148544 9.5,10.0148544 Z" id="Rectangle" fill="#FFFFFF"></path>
                    <path d="M12,7.74606466 C12.9664983,7.74606466 13.75,6.96256298 13.75,5.99606466 C13.75,5.02956635 12.9664983,4.24606466 12,4.24606466 C11.0335017,4.24606466 10.25,5.02956635 10.25,5.99606466 C10.25,6.96256298 11.0335017,7.74606466 12,7.74606466 Z" id="Oval" fill="#FFFFFF"></path>
                </g>
            </g>
        </g>
    </g>
</svg>