<?xml version="1.0" encoding="UTF-8"?>
<svg width="28px" height="28px" viewBox="0 0 28 28" version="1.1" xmlns="http://www.w3.org/2000/svg" xmlns:xlink="http://www.w3.org/1999/xlink">
    <title>icon-warning-large</title>
    <g id="Page-1-Icons" stroke="none" stroke-width="1" fill="none" fill-rule="evenodd">
        <g id="PECOS-2.0-Icons-Overview-v24" transform="translate(-1493.000000, -1807.000000)">
            <g id="Other-General-Status-Icons" transform="translate(1480.000000, 1735.000000)">
                <g id="icon-warning-large" transform="translate(15.000000, 74.000000)">
                    <path d="M12,-0.75 C12.6604415,-0.75 13.2377667,-0.581113514 13.7362056,-0.25684083 C14.2177307,0.0564281686 14.6298146,0.520343607 14.9562824,1.15040875 L14.9562824,1.15040875 L24.4668865,20.7124179 C24.7707501,21.6568263 24.7572306,22.5007717 24.4674703,23.2471405 C24.293002,23.6965387 23.9881069,24.0563185 23.5430435,24.3183905 C23.1669395,24.5398564 22.6774736,24.6917392 22.065788,24.75 L22.065788,24.75 L1.92159632,24.75 C0.602333772,24.4848361 -0.142754178,23.9557284 -0.473305828,23.3229818 C-0.798844426,22.6998312 -0.854746073,21.8391406 -0.508693585,20.7151249 L-0.508693585,20.7151249 L9.09100365,1.15935543 C9.39819196,0.527555564 9.79708905,0.0623459202 10.2701309,-0.252515728 C10.7603013,-0.578778289 11.3351873,-0.75 12,-0.75 Z" id="Triangle" stroke="#FFFFFF" stroke-width="1.5" fill="#F58900"></path>
                    <path d="M12.0025635,17.5703125 C13.0380974,17.5703125 13.8775635,18.4097786 13.8775635,19.4453125 C13.8775635,20.4808464 13.0380974,21.3203125 12.0025635,21.3203125 C10.9670296,21.3203125 10.1275635,20.4808464 10.1275635,19.4453125 C10.1275635,18.4097786 10.9670296,17.5703125 12.0025635,17.5703125 Z M12.0108337,5.56622314 C12.9702586,5.56622314 13.7480262,6.34399068 13.7480262,7.30341556 C13.7480262,7.34758287 13.7463418,7.39173412 13.7429766,7.43577305 L13.088562,16 L10.8606262,16 L10.2657693,7.43671553 C10.1988199,6.47294306 10.9258387,5.63737789 11.8896111,5.5704285 C11.9299579,5.56762577 11.9703897,5.56622314 12.0108337,5.56622314 Z" id="exclamation-mark" fill="#FFFFFF"></path>
                </g>
            </g>
        </g>
    </g>
</svg>