<?xml version="1.0" encoding="UTF-8"?>
<svg width="66px" height="66px" viewBox="0 0 66 66" version="1.1" xmlns="http://www.w3.org/2000/svg" xmlns:xlink="http://www.w3.org/1999/xlink">
    <title>icon-table-scroll-left</title>
    <defs>
        <circle id="path-1" cx="20" cy="20" r="20"></circle>
        <filter x="-48.8%" y="-48.8%" width="197.5%" height="197.5%" filterUnits="objectBoundingBox" id="filter-2">
            <feOffset dx="0" dy="0" in="SourceAlpha" result="shadowOffsetOuter1"></feOffset>
            <feGaussianBlur stdDeviation="6.5" in="shadowOffsetOuter1" result="shadowBlurOuter1"></feGaussianBlur>
            <feComposite in="shadowBlurOuter1" in2="SourceAlpha" operator="out" result="shadowBlurOuter1"></feComposite>
            <feColorMatrix values="0 0 0 0 0   0 0 0 0 0   0 0 0 0 0  0 0 0 0.334505095 0" type="matrix" in="shadowBlurOuter1"></feColorMatrix>
        </filter>
    </defs>
    <g id="Page-1-Icons" stroke="none" stroke-width="1" fill="none" fill-rule="evenodd">
        <g id="PECOS-2.0-Icons-Overview-v31" transform="translate(-1648.000000, -790.000000)">
            <g id="TABLE-SCROLL-ICONS" transform="translate(1653.000000, 715.000000)">
                <g id="icon-table-scroll-left" transform="translate(8.000000, 88.000000)">
                    <g id="Oval" opacity="0.839381627">
                        <use fill="black" fill-opacity="1" filter="url(#filter-2)" xlink:href="#path-1"></use>
                        <circle stroke="#FFFFFF" stroke-width="1" stroke-linejoin="square" fill="#C6E5F8" fill-rule="evenodd" cx="20" cy="20" r="19.5"></circle>
                    </g>
                    <path d="M16.5355988,12.9801331 C17.3718716,12.9801331 18.0498047,13.6580661 18.0498047,14.494339 L18.0498047,26.0199585 L18.0498047,26.0199585 L29.5516072,26.0199585 C30.3633474,26.0199585 31.0213928,26.6780039 31.0213928,27.4897441 C31.0213928,28.3017903 30.3636539,28.9603767 29.5516084,28.9614224 L17.0239682,28.9775543 C15.9193997,28.9789767 15.0228168,28.0847 15.0213945,26.9801314 C15.0213934,26.9792729 15.0213928,26.9784145 15.0213928,26.977556 L15.0213928,14.494339 C15.0213928,13.6580661 15.6993259,12.9801331 16.5355988,12.9801331 Z" id="icon-right-chevron" fill="#0573BB" transform="translate(23.021393, 20.980133) rotate(45.000000) translate(-23.021393, -20.980133) "></path>
                </g>
            </g>
        </g>
    </g>
</svg>