<?xml version="1.0" encoding="UTF-8"?>
<svg width="18px" height="18px" viewBox="0 0 18 18" version="1.1" xmlns="http://www.w3.org/2000/svg" xmlns:xlink="http://www.w3.org/1999/xlink">
    <title>icon-not-completed-white</title>
    <g id="Page-1" stroke="none" stroke-width="1" fill="none" fill-rule="evenodd" stroke-opacity="0">
        <g id="PECOS-2.0-Icons-&amp;-Illus-Overview-v15" transform="translate(-1492.000000, -1777.000000)" fill="#FFFFFF" stroke="#FFFFFF">
            <g id="Progress-icons" transform="translate(1479.000000, 1645.000000)">
                <g id="icon-not-completed-white" transform="translate(13.000000, 132.000000)">
                    <path d="M8.94900725,-0.5 C11.5723598,-0.5 13.9473598,0.563323719 15.6665217,2.28248558 C17.3856835,4.00164744 18.4490072,6.37664744 18.4490072,9 C18.4490072,11.6233526 17.3856835,13.9983526 15.6665217,15.7175144 C13.9473598,17.4366763 11.5723598,18.5 8.94900725,18.5 C8.48883481,18.5 8.03631018,18.4672457 7.59363381,18.4039835 L7.59363381,18.4039835 L7.96194638,15.4256041 C8.28382152,15.4746136 8.61344846,15.5 8.94900725,15.5 C10.7439327,15.5 12.3689327,14.7724627 13.5452013,13.5961941 C14.72147,12.4199254 15.4490072,10.7949254 15.4490072,9 C15.4490072,7.20507456 14.72147,5.58007456 13.5452013,4.40380592 C12.3689327,3.22753728 10.7439327,2.5 8.94900725,2.5 C8.60419698,2.5 8.26565023,2.52680562 7.93534181,2.57850304 L7.93534181,2.57850304 L7.60736302,-0.405935333 C8.04566524,-0.467919238 8.49359097,-0.5 8.94900725,-0.5 Z M5.25138267,14.3465678 C5.91815453,14.808644 6.6755467,15.149217 7.4915557,15.336077 L7.4915557,15.336077 L6.57713798,18.2013902 C5.5041985,17.9255742 4.50452403,17.46714 3.61328606,16.8611003 L3.61328606,16.8611003 Z M3.2254202,12.0835334 C3.63814408,12.8478658 4.19949644,13.5201207 4.87069042,14.0616699 L4.87069042,14.0616699 L2.79254692,16.2354233 C1.97250401,15.5370314 1.2727271,14.7016437 0.728551522,13.7646933 L0.728551522,13.7646933 Z M11.9825354,4.98026362 L14.1008778,7.09860603 L7.05100073,14.1484831 L2.83943408,9.93691643 L4.9436637,7.8326868 L7.03688795,9.92591104 L11.9825354,4.98026362 Z M2.45432648,9.26538864 C2.48824224,10.1119238 2.68404057,10.9167989 3.01175495,11.6498273 L3.01175495,11.6498273 L0.255682515,12.8365437 C-0.195988701,11.81447 -0.47283035,10.6978151 -0.536750144,9.52448831 L-0.536750144,9.52448831 Z M0.15888078,5.39047466 L3.00177225,6.37262061 C2.67378192,7.1138101 2.48044762,7.92784985 2.45254069,8.78371768 L2.45254069,8.78371768 L-0.53726721,8.48510422 C-0.478955311,7.39458306 -0.236711843,6.35290331 0.15888078,5.39047466 L0.15888078,5.39047466 Z M2.6230524,1.91240691 L4.82803321,3.97304392 C4.17128828,4.51212365 3.62198716,5.17730968 3.21724797,5.93165076 L3.21724797,5.93165076 L0.610924268,4.44384794 C1.13408725,3.4883354 1.81671185,2.6325662 2.6230524,1.91240691 L2.6230524,1.91240691 Z M6.57954359,-0.202008318 L7.4537958,2.67268953 C6.6384906,2.86455035 5.8824602,3.21004776 5.21783509,3.67683649 L5.21783509,3.67683649 L3.44241141,1.25784729 C4.37668889,0.592212946 5.4365698,0.0914906513 6.57954359,-0.202008318 L6.57954359,-0.202008318 Z"></path>
                </g>
            </g>
        </g>
    </g>
</svg>