<?xml version="1.0" encoding="UTF-8"?>
<svg width="18px" height="18px" viewBox="0 0 18 18" version="1.1" xmlns="http://www.w3.org/2000/svg" xmlns:xlink="http://www.w3.org/1999/xlink">
    <title>icon-not-complete-alert</title>
    <g id="Page-1-Icons" stroke="none" stroke-width="1" fill="none" fill-rule="evenodd">
        <g id="PECOS-2.0-Icons-Overview-v30" transform="translate(-1370.000000, -1006.000000)">
            <g id="APPLICATION-PROGRESS" transform="translate(1358.000000, 937.000000)">
                <g id="icon-not-complete-alert" transform="translate(12.000000, 69.000000)">
                    <circle id="Oval" fill="#E00F16" cx="9" cy="9" r="9"></circle>
                    <path d="M9.00192261,12.4277344 C9.77857304,12.4277344 10.4081726,13.0573339 10.4081726,13.8339844 C10.4081726,14.6106348 9.77857304,15.2402344 9.00192261,15.2402344 C8.22527218,15.2402344 7.59567261,14.6106348 7.59567261,13.8339844 C7.59567261,13.0573339 8.22527218,12.4277344 9.00192261,12.4277344 Z M9.00192261,2.71678162 C9.72658005,2.71678162 10.314031,3.30423254 10.314031,4.02888998 C10.314031,4.05917468 10.3129825,4.08945031 10.3108874,4.11966245 L9.81642151,11.25 L8.14546967,11.25 L7.68609011,4.12012182 C7.63926776,3.3934076 8.19042902,2.76633231 8.91714324,2.71950996 C8.94536646,2.71769154 8.97364087,2.71678162 9.00192261,2.71678162 Z" id="exclamation-mark" fill="#FFFFFF"></path>
                </g>
            </g>
        </g>
    </g>
</svg>