<?xml version="1.0" encoding="UTF-8"?>
<svg width="14px" height="14px" viewBox="0 0 14 14" version="1.1" xmlns="http://www.w3.org/2000/svg" xmlns:xlink="http://www.w3.org/1999/xlink">
    <title>icon-left-chevron</title>
    <g id="icon-left-chevron" stroke="none" stroke-width="1" fill="none" fill-rule="evenodd">
        <g id="icon-down-chevron" transform="translate(7.000000, 7.000000) rotate(180.000000) translate(-7.000000, -7.000000) translate(3.000000, 1.000000)" fill="#000000" fill-rule="nonzero">
            <path d="M0.07564303,2.76199677 L4,6.91967773 L4,6.91967773 L7.91933994,2.76338947 C8.2780048,2.38304115 8.8770933,2.3654632 9.2574416,2.72412801 C9.2766745,2.74226443 9.2951392,2.76119856 9.3127871,2.78088062 L9.3784646,2.8541282 C9.7286785,3.24470805 9.717537,3.83952345 9.3529419,4.21671414 L4.72520267,9.00432708 C4.34136485,9.40142527 3.70829113,9.41217493 3.31119293,9.02833712 C3.30333517,9.02074175 3.29560245,9.01301809 3.28799788,9.00516923 L-1.35242443,4.21568023 C-1.71735135,3.83903057 -1.72930772,3.2444469 -1.37981764,2.85343116 L-1.31497192,2.78088062 C-0.9674645,2.39208312 -0.37057143,2.35861089 0.01822608,2.70611832 C0.03814705,2.7239237 0.05730328,2.74256663 0.07564303,2.76199677 Z" id="Rectangle" transform="translate(3.999851, 5.887611) rotate(-90.000000) translate(-3.999851, -5.887611) "></path>
        </g>
    </g>
</svg>