<?xml version="1.0" encoding="UTF-8"?>
<svg width="18px" height="18px" viewBox="0 0 18 18" version="1.1" xmlns="http://www.w3.org/2000/svg" xmlns:xlink="http://www.w3.org/1999/xlink">
    <title>icon-not-completed</title>
    <g id="Page-1" stroke="none" stroke-width="1" fill="none" fill-rule="evenodd">
        <g id="PECOS-2.0-Icons-&amp;-Illus-Overview-v15" transform="translate(-1491.000000, -1712.000000)" fill="#0E7B7B">
            <g id="Progress-icons" transform="translate(1479.000000, 1645.000000)">
                <g id="Group" transform="translate(10.000000, 66.000000)">
                    <g id="icon-not-completed" transform="translate(1.000000, 1.000000)">
                        <path d="M9.94900725,0 C14.91957,0 18.9490072,4.02943725 18.9490072,9 C18.9490072,13.9705627 14.91957,18 9.94900725,18 C9.68032818,18 9.41439893,17.9882266 9.15170726,17.9651676 L9.39737239,15.9785834 C9.57938525,15.9927724 9.76335221,16 9.94900725,16 C13.8150005,16 16.9490072,12.8659932 16.9490072,9 C16.9490072,5.13400675 13.8150005,2 9.94900725,2 C9.75652665,2 9.56586055,2.00776876 9.37730538,2.02300983 L9.15874442,0.0342174102 C9.41914789,0.0115640737 9.6827271,0 9.94900725,0 Z M7.85636521,15.6818449 L7.24814096,17.5877058 C6.56207189,17.3721473 5.91141258,17.0766443 5.30708153,16.7121153 L6.39978338,15.0347818 C6.85483705,15.3029895 7.34288276,15.5211956 7.85636521,15.6818449 Z M5.1479401,14.0941164 L3.76584719,15.5397957 C3.2514476,15.0532784 2.794419,14.5067276 2.40597228,13.9113543 L4.06539298,12.7940542 C4.37312806,13.2702906 4.73710999,13.7067776 5.1479401,14.0941164 Z M12.9825354,5.6873704 L14.393771,7.09860603 L8.05100073,13.4413763 L4.54654086,9.93691643 L5.9436637,8.53979358 L8.03688795,10.6330178 L12.9825354,5.6873704 Z M3.36536648,11.3837701 L1.52542257,12.1760177 C1.26317944,11.4808336 1.08452564,10.7446479 1.001717,9.97971645 L2.99502743,9.80704749 C3.05785006,10.3543029 3.18378356,10.8823642 3.36536648,11.3837701 Z M1.45362652,6.02129902 L3.34453613,6.6745597 C3.16958839,7.17143703 3.04912608,7.69399634 2.99032191,8.23506492 L1,8.03627726 C1.07437401,7.33762625 1.22869066,6.66285904 1.45362652,6.02129902 Z M3.62383069,2.59748798 L5.08655637,3.96445982 C4.68764877,4.34973953 4.33439592,4.78198457 4.03570503,5.2522877 L2.29704205,4.25978332 C2.67312721,3.65396884 3.11915044,3.09611005 3.62383069,2.59748798 Z M7.24413703,0.413553232 L7.82625203,2.32765158 C7.30178313,2.49435998 6.80410943,2.72119386 6.34132877,3.00005536 L5.15399219,1.38232636 C5.7998991,0.974899258 6.50123775,0.647351178 7.24413703,0.413553232 Z"></path>
                    </g>
                </g>
            </g>
        </g>
    </g>
</svg>