<?xml version="1.0" encoding="UTF-8"?>
<svg width="30px" height="20px" viewBox="0 0 30 20" version="1.1" xmlns="http://www.w3.org/2000/svg" xmlns:xlink="http://www.w3.org/1999/xlink">
    <title>icon-rfi-marker-green-small</title>
    <g id="Page-1-Icons" stroke="none" stroke-width="1" fill="none" fill-rule="evenodd">
        <g id="PECOS-2.0-Icons-Overview-v32-pending-reviews" transform="translate(-2459.000000, -1437.000000)">
            <g id="RFI-CHECKLIST-ICONS" transform="translate(2446.000000, 1363.000000)">
                <g id="icon-rfi-marker-green-small" transform="translate(14.000000, 75.000000)">
                    <path d="M22.0513883,-0.5 L27.5784653,9 L22.0513883,18.5 L1,18.5 C0.585786438,18.5 0.210786438,18.3321068 -0.0606601718,18.0606602 C-0.332106781,17.7892136 -0.5,17.4142136 -0.5,17 L-0.5,17 L-0.5,1 C-0.5,0.585786438 -0.332106781,0.210786438 -0.0606601718,-0.0606601718 C0.210786438,-0.332106781 0.585786438,-0.5 1,-0.5 L1,-0.5 L22.0513883,-0.5 Z" id="Rectangle" stroke-opacity="0.4" stroke="#FFFFFF" fill="#00861A"></path>
                    <path d="M5.53125,13 L5.53125,9.578125 L6.9140625,9.578125 L8.96484375,13 L10.5585938,13 L8.13867188,9.20898438 C9.24804688,8.75585938 9.80273438,7.99609375 9.80273438,6.9296875 C9.80273438,6.09375 9.53710938,5.46875 9.00585938,5.0546875 C8.47460938,4.640625 7.65625,4.43359375 6.55078125,4.43359375 L6.55078125,4.43359375 L4.13085938,4.43359375 L4.13085938,13 L5.53125,13 Z M6.50390625,8.41796875 L5.53125,8.41796875 L5.53125,5.6171875 L6.45703125,5.6171875 C7.09375,5.6171875 7.5703125,5.72265625 7.88671875,5.93359375 C8.203125,6.14453125 8.36132812,6.4921875 8.36132812,6.9765625 C8.36132812,7.453125 8.21484375,7.8125 7.921875,8.0546875 C7.62890625,8.296875 7.15625,8.41796875 6.50390625,8.41796875 L6.50390625,8.41796875 Z M13.1894531,13 L13.1894531,9.484375 L16.4179688,9.484375 L16.4179688,8.29492188 L13.1894531,8.29492188 L13.1894531,5.6171875 L16.6347656,5.6171875 L16.6347656,4.43359375 L11.8007812,4.43359375 L11.8007812,13 L13.1894531,13 Z M19.5878906,13 L19.5878906,4.43359375 L18.1875,4.43359375 L18.1875,13 L19.5878906,13 Z" id="RFI" fill="#FFFFFF" fill-rule="nonzero"></path>
                </g>
            </g>
        </g>
    </g>
</svg>