<?xml version="1.0" encoding="UTF-8"?>
<svg width="32px" height="26px" viewBox="0 0 32 26" version="1.1" xmlns="http://www.w3.org/2000/svg" xmlns:xlink="http://www.w3.org/1999/xlink">
    <title>icon-checkmark-marker-unselected</title>
    <defs>
        <path d="M2,0 L17.6460453,0 L17.6460453,0 L24,9 L17.6460453,18 L2,18 C0.8954305,18 -1.19699688e-15,17.1045695 0,16 L0,2 C-1.3527075e-16,0.8954305 0.8954305,2.02906125e-16 2,0 Z" id="path-1"></path>
        <filter x="-29.2%" y="-27.8%" width="158.3%" height="177.8%" filterUnits="objectBoundingBox" id="filter-2">
            <feOffset dx="0" dy="2" in="SourceAlpha" result="shadowOffsetOuter1"></feOffset>
            <feGaussianBlur stdDeviation="2" in="shadowOffsetOuter1" result="shadowBlurOuter1"></feGaussianBlur>
            <feComposite in="shadowBlurOuter1" in2="SourceAlpha" operator="out" result="shadowBlurOuter1"></feComposite>
            <feColorMatrix values="0 0 0 0 0   0 0 0 0 0   0 0 0 0 0  0 0 0 0.06 0" type="matrix" in="shadowBlurOuter1"></feColorMatrix>
        </filter>
    </defs>
    <g id="Page-1-Icons" stroke="none" stroke-width="1" fill="none" fill-rule="evenodd">
        <g id="PECOS-2.0-Icons-Overview-v26" transform="translate(-2658.000000, -1742.000000)">
            <g id="icon-checkmark-marker-unselected" transform="translate(2662.000000, 1744.000000)">
                <g id="Rectangle">
                    <use fill="black" fill-opacity="1" filter="url(#filter-2)" xlink:href="#path-1"></use>
                    <path stroke="#C3C3C3" stroke-width="1" d="M2,0.5 L17.3869912,0.5 L23.3879484,9 L17.3869912,17.5 L2,17.5 C1.58578644,17.5 1.21078644,17.3321068 0.939339828,17.0606602 C0.667893219,16.7892136 0.5,16.4142136 0.5,16 L0.5,16 L0.5,2 C0.5,1.58578644 0.667893219,1.21078644 0.939339828,0.939339828 C1.21078644,0.667893219 1.58578644,0.5 2,0.5 L2,0.5 Z" stroke-linejoin="square" fill="#FFFFFF" fill-rule="evenodd"></path>
                </g>
                <path d="M7.95666066,10.7274176 L11.4848268,10.861835 L11.4848268,10.861835 L11.4848268,2.81372652 C11.4848268,2.27974564 11.9177039,1.84686861 12.4516848,1.84686861 C12.9856656,1.84686861 13.4185427,2.27974564 13.4185427,2.81372652 L13.4185427,12.3483088 C13.4185427,12.6244512 13.194685,12.8483088 12.9185427,12.8483088 C12.9140943,12.8483088 12.9096461,12.8482494 12.9051993,12.8481307 L7.93069895,12.7153306 C7.38900165,12.7008694 6.95738561,12.2575771 6.95738561,11.7156868 L6.95738561,11.6893469 C6.95738561,11.1577026 7.38836845,10.7267198 7.92001272,10.7267198 C7.93223202,10.7267198 7.94445021,10.7269524 7.95666066,10.7274176 Z" id="Rectangle" fill="#7B7B7B" transform="translate(10.187964, 7.354352) rotate(45.000000) translate(-10.187964, -7.354352) "></path>
            </g>
        </g>
    </g>
</svg>