<?xml version="1.0" encoding="UTF-8"?>
<svg width="18px" height="24px" viewBox="0 0 18 24" version="1.1" xmlns="http://www.w3.org/2000/svg" xmlns:xlink="http://www.w3.org/1999/xlink">
    <title>Combined Shape</title>
    <g id="APPLICATION-LEFT-NAV" stroke="none" stroke-width="1" fill="none" fill-rule="evenodd">
        <g id="Application--Checklist-open-Copy" transform="translate(-355.000000, -293.000000)" fill="#555555">
            <g id="CHECK-LIST-(open)-Copy" transform="translate(336.000000, 284.000000)">
                <g id="icon-checklist" transform="translate(14.500000, 9.000000)">
                    <path d="M13.5,0 C14.8062521,0 15.9175144,0.834850101 16.3293257,2.00008893 L16.5,2 C17.6045695,2 18.5,2.8954305 18.5,4 L20.5,4 C21.6045695,4 22.5,4.8954305 22.5,6 L22.5,22 C22.5,23.1045695 21.6045695,24 20.5,24 L6.5,24 C5.3954305,24 4.5,23.1045695 4.5,22 L4.5,6 C4.5,4.8954305 5.3954305,4 6.5,4 L8.5,4 C8.5,2.8954305 9.3954305,2 10.5,2 L10.6706743,2.00008893 C11.0824856,0.834850101 12.1937479,0 13.5,0 Z M8.5,6 L6.5,6 L6.5,22 L20.5,22 L20.5,6 L18.5,6 L18.5,7 C18.5,7.55228475 18.0522847,8 17.5,8 L9.5,8 C8.94771525,8 8.5,7.55228475 8.5,7 L8.5,6 Z M12.3265519,17.3372241 C12.6015962,17.5377604 12.6619968,17.9232948 12.4614604,18.1983391 C12.4489296,18.2155256 12.4355176,18.232052 12.4212781,18.2478518 L10.4936225,20.3867357 C10.2406344,20.6674457 9.80798657,20.6899187 9.52727659,20.4369306 C9.51462469,20.4255282 9.50240295,20.4136573 9.4906369,20.4013428 L8.31446709,19.1703497 C8.08416612,18.929314 8.09286834,18.5472201 8.33390404,18.3169192 C8.34021531,18.310889 8.34665665,18.3049964 8.3532235,18.2992456 C8.61702433,18.0682262 9.01692833,18.0897419 9.25441928,18.347732 L10,19.1576678 L11.3476959,17.468824 C11.5861507,17.1700082 12.0176434,17.1119972 12.3265519,17.3372241 Z M17.75,18 C18.1642136,18 18.5,18.3357864 18.5,18.75 C18.5,19.1642136 18.1642136,19.5 17.75,19.5 L14.25,19.5 C13.8357864,19.5 13.5,19.1642136 13.5,18.75 C13.5,18.3357864 13.8357864,18 14.25,18 L17.75,18 Z M12.3265519,13.3372241 C12.6015962,13.5377604 12.6619968,13.9232948 12.4614604,14.1983391 C12.4489296,14.2155256 12.4355176,14.232052 12.4212781,14.2478518 L10.4936225,16.3867357 C10.2406344,16.6674457 9.80798657,16.6899187 9.52727659,16.4369306 C9.51462469,16.4255282 9.50240295,16.4136573 9.4906369,16.4013428 L8.31446709,15.1703497 C8.08416612,14.929314 8.09286834,14.5472201 8.33390404,14.3169192 C8.34021531,14.310889 8.34665665,14.3049964 8.3532235,14.2992456 C8.61702433,14.0682262 9.01692833,14.0897419 9.25441928,14.347732 L10,15.1576678 L11.3476959,13.468824 C11.5861507,13.1700082 12.0176434,13.1119972 12.3265519,13.3372241 Z M17.75,14 C18.1642136,14 18.5,14.3357864 18.5,14.75 C18.5,15.1642136 18.1642136,15.5 17.75,15.5 L14.25,15.5 C13.8357864,15.5 13.5,15.1642136 13.5,14.75 C13.5,14.3357864 13.8357864,14 14.25,14 L17.75,14 Z M12.3265519,9.33722408 C12.6015962,9.53776045 12.6619968,9.92329477 12.4614604,10.1983391 C12.4489296,10.2155256 12.4355176,10.232052 12.4212781,10.2478518 L10.4936225,12.3867357 C10.2406344,12.6674457 9.80798657,12.6899187 9.52727659,12.4369306 C9.51462469,12.4255282 9.50240295,12.4136573 9.4906369,12.4013428 L8.31446709,11.1703497 C8.08416612,10.929314 8.09286834,10.5472201 8.33390404,10.3169192 C8.34021531,10.310889 8.34665665,10.3049964 8.3532235,10.2992456 C8.61702433,10.0682262 9.01692833,10.0897419 9.25441928,10.347732 L10,11.1576678 L11.3476959,9.46882402 C11.5861507,9.17000815 12.0176434,9.11199716 12.3265519,9.33722408 Z M17.75,10 C18.1642136,10 18.5,10.3357864 18.5,10.75 C18.5,11.1642136 18.1642136,11.5 17.75,11.5 L14.25,11.5 C13.8357864,11.5 13.5,11.1642136 13.5,10.75 C13.5,10.3357864 13.8357864,10 14.25,10 L17.75,10 Z M14.4992102,3.149425 L14.4999506,3.01440503 C14.4999835,3.00705322 14.5,3.00225154 14.5,3 C14.5,2.44771525 14.0522847,2 13.5,2 C12.9477153,2 12.5,2.44771525 12.5,3 L12.5,4 L12.5,4 L11.5,4 C10.9477153,4 10.5,4.44771525 10.5,5 L10.5,5 L10.5,6 L16.5,6 L16.5,5 C16.5,4.44771525 16.0522847,4 15.5,4 L15.5,4 L14.4940269,4 C14.496561,3.59151837 14.4982887,3.30799338 14.4992102,3.149425 Z" id="Combined-Shape"></path>
                </g>
            </g>
        </g>
    </g>
</svg>