<?xml version="1.0" encoding="UTF-8"?>
<svg width="30px" height="50px" viewBox="0 0 30 50" version="1.1" xmlns="http://www.w3.org/2000/svg" xmlns:xlink="http://www.w3.org/1999/xlink">
    <title>icon-checklist-active-opened</title>
    <g id="Page-1-Icons" stroke="none" stroke-width="1" fill="none" fill-rule="evenodd">
        <g id="PECOS-2.0-Icons-Overview-v28" transform="translate(-2559.000000, -1259.000000)">
            <g id="RFI-CHECKLIST-ICONS" transform="translate(2537.000000, 737.000000)">
                <g id="icon-checklist-active-opened" transform="translate(22.000000, 522.000000)">
                    <path d="M3.07736944,0 L26.9226306,0 C28.6222148,-7.56297764e-16 30,1.37778523 30,3.07736944 L30,38.6622036 L30,38.6622036 L15,50 L0,38.6622036 L0,3.07736944 C2.35950173e-16,1.37778523 1.37778523,7.56297764e-16 3.07736944,0 Z" id="red-marker" fill="#E00F16" transform="translate(15.000000, 25.000000) scale(1, -1) translate(-15.000000, -25.000000) "></path>
                    <g id="icon-checlist-w-issues-white" transform="translate(4.368015, 12.000000)" fill="#FFFFFF">
                        <path d="M10.6329251,0 C11.9391772,0 13.0504396,0.834850101 13.4622509,2.00008893 L13.6329251,2 C14.7374946,2 15.6329251,2.8954305 15.6329251,4 L17.6329251,4 C18.7374946,4 19.6329251,4.8954305 19.6329251,6 L19.6329251,22 C19.6329251,23.1045695 18.7374946,24 17.6329251,24 L11.1099251,24 L13.0539251,22 L17.6329251,22 L17.6329251,6 L15.6329251,6 L15.6329251,7 C15.6329251,7.55228475 15.1852099,8 14.6329251,8 L6.63292514,8 C6.08064039,8 5.63292514,7.55228475 5.63292514,7 L5.63292514,6 L3.63292514,6 L3.63414068,19.4886079 C3.08993939,18.9384655 2.35132882,18.6923289 1.63326907,18.7550353 L1.63292514,6 C1.63292514,4.8954305 2.52835564,4 3.63292514,4 L5.63292514,4 C5.63292514,2.8954305 6.52835564,2 7.63292514,2 L7.80359942,2.00008893 C8.21541072,0.834850101 9.32667309,0 10.6329251,0 Z M9.13292514,17 L9.13292514,18.543 L7.59892514,20 L6.13292514,20 L6.13292514,17 L9.13292514,17 Z M8.13292514,18 L7.13292514,18 L7.13292514,19 L8.13292514,19 L8.13292514,18 Z M9.13292514,13 L9.13292514,16 L6.13292514,16 L6.13292514,13 L9.13292514,13 Z M14.8829251,14 C15.2971387,14 15.6329251,14.3357864 15.6329251,14.75 C15.6329251,15.1642136 15.2971387,15.5 14.8829251,15.5 L11.3829251,15.5 C10.9687116,15.5 10.6329251,15.1642136 10.6329251,14.75 C10.6329251,14.3357864 10.9687116,14 11.3829251,14 L14.8829251,14 Z M8.13292514,14 L7.13292514,14 L7.13292514,15 L8.13292514,15 L8.13292514,14 Z M9.13292514,9 L9.13292514,12 L6.13292514,12 L6.13292514,9 L9.13292514,9 Z M14.8829251,10 C15.2971387,10 15.6329251,10.3357864 15.6329251,10.75 C15.6329251,11.1642136 15.2971387,11.5 14.8829251,11.5 L11.3829251,11.5 C10.9687116,11.5 10.6329251,11.1642136 10.6329251,10.75 C10.6329251,10.3357864 10.9687116,10 11.3829251,10 L14.8829251,10 Z M8.13292514,10 L7.13292514,10 L7.13292514,11 L8.13292514,11 L8.13292514,10 Z M10.6329251,2 C10.0806404,2 9.63292514,2.44771525 9.63292514,3 L9.63292514,4 L9.63292514,4 L8.63292514,4 C8.08064039,4 7.63292514,4.44771525 7.63292514,5 L7.63292514,5 L7.63292514,6 L13.6329251,6 L13.6329251,5 C13.6329251,4.44771525 13.1852099,4 12.6329251,4 L12.6329251,4 L11.6269521,4 C11.6294861,3.59151837 11.6312139,3.30799338 11.6321353,3.149425 L11.6328758,3.01440503 C11.6329087,3.00705322 11.6329251,3.00225154 11.6329251,3 C11.6329251,2.44771525 11.1852099,2 10.6329251,2 Z" id="Combined-Shape"></path>
                        <path d="M4.60405615,23.9162865 L9.03035553,24.0770279 L9.03035553,24.0770279 L9.03035553,14.6345855 C9.03035553,13.9734273 9.56633016,13.4374527 10.2274884,13.4374527 C10.8886466,13.4374527 11.4246212,13.9734273 11.4246212,14.6345855 L11.4246212,25.8148926 C11.4246212,26.150085 11.152894,26.4218122 10.8177016,26.4218122 C10.8125546,26.4218122 10.8074079,26.4217467 10.8022626,26.4216158 L4.60445168,26.2639027 C3.94805001,26.2471995 3.4246212,25.7102818 3.4246212,25.0536676 C3.4246212,24.4250953 3.93417975,23.9155368 4.56275207,23.9155368 C4.5765235,23.9155368 4.5902938,23.9157867 4.60405615,23.9162865 Z" id="checkmarl" transform="translate(7.424621, 19.937453) rotate(45.000000) translate(-7.424621, -19.937453) "></path>
                    </g>
                </g>
            </g>
        </g>
    </g>
</svg>