<?xml version="1.0" encoding="UTF-8"?>
<svg width="30px" height="50px" viewBox="0 0 30 50" version="1.1" xmlns="http://www.w3.org/2000/svg" xmlns:xlink="http://www.w3.org/1999/xlink">
    <title>icon-checklist-active</title>
    <g id="Page-1-Icons" stroke="none" stroke-width="1" fill="none" fill-rule="evenodd">
        <g id="PECOS-2.0-Icons-Overview-v28" transform="translate(-2549.000000, -819.000000)">
            <g id="RFI-CHECKLIST-ICONS" transform="translate(2537.000000, 737.000000)">
                <g id="icon-checklist-active" transform="translate(12.000000, 82.000000)">
                    <path d="M3.07736944,0 L26.9226306,0 C28.6222148,-3.12208555e-16 30,1.37778523 30,3.07736944 L30,38.5926348 L30,38.5926348 L15.0009405,50 L0,38.5926348 L0,3.07736944 C-2.08139036e-16,1.37778523 1.37778523,1.20038697e-15 3.07736944,0 Z" id="red-marker" fill="#E00F16"></path>
                    <path d="M15.0009405,6 C16.3071925,6 17.4184549,6.8348501 17.8302662,8.00008893 L18.0009405,8 C19.10551,8 20.0009405,8.8954305 20.0009405,10 L22.0009405,10 C23.10551,10 24.0009405,10.8954305 24.0009405,12 L24.0009405,28 C24.0009405,29.1045695 23.10551,30 22.0009405,30 L15.4779405,30 L17.4219405,28 L22.0009405,28 L22.0009405,12 L20.0009405,12 L20.0009405,13 C20.0009405,13.5522847 19.5532252,14 19.0009405,14 L11.0009405,14 C10.4486557,14 10.0009405,13.5522847 10.0009405,13 L10.0009405,12 L8.00094046,12 L8.00215599,25.4886079 C7.4579547,24.9384655 6.71934413,24.6923289 6.00128438,24.7550353 L6.00094046,12 C6.00094046,10.8954305 6.89637096,10 8.00094046,10 L10.0009405,10 C10.0009405,8.8954305 10.896371,8 12.0009405,8 L12.1716147,8.00008893 C12.583426,6.8348501 13.6946884,6 15.0009405,6 Z M13,24 L12.9999405,25.019 L11.9999405,25.969 L12,25 L11,25 L11,26 L11.9669405,26 L10.9139405,27 L10,27 L10,24 L13,24 Z M13.4475755,19.4027758 C13.7226198,19.6033122 13.7830204,19.9888465 13.5824841,20.2638908 C13.5699533,20.2810774 13.5565412,20.2976037 13.5423017,20.3134035 L11.6146461,22.4522875 C11.361658,22.7329975 10.9290102,22.7554705 10.6483002,22.5024824 C10.6356483,22.4910799 10.6234266,22.4792091 10.6116605,22.4668946 L9.43549072,21.2359014 C9.20518975,20.9948657 9.21389197,20.6127719 9.45492767,20.3824709 L9.47424713,20.3647973 L9.47424713,20.3647973 C9.73804795,20.1337779 10.137952,20.1552937 10.3754429,20.4132838 L11.1210236,21.2232196 L12.4687196,19.5343758 C12.7071744,19.2355599 13.138667,19.1775489 13.4475755,19.4027758 Z M19.2509405,20 C19.665154,20 20.0009405,20.3357864 20.0009405,20.75 C20.0009405,21.1642136 19.665154,21.5 19.2509405,21.5 L15.7509405,21.5 C15.3367269,21.5 15.0009405,21.1642136 15.0009405,20.75 C15.0009405,20.3357864 15.3367269,20 15.7509405,20 L19.2509405,20 Z M13.4475755,15.4027758 C13.7226198,15.6033122 13.7830204,15.9888465 13.5824841,16.2638908 C13.5699533,16.2810774 13.5565412,16.2976037 13.5423017,16.3134035 L11.6146461,18.4522875 C11.361658,18.7329975 10.9290102,18.7554705 10.6483002,18.5024824 C10.6356483,18.4910799 10.6234266,18.4792091 10.6116605,18.4668946 L9.43549072,17.2359014 C9.20518975,16.9948657 9.21389197,16.6127719 9.45492767,16.3824709 L9.47424713,16.3647973 L9.47424713,16.3647973 C9.73804795,16.1337779 10.137952,16.1552937 10.3754429,16.4132838 L11.1210236,17.2232196 L12.4687196,15.5343758 C12.7071744,15.2355599 13.138667,15.1775489 13.4475755,15.4027758 Z M19.2509405,16 C19.665154,16 20.0009405,16.3357864 20.0009405,16.75 C20.0009405,17.1642136 19.665154,17.5 19.2509405,17.5 L15.7509405,17.5 C15.3367269,17.5 15.0009405,17.1642136 15.0009405,16.75 C15.0009405,16.3357864 15.3367269,16 15.7509405,16 L19.2509405,16 Z M15.0009405,8 C14.4486557,8 14.0009405,8.44771525 14.0009405,9 L14.0009405,10 L14.0009405,10 L13.0009405,10 C12.4486557,10 12.0009405,10.4477153 12.0009405,11 L12.0009405,11 L12.0009405,12 L18.0009405,12 L18.0009405,11 C18.0009405,10.4477153 17.5532252,10 17.0009405,10 L17.0009405,10 L15.9949674,10 C15.9975014,9.59151837 15.9992292,9.30799338 16.0001506,9.149425 L16.0008911,9.01440503 C16.000924,9.00705322 16.0009405,9.00225154 16.0009405,9 C16.0009405,8.44771525 15.5532252,8 15.0009405,8 Z" id="Combined-Shape" fill="#FFFFFF"></path>
                    <path d="M8.97207146,29.9162865 L13.3983708,30.0770279 L13.3983708,30.0770279 L13.3983708,20.6345855 C13.3983708,19.9734273 13.9343455,19.4374527 14.5955037,19.4374527 C15.2566619,19.4374527 15.7926365,19.9734273 15.7926365,20.6345855 L15.7926365,31.8148926 C15.7926365,32.150085 15.5209094,32.4218122 15.1857169,32.4218122 C15.18057,32.4218122 15.1754232,32.4217467 15.1702779,32.4216158 L8.97246699,32.2639027 C8.31606532,32.2471995 7.79263651,31.7102818 7.79263651,31.0536676 C7.79263651,30.4250953 8.30219506,29.9155368 8.93076739,29.9155368 C8.94453881,29.9155368 8.95830911,29.9157867 8.97207146,29.9162865 Z" id="checkmarl" fill="#FFFFFF" transform="translate(11.792637, 25.937453) rotate(45.000000) translate(-11.792637, -25.937453) "></path>
                </g>
            </g>
        </g>
    </g>
</svg>