<?xml version="1.0" encoding="UTF-8"?>
<svg width="30px" height="50px" viewBox="0 0 30 50" version="1.1" xmlns="http://www.w3.org/2000/svg" xmlns:xlink="http://www.w3.org/1999/xlink">
    <title>icon-checklist-normal-close</title>
    <g id="Page-1-Icons" stroke="none" stroke-width="1" fill="none" fill-rule="evenodd">
        <g id="PECOS-2.0-Icons-Overview-v28" transform="translate(-2559.000000, -1199.000000)">
            <g id="RFI-CHECKLIST-ICONS" transform="translate(2537.000000, 737.000000)">
                <g id="icon-checklist-normal-close" transform="translate(22.000000, 462.000000)">
                    <path d="M26.9226306,0.5 C27.6343515,0.5 28.2786938,0.788481901 28.745106,1.25489403 C29.2115181,1.72130616 29.5,2.36564852 29.5,3.07736944 L29.5,3.07736944 L29.5,38.3447284 L15.0009215,49.3718387 L0.5,38.3447096 L0.5,3.07736944 C0.5,2.36564852 0.788481901,1.72130616 1.25489403,1.25489403 C1.72130616,0.788481901 2.36564852,0.5 3.07736944,0.5 L3.07736944,0.5 Z" id="white-marker" stroke="#C3C3C3" fill="#FFFFFF" transform="translate(15.000000, 25.000000) scale(1, -1) translate(-15.000000, -25.000000) "></path>
                    <path d="M15,12 C16.3062521,12 17.4175144,12.8348501 17.8293257,14.0000889 L18,14 C19.1045695,14 20,14.8954305 20,16 L22,16 C23.1045695,16 24,16.8954305 24,18 L24,34 C24,35.1045695 23.1045695,36 22,36 L8,36 C6.8954305,36 6,35.1045695 6,34 L6,18 C6,16.8954305 6.8954305,16 8,16 L10,16 C10,14.8954305 10.8954305,14 12,14 L12.1706743,14.0000889 C12.5824856,12.8348501 13.6937479,12 15,12 Z M10,18 L8,18 L8,34 L22,34 L22,18 L20,18 L20,19 C20,19.5522847 19.5522847,20 19,20 L11,20 C10.4477153,20 10,19.5522847 10,19 L10,18 Z M13.5,29 L13.5,32 L10.5,32 L10.5,29 L13.5,29 Z M19.25,30 C19.6642136,30 20,30.3357864 20,30.75 C20,31.1642136 19.6642136,31.5 19.25,31.5 L15.75,31.5 C15.3357864,31.5 15,31.1642136 15,30.75 C15,30.3357864 15.3357864,30 15.75,30 L19.25,30 Z M12.5,30 L11.5,30 L11.5,31 L12.5,31 L12.5,30 Z M13.5,25 L13.5,28 L10.5,28 L10.5,25 L13.5,25 Z M19.25,26 C19.6642136,26 20,26.3357864 20,26.75 C20,27.1642136 19.6642136,27.5 19.25,27.5 L15.75,27.5 C15.3357864,27.5 15,27.1642136 15,26.75 C15,26.3357864 15.3357864,26 15.75,26 L19.25,26 Z M12.5,26 L11.5,26 L11.5,27 L12.5,27 L12.5,26 Z M13.5,21 L13.5,24 L10.5,24 L10.5,21 L13.5,21 Z M19.25,22 C19.6642136,22 20,22.3357864 20,22.75 C20,23.1642136 19.6642136,23.5 19.25,23.5 L15.75,23.5 C15.3357864,23.5 15,23.1642136 15,22.75 C15,22.3357864 15.3357864,22 15.75,22 L19.25,22 Z M12.5,22 L11.5,22 L11.5,23 L12.5,23 L12.5,22 Z M15,14 C14.4477153,14 14,14.4477153 14,15 L14,16 L14,16 L13,16 C12.4477153,16 12,16.4477153 12,17 L12,17 L12,18 L18,18 L18,17 C18,16.4477153 17.5522847,16 17,16 L17,16 L15.9940269,16 C15.996561,15.5915184 15.9982887,15.3079934 15.9992102,15.149425 L15.9999506,15.014405 C15.9999835,15.0070532 16,15.0022515 16,15 C16,14.4477153 15.5522847,14 15,14 Z" id="icon-checklist-gray" fill="#848484"></path>
                </g>
            </g>
        </g>
    </g>
</svg>