<?xml version="1.0" encoding="UTF-8"?>
<svg width="30px" height="50px" viewBox="0 0 30 50" version="1.1" xmlns="http://www.w3.org/2000/svg" xmlns:xlink="http://www.w3.org/1999/xlink">
    <title>icon-checklist-normal</title>
    <g id="Page-1-Icons" stroke="none" stroke-width="1" fill="none" fill-rule="evenodd">
        <g id="PECOS-2.0-Icons-Overview-v28" transform="translate(-2548.000000, -763.000000)">
            <g id="RFI-CHECKLIST-ICONS" transform="translate(2537.000000, 737.000000)">
                <g id="icon-checklist-normal" transform="translate(11.000000, 26.000000)">
                    <path d="M26.9226306,0.5 C27.6343515,0.5 28.2786938,0.788481901 28.745106,1.25489403 C29.2115181,1.72130616 29.5,2.36564852 29.5,3.07736944 L29.5,3.07736944 L29.5,38.3447284 L15.0009215,49.3718387 L0.5,38.3447096 L0.5,3.07736944 C0.5,2.36564852 0.788481901,1.72130616 1.25489403,1.25489403 C1.72130616,0.788481901 2.36564852,0.5 3.07736944,0.5 L3.07736944,0.5 Z" id="white-marker" stroke="#C3C3C3" fill="#FFFFFF"></path>
                    <path d="M15,6 C16.3062521,6 17.4175144,6.8348501 17.8293257,8.00008893 L18,8 C19.1045695,8 20,8.8954305 20,10 L22,10 C23.1045695,10 24,10.8954305 24,12 L24,28 C24,29.1045695 23.1045695,30 22,30 L8,30 C6.8954305,30 6,29.1045695 6,28 L6,12 C6,10.8954305 6.8954305,10 8,10 L10,10 C10,8.8954305 10.8954305,8 12,8 L12.1706743,8.00008893 C12.5824856,6.8348501 13.6937479,6 15,6 Z M10,12 L8,12 L8,28 L22,28 L22,12 L20,12 L20,13 C20,13.5522847 19.5522847,14 19,14 L11,14 C10.4477153,14 10,13.5522847 10,13 L10,12 Z M13.5,23 L13.5,26 L10.5,26 L10.5,23 L13.5,23 Z M19.25,24 C19.6642136,24 20,24.3357864 20,24.75 C20,25.1642136 19.6642136,25.5 19.25,25.5 L15.75,25.5 C15.3357864,25.5 15,25.1642136 15,24.75 C15,24.3357864 15.3357864,24 15.75,24 L19.25,24 Z M12.5,24 L11.5,24 L11.5,25 L12.5,25 L12.5,24 Z M13.5,19 L13.5,22 L10.5,22 L10.5,19 L13.5,19 Z M19.25,20 C19.6642136,20 20,20.3357864 20,20.75 C20,21.1642136 19.6642136,21.5 19.25,21.5 L15.75,21.5 C15.3357864,21.5 15,21.1642136 15,20.75 C15,20.3357864 15.3357864,20 15.75,20 L19.25,20 Z M12.5,20 L11.5,20 L11.5,21 L12.5,21 L12.5,20 Z M13.5,15 L13.5,18 L10.5,18 L10.5,15 L13.5,15 Z M19.25,16 C19.6642136,16 20,16.3357864 20,16.75 C20,17.1642136 19.6642136,17.5 19.25,17.5 L15.75,17.5 C15.3357864,17.5 15,17.1642136 15,16.75 C15,16.3357864 15.3357864,16 15.75,16 L19.25,16 Z M12.5,16 L11.5,16 L11.5,17 L12.5,17 L12.5,16 Z M15,8 C14.4477153,8 14,8.44771525 14,9 L14,10 L14,10 L13,10 C12.4477153,10 12,10.4477153 12,11 L12,11 L12,12 L18,12 L18,11 C18,10.4477153 17.5522847,10 17,10 L17,10 L15.9940269,10 C15.996561,9.59151837 15.9982887,9.30799338 15.9992102,9.149425 L15.9999506,9.01440503 C15.9999835,9.00705322 16,9.00225154 16,9 C16,8.44771525 15.5522847,8 15,8 Z" id="icon-checklist-gray" fill="#848484"></path>
                </g>
            </g>
        </g>
    </g>
</svg>