<?xml version="1.0" encoding="UTF-8"?>
<svg width="20px" height="20px" viewBox="0 0 20 20" version="1.1" xmlns="http://www.w3.org/2000/svg" xmlns:xlink="http://www.w3.org/1999/xlink">
    <title>icon-compare</title>
    <g id="Page-1-Icons" stroke="none" stroke-width="1" fill="none" fill-rule="evenodd">
        <g id="PECOS-2.0-Icons-Overview-v28" transform="translate(-1911.000000, -769.000000)" fill="#000000">
            <g id="COMPARE-ICONS" transform="translate(1895.000000, 737.000000)">
                <g id="icon-compare" transform="translate(16.000000, 32.000000)">
                    <path d="M12.5165427,10.4988864 C12.8993827,10.1368653 13.4974471,10.1340108 13.8837253,10.4923609 L13.8837253,10.4923609 L16.8076257,13.2048615 C16.821949,13.2181492 16.8358798,13.2318539 16.8494001,13.2459577 C17.23159,13.6446423 17.2182184,14.2776661 16.8195339,14.6598559 L16.8195339,14.6598559 L13.8924788,17.4658106 C13.4998674,17.8421785 12.8784451,17.8357622 12.4936888,17.4513677 L12.4936888,17.4513677 L12.4649641,17.422502 L12.4649641,17.422502 L12.4544562,17.4114997 C12.0862673,17.019906 12.1052405,16.4039805 12.4968341,16.0357915 L12.4968341,16.0357915 L13.6145193,14.985473 L7.15133776,14.9855957 C6.59905301,14.9855957 6.15133776,14.5378805 6.15133776,13.9855957 C6.15133776,13.433311 6.59905301,12.9855957 7.15133776,12.9855957 L7.15133776,12.9855957 L13.7765193,12.985473 L12.5036197,11.8617252 C12.4834461,11.8438995 12.4640818,11.8251783 12.4455852,11.8056179 C12.1038045,11.4441824 12.1197379,10.874113 12.4811734,10.5323323 L12.4811734,10.5323323 Z M7.67028806,2.53404265 L7.70565734,2.56748854 C8.06709289,2.90926923 8.08302631,3.47933863 7.74124562,3.84077419 C7.722749,3.86033451 7.70338472,3.87905573 7.68321111,3.89688147 L6.41031146,5.02062923 L13.035493,5.02075195 C13.5877778,5.02075195 14.035493,5.4684672 14.035493,6.02075195 C14.035493,6.5730367 13.5877778,7.02075195 13.035493,7.02075195 L6.57231146,7.02062923 L7.68999665,8.07094778 C8.0815903,8.43913677 8.10056353,9.05506229 7.73237455,9.44665595 C7.72542661,9.45404554 7.71836358,9.46132607 7.71118804,9.46849486 L7.69314196,9.48652397 C7.30838564,9.87091843 6.68696336,9.87733477 6.29435198,9.50096681 L3.36729691,6.69501216 C2.96861237,6.3128223 2.95524079,5.67979854 3.33743064,5.281114 C3.35095101,5.26701011 3.36488182,5.25330548 3.37920512,5.24001776 L6.30310547,2.52751711 C6.68938372,2.16916701 7.28744813,2.17202156 7.67028806,2.53404265 Z"></path>
                </g>
            </g>
        </g>
    </g>
</svg>