<?xml version="1.0" encoding="UTF-8"?>
<svg width="20px" height="20px" viewBox="0 0 20 20" version="1.1" xmlns="http://www.w3.org/2000/svg" xmlns:xlink="http://www.w3.org/1999/xlink">
    <title>icon-update-white</title>
    <g id="Page-1-Icons" stroke="none" stroke-width="1" fill="none" fill-rule="evenodd">
        <g id="PECOS-2.0-Icons-Overview-v28" transform="translate(-1911.000000, -822.000000)" fill="#FFFFFF">
            <g id="COMPARE-ICONS" transform="translate(1895.000000, 737.000000)">
                <g id="icon-update-white" transform="translate(26.000000, 95.000000) scale(-1, 1) translate(-26.000000, -95.000000) translate(16.000000, 85.000000)">
                    <path d="M17,11 C17.5522848,11 18,11.4477153 18,12 L18,16.1798096 C18,16.7320943 17.5522848,17.1798096 17,17.1798096 L16.9907227,17.1798096 C16.4384379,17.1798096 15.9907227,16.7320943 15.9907227,16.1798096 L15.9904867,14.2606061 C14.6921985,16.496511 12.2716786,18 9.5,18 C6.37079506,18 3.68918559,16.083616 2.56477801,13.3604544 C2.52800546,13.2465701 2.50469971,13.1260067 2.50469971,13 C2.50469971,12.4477153 2.95241496,12 3.50469971,12 C3.88686103,12 4.21895295,12.2143726 4.38728354,12.5294258 C4.38789753,12.5328671 4.38909023,12.5358612 4.39028548,12.5388541 C4.41686175,12.5859466 4.43829169,12.6366391 4.45547624,12.6892514 C5.29963027,14.637777 7.24073302,16 9.5,16 C11.6312086,16 13.4792987,14.7878259 14.392429,13.0153191 L12.8288574,13.0152588 C12.2765727,13.0152588 11.8288574,12.5675435 11.8288574,12.0152588 L11.8288574,12 C11.8288574,11.4477153 12.2765727,11 12.8288574,11 L17,11 Z M3.00927734,2.89074707 C3.56156209,2.89074707 4.00927734,3.33846232 4.00927734,3.89074707 L4.00931371,5.39090842 C5.37860964,3.91999744 7.33186636,3 9.5,3 C12.1451533,3 14.4704764,4.36935549 15.8057463,6.43784324 C15.815201,6.45147164 15.8244777,6.46585352 15.8333893,6.4804822 C15.8486694,6.50501755 15.8637679,6.5290617 15.8787332,6.55319708 C15.9412536,6.68905948 15.9787598,6.84014973 15.9787598,7 C15.9787598,7.55228475 15.5310445,8 14.9787598,8 C14.5773767,8 14.2312264,7.76352026 14.0720334,7.42228533 L14.0618772,7.42666111 C13.0736414,5.96266121 11.3992415,5 9.5,5 C7.78219446,5 6.24832387,5.78751909 5.23972735,7.02121814 L7.19314575,7.02105713 C7.73961574,7.02105713 8.18261719,7.46405858 8.18261719,8.01052856 C8.18261719,8.55699855 7.73961574,9 7.19314575,9 L3,9 C2.44771525,9 2,8.55228475 2,8 L2,3.89074707 C2,3.33846232 2.44771525,2.89074707 3,2.89074707 L3.00927734,2.89074707 Z" id="icon-update"></path>
                </g>
            </g>
        </g>
    </g>
</svg>