<?xml version="1.0" encoding="UTF-8"?>
<svg width="26px" height="36px" viewBox="0 0 26 36" version="1.1" xmlns="http://www.w3.org/2000/svg" xmlns:xlink="http://www.w3.org/1999/xlink">
    <title>icon-step-paused</title>
    <g id="Page-1-Icons" stroke="none" stroke-width="1" fill="none" fill-rule="evenodd">
        <g id="PECOS-2.0-Icons-Overview-v27" transform="translate(-2404.000000, -1133.000000)">
            <g id="STATUS-TRACKER-ICONS" transform="translate(2390.000000, 892.000000)">
                <g id="icon-step-paused" transform="translate(14.000000, 242.000000)">
                    <rect id="Rectangle" stroke="#AAB4BB" stroke-width="2" fill="#E1E7EB" x="1" y="10" width="24" height="24" rx="4"></rect>
                    <g id="icon-paused-timeline" transform="translate(4.000000, 0.000000)">
                        <circle id="Oval" stroke="#FFFFFF" fill="#808B92" cx="9" cy="9" r="9.5"></circle>
                        <path d="M7,4 C7.55228475,4 8,4.44771525 8,5 L8,13 C8,13.5522847 7.55228475,14 7,14 C6.44771525,14 6,13.5522847 6,13 L6,5 C6,4.44771525 6.44771525,4 7,4 Z M11,4 C11.5522847,4 12,4.44771525 12,5 L12,13 C12,13.5522847 11.5522847,14 11,14 C10.4477153,14 10,13.5522847 10,13 L10,5 C10,4.44771525 10.4477153,4 11,4 Z" id="Combined-Shape" fill="#FFFFFF"></path>
                    </g>
                </g>
            </g>
        </g>
    </g>
</svg>