<?xml version="1.0" encoding="UTF-8"?>
<svg width="26px" height="36px" viewBox="0 0 26 36" version="1.1" xmlns="http://www.w3.org/2000/svg" xmlns:xlink="http://www.w3.org/1999/xlink">
    <title>icon-step-in-progress</title>
    <g id="Page-1-Icons" stroke="none" stroke-width="1" fill="none" fill-rule="evenodd">
        <g id="PECOS-2.0-Icons-Overview-v27" transform="translate(-2404.000000, -972.000000)">
            <g id="STATUS-TRACKER-ICONS" transform="translate(2390.000000, 892.000000)">
                <g id="icon-step-in-progress" transform="translate(14.000000, 81.000000)">
                    <rect id="Rectangle" stroke="#0E7B7B" stroke-width="2" fill="#A7EBEB" x="1" y="10" width="24" height="24" rx="4"></rect>
                    <g id="icon-in-progress-timeline" transform="translate(4.000000, 0.000000)">
                        <circle id="Oval" stroke="#FFFFFF" fill="#0E7B7B" cx="9" cy="9" r="9.5"></circle>
                        <path d="M9.44564577,12.7061609 C9.95560083,12.7061609 10.3690011,13.1172649 10.3690011,13.6243874 C10.3690011,14.1315099 9.95560083,14.542614 9.44564577,14.542614 C8.93569072,14.542614 8.52229047,14.1315099 8.52229047,13.6243874 C8.52229047,13.1172649 8.93569072,12.7061609 9.44564577,12.7061609 Z M6.34228375,12.2057991 C6.8522388,12.2057991 7.26563906,12.6169032 7.26563906,13.1240257 C7.26563906,13.6311482 6.8522388,14.0422522 6.34228375,14.0422522 C5.83232869,14.0422522 5.41892844,13.6311482 5.41892844,13.1240257 C5.41892844,12.6169032 5.83232869,12.2057991 6.34228375,12.2057991 Z M4.38860729,10.131719 C4.89856234,10.131719 5.3119626,10.542823 5.3119626,11.0499456 C5.3119626,11.5570681 4.89856234,11.9681721 4.38860729,11.9681721 C3.87865223,11.9681721 3.46525198,11.5570681 3.46525198,11.0499456 C3.46525198,10.542823 3.87865223,10.131719 4.38860729,10.131719 Z M8.56403993,3.54261398 C10.3037187,3.54261398 11.7352086,4.2139079 12.8585095,5.55649574 L14.174032,4.49773082 C14.3808975,4.3311449 14.6836397,4.36379796 14.8502256,4.57066346 C14.9184322,4.65536207 14.9559189,4.76067714 14.9565681,4.86942261 L14.9821342,9.15133617 C14.98372,9.41693303 14.7696967,9.63352736 14.5040999,9.63511316 C14.4687677,9.63532412 14.4335198,9.63164068 14.3989946,9.62412955 L10.1925726,8.70900122 C9.93304186,8.65253899 9.76842228,8.39637605 9.82488451,8.13684527 C9.84823508,8.02951348 9.90762456,7.93340948 9.99317605,7.86451605 L11.3911586,6.73761398 L11.3720002,6.71309575 C10.635947,5.80875936 9.6999602,5.35659117 8.56403993,5.35659117 C7.60864585,5.35659117 6.76920522,5.67645814 6.04571803,6.31619207 C5.68114485,6.63855096 5.14650351,6.67866252 4.73791635,6.41430407 L4.72060717,6.40310493 C4.35102634,6.16398382 4.24526783,5.6705334 4.48438894,5.30095256 C4.51490155,5.25379288 4.55031389,5.20999077 4.59005514,5.17029583 C5.67537799,4.0851746 7.00003958,3.54261398 8.56403993,3.54261398 Z M3.90551392,7.1968015 C4.41546898,7.1968015 4.82886923,7.60790553 4.82886923,8.11502806 C4.82886923,8.62215058 4.41546898,9.03325462 3.90551392,9.03325462 C3.39555887,9.03325462 2.98215861,8.62215058 2.98215861,8.11502806 C2.98215861,7.60790553 3.39555887,7.1968015 3.90551392,7.1968015 Z" id="arrow-circle" fill="#FFFFFF"></path>
                    </g>
                </g>
            </g>
        </g>
    </g>
</svg>