<?xml version="1.0" encoding="UTF-8"?>
<svg width="26px" height="36px" viewBox="0 0 26 36" version="1.1" xmlns="http://www.w3.org/2000/svg" xmlns:xlink="http://www.w3.org/1999/xlink">
    <title>icon-step-completed</title>
    <g id="Page-1-Icons" stroke="none" stroke-width="1" fill="none" fill-rule="evenodd">
        <g id="PECOS-2.0-Icons-Overview-v23" transform="translate(-2452.000000, -852.000000)">
            <g id="STATUS-TRACKER-ICONS" transform="translate(2438.000000, 809.000000)">
                <g id="icon-step-completed" transform="translate(14.000000, 44.000000)">
                    <rect id="Rectangle" fill="#004C4C" x="0" y="9" width="26" height="26" rx="4"></rect>
                    <g id="icon-completed-pass-18-" transform="translate(4.000000, 0.000000)">
                        <circle id="Oval" stroke="#FFFFFF" fill="#37A04C" cx="9" cy="9" r="9.5"></circle>
                        <path d="M6.79898071,10.9252167 L9.42622375,10.9252167 L9.42622375,10.9252167 L9.42622375,4.43797302 C9.42622375,3.81700662 9.92961648,3.31361389 10.5505829,3.31361389 C11.1715493,3.31361389 11.674942,3.81700662 11.674942,4.43797302 L11.674942,12.1635895 C11.674942,12.7158742 11.2272268,13.1635895 10.674942,13.1635895 L6.79898071,13.1635895 C6.18087113,13.1635895 5.67979431,12.6625127 5.67979431,12.0444031 C5.67979431,11.4262935 6.18087113,10.9252167 6.79898071,10.9252167 Z" id="Rectangle" fill="#FFFFFF" transform="translate(8.677368, 8.238602) rotate(45.000000) translate(-8.677368, -8.238602) "></path>
                    </g>
                </g>
            </g>
        </g>
    </g>
</svg>