<?xml version="1.0" encoding="UTF-8"?>
<svg width="26px" height="36px" viewBox="0 0 26 36" version="1.1" xmlns="http://www.w3.org/2000/svg" xmlns:xlink="http://www.w3.org/1999/xlink">
    <title>icon-step-warning</title>
    <g id="Page-1-Icons" stroke="none" stroke-width="1" fill="none" fill-rule="evenodd">
        <g id="PECOS-2.0-Icons-Overview-v25" transform="translate(-2384.000000, -1049.000000)">
            <g id="STATUS-TRACKER-ICONS" transform="translate(2370.000000, 892.000000)">
                <g id="icon-step-warning" transform="translate(14.000000, 158.000000)">
                    <rect id="Rectangle-Copy-142" stroke="#DD6700" stroke-width="2" fill="#FFBF6B" x="1" y="10" width="24" height="24" rx="4"></rect>
                    <path d="M13.0249752,-0.5 C13.5082644,-0.5 13.9309043,-0.376831316 14.2957148,-0.13949414 C14.6492432,0.0905031978 14.9512356,0.431509286 15.1909245,0.893844513 L15.1909245,0.893844513 L22.3406518,15.5998537 C22.5625722,16.2922192 22.5535898,16.9112732 22.3409751,17.4589292 C22.2149366,17.783581 21.9944388,18.0432454 21.6729873,18.2325296 C21.3975261,18.3947328 21.0389873,18.5052829 20.591502,18.5482526 L20.591502,18.5482526 L5.45229235,18.5482526 C4.49168166,18.3539657 3.94341679,17.9722818 3.70165084,17.5094901 C3.46323317,17.0531076 3.42609505,16.4228606 3.67799816,15.6016469 L3.67799816,15.6016469 L10.8949437,0.899835939 C11.1203079,0.436325256 11.412417,0.0944524133 11.7595617,-0.136610739 C12.1181254,-0.375274499 12.5387719,-0.5 13.0249752,-0.5 Z" id="Triangle" stroke="#FFFFFF" fill="#F58900"></path>
                    <path d="M13.0019226,13.4277344 C13.778573,13.4277344 14.4081726,14.0573339 14.4081726,14.8339844 C14.4081726,15.6106348 13.778573,16.2402344 13.0019226,16.2402344 C12.2252722,16.2402344 11.5956726,15.6106348 11.5956726,14.8339844 C11.5956726,14.0573339 12.2252722,13.4277344 13.0019226,13.4277344 Z M13.0019226,3.71678162 C13.72658,3.71678162 14.314031,4.30423254 14.314031,5.02888998 C14.314031,5.05917468 14.3129825,5.08945031 14.3108874,5.11966245 L13.8164215,12.25 L12.1454697,12.25 L11.6860901,5.12012182 C11.6392678,4.3934076 12.190429,3.76633231 12.9171432,3.71950996 C12.9453665,3.71769154 12.9736409,3.71678162 13.0019226,3.71678162 Z" id="exclamation-mark" fill="#FFFFFF"></path>
                </g>
            </g>
        </g>
    </g>
</svg>