<?xml version="1.0" encoding="UTF-8"?>
<svg width="408px" height="447px" viewBox="0 0 408 447" version="1.1" xmlns="http://www.w3.org/2000/svg" xmlns:xlink="http://www.w3.org/1999/xlink">
    <title>illus-app-welcome-shutterstock-1069201229</title>
    <defs>
        <path d="M54.5678917,18.5873598 C53.9978157,20.3921502 51.4815561,20.638913 50.5359324,18.9971301 L50.5359324,18.9971301 C47.6630375,14.0078393 42.6989633,9.15273694 34.8484853,12.3318338 L34.8484853,12.3318338 C26.8692223,15.5640657 24.0908898,21.0351743 23.1902958,25.2157317 L23.1902958,25.2157317 C22.646337,27.7409973 20.1733059,29.4134004 17.6939705,28.691124 L17.6939705,28.691124 C13.8889608,27.5815922 8.65110607,27.1898338 4.21568057,30.9660245 L4.21568057,30.9660245 C-3.82392217,37.8096384 4.21568057,47.9773448 4.21568057,47.9773448 L4.21568057,47.9773448 L152.442648,47.9773448 C152.442648,47.9773448 152.442648,36.095808 145.907037,30.9660245 L145.907037,30.9660245 C141.254568,27.3132152 130.878825,28.8622369 125.289738,30.0573251 L125.289738,30.0573251 C123.822671,30.3707318 122.632085,28.9297814 123.194056,27.5401649 L123.194056,27.5401649 C126.432592,19.5329835 130.460048,0.267476421 94.2210461,0.267476421 L94.2210461,0.267476421 C65.7280527,0.267476421 57.056233,10.7089634 54.5678917,18.5873598" id="path-1"></path>
        <linearGradient x1="99.999935%" y1="50.0007558%" x2="-0.000165609756%" y2="50.0007558%" id="linearGradient-3">
            <stop stop-color="#DBDCDD" offset="0%"></stop>
            <stop stop-color="#BEC0C2" offset="100%"></stop>
        </linearGradient>
        <path d="M29.2485917,27.3537419 C29.8105624,28.7442591 28.6199771,30.1843089 27.15381,29.8709022 L27.15381,29.8709022 C21.5629224,28.6758139 11.1880794,27.1276928 6.53561074,30.7805021 L6.53561074,30.7805021 C0,35.909385 0,47.7909218 0,47.7909218 L0,47.7909218 L148.226967,47.7909218 C148.226967,47.7909218 156.26657,37.6232154 148.226967,30.7805021 L148.226967,30.7805021 C143.792442,27.0034108 138.552786,27.3951692 134.747777,28.5047011 L134.747777,28.5047011 C132.268441,29.227878 129.796311,27.5536738 129.252352,25.0302094 L129.252352,25.0302094 C128.351758,20.849652 125.573425,15.3785433 117.595063,12.1454108 L117.595063,12.1454108 C109.743684,8.96541338 104.77961,13.8223169 101.906715,18.8116077 L101.906715,18.8116077 C100.961092,20.45249 98.444832,20.2066278 97.874756,18.4009368 L97.874756,18.4009368 C95.3864147,10.523441 86.714595,0.081954055 58.2216016,0.081954055 L58.2216016,0.081954055 C21.9825992,0.081954055 26.009155,19.3465606 29.2485917,27.3537419" id="path-4"></path>
        <linearGradient x1="0%" y1="50.0002714%" x2="100.000092%" y2="50.0002714%" id="linearGradient-6">
            <stop stop-color="#DBDCDD" offset="0%"></stop>
            <stop stop-color="#BEC0C2" offset="100%"></stop>
        </linearGradient>
        <polygon id="path-7" points="0 445.794036 406.697448 445.794036 406.697448 0.29629543 0 0.29629543"></polygon>
        <linearGradient x1="50.0001089%" y1="97.5127791%" x2="50.0001089%" y2="-10.7772206%" id="linearGradient-9">
            <stop stop-color="#BEC0C2" offset="0%"></stop>
            <stop stop-color="#DBDCDD" offset="100%"></stop>
        </linearGradient>
        <linearGradient x1="0.000242839657%" y1="49.9910037%" x2="100.000603%" y2="49.9910037%" id="linearGradient-10">
            <stop stop-color="#DBDCDD" offset="0%"></stop>
            <stop stop-color="#BEC0C2" offset="100%"></stop>
        </linearGradient>
        <linearGradient x1="0.000242839657%" y1="50.001106%" x2="100.000603%" y2="50.001106%" id="linearGradient-11">
            <stop stop-color="#DBDCDD" offset="0%"></stop>
            <stop stop-color="#BEC0C2" offset="100%"></stop>
        </linearGradient>
        <linearGradient x1="0.000242839657%" y1="50.0065721%" x2="100.000603%" y2="50.0065721%" id="linearGradient-12">
            <stop stop-color="#DBDCDD" offset="0%"></stop>
            <stop stop-color="#BEC0C2" offset="100%"></stop>
        </linearGradient>
        <polygon id="path-13" points="0 445.794036 406.697448 445.794036 406.697448 0.29629543 0 0.29629543"></polygon>
        <linearGradient x1="49.9987986%" y1="-13.9650412%" x2="49.9987986%" y2="94.5595771%" id="linearGradient-15">
            <stop stop-color="#DBDCDD" offset="0%"></stop>
            <stop stop-color="#BEC0C2" offset="100%"></stop>
        </linearGradient>
        <linearGradient x1="50.000188%" y1="8.48842527%" x2="50.000188%" y2="102.044425%" id="linearGradient-16">
            <stop stop-color="#DBDCDD" offset="0%"></stop>
            <stop stop-color="#BEC0C2" offset="100%"></stop>
        </linearGradient>
        <linearGradient x1="-0.000114184608%" y1="50.0003387%" x2="99.9997643%" y2="50.0003387%" id="linearGradient-17">
            <stop stop-color="#BEC0C2" offset="0%"></stop>
            <stop stop-color="#DBDCDD" offset="100%"></stop>
        </linearGradient>
        <polygon id="path-18" points="0.0418776215 0.29629543 313.267574 0.29629543 313.267574 102.666096 0.0418776215 102.666096"></polygon>
        <polygon id="path-20" points="0.146886883 0.29629543 187.184052 0.29629543 187.184052 83.3763632 0.146886883 83.3763632"></polygon>
        <polygon id="path-22" points="14.3374567 0.369243545 14.3374567 14.2032682 0.502531458 14.2032682 0.502531458 28.2426282 14.3374567 28.2426282 14.3374567 42.0766528 28.3759161 42.0766528 28.3759161 28.2426282 42.2108413 28.2426282 42.2108413 14.2032682 28.3759161 14.2032682 28.3759161 0.369243545"></polygon>
        <linearGradient x1="0.00194096562%" y1="50.0007707%" x2="99.9999812%" y2="50.0007707%" id="linearGradient-24">
            <stop stop-color="#BEC0C2" offset="0%"></stop>
            <stop stop-color="#DBDCDD" offset="100%"></stop>
        </linearGradient>
        <path d="M36.6604804,1.27253934 C32.9536355,2.03714365 29.8321766,4.52458431 28.1192468,7.90001067 L28.1192468,7.90001067 C28.1192468,7.90001067 22.6589453,21.7259299 20.1300773,23.6432946 L20.1300773,23.6432946 C17.6012094,25.5597586 0.868172627,31.3199579 0.868172627,31.3199579 L0.868172627,31.3199579 L0.868172627,35.0123934 C0.868172627,35.0123934 19.7932552,34.6908813 24.5123678,31.4145203 L24.5123678,31.4145203 C29.232381,28.1399605 29.7385149,24.5907195 29.7385149,24.5907195 L29.7385149,24.5907195 L29.7385149,40.301582 L49.2642936,40.301582 L48.7860782,15.9387128 L49.4606231,50.044208 C49.4606231,50.044208 51.8201794,50.2135197 53.6745025,50.044208 L53.6745025,50.044208 C59.9714558,35.5779664 57.2246441,19.0745812 55.5873642,12.1174924 L55.5873642,12.1174924 C54.5471781,7.69647642 51.6031363,3.89146672 47.4486961,2.06145969 L47.4486961,2.06145969 C45.7618835,1.31756904 43.7562606,0.822242332 41.4057103,0.822242332 L41.4057103,0.822242332 C39.5766038,0.822242332 38.0059679,0.995156383 36.6604804,1.27253934" id="path-25"></path>
        <linearGradient x1="35.2547454%" y1="6.61382082%" x2="69.4160779%" y2="113.193028%" id="linearGradient-27">
            <stop stop-color="#DBDCDD" offset="0%"></stop>
            <stop stop-color="#BEC0C2" offset="100%"></stop>
        </linearGradient>
        <path d="M4.1508378,35.7202603 L15.7612958,35.7202603 C15.7612958,35.7202603 15.3623326,22.7336946 18.4927974,15.9891461 L18.4927974,15.9891461 C19.192559,14.4779493 19.1817518,12.7316975 18.5180141,11.2042901 L18.5180141,11.2042901 C16.7429433,7.11919566 11.6482829,0.803329858 11.6482829,0.803329858 L11.6482829,0.803329858 C11.6482829,0.803329858 10.7170687,0.220645533 6.74274736,0.220645533 L6.74274736,0.220645533 C-5.3234112,2.05875791 4.66507698,26.0415764 4.1508378,35.7202603" id="path-28"></path>
        <linearGradient x1="-0.000997759754%" y1="50.0008963%" x2="100.00022%" y2="50.0008963%" id="linearGradient-30">
            <stop stop-color="#BEC0C2" offset="0%"></stop>
            <stop stop-color="#DBDCDD" offset="100%"></stop>
        </linearGradient>
        <path d="M0.523245121,0.908699357 C0.523245121,1.28965062 0.831248273,1.59855437 1.21219954,1.59855437 L1.21219954,1.59855437 C1.59315081,1.59855437 1.90205455,1.28965062 1.90205455,0.908699357 L1.90205455,0.908699357 C1.90205455,0.527748091 1.59315081,0.219744939 1.21219954,0.219744939 L1.21219954,0.219744939 C0.831248273,0.219744939 0.523245121,0.527748091 0.523245121,0.908699357" id="path-31"></path>
        <linearGradient x1="99.9999673%" y1="49.9769824%" x2="-0.013089484%" y2="49.9769824%" id="linearGradient-33">
            <stop stop-color="#DBDCDD" offset="0%"></stop>
            <stop stop-color="#BEC0C2" offset="100%"></stop>
        </linearGradient>
    </defs>
    <g id="APPLICATION-LEFT-NAV" stroke="none" stroke-width="1" fill="none" fill-rule="evenodd">
        <g id="Application---Welcome" transform="translate(-922.000000, -254.000000)">
            <g id="Application-Screen" transform="translate(67.000000, 108.000000)">
                <g id="Welcome-Section" transform="translate(0.000000, 146.000000)">
                    <g id="illus-app-welcome-shutterstock-1069201229" transform="translate(855.000000, 0.000000)">
                        <g id="Group-3" transform="translate(245.862165, 92.464888)">
                            <mask id="mask-2" fill="white">
                                <use xlink:href="#path-1"></use>
                            </mask>
                            <g id="Clip-2"></g>
                            <path d="M54.5678917,18.5873598 C53.9978157,20.3921502 51.4815561,20.638913 50.5359324,18.9971301 L50.5359324,18.9971301 C47.6630375,14.0078393 42.6989633,9.15273694 34.8484853,12.3318338 L34.8484853,12.3318338 C26.8692223,15.5640657 24.0908898,21.0351743 23.1902958,25.2157317 L23.1902958,25.2157317 C22.646337,27.7409973 20.1733059,29.4134004 17.6939705,28.691124 L17.6939705,28.691124 C13.8889608,27.5815922 8.65110607,27.1898338 4.21568057,30.9660245 L4.21568057,30.9660245 C-3.82392217,37.8096384 4.21568057,47.9773448 4.21568057,47.9773448 L4.21568057,47.9773448 L152.442648,47.9773448 C152.442648,47.9773448 152.442648,36.095808 145.907037,30.9660245 L145.907037,30.9660245 C141.254568,27.3132152 130.878825,28.8622369 125.289738,30.0573251 L125.289738,30.0573251 C123.822671,30.3707318 122.632085,28.9297814 123.194056,27.5401649 L123.194056,27.5401649 C126.432592,19.5329835 130.460048,0.267476421 94.2210461,0.267476421 L94.2210461,0.267476421 C65.7280527,0.267476421 57.056233,10.7089634 54.5678917,18.5873598" id="Fill-1" fill="url(#linearGradient-3)" mask="url(#mask-2)"></path>
                        </g>
                        <g id="Group-6" transform="translate(0.000000, 132.091024)">
                            <mask id="mask-5" fill="white">
                                <use xlink:href="#path-4"></use>
                            </mask>
                            <g id="Clip-5"></g>
                            <path d="M29.2485917,27.3537419 C29.8105624,28.7442591 28.6199771,30.1843089 27.15381,29.8709022 L27.15381,29.8709022 C21.5629224,28.6758139 11.1880794,27.1276928 6.53561074,30.7805021 L6.53561074,30.7805021 C0,35.909385 0,47.7909218 0,47.7909218 L0,47.7909218 L148.226967,47.7909218 C148.226967,47.7909218 156.26657,37.6232154 148.226967,30.7805021 L148.226967,30.7805021 C143.792442,27.0034108 138.552786,27.3951692 134.747777,28.5047011 L134.747777,28.5047011 C132.268441,29.227878 129.796311,27.5536738 129.252352,25.0302094 L129.252352,25.0302094 C128.351758,20.849652 125.573425,15.3785433 117.595063,12.1454108 L117.595063,12.1454108 C109.743684,8.96541338 104.77961,13.8223169 101.906715,18.8116077 L101.906715,18.8116077 C100.961092,20.45249 98.444832,20.2066278 97.874756,18.4009368 L97.874756,18.4009368 C95.3864147,10.523441 86.714595,0.081954055 58.2216016,0.081954055 L58.2216016,0.081954055 C21.9825992,0.081954055 26.009155,19.3465606 29.2485917,27.3537419" id="Fill-4" fill="url(#linearGradient-6)" mask="url(#mask-5)"></path>
                        </g>
                        <g id="Group-33" transform="translate(0.000000, 0.604299)">
                            <path d="M124.04989,331.315298 C124.04989,331.315298 126.17169,256.230974 75.7609402,234.158316 C9.09086613,301.398466 75.3980008,366.788796 75.3980008,366.788796 L124.04989,331.315298 Z" id="Fill-7" fill="#003F5F"></path>
                            <path d="M75.7608501,234.158406 C75.5284969,234.39256 75.304249,234.626714 75.0754981,234.859968 L94.7552784,321.148582 L46.1205,295.043964 C46.0925816,295.659971 46.071868,296.271474 46.058359,296.881176 L95.2415992,323.280288 L100.919844,348.179912 L102.3689,347.123515 L91.0484335,297.486375 L91.0493341,297.486375 L113.037337,274.243845 C112.801381,273.696284 112.563624,273.149623 112.316862,272.604764 L90.6071424,295.553701 L76.7046727,234.593392 C76.3894648,234.449297 76.080561,234.297998 75.7608501,234.158406 Z" id="Fill-9" fill="#108B8B"></path>
                            <path d="M110.618792,329.113976 C110.618792,329.113976 65.478318,269.33885 13.3717497,277.273984 C-8.89723842,336.618626 53.5139266,371.514843 53.5139266,371.514843 L118.580043,379.073528 L110.618792,329.113976 Z" id="Fill-11" fill="#FFCF51"></path>
                            <path d="M69.9500375,291.996084 L63.7071198,324.620102 L14.6076349,277.111066 C14.1960634,277.165102 13.7844919,277.211933 13.3720199,277.274074 C13.2846623,277.508228 13.209913,277.73788 13.1243565,277.971133 L39.4217017,303.416517 L8.6619132,305.881442 C8.6772233,306.173235 8.70243993,306.462326 8.72135241,306.754118 L8.78349339,307.525027 L40.9995424,304.943024 L84.8242482,347.347493 L30.9777322,353.395882 C31.4622518,353.902916 31.9467714,354.404547 32.4294898,354.891769 L86.3606615,348.834373 L117.479787,378.944833 L118.580313,379.072718 L118.323644,377.465157 L65.1255553,325.990806 L71.4450235,292.96062 C70.9505974,292.637307 70.4516683,292.314894 69.9500375,291.996084" id="Fill-13" fill="#FEFEFE"></path>
                            <path d="M92.1531021,355.812536 C92.1531021,355.812536 32.5454863,336.950495 6.24724054,369.683485 C34.7861642,450.538815 139.648629,419.945637 139.648629,419.945637 L92.1531021,355.812536 Z" id="Fill-15" fill="#108B8B"></path>
                            <path d="M6.24796101,369.685556 C6.35783348,369.997162 6.47310952,370.302463 6.58478317,370.609566 L89.0377673,389.866967 L52.8329874,418.386979 C53.4345842,418.619332 54.0370816,418.84358 54.6413802,419.062424 L91.0938234,390.346984 L123.299065,397.868745 L121.781564,395.819894 L59.0804081,381.175335 L40.4318079,351.507967 C39.84372,351.601628 39.2574333,351.701594 38.6711466,351.807864 L56.7965017,380.642183 L6.84235306,368.975888 C6.64422238,369.211844 6.44248932,369.441495 6.24796101,369.682854 L6.24796101,369.685556 Z" id="Fill-17" fill="#006669"></path>
                            <path d="M281.454631,222.699157 C281.454631,222.699157 292.716559,159.67739 338.612631,150.008612 C382.574227,217.689153 315.895147,260.744751 315.895147,260.744751 L281.454631,222.699157 Z" id="Fill-19" fill="#FFCF51"></path>
                            <path d="M338.612451,150.008252 C338.765552,150.244208 338.912349,150.477462 339.062748,150.712517 L307.664438,219.299955 L352.777894,205.959456 C352.69504,206.477298 352.605881,206.991537 352.511318,207.503074 L306.889027,220.994873 L297.829051,240.787228 L296.802374,239.65338 L314.864688,200.199257 L314.863787,200.199257 L300.549746,176.988247 C300.842439,176.572173 301.136033,176.156999 301.43503,175.745428 L315.568052,198.661943 L337.749682,150.208184 C338.037872,150.142441 338.321559,150.069492 338.612451,150.008252" id="Fill-21" fill="#FEFEFE"></path>
                            <path d="M302.718016,218.149987 C302.718016,218.149987 350.760203,176.104855 392.862974,191.770688 C401.145737,245.155199 343.009691,263.442661 343.009691,263.442661 L287.403415,258.456072 L302.718016,218.149987 Z" id="Fill-23" fill="#003F5F"></path>
                            <path d="M343.096058,194.234983 L342.64306,222.541553 L391.859622,191.419726 C392.194643,191.536803 392.529664,191.646676 392.862883,191.770958 C392.895305,191.980796 392.91782,192.186132 392.94844,192.395069 L366.588954,209.063263 L391.8272,216.458941 C391.764159,216.700301 391.693912,216.937157 391.627268,217.176715 L391.441746,217.809832 L365.00661,210.063823 L321.077435,237.841745 L364.959779,252.233237 C364.467154,252.573662 363.976331,252.906882 363.489109,253.231095 L319.53742,238.815287 L288.343545,258.540097 L287.403325,258.456342 L287.89685,257.159487 L341.221922,223.439446 L341.681225,194.780743 C342.150435,194.596121 342.622346,194.415102 343.096058,194.234983" id="Fill-25" fill="#006669"></path>
                            <path d="M311.924428,248.676972 C311.924428,248.676972 364.937895,243.283314 381.200821,275.16164 C343.353358,337.677274 261.161546,293.949833 261.161546,293.949833 L311.924428,248.676972 Z" id="Fill-27" fill="#006669"></path>
                            <path d="M381.200731,275.163622 C381.054835,275.40408 380.906237,275.638235 380.75944,275.876892 L308.613755,277.634852 L333.874516,307.716493 C333.333259,307.806552 332.790201,307.889407 332.248944,307.966858 L306.814368,277.67808 L278.635682,278.365233 L280.257652,276.917979 L335.120038,275.581497 L355.830998,254.062704 C356.304711,254.242823 356.776622,254.428345 357.246732,254.618371 L337.119356,275.532865 L380.827885,274.468363 C380.952167,274.698915 381.080052,274.925865 381.200731,275.16092 L381.200731,275.163622 Z" id="Fill-29" fill="#108B8B"></path>
                            <mask id="mask-8" fill="white">
                                <use xlink:href="#path-7"></use>
                            </mask>
                            <g id="Clip-32"></g>
                            <polygon id="Fill-31" fill="#57C4C4" mask="url(#mask-8)" points="87.2792674 426.501511 315.866238 426.501511 315.866238 119.588078 87.2792674 119.588078"></polygon>
                        </g>
                        <polygon id="Fill-34" fill="url(#linearGradient-9)" points="220.390665 223.147383 283.553826 223.147383 283.553826 136.656135 220.390665 136.656135"></polygon>
                        <g id="Group-40" transform="translate(219.744939, 149.202310)" fill="#003F5F">
                            <path d="M63.6718165,73.7643233 C63.7294545,72.9790053 63.7861919,72.1927867 63.7861919,71.3912581 C63.7861919,53.0137367 49.6558719,38.1161105 32.2275766,38.1161105 C14.7974801,38.1161105 0.668961232,53.0137367 0.668961232,71.3912581 C0.668961232,72.1927867 0.72479806,72.9790053 0.782436077,73.7643233 L63.6718165,73.7643233 Z" id="Fill-36"></path>
                            <path d="M50.5059426,18.8491625 C50.5059426,8.75440421 42.3222448,0.570706425 32.2274865,0.570706425 C22.1327282,0.570706425 13.9481299,8.75440421 13.9481299,18.8491625 C13.9481299,28.9439208 22.1327282,37.1276185 32.2274865,37.1276185 C42.3222448,37.1276185 50.5059426,28.9439208 50.5059426,18.8491625" id="Fill-38"></path>
                        </g>
                        <polygon id="Fill-41" fill="url(#linearGradient-10)" points="119.666429 259.661967 193.24496 259.661967 193.24496 254.744724 119.666429 254.744724"></polygon>
                        <polygon id="Fill-43" fill="url(#linearGradient-11)" points="119.666429 272.748499 193.24496 272.748499 193.24496 267.830355 119.666429 267.830355"></polygon>
                        <polygon id="Fill-45" fill="url(#linearGradient-12)" points="119.666429 286.293433 193.24496 286.293433 193.24496 281.375289 119.666429 281.375289"></polygon>
                        <g id="Group-51" transform="translate(0.000000, 0.604299)">
                            <path d="M226.202648,240.536502 C225.109327,242.420545 222.695735,243.061768 220.812593,241.968447 C218.92855,240.875126 218.287327,238.461534 219.379748,236.577491 C220.473069,234.694349 222.88576,234.053126 224.769803,235.146447 C226.654746,236.238868 227.295969,238.651559 226.202648,240.536502" id="Fill-47" fill="#108B8B"></path>
                            <mask id="mask-14" fill="white">
                                <use xlink:href="#path-13"></use>
                            </mask>
                            <g id="Clip-50"></g>
                            <polygon id="Fill-49" fill="#108B8B" mask="url(#mask-14)" points="222.289117 240.726978 279.052657 240.726978 279.052657 235.808834 222.289117 235.808834"></polygon>
                        </g>
                        <polygon id="Fill-52" fill="url(#linearGradient-15)" points="216.163276 285.346908 242.947843 285.346908 242.947843 261.281235 216.163276 261.281235"></polygon>
                        <polygon id="Fill-54" fill="url(#linearGradient-16)" points="260.997548 285.346908 287.781214 285.346908 287.781214 261.281235 260.997548 261.281235"></polygon>
                        <g id="Group-75" transform="translate(118.878410, 299.601510)">
                            <polygon id="Fill-56" fill="#108B8B" points="0.858266093 2.43160383 72.4762037 2.43160383 72.4762037 0.000900594011 0.858266093 0.000900594011"></polygon>
                            <polygon id="Fill-58" fill="#108B8B" points="0.858266093 10.3154038 72.4762037 10.3154038 72.4762037 7.88470057 0.858266093 7.88470057"></polygon>
                            <polygon id="Fill-59" fill="#108B8B" points="0.858266093 18.2001044 72.4762037 18.2001044 72.4762037 15.7694011 0.858266093 15.7694011"></polygon>
                            <polygon id="Fill-60" fill="#108B8B" points="0.858266093 26.0830038 72.4762037 26.0830038 72.4762037 23.6523005 0.858266093 23.6523005"></polygon>
                            <polygon id="Fill-61" fill="#108B8B" points="0.858266093 33.9668037 72.4762037 33.9668037 72.4762037 31.5361005 0.858266093 31.5361005"></polygon>
                            <polygon id="Fill-62" fill="#108B8B" points="0.858266093 41.8515043 72.4762037 41.8515043 72.4762037 39.4208011 0.858266093 39.4208011"></polygon>
                            <polygon id="Fill-63" fill="#108B8B" points="0.858266093 49.7353043 72.4762037 49.7353043 72.4762037 47.304601 0.858266093 47.304601"></polygon>
                            <polygon id="Fill-64" fill="#108B8B" points="0.858266093 57.6200048 72.4762037 57.6200048 72.4762037 55.1893016 0.858266093 55.1893016"></polygon>
                            <polygon id="Fill-65" fill="#108B8B" points="90.5268094 69.4276929 162.144747 69.4276929 162.144747 66.9969897 90.5268094 66.9969897"></polygon>
                            <polygon id="Fill-66" fill="#108B8B" points="90.5268094 2.43160383 162.144747 2.43160383 162.144747 0.000900594011 90.5268094 0.000900594011"></polygon>
                            <polygon id="Fill-67" fill="#108B8B" points="90.5268094 10.3154038 162.144747 10.3154038 162.144747 7.88470057 90.5268094 7.88470057"></polygon>
                            <polygon id="Fill-68" fill="#108B8B" points="90.5268094 18.2001044 162.144747 18.2001044 162.144747 15.7694011 90.5268094 15.7694011"></polygon>
                            <polygon id="Fill-69" fill="#108B8B" points="90.5268094 26.0830038 162.144747 26.0830038 162.144747 23.6523005 90.5268094 23.6523005"></polygon>
                            <polygon id="Fill-70" fill="#108B8B" points="90.5268094 33.9668037 162.144747 33.9668037 162.144747 31.5361005 90.5268094 31.5361005"></polygon>
                            <polygon id="Fill-71" fill="#108B8B" points="90.5268094 41.8515043 162.144747 41.8515043 162.144747 39.4208011 90.5268094 39.4208011"></polygon>
                            <polygon id="Fill-72" fill="#108B8B" points="90.5268094 49.7353043 162.144747 49.7353043 162.144747 47.304601 90.5268094 47.304601"></polygon>
                            <polygon id="Fill-73" fill="#108B8B" points="90.5268094 57.6200048 162.144747 57.6200048 162.144747 55.1893016 90.5268094 55.1893016"></polygon>
                            <path d="M147.073576,105.739373 C144.650078,106.077997 136.9518,107.927817 142.077981,105.109858 C145.588497,103.180786 149.205282,102.955637 152.847285,103.576146 C151.185689,104.645152 149.299845,105.427768 147.073576,105.739373 M163.897573,96.1156257 C164.342467,98.0329903 163.846239,100.189913 162.429605,102.582791 C161.810897,102.345034 161.193089,102.135196 160.574381,101.910048 C161.851424,100.113363 162.948347,98.1527693 163.897573,96.1156257 M177.119194,94.0442595 C174.114812,93.3102753 174.142731,93.3453985 171.102325,93.8929597 C169.717212,94.1424242 169.333559,95.8274356 169.875716,96.9054466 C171.578739,99.7747392 172.236173,102.849367 171.963293,106.105915 C170.697058,105.695244 169.456039,105.270164 168.247442,104.817165 C170.308902,100.907686 167.690875,93.6714135 165.386255,90.5922826 C164.289332,89.1261156 162.306224,89.3629718 161.637983,91.0822058 C160.438392,94.1685414 158.96592,97.1432035 157.048556,99.6315447 C155.893994,98.4625737 154.938464,97.0882672 154.25041,95.438379 C153.138176,93.5273185 152.427608,91.4505487 151.070413,89.6826827 C148.703652,86.5981482 145.586696,83.9242846 141.538526,83.6279891 C132.889221,82.9930703 130.519758,91.6549835 130.129801,98.6165753 C129.981203,101.253515 134.082508,101.244509 134.230205,98.6165753 C134.159959,95.7562887 134.73814,93.0355942 135.964749,90.4535911 C142.660666,87.5248594 147.112302,88.9234819 149.321459,94.6476574 C150.30851,96.272329 151.048798,97.962744 151.955697,99.5640002 C148.939607,99.0839835 145.772218,98.9660057 142.251796,99.5558948 C137.821774,100.297084 132.075984,103.530216 134.765158,108.87254 C137.141826,113.593454 145.058047,110.41886 149.017058,109.747017 C152.520369,109.152625 155.325719,107.544164 157.640246,105.361124 C159.703507,106.653476 162.064864,107.600901 164.100207,107.391063 C164.134429,107.38746 164.160547,107.375753 164.193869,107.37125 C167.230672,108.662701 170.226948,109.962259 173.129562,110.7836 C174.105806,111.059182 175.480113,110.444977 175.651226,109.350755 C176.305057,105.180104 176.027674,101.620957 174.724514,97.9483345 C175.159501,97.9645452 175.594488,97.9825571 176.028574,97.9987678 C178.592566,98.6264818 179.686787,94.6719735 177.119194,94.0442595" id="Fill-74" fill="#003F5F"></path>
                        </g>
                        <polygon id="Fill-76" fill="url(#linearGradient-17)" points="117.034894 413.369049 198.982644 413.369049 198.982644 373.136813 117.034894 373.136813"></polygon>
                        <g id="Group-92" transform="translate(51.333859, 0.604299)">
                            <polygon id="Fill-78" fill="#F69C82" points="161.956163 312.354462 169.838161 332.951948 174.807639 329.255009 163.704216 310.537964"></polygon>
                            <path d="M162.932407,306.125954 C163.429534,306.739258 163.683502,307.513769 163.644776,308.301789 L163.993306,311.27465 L163.588039,311.735754 L162.193019,312.97317 C162.241651,312.357164 162.311897,312.97317 162.311897,312.97317 L160.068518,309.069996 C160.068518,309.069996 157.35773,307.330949 160.776384,304.765156 C161.104201,304.520195 161.562603,304.465258 161.900326,304.693109 C162.753188,305.264085 162.932407,306.125954 162.932407,306.125954" id="Fill-80" fill="#F69C82"></path>
                            <path d="M179.355099,347.827689 C173.695766,340.232079 169.838522,332.951677 169.838522,332.951677 L174.113641,328.084867 L179.355099,334.195398 L179.355099,347.827689 Z" id="Fill-82" fill="#006669"></path>
                            <g id="Group-86">
                                <mask id="mask-19" fill="white">
                                    <use xlink:href="#path-18"></use>
                                </mask>
                                <g id="Clip-85"></g>
                                <path d="M157.272083,0.311785647 L157.272083,0.295574955 C157.064046,0.295574955 156.862313,0.302779707 156.654276,0.303680301 C156.447139,0.302779707 156.244505,0.295574955 156.037369,0.295574955 L156.037369,0.311785647 C38.4864348,1.12051907 0.0418776215,83.3762731 0.0418776215,83.3762731 C0.0418776215,83.3762731 60.7446158,64.3025925 100.377957,102.666096 C104.602644,100.672181 109.365885,98.9223269 114.350673,97.3931183 C141.929564,88.9293358 171.378988,88.9293358 198.958779,97.3931183 C203.942666,98.9223269 208.705908,100.672181 212.931495,102.666096 C263.750214,60.776767 313.267574,83.3762731 313.267574,83.3762731 C313.267574,83.3762731 274.823017,1.12051907 157.272083,0.311785647" id="Fill-84" fill="#006669" mask="url(#mask-19)"></path>
                            </g>
                            <g id="Group-89" transform="translate(126.083162, 0.000000)">
                                <mask id="mask-21" fill="white">
                                    <use xlink:href="#path-20"></use>
                                </mask>
                                <g id="Clip-88"></g>
                                <path d="M84.5235398,30.4025228 C127.273837,58.5722029 127.895247,80.8150738 127.895247,80.8150738 C161.372127,71.6010965 187.184052,83.3763632 187.184052,83.3763632 C187.184052,83.3763632 148.740396,1.12060913 31.1885613,0.311875706 L31.1885613,0.295665014 C30.9805241,0.296565608 30.778791,0.302869766 30.5716544,0.30377036 C30.3636172,0.302869766 30.1618841,0.296565608 29.9538469,0.295665014 L29.9538469,0.311875706 C19.3826744,0.384823821 9.46533312,1.12781388 0.146886883,2.40035322 C18.3028622,0.671212717 41.7741433,2.23284273 84.5235398,30.4025228" id="Fill-87" fill="#57C4C4" mask="url(#mask-21)"></path>
                            </g>
                            <path d="M135.468702,443.403229 C121.44105,443.403229 110.028722,431.990901 110.028722,417.963249 L110.028722,406.604957 C110.028722,404.615545 111.641686,403.002581 113.631098,403.002581 C115.620511,403.002581 117.233475,404.615545 117.233475,406.604957 L117.233475,417.963249 C117.233475,428.018381 125.41357,436.198477 135.468702,436.198477 C145.523834,436.198477 153.70483,428.018381 153.70483,417.963249 L153.70483,50.7442398 C153.70483,48.7548276 155.317794,47.1418637 157.307206,47.1418637 C159.296618,47.1418637 160.909582,48.7548276 160.909582,50.7442398 L160.909582,417.963249 C160.909582,431.990901 149.496354,443.403229 135.468702,443.403229" id="Fill-90" fill="#006669"></path>
                        </g>
                        <g id="Group-95" transform="translate(134.188508, 132.091024)">
                            <mask id="mask-23" fill="white">
                                <use xlink:href="#path-22"></use>
                            </mask>
                            <g id="Clip-94"></g>
                            <polygon id="Fill-93" fill="url(#linearGradient-24)" mask="url(#mask-23)" points="14.3374567 0.369243545 14.3374567 14.2032682 0.502531458 14.2032682 0.502531458 28.2426282 14.3374567 28.2426282 14.3374567 42.0766528 28.3759161 42.0766528 28.3759161 28.2426282 42.2108413 28.2426282 42.2108413 14.2032682 28.3759161 14.2032682 28.3759161 0.369243545"></polygon>
                        </g>
                        <g id="Group-125" transform="translate(83.755243, 186.126665)">
                            <polygon id="Fill-96" fill="#006669" points="29.1360175 12.4083843 117.028589 12.4083843 117.028589 0.419676809 29.1360175 0.419676809"></polygon>
                            <polygon id="Fill-98" fill="#108B8B" points="29.1360175 34.1694374 117.028589 34.1694374 117.028589 22.1816305 29.1360175 22.1816305"></polygon>
                            <polygon id="Fill-99" fill="#003F5F" points="29.1360175 55.9304905 117.028589 55.9304905 117.028589 43.941783 29.1360175 43.941783"></polygon>
                            <path d="M159.246545,251.579316 L156.73659,252.014303 C156.217848,248.90185 148.411499,234.142915 147.777481,226.476159 C147.072316,217.965545 145.094611,208.490396 145.094611,208.490396 L153.490849,205.993949 C153.490849,205.993949 155.617152,205.993949 153.281911,223.33939 C158.531474,230.229834 159.940003,245.867749 159.246545,251.579316" id="Fill-100" fill="#F69C82"></path>
                            <path d="M153.063697,199.685198 C153.063697,199.685198 151.092297,211.550524 148.349088,224.240794 C151.213877,231.902147 146.847797,253.286752 146.766744,253.210202 C146.438027,252.900397 144.929532,254.758323 144.929532,254.758323 C144.929532,254.758323 141.745932,235.887276 141.040767,227.377563 C140.336503,218.86695 140.161788,208.490305 140.161788,208.490305 L153.063697,199.685198 Z" id="Fill-101" fill="#F8AF89"></path>
                            <path d="M147.123649,252.014663 C147.123649,252.014663 148.317837,253.028732 148.098993,254.321084 C147.880148,255.612536 147.570344,258.637632 147.570344,258.637632 L146.341934,258.637632 L146.379759,255.81607 C146.375256,255.632349 143.74372,258.637632 143.297926,258.637632 L136.795637,258.637632 C136.795637,258.637632 136.363352,256.734676 140.181871,256.123173 C144.000389,255.510769 147.123649,252.014663 147.123649,252.014663" id="Fill-102" fill="#003F5F"></path>
                            <path d="M156.449751,249.864315 L156.622665,252.55619 C156.659589,253.123565 156.502886,253.682833 156.179573,254.150242 C155.822937,254.665382 155.22044,255.371447 154.224383,256.182882 C156.109326,256.788082 157.824057,254.674387 158.72285,253.269461 C159.161439,252.585009 159.330751,251.765469 159.210972,250.962139 L158.893963,248.843041 L156.449751,249.864315 Z" id="Fill-103" fill="#F69C82"></path>
                            <path d="M159.246545,251.345342 C159.246545,251.345342 160.90544,251.49394 161.17922,252.754771 C161.454802,254.016504 162.239219,256.568787 162.239219,256.568787 L161.334122,257.290163 L160.058881,254.758593 C160.058881,254.758593 157.316572,258.456432 156.880685,258.638352 L149.783104,258.638352 C149.783104,258.638352 149.783104,256.288702 154.224833,256.182432 C158.318033,256.084267 159.246545,251.345342 159.246545,251.345342" id="Fill-104" fill="#1B2B57"></path>
                            <polygon id="Fill-105" fill="#F8AF89" points="121.253546 125.836489 129.135545 146.433975 134.105023 142.737036 123.0025 124.019991"></polygon>
                            <path d="M122.22979,119.608881 C122.727818,120.221285 122.980885,120.995796 122.94306,121.783816 L123.29159,124.757577 L122.885422,125.217781 L121.490402,126.456098 C121.539034,125.840091 121.609281,126.456098 121.609281,126.456098 L119.365901,122.552023 C119.365901,122.552023 116.655113,120.812976 120.074669,118.247183 C120.401584,118.002222 120.859987,117.947285 121.19861,118.175136 C122.050572,118.746112 122.22979,119.608881 122.22979,119.608881" id="Fill-106" fill="#F8AF89"></path>
                            <polygon id="Fill-107" fill="#F69C82" points="145.094701 151.483245 150.174952 151.483245 148.147715 145.512307 144.175195 147.953817"></polygon>
                            <path d="M138.34637,157.90349 C138.371587,157.75309 138.40671,157.627007 138.43733,157.489216 C133.406612,151.002238 129.135095,146.434425 129.135095,146.434425 L133.411115,141.566714 L143.130326,150.795101 L145.980706,150.806809 C145.980706,150.806809 149.831646,148.265332 153.196265,151.734421 C154.425576,153.002457 155.244216,156.439124 154.422874,160.073021 C152.15878,170.090328 153.930249,175.389423 153.930249,175.389423 L140.823904,180.276046 C140.823904,180.276046 140.526708,171.565501 140.321373,165.455871 C140.320472,165.448666 140.320472,165.441461 140.320472,165.434257 C140.280846,164.242771 139.882784,163.105321 139.256871,162.091252 C138.535495,160.923181 138.077993,159.499342 138.34637,157.90349" id="Fill-108" fill="#108B8B"></path>
                            <path d="M143.309364,134.781729 L151.639858,137.696952 L150.818516,143.916454 C150.806809,144.003812 150.783393,144.088467 150.766282,144.175825 C150.607777,144.203744 150.447472,144.233463 150.288067,144.273089 C150.261949,144.279393 150.235832,144.288399 150.210616,144.294704 C150.185399,144.301008 150.160182,144.303709 150.134966,144.310014 C148.213098,144.781925 146.8523,146.370573 146.240797,148.208685 C145.056516,148.407716 143.832609,148.409518 142.635719,148.161854 C141.819781,147.994344 141.081294,147.738575 140.740869,147.345916 C138.983811,143.510286 143.309364,134.781729 143.309364,134.781729" id="Fill-109" fill="#F8AF89"></path>
                            <path d="M143.5011,140.073619 C145.743579,141.170543 145.21493,152.727866 145.603086,160.599057 C145.810223,164.833651 148.98932,168.296435 153.176182,168.964675 C156.146341,169.438388 159.40469,169.525745 161.371587,168.405406 C160.071129,167.341805 153.063607,157.031805 155.307888,143.377899 C155.603282,141.581214 155.640207,136.578414 152.61331,133.863123 C149.252293,130.846133 142.316819,134.781729 142.316819,134.781729 C142.316819,134.781729 140.420168,138.567826 143.5011,140.073619" id="Fill-110" fill="#1B2B57"></path>
                            <path d="M140.556518,175.086013 C140.556518,175.086013 138.812968,183.96677 138.812968,189.250555 C138.812968,192.152269 139.524437,210.43793 139.524437,210.43793 C139.524437,210.43793 151.97605,211.339425 154.394145,211.339425 C154.99394,196.354441 158.409894,195.893337 158.409894,188.905628 C158.409894,185.868825 156.852767,182.43576 155.657678,180.247317 C154.798512,178.676681 154.261758,177.581559 153.930339,175.389513 L153.849286,175.105826 L140.556518,175.086013 Z" id="Fill-111" fill="#FFCF51"></path>
                            <path d="M36.3461731,254.351434 C36.3461731,254.351434 34.3873811,256.168833 29.9195342,257.306283 C28.9360856,257.557549 27.8760864,257.222528 27.8760864,258.844498 L33.2976624,258.844498 L37.806036,258.065484 L37.806036,258.844498 L40.2412422,258.844498 C40.2412422,258.844498 40.9193895,254.862071 39.496451,254.351434 L36.3461731,254.351434 Z" id="Fill-112" fill="#1B2B57"></path>
                            <path d="M36.6205841,251.491328 L36.3459029,254.351615 C37.2347892,254.96672 38.4019591,255.006346 39.3295709,254.45158 L39.4961808,254.351615 L40.5084485,251.491328 L36.6205841,251.491328 Z" id="Fill-113" fill="#F8AF89"></path>
                            <path d="M58.0127539,254.351434 C58.0127539,254.351434 56.0539619,256.168833 51.5870156,257.306283 C50.6026664,257.557549 49.5426672,257.222528 49.5426672,258.844498 L54.9642432,258.844498 L59.4726168,258.065484 L59.4726168,258.844498 L61.907823,258.844498 C61.907823,258.844498 62.5859703,254.862071 61.1639323,254.351434 L58.0127539,254.351434 Z" id="Fill-114" fill="#1B2B57"></path>
                            <path d="M58.2871649,251.491328 L58.0124837,254.351615 C58.90137,254.96672 60.0685398,255.006346 60.9961517,254.45158 L61.1636622,254.351615 L62.1750292,251.491328 L58.2871649,251.491328 Z" id="Fill-115" fill="#F8AF89"></path>
                            <polygon id="Fill-116" fill="#1B2B57" points="44.9814287 179.893294 38.7439146 179.893294 36.5527694 252.174969 40.7675494 252.174969 53.1480152 193.345466"></polygon>
                            <polygon id="Fill-117" fill="#003F5F" points="42.9586045 179.893294 57.5356192 252.174969 62.1745789 252.174969 60.2725244 179.893294"></polygon>
                            <path d="M8.22773683,171.513536 C8.01159427,171.684649 7.21456857,172.206093 5.28189382,172.366399 C3.54734975,172.510494 -0.146886883,171.755796 0.557377634,173.468726 C2.21897358,174.365718 4.06158893,175.617543 4.06158893,175.617543 C5.1197869,176.061536 6.99572422,175.600432 8.10975901,175.092497 L11.3455933,173.116594 C11.3455933,173.116594 11.6229763,171.297394 11.6517953,171.213639 L10.9106064,170.91194 C10.0478373,171.255967 9.14093916,171.450495 8.22773683,171.513536" id="Fill-118" fill="#F8AF89"></path>
                            <path d="M7.63406526,172.27688 C7.63406526,172.27688 7.57642724,172.360635 7.44133814,172.484017 C7.6718902,172.576778 7.89433693,172.681247 8.11138008,172.79202 C9.02007944,172.817236 9.92697761,172.86857 10.8347764,172.902793 C10.7789395,172.379548 10.7023891,171.644663 10.7059914,171.591528 L4.80439887,170.186601 C4.80439887,170.186601 4.32708405,170.808011 5.40599567,171.476252 C6.4849073,172.145393 7.63406526,172.27688 7.63406526,172.27688" id="Fill-119" fill="#F8AF89"></path>
                            <path d="M59.2893459,188.305562 L57.3278522,192.618507 C57.3278522,192.618507 57.7502307,194.98887 58.6175028,195.91288 C58.878675,196.192064 59.2920477,196.266813 59.6450805,196.120917 C60.4619193,195.782294 62.3477632,194.966355 62.6593687,194.51786 C62.8133703,194.297214 62.8367857,194.007223 62.7557323,193.750553 L62.1838551,191.851201 L62.1136087,187.42298 L59.2893459,188.305562 Z" id="Fill-120" fill="#F8AF89"></path>
                            <polygon id="Fill-121" fill="#F69C82" points="47.7394979 136.449269 47.6746551 142.228381 52.8233511 141.950998 53.1475649 132.992789"></polygon>
                            <path d="M46.8811417,136.983141 C46.1615671,136.964229 45.4951276,136.855257 45.1465977,136.57157 C43.0716291,133.553679 45.4347878,125.419514 45.4347878,125.419514 L48.7507749,124.022693 L52.9646543,126.650626 L53.2042123,132.102822 C53.2690551,133.557281 52.5701941,134.953202 51.323772,135.862802 C49.9881911,136.612096 48.4472747,137.026369 46.8811417,136.983141" id="Fill-122" fill="#F8AF89"></path>
                            <path d="M51.795233,129.740564 C51.5637803,128.82466 52.1896931,126.711866 51.2575783,126.864967 C50.5776299,126.976641 48.2468926,127.072104 47.4624752,127.072104 C45.5937426,127.072104 42.2615448,126.340822 42.2615448,123.495845 C42.2615448,122.073807 43.1351209,121.353332 44.0086971,120.989492 C44.8660626,120.631956 45.8342012,121.659534 46.7113798,121.966636 C48.7701377,122.686211 53.0182396,123.267995 54.1052566,123.042846 C55.339971,122.787078 56.6314228,124.047009 56.7268858,124.799905 C56.9358236,126.448893 55.8316953,128.962451 55.0148566,130.550198 C54.5420447,131.469704 53.9098277,132.293748 53.1479252,132.992609 L51.795233,129.740564 Z" id="Fill-123" fill="#1B2B57"></path>
                            <path d="M54.1962166,129.94635 C53.7792416,129.578907 52.9993272,129.648253 52.4544678,130.102152 C51.9096084,130.556052 51.8051395,131.221591 52.2221145,131.589033 C52.638189,131.957376 53.4181034,131.88713 53.9629627,131.43323 C54.5087227,130.980232 54.612291,130.313792 54.1962166,129.94635" id="Fill-124" fill="#F8AF89"></path>
                        </g>
                        <g id="Group-128" transform="translate(92.761183, 325.718737)">
                            <mask id="mask-26" fill="white">
                                <use xlink:href="#path-25"></use>
                            </mask>
                            <g id="Clip-127"></g>
                            <path d="M36.6604804,1.27253934 C32.9536355,2.03714365 29.8321766,4.52458431 28.1192468,7.90001067 L28.1192468,7.90001067 C28.1192468,7.90001067 22.6589453,21.7259299 20.1300773,23.6432946 L20.1300773,23.6432946 C17.6012094,25.5597586 0.868172627,31.3199579 0.868172627,31.3199579 L0.868172627,31.3199579 L0.868172627,35.0123934 C0.868172627,35.0123934 19.7932552,34.6908813 24.5123678,31.4145203 L24.5123678,31.4145203 C29.232381,28.1399605 29.7385149,24.5907195 29.7385149,24.5907195 L29.7385149,24.5907195 L29.7385149,40.301582 L49.2642936,40.301582 L48.7860782,15.9387128 L49.4606231,50.044208 C49.4606231,50.044208 51.8201794,50.2135197 53.6745025,50.044208 L53.6745025,50.044208 C59.9714558,35.5779664 57.2246441,19.0745812 55.5873642,12.1174924 L55.5873642,12.1174924 C54.5471781,7.69647642 51.6031363,3.89146672 47.4486961,2.06145969 L47.4486961,2.06145969 C45.7618835,1.31756904 43.7562606,0.822242332 41.4057103,0.822242332 L41.4057103,0.822242332 C39.5766038,0.822242332 38.0059679,0.995156383 36.6604804,1.27253934" id="Fill-126" fill="url(#linearGradient-27)" mask="url(#mask-26)"></path>
                        </g>
                        <g id="Group-147" transform="translate(53.135047, 324.818143)">
                            <polygon id="Fill-129" fill="#57C4C4" points="88.6198016 41.3363645 88.1604987 17.8623816 88.6657319 17.8470715 89.1295378 41.3363645"></polygon>
                            <polygon id="Fill-131" fill="#FBB34E" points="83.5403613 0.077000788 83.858271 1.97545296 77.9404678 1.96464584 78.3277232 0.077000788"></polygon>
                            <path d="M6.42780964,15.5339859 C6.42780964,15.5339859 6.60792844,37.1113178 12.2339392,36.8546485 C17.8590494,36.5979792 21.5631926,19.5623429 21.5631926,19.5623429 L19.2837892,18.8932015 L13.8243883,29.1986988 C13.8243883,29.1986988 14.6439288,25.8403837 13.2579146,19.6605076 C11.872801,13.4797309 6.42780964,15.5339859 6.42780964,15.5339859" id="Fill-133" fill="#F8AF89"></path>
                            <path d="M7.50870257,13.4223631 L7.25203328,13.8114197 C7.31507486,13.852847 13.5174658,18.0207961 13.5174658,24.8283862 L13.5174658,52.5711848 L2.15647236,52.5711848 L2.51851115,31.2081942 C2.36450958,31.330675 2.20780622,31.4495534 2.04659989,31.5639289 L1.68275991,53.0358913 L13.9830729,53.0358913 L13.9830729,24.8283862 C13.9830729,17.7740333 7.57264474,13.464691 7.50870257,13.4223631" id="Fill-135" fill="#FFCF51"></path>
                            <path d="M13.3735509,58.5733737 L2.44664375,58.5733737 C1.37043391,58.5733737 0.489652964,57.6916921 0.489652964,56.6154823 L0.489652964,49.4566605 C0.489652964,48.3804506 1.37043391,47.4996697 2.44664375,47.4996697 L13.3735509,47.4996697 C14.4497607,47.4996697 15.3305417,48.3804506 15.3305417,49.4566605 L15.3305417,56.6154823 C15.3305417,57.6916921 14.4497607,58.5733737 13.3735509,58.5733737" id="Fill-137" fill="#57C4C4"></path>
                            <path d="M15.3309019,52.8056994 L15.3309019,49.4320743 C15.3309019,48.3684727 14.4609281,47.4993995 13.3982272,47.4993995 L2.42178736,47.4993995 C1.35908642,47.4993995 0.490013202,48.3684727 0.490013202,49.4320743 L0.490013202,52.8056994 L15.3309019,52.8056994 Z" id="Fill-139" fill="#FED774"></path>
                            <path d="M13.7174877,58.5733737 L13.7174877,58.5733737 C12.7916771,58.5733737 12.0342775,58.1771123 12.0342775,57.2504011 L12.0342775,48.8226423 C12.0342775,47.8968317 12.7916771,47.4996697 13.7174877,47.4996697 C14.6432984,47.4996697 15.400698,48.2570693 15.400698,48.8226423 L15.400698,56.8901635 C15.400698,58.1771123 14.6432984,58.5733737 13.7174877,58.5733737" id="Fill-141" fill="#006669"></path>
                            <path d="M6.16663737,54.6262502 L6.16663737,54.6262502 C5.88565204,54.6262502 5.65600057,54.3965988 5.65600057,54.116514 L5.65600057,51.5417157 C5.65600057,51.261631 5.88565204,51.0310789 6.16663737,51.0310789 C6.44762271,51.0310789 6.67727418,51.261631 6.67727418,51.5417157 L6.67727418,54.116514 C6.67727418,54.3965988 6.44762271,54.6262502 6.16663737,54.6262502" id="Fill-143" fill="#003F5F"></path>
                            <path d="M19.1821121,19.2919846 L18.1734468,15.1834747 C18.1734468,15.1834747 18.9344487,13.1733488 19.8485517,12.5060087 C20.1241334,12.3042756 20.4987805,12.3060768 20.7842688,12.4924998 C21.4453048,12.9247849 22.9655075,13.9514621 23.1654394,14.3963555 C23.2636041,14.6161004 23.2356857,14.8745709 23.1222109,15.0862105 L22.3080739,16.6586477 L21.5632827,19.5621628 L19.1821121,19.2919846 Z" id="Fill-145" fill="#F8AF89"></path>
                        </g>
                        <g id="Group-150" transform="translate(47.731483, 334.724677)">
                            <mask id="mask-29" fill="white">
                                <use xlink:href="#path-28"></use>
                            </mask>
                            <g id="Clip-149"></g>
                            <path d="M4.1508378,35.7202603 L15.7612958,35.7202603 C15.7612958,35.7202603 15.3623326,22.7336946 18.4927974,15.9891461 L18.4927974,15.9891461 C19.192559,14.4779493 19.1817518,12.7316975 18.5180141,11.2042901 L18.5180141,11.2042901 C16.7429433,7.11919566 11.6482829,0.803329858 11.6482829,0.803329858 L11.6482829,0.803329858 C11.6482829,0.803329858 10.7170687,0.220645533 6.74274736,0.220645533 L6.74274736,0.220645533 C-5.3234112,2.05875791 4.66507698,26.0415764 4.1508378,35.7202603" id="Fill-148" fill="url(#linearGradient-30)" mask="url(#mask-29)"></path>
                        </g>
                        <g id="Group-269" transform="translate(44.129107, 305.905668)">
                            <path d="M24.5694655,132.820505 L25.2755312,135.221489 C25.4430417,135.880724 25.8348,136.440893 26.3886654,136.816441 C27.0001687,137.231615 27.9692079,137.746755 29.4407785,138.193449 C27.4495651,139.772191 24.6496183,138.188946 23.0717776,137.022677 C22.3026703,136.454402 21.7983377,135.606943 21.6416343,134.639705 L21.4200882,132.820505 L24.5694655,132.820505 Z" id="Fill-151" fill="#F8AF89"></path>
                            <path d="M21.5079862,134.069359 C21.5079862,134.069359 20.1688029,135.052808 20.2858801,136.304633 C20.4011561,137.55826 20.4614959,140.492396 20.4614959,140.492396 L21.7475442,140.492396 L21.9546808,137.756391 C21.9744939,137.577173 24.4655369,140.492396 24.9320446,140.492396 L31.7360324,140.492396 C31.7360324,140.492396 32.3538399,138.646178 28.4128405,138.053587 C24.4709405,137.460096 21.5079862,134.069359 21.5079862,134.069359" id="Fill-153" fill="#003F5F"></path>
                            <path d="M19.3633116,64.5389084 L24.9496963,132.975948 L21.1401836,133.053399 C21.1401836,133.053399 14.0966378,118.670012 13.9444374,106.746147 C13.9192208,104.775648 14.0056778,102.769124 12.8547187,101.26243 C4.07302648,89.7636461 8.50394901,71.600466 8.50394901,71.600466 L14.4505713,64.5389084 L19.3633116,64.5389084 Z" id="Fill-155" fill="#1B2B57"></path>
                            <path d="M4.03961444,132.820505 L4.96182271,135.221489 C5.1887724,135.880724 5.63186465,136.440893 6.21815135,136.816441 C6.86747963,137.231615 7.88425027,137.746755 9.39544702,138.193449 C7.54652752,139.772191 4.60338629,138.188946 2.92107668,137.022677 C2.10063553,136.454402 1.51975239,135.606943 1.27569142,134.639705 L0.89023718,132.820505 L4.03961444,132.820505 Z" id="Fill-157" fill="#F8AF89"></path>
                            <path d="M1.09106964,134.069359 C1.09106964,134.069359 -0.159855437,135.052808 0.0697960359,136.304633 C0.298546915,137.55826 0.622760759,140.492396 0.622760759,140.492396 L1.90880901,140.492396 L1.86918287,137.756391 C1.87278525,137.577173 4.62680173,140.492396 5.09330943,140.492396 L11.8972972,140.492396 C11.8972972,140.492396 12.3493954,138.647078 8.35436035,138.053587 C4.35842472,137.460096 1.09106964,134.069359 1.09106964,134.069359" id="Fill-159" fill="#003F5F"></path>
                            <polygon id="Fill-161" fill="#F69C82" points="15.8370357 26.3129254 15.8478429 33.9283484 11.2764277 28.9462623 11.7690526 21.8576868"></polygon>
                            <path d="M16.5982178,15.1857262 C13.4317293,15.6162101 11.8565903,19.6751873 11.8565903,19.6751873 L11.8917135,31.6882108 L6.40169241,26.9411798 C6.40169241,26.9411798 6.00362986,21.5205044 7.35812325,15.6162101 C8.53249784,11.8976574 13.2714235,10.9187117 16.5982178,12.7316075 C18.2165852,13.6150902 19.1775191,15.3460319 19.7493963,17.0652659 C20.5158018,19.3734883 20.5833463,21.8582272 20.0745107,24.2375966 L18.1913686,33.0517102 L15.848023,30.7281776 C15.848023,30.7281776 15.2464262,28.4784938 15.8372159,26.3125652 C17.0431112,21.8879468 18.7245203,14.8975361 16.5982178,15.1857262" id="Fill-163" fill="#1B2B57"></path>
                            <path d="M10.9242054,19.8434183 C11.2790394,19.500292 11.9436778,19.5642341 12.4074837,19.9893145 C12.8730908,20.4125937 12.961349,21.0349041 12.606515,21.3780305 C12.2516809,21.7220574 11.5870426,21.6572146 11.122336,21.2330348 C10.6585301,20.808855 10.5693713,20.1874452 10.9242054,19.8434183" id="Fill-165" fill="#F8AF89"></path>
                            <path d="M17.1575767,26.4149627 C17.7708813,26.3960502 18.3391561,26.2960843 18.6363521,26.0304091 C20.4042182,23.2124504 18.39049,15.6159399 18.39049,15.6159399 L15.5644259,14.3127804 L11.9737576,16.7659985 L11.7693228,21.8570564 C11.7143865,23.2160528 12.3096792,24.5201129 13.3723801,25.3684725 C14.5098304,26.068234 15.8228964,26.4554894 17.1575767,26.4149627" id="Fill-167" fill="#F8AF89"></path>
                            <path d="M17.195852,14.7705523 C17.8730987,17.0409498 11.8562301,19.6751873 11.8562301,19.6751873 L10.3450333,16.8419185 L13.1071552,13.4556851 L16.5978576,14.0131528 C16.5978576,14.0131528 17.080576,14.3914022 17.195852,14.7705523" id="Fill-169" fill="#1B2B57"></path>
                            <path d="M17.2341272,15.2481373 C17.3602104,16.1433278 18.7570317,17.2303447 18.7570317,17.2303447 L18.8885184,16.1604391 L18.5697082,15.4075425 L17.8528353,15.0085793 C17.8528353,15.0085793 17.1080441,14.3529469 17.2341272,15.2481373" id="Fill-171" fill="#1B2B57"></path>
                            <path d="M7.75321384,64.5389084 C7.75321384,64.5389084 -3.58976773,69.291343 2.19204582,99.1199173 C2.53066917,100.86797 2.3154272,102.688971 1.81379634,104.397398 C-0.634918778,112.717086 0.751996,133.053399 0.751996,133.053399 L4.5714152,133.053399 C4.5714152,133.053399 17.358049,79.9804933 18.1829931,64.5389084 L7.75321384,64.5389084 Z" id="Fill-173" fill="#003F5F"></path>
                            <path d="M42.9080812,51.5937701 C43.1017089,51.6883325 43.7924645,51.9477035 45.2478244,51.7090461 C46.5527852,51.4956053 49.1185775,50.2023523 48.9456635,51.6838295 C47.9045768,52.7024013 46.8013491,54.036181 46.8013491,54.036181 C46.1123947,54.5846428 44.6399235,54.577438 43.7177152,54.3874127 L40.9375815,53.4444908 C40.9375815,53.4444908 40.3657043,52.0647807 40.3278794,52.0053415 L40.8123989,51.6270921 C41.5166635,51.7342627 42.2236297,51.7171515 42.9080812,51.5937701" id="Fill-175" fill="#F8AF89"></path>
                            <path d="M43.4986007,52.0827926 C43.4986007,52.0827926 43.5580399,52.1377289 43.6823219,52.2097764 C43.5319227,52.325953 43.3887282,52.4493344 43.2518379,52.5781193 C42.5881001,52.7690453 41.9315671,52.9815855 41.2705311,53.1806167 C41.2056883,52.7573375 41.1138277,52.1647467 41.1003188,52.1233194 L45.1583955,49.9033551 C45.1583955,49.9033551 45.6357103,50.3014177 44.9764755,51.0317994 C44.3181412,51.7621812 43.4986007,52.0827926 43.4986007,52.0827926" id="Fill-177" fill="#F8AF89"></path>
                            <path d="M6.56677129,33.3629554 C10.7239133,29.076128 18.6518423,39.6779207 21.4977194,42.8011807 C22.0245669,43.3811632 22.6603863,43.8503727 23.3673526,44.1871949 L42.3779916,51.5828729 L41.1838039,53.547969 L20.2215777,49.0576073 C19.4011365,48.8351606 18.6239239,48.4875313 17.9115541,48.0255265 C13.9489404,45.457933 2.42584003,37.6326717 6.56677129,33.3629554" id="Fill-179" fill="#F8AF89"></path>
                            <path d="M20.7758032,48.7644639 L30.1482851,50.7502737 L29.9582598,51.1285232 L20.6857438,49.1652283 C19.8364837,48.9752029 19.0241479,48.6563927 18.2730525,48.2160022 C16.1539548,46.9758842 12.7848326,44.4398115 9.72371354,41.9307566 C9.82818245,41.8352936 9.93085016,41.7362283 10.0326173,41.6362623 C13.2513403,44.2659968 16.7906747,46.8714153 18.4810897,47.8611681 C19.1952608,48.2799444 19.9670698,48.5834445 20.7758032,48.7644639" id="Fill-181" fill="#F69C82"></path>
                            <path d="M268.690692,136.444856 L258.080794,136.432248 C256.672265,136.579945 255.098027,136.980709 254.834153,138.201915 C254.834153,138.201915 254.649531,139.012449 254.681052,139.818481 C255.055699,140.258872 269.123878,139.759942 269.123878,139.759942 L269.186019,139.708609 C270.675601,137.915526 268.690692,136.444856 268.690692,136.444856" id="Fill-183" fill="#073A5D"></path>
                            <polygon id="Fill-185" fill="#1B2B57" points="254.681322 139.818571 269.124148 139.760033 268.998966 140.322003 254.660608 140.322003"></polygon>
                            <polygon id="Fill-187" fill="#FEFEFE" points="264.491132 136.432518 263.534702 136.439723 263.833699 137.73928 264.759509 137.73928"></polygon>
                            <polygon id="Fill-189" fill="#FEFEFE" points="262.442821 136.432518 261.48639 136.439723 261.784487 137.73928 262.711198 137.73928"></polygon>
                            <path d="M269.418012,132.911105 L268.690332,136.445036 C267.83837,136.87552 266.732441,136.902538 265.846256,136.512581 L265.684149,136.441434 L265.174413,132.911105 L269.418012,132.911105 Z" id="Fill-191" fill="#F8AF89"></path>
                            <path d="M293.486927,136.444856 L282.877029,136.432248 C281.4685,136.579945 279.894262,136.980709 279.630388,138.201915 C279.630388,138.201915 279.445766,139.012449 279.477287,139.818481 C279.851934,140.258872 293.920113,139.759942 293.920113,139.759942 L293.982254,139.708609 C295.471837,137.915526 293.486927,136.444856 293.486927,136.444856" id="Fill-193" fill="#1B2B57"></path>
                            <polygon id="Fill-195" fill="#1B2B57" points="279.477557 139.818571 293.920383 139.760033 293.795201 140.322003 279.456843 140.322003"></polygon>
                            <polygon id="Fill-197" fill="#FEFEFE" points="289.287367 136.432518 288.330937 136.439723 288.629934 137.73928 289.555744 137.73928"></polygon>
                            <polygon id="Fill-199" fill="#FEFEFE" points="287.239056 136.432518 286.282626 136.439723 286.580722 137.73928 287.507433 137.73928"></polygon>
                            <path d="M293.026093,132.911105 L293.487198,136.445036 C292.634335,136.87552 291.528406,136.902538 290.643122,136.512581 L290.481915,136.441434 L288.781594,132.911105 L293.026093,132.911105 Z" id="Fill-201" fill="#F8AF89"></path>
                            <path d="M277.193561,14.06962 L285.930223,19.7667777 L283.233845,26.671632 C283.19602,26.7697968 283.144686,26.8589556 283.101457,26.9544185 C282.909631,26.9418102 282.717804,26.9310031 282.524177,26.9310031 C282.492656,26.9310031 282.461135,26.9337049 282.428714,26.9346055 C282.398093,26.9346055 282.368374,26.9310031 282.338654,26.9310031 C279.998911,26.9310031 277.989686,28.3692517 276.76848,30.3064294 C275.354548,30.2001593 273.94872,29.8561324 272.64466,29.2365237 C271.755774,28.8132446 270.982164,28.3107131 270.702079,27.7640525 C269.766362,22.8684235 277.193561,14.06962 277.193561,14.06962" id="Fill-203" fill="#F8AF89"></path>
                            <path d="M266.080321,15.8558582 C266.080321,15.8558582 265.011315,25.9974473 267.163735,32.4547064 C266.164076,33.322879 262.492354,37.2584748 261.336892,32.1575104 C260.183231,27.0565459 262.633747,14.0699802 262.633747,14.0699802 L266.080321,15.8558582 Z" id="Fill-205" fill="#F8AF89"></path>
                            <polygon id="Fill-207" fill="#1B2B57" points="271.322048 15.1381748 273.378104 16.4611474 272.64502 17.9957596 270.439466 17.0231181"></polygon>
                            <path d="M272.533167,16.9834019 C272.326931,17.4526113 272.312521,17.9002066 272.500745,17.9821606 C272.688069,18.0641147 273.006879,17.7516086 273.213115,17.2814985 C273.418451,16.8131896 273.433761,16.3646938 273.246437,16.2836403 C273.058213,16.2007857 272.739403,16.5141924 272.533167,16.9834019" id="Fill-209" fill="#1B2B57"></path>
                            <path d="M246.518788,7.65901171 C246.516987,7.63919864 246.512484,7.62028617 246.510683,7.60137369 C246.897938,6.71969216 247.579688,5.32016906 248.499194,4.03322022 C249.985175,1.95374865 250.408454,0.914463159 250.408454,0.914463159 L271.636355,14.8070264 L270.261148,17.4007371 L246.516987,8.62624968 C246.537701,8.30203583 246.544905,7.97782199 246.518788,7.65901171" id="Fill-211" fill="#003F5F"></path>
                            <polygon id="Fill-213" fill="#F69C82" points="279.121372 30.3102119 279.885076 35.0779566 273.130621 35.0779566 272.645201 29.2367039"></polygon>
                            <path d="M261.677677,42.1401447 C261.677677,42.1401447 253.699314,39.599569 251.198365,36.1836159 C248.698316,32.7667622 252.929306,14.0695299 252.929306,14.0695299 L252.383546,10.7049107 C252.075543,8.81096151 253.528201,7.08722457 255.447367,7.07101388 L257.578173,7.05115837 C258.466158,7.04399606 259.064153,7.9553972 258.703915,8.76593181 L255.900366,15.0736923 C255.900366,15.0736923 253.795678,29.2364337 256.743322,30.3099418 C260.25744,31.562668 264.235364,31.864367 264.235364,31.864367 L261.677677,42.1401447 Z" id="Fill-215" fill="#F8AF89"></path>
                            <path d="M276.665812,30.3102119 L278.718266,25.7586098 L277.385387,24.921958 C276.400137,24.3032499 275.969653,23.0883486 276.345201,21.9887233 L277.805965,17.6982934 C277.805965,17.6982934 273.647922,17.1903584 273.774005,13.3169035 C273.774005,11.3220878 276.518115,11.3112807 276.518115,11.3112807 C276.518115,11.3112807 277.338556,13.0935562 279.884535,13.3051958 C280.977857,13.1683055 283.978636,13.570871 286.003171,17.1039013 C287.364869,19.4805689 286.767776,23.202724 285.581693,25.9972672 C284.520793,28.500018 281.808204,29.8986405 279.121732,30.3102119 L276.665812,30.3102119 Z" id="Fill-217" fill="#073A5D"></path>
                            <path d="M284.778183,68.5467319 C284.778183,68.5467319 284.354003,78.2506323 282.255619,88.7695704 C281.637812,91.8685144 281.870165,95.0764303 282.87883,98.0709053 C287.642973,112.22374 294.321778,133.505677 294.321778,133.505677 L288.379659,133.505677 C288.379659,133.505677 274.91848,108.353888 271.449392,95.8770583 C267.981204,83.3993283 267.386812,79.4394164 267.386812,79.4394164 L271.514235,68.5467319 L284.778183,68.5467319 Z" id="Fill-219" fill="#1B2B57"></path>
                            <path d="M279.822304,23.639332 C280.066365,24.3562048 279.57284,25.3054309 278.718176,25.7593303 C277.863512,26.2123291 276.972825,25.9988883 276.727863,25.2820154 C276.483802,24.564242 276.978229,23.6159165 277.832892,23.1620171 C278.686655,22.7081178 279.578243,22.9215585 279.822304,23.639332" id="Fill-221" fill="#F8AF89"></path>
                            <path d="M265.406676,68.5467319 L284.778453,68.5467319 L284.778453,43.6930389 C284.778453,38.2480475 280.63392,33.7000478 275.214145,33.1930134 L261.74306,31.5629382 C261.74306,31.5629382 260.158014,33.9873373 255.744203,39.6214534 C261.049602,42.898715 267.188952,44.4090112 267.188952,44.4090112 L265.406676,68.5467319 Z" id="Fill-223" fill="#006669"></path>
                            <path d="M284.778183,68.5467319 C284.778183,68.5467319 282.042179,78.448763 271.94742,89.5476836 C270.261508,91.2236891 267.833507,94.7098885 268.178434,99.6397401 L270.261508,133.505677 L264.234733,133.505677 C264.234733,133.505677 256.890389,105.382828 258.474534,91.5199845 C260.059579,77.6562403 265.406406,68.5467319 265.406406,68.5467319 L284.778183,68.5467319 Z" id="Fill-225" fill="#003F5F"></path>
                            <path d="M249.770293,5.35565247 C248.728306,7.5161775 247.314373,8.99495287 246.61281,8.65632952 C245.910347,8.31770617 246.186829,6.29136964 247.228817,4.12994402 C248.269903,1.96851839 249.683836,0.490643617 250.386299,0.829266966 C251.087862,1.16789031 250.81228,3.19422684 249.770293,5.35565247" id="Fill-227" fill="#FEFEFE"></path>
                            <path d="M266.917603,11.7187995 L266.738385,11.8052565 C266.107068,12.1078561 265.381189,12.1528858 264.717452,11.9313396 L264.597673,11.8917135 C263.503451,11.5269729 262.650588,10.6615021 262.300257,9.5618768 C262.144455,9.07375484 262.574038,8.60004239 263.074768,8.7045113 L264.417554,8.98639722 C264.939898,9.09626969 265.398301,9.40877582 265.691894,9.85456985 L266.917603,11.7187995 Z" id="Fill-229" fill="#F8AF89"></path>
                            <polygon id="Fill-231" fill="#F8AF89" points="317.845113 35.4200022 312.067803 46.3027803 318.434102 45.9965783 318.880797 35.0696712"></polygon>
                            <polygon id="Fill-233" fill="#FEFEFE" points="326.918778 30.5977716 321.580958 30.5896663 319.369099 65.0869199 328.934308 65.0869199"></polygon>
                            <path d="M336.717151,131.865425 C336.717151,131.865425 338.036521,132.902009 337.794261,134.223181 C337.552902,135.545253 337.210677,138.639694 337.210677,138.639694 L335.854382,138.639694 L335.895809,135.75329 C335.892207,135.564165 332.986891,138.639694 332.496067,138.639694 L325.318333,138.639694 C325.318333,138.639694 324.841018,136.69351 329.055798,136.067597 C333.270578,135.441684 336.717151,131.865425 336.717151,131.865425" id="Fill-235" fill="#003F5F"></path>
                            <path d="M333.606409,130.547946 L332.633768,133.080417 C332.39421,133.775675 331.928603,134.365564 331.308093,134.762726 C330.623642,135.201316 329.551935,135.812819 327.957884,136.28383 C329.90857,137.949028 333.012017,136.209981 334.787088,134.98067 C335.651658,134.380875 336.264963,133.487485 336.521632,132.466212 L336.928701,130.547946 L333.606409,130.547946 Z" id="Fill-237" fill="#F8AF89"></path>
                            <path d="M323.045594,131.865425 C323.045594,131.865425 324.364063,132.902009 324.121803,134.223181 C323.881345,135.545253 323.538218,138.639694 323.538218,138.639694 L322.181924,138.639694 L322.224252,135.75329 C322.219749,135.564165 319.314433,138.639694 318.823609,138.639694 L311.645875,138.639694 C311.645875,138.639694 311.16856,136.69351 315.38334,136.067597 C319.59812,135.441684 323.045594,131.865425 323.045594,131.865425" id="Fill-239" fill="#003F5F"></path>
                            <path d="M319.934852,130.547946 L318.96131,133.080417 C318.721752,133.775675 318.256145,134.365564 317.635635,134.762726 C316.951184,135.201316 315.880378,135.812819 314.286326,136.28383 C316.236112,137.949028 319.339559,136.209981 321.115531,134.98067 C321.980101,134.380875 322.592505,133.487485 322.850075,132.466212 L323.256242,130.547946 L319.934852,130.547946 Z" id="Fill-241" fill="#F8AF89"></path>
                            <path d="M331.011978,65.0868298 C331.011978,65.0868298 331.90897,70.2436311 326.753069,95.585446 C330.926422,108.793558 324.242213,130.892334 324.242213,130.892334 L319.369099,130.892334 L316.053111,65.0868298 L331.011978,65.0868298 Z" id="Fill-243" fill="#108B8B"></path>
                            <path d="M322.167785,30.5977712 L320.435942,72.4537789 L314.70096,69.997859 C314.70096,69.997859 317.284764,62.1401763 317.039802,51.2249768 C317.916981,43.3321709 313.438327,47.4902135 318.924746,32.2917889 C320.968193,30.5896663 322.167785,30.5977712 322.167785,30.5977712" id="Fill-245" fill="#FED774"></path>
                            <path d="M321.41849,26.2742899 L322.090333,29.8037179 C322.385728,31.3563419 324.149992,32.1254492 325.490076,31.2860956 L327.843328,29.8109226 L323.640256,20.3105564 L321.41849,26.2742899 Z" id="Fill-247" fill="#F69C82"></path>
                            <path d="M335.70047,65.0868298 C335.70047,65.0868298 342.084781,70.2436311 336.92798,95.585446 C341.102233,108.793558 337.419704,130.892334 337.419704,130.892334 L333.045519,130.892334 L320.741604,65.0868298 L335.70047,65.0868298 Z" id="Fill-249" fill="#57C4C4"></path>
                            <path d="M326.918778,27.0508721 C326.918778,27.0508721 332.307032,30.0786692 333.982137,32.783153 C335.57799,35.3606531 336.130954,41.2253213 336.284055,46.4469654 C336.494794,53.6174949 339.957578,72.4534186 339.957578,72.4534186 L325.51205,72.4534186 L325.151813,31.4484727 L326.918778,27.0508721 Z" id="Fill-251" fill="#FED774"></path>
                            <path d="M316.284024,15.688798 C319.551379,14.8611521 322.693551,18.2104612 322.693551,18.2104612 L325.152173,31.4482926 L328.931966,25.6214493 C328.931966,25.6214493 329.147208,17.7061286 325.494399,12.4646714 C322.877273,9.29097812 317.85556,10.2014787 315.316786,13.2887149 C314.082071,14.7900052 313.824502,16.8631726 313.942479,18.7706307 C314.103686,21.3319201 314.829564,36.0314155 314.829564,36.0314155 L322.314401,30.4882594 C322.314401,30.4882594 322.134282,28.9923727 321.41831,26.27438 C320.186298,21.5966947 314.090177,16.2444645 316.284024,15.688798" id="Fill-253" fill="#1B2B57"></path>
                            <path d="M323.672587,18.0071071 C323.189869,17.8107776 322.565757,18.1376932 322.277567,18.7356876 C321.991178,19.3327815 322.149683,19.9767062 322.632401,20.1721351 C323.115119,20.3684646 323.739231,20.0424495 324.026521,19.4453557 C324.31381,18.8473613 324.155305,18.2034366 323.672587,18.0071071" id="Fill-255" fill="#F8AF89"></path>
                            <path d="M320.167025,26.8951594 C319.559124,27.1185068 318.963831,27.2445899 318.569371,27.1013955 C315.727096,25.0426376 314.70132,16.8175124 314.70132,16.8175124 L316.951004,14.4264353 L321.432359,15.4107846 L323.639715,20.310016 C324.230505,21.6185791 324.16206,23.1279747 323.456895,24.3779992 C322.620243,25.5109464 321.489097,26.4079381 320.167025,26.8951594" id="Fill-257" fill="#F8AF89"></path>
                            <path d="M315.53563,15.5181354 C315.768884,18.0064767 322.693551,18.2100109 322.693551,18.2100109 L323.05559,14.8417893 L319.017327,12.6191233 L315.821118,14.5418915 C315.821118,14.5418915 315.499606,15.102061 315.53563,15.5181354" id="Fill-259" fill="#1B2B57"></path>
                            <path d="M315.68693,16.0009439 C315.916581,16.9267545 314.979063,18.540619 314.979063,18.540619 L314.4288,17.5454626 L314.44321,16.6835941 L314.987168,16.011751 C314.987168,16.011751 315.456378,15.0751332 315.68693,16.0009439" id="Fill-261" fill="#1B2B57"></path>
                            <path d="M332.508855,32.7833331 C339.498365,33.5983707 336.196788,51.630064 334.695498,59.0329468 C334.326254,60.8557491 332.462024,61.9670821 330.688755,61.4078132 C324.608845,59.4904486 315.722684,51.5255951 315.722684,51.5255951 L317.131213,49.7523255 L328.934398,52.5072426 C328.934398,52.5072426 324.406211,31.8368088 332.508855,32.7833331" id="Fill-263" fill="#F8AF89"></path>
                            <path d="M318.525872,45.5182728 L320.807978,59.6458911 C320.873721,60.0547608 320.558513,60.4258055 320.143339,60.4258055 L311.10768,60.4258055 C310.777162,60.4258055 310.494375,60.1844463 310.442141,59.8584313 L308.200562,45.730813 C308.135719,45.3219433 308.450927,44.9526998 308.8652,44.9526998 L317.861234,44.9526998 C318.191752,44.9526998 318.472737,45.1922578 318.525872,45.5182728" id="Fill-265" fill="#003F5F"></path>
                            <path d="M308.496227,51.7731684 C308.44039,51.2760405 308.488122,50.9662362 308.653831,49.9377578 C308.869073,48.6021769 308.813236,46.5082958 310.177636,47.5520843 C311.467287,49.1695511 311.616785,50.8905863 311.616785,50.8905863 C311.879759,51.8389118 311.297975,53.158282 310.755817,53.8733536 L309.817399,55.9186026 C309.817399,55.9186026 308.198131,54.0336594 308.496227,51.7731684" id="Fill-267" fill="#F8AF89"></path>
                        </g>
                        <g id="Group-272" transform="translate(356.635229, 355.438339)">
                            <mask id="mask-32" fill="white">
                                <use xlink:href="#path-31"></use>
                            </mask>
                            <g id="Clip-271"></g>
                            <path d="M0.523245121,0.908699357 C0.523245121,1.28965062 0.831248273,1.59855437 1.21219954,1.59855437 L1.21219954,1.59855437 C1.59315081,1.59855437 1.90205455,1.28965062 1.90205455,0.908699357 L1.90205455,0.908699357 C1.90205455,0.527748091 1.59315081,0.219744939 1.21219954,0.219744939 L1.21219954,0.219744939 C0.831248273,0.219744939 0.523245121,0.527748091 0.523245121,0.908699357" id="Fill-270" fill="url(#linearGradient-33)" mask="url(#mask-32)"></path>
                        </g>
                        <g id="Group-327" transform="translate(39.626137, 119.482708)">
                            <polygon id="Fill-273" fill="#57C4C4" points="7.49600419 44.0055451 4.21333902 50.4610029 11.1064856 48.8876652 34.6885398 41.456864"></polygon>
                            <polygon id="Fill-275" fill="#57C4C4" points="4.21369926 50.4610029 15.9241232 49.733323 13.0539301 48.2743607"></polygon>
                            <polygon id="Fill-277" fill="#FEFEFE" points="7.49600419 44.0055451 5.44625222 37.7166971 34.6885398 41.456864"></polygon>
                            <polygon id="Fill-279" fill="#FEFEFE" points="34.6883597 41.4572242 11.1063055 48.8880254 14.6222245 57.9534048"></polygon>
                            <path d="M6.79894443,56.9573478 C6.73770404,56.925827 6.68096661,56.8825985 6.63233454,56.8276622 C6.43330326,56.5989114 6.4576193,56.2512821 6.68727077,56.0513502 C7.41134836,55.4209344 8.19126277,54.8580631 9.00449916,54.3807483 C9.26747261,54.2249455 9.60429478,54.3132038 9.75829635,54.5770778 C9.91229793,54.8391507 9.82494031,55.1768734 9.56196686,55.330875 C8.80726908,55.7739672 8.08319149,56.2954112 7.40954717,56.8825985 C7.23573253,57.0329977 6.99347274,57.0564131 6.79894443,56.9573478" id="Fill-281" fill="#57C4C4"></path>
                            <path d="M20.7660768,71.5159003 C20.6589061,71.460964 20.5697473,71.3727058 20.5166123,71.2556286 C20.3887279,70.9791462 20.5094075,70.6522306 20.7849893,70.5243463 C22.5771714,69.6985016 24.6926667,69.4994703 26.5893177,69.9785863 C26.8829114,70.0551368 27.0630302,70.3523328 26.9882809,70.6486282 C26.9144321,70.9431225 26.6145343,71.1214401 26.3191395,71.0466908 C24.6872632,70.6342187 22.7915128,70.8125363 21.246994,71.5249062 C21.0875889,71.5987549 20.9110725,71.589749 20.7660768,71.5159003 M30.3384906,77.7723269 C30.1142427,77.658852 29.9908613,77.4021827 30.0539029,77.1482152 C30.3835203,75.8306462 30.2628407,74.6148443 29.6972676,73.5359326 C29.4964352,73.155882 29.2433683,72.8055509 28.9416693,72.4957466 C28.7300297,72.2778028 28.7345326,71.9292729 28.9524764,71.7176333 C29.1704201,71.5050931 29.5207512,71.5095961 29.7314902,71.7284405 C30.1061373,72.1138947 30.4231464,72.5488816 30.6717104,73.022594 C31.3588636,74.3302566 31.5146664,75.8495586 31.122908,77.4156916 C31.0490593,77.7101859 30.750062,77.8903047 30.4555678,77.816456 C30.4141405,77.8056488 30.3745143,77.7912393 30.3384906,77.7723269 M1.9427614,64.3012416 C1.7023028,64.1787609 1.5816232,63.8950737 1.6716826,63.6321003 C1.95536972,62.8080568 2.29759544,61.9984228 2.68935384,61.2275143 C3.16486747,60.2926977 3.71963339,59.4011096 4.34014266,58.5779667 C4.52206265,58.3339057 4.86699016,58.2843731 5.11105113,58.4698954 C5.35421152,58.6518154 5.40284359,58.9976435 5.22002301,59.2408039 C4.63913987,60.012613 4.11769594,60.8492648 3.6719019,61.7264434 C3.30265836,62.4523221 2.9802457,63.2133241 2.71457047,63.9896361 C2.61550513,64.2769256 2.30209841,64.4300266 2.01480892,64.3318618 C1.9886917,64.3228559 1.96527625,64.3129494 1.9427614,64.3012416 M14.5150538,77.6894722 C14.4988431,77.6804663 14.4817318,77.6714603 14.4655211,77.6615538 C14.2097524,77.4967451 14.1368043,77.15542 14.3007124,76.8996513 C15.5390292,74.9786842 16.6800818,73.5746582 17.8922813,72.4804365 C18.1183304,72.2778028 18.4668603,72.2958147 18.6703946,72.5209632 C18.8739288,72.7461117 18.8559169,73.0946416 18.6298678,73.2981758 C17.4924176,74.3257536 16.4117048,75.6595333 15.2274237,77.4967451 C15.0725215,77.7363031 14.7636177,77.816456 14.5150538,77.6894722 M24.6917661,84.3205459 C24.5927008,84.2701127 24.5071444,84.1881586 24.4522081,84.0809879 C24.3135166,83.8099091 24.4206873,83.4784905 24.6908655,83.339799 C25.1033376,83.12906 25.5059031,82.8958062 25.8868544,82.6472422 C26.970269,81.9438783 27.9447117,81.0126641 28.7057136,79.9535656 C28.8831307,79.7068028 29.2289588,79.650966 29.4748209,79.8274824 C29.7215837,80.0058 29.7774205,80.3498269 29.6009041,80.5965897 C28.7606499,81.7655607 27.6835394,82.7940391 26.48665,83.5712517 C26.0750785,83.8396287 25.639191,84.091795 25.193397,84.3196453 C25.0294889,84.4034006 24.8439665,84.397997 24.6917661,84.3205459 M1.20517491,73.0820333 C1.05657689,73.0054828 0.943102049,72.8631889 0.912481852,72.6857719 C0.58646682,70.8278464 0.56845494,68.9050782 0.857545618,66.9688011 C0.902575318,66.6680027 1.18266006,66.4599655 1.48345846,66.5058958 C1.78515745,66.5491243 1.99229407,66.8310102 1.94726437,67.130908 C1.67528498,68.9501079 1.69239627,70.7548983 1.99769764,72.494846 C2.04903149,72.7947438 1.84909962,73.0811327 1.55010241,73.1324665 C1.42762163,73.1540808 1.30784262,73.1333671 1.20517491,73.0820333 M16.0523678,85.9227027 C15.8587401,85.8245379 15.7335575,85.6146995 15.7533706,85.385048 C15.7785872,85.0815479 16.045163,84.8573 16.3486632,84.8825166 C18.1849744,85.0401205 19.9816594,84.9005285 21.6891857,84.4673427 C21.9827793,84.3916928 22.2835777,84.5700105 22.358327,84.8663059 C22.4330763,85.1608001 22.2547587,85.4597973 21.9593639,85.5345466 C20.1329592,85.9983526 18.2137934,86.1478512 16.2550014,85.9812413 C16.1820533,85.9740365 16.1136082,85.9542235 16.0523678,85.9227027 M5.16238499,80.9045928 C5.11015054,80.8784756 5.06061787,80.8424518 5.01828995,80.7983227 C4.17893633,79.9355537 3.44945518,78.9872282 2.85056016,77.9794635 C2.47681365,77.3508489 2.14539505,76.6853099 1.86531032,76.001759 C1.75003428,75.7198731 1.88422279,75.398361 2.16520812,75.283085 C2.44799464,75.1669084 2.7695067,75.3028981 2.88478274,75.5838834 C3.14505441,76.2179016 3.45215696,76.8339079 3.79798506,77.4174928 C4.35185038,78.3505082 5.02819648,79.229488 5.8072103,80.0301161 C6.0188499,80.2480598 6.01524752,80.5965897 5.79640318,80.8082293 C5.62348913,80.9766404 5.36681983,81.0090617 5.16238499,80.9045928 M10.1417693,85.4399843 C9.87249167,85.3039946 9.76442039,84.977079 9.89680771,84.7060002 C9.95624691,84.5853206 10.0156861,84.464641 10.0760259,84.3439614 C9.23937408,83.9558053 8.42974007,83.5046077 7.67143991,82.9984739 C7.41927358,82.8300628 7.35082844,82.4878371 7.51923952,82.2347702 C7.68855119,81.9826039 8.02987632,81.9105563 8.28384384,82.0825698 C9.00521964,82.5643876 9.77702871,82.9948715 10.5776568,83.3623139 C11.1684465,82.2266648 11.8195759,81.0468867 12.558063,79.7770491 C12.711164,79.5140757 13.0515885,79.4267181 13.3109596,79.5780179 C13.5748337,79.7302182 13.6630919,80.067941 13.5108915,80.3309145 C12.7985216,81.5557223 12.1690064,82.6949737 11.5962286,83.790096 C12.1104678,83.9882267 12.6355141,84.1611408 13.1677652,84.3088382 C13.4658618,84.3943946 13.6333723,84.6942924 13.5514182,84.9869855 C13.4694642,85.2805791 13.165964,85.4525926 12.8723703,85.3706385 C12.2680717,85.2022275 11.6736797,85.0040968 11.091896,84.7771471 C11.0225502,84.914938 10.9532045,85.0536294 10.8856599,85.1923209 C10.7505708,85.4652009 10.4209534,85.5777752 10.1480734,85.4435867 C10.1453717,85.4426861 10.1435705,85.4408849 10.1417693,85.4399843 M6.94195876,93.7353557 C6.71590966,93.6200797 6.59252828,93.3589074 6.66007283,93.1031387 C7.11217103,91.3947119 7.72997852,89.6016292 8.49728462,87.7734234 C8.61436184,87.492438 8.93767509,87.3609513 9.21775983,87.4789291 C9.48883862,87.5870004 9.63113248,87.918419 9.51225407,88.1994043 C8.76566163,89.9807793 8.16406483,91.7252299 7.72457495,93.3859252 C7.64712387,93.6795189 7.34542488,93.8551347 7.05093063,93.7776836 C7.01310569,93.7668765 6.97618133,93.752467 6.94195876,93.7353557 M5.99903683,102.547668 C5.83152634,102.462112 5.71264793,102.295502 5.69823843,102.09557 L5.68112714,101.828994 C5.58836596,100.077339 5.68292833,98.2590394 5.96301307,96.4263306 C6.00894336,96.1246316 6.29082929,95.9183956 6.59072709,95.9643259 C6.89152549,96.0075544 7.09866212,96.2912415 7.05183123,96.5911393 C6.78345421,98.3518006 6.69249422,100.093549 6.78165302,101.768654 L6.79696312,102.017218 C6.81857738,102.319818 6.5898265,102.583692 6.28632632,102.605306 C6.1836586,102.612511 6.08459326,102.590897 5.99903683,102.547668 M8.57023273,110.994339 C8.47657095,110.946608 8.39641809,110.87366 8.34148185,110.775495 C7.39855992,109.116601 6.68799125,107.335226 6.23048949,105.481803 C6.15754137,105.186409 6.33856077,104.887411 6.6348562,104.814463 C6.92844985,104.742416 7.22744706,104.922535 7.30039518,105.217029 C7.73358089,106.973187 8.40542403,108.66 9.29881329,110.231536 C9.44921249,110.496311 9.3573519,110.832232 9.09257726,110.981731 C8.92596737,111.078095 8.72873728,111.075393 8.57023273,110.994339 M14.6465405,117.369644 C14.6348328,117.364241 14.6249263,117.358837 14.6150197,117.352533 C13.0209683,116.412313 11.5647078,115.150581 10.2849637,113.604261 C10.0922366,113.370106 10.124658,113.023378 10.3588124,112.828849 C10.5938675,112.634321 10.9405962,112.670345 11.1351245,112.901797 C12.3320139,114.349953 13.6910103,115.52793 15.1751892,116.404208 C15.4372621,116.56001 15.5246197,116.897733 15.3697175,117.158905 C15.2211195,117.410171 14.9032098,117.501131 14.6465405,117.369644" id="Fill-283" fill="#57C4C4"></path>
                            <path d="M17.7534097,118.716213 C17.5237583,118.599135 17.4003769,118.330758 17.473325,118.074089 C17.5579808,117.781396 17.8623816,117.612084 18.1550747,117.694939 C18.9998319,117.937199 19.8707063,118.083996 20.7442825,118.132628 C21.0477826,118.147037 21.2810365,118.408209 21.2639252,118.71171 C21.2468139,119.01521 20.9874428,119.248464 20.6839427,119.230452 C19.729313,119.179118 18.7764845,119.018812 17.8524751,118.755839 C17.8173519,118.745032 17.7849305,118.732423 17.7534097,118.716213" id="Fill-285" fill="#57C4C4"></path>
                            <polygon id="Fill-287" fill="#FEFEFE" points="259.232654 4.60365647 280.564124 0.214161256 290.436435 1.2444408 297.139557 4.46136261"></polygon>
                            <polyline id="Fill-289" fill="#A1D6C4" points="259.232654 4.60365647 296.051639 6.43816647 297.139557 4.46136261"></polyline>
                            <polygon id="Fill-291" fill="#108B8B" points="295.206251 12.589854 295.140508 12.647492 292.064079 17.4953896 259.318481 4.63310589"></polygon>
                            <polygon id="Fill-293" fill="#FEFEFE" points="302.680191 11.5116628 299.043592 6.05226193 259.471492 4.61581449 291.175102 13.4470394"></polygon>
                            <path d="M358.371033,102.900791 C357.378579,102.162304 356.42485,101.340062 355.534162,100.45838 C355.328827,100.256647 355.002812,100.259349 354.799278,100.461982 C354.598445,100.665517 354.600246,100.993333 354.803781,101.195967 C355.72779,102.111871 356.720245,102.965634 357.752325,103.73384 C358.125171,104.012124 358.503421,104.2796 358.887974,104.538071 C359.028467,104.634435 359.19958,104.650645 359.349079,104.598411 C359.450846,104.562387 359.544507,104.495743 359.607549,104.398479 C359.768755,104.161623 359.704813,103.83921 359.467957,103.678904 C359.097813,103.428539 358.731271,103.169168 358.371033,102.900791" id="Fill-295" fill="#57C4C4"></path>
                            <path d="M313.790729,10.917541 C312.183169,10.635655 310.494555,10.3897929 308.629425,10.1673462 C308.344837,10.1331236 308.088168,10.3357572 308.052144,10.6203449 C308.018822,10.9049326 308.221456,11.1634031 308.506044,11.1976257 C310.353162,11.4173706 312.021963,11.660531 313.61061,11.9397152 C313.70067,11.9550253 313.789829,11.9469199 313.871783,11.9181009 C314.041995,11.8586617 314.177985,11.7100637 314.211307,11.5182372 C314.260839,11.2363512 314.072615,10.9670736 313.790729,10.917541" id="Fill-297" fill="#57C4C4"></path>
                            <path d="M321.9339,13.8647349 C322.081598,13.813401 322.204979,13.6945226 322.257214,13.5333163 C322.343671,13.2604363 322.194172,12.9686438 321.920391,12.8812862 C320.337147,12.3733512 318.635024,11.91675 316.866258,11.5249916 C316.587074,11.4628506 316.30789,11.6393671 316.24845,11.9194518 C316.186309,12.1995365 316.361925,12.4769195 316.64201,12.5381599 C318.380156,12.9236141 320.048957,13.3712093 321.605183,13.8692378 C321.715957,13.904361 321.831233,13.9016592 321.9339,13.8647349" id="Fill-299" fill="#57C4C4"></path>
                            <path d="M350.669334,93.958613 C350.533344,93.7064466 350.221738,93.6064807 349.96687,93.7496752 C349.714704,93.8856649 349.621042,94.2008728 349.757932,94.4521385 C350.594584,95.9984584 351.577132,97.4763332 352.68036,98.8425343 C352.821753,99.0181501 353.054106,99.0775893 353.254939,99.007343 C353.309875,98.9884305 353.36211,98.9605121 353.409841,98.920886 C353.632288,98.7416678 353.667411,98.4147521 353.487292,98.1923054 C352.424591,96.8738358 351.476266,95.4490961 350.669334,93.958613" id="Fill-301" fill="#57C4C4"></path>
                            <path d="M349.078344,91.8733776 C349.34492,91.7653063 349.471904,91.4627067 349.363832,91.1979321 C349.190918,90.7683487 349.02611,90.3360636 348.873909,89.8992755 C348.46504,88.7294039 348.136323,87.5289121 347.896765,86.3320226 C347.840027,86.0510373 347.567147,85.8691173 347.287063,85.9249542 C347.012382,85.9816916 346.822356,86.2545716 346.879994,86.5355569 C347.128558,87.7801778 347.470784,89.0265999 347.894964,90.2415012 C348.052568,90.6945 348.22278,91.1429959 348.403799,91.5878893 C348.507368,91.8445586 348.795558,91.9733435 349.054929,91.8823835 C349.062133,91.8796818 349.071139,91.8760794 349.078344,91.8733776" id="Fill-303" fill="#57C4C4"></path>
                            <path d="M346.99482,83.8708793 C347.038048,83.867277 347.080376,83.8573704 347.119102,83.8438615 C347.337946,83.767311 347.486544,83.5502679 347.464029,83.3080081 C347.320835,81.6959448 347.299221,80.0262435 347.398286,78.2034412 C347.414497,77.9170523 347.195652,77.6729913 346.909263,77.6567807 C346.625576,77.6414706 346.377913,77.8612155 346.363504,78.1467038 C346.260836,80.0199393 346.283351,81.7391733 346.431949,83.4007693 C346.456265,83.685357 346.709332,83.896096 346.99482,83.8708793" id="Fill-305" fill="#57C4C4"></path>
                            <path d="M346.999233,37.5237898 C347.255002,38.1560068 347.496361,38.7936274 347.720609,39.4357509 C348.060133,40.4056907 348.363633,41.3954435 348.623904,42.3779916 C348.696853,42.6544739 348.98054,42.8192826 349.257923,42.7463345 C349.270531,42.7427321 349.283139,42.7391298 349.296648,42.7346268 C349.548814,42.6463686 349.696512,42.3761904 349.625365,42.1123163 C349.35969,41.1045516 349.047184,40.0895822 348.700455,39.0944258 C348.469903,38.435191 348.22314,37.7813597 347.959266,37.1338326 C347.852095,36.8681574 347.574712,36.7168576 347.283821,36.8483443 C347.018145,36.9564156 346.892062,37.2581146 346.999233,37.5237898" id="Fill-307" fill="#57C4C4"></path>
                            <path d="M349.292956,45.3748983 C349.599158,47.0608102 349.792785,48.7701377 349.866634,50.4542485 C349.878342,50.7406374 350.121502,50.9630841 350.407891,50.9495752 C350.460126,50.947774 350.509658,50.9378675 350.555589,50.9216568 C350.766328,50.8487087 350.914025,50.6433732 350.902317,50.4092188 C350.826667,48.6773765 350.628537,46.9212182 350.314229,45.1884753 C350.261995,44.9065894 349.991817,44.7201664 349.710831,44.7715003 C349.432548,44.8210329 349.240721,45.0921117 349.292956,45.3748983" id="Fill-309" fill="#57C4C4"></path>
                            <path d="M343.184046,30.2820233 C344.123366,31.7076637 344.982533,33.2017491 345.73633,34.7228524 C345.853407,34.9597086 346.128989,35.0668793 346.371249,34.9822235 C346.392863,34.9750187 346.412676,34.9669134 346.431588,34.9570068 C346.689158,34.8300231 346.793627,34.5184176 346.665743,34.2617483 C345.893033,32.7037206 345.013153,31.1727108 344.052219,29.7119473 C343.894615,29.4723893 343.573103,29.4030436 343.332644,29.5633493 C343.093987,29.7209533 343.028244,30.0424653 343.184046,30.2820233" id="Fill-311" fill="#57C4C4"></path>
                            <path d="M335.805119,21.806443 C335.950115,21.9334268 336.147345,21.9649476 336.316657,21.9055084 C336.399511,21.8766894 336.475161,21.8271567 336.536402,21.7569104 C336.725527,21.5416684 336.703012,21.2129516 336.48777,21.0247274 C335.163897,19.8692653 333.760771,18.7939561 332.320721,17.8303205 C332.080263,17.6718159 331.759651,17.7357581 331.601147,17.9735149 C331.441741,18.2112717 331.506584,18.5336844 331.74344,18.6930895 C333.148367,19.6315085 334.513658,20.6797999 335.805119,21.806443" id="Fill-313" fill="#57C4C4"></path>
                            <path d="M348.397585,67.3933411 C348.491247,67.4104524 348.582207,67.4023471 348.665962,67.3735281 C348.833473,67.3140888 348.968562,67.1681926 349.003685,66.9808691 L349.127967,66.3351432 C349.409853,64.8482624 349.692639,63.3604811 349.948408,61.8690975 C349.99614,61.5872115 349.806114,61.3188345 349.524228,61.2702024 C349.241442,61.2233715 348.974866,61.4106951 348.925333,61.6943822 C348.671366,63.1785611 348.388579,64.6609389 348.107594,66.1415154 L347.985113,66.7863408 C347.931077,67.0682267 348.1166,67.3393055 348.397585,67.3933411" id="Fill-315" fill="#57C4C4"></path>
                            <path d="M341.403032,27.776841 C341.542624,27.9596616 341.77948,28.0227031 341.984815,27.9506556 C342.035249,27.9326437 342.084781,27.9074271 342.130712,27.8723039 C342.357661,27.6984893 342.399989,27.3724743 342.225274,27.144624 C341.158971,25.7568086 339.999006,24.4248301 338.780502,23.1865133 C338.577868,22.9820785 338.250953,22.9811779 338.045617,23.1802091 C337.842984,23.3819422 337.839381,23.7097584 338.041114,23.9141933 C339.230799,25.1227904 340.361945,26.4223476 341.403032,27.776841" id="Fill-317" fill="#57C4C4"></path>
                            <path d="M348.017715,69.4337269 C347.734027,69.3841942 347.467452,69.5706172 347.417018,69.8543043 C347.060383,71.8590266 346.81272,73.4990083 346.636203,75.014708 C346.603782,75.2992957 346.806416,75.5568656 347.092805,75.589287 C347.172957,75.5991935 347.250408,75.589287 347.323357,75.5640703 C347.504376,75.5010288 347.643067,75.3389218 347.666483,75.134487 C347.841198,73.6395009 348.085259,72.0202329 348.437391,70.0353237 C348.487825,69.7534378 348.2987,69.4841602 348.017715,69.4337269" id="Fill-319" fill="#57C4C4"></path>
                            <path d="M362.087695,105.258276 C361.836429,105.123187 361.521221,105.215948 361.385232,105.468114 C361.248341,105.720281 361.342904,106.034588 361.59507,106.170578 C363.044126,106.955896 364.603955,107.670967 366.363715,108.35722 C366.484395,108.404051 366.609577,108.40315 366.723052,108.363524 C366.860843,108.315793 366.978821,108.208622 367.035558,108.062726 C367.139127,107.795249 367.00764,107.494451 366.741064,107.390883 C365.022731,106.71994 363.499826,106.02198 362.087695,105.258276" id="Fill-321" fill="#57C4C4"></path>
                            <path d="M350.408161,53.0255344 C350.123574,53.0165285 349.880413,53.2362734 349.869606,53.5235629 C349.807465,55.1023042 349.654364,56.7747073 349.400397,58.6362351 C349.361671,58.9208228 349.561603,59.1810945 349.843489,59.2207206 C349.929045,59.2315278 350.010099,59.2225218 350.085749,59.1964046 C350.264066,59.1342636 350.401857,58.9766597 350.427974,58.7767278 C350.687345,56.8809774 350.842248,55.1761529 350.90619,53.5649903 C350.916997,53.2786014 350.69455,53.0363416 350.408161,53.0255344" id="Fill-323" fill="#57C4C4"></path>
                            <path d="M326.567907,14.6478914 C326.010439,14.3993275 325.448468,14.1633718 324.883796,13.9391239 C324.618121,13.834655 324.315521,13.96344 324.210152,14.2309164 C324.104782,14.4974922 324.234468,14.7982906 324.501044,14.9045607 C325.053108,15.1225045 325.601569,15.3521559 326.144628,15.5953163 C327.152392,16.0447127 328.156555,16.5472442 329.125594,17.0894018 C329.260683,17.1650517 329.414684,17.1740576 329.549774,17.1263261 C329.66505,17.0867 329.767717,17.0056465 329.830759,16.8903705 C329.971252,16.6400054 329.882093,16.3238969 329.631728,16.1852054 C328.63477,15.6268371 327.60359,15.1098961 326.567907,14.6478914" id="Fill-325" fill="#57C4C4"></path>
                        </g>
                    </g>
                </g>
            </g>
        </g>
    </g>
</svg>