<?xml version="1.0" encoding="UTF-8"?>
<svg width="20px" height="20px" viewBox="0 0 20 20" version="1.1" xmlns="http://www.w3.org/2000/svg" xmlns:xlink="http://www.w3.org/1999/xlink">
    <title>icon-sign-white</title>
    <g id="Page-1-Icons" stroke="none" stroke-width="1" fill="none" fill-rule="evenodd">
        <g id="PECOS-2.0-Icons-Overview-v28" transform="translate(-1604.000000, -366.000000)" fill="#FFFFFF" fill-rule="nonzero">
            <g id="MISC-BUTTON-ICONS" transform="translate(1585.000000, 32.000000)">
                <g id="icon-sign-white" transform="translate(19.000000, 334.000000)">
                    <path d="M1.9532771,17.3201823 L0.0868039614,16.6016574 L0.785837143,14.7926656 L1.2823814,13.5395266 L1.60499748,12.744279 L2.0768634,11.6114169 L2.38372969,10.8960309 L2.68468942,10.2124085 L2.97996737,9.56044654 L3.26978833,8.94004152 C3.31764956,8.83926468 3.36529278,8.73979842 3.41272267,8.64164056 L3.69477959,8.06837716 L3.97194145,7.52641229 L4.24443304,7.01564258 C4.2894716,6.93310814 4.33432494,6.8518692 4.37899772,6.7719236 L4.64490536,6.3077528 L4.90670466,5.87451874 L5.16462041,5.47211802 C5.50601895,4.95609336 5.83766075,4.52201532 6.16194346,4.16878124 L6.40381313,3.9189967 C7.16560153,3.17590432 7.88926107,2.88726757 8.6069116,3.03831488 C9.8311232,3.29598051 10.1191836,4.38336728 9.9457219,5.94288637 C9.91794277,6.19263644 9.87916938,6.45369027 9.82811903,6.73466672 L9.74217544,7.17215072 L9.63685438,7.64598281 L9.51119382,8.16262712 L9.36423174,8.72854782 L9.19500611,9.35020904 L8.49695491,11.8236943 L8.24683974,12.7737384 L8.164,13.137 L8.45301198,12.8042365 L8.72435194,12.4791709 L9.19428498,11.8980202 L9.95754201,10.9288393 L10.1409589,10.700588 L10.4904479,10.277916 L10.819517,9.89962668 C11.779342,8.83046267 12.5073416,8.34872125 13.3981064,8.34872125 C14.3832884,8.34872125 15.0387629,8.92871723 15.2339221,9.83545038 C15.28307,10.0637976 15.306927,10.2658688 15.3091807,10.5200747 L15.3043698,10.794563 L15.2859763,11.1212324 L15.1944694,12.2336677 C15.1502279,12.8614503 15.1737274,13.2787535 15.2635302,13.5386606 L15.268,13.549 L15.5504866,13.3072596 L16.0414868,12.866884 C16.6701607,12.3156076 17.2054332,11.952785 17.8231494,11.7388486 L18.0590009,11.6655242 L19.0228064,11.3989178 L19.5560192,13.3265288 L18.5922137,13.5931352 C18.2684106,13.6827051 17.9416167,13.8810919 17.52199,14.2318627 L17.2388349,14.4789927 L16.7063922,14.9550896 C16.4159806,15.2052925 16.1798211,15.3769086 15.9219261,15.5029017 C15.0503305,15.9287145 14.1892433,15.6410757 13.6326236,14.7418224 C13.2327246,14.0957608 13.132203,13.3756069 13.1835123,12.3546957 L13.2059811,12.0031422 L13.285009,11.0546723 L13.3006265,10.7977484 L13.3063639,10.5960093 L13.3024065,10.4377499 L13.296,10.374 L13.2457603,10.3984188 C13.12127,10.464822 12.9515409,10.5980481 12.7402545,10.7997756 L12.515252,11.0243992 C12.4754883,11.0656629 12.4346043,11.1088449 12.3926171,11.153953 L12.1275913,11.4477775 L11.836906,11.7882022 L11.2926165,12.4649038 L10.5581042,13.4001149 L10.0805859,13.9925321 C10.0310319,14.0528206 9.9825778,14.1113081 9.93515573,14.1680389 L9.66246397,14.4876962 C9.57533247,14.5874576 9.49178559,14.6805458 9.41127991,14.7673148 L9.17834307,15.0090177 C8.46615959,15.7166186 7.9794019,15.8858427 7.25216273,15.820089 C6.04022852,15.7105114 5.85420959,14.8566891 6.0728801,13.4502345 L6.13561925,13.0872185 L6.20969574,12.7133433 L6.31890169,12.2353605 L6.43791618,11.7725903 L6.65096379,10.9968953 L7.17655179,9.14208085 C7.23681793,8.92796786 7.29333628,8.72425154 7.34624405,8.53008523 L7.4942728,7.97538972 L7.5744229,7.66244046 L7.71212561,7.09041043 C7.73262785,7.00067103 7.75192686,6.91360228 7.77005395,6.82901095 L7.86500389,6.34964624 C7.90569781,6.1232826 7.93640801,5.9157377 7.95797988,5.72179439 C7.98414579,5.48654805 7.9935528,5.28755636 7.98891339,5.13039209 L7.984,5.054 C7.86092662,5.13118536 7.71135647,5.27705582 7.5376266,5.4905392 L7.38285311,5.69005823 L7.21657333,5.92254374 L7.0391143,6.18784571 L6.85080308,6.48581409 L6.6519667,6.81629884 L6.44293222,7.17914992 L6.11097448,7.78378517 L5.87787557,8.22689563 L5.63572322,8.70184727 L5.38484448,9.20849005 L4.9928798,10.0275469 L4.72161591,10.6127611 L4.30060653,11.5489717 L3.86364206,12.5547994 L3.41182627,13.6297378 L3.10291009,14.3845082 L2.62879495,15.5735058 L2.31253955,16.3869457 L1.9532771,17.3201823 Z" id="Line-2"></path>
                </g>
            </g>
        </g>
    </g>
</svg>