<?xml version="1.0" encoding="UTF-8"?>
<svg width="20px" height="20px" viewBox="0 0 20 20" version="1.1" xmlns="http://www.w3.org/2000/svg" xmlns:xlink="http://www.w3.org/1999/xlink">
    <title>icon-escalate-blue</title>
    <g id="Page-1-Icons" stroke="none" stroke-width="1" fill="none" fill-rule="evenodd">
        <g id="PECOS-2.0-Icons-Overview-v31" transform="translate(-1800.000000, -227.000000)" fill="#0573BB">
            <g id="MISC-BUTTON-ICONS" transform="translate(1554.000000, 69.000000)">
                <g id="Column-2" transform="translate(246.000000, 33.000000)">
                    <g id="icon-escalate-blue" transform="translate(0.000000, 125.000000)">
                        <path d="M15.7360414,0.867183122 L18.9498668,4.08100845 C19.3387453,4.46988696 19.3387453,5.1003836 18.9498668,5.48926211 C18.5609883,5.87814062 17.9304916,5.87814062 17.5416131,5.48926211 L16.0059272,3.9532899 L16.0060711,9.99996336 C16.0060711,10.5489154 15.5610576,10.9939289 15.0121055,10.9939289 C14.4629106,10.9939289 14.0174674,10.5491589 14.0166368,9.9999645 L14.0069272,3.9572899 L12.4587894,5.50688104 C12.0754127,5.8902577 11.4538364,5.8902577 11.0704597,5.50688104 C10.687083,5.12350437 10.687083,4.50192798 11.0704597,4.11855131 L14.3218279,0.867183122 C14.7123522,0.476658831 15.3455172,0.476658831 15.7360414,0.867183122 Z" id="Combined-Shape"></path>
                        <path d="M7,5 C9.209139,5 11,7.01471863 11,9.5 C11,10.2644845 10.8305474,10.984444 10.5315924,11.6149347 C12.6066622,12.3949671 14,13.8428806 14,15.5 C14,17.9852814 10.8659932,20 7,20 C3.13400675,20 0,17.9852814 0,15.5 C0,13.8428806 1.39333779,12.3949671 3.46796189,11.6140069 C3.16945256,10.984444 3,10.2644845 3,9.5 C3,7.01471863 4.790861,5 7,5 Z M9.20304856,13.255128 L9.12243125,13.3149836 C8.5072884,13.7490316 7.77969612,14 7,14 C6.18588021,14 5.4285666,13.7263818 4.79675564,13.256429 C3.14021477,13.6623653 2,14.5146048 2,15.5 C2,16.8807119 4.23857625,18 7,18 C9.76142375,18 12,16.8807119 12,15.5 C12,14.5146048 10.8597852,13.6623653 9.20304856,13.255128 Z M7,7 C5.8954305,7 5,8.11928813 5,9.5 C5,10.8807119 5.8954305,12 7,12 C8.1045695,12 9,10.8807119 9,9.5 C9,8.11928813 8.1045695,7 7,7 Z" id="person"></path>
                    </g>
                </g>
            </g>
        </g>
    </g>
</svg>