<?xml version="1.0" encoding="UTF-8"?>
<svg width="20px" height="21px" viewBox="0 0 20 21" version="1.1" xmlns="http://www.w3.org/2000/svg" xmlns:xlink="http://www.w3.org/1999/xlink">
    <title>icon-sign-disabled</title>
    <g id="Page-1-Icons" stroke="none" stroke-width="1" fill="none" fill-rule="evenodd">
        <g id="PECOS-2.0-Icons-Overview-v28" transform="translate(-1604.000000, -333.000000)" fill="#949494" fill-rule="nonzero">
            <g id="MISC-BUTTON-ICONS" transform="translate(1585.000000, 32.000000)">
                <g id="icon-sign-disabled" transform="translate(19.000000, 301.500000)">
                    <path d="M1.9532771,16.8201823 L0.0868039614,16.1016574 L0.785837143,14.2926656 L1.2823814,13.0395266 L1.60499748,12.244279 L2.0768634,11.1114169 L2.38372969,10.3960309 L2.68468942,9.71240853 L2.97996737,9.06044654 L3.26978833,8.44004152 C3.31764956,8.33926468 3.36529278,8.23979842 3.41272267,8.14164056 L3.69477959,7.56837716 L3.97194145,7.02641229 L4.24443304,6.51564258 C4.2894716,6.43310814 4.33432494,6.3518692 4.37899772,6.2719236 L4.64490536,5.8077528 L4.90670466,5.37451874 L5.16462041,4.97211802 C5.50601895,4.45609336 5.83766075,4.02201532 6.16194346,3.66878124 L6.40381313,3.4189967 C7.16560153,2.67590432 7.88926107,2.38726757 8.6069116,2.53831488 C9.8311232,2.79598051 10.1191836,3.88336728 9.9457219,5.44288637 C9.91794277,5.69263644 9.87916938,5.95369027 9.82811903,6.23466672 L9.74217544,6.67215072 L9.63685438,7.14598281 L9.51119382,7.66262712 L9.36423174,8.22854782 L9.19500611,8.85020904 L8.49695491,11.3236943 L8.24683974,12.2737384 L8.164,12.637 L8.45301198,12.3042365 L8.72435194,11.9791709 L9.19428498,11.3980202 L9.95754201,10.4288393 L10.1409589,10.200588 L10.4904479,9.77791604 L10.819517,9.39962668 C11.779342,8.33046267 12.5073416,7.84872125 13.3981064,7.84872125 C14.3832884,7.84872125 15.0387629,8.42871723 15.2339221,9.33545038 C15.28307,9.56379761 15.306927,9.76586876 15.3091807,10.0200747 L15.3043698,10.294563 L15.2859763,10.6212324 L15.1944694,11.7336677 C15.1502279,12.3614503 15.1737274,12.7787535 15.2635302,13.0386606 L15.268,13.049 L15.5504866,12.8072596 L16.0414868,12.366884 C16.6701607,11.8156076 17.2054332,11.452785 17.8231494,11.2388486 L18.0590009,11.1655242 L19.0228064,10.8989178 L19.5560192,12.8265288 L18.5922137,13.0931352 C18.2684106,13.1827051 17.9416167,13.3810919 17.52199,13.7318627 L17.2388349,13.9789927 L16.7063922,14.4550896 C16.4159806,14.7052925 16.1798211,14.8769086 15.9219261,15.0029017 C15.0503305,15.4287145 14.1892433,15.1410757 13.6326236,14.2418224 C13.2327246,13.5957608 13.132203,12.8756069 13.1835123,11.8546957 L13.2059811,11.5031422 L13.285009,10.5546723 L13.3006265,10.2977484 L13.3063639,10.0960093 L13.3024065,9.93774989 L13.296,9.874 L13.2457603,9.89841875 C13.12127,9.96482197 12.9515409,10.0980481 12.7402545,10.2997756 L12.515252,10.5243992 C12.4754883,10.5656629 12.4346043,10.6088449 12.3926171,10.653953 L12.1275913,10.9477775 L11.836906,11.2882022 L11.2926165,11.9649038 L10.5581042,12.9001149 L10.0805859,13.4925321 C10.0310319,13.5528206 9.9825778,13.6113081 9.93515573,13.6680389 L9.66246397,13.9876962 C9.57533247,14.0874576 9.49178559,14.1805458 9.41127991,14.2673148 L9.17834307,14.5090177 C8.46615959,15.2166186 7.9794019,15.3858427 7.25216273,15.320089 C6.04022852,15.2105114 5.85420959,14.3566891 6.0728801,12.9502345 L6.13561925,12.5872185 L6.20969574,12.2133433 L6.31890169,11.7353605 L6.43791618,11.2725903 L6.65096379,10.4968953 L7.17655179,8.64208085 C7.23681793,8.42796786 7.29333628,8.22425154 7.34624405,8.03008523 L7.4942728,7.47538972 L7.5744229,7.16244046 L7.71212561,6.59041043 C7.73262785,6.50067103 7.75192686,6.41360228 7.77005395,6.32901095 L7.86500389,5.84964624 C7.90569781,5.6232826 7.93640801,5.4157377 7.95797988,5.22179439 C7.98414579,4.98654805 7.9935528,4.78755636 7.98891339,4.63039209 L7.984,4.554 C7.86092662,4.63118536 7.71135647,4.77705582 7.5376266,4.9905392 L7.38285311,5.19005823 L7.21657333,5.42254374 L7.0391143,5.68784571 L6.85080308,5.98581409 L6.6519667,6.31629884 L6.44293222,6.67914992 L6.11097448,7.28378517 L5.87787557,7.72689563 L5.63572322,8.20184727 L5.38484448,8.70849005 L4.9928798,9.52754688 L4.72161591,10.1127611 L4.30060653,11.0489717 L3.86364206,12.0547994 L3.41182627,13.1297378 L3.10291009,13.8845082 L2.62879495,15.0735058 L2.31253955,15.8869457 L1.9532771,16.8201823 Z" id="Line-2"></path>
                </g>
            </g>
        </g>
    </g>
</svg>