<?xml version="1.0" encoding="UTF-8"?>
<svg width="20px" height="20px" viewBox="0 0 20 20" version="1.1" xmlns="http://www.w3.org/2000/svg" xmlns:xlink="http://www.w3.org/1999/xlink">
    <title>icon-letter-black</title>
    <g id="Page-1-Icons" stroke="none" stroke-width="1" fill="none" fill-rule="evenodd">
        <g id="PECOS-2.0-Icons-Overview-v28" transform="translate(-1604.000000, -428.000000)" fill="#000000">
            <g id="MISC-BUTTON-ICONS" transform="translate(1585.000000, 32.000000)">
                <g id="icon-letter-black" transform="translate(19.000000, 396.000000)">
                    <path d="M14.1595726,1 C14.4286001,1 14.6862802,1.10839758 14.874409,1.30070825 L17.7148364,4.20427576 C17.897638,4.39114086 18,4.6421579 18,4.90356751 L18,19 C18,19.5522847 17.5522847,20 17,20 L3,20 C2.44771525,20 2,19.5522847 2,19 L2,2 C2,1.44771525 2.44771525,1 3,1 L14.1595726,1 Z M3.59828089,2.53609259 L3.59828089,18.4713742 L16.4933844,18.4713742 L16.4933844,5.54307652 C16.4933844,5.26693414 16.2695268,5.04307652 15.9933844,5.04307652 L15.9933844,5.04307652 L14.0110369,5.04307652 L14.0110369,3.05277997 C14.0110369,2.77696623 13.7876919,2.55324497 13.5118785,2.55278067 L13.5118785,2.55278067 L3.59828089,2.53609259 Z M6.03311056,12.9855256 L14.0110369,12.9855256 L14.0110369,13.9843194 L6.03311056,13.9843194 L6.03311056,12.9855256 Z M6.03311056,14.9831133 L14.0110369,14.9831133 L14.0110369,15.9819071 L6.03311056,15.9819071 L6.03311056,14.9831133 Z M6.03311056,10.987938 L14.0110369,10.987938 L14.0110369,11.9867318 L6.03311056,11.9867318 L6.03311056,10.987938 Z M6.03311056,8.99035043 L14.0110369,8.99035043 L14.0110369,9.98914423 L6.03311056,9.98914423 L6.03311056,8.99035043 Z M6.03311056,6.99276282 L14.0110369,6.99276282 L14.0110369,7.99155663 L6.03311056,7.99155663 L6.03311056,6.99276282 Z M6.03311056,4.99517522 L12.2381643,4.99517522 L12.2381643,5.99396902 L6.03311056,5.99396902 L6.03311056,4.99517522 Z" id="icon-letter"></path>
                </g>
            </g>
        </g>
    </g>
</svg>