<?xml version="1.0" encoding="UTF-8"?>
<svg width="16px" height="16px" viewBox="0 0 16 16" version="1.1" xmlns="http://www.w3.org/2000/svg" xmlns:xlink="http://www.w3.org/1999/xlink">
    <title>icon-sole-owner-signpost-blue</title>
    <g id="Page-1-Icons" stroke="none" stroke-width="1" fill="none" fill-rule="evenodd">
        <g id="PECOS-2.0-Icons-Overview-v31" transform="translate(-1899.000000, -485.000000)" fill="#0573BB">
            <g id="MISC-BUTTON-ICONS" transform="translate(1647.000000, 69.000000)">
                <g id="Column-2" transform="translate(246.000000, 33.000000)">
                    <g id="icon-sole-owner-signpost-blue" transform="translate(6.000000, 383.000000)">
                        <path d="M8,0 L16,4.76729584 L16,16 L11.5363617,16 L12.9833221,13.9971199 L12.983,13.991 L14,13.9916382 L14,5.84230423 L8,2.34124184 L2,5.84230423 L2,13.9916382 L3.037,13.991 L4.42047119,16 L0,16 L0,4.76729584 L8,0 Z M10.6521162,9.58771155 C11.772309,10.1333876 12.5,11.0158307 12.5,12.0115814 C12.5,13.6684357 10.4852814,15.0115814 8,15.0115814 C5.51471863,15.0115814 3.5,13.6684357 3.5,12.0115814 C3.5,11.0155382 4.22811863,10.1328692 5.34887117,9.58723072 L8,11.5852242 Z M8,5.25 C9.17360509,5.25 10.125,6.31332372 10.125,7.625 C10.125,8.93667628 9.17360509,10 8,10 C6.82639491,10 5.875,8.93667628 5.875,7.625 C5.875,6.31332372 6.82639491,5.25 8,5.25 Z" id="icon-owner-copy"></path>
                    </g>
                </g>
            </g>
        </g>
    </g>
</svg>