<?xml version="1.0" encoding="UTF-8"?>
<svg width="20px" height="20px" viewBox="0 0 20 20" version="1.1" xmlns="http://www.w3.org/2000/svg" xmlns:xlink="http://www.w3.org/1999/xlink">
    <title>icon-rerun-gray</title>
    <g id="Page-1-Icons" stroke="none" stroke-width="1" fill="none" fill-rule="evenodd">
        <g id="PECOS-2.0-Icons-Overview-v28" transform="translate(-1604.000000, -302.000000)" fill="#949494">
            <g id="MISC-BUTTON-ICONS" transform="translate(1585.000000, 32.000000)">
                <g id="icon-rerun-gray" transform="translate(29.000000, 280.000000) scale(-1, -1) translate(-29.000000, -280.000000) translate(19.000000, 270.000000)">
                    <path d="M8.07903894,2.38849695 L8.08129154,2.39074236 L8.08917761,2.39867179 C8.47669374,2.78867268 8.47669374,3.41835778 8.08917761,3.80835866 L5.91207144,5.99924035 L12,6 C15.3137085,6 18,8.6862915 18,12 C18,15.3137085 15.3137085,18 12,18 L5.53878255,18 C4.9864978,18 4.53878255,17.5522847 4.53878255,17 L4.53878255,16.9985019 C4.53878255,16.4468025 4.98558459,15.9993301 5.53728333,15.998503 L12.0008628,15.9888127 C14.1348025,15.9856134 15.8753028,14.3071668 15.9788281,12.1988738 L15.9836998,12 L15.9836998,11.9885729 C15.9836998,9.77943388 14.1928388,7.98857287 11.9836998,7.98857287 L11.9779725,7.98857697 L5.85307144,7.99624035 L8.09720507,10.255272 C8.4847212,10.6452729 8.4847212,11.274958 8.09720507,11.6649589 L8.09045105,11.6717562 C7.70241485,12.0622805 7.07126688,12.0642975 6.68074258,11.6762613 C6.67923609,11.6747644 6.67773438,11.6732627 6.67623749,11.6717562 L2.06407144,7.03001685 L6.67155008,2.39299495 C7.05897531,2.00308555 7.68912954,2.00107172 8.07903894,2.38849695 Z" id="Combined-Shape"></path>
                </g>
            </g>
        </g>
    </g>
</svg>