<?xml version="1.0" encoding="UTF-8"?>
<svg width="20px" height="20px" viewBox="0 0 20 20" version="1.1" xmlns="http://www.w3.org/2000/svg" xmlns:xlink="http://www.w3.org/1999/xlink">
    <title>icon-blue-checkmark</title>
    <g id="Page-1-Icons" stroke="none" stroke-width="1" fill="none" fill-rule="evenodd">
        <g id="PECOS-2.0-Icons-Overview-v30" transform="translate(-1577.000000, -474.000000)" fill="#0573BB">
            <g id="MISC-BUTTON-ICONS" transform="translate(1558.000000, 46.000000)">
                <g id="icon-blue-checkmark" transform="translate(19.000000, 428.000000)">
                    <g id="checkmark" transform="translate(1.801399, 3.653847)">
                        <path d="M0.74098587,4.92008407 C1.15039391,4.54375621 1.78723621,4.57010757 2.16415444,4.97897215 L6.20269489,9.35980609 L6.20269489,9.35980609 L14.8974052,0.682968045 C15.2754888,0.305661601 15.8877566,0.305976559 16.2654518,0.683671785 C16.643175,1.06139499 16.6435675,1.67368415 16.2663289,2.05189131 L6.9287751,11.4134188 C6.53875182,11.8044435 5.90558736,11.8052553 5.5145627,11.415232 C5.50801136,11.4086974 5.50155104,11.4020722 5.49518359,11.3953583 L0.692589616,6.33146961 C0.316003656,5.93439474 0.332613202,5.30721871 0.729688077,4.93063275 C0.733426525,4.92708721 0.737192571,4.92357087 0.74098587,4.92008407 Z" id="Rectangle"></path>
                    </g>
                </g>
            </g>
        </g>
    </g>
</svg>