<?xml version="1.0" encoding="UTF-8"?>
<svg width="20px" height="20px" viewBox="0 0 20 20" version="1.1" xmlns="http://www.w3.org/2000/svg" xmlns:xlink="http://www.w3.org/1999/xlink">
    <title>icon-completed-20</title>
    <g id="Page-1-Icons" stroke="none" stroke-width="1" fill="none" fill-rule="evenodd">
        <g id="PECOS-2.0-Icons-Overview-v30" transform="translate(-1577.000000, -478.000000)">
            <g id="MISC-BUTTON-ICONS" transform="translate(1557.000000, 12.000000)">
                <g id="icon-completed-20" transform="translate(20.000000, 466.000000)">
                    <circle id="Oval" fill="#37A04C" cx="10" cy="10" r="10"></circle>
                    <path d="M3.78123379,9.72994521 C4.16568825,9.29668753 4.82857491,9.25712471 5.26183259,9.64157918 C5.27815745,9.65606517 5.29402616,9.6710572 5.30941554,9.68653338 L8.11134338,12.5042648 L8.11134338,12.5042648 L14.3005621,6.11560461 C14.6671204,5.7372344 15.2643573,5.70813197 15.6659664,6.0490706 L15.8146756,6.17531456 C16.2357049,6.5327397 16.2872663,7.16380175 15.9298412,7.5848311 C15.9148004,7.60254842 15.8991465,7.61973603 15.8829081,7.6363626 L8.81538901,14.8728147 C8.4295038,15.2679236 7.79638298,15.2754009 7.40127406,14.8895157 C7.39945892,14.887743 7.39765052,14.8859633 7.39584892,14.8841767 L3.83297395,11.351091 C3.38823537,10.9100708 3.3655227,10.1984273 3.78123379,9.72994521 Z" id="white-checkmark" fill="#FFFFFF"></path>
                </g>
            </g>
        </g>
    </g>
</svg>