<?xml version="1.0" encoding="UTF-8"?>
<svg width="20px" height="20px" viewBox="0 0 20 20" version="1.1" xmlns="http://www.w3.org/2000/svg" xmlns:xlink="http://www.w3.org/1999/xlink">
    <title>icon-letter-white</title>
    <g id="Page-1-Icons" stroke="none" stroke-width="1" fill="none" fill-rule="evenodd">
        <g id="PECOS-2.0-Icons-Overview-v28" transform="translate(-1604.000000, -398.000000)" fill="#FFFFFF">
            <g id="MISC-BUTTON-ICONS" transform="translate(1585.000000, 32.000000)">
                <g id="icon-letter-white" transform="translate(19.000000, 366.000000)">
                    <path d="M14.1338709,0.998854045 C14.4026286,0.998854045 14.6600737,1.10703493 14.8481631,1.29900645 L17.693665,4.20323849 C17.8768003,4.39015368 17.9793728,4.6414072 17.9793728,4.90308609 L17.9793728,19 C17.9793728,19.5522847 17.5316576,20 16.9793728,20 L2.95348926,20 C2.40120451,20 1.95348926,19.5522847 1.95348926,19 L1.95348926,1.99885404 C1.95348926,1.44656929 2.40120451,0.998854045 2.95348926,0.998854045 L14.1338709,0.998854045 Z M3.55435573,2.53503928 L3.55435573,18.4712821 L16.4703199,18.4712821 L16.4703199,5.54217441 C16.4703199,5.26603204 16.2464623,5.04217441 15.9703199,5.04217441 L15.9703199,5.04217441 L13.9839566,5.04217441 L13.9839566,3.05172902 C13.9839566,2.77591477 13.7606108,2.5521933 13.484797,2.55172973 L13.484797,2.55172973 L3.55435573,2.53503928 Z M5.99312427,12.9851026 L13.9839566,12.9851026 L13.9839566,13.9839566 L5.99312427,13.9839566 L5.99312427,12.9851026 Z M5.99312427,14.9828107 L13.9839566,14.9828107 L13.9839566,15.9816647 L5.99312427,15.9816647 L5.99312427,14.9828107 Z M5.99312427,10.9873945 L13.9839566,10.9873945 L13.9839566,11.9862485 L5.99312427,11.9862485 L5.99312427,10.9873945 Z M5.99312427,8.9896864 L13.9839566,8.9896864 L13.9839566,9.98854045 L5.99312427,9.98854045 L5.99312427,8.9896864 Z M5.99312427,6.99197831 L13.9839566,6.99197831 L13.9839566,7.99083236 L5.99312427,7.99083236 L5.99312427,6.99197831 Z M5.99312427,4.99427022 L12.2082161,4.99427022 L12.2082161,5.99312427 L5.99312427,5.99312427 L5.99312427,4.99427022 Z" id="icon-letter"></path>
                </g>
            </g>
        </g>
    </g>
</svg>