<?xml version="1.0" encoding="UTF-8"?>
<svg width="20px" height="20px" viewBox="0 0 20 20" version="1.1" xmlns="http://www.w3.org/2000/svg" xmlns:xlink="http://www.w3.org/1999/xlink">
    <title>icon-open-new-window-white</title>
    <g id="Page-1-Icons" stroke="none" stroke-width="1" fill="none" fill-rule="evenodd">
        <g id="PECOS-2.0-Icons-Overview-v28" transform="translate(-1604.000000, -237.000000)" fill="#FFFFFF">
            <g id="MISC-BUTTON-ICONS" transform="translate(1585.000000, 32.000000)">
                <g id="icon-open-new-window-white" transform="translate(19.000000, 205.000000)">
                    <path d="M10,4 L10,6 L4,6 L4,16 L14,16 L14,10 L16,10 L16,17 C16,17.5522847 15.5522847,18 15,18 L3,18 C2.44771525,18 2,17.5522847 2,17 L2,5 C2,4.44771525 2.44771525,4 3,4 L10,4 Z M18,2 L18,8.55147186 C18,8.88284271 17.7313708,9.15147186 17.4,9.15147186 C17.2408701,9.15147186 17.0882578,9.08825776 16.9757359,8.97573593 L14.731,6.731 L9.85580597,11.6067474 C9.46528168,11.9972717 8.8321167,11.9972717 8.44159241,11.6067474 C8.05106811,11.2162231 8.05106811,10.5830582 8.44159241,10.1925339 L13.317,5.317 L11.0242641,3.02426407 C10.7899495,2.78994949 10.7899495,2.41005051 11.0242641,2.17573593 C11.1367859,2.0632141 11.2893982,2 11.4485281,2 L18,2 Z" id="icon-open-new-window"></path>
                </g>
            </g>
        </g>
    </g>
</svg>