<?xml version="1.0" encoding="UTF-8"?>
<svg width="20px" height="20px" viewBox="0 0 20 20" version="1.1" xmlns="http://www.w3.org/2000/svg" xmlns:xlink="http://www.w3.org/1999/xlink">
    <title>icon-replace-address</title>
    <g id="Page-1-Icons" stroke="none" stroke-width="1" fill="none" fill-rule="evenodd">
        <g id="PECOS-2.0-Icons-Overview-v28" transform="translate(-1604.000000, -142.000000)" fill="#0573BB">
            <g id="MISC-BUTTON-ICONS" transform="translate(1585.000000, 32.000000)">
                <g id="icon-replace-address" transform="translate(19.000000, 110.000000)">
                    <path d="M5.4998542,1 C7.1515094,1 8.59533606,1.88981977 9.37810004,3.21622517 C7.93274184,4.31260698 7,6.04737673 7,8 C7,9.09325897 7.29239547,10.1182253 7.80325037,11.000963 C7.31130603,11.8441465 6.73628748,12.763631 6.07851914,13.759276 L5.82967947,14.1338331 C5.70754382,14.3165104 5.46044406,14.3655891 5.27776671,14.2434535 C5.23471105,14.2146671 5.19768972,14.1777515 5.16878023,14.1347783 C3.2246461,11.2448781 1.96049091,8.96762112 1.37631467,7.30300737 C1.13405549,6.75150803 0.999854201,6.14142621 0.999854201,5.5 C0.999854201,3.01471863 3.01457283,1 5.4998542,1 Z M5.5,4 C4.67157288,4 4,4.67157288 4,5.5 C4,6.32842712 4.67157288,7 5.5,7 C6.32842712,7 7,6.32842712 7,5.5 C7,4.67157288 6.32842712,4 5.5,4 Z" id="marker"></path>
                    <path d="M13.9998542,4 C16.7612779,4 18.9998542,6.23857625 18.9998542,9 L18.9988542,8.978 L19,8.97808838 L18.9998542,9 C18.9998542,9.60394378 18.8927766,10.1828782 18.6965702,10.7188544 C18.1294259,12.5688532 16.7651094,15.0471731 14.603952,18.1523721 L14.3248677,18.5504936 C14.1982156,18.729975 13.9500453,18.7728017 13.7705639,18.6461496 C13.7334501,18.61996 13.7010968,18.5876066 13.6749073,18.5504928 C11.3517877,15.2583315 9.89446864,12.6473034 9.30295012,10.7174084 C9.10693185,10.1828782 8.9998542,9.60394378 8.9998542,9 C8.9998542,6.23857625 11.2384305,4 13.9998542,4 Z M14,7 C12.8954305,7 12,7.8954305 12,9 C12,10.1045695 12.8954305,11 14,11 C15.1045695,11 16,10.1045695 16,9 C16,7.8954305 15.1045695,7 14,7 Z" id="marker-copy"></path>
                </g>
            </g>
        </g>
    </g>
</svg>