<?xml version="1.0" encoding="UTF-8"?>
<svg width="20px" height="20px" viewBox="0 0 20 20" version="1.1" xmlns="http://www.w3.org/2000/svg" xmlns:xlink="http://www.w3.org/1999/xlink">
    <title>icon-calendar</title>
    <g id="Page-1-Icons" stroke="none" stroke-width="1" fill="none" fill-rule="evenodd">
        <g id="PECOS-2.0-Icons-Overview-v28" transform="translate(-1604.000000, -174.000000)" fill="#0573BB">
            <g id="MISC-BUTTON-ICONS" transform="translate(1585.000000, 32.000000)">
                <g id="icon-calendar" transform="translate(19.000000, 142.000000)">
                    <path d="M3,2 C3,3.1045695 3.8954305,4 5,4 C6.1045695,4 7,3.1045695 7,2 L7,2 L13,2 C13,3.1045695 13.8954305,4 15,4 C16.1045695,4 17,3.1045695 17,2 L17,2 L18,2 C19.1045695,2 20,2.8954305 20,4 L20,18 C20,19.1045695 19.1045695,20 18,20 L2,20 C0.8954305,20 1.3527075e-16,19.1045695 0,18 L0,4 C-1.3527075e-16,2.8954305 0.8954305,2 2,2 Z M17,5 L3,5 C2.44771525,5 2,5.44771525 2,6 L2,6 L2,17 C2,17.5522847 2.44771525,18 3,18 L3,18 L17,18 C17.5522847,18 18,17.5522847 18,17 L18,17 L18,6 C18,5.44771525 17.5522847,5 17,5 L17,5 Z M5,15 L5,17 L3,17 L3,15 L5,15 Z M8,15 L8,17 L6,17 L6,15 L8,15 Z M11,15 L11,17 L9,17 L9,15 L11,15 Z M14,15 L14,17 L12,17 L12,15 L14,15 Z M5,12 L5,14 L3,14 L3,12 L5,12 Z M8,12 L8,14 L6,14 L6,12 L8,12 Z M11,12 L11,14 L9,14 L9,12 L11,12 Z M14,12 L14,14 L12,14 L12,12 L14,12 Z M17,12 L17,14 L15,14 L15,12 L17,12 Z M5,9 L5,11 L3,11 L3,9 L5,9 Z M8,9 L8,11 L6,11 L6,9 L8,9 Z M11,9 L11,11 L9,11 L9,9 L11,9 Z M14,9 L14,11 L12,11 L12,9 L14,9 Z M17,9 L17,11 L15,11 L15,9 L17,9 Z M8,6 L8,8 L6,8 L6,6 L8,6 Z M11,6 L11,8 L9,8 L9,6 L11,6 Z M14,6 L14,8 L12,8 L12,6 L14,6 Z M17,6 L17,8 L15,8 L15,6 L17,6 Z M15,0 C15.5522847,-1.01453063e-16 16,0.44771525 16,1 L16,2 C16,2.55228475 15.5522847,3 15,3 C14.4477153,3 14,2.55228475 14,2 L14,1 C14,0.44771525 14.4477153,1.01453063e-16 15,0 Z M5,0 C5.55228475,-1.01453063e-16 6,0.44771525 6,1 L6,2 C6,2.55228475 5.55228475,3 5,3 C4.44771525,3 4,2.55228475 4,2 L4,1 C4,0.44771525 4.44771525,1.01453063e-16 5,0 Z"></path>
                </g>
            </g>
        </g>
    </g>
</svg>