<?xml version="1.0" encoding="UTF-8"?>
<svg width="14px" height="14px" viewBox="0 0 14 14" version="1.1" xmlns="http://www.w3.org/2000/svg" xmlns:xlink="http://www.w3.org/1999/xlink">
    <title>icon-open-new-window-14</title>
    <g id="Page-1-Icons" stroke="none" stroke-width="1" fill="none" fill-rule="evenodd">
        <g id="PECOS-2.0-Icons-Overview-v30" transform="translate(-1806.000000, -345.000000)" fill="#0573BB">
            <g id="MISC-BUTTON-ICONS" transform="translate(1557.000000, 40.000000)">
                <g id="Column-2" transform="translate(246.000000, 53.000000)">
                    <g id="icon-open-new-window-14" transform="translate(3.000000, 252.000000)">
                        <path d="M6,2 L6,4 L2,4 L2,12 L10,12 L10,8 L12,8 L12,13 C12,13.5522847 11.5522847,14 11,14 L1,14 C0.44771525,14 6.76353751e-17,13.5522847 0,13 L0,3 C-6.76353751e-17,2.44771525 0.44771525,2 1,2 L6,2 Z M14,0 L14,6.03431458 C14,6.25522847 13.8209139,6.43431458 13.6,6.43431458 C13.4939134,6.43431458 13.3921718,6.39217184 13.3171573,6.31715729 L11.231,4.231 L7.56291275,7.89964066 C7.17238846,8.29016495 6.53922348,8.29016495 6.14869919,7.89964066 C5.7581749,7.50911636 5.7581749,6.87595139 6.14869919,6.48542709 L9.817,2.817 L7.68284271,0.682842712 C7.526633,0.526632996 7.526633,0.273367004 7.68284271,0.117157288 C7.75785726,0.0421427361 7.85959883,-3.13579116e-16 7.96568542,0 L14,0 Z" id="icon-open-new-window"></path>
                    </g>
                </g>
            </g>
        </g>
    </g>
</svg>