<?xml version="1.0" encoding="UTF-8"?>
<svg width="20px" height="18px" viewBox="0 0 20 18" version="1.1" xmlns="http://www.w3.org/2000/svg" xmlns:xlink="http://www.w3.org/1999/xlink">
    <title>icon-primary-location</title>
    <defs>
        <path d="M8.16210938,13.9941406 L8.16210938,10.0634766 L9.33789062,10.0634766 C10.6230469,10.0634766 11.6108398,9.79117839 12.3012695,9.24658203 C12.9916992,8.70198568 13.3369141,7.92382812 13.3369141,6.91210938 C13.3369141,4.97070312 12.0882161,4 9.59082031,4 L9.59082031,4 L7,4 L7,13.9941406 L8.16210938,13.9941406 Z M9.20800781,9.06542969 L8.16210938,9.06542969 L8.16210938,5.00488281 L9.4609375,5.00488281 C10.3769531,5.00488281 11.0514323,5.16666667 11.484375,5.49023438 C11.9173177,5.81380208 12.1337891,6.30598958 12.1337891,6.96679688 C12.1337891,7.70052083 11.9036458,8.23372396 11.4433594,8.56640625 C10.9830729,8.89908854 10.2379557,9.06542969 9.20800781,9.06542969 L9.20800781,9.06542969 Z" id="path-1"></path>
    </defs>
    <g id="icon-primary-location" stroke="none" stroke-width="1" fill="none" fill-rule="evenodd">
        <g id="Group">
            <rect id="base" fill="#333333" x="0" y="0" width="20" height="18" rx="3"></rect>
            <mask id="mask-2" fill="white">
                <use xlink:href="#path-1"></use>
            </mask>
            <g id="P" fill-rule="nonzero"></g>
            <path d="M3,0 L17,0 C18.6568542,0 20,1.34314575 20,3 L20,15 C20,16.6568542 18.6568542,18 17,18 L3,18 C1.34314575,18 0,16.6568542 0,15 L0,3 C0,1.34314575 1.34314575,0 3,0 Z" id="Color" fill="#FFFFFF" mask="url(#mask-2)"></path>
        </g>
    </g>
</svg>