<?xml version="1.0" encoding="UTF-8"?>
<svg width="12px" height="12px" viewBox="0 0 12 12" version="1.1" xmlns="http://www.w3.org/2000/svg" xmlns:xlink="http://www.w3.org/1999/xlink">
    <title>icon-close-black</title>
    <g id="Page-1-Icons" stroke="none" stroke-width="1" fill="none" fill-rule="evenodd">
        <g id="PECOS-2.0-Icons-Overview-v18" transform="translate(-1746.000000, -166.000000)" fill="#000000">
            <g id="Misc-Button-Icons" transform="translate(1722.000000, 69.000000)">
                <g id="icon-close-black" transform="translate(24.000000, 97.000000)">
                    <path d="M2.70710678,1.29289322 L6.242,4.828 L9.77817459,1.29289322 C10.1386586,0.932409257 10.7058896,0.904679722 11.0981808,1.20970461 L11.1923882,1.29289322 C11.5829124,1.68341751 11.5829124,2.31658249 11.1923882,2.70710678 L11.1923882,2.70710678 L7.657,6.242 L11.1923882,9.77817459 C11.5829124,10.1686989 11.5829124,10.8018639 11.1923882,11.1923882 C10.8018639,11.5829124 10.1686989,11.5829124 9.77817459,11.1923882 L6.242,7.657 L2.70710678,11.1923882 C2.34662282,11.5528721 1.77939176,11.5806017 1.38710056,11.2755768 L1.29289322,11.1923882 C0.902368927,10.8018639 0.902368927,10.1686989 1.29289322,9.77817459 L1.29289322,9.77817459 L4.828,6.242 L1.29289322,2.70710678 C0.902368927,2.31658249 0.902368927,1.68341751 1.29289322,1.29289322 C1.68341751,0.902368927 2.31658249,0.902368927 2.70710678,1.29289322 Z"></path>
                </g>
            </g>
        </g>
    </g>
</svg>