<?xml version="1.0" encoding="UTF-8"?>
<svg width="29px" height="22px" viewBox="0 0 29 22" version="1.1" xmlns="http://www.w3.org/2000/svg" xmlns:xlink="http://www.w3.org/1999/xlink">
    <title>icon-reval-marker-green-smaller</title>
    <g id="Page-1-Icons" stroke="none" stroke-width="1" fill="none" fill-rule="evenodd">
        <g id="PECOS-2.0-Icons-Overview-v27" transform="translate(-2841.000000, -2035.000000)">
            <g id="REVALIDATION-TAG-ICONS-" transform="translate(2828.000000, 1961.000000)">
                <g id="icon-reval-marker-green-smaller" transform="translate(13.000000, 74.000000)">
                    <path d="M2,0.0326788107 L22.6313876,0.0326788107 L22.6313876,0.0326788107 L28.8750458,11.0326788 L22.6313876,22.0014136 L2,22.0014136 C0.8954305,22.0014136 1.3527075e-16,21.1059831 0,20.0014136 L0,2.03267881 C-1.3527075e-16,0.928109311 0.8954305,0.0326788107 2,0.0326788107 Z" id="Rectangle" fill="#37A04C"></path>
                    <g id="icon-revalidation-white-copy-4" transform="translate(1.049422, 0.000000)" fill="#FFFFFF">
                        <path d="M7.32346294,8.52748685 L7.48418128,10.0526256 C6.41443359,10.4388377 5.66389951,11.0258157 5.66389951,11.5446325 C5.66389951,12.4118461 7.7494035,13.4617092 9.94048575,13.4617092 C12.1038647,13.4617092 14.2602045,12.4382257 14.3143868,11.577611 L14.3122922,11.5123713 L14.3069635,11.4501579 C14.2228203,10.9749459 13.5192786,10.4613399 12.5466174,10.1008466 L12.7101646,8.54409598 C14.5226542,9.08825675 15.755294,10.1590538 15.755294,11.3910284 L15.7542922,11.4183713 L15.755294,11.4186311 L15.755294,14.8176843 C15.755294,16.9599421 13.4314453,18.3332149 9.98129273,18.3332149 C6.62438757,18.3332149 4.33940834,17.03317 4.21834804,14.9896838 L4.21329215,14.8176843 L4.21329215,11.4186311 C4.22234204,11.4096366 4.22227172,11.4003336 4.22227172,11.3910284 C4.22227172,10.1463933 5.48037645,9.06626545 7.32346294,8.52748685 Z M9.98878288,14.8724417 C8.26618242,14.8724417 6.71999671,14.3755396 5.66335013,13.6371324 L5.66389951,14.6839154 C5.66389951,15.8343168 7.5163252,16.8165815 9.98129273,16.8165815 C12.4462603,16.8165815 14.313262,15.8343168 14.313262,14.6839154 L14.3131936,13.6378464 C13.2565721,14.3758599 11.710828,14.8724417 9.98878288,14.8724417 Z M10.0013801,1.63537133 C11.3796211,1.63537133 12.4969062,2.7526564 12.4969062,4.13089739 C12.4969062,4.21085853 12.493063,4.29077348 12.48539,4.37036562 L12.011582,9.28518828 C11.9129562,10.3082354 11.0533179,11.0889866 10.0255279,11.0889866 C8.99638414,11.0889866 8.13428725,10.3099729 8.03035037,9.28609111 L7.53120345,4.36899672 C7.39271583,3.00475582 8.38638521,1.78655366 9.75062611,1.64806605 C9.8339432,1.63960832 9.91763484,1.63537133 10.0013801,1.63537133 Z M10.0106794,3.05190948 C9.99298242,3.05190948 9.97528822,3.05235553 9.95761368,3.0532472 C9.41541738,3.08060078 8.98973263,3.513355 8.95921244,4.04324721 L8.95882238,4.15817001 L9.20576609,9.05303047 C9.22448896,9.42415079 9.50688071,9.72209831 9.86605673,9.76917901 L9.96577717,9.77566586 C10.3403678,9.77566586 10.6530452,9.51159093 10.7223987,9.15660499 L10.7351442,9.05766675 L11.0478146,4.15732902 C11.0492203,4.13529857 11.0499236,4.11322893 11.0499236,4.09115368 C11.0499236,3.51719496 10.5846382,3.05190948 10.0106794,3.05190948 Z" id="stamp-angled-copy-3" transform="translate(9.984293, 9.984293) rotate(-45.000000) translate(-9.984293, -9.984293) "></path>
                    </g>
                </g>
            </g>
        </g>
    </g>
</svg>
