<svg id="svg" version="1.1" xmlns="http://www.w3.org/2000/svg" xmlns:xlink="http://www.w3.org/1999/xlink" width="400" height="238.22714681440445" viewBox="0, 0, 400,238.22714681440445"><g id="svgg"><path id="path0" d="M196.482 0.264 C 196.332 0.348,196.015 0.386,195.777 0.348 C 195.540 0.310,195.180 0.365,194.977 0.470 C 194.775 0.574,194.077 0.703,193.426 0.755 C 192.776 0.808,192.244 0.866,192.244 0.886 C 192.244 0.971,191.310 1.152,190.859 1.153 C 190.584 1.154,190.360 1.251,190.360 1.368 C 190.360 1.485,190.161 1.518,189.917 1.440 C 189.673 1.363,189.474 1.400,189.474 1.521 C 189.474 1.643,189.180 1.735,188.821 1.725 C 188.462 1.714,187.911 1.875,187.596 2.081 C 187.281 2.287,186.927 2.396,186.808 2.323 C 186.690 2.250,186.593 2.301,186.593 2.438 C 186.593 2.574,186.496 2.626,186.377 2.552 C 186.259 2.479,185.914 2.582,185.612 2.780 C 185.309 2.978,184.942 3.067,184.795 2.977 C 184.618 2.867,184.588 2.907,184.706 3.097 C 184.824 3.288,184.780 3.345,184.574 3.271 C 184.404 3.210,184.074 3.322,183.840 3.519 C 183.496 3.809,183.450 3.814,183.601 3.546 C 183.750 3.281,183.702 3.286,183.362 3.575 C 182.913 3.956,181.954 4.332,181.646 4.249 C 181.545 4.222,181.537 4.319,181.627 4.464 C 181.739 4.646,181.672 4.684,181.410 4.583 C 181.154 4.485,181.081 4.521,181.188 4.694 C 181.295 4.867,181.223 4.903,180.967 4.805 C 180.710 4.706,180.638 4.743,180.745 4.916 C 180.855 5.093,180.775 5.123,180.486 5.012 C 180.257 4.924,180.142 4.925,180.232 5.015 C 180.374 5.157,179.100 5.841,178.856 5.755 C 178.807 5.737,178.677 5.881,178.568 6.074 C 178.460 6.268,178.259 6.427,178.123 6.427 C 177.986 6.427,177.675 6.601,177.431 6.814 C 177.102 7.102,177.030 7.116,177.153 6.870 C 177.254 6.667,177.195 6.687,177.003 6.922 C 176.829 7.133,176.623 7.241,176.543 7.162 C 176.464 7.082,176.399 7.134,176.399 7.276 C 176.399 7.418,176.249 7.535,176.066 7.535 C 175.884 7.535,175.734 7.634,175.734 7.756 C 175.734 7.878,175.588 7.978,175.409 7.978 C 175.231 7.978,174.977 8.180,174.844 8.427 C 174.712 8.674,174.516 8.822,174.408 8.756 C 174.301 8.690,174.073 8.836,173.901 9.081 C 173.729 9.326,173.537 9.474,173.473 9.410 C 173.409 9.346,173.191 9.546,172.989 9.855 C 172.787 10.163,172.474 10.416,172.294 10.416 C 172.114 10.416,171.967 10.521,171.967 10.650 C 171.967 10.779,171.877 10.829,171.767 10.762 C 171.658 10.694,171.193 11.087,170.735 11.635 C 170.277 12.183,169.788 12.632,169.648 12.632 C 169.374 12.632,167.969 13.996,168.043 14.191 C 168.068 14.256,167.752 14.705,167.341 15.188 C 166.929 15.671,166.670 15.917,166.764 15.734 C 166.906 15.458,166.882 15.451,166.625 15.690 C 166.455 15.848,166.312 16.048,166.308 16.133 C 166.290 16.478,165.637 17.285,165.376 17.285 C 165.223 17.285,165.109 17.360,165.123 17.452 C 165.193 17.892,165.072 18.166,164.830 18.116 C 164.683 18.086,164.546 18.186,164.525 18.338 C 164.505 18.490,164.475 18.721,164.460 18.850 C 164.445 18.979,164.332 19.023,164.211 18.947 C 164.089 18.872,163.989 18.901,163.989 19.011 C 163.989 19.121,163.740 19.501,163.435 19.855 C 163.131 20.209,162.881 20.623,162.881 20.776 C 162.881 20.928,162.775 21.053,162.646 21.053 C 162.517 21.053,162.473 21.152,162.548 21.274 C 162.624 21.396,162.580 21.496,162.451 21.496 C 162.322 21.496,162.228 21.571,162.242 21.662 C 162.312 22.104,162.194 22.395,161.994 22.271 C 161.795 22.148,161.677 22.439,161.747 22.881 C 161.761 22.972,161.673 23.047,161.551 23.047 C 161.429 23.047,161.330 23.179,161.330 23.340 C 161.330 23.705,159.984 26.233,159.736 26.335 C 159.636 26.376,159.613 26.505,159.685 26.621 C 159.757 26.738,159.688 26.989,159.531 27.178 C 159.374 27.368,159.213 27.729,159.175 27.982 C 159.136 28.235,158.988 28.582,158.845 28.755 C 158.702 28.927,158.571 29.268,158.553 29.513 C 158.535 29.757,158.422 30.023,158.302 30.103 C 158.075 30.255,157.425 32.339,157.513 32.632 C 157.540 32.723,157.469 32.798,157.354 32.798 C 157.240 32.798,157.142 33.022,157.137 33.296 C 157.116 34.412,157.082 34.571,156.869 34.571 C 156.746 34.571,156.709 34.770,156.787 35.014 C 156.873 35.285,156.827 35.457,156.667 35.457 C 156.524 35.457,156.463 35.603,156.532 35.782 C 156.600 35.961,156.566 36.164,156.454 36.233 C 156.343 36.301,156.309 36.505,156.378 36.686 C 156.447 36.866,156.405 37.137,156.284 37.288 C 156.163 37.439,156.095 37.837,156.133 38.172 C 156.171 38.507,156.134 38.781,156.051 38.781 C 155.968 38.781,155.882 39.105,155.860 39.501 C 155.837 39.898,155.770 40.720,155.709 41.330 C 155.546 42.977,155.549 49.127,155.713 50.526 C 155.792 51.197,155.866 52.069,155.878 52.465 C 155.890 52.861,155.965 53.186,156.043 53.186 C 156.122 53.186,156.189 53.410,156.193 53.684 C 156.204 54.508,156.373 55.534,156.543 55.808 C 156.630 55.950,156.640 56.166,156.565 56.288 C 156.490 56.410,156.540 56.510,156.678 56.510 C 156.827 56.510,156.871 56.689,156.787 56.953 C 156.706 57.207,156.747 57.396,156.883 57.396 C 157.013 57.396,157.119 57.689,157.119 58.048 C 157.119 58.406,157.228 58.767,157.360 58.848 C 157.493 58.930,157.552 59.186,157.492 59.416 C 157.431 59.646,157.483 59.834,157.607 59.834 C 157.730 59.834,157.774 59.983,157.704 60.166 C 157.634 60.349,157.681 60.499,157.809 60.499 C 157.938 60.499,158.001 60.622,157.951 60.774 C 157.900 60.925,157.992 61.181,158.154 61.343 C 158.316 61.506,158.449 61.930,158.449 62.287 C 158.449 62.644,158.548 62.936,158.670 62.936 C 158.792 62.936,158.892 63.191,158.892 63.503 C 158.892 63.825,158.988 64.011,159.114 63.934 C 159.235 63.858,159.335 63.935,159.335 64.104 C 159.335 64.274,159.581 64.898,159.882 65.492 C 160.182 66.085,160.382 66.617,160.326 66.673 C 160.115 66.884,161.858 67.868,162.522 67.913 C 163.779 67.997,164.723 67.234,164.841 66.038 C 164.883 65.612,164.946 65.233,164.981 65.197 C 165.016 65.161,164.760 64.574,164.411 63.893 C 164.063 63.212,163.831 62.569,163.897 62.463 C 163.962 62.358,163.904 62.271,163.767 62.271 C 163.631 62.271,163.576 62.180,163.645 62.069 C 163.714 61.957,163.664 61.831,163.535 61.788 C 163.406 61.745,163.278 61.562,163.250 61.381 C 163.223 61.200,163.123 60.928,163.028 60.776 C 162.933 60.623,162.926 60.383,163.013 60.243 C 163.118 60.073,163.073 60.048,162.877 60.168 C 162.664 60.300,162.623 60.249,162.725 59.981 C 162.803 59.778,162.764 59.612,162.639 59.612 C 162.514 59.612,162.476 59.508,162.554 59.381 C 162.633 59.254,162.540 58.910,162.348 58.617 C 162.157 58.324,162.059 57.929,162.131 57.740 C 162.204 57.551,162.153 57.396,162.018 57.396 C 161.883 57.396,161.792 57.321,161.816 57.230 C 161.840 57.139,161.684 56.479,161.470 55.763 C 161.256 55.048,161.132 54.329,161.195 54.164 C 161.259 53.999,161.221 53.810,161.112 53.742 C 161.004 53.675,160.909 53.448,160.903 53.237 C 160.896 53.026,160.835 52.504,160.767 52.078 C 160.335 49.358,160.214 44.403,160.515 41.773 C 160.599 41.042,160.678 40.294,160.691 40.111 C 160.711 39.827,160.830 39.221,161.218 37.452 C 161.258 37.269,161.399 36.838,161.532 36.495 C 161.664 36.152,161.773 35.535,161.773 35.123 C 161.773 34.712,161.863 34.319,161.974 34.251 C 162.194 34.115,163.016 31.681,162.932 31.413 C 162.904 31.321,162.986 31.247,163.116 31.247 C 163.245 31.247,163.293 31.154,163.223 31.040 C 163.153 30.927,163.198 30.770,163.324 30.693 C 163.450 30.615,163.496 30.458,163.425 30.345 C 163.355 30.231,163.409 30.139,163.546 30.139 C 163.682 30.139,163.740 30.053,163.676 29.948 C 163.536 29.722,165.260 26.072,165.557 25.965 C 165.670 25.924,165.762 25.715,165.762 25.501 C 165.762 25.286,165.957 24.933,166.196 24.717 C 166.435 24.501,166.610 24.243,166.584 24.144 C 166.558 24.046,166.737 23.801,166.981 23.600 C 167.224 23.400,167.274 23.302,167.091 23.382 C 166.909 23.463,167.008 23.312,167.313 23.047 C 167.618 22.782,167.717 22.643,167.535 22.738 C 167.126 22.950,167.672 22.175,168.144 21.873 C 168.296 21.775,168.421 21.545,168.421 21.361 C 168.421 21.177,168.518 21.086,168.636 21.159 C 168.754 21.233,168.914 21.042,168.991 20.737 C 169.067 20.431,169.240 20.203,169.375 20.229 C 169.510 20.255,169.624 20.175,169.630 20.051 C 169.635 19.926,169.872 19.527,170.155 19.164 C 170.438 18.801,170.596 18.654,170.505 18.837 C 170.394 19.058,170.500 19.028,170.822 18.746 C 171.087 18.513,171.254 18.271,171.192 18.209 C 171.023 18.041,173.575 15.521,173.783 15.650 C 173.882 15.711,174.059 15.505,174.178 15.193 C 174.296 14.881,174.546 14.626,174.731 14.626 C 174.917 14.626,175.069 14.526,175.069 14.404 C 175.069 14.283,175.215 14.183,175.394 14.183 C 175.572 14.183,175.825 13.984,175.954 13.742 C 176.084 13.499,176.312 13.325,176.461 13.354 C 176.610 13.383,176.706 13.283,176.676 13.130 C 176.645 12.978,176.720 12.841,176.842 12.825 C 176.964 12.810,177.162 12.785,177.281 12.770 C 177.401 12.755,177.657 12.516,177.850 12.240 C 178.044 11.964,178.285 11.789,178.385 11.851 C 178.486 11.913,178.620 11.829,178.683 11.665 C 178.747 11.500,179.113 11.302,179.497 11.225 C 179.887 11.147,180.134 10.986,180.057 10.861 C 179.932 10.660,180.221 10.541,180.665 10.611 C 180.756 10.625,180.831 10.547,180.831 10.437 C 180.831 10.142,184.394 8.405,184.660 8.570 C 184.786 8.648,184.822 8.604,184.741 8.473 C 184.605 8.252,185.786 7.827,186.221 7.941 C 186.322 7.967,186.341 7.887,186.264 7.762 C 186.182 7.630,186.356 7.535,186.677 7.535 C 186.982 7.535,187.297 7.428,187.378 7.298 C 187.458 7.168,187.664 7.115,187.834 7.180 C 188.005 7.246,188.144 7.192,188.144 7.061 C 188.144 6.930,188.287 6.877,188.462 6.944 C 188.637 7.012,188.812 6.973,188.850 6.859 C 188.888 6.745,189.194 6.629,189.529 6.602 C 189.864 6.574,190.139 6.474,190.139 6.378 C 190.139 6.283,190.532 6.205,191.012 6.205 C 191.492 6.205,191.951 6.098,192.031 5.968 C 192.112 5.838,192.317 5.785,192.488 5.851 C 192.658 5.916,192.798 5.874,192.798 5.757 C 192.798 5.641,193.022 5.548,193.296 5.552 C 193.571 5.556,194.094 5.500,194.460 5.428 C 195.952 5.132,197.297 5.035,200.869 4.964 C 204.925 4.884,206.094 4.613,206.094 3.757 C 206.094 3.519,206.177 3.324,206.278 3.324 C 206.738 3.324,206.328 1.367,205.739 0.747 C 205.407 0.397,205.209 0.260,205.299 0.443 C 205.417 0.683,205.379 0.675,205.163 0.413 C 204.849 0.033,197.131 -0.099,196.482 0.264 M232.244 39.691 C 232.244 39.800,232.169 39.878,232.078 39.865 C 231.511 39.783,230.878 40.236,230.764 40.804 C 230.694 41.154,230.571 41.440,230.490 41.440 C 230.321 41.440,230.304 42.603,230.471 42.770 C 230.718 43.017,231.454 44.673,231.431 44.931 C 231.418 45.083,231.501 45.208,231.617 45.208 C 231.732 45.208,231.770 45.299,231.701 45.410 C 231.633 45.522,231.682 45.648,231.811 45.691 C 231.941 45.735,232.071 45.918,232.100 46.098 C 232.130 46.279,232.274 46.644,232.421 46.911 C 232.567 47.177,232.687 47.629,232.687 47.916 C 232.687 48.203,232.888 48.832,233.133 49.314 C 233.379 49.796,233.536 50.303,233.483 50.442 C 233.430 50.580,233.477 50.785,233.589 50.896 C 233.791 51.098,234.192 52.700,234.357 53.961 C 234.405 54.327,234.508 54.925,234.587 55.291 C 234.959 57.031,235.137 64.293,234.853 66.150 C 234.779 66.637,234.661 67.567,234.592 68.215 C 234.523 68.863,234.394 69.511,234.304 69.655 C 234.214 69.799,234.170 70.141,234.206 70.416 C 234.241 70.690,234.156 70.914,234.018 70.914 C 233.866 70.914,233.821 71.091,233.906 71.357 C 233.992 71.629,233.946 71.801,233.786 71.801 C 233.643 71.801,233.582 71.947,233.651 72.126 C 233.720 72.305,233.636 72.722,233.464 73.052 C 233.293 73.382,233.204 73.734,233.265 73.835 C 233.327 73.935,233.275 74.017,233.150 74.017 C 233.025 74.017,232.980 74.166,233.050 74.349 C 233.120 74.532,233.061 74.681,232.919 74.681 C 232.777 74.681,232.721 74.778,232.794 74.897 C 232.867 75.015,232.765 75.360,232.566 75.663 C 232.368 75.965,232.263 76.306,232.332 76.419 C 232.402 76.531,232.238 76.905,231.968 77.249 C 231.697 77.592,231.590 77.803,231.730 77.717 C 231.975 77.565,231.216 79.334,230.940 79.557 C 230.865 79.618,230.799 79.767,230.795 79.889 C 230.780 80.265,229.956 81.773,229.765 81.773 C 229.666 81.773,229.584 81.960,229.584 82.189 C 229.584 82.418,229.435 82.729,229.252 82.881 C 229.069 83.033,228.920 83.280,228.920 83.430 C 228.920 83.580,228.675 83.966,228.376 84.289 C 228.077 84.611,227.903 84.878,227.988 84.880 C 228.074 84.883,227.895 85.077,227.590 85.311 C 227.285 85.545,227.024 85.842,227.008 85.971 C 226.993 86.100,226.968 86.305,226.953 86.427 C 226.938 86.548,226.850 86.623,226.759 86.593 C 226.668 86.562,226.561 86.637,226.522 86.759 C 226.483 86.881,226.306 87.062,226.129 87.160 C 225.952 87.259,225.866 87.434,225.936 87.548 C 226.007 87.663,225.904 87.756,225.706 87.756 C 225.509 87.756,225.409 87.856,225.485 87.978 C 225.560 88.100,225.523 88.199,225.402 88.199 C 225.281 88.199,225.120 88.396,225.043 88.637 C 224.967 88.877,224.636 89.208,224.308 89.372 C 223.980 89.536,223.732 89.773,223.756 89.899 C 223.812 90.188,222.301 91.671,222.093 91.530 C 222.008 91.472,221.812 91.691,221.656 92.015 C 221.501 92.340,221.177 92.668,220.936 92.744 C 220.695 92.821,220.499 92.982,220.499 93.103 C 220.499 93.224,220.399 93.261,220.277 93.186 C 220.155 93.110,220.055 93.210,220.055 93.407 C 220.055 93.604,219.962 93.708,219.847 93.637 C 219.733 93.567,219.550 93.669,219.440 93.866 C 219.330 94.062,219.149 94.239,219.038 94.258 C 218.927 94.278,218.861 94.368,218.892 94.460 C 218.922 94.551,218.848 94.639,218.726 94.654 C 218.604 94.669,218.399 94.694,218.270 94.709 C 218.141 94.724,217.844 94.986,217.610 95.291 C 217.376 95.596,217.182 95.775,217.179 95.689 C 217.177 95.604,216.911 95.778,216.588 96.077 C 216.266 96.376,215.879 96.620,215.729 96.620 C 215.579 96.620,215.332 96.770,215.180 96.953 C 215.028 97.136,214.717 97.285,214.488 97.285 C 214.259 97.285,214.072 97.373,214.072 97.480 C 214.072 97.587,213.748 97.795,213.352 97.942 C 212.956 98.088,212.482 98.300,212.299 98.411 C 211.322 99.006,209.880 99.650,210.016 99.431 C 210.102 99.291,209.892 99.398,209.548 99.669 C 209.204 99.939,208.831 100.103,208.718 100.033 C 208.605 99.963,208.265 100.069,207.962 100.267 C 207.659 100.466,207.314 100.568,207.196 100.495 C 207.078 100.422,206.981 100.472,206.981 100.606 C 206.981 100.740,206.856 100.833,206.704 100.811 C 206.277 100.751,204.991 101.088,204.864 101.293 C 204.801 101.394,204.604 101.420,204.425 101.352 C 204.246 101.283,204.100 101.331,204.100 101.458 C 204.100 101.586,203.925 101.693,203.712 101.696 C 203.250 101.703,202.261 101.857,202.105 101.945 C 201.992 102.010,201.393 102.106,200.222 102.248 C 199.856 102.293,199.407 102.386,199.224 102.455 C 199.042 102.524,198.593 102.592,198.227 102.606 C 191.150 102.877,190.109 102.956,189.939 103.232 C 189.839 103.395,189.677 103.495,189.581 103.454 C 189.484 103.413,189.378 103.567,189.344 103.796 C 189.310 104.026,189.198 104.298,189.095 104.401 C 188.847 104.649,189.019 106.405,189.275 106.246 C 189.384 106.179,189.476 106.204,189.479 106.303 C 189.481 106.401,189.689 106.731,189.941 107.036 C 190.193 107.341,190.321 107.440,190.226 107.258 C 190.081 106.978,190.109 106.971,190.408 107.213 C 190.845 107.566,196.707 107.595,199.224 107.256 C 200.139 107.133,201.335 106.978,201.884 106.912 C 203.222 106.750,203.767 106.660,203.767 106.599 C 203.767 106.571,204.116 106.515,204.543 106.475 C 204.970 106.436,205.618 106.279,205.983 106.129 C 206.758 105.809,206.641 105.843,207.701 105.631 C 208.158 105.539,208.532 105.365,208.532 105.243 C 208.532 105.122,208.657 105.045,208.809 105.074 C 209.284 105.162,210.526 104.796,210.526 104.568 C 210.526 104.448,210.619 104.408,210.733 104.478 C 210.846 104.548,211.003 104.503,211.080 104.377 C 211.158 104.251,211.315 104.205,211.428 104.275 C 211.542 104.346,211.635 104.322,211.636 104.224 C 211.639 103.949,212.772 103.484,213.051 103.643 C 213.186 103.720,213.229 103.708,213.146 103.616 C 212.995 103.448,216.238 101.717,216.704 101.717 C 216.841 101.717,216.953 101.618,216.953 101.496 C 216.953 101.374,217.028 101.286,217.119 101.300 C 217.561 101.370,217.852 101.252,217.729 101.053 C 217.653 100.931,217.697 100.831,217.826 100.831 C 218.224 100.831,218.383 100.763,218.686 100.459 C 218.847 100.298,219.121 100.166,219.296 100.166 C 219.470 100.166,219.612 100.066,219.612 99.945 C 219.612 99.823,219.750 99.723,219.919 99.723 C 220.088 99.723,220.391 99.471,220.594 99.162 C 220.796 98.853,221.050 98.656,221.158 98.722 C 221.266 98.789,221.495 98.644,221.667 98.398 C 221.838 98.153,222.042 98.016,222.120 98.094 C 222.198 98.172,222.324 98.072,222.400 97.872 C 222.477 97.673,222.624 97.562,222.728 97.626 C 222.832 97.690,223.082 97.490,223.284 97.182 C 223.487 96.873,223.734 96.620,223.833 96.620 C 224.071 96.620,228.920 91.771,228.920 91.532 C 228.920 91.432,229.076 91.290,229.266 91.216 C 229.457 91.143,229.549 90.981,229.471 90.855 C 229.394 90.729,229.457 90.654,229.613 90.687 C 229.769 90.721,229.901 90.620,229.907 90.463 C 229.912 90.306,230.066 90.083,230.249 89.968 C 230.432 89.852,230.485 89.756,230.366 89.754 C 230.248 89.752,230.374 89.594,230.647 89.403 C 230.920 89.212,231.088 88.967,231.022 88.859 C 230.955 88.751,231.152 88.497,231.461 88.294 C 231.770 88.092,232.022 87.789,232.022 87.620 C 232.022 87.451,232.122 87.313,232.244 87.313 C 232.366 87.313,232.465 87.171,232.465 86.996 C 232.465 86.822,232.619 86.527,232.806 86.340 C 232.993 86.152,233.142 85.946,233.138 85.880 C 233.107 85.417,233.158 85.310,233.352 85.429 C 233.551 85.553,233.669 85.262,233.600 84.820 C 233.585 84.729,233.673 84.654,233.795 84.654 C 233.917 84.654,234.017 84.542,234.017 84.405 C 234.017 83.958,235.743 80.693,235.898 80.847 C 235.980 80.930,236.023 80.898,235.993 80.776 C 235.903 80.411,236.265 79.335,236.478 79.335 C 236.587 79.335,236.676 79.086,236.676 78.781 C 236.676 78.476,236.763 78.227,236.870 78.227 C 237.062 78.227,237.430 77.043,237.404 76.510 C 237.396 76.357,237.474 76.233,237.577 76.233 C 237.729 76.233,237.983 75.353,238.071 74.520 C 238.081 74.426,238.215 74.107,238.368 73.811 C 238.522 73.515,238.594 73.186,238.529 73.081 C 238.464 72.975,238.514 72.764,238.641 72.612 C 238.768 72.459,238.867 72.139,238.862 71.901 C 238.857 71.663,238.927 71.169,239.018 70.803 C 239.109 70.438,239.178 69.914,239.172 69.640 C 239.166 69.366,239.225 69.141,239.303 69.141 C 239.382 69.141,239.469 68.717,239.497 68.199 C 239.525 67.681,239.593 66.859,239.649 66.371 C 239.777 65.245,239.770 58.121,239.639 56.510 C 239.584 55.839,239.523 55.017,239.502 54.681 C 239.481 54.346,239.402 54.072,239.326 54.072 C 239.250 54.072,239.177 53.748,239.163 53.352 C 239.133 52.448,239.023 51.913,238.825 51.715 C 238.740 51.630,238.670 51.234,238.670 50.835 C 238.670 50.436,238.564 50.043,238.434 49.963 C 238.303 49.882,238.250 49.677,238.316 49.507 C 238.381 49.336,238.327 49.197,238.194 49.197 C 238.062 49.197,238.006 48.997,238.070 48.753 C 238.133 48.510,238.116 48.310,238.032 48.310 C 237.947 48.310,237.863 48.108,237.844 47.861 C 237.826 47.614,237.657 47.104,237.468 46.726 C 237.280 46.349,237.180 45.953,237.247 45.846 C 237.313 45.739,237.261 45.651,237.132 45.651 C 237.003 45.651,236.919 45.576,236.945 45.485 C 236.970 45.393,236.854 45.069,236.686 44.765 C 236.517 44.460,236.396 44.186,236.417 44.155 C 236.532 43.985,236.430 43.385,236.307 43.508 C 236.226 43.589,235.882 42.997,235.542 42.193 C 235.203 41.388,234.746 40.583,234.526 40.404 C 234.306 40.224,234.276 40.151,234.460 40.241 C 234.643 40.330,234.715 40.318,234.620 40.214 C 234.525 40.109,234.325 39.998,234.176 39.965 C 234.028 39.933,233.532 39.813,233.075 39.700 C 232.592 39.580,232.244 39.576,232.244 39.691 M146.260 45.138 C 145.956 45.188,145.557 45.291,145.374 45.366 C 145.191 45.441,144.975 45.511,144.894 45.521 C 144.638 45.554,144.403 45.872,144.345 46.263 C 144.315 46.470,144.210 46.667,144.112 46.700 C 143.928 46.761,143.971 53.267,144.166 54.848 C 144.226 55.335,144.298 56.158,144.326 56.676 C 144.354 57.193,144.441 57.617,144.519 57.617 C 144.598 57.618,144.657 57.842,144.651 58.116 C 144.645 58.391,144.714 58.914,144.805 59.280 C 144.896 59.645,144.963 60.164,144.954 60.432 C 144.945 60.700,145.037 60.982,145.159 61.057 C 145.281 61.132,145.329 61.279,145.265 61.382 C 145.201 61.485,145.238 61.802,145.346 62.087 C 145.454 62.371,145.559 62.677,145.580 62.767 C 145.768 63.582,146.327 65.230,146.584 65.725 C 146.759 66.063,146.842 66.437,146.769 66.556 C 146.695 66.676,146.749 66.702,146.891 66.614 C 147.063 66.507,147.147 66.681,147.147 67.147 C 147.147 67.618,147.229 67.787,147.406 67.678 C 147.580 67.570,147.619 67.638,147.524 67.886 C 147.446 68.089,147.485 68.255,147.610 68.255 C 147.735 68.255,147.783 68.343,147.716 68.451 C 147.650 68.559,147.748 68.775,147.935 68.930 C 148.122 69.085,148.215 69.368,148.142 69.558 C 148.069 69.748,148.076 69.837,148.157 69.756 C 148.360 69.554,149.375 71.602,149.207 71.873 C 149.126 72.004,149.190 72.018,149.366 71.909 C 149.576 71.779,149.622 71.828,149.525 72.078 C 149.451 72.271,149.511 72.475,149.657 72.531 C 149.804 72.587,150.068 72.920,150.243 73.270 C 150.419 73.620,150.716 74.097,150.905 74.332 C 151.200 74.700,151.202 74.736,150.914 74.598 C 150.731 74.511,150.806 74.606,151.080 74.809 C 151.355 75.012,151.579 75.362,151.579 75.587 C 151.579 75.812,151.781 76.104,152.028 76.236 C 152.276 76.368,152.419 76.571,152.348 76.687 C 152.276 76.803,152.329 76.898,152.465 76.898 C 152.602 76.898,152.656 76.990,152.586 77.104 C 152.515 77.217,152.684 77.469,152.960 77.662 C 153.237 77.856,153.463 78.087,153.463 78.176 C 153.463 78.265,153.537 78.313,153.629 78.283 C 153.720 78.252,153.795 78.377,153.795 78.560 C 153.795 78.742,153.895 78.892,154.017 78.892 C 154.139 78.892,154.213 79.017,154.183 79.169 C 154.152 79.321,154.259 79.419,154.421 79.385 C 154.582 79.352,154.654 79.421,154.581 79.540 C 154.507 79.659,154.652 79.866,154.903 80.000 C 155.154 80.134,155.309 80.324,155.248 80.422 C 155.188 80.520,155.406 80.839,155.734 81.131 C 156.128 81.482,156.220 81.517,156.004 81.234 C 155.825 80.999,156.437 81.563,157.364 82.487 C 158.291 83.412,159.113 84.334,159.191 84.536 C 159.269 84.738,159.414 84.853,159.515 84.790 C 159.615 84.728,159.834 84.866,160.000 85.097 C 160.166 85.328,160.384 85.466,160.484 85.404 C 160.583 85.343,160.665 85.454,160.665 85.651 C 160.665 85.848,160.765 85.948,160.886 85.873 C 161.008 85.797,161.108 85.841,161.108 85.970 C 161.108 86.099,161.234 86.205,161.387 86.205 C 161.541 86.205,161.793 86.408,161.948 86.657 C 162.104 86.905,162.319 87.054,162.427 86.987 C 162.535 86.920,162.807 87.091,163.031 87.366 C 163.615 88.085,164.358 88.652,164.123 88.199 C 164.028 88.017,164.134 88.085,164.358 88.352 C 164.581 88.619,165.035 88.903,165.365 88.983 C 165.695 89.064,166.081 89.269,166.223 89.440 C 166.365 89.611,166.613 89.751,166.775 89.751 C 166.937 89.751,167.158 89.909,167.267 90.103 C 167.375 90.297,167.554 90.448,167.665 90.440 C 167.944 90.419,170.731 91.817,170.822 92.024 C 170.863 92.116,170.988 92.135,171.099 92.066 C 171.211 91.997,171.302 92.052,171.302 92.188 C 171.302 92.325,171.400 92.376,171.519 92.302 C 171.638 92.228,171.962 92.292,172.239 92.444 C 172.516 92.597,172.872 92.743,173.031 92.769 C 173.190 92.796,173.566 92.979,173.868 93.177 C 174.170 93.375,174.514 93.477,174.632 93.403 C 174.751 93.330,174.848 93.373,174.848 93.498 C 174.848 93.623,174.997 93.668,175.180 93.598 C 175.363 93.528,175.512 93.581,175.512 93.716 C 175.512 93.851,175.587 93.945,175.679 93.926 C 175.770 93.907,175.994 93.948,176.177 94.018 C 176.360 94.088,176.901 94.200,177.378 94.267 C 177.856 94.334,178.318 94.505,178.406 94.647 C 178.494 94.788,178.661 94.846,178.777 94.774 C 178.894 94.702,179.378 94.756,179.855 94.895 C 180.331 95.034,180.895 95.123,181.108 95.094 C 181.321 95.065,181.496 95.142,181.496 95.264 C 181.496 95.387,181.710 95.446,181.971 95.396 C 182.232 95.345,182.556 95.372,182.691 95.455 C 182.826 95.539,183.208 95.578,183.541 95.544 C 183.873 95.509,184.246 95.542,184.368 95.618 C 184.854 95.918,191.348 96.079,193.795 95.851 C 195.827 95.662,196.783 95.543,197.174 95.431 C 197.388 95.370,198.052 95.259,198.650 95.184 C 199.248 95.109,199.914 94.953,200.130 94.837 C 200.345 94.722,200.679 94.688,200.870 94.761 C 201.062 94.835,201.219 94.785,201.219 94.650 C 201.219 94.515,201.568 94.404,201.994 94.404 C 202.421 94.404,202.770 94.293,202.770 94.157 C 202.770 94.019,202.965 93.961,203.213 94.025 C 203.457 94.089,203.657 94.073,203.657 93.989 C 203.657 93.905,203.925 93.814,204.254 93.787 C 204.582 93.760,204.920 93.625,205.004 93.489 C 205.089 93.351,205.284 93.317,205.439 93.413 C 205.627 93.529,205.664 93.497,205.552 93.316 C 205.448 93.148,205.498 93.068,205.684 93.106 C 205.849 93.140,206.208 93.044,206.482 92.892 C 206.756 92.740,206.981 92.682,206.981 92.762 C 206.981 92.842,207.114 92.796,207.278 92.661 C 207.442 92.525,207.641 92.479,207.721 92.560 C 207.801 92.640,207.867 92.583,207.867 92.434 C 207.867 92.284,207.967 92.224,208.089 92.299 C 208.211 92.374,208.311 92.355,208.312 92.257 C 208.315 91.988,209.447 91.515,209.705 91.675 C 209.844 91.760,209.860 91.701,209.749 91.520 C 209.616 91.305,209.669 91.266,209.947 91.373 C 210.157 91.453,210.273 91.430,210.207 91.323 C 210.140 91.215,210.240 91.068,210.428 90.995 C 210.661 90.906,210.718 90.952,210.605 91.138 C 210.514 91.289,210.767 91.087,211.167 90.690 C 211.981 89.882,212.105 88.216,211.402 87.535 C 211.131 87.272,211.128 87.248,211.389 87.424 C 211.638 87.591,211.676 87.574,211.545 87.355 C 211.046 86.527,209.310 86.388,207.867 87.060 C 207.319 87.316,206.715 87.527,206.526 87.530 C 206.337 87.532,206.058 87.659,205.906 87.812 C 205.753 87.964,205.559 88.095,205.474 88.103 C 205.388 88.111,204.970 88.280,204.543 88.479 C 204.116 88.677,203.393 88.900,202.936 88.973 C 202.479 89.046,202.105 89.212,202.105 89.341 C 202.105 89.471,201.965 89.523,201.795 89.457 C 201.624 89.392,201.416 89.406,201.333 89.489 C 201.250 89.572,201.115 89.645,201.034 89.651 C 200.953 89.657,200.301 89.838,199.586 90.053 C 198.871 90.267,198.151 90.391,197.987 90.328 C 197.822 90.265,197.624 90.315,197.547 90.440 C 197.470 90.565,197.260 90.611,197.081 90.542 C 196.901 90.473,196.578 90.512,196.362 90.627 C 195.445 91.118,189.338 91.342,186.039 91.005 C 185.186 90.918,184.338 90.841,184.155 90.834 C 183.972 90.827,183.673 90.768,183.490 90.703 C 183.307 90.638,182.909 90.551,182.604 90.509 C 182.007 90.429,181.163 90.246,181.163 90.198 C 181.163 90.182,180.779 90.128,180.310 90.079 C 179.841 90.030,179.332 89.886,179.180 89.760 C 179.027 89.633,178.638 89.508,178.316 89.481 C 177.993 89.454,177.729 89.358,177.729 89.266 C 177.729 89.175,177.579 89.157,177.396 89.227 C 177.213 89.297,177.064 89.248,177.064 89.117 C 177.064 88.985,176.914 88.936,176.731 89.006 C 176.548 89.076,176.399 89.017,176.399 88.875 C 176.399 88.733,176.307 88.674,176.194 88.743 C 175.993 88.867,174.845 88.455,174.626 88.181 C 174.565 88.104,174.139 87.972,173.678 87.888 C 173.218 87.803,172.901 87.637,172.974 87.518 C 173.048 87.399,173.020 87.329,172.913 87.363 C 172.626 87.453,170.416 86.383,170.416 86.154 C 170.416 86.046,170.301 86.028,170.160 86.115 C 170.020 86.202,169.771 86.089,169.606 85.864 C 169.442 85.639,169.306 85.549,169.304 85.664 C 169.302 85.779,169.206 85.723,169.091 85.540 C 168.975 85.357,168.777 85.195,168.651 85.180 C 168.524 85.165,168.317 85.140,168.189 85.125 C 168.061 85.109,167.696 84.823,167.377 84.488 C 167.058 84.152,166.872 84.028,166.964 84.211 C 167.055 84.393,166.913 84.294,166.648 83.989 C 166.383 83.684,166.234 83.584,166.316 83.767 C 166.398 83.950,166.263 83.850,166.015 83.546 C 165.768 83.241,165.460 82.979,165.331 82.964 C 165.202 82.949,164.997 82.924,164.875 82.909 C 164.753 82.893,164.679 82.761,164.709 82.614 C 164.740 82.467,164.642 82.342,164.492 82.337 C 164.342 82.331,164.062 82.102,163.870 81.828 C 163.678 81.554,163.413 81.330,163.282 81.330 C 163.151 81.330,162.450 80.681,161.724 79.889 C 160.998 79.097,160.275 78.449,160.118 78.449 C 159.961 78.449,159.696 78.274,159.529 78.061 C 159.264 77.723,159.268 77.702,159.567 77.895 C 159.755 78.017,159.581 77.832,159.179 77.486 C 158.778 77.139,158.505 76.765,158.573 76.655 C 158.641 76.544,158.535 76.454,158.338 76.454 C 158.141 76.454,158.035 76.365,158.102 76.256 C 158.169 76.147,158.076 76.000,157.893 75.930 C 157.711 75.861,157.562 75.645,157.562 75.451 C 157.562 75.257,157.488 75.144,157.396 75.200 C 157.305 75.255,157.038 75.045,156.804 74.733 C 156.570 74.421,156.506 74.244,156.661 74.340 C 156.822 74.439,156.779 74.264,156.563 73.933 C 156.353 73.613,156.093 73.352,155.986 73.352 C 155.878 73.352,155.789 73.202,155.789 73.019 C 155.789 72.837,155.700 72.687,155.590 72.687 C 155.480 72.687,155.285 72.388,155.158 72.022 C 155.030 71.657,154.821 71.357,154.693 71.357 C 154.565 71.357,154.460 71.141,154.460 70.877 C 154.460 70.613,154.394 70.463,154.313 70.543 C 154.109 70.748,152.263 67.149,152.252 66.524 C 152.247 66.191,152.153 66.069,151.985 66.173 C 151.813 66.279,151.771 66.214,151.861 65.981 C 151.935 65.787,151.851 65.508,151.674 65.361 C 151.496 65.214,151.366 64.982,151.384 64.846 C 151.440 64.417,151.088 63.158,150.912 63.158 C 150.819 63.158,150.676 62.711,150.594 62.166 C 150.512 61.620,150.356 61.118,150.246 61.051 C 150.137 60.983,150.103 60.781,150.172 60.602 C 150.241 60.423,150.180 60.277,150.036 60.277 C 149.881 60.277,149.830 60.106,149.911 59.852 C 149.985 59.619,149.935 59.360,149.800 59.276 C 149.665 59.192,149.613 58.972,149.684 58.786 C 149.755 58.600,149.726 58.336,149.619 58.199 C 149.511 58.062,149.407 57.801,149.387 57.618 C 149.367 57.435,149.301 56.936,149.239 56.510 C 148.809 53.516,148.727 52.443,148.679 49.193 C 148.634 46.135,148.404 45.344,147.553 45.322 C 147.472 45.320,147.331 45.244,147.239 45.152 C 147.148 45.061,147.015 45.000,146.944 45.016 C 146.873 45.033,146.565 45.088,146.260 45.138 " stroke="none" fill="#04749c" fill-rule="evenodd"></path><path id="path1" d="M200.000 11.774 C 193.555 12.582,184.524 15.703,183.756 17.387 C 183.117 18.790,183.568 20.295,184.822 20.943 C 185.768 21.432,186.093 21.373,188.614 20.252 C 205.888 12.574,225.972 17.368,237.569 31.938 C 243.480 39.364,247.206 50.641,246.530 59.058 C 246.351 61.279,247.251 62.582,248.964 62.582 C 251.102 62.582,251.524 61.712,251.524 57.308 C 251.524 29.838,227.221 8.361,200.000 11.774 " stroke="none" fill="#2cbcdb" fill-rule="evenodd"></path><path id="path2" d="M139.689 139.851 C 123.934 141.469,114.291 155.077,117.483 171.191 C 120.243 185.131,134.278 193.601,149.304 190.394 C 158.475 188.437,166.195 182.067,163.016 179.081 C 161.539 177.693,160.075 178.026,157.329 180.374 C 151.493 185.364,144.689 186.862,137.174 184.812 C 118.223 179.641,118.305 150.778,137.285 145.824 C 142.924 144.352,148.736 144.892,153.130 147.297 C 154.700 148.156,155.620 148.825,157.712 150.629 C 162.212 154.510,166.258 150.891,162.031 146.766 C 156.691 141.556,148.318 138.965,139.689 139.851 M195.977 139.852 C 176.198 141.873,166.292 163.578,177.446 180.454 C 185.709 192.956,208.015 194.631,219.772 183.633 C 221.928 181.616,221.828 182.070,221.828 174.294 C 221.828 166.730,221.778 166.439,220.380 165.855 C 219.283 165.397,202.003 165.392,200.908 165.849 C 199.303 166.520,198.863 168.758,200.094 169.989 L 200.742 170.637 208.404 170.637 L 216.066 170.637 216.063 175.346 L 216.059 180.055 214.456 181.198 C 198.851 192.320,179.286 183.633,179.190 165.540 C 179.095 147.594,198.467 138.568,213.269 149.661 C 215.101 151.034,215.316 151.136,216.378 151.136 C 218.673 151.136,219.983 148.907,218.670 147.237 C 214.638 142.108,204.903 138.939,195.977 139.852 M251.191 139.841 C 239.839 140.781,233.820 146.229,235.092 154.411 C 236.069 160.700,240.820 163.699,256.590 167.982 C 267.150 170.851,270.021 173.027,269.637 177.870 C 268.921 186.879,251.325 188.595,239.488 180.810 C 236.762 179.017,234.833 179.038,233.885 180.871 C 231.529 185.427,245.843 191.583,257.265 190.926 C 269.097 190.246,275.786 185.109,275.748 176.731 C 275.715 169.506,272.058 166.756,256.482 162.243 C 245.344 159.016,242.950 157.852,241.634 155.026 C 237.116 145.323,255.771 141.223,269.449 148.913 C 272.795 150.794,275.847 147.611,273.163 145.039 C 269.326 141.363,259.858 139.122,251.191 139.841 M284.432 140.472 C 277.850 142.193,279.309 151.894,286.094 151.523 C 289.440 151.340,291.417 149.225,291.411 145.833 C 291.404 142.270,287.887 139.569,284.432 140.472 M287.597 141.508 C 291.710 143.226,291.416 149.310,287.160 150.574 C 282.961 151.821,279.554 147.300,281.790 143.449 C 282.936 141.476,285.482 140.624,287.597 141.508 M284.100 145.944 C 284.100 148.689,284.134 148.946,284.488 148.878 C 284.787 148.821,284.891 148.541,284.942 147.643 C 285.039 145.966,285.733 145.989,286.656 147.700 C 287.017 148.370,287.432 148.918,287.577 148.919 C 288.119 148.920,288.106 148.434,287.538 147.464 L 286.952 146.465 287.440 146.070 C 288.951 144.846,287.779 142.936,285.516 142.936 L 284.100 142.936 284.100 145.944 M286.797 143.968 C 287.620 144.713,286.981 145.817,285.727 145.817 L 284.986 145.817 284.986 144.709 C 284.986 143.479,285.861 143.121,286.797 143.968 M7.362 221.884 C 7.237 222.036,5.526 225.452,3.560 229.474 C -0.340 237.455,-0.529 238.055,0.822 238.185 C 1.523 238.253,1.554 238.215,2.763 235.803 L 3.993 233.352 8.099 233.352 L 12.206 233.352 13.360 235.734 C 14.502 238.089,14.524 238.116,15.291 238.116 C 16.687 238.116,16.523 237.589,12.618 229.546 C 8.643 221.357,8.786 221.607,8.089 221.607 C 7.814 221.607,7.487 221.731,7.362 221.884 M34.637 222.008 C 27.813 224.435,27.314 234.410,33.858 237.584 C 36.929 239.074,42.927 238.008,44.436 235.703 C 45.301 234.384,44.125 233.628,42.731 234.606 C 40.722 236.017,40.081 236.294,38.571 236.402 C 29.816 237.028,28.715 224.231,37.456 223.438 C 39.167 223.283,40.843 223.809,42.185 224.923 C 44.156 226.559,45.825 225.430,43.992 223.701 C 41.939 221.764,37.553 220.971,34.637 222.008 M64.393 221.955 C 63.970 222.378,63.860 236.804,64.274 237.577 C 64.636 238.254,75.648 238.241,76.011 237.562 C 76.660 236.350,76.221 236.233,71.017 236.233 L 66.260 236.233 66.260 229.268 C 66.260 221.825,66.229 221.607,65.152 221.607 C 64.926 221.607,64.584 221.763,64.393 221.955 M114.251 222.099 C 113.832 222.698,113.726 237.034,114.135 237.799 C 114.395 238.284,115.435 238.383,115.856 237.961 C 116.053 237.764,116.122 235.671,116.122 229.917 C 116.122 224.163,116.053 222.069,115.856 221.873 C 115.433 221.449,114.626 221.563,114.251 222.099 M127.276 221.778 C 126.930 221.998,119.668 236.858,119.668 237.346 C 119.668 237.878,120.210 238.275,120.819 238.189 C 121.220 238.132,121.591 237.606,122.548 235.735 L 123.767 233.353 127.873 233.352 L 131.979 233.352 133.136 235.789 C 134.342 238.330,134.942 238.819,135.801 237.961 C 136.246 237.516,136.181 237.354,132.484 229.751 C 128.341 221.227,128.282 221.138,127.276 221.778 M139.886 221.791 C 139.668 221.930,139.619 223.731,139.665 230.043 L 139.723 238.116 140.407 238.183 C 141.565 238.296,141.594 238.139,141.658 231.598 L 141.717 225.559 145.596 230.170 C 151.729 237.462,152.431 238.227,152.987 238.227 C 154.005 238.227,154.017 238.137,154.017 229.917 C 154.017 221.716,154.003 221.607,153.002 221.607 C 152.082 221.607,152.032 221.935,151.970 228.364 L 151.911 234.530 146.843 228.456 C 140.746 221.149,140.806 221.207,139.886 221.791 M173.806 222.008 C 167.140 224.378,166.437 233.992,172.683 237.358 C 176.034 239.165,182.411 238.149,184.256 235.515 C 184.694 234.889,184.743 230.975,184.320 230.396 C 183.824 229.718,177.201 229.950,177.102 230.649 C 176.962 231.637,177.371 231.801,179.972 231.801 L 182.382 231.801 182.382 233.340 L 182.382 234.879 180.709 235.706 C 174.857 238.598,168.937 233.710,170.950 227.649 C 172.286 223.625,177.630 222.095,181.231 224.703 C 182.326 225.497,183.149 225.569,183.505 224.903 C 184.628 222.805,177.525 220.685,173.806 222.008 M211.652 221.959 C 204.690 224.479,204.425 235.192,211.260 237.749 C 213.039 238.415,216.410 238.424,218.163 237.768 C 224.526 235.388,224.931 225.441,218.790 222.377 C 217.175 221.571,213.344 221.347,211.652 221.959 M227.257 221.971 C 226.934 222.294,226.901 222.979,226.964 228.010 L 227.036 233.684 227.635 234.819 C 228.973 237.356,230.547 238.116,234.460 238.116 C 238.474 238.116,239.943 237.385,241.361 234.681 C 242.085 233.301,242.320 222.393,241.637 221.893 C 240.039 220.725,239.778 221.538,239.778 227.682 C 239.778 235.230,239.094 236.343,234.460 236.343 C 229.825 236.343,229.141 235.230,229.141 227.682 C 229.141 223.088,229.090 222.252,228.793 221.955 C 228.343 221.505,227.717 221.511,227.257 221.971 M278.623 221.917 C 271.752 224.149,270.950 234.241,277.387 237.458 C 280.778 239.152,287.203 237.976,288.353 235.451 C 288.965 234.107,287.661 233.692,286.239 234.778 C 280.564 239.110,273.334 234.301,275.543 227.663 C 276.981 223.342,282.654 222.030,286.268 225.182 C 287.973 226.669,289.370 225.204,287.703 223.677 C 285.711 221.853,281.395 221.016,278.623 221.917 M296.360 221.916 C 289.627 224.090,288.892 234.203,295.228 237.490 C 296.900 238.358,300.840 238.513,302.769 237.788 C 309.192 235.374,309.609 225.491,303.417 222.440 C 301.709 221.598,298.161 221.335,296.360 221.916 M312.046 221.910 C 311.867 222.126,311.811 224.445,311.853 230.030 C 311.917 238.583,311.898 238.473,313.207 238.145 L 313.795 237.997 313.807 232.184 L 313.819 226.371 316.806 232.313 L 319.794 238.254 320.506 238.185 C 321.201 238.118,321.292 237.973,324.144 232.355 L 327.070 226.593 327.081 231.981 C 327.092 237.832,327.163 238.227,328.199 238.227 C 329.271 238.227,329.307 237.952,329.307 229.836 C 329.307 221.582,329.295 221.501,328.005 221.650 C 327.481 221.711,327.084 222.391,323.960 228.584 L 320.496 235.450 317.119 228.694 C 315.262 224.979,313.629 221.866,313.491 221.776 C 313.085 221.512,312.318 221.583,312.046 221.910 M355.705 221.908 C 355.403 222.271,348.494 236.365,348.267 237.080 C 348.055 237.749,348.479 238.227,349.287 238.227 C 349.889 238.227,350.008 238.068,351.088 235.802 L 352.244 233.376 356.348 233.364 L 360.453 233.352 361.614 235.687 C 362.821 238.114,363.067 238.367,363.989 238.136 C 364.933 237.899,364.691 237.228,360.792 229.266 C 356.831 221.179,356.594 220.836,355.705 221.908 M368.364 221.863 C 368.155 222.072,368.089 224.013,368.089 229.917 C 368.089 238.096,368.104 238.227,369.086 238.227 C 370.050 238.227,370.083 238.008,370.083 231.517 L 370.083 225.339 375.524 231.783 C 382.926 240.549,382.493 240.665,382.493 229.917 C 382.493 221.716,382.480 221.607,381.479 221.607 C 380.559 221.607,380.508 221.937,380.447 228.315 L 380.388 234.432 375.060 228.075 C 369.639 221.607,369.110 221.117,368.364 221.863 M385.607 221.925 C 385.126 222.504,385.490 223.138,388.696 227.301 L 391.801 231.334 391.801 234.666 L 391.801 237.997 392.389 238.145 C 393.567 238.441,393.674 238.159,393.795 234.436 L 393.906 231.025 396.953 227.100 C 400.147 222.987,400.601 222.049,399.557 221.717 C 398.744 221.459,398.355 221.828,395.573 225.489 C 393.815 227.803,392.731 229.052,392.596 228.918 C 392.480 228.801,391.180 227.133,389.709 225.212 C 386.939 221.594,386.304 221.085,385.607 221.925 M48.576 222.094 C 48.195 222.475,48.195 237.359,48.576 237.740 C 48.769 237.933,50.402 238.006,54.532 238.006 C 60.723 238.006,60.925 237.965,60.630 236.790 L 60.490 236.233 55.397 236.233 L 50.305 236.233 50.305 233.352 L 50.305 230.471 53.158 230.471 C 56.232 230.471,56.616 230.338,56.471 229.320 C 56.400 228.818,56.344 228.808,53.352 228.747 L 50.305 228.686 50.305 226.254 L 50.305 223.823 55.025 223.823 C 59.980 223.823,60.277 223.766,60.277 222.825 C 60.277 221.871,60.018 221.828,54.294 221.828 C 50.349 221.828,48.769 221.902,48.576 222.094 M79.683 222.176 C 79.219 222.641,79.153 237.007,79.612 237.635 C 79.863 237.978,80.437 238.008,85.762 237.954 L 91.634 237.895 91.634 237.119 L 91.634 236.343 86.593 236.284 L 81.551 236.224 81.551 233.354 L 81.551 230.484 84.464 230.422 C 87.607 230.355,88.204 230.123,87.621 229.197 C 87.412 228.865,86.955 228.800,84.464 228.747 L 81.551 228.685 81.551 226.254 L 81.551 223.823 86.109 223.823 C 90.955 223.823,91.524 223.718,91.524 222.825 C 91.524 221.915,90.984 221.828,85.349 221.828 C 80.811 221.828,79.981 221.879,79.683 222.176 M95.675 222.091 C 95.313 222.361,95.289 222.944,95.343 230.114 C 95.407 238.575,95.390 238.473,96.697 238.145 L 97.285 237.997 97.285 234.566 L 97.285 231.136 100.477 231.136 L 103.669 231.136 105.589 234.681 C 107.347 237.928,107.560 238.227,108.115 238.227 C 109.662 238.227,109.593 237.639,107.622 234.026 L 105.995 231.044 107.014 230.564 C 110.727 228.815,110.675 224.013,106.925 222.344 C 105.752 221.821,96.321 221.610,95.675 222.091 M188.972 222.213 C 188.623 222.599,188.587 223.322,188.587 230.004 C 188.587 237.890,188.631 238.227,189.659 238.227 C 190.722 238.227,190.803 237.956,190.803 234.416 L 190.803 231.136 193.961 231.142 L 197.119 231.149 199.003 234.633 C 200.882 238.107,200.888 238.116,201.662 238.116 C 202.962 238.116,202.840 237.355,200.997 233.986 C 200.127 232.395,199.447 231.069,199.486 231.039 C 199.525 231.010,200.033 230.760,200.615 230.484 C 202.547 229.569,203.522 227.502,203.001 225.429 C 202.648 224.026,201.898 223.092,200.615 222.460 C 199.092 221.710,189.609 221.509,188.972 222.213 M247.237 222.158 C 246.910 222.485,246.870 223.347,246.870 230.110 C 246.870 238.252,246.866 238.227,248.014 238.227 C 248.940 238.227,249.086 237.686,249.086 234.253 L 249.086 231.136 253.019 231.134 C 256.692 231.132,257.028 231.097,258.083 230.605 C 261.441 229.041,261.407 224.132,258.025 222.467 C 256.587 221.759,247.885 221.510,247.237 222.158 M334.541 222.302 C 334.229 222.748,334.183 223.749,334.183 230.092 C 334.183 237.886,334.228 238.227,335.254 238.227 C 336.317 238.227,336.399 237.956,336.399 234.416 L 336.399 231.136 340.244 231.136 C 342.529 231.136,344.395 231.033,344.842 230.884 C 348.819 229.552,349.016 224.061,345.149 222.344 C 343.583 221.648,335.023 221.614,334.541 222.302 M217.871 224.201 C 222.654 226.896,221.843 234.851,216.642 236.258 C 211.637 237.612,207.326 233.326,208.618 228.281 C 209.700 224.059,214.143 222.100,217.871 224.201 M301.203 223.608 C 304.202 224.441,306.202 227.846,305.601 231.096 C 304.134 239.032,293.075 237.990,293.079 229.916 C 293.082 225.378,296.901 222.413,301.203 223.608 M106.147 224.154 C 107.078 224.635,107.479 225.337,107.479 226.482 C 107.479 228.789,106.550 229.219,101.330 229.324 L 97.285 229.405 97.285 226.614 L 97.285 223.823 101.396 223.823 C 104.610 223.823,105.647 223.895,106.147 224.154 M200.114 224.609 C 200.981 225.477,201.178 226.588,200.659 227.681 C 200.000 229.070,199.428 229.232,194.848 229.324 L 190.803 229.405 190.803 226.601 L 190.803 223.796 195.121 223.865 L 199.438 223.934 200.114 224.609 M257.559 224.658 C 258.196 225.296,258.283 225.524,258.283 226.574 C 258.283 228.891,257.308 229.363,252.528 229.363 L 249.086 229.363 249.086 226.579 L 249.086 223.794 252.960 223.864 L 256.835 223.934 257.559 224.658 M344.384 224.159 C 345.630 224.803,346.100 226.744,345.328 228.051 C 344.660 229.182,343.921 229.363,339.967 229.363 L 336.399 229.363 336.399 226.593 L 336.399 223.823 340.066 223.823 C 342.911 223.823,343.880 223.898,344.384 224.159 M9.731 228.180 C 10.595 230.029,11.302 231.599,11.302 231.671 C 11.302 231.864,4.876 231.828,4.872 231.634 C 4.868 231.423,8.038 224.695,8.108 224.767 C 8.137 224.796,8.867 226.332,9.731 228.180 M358.080 228.218 C 358.953 230.086,359.668 231.657,359.668 231.708 C 359.668 231.759,358.176 231.801,356.352 231.801 L 353.036 231.801 354.269 229.197 C 354.947 227.765,355.694 226.155,355.928 225.620 C 356.163 225.084,356.386 224.685,356.424 224.733 C 356.462 224.781,357.208 226.349,358.080 228.218 M129.558 228.310 L 131.118 231.690 127.910 231.751 C 126.146 231.785,124.666 231.775,124.620 231.730 C 124.504 231.614,127.689 224.931,127.859 224.931 C 127.936 224.931,128.700 226.452,129.558 228.310 " stroke="none" fill="#7c6c54" fill-rule="evenodd"></path><path id="path3" d="M197.510 0.159 C 197.847 0.210,198.345 0.209,198.618 0.156 C 198.891 0.103,198.615 0.062,198.006 0.063 C 197.396 0.065,197.173 0.108,197.510 0.159 M193.241 0.662 C 193.015 0.806,193.191 0.831,193.795 0.738 C 194.890 0.570,195.077 0.442,194.220 0.447 C 193.864 0.448,193.424 0.545,193.241 0.662 M184.820 2.992 C 184.515 3.166,184.366 3.308,184.488 3.308 C 184.609 3.308,184.958 3.166,185.263 2.992 C 185.568 2.818,185.717 2.675,185.596 2.675 C 185.474 2.675,185.125 2.818,184.820 2.992 M180.831 4.765 C 180.283 5.058,179.913 5.303,180.009 5.309 C 180.244 5.322,181.939 4.451,181.939 4.317 C 181.939 4.170,181.948 4.166,180.831 4.765 M197.729 5.034 C 198.064 5.085,198.612 5.085,198.947 5.034 C 199.283 4.983,199.008 4.942,198.338 4.942 C 197.668 4.942,197.393 4.983,197.729 5.034 M184.875 8.206 C 184.133 8.505,184.272 8.656,185.042 8.388 C 185.407 8.260,185.706 8.116,185.706 8.067 C 185.706 7.935,185.437 7.981,184.875 8.206 M182.992 9.101 C 182.535 9.342,182.161 9.589,182.161 9.650 C 182.161 9.748,183.911 8.930,184.137 8.726 C 184.392 8.495,183.726 8.713,182.992 9.101 M167.336 14.966 C 166.958 15.397,166.648 15.816,166.648 15.897 C 166.648 15.978,166.724 15.950,166.816 15.834 C 166.908 15.718,167.276 15.299,167.633 14.903 C 167.990 14.507,168.224 14.183,168.153 14.183 C 168.082 14.183,167.714 14.535,167.336 14.966 M172.950 16.233 L 172.299 16.953 173.019 16.302 C 173.416 15.944,173.740 15.620,173.740 15.582 C 173.740 15.411,173.557 15.561,172.950 16.233 M165.762 16.731 C 165.476 17.036,165.333 17.282,165.446 17.278 C 165.636 17.272,166.549 16.177,166.365 16.177 C 166.319 16.177,166.048 16.427,165.762 16.731 M169.972 19.335 C 169.645 19.781,169.592 19.936,169.831 19.741 C 170.195 19.446,170.744 18.615,170.576 18.615 C 170.533 18.615,170.262 18.939,169.972 19.335 M160.476 24.792 C 160.092 25.512,159.781 26.187,159.783 26.291 C 159.786 26.396,160.134 25.841,160.556 25.057 C 160.978 24.274,161.290 23.599,161.249 23.557 C 161.208 23.516,160.860 24.072,160.476 24.792 M164.588 27.601 C 164.136 28.513,163.772 29.333,163.778 29.422 C 163.784 29.511,164.190 28.801,164.679 27.844 C 165.168 26.887,165.532 26.068,165.488 26.024 C 165.444 25.980,165.039 26.690,164.588 27.601 M234.077 40.111 C 234.387 40.355,234.713 40.554,234.802 40.554 C 234.890 40.554,234.709 40.355,234.399 40.111 C 234.089 39.867,233.763 39.668,233.675 39.668 C 233.586 39.668,233.767 39.867,234.077 40.111 M235.576 42.135 C 235.571 42.213,235.714 42.612,235.892 43.022 C 236.070 43.432,236.216 43.618,236.216 43.435 C 236.217 43.116,235.592 41.847,235.576 42.135 M160.308 45.983 C 160.308 47.568,160.343 48.187,160.386 47.359 C 160.429 46.531,160.429 45.235,160.385 44.478 C 160.342 43.722,160.307 44.399,160.308 45.983 M155.425 45.983 C 155.424 47.080,155.462 47.557,155.508 47.043 C 155.555 46.528,155.555 45.631,155.509 45.048 C 155.464 44.466,155.426 44.886,155.425 45.983 M144.601 45.870 C 144.251 46.235,144.008 46.568,144.060 46.611 C 144.113 46.655,144.439 46.357,144.786 45.949 C 145.570 45.029,145.454 44.979,144.601 45.870 M148.649 48.718 C 148.745 52.450,148.842 52.884,148.879 49.751 C 148.898 48.166,148.840 46.754,148.750 46.613 C 148.661 46.472,148.615 47.419,148.649 48.718 M232.202 46.870 C 232.314 47.114,232.461 47.463,232.529 47.645 C 232.635 47.933,232.654 47.931,232.669 47.632 C 232.679 47.442,232.532 47.093,232.342 46.857 C 232.003 46.433,232.001 46.434,232.202 46.870 M143.910 49.972 C 143.910 51.679,143.945 52.347,143.987 51.458 C 144.030 50.569,144.029 49.173,143.987 48.356 C 143.944 47.539,143.910 48.266,143.910 49.972 M161.146 54.404 C 161.142 54.648,161.225 55.047,161.330 55.291 C 161.572 55.856,161.572 55.273,161.330 54.515 C 161.187 54.070,161.151 54.048,161.146 54.404 M239.867 61.939 C 239.867 63.767,239.902 64.486,239.943 63.536 C 239.985 62.585,239.985 61.090,239.943 60.211 C 239.901 59.333,239.867 60.111,239.867 61.939 M234.974 61.607 C 234.974 62.399,235.014 62.723,235.063 62.327 C 235.113 61.931,235.113 61.283,235.063 60.886 C 235.014 60.490,234.974 60.814,234.974 61.607 M164.858 65.872 C 164.792 66.349,164.826 66.620,164.937 66.509 C 165.044 66.402,165.096 66.028,165.052 65.678 C 164.979 65.092,164.964 65.108,164.858 65.872 M152.244 66.783 C 152.244 67.024,153.788 70.028,153.911 70.028 C 153.972 70.028,153.660 69.305,153.218 68.421 C 152.388 66.763,152.244 66.521,152.244 66.783 M160.954 67.459 C 161.296 67.775,161.745 68.025,161.951 68.016 C 162.257 68.002,162.265 67.975,161.994 67.873 C 161.812 67.805,161.363 67.554,160.997 67.317 L 160.332 66.885 160.954 67.459 M148.357 70.140 C 148.815 71.177,149.787 72.796,149.552 72.133 C 149.356 71.579,148.000 68.920,147.914 68.920 C 147.861 68.920,148.060 69.469,148.357 70.140 M149.909 73.075 C 150.103 73.471,150.308 73.795,150.366 73.795 C 150.586 73.795,150.444 73.442,150.009 72.909 L 149.558 72.355 149.909 73.075 M231.172 78.791 C 230.800 79.606,230.871 79.779,231.273 79.039 C 231.460 78.693,231.572 78.368,231.521 78.317 C 231.471 78.267,231.313 78.480,231.172 78.791 M230.289 80.642 C 230.023 81.114,229.807 81.587,229.809 81.692 C 229.810 81.798,230.062 81.446,230.368 80.910 C 230.674 80.375,230.890 79.902,230.848 79.860 C 230.806 79.818,230.554 80.170,230.289 80.642 M234.956 82.269 C 234.457 83.273,234.077 84.123,234.111 84.157 C 234.190 84.236,235.470 81.838,235.771 81.046 C 236.187 79.951,235.877 80.417,234.956 82.269 M156.183 81.481 C 156.615 82.089,159.114 84.513,159.114 84.326 C 159.114 84.274,158.354 83.472,157.426 82.544 C 156.497 81.616,155.938 81.137,156.183 81.481 M228.358 84.044 L 228.007 84.765 228.458 84.211 C 228.893 83.677,229.035 83.324,228.815 83.324 C 228.757 83.324,228.551 83.648,228.358 84.044 M167.313 84.532 C 167.313 84.592,167.612 84.797,167.978 84.986 C 168.343 85.175,168.643 85.280,168.643 85.219 C 168.643 85.158,168.343 84.954,167.978 84.765 C 167.612 84.575,167.313 84.471,167.313 84.532 M207.867 86.870 C 207.440 87.103,207.171 87.299,207.269 87.304 C 207.503 87.316,208.753 86.666,208.753 86.532 C 208.753 86.387,208.740 86.392,207.867 86.870 M172.632 87.441 C 172.632 87.590,173.783 88.009,173.892 87.899 C 173.943 87.849,173.680 87.701,173.308 87.572 C 172.936 87.442,172.632 87.383,172.632 87.441 M211.770 88.532 C 211.952 89.347,212.079 89.524,212.074 88.957 C 212.072 88.723,211.970 88.382,211.846 88.199 C 211.682 87.957,211.661 88.046,211.770 88.532 M203.989 88.540 C 203.623 88.707,203.474 88.845,203.657 88.846 C 203.839 88.848,204.238 88.706,204.543 88.532 C 205.244 88.131,204.869 88.137,203.989 88.540 M198.338 90.194 C 197.893 90.337,197.871 90.373,198.227 90.378 C 198.471 90.381,198.870 90.299,199.114 90.194 C 199.678 89.951,199.096 89.951,198.338 90.194 M222.924 90.803 L 222.161 91.634 222.992 90.871 C 223.765 90.160,223.925 89.972,223.755 89.972 C 223.718 89.972,223.344 90.346,222.924 90.803 M209.806 91.317 C 209.349 91.558,208.975 91.805,208.975 91.866 C 208.975 91.926,209.374 91.772,209.861 91.524 C 210.349 91.275,210.748 91.023,210.748 90.965 C 210.748 90.820,210.746 90.821,209.806 91.317 M188.305 91.240 C 188.699 91.289,189.397 91.290,189.857 91.242 C 190.316 91.194,189.994 91.154,189.141 91.153 C 188.288 91.152,187.912 91.191,188.305 91.240 M191.194 91.237 C 191.469 91.290,191.868 91.288,192.080 91.233 C 192.292 91.177,192.066 91.134,191.579 91.136 C 191.091 91.139,190.918 91.184,191.194 91.237 M226.365 94.238 L 224.820 95.845 226.427 94.300 C 227.919 92.864,228.134 92.632,227.972 92.632 C 227.938 92.632,227.215 93.355,226.365 94.238 M177.285 94.404 C 178.043 94.647,178.626 94.647,178.061 94.404 C 177.817 94.300,177.418 94.217,177.175 94.220 C 176.818 94.226,176.840 94.262,177.285 94.404 M183.324 95.665 C 183.537 95.721,183.886 95.721,184.100 95.665 C 184.313 95.609,184.139 95.564,183.712 95.564 C 183.285 95.564,183.111 95.609,183.324 95.665 M185.208 95.890 C 185.482 95.943,185.931 95.943,186.205 95.890 C 186.479 95.838,186.255 95.794,185.706 95.794 C 185.158 95.794,184.934 95.838,185.208 95.890 M216.233 96.082 C 215.898 96.264,215.623 96.460,215.623 96.517 C 215.623 96.731,215.974 96.597,216.510 96.177 C 217.168 95.662,217.070 95.628,216.233 96.082 M189.536 96.119 C 190.118 96.165,191.016 96.164,191.530 96.118 C 192.045 96.071,191.568 96.034,190.471 96.034 C 189.374 96.035,188.953 96.073,189.536 96.119 M213.186 97.839 C 212.881 98.014,212.731 98.156,212.853 98.156 C 212.975 98.156,213.324 98.014,213.629 97.839 C 213.934 97.665,214.083 97.523,213.961 97.523 C 213.839 97.523,213.490 97.665,213.186 97.839 M211.191 98.837 C 210.765 99.070,210.495 99.265,210.593 99.270 C 210.828 99.283,212.078 98.633,212.078 98.498 C 212.078 98.353,212.065 98.358,211.191 98.837 M214.339 102.724 C 213.328 103.238,212.436 103.723,212.356 103.803 C 212.011 104.148,215.428 102.539,216.288 101.951 C 216.979 101.479,216.112 101.823,214.339 102.724 M192.188 102.769 C 193.133 102.810,194.679 102.810,195.623 102.769 C 196.568 102.727,195.795 102.693,193.906 102.693 C 192.017 102.693,191.244 102.727,192.188 102.769 M198.507 107.414 C 198.782 107.467,199.181 107.465,199.393 107.410 C 199.605 107.354,199.380 107.311,198.892 107.314 C 198.404 107.316,198.231 107.361,198.507 107.414 M193.084 107.644 C 193.912 107.687,195.208 107.686,195.965 107.643 C 196.722 107.600,196.044 107.565,194.460 107.565 C 192.875 107.566,192.256 107.601,193.084 107.644 " stroke="none" fill="#047494" fill-rule="evenodd"></path><path id="path4" d="" stroke="none" fill="#5c9874" fill-rule="evenodd"></path></g></svg>