<?xml version="1.0" encoding="UTF-8"?>
<svg width="217px" height="75px" viewBox="0 0 217 75" version="1.1" xmlns="http://www.w3.org/2000/svg" xmlns:xlink="http://www.w3.org/1999/xlink">
    <title>logo-cms</title>
    <defs>
        <polygon id="path-1" points="0 0 4.91057827 0 4.91057827 5.8663891 0 5.8663891"></polygon>
        <polygon id="path-3" points="0 0 3.47651559 0 3.47651559 5.86560468 0 5.86560468"></polygon>
        <polygon id="path-5" points="0 0 4.9114474 0 4.9114474 5.8663891 0 5.8663891"></polygon>
        <polygon id="path-7" points="0 0 4.91057827 0 4.91057827 5.8663891 0 5.8663891"></polygon>
        <polygon id="path-9" points="0 0 3.47651559 0 3.47651559 5.86560468 0 5.86560468"></polygon>
        <polygon id="path-11" points="0 0 4.9114474 0 4.9114474 5.8663891 0 5.8663891"></polygon>
        <polygon id="path-13" points="0 0 3.47651559 0 3.47651559 5.86560468 0 5.86560468"></polygon>
    </defs>
    <g id="Page-1-Icons" stroke="none" stroke-width="1" fill="none" fill-rule="evenodd">
        <g id="PECOS-2.0-Icons-Overview-v26" transform="translate(-2680.000000, -1297.000000)">
            <g id="LOGOS" transform="translate(2671.000000, 1052.000000)">
                <g id="logo-cms" transform="translate(9.000000, 245.000000)">
                    <path d="M25.9310507,68.6114433 C15.5623429,63.7218415 9.71310542,57.3505421 10.0433744,49.9246228 C10.9820336,29.1285624 60.1312728,7.78340226 119.466703,2.42314359 C137.31861,0.810708059 154.109311,0.819423927 168.849738,2.19653103 C151.919976,-0.270059541 131.486755,-0.758148135 109.436955,1.23778558 C50.1102166,6.60676011 0.95228613,27.9432044 0.0136269197,48.7392648 C-0.447011396,58.9455459 10.7995165,67.1811694 29.3814924,72.2808236 L25.9310507,68.6114433 Z" id="Fill-1" fill="#00529B"></path>
                    <path d="M22.4978177,61.6651581 C19.3950275,58.510014 17.9088171,55.0838064 18.0739516,51.4414453 C18.9430805,32.2665362 64.4506696,12.6122545 119.518677,7.63549398 C127.949227,6.86762603 136.310247,6.48412785 144.375763,6.48412785 C159.429076,6.48412785 173.535038,7.84467481 185.172674,10.4237001 L185.363882,9.63055611 C173.01356,6.40655663 157.551757,4.69824655 140.664583,4.69824655 C132.668597,4.69824655 124.377107,5.08174473 116.016956,5.84002523 C61.2348927,10.7897665 15.9532771,30.5486387 15.0754569,49.8804334 C14.8407921,55.1805525 17.8479781,59.9742798 24.010102,64.1308771 L22.4978177,61.6651581 Z" id="Fill-3" fill="#F1CB00"></path>
                    <path d="M70.4739067,63.5648687 C54.8991168,63.5648687 42.3836607,56.3045508 42.3836607,45.4611398 C42.3836607,34.5671767 54.8991168,27.4114493 70.4739067,27.4114493 C77.8875762,27.4114493 84.6928555,29.3027926 89.6555815,32.3097669 L83.4673837,36.7287119 C80.7470103,35.0465494 76.6012654,33.1464902 71.5690091,33.1464902 C64.3639305,33.1464902 59.7314735,36.8333023 59.7314735,45.4611398 C59.7314735,53.98613 64.3552393,57.6729421 71.5690091,57.6729421 C76.6012654,57.6729421 80.7470103,55.8853176 83.4673837,54.1953108 L89.6555815,58.6142558 C84.6928555,61.6648095 77.8875762,63.5648687 70.4739067,63.5648687" id="Fill-5" fill="#00529B"></path>
                    <polygon id="Fill-7" fill="#00529B" points="140.760535 62.4575177 140.760535 41.2430956 128.72223 62.4575177 118.20664 62.4575177 104.500477 41.2430956 104.500477 62.4575177 94.0535475 62.4575177 94.0535475 28.5092128 114.330325 28.5092128 127.410715 48.9304909 139.10919 28.5092128 156.961097 28.5092128 156.961097 62.4575177"></polygon>
                    <path d="M184.955391,63.5648687 C173.187386,63.5648687 165.774586,59.5642854 162.922974,56.8797981 L169.251101,52.7746244 C172.379096,55.2499308 179.045315,58.1435989 184.964083,58.1435989 C190.20493,58.1435989 192.786243,57.1926978 192.786243,55.5637021 C192.786243,52.5654436 186.598914,51.8245948 180.270787,50.4562036 C170.885064,48.3992588 163.879016,45.880373 163.879016,39.4044833 C163.879016,31.4033167 173.465507,27.4550286 185.572473,27.4550286 C194.351544,27.4550286 200.260751,29.1894863 205.293008,32.7717079 L199.17434,36.6677008 C195.567455,34.1400992 189.248888,32.7717079 185.772373,32.7717079 C180.193434,32.7717079 178.020612,33.9832135 178.020612,35.5607856 C178.020612,38.036092 182.912938,38.2975681 190.735099,40.0320258 C200.460651,42.1926894 207.735266,45.2432431 207.735266,51.8245948 C207.743951,58.9803222 199.10481,63.5648687 184.955391,63.5648687" id="Fill-9" fill="#00529B"></path>
                    <g id="Group-13" transform="translate(35.682590, 69.133611)">
                        <mask id="mask-2" fill="white">
                            <use xlink:href="#path-1"></use>
                        </mask>
                        <g id="Clip-12"></g>
                        <path d="M4.86712183,4.81203058 C4.78020894,5.03864314 4.71067863,5.28268744 4.68460476,5.5093 C4.25004031,5.73591256 3.68510653,5.86665058 3.01587728,5.86665058 C1.12117628,5.86665058 0,4.68129257 0,3.12899652 C0,0.871586775 1.52966686,0 3.24185079,0 C3.81547586,0 4.52816156,0.175188942 4.91057827,0.400929916 C4.80628281,0.671993403 4.74544378,0.959617039 4.71936992,1.23765322 L4.60638316,1.23765322 C4.19789258,0.732132891 3.78071071,0.506391916 3.19839435,0.506391916 C2.32057416,0.506391916 1.3384585,1.26467241 1.3384585,3.00784596 C1.3384585,4.6987243 2.33795674,5.36113025 3.27661595,5.36113025 C3.79809329,5.36113025 4.40648351,5.11708595 4.75413507,4.74230364 L4.86712183,4.81203058 Z" id="Fill-11" fill="#00529B" mask="url(#mask-2)"></path>
                    </g>
                    <path d="M41.5058405,71.5139144 C41.5058405,70.5987483 41.4884579,69.9624899 41.4363102,69.2469172 C41.9143311,69.2565046 42.4097346,69.2913681 42.8877555,69.2913681 C43.6873541,69.2913681 44.3739659,69.2739364 44.5912481,69.2469172 C44.5738655,69.3436633 44.556483,69.4482537 44.556483,69.5964235 C44.556483,69.7707408 44.5738655,69.8404678 44.5912481,69.9624899 C43.9741666,69.9189106 42.9920509,69.8657438 42.7486948,69.8657438 C42.7052384,70.4680102 42.7052384,71.0519734 42.7052384,71.6533683 C43.4179241,71.6359365 43.9394014,71.6185048 44.556483,71.5836413 C44.5217178,71.7753904 44.5130265,71.8451174 44.5130265,71.9497078 C44.5130265,72.0368664 44.5304091,72.1144377 44.556483,72.2809107 C43.9394014,72.2277439 43.3223199,72.2111838 42.7052384,72.2111838 C42.7052384,72.5502311 42.6965471,72.9084532 42.6965471,73.2570879 C42.6965471,73.5970068 42.7052384,73.9543573 42.722621,74.2768445 C43.3397025,74.2768445 43.9654753,74.241981 44.5912481,74.172254 C44.5738655,74.2855603 44.556483,74.3640031 44.556483,74.5383205 C44.556483,74.7126378 44.5738655,74.7910807 44.5912481,74.8869552 C44.2957443,74.8773677 43.9133276,74.8425043 43.1658767,74.8425043 C41.8361095,74.8425043 41.610136,74.8695235 41.4363102,74.8869552 C41.4884579,74.1635382 41.5058405,73.5351241 41.5058405,72.6208296 L41.5058405,71.5139144 Z" id="Fill-14" fill="#00529B"></path>
                    <path d="M45.694868,69.2472658 C45.816546,69.2734134 45.9382241,69.2917167 46.0599021,69.2917167 C46.1815802,69.2917167 46.3032582,69.2734134 46.4249363,69.2472658 C47.5982603,70.5459301 48.7715843,71.8445944 49.9709822,73.1441303 C49.9709822,71.8367501 49.9709822,69.6133323 49.9101431,69.2472658 C50.0318212,69.2734134 50.1534992,69.2917167 50.2751773,69.2917167 C50.3968553,69.2917167 50.5185334,69.2734134 50.6402114,69.2472658 C50.5098421,71.6266977 50.5098421,72.7161812 50.5098421,74.8951481 C50.3968553,74.8690005 50.2925599,74.8524404 50.1795731,74.8524404 C50.0665863,74.8524404 49.9622909,74.8690005 49.8579954,74.8951481 C48.7368191,73.5703362 47.5461125,72.2455243 46.2858756,70.9119966 C46.2684931,71.5221073 46.2684931,72.2106608 46.2684931,72.8216432 C46.2684931,74.1290233 46.2945669,74.5900927 46.3206408,74.8951481 C46.1902715,74.8690005 46.0599021,74.8524404 45.9382241,74.8524404 C45.816546,74.8524404 45.6861767,74.8690005 45.5644987,74.8951481 C45.6079551,74.6598197 45.7296331,72.5418638 45.7296331,70.8771331 C45.7296331,70.1371559 45.7035593,69.6394799 45.694868,69.2472658" id="Fill-16" fill="#00529B"></path>
                    <path d="M52.9785158,70.5809679 C52.9785158,70.2671967 52.9785158,69.9708572 52.9524419,69.8575509 C52.6308642,69.8575509 51.9442524,69.9098461 51.4575402,69.9621413 C51.4836141,69.8401191 51.5009967,69.7276844 51.5009967,69.6047907 C51.5009967,69.4827686 51.4836141,69.3694623 51.4575402,69.2474401 C52.2049911,69.2735877 52.5700252,69.2918911 53.5782147,69.2918911 C54.5864043,69.2918911 54.9601297,69.2735877 55.6554328,69.2474401 C55.6293589,69.3694623 55.6119764,69.4827686 55.6119764,69.6047907 C55.6119764,69.7276844 55.6293589,69.8401191 55.6554328,69.9621413 C55.2121771,69.9011302 54.5255652,69.8575509 54.2039876,69.8575509 C54.186605,69.9708572 54.186605,70.2671967 54.186605,70.5809679 L54.186605,72.6291968 C54.186605,73.5443629 54.2039876,74.1806213 54.2561353,74.8953224 C54.0736182,74.8778907 53.856336,74.8517431 53.586906,74.8517431 C53.3174761,74.8517431 53.1001938,74.8778907 52.9176768,74.8953224 C52.9698245,74.1719054 52.9872071,73.5443629 52.9872071,72.6291968 L52.9872071,70.5809679 L52.9785158,70.5809679 Z" id="Fill-18" fill="#00529B"></path>
                    <path d="M56.4808445,71.5139144 C56.4808445,70.5987483 56.4634619,69.9624899 56.4113142,69.2469172 C56.8893351,69.2565046 57.3847386,69.2913681 57.8627595,69.2913681 C58.6623581,69.2913681 59.3489699,69.2739364 59.5662521,69.2469172 C59.5488695,69.3436633 59.531487,69.4482537 59.531487,69.5964235 C59.531487,69.7707408 59.5488695,69.8404678 59.5662521,69.9624899 C58.9491706,69.9189106 57.9670549,69.8657438 57.7236988,69.8657438 C57.6802424,70.4680102 57.6802424,71.0519734 57.6802424,71.6533683 C58.3929281,71.6359365 58.9144054,71.6185048 59.531487,71.5836413 C59.4967218,71.7753904 59.4880305,71.8451174 59.4880305,71.9497078 C59.4880305,72.0368664 59.5054131,72.1144377 59.531487,72.2809107 C58.9144054,72.2277439 58.2973239,72.2111838 57.6802424,72.2111838 C57.6802424,72.5502311 57.6715511,72.9084532 57.6715511,73.2570879 C57.6715511,73.5970068 57.6802424,73.9543573 57.697625,74.2768445 C58.3147065,74.2768445 58.9404793,74.241981 59.5662521,74.172254 C59.5488695,74.2855603 59.531487,74.3640031 59.531487,74.5383205 C59.531487,74.7126378 59.5488695,74.7910807 59.5662521,74.8869552 C59.2707483,74.8773677 58.8883316,74.8425043 58.1408807,74.8425043 C56.8111135,74.8425043 56.58514,74.8695235 56.4113142,74.8869552 C56.4634619,74.1635382 56.4808445,73.5351241 56.4808445,72.6208296 L56.4808445,71.5139144 Z" id="Fill-20" fill="#00529B"></path>
                    <path d="M61.878135,69.7093811 C61.8607524,70.4502299 61.8520611,71.1910786 61.8520611,71.9406433 C61.9215914,71.9493591 61.9737392,71.958075 62.0345782,71.958075 C62.7559552,71.958075 63.1470632,71.5571451 63.1470632,70.7901487 C63.1383719,69.8139715 62.7646465,69.7093811 61.878135,69.7093811 L61.878135,69.7093811 Z M61.9215914,72.289278 L61.8520611,72.289278 L61.8520611,72.6204809 C61.8520611,73.5356471 61.8694437,74.1719054 61.9215914,74.8866066 C61.7390744,74.8691748 61.5217921,74.8430272 61.2523622,74.8430272 C60.9829322,74.8430272 60.76565,74.8691748 60.5831329,74.8866066 C60.6352807,74.1631895 60.6526632,73.5356471 60.6526632,72.6204809 L60.6526632,71.5048499 C60.6526632,70.5896838 60.6352807,69.9534254 60.5831329,69.2387243 C60.76565,69.256156 60.9829322,69.2823036 61.2523622,69.2823036 C61.547866,69.2823036 61.8955176,69.2387243 62.4517601,69.2387243 C63.2774325,69.2387243 63.5816276,69.3084512 63.8684402,69.517632 C64.1987091,69.7529605 64.3986088,70.1190269 64.3986088,70.5992712 C64.3986088,71.3915436 63.9379705,71.8970639 63.1296806,72.1062447 C63.6511579,73.0301267 64.2769307,73.9627246 64.8679384,74.8866066 C64.6245823,74.8691748 64.3812262,74.8430272 64.1291788,74.8430272 C63.8858227,74.8430272 63.6337754,74.8691748 63.381728,74.8866066 L61.9215914,72.289278 Z" id="Fill-22" fill="#00529B"></path>
                    <g id="Group-26" transform="translate(65.206725, 69.134395)">
                        <mask id="mask-4" fill="white">
                            <use xlink:href="#path-3"></use>
                        </mask>
                        <g id="Clip-25"></g>
                        <path d="M2.83336021,1.22022148 C2.65953443,0.749564626 2.34664803,0.51336461 1.84255326,0.51336461 C1.34714979,0.51336461 0.990806944,0.854155039 0.990806944,1.24636909 C0.990806944,2.4578747 3.47651559,2.15194775 3.47651559,4.01801503 C3.47651559,5.11621437 2.60738669,5.86577899 1.31238464,5.86577899 C0.721376986,5.86577899 0.234664803,5.69146164 0,5.51714428 C0.104295468,5.14236197 0.182517069,4.84602247 0.234664803,4.47995602 L0.391108004,4.47995602 C0.478020894,4.95061288 0.860437609,5.36025866 1.52097557,5.36025866 C2.15543967,5.36025866 2.47701736,4.98460476 2.47701736,4.52353536 C2.47701736,3.28588214 0.0434564449,3.61708511 0.0434564449,1.75101783 C0.0434564449,0.61882661 0.912585343,0 1.87731842,0 C2.46832607,0 2.90289052,0.156885619 3.21577692,0.400929916 C3.12017274,0.653690081 3.05933372,0.854155039 2.95503825,1.21150562 L2.83336021,1.21150562 L2.83336021,1.22022148 Z" id="Fill-24" fill="#00529B" mask="url(#mask-4)"></path>
                    </g>
                    <path d="M71.9168345,71.5139144 C71.9168345,70.5987483 71.8994519,69.9624899 71.8473042,69.2469172 C72.3253251,69.2565046 72.8207286,69.2913681 73.2987494,69.2913681 C74.098348,69.2913681 74.7849599,69.2739364 75.0022421,69.2469172 C74.9848595,69.3436633 74.9674769,69.4482537 74.9674769,69.5964235 C74.9674769,69.7707408 74.9848595,69.8404678 75.0022421,69.9624899 C74.3851606,69.9189106 73.4030449,69.8657438 73.1596888,69.8657438 C73.1162324,70.4680102 73.1162324,71.0519734 73.1162324,71.6533683 C73.8289181,71.6359365 74.3503954,71.6185048 74.9674769,71.5836413 C74.9327118,71.7753904 74.9240205,71.8451174 74.9240205,71.9497078 C74.9240205,72.0368664 74.9414031,72.1144377 74.9674769,72.2809107 C74.3503954,72.2277439 73.7333139,72.2111838 73.1162324,72.2111838 L73.1162324,72.6286739 C73.1162324,73.5447116 73.133615,74.1809699 73.1857627,74.8956711 C73.0032456,74.8773677 72.7859634,74.8520917 72.5165334,74.8520917 C72.2471035,74.8520917 72.0298213,74.8773677 71.8473042,74.8956711 C71.8994519,74.172254 71.9168345,73.5447116 71.9168345,72.6286739 L71.9168345,71.5139144 Z" id="Fill-27" fill="#00529B"></path>
                    <path d="M78.7391487,69.6047035 C77.6179724,69.6047035 76.9661257,70.7377664 76.9661257,72.1410211 C76.9661257,73.8841946 77.7657243,74.4943054 78.6783097,74.4943054 C79.6604253,74.4943054 80.5121716,73.6750138 80.5121716,71.8882609 C80.5208629,70.4762903 79.7907947,69.6047035 78.7391487,69.6047035 M78.7652226,69.1340467 C80.4947891,69.1340467 81.8593214,70.0840763 81.8593214,72.054734 C81.8593214,73.6750138 80.5643194,74.9911098 78.7391487,74.9911098 C77.0182735,74.9911098 75.6276672,74.1108072 75.6276672,72.0625783 C75.6276672,70.4588586 76.8705216,69.1340467 78.7652226,69.1340467" id="Fill-29" fill="#00529B"></path>
                    <path d="M84.1105391,69.7093811 C84.0931565,70.4502299 84.0844652,71.1910786 84.0844652,71.9406433 C84.1539956,71.9493591 84.2061433,71.958075 84.2669823,71.958075 C84.9883593,71.958075 85.3794673,71.5571451 85.3794673,70.7901487 C85.370776,69.8139715 84.9970506,69.7093811 84.1105391,69.7093811 L84.1105391,69.7093811 Z M84.1539956,72.289278 L84.0844652,72.289278 L84.0844652,72.6204809 C84.0844652,73.5356471 84.1018478,74.1719054 84.1539956,74.8866066 C83.9714785,74.8691748 83.7541963,74.8430272 83.4847663,74.8430272 C83.2153363,74.8430272 82.9980541,74.8691748 82.8155371,74.8866066 C82.8676848,74.1631895 82.8850674,73.5356471 82.8850674,72.6204809 L82.8850674,71.5048499 C82.8850674,70.5896838 82.8676848,69.9534254 82.8155371,69.2387243 C82.9980541,69.256156 83.2153363,69.2823036 83.4847663,69.2823036 C83.7802701,69.2823036 84.1279217,69.2387243 84.6841642,69.2387243 C85.5098366,69.2387243 85.8140318,69.3084512 86.1008443,69.517632 C86.4311133,69.7529605 86.6310129,70.1190269 86.6310129,70.5992712 C86.6310129,71.3915436 86.1703746,71.8970639 85.3620847,72.1062447 C85.8835621,73.0301267 86.5093349,73.9627246 87.1003425,74.8866066 C86.8569864,74.8691748 86.6136303,74.8430272 86.361583,74.8430272 C86.1182269,74.8430272 85.8661795,74.8691748 85.6228234,74.8866066 L84.1539956,72.289278 Z" id="Fill-31" fill="#00529B"></path>
                    <path d="M90.7940534,71.1733854 C90.6202276,72.4110386 90.5506973,73.6582793 90.4637844,74.8959325 C90.3334151,74.8689133 90.2030458,74.8523532 90.0813677,74.8523532 C89.9509984,74.8523532 89.8293203,74.8689133 89.698951,74.8959325 C90.0379113,73.0124335 90.3073412,71.1298061 90.542006,69.2471787 C90.6549928,69.2733263 90.7592883,69.2916296 90.8809663,69.2916296 C90.9852618,69.2916296 91.0982485,69.2733263 91.2112353,69.2471787 C91.8109342,70.5458429 92.4975461,72.0101087 93.097245,73.1606033 C93.7404004,71.9403818 94.4096296,70.5458429 95.0006373,69.2471787 C95.1136241,69.2733263 95.2353021,69.2916296 95.3482889,69.2916296 C95.4612756,69.2916296 95.5742624,69.2733263 95.6959404,69.2471787 C95.9045313,71.1298061 96.1913439,73.7445664 96.3999348,74.8959325 C96.1826526,74.8689133 95.9566791,74.8523532 95.7393969,74.8523532 C95.5221146,74.8523532 95.2874498,74.8689133 95.0614763,74.8959325 C95.0006373,73.7532823 94.8615767,72.3674593 94.7312073,71.0949426 L94.7138248,71.0949426 C94.1054345,72.3674593 93.4970443,73.6234158 92.9060366,74.8959325 C92.8538889,74.8872167 92.8017412,74.8776292 92.7495934,74.8776292 C92.6974457,74.8776292 92.645298,74.8872167 92.5931502,74.8959325 C92.0108339,73.6582793 91.4285175,72.4110386 90.811436,71.1733854 L90.7940534,71.1733854 Z" id="Fill-33" fill="#00529B"></path>
                    <path d="M97.3214722,71.5139144 C97.3214722,70.5987483 97.3040896,69.9624899 97.2519419,69.2469172 C97.7299628,69.2565046 98.2253662,69.2913681 98.7033871,69.2913681 C99.5029857,69.2913681 100.189598,69.2739364 100.40688,69.2469172 C100.389497,69.3436633 100.372115,69.4482537 100.372115,69.5964235 C100.372115,69.7707408 100.389497,69.8404678 100.40688,69.9624899 C99.7897983,69.9189106 98.8076826,69.8657438 98.5643265,69.8657438 C98.5208701,70.4680102 98.5208701,71.0519734 98.5208701,71.6533683 C99.2335558,71.6359365 99.7550331,71.6185048 100.372115,71.5836413 C100.337349,71.7753904 100.328658,71.8451174 100.328658,71.9497078 C100.328658,72.0368664 100.346041,72.1144377 100.372115,72.2809107 C99.7550331,72.2277439 99.1379516,72.2111838 98.5208701,72.2111838 C98.5208701,72.5502311 98.5121788,72.9084532 98.5121788,73.2570879 C98.5121788,73.5970068 98.5208701,73.9543573 98.5382526,74.2768445 C99.1553342,74.2768445 99.781107,74.241981 100.40688,74.172254 C100.389497,74.2855603 100.372115,74.3640031 100.372115,74.5383205 C100.372115,74.7126378 100.389497,74.7910807 100.40688,74.8869552 C100.111376,74.8773677 99.7289592,74.8425043 98.9815084,74.8425043 C97.6517412,74.8425043 97.4257677,74.8695235 97.2519419,74.8869552 C97.3040896,74.1635382 97.3214722,73.5351241 97.3214722,72.6208296 L97.3214722,71.5139144 Z" id="Fill-35" fill="#00529B"></path>
                    <path d="M102.692428,72.803427 C102.692428,73.2479363 102.692428,74.2415452 102.701119,74.3984308 C102.866254,74.4071467 103.083536,74.4245784 103.422496,74.4245784 C104.647968,74.4245784 105.421493,73.5878551 105.421493,71.8882609 C105.421493,70.5460173 104.682733,69.709294 103.552866,69.709294 C103.161758,69.709294 102.953167,69.7275973 102.701119,69.7528733 C102.692428,69.9106305 102.692428,70.9033678 102.692428,71.3478771 L102.692428,72.803427 Z M101.484339,71.5143502 C101.484339,70.5991841 101.466956,69.9620541 101.414809,69.247353 C101.597326,69.2647847 101.814608,69.2918039 102.084038,69.2918039 C102.440381,69.2918039 102.84018,69.247353 103.561557,69.247353 C105.421493,69.247353 106.707804,69.8487478 106.707804,71.9065642 C106.707804,73.7098773 105.412801,74.8952353 103.883135,74.8952353 C103.066153,74.8952353 102.509911,74.8525275 102.084038,74.8525275 C101.814608,74.8525275 101.597326,74.8778035 101.414809,74.8952353 C101.466956,74.1718182 101.484339,73.5451474 101.484339,72.6291097 L101.484339,71.5143502 Z" id="Fill-37" fill="#00529B"></path>
                    <path d="M107.872784,71.5139144 C107.872784,70.5987483 107.854532,69.9624899 107.803254,69.2469172 C107.985771,69.2652205 108.203053,69.2913681 108.471614,69.2913681 C108.741913,69.2913681 108.959195,69.2652205 109.141712,69.2469172 C109.088695,69.9703342 109.072182,70.5987483 109.072182,71.5139144 L109.072182,72.6286739 C109.072182,73.5447116 109.088695,74.1809699 109.141712,74.8956711 C108.959195,74.8773677 108.741913,74.8520917 108.471614,74.8520917 C108.203053,74.8520917 107.985771,74.8773677 107.803254,74.8956711 C107.854532,74.172254 107.872784,73.5447116 107.872784,72.6286739 L107.872784,71.5139144 Z" id="Fill-39" fill="#00529B"></path>
                    <g id="Group-43" transform="translate(110.105489, 69.133611)">
                        <mask id="mask-6" fill="white">
                            <use xlink:href="#path-5"></use>
                        </mask>
                        <g id="Clip-42"></g>
                        <path d="M4.86799096,4.81203058 C4.78020894,5.03864314 4.71067863,5.28268744 4.68547389,5.5093 C4.25090944,5.73591256 3.68597566,5.86665058 3.01674641,5.86665058 C1.12117628,5.86665058 0,4.68129257 0,3.12899652 C0,0.871586775 1.53053599,0 3.24271992,0 C3.81634499,0 4.53772198,0.175188942 4.9114474,0.400929916 C4.80715194,0.671993403 4.74544378,0.959617039 4.72023905,1.23765322 L4.60725229,1.23765322 C4.19789258,0.732132891 3.78157984,0.506391916 3.19926347,0.506391916 C2.32057416,0.506391916 1.3384585,1.26467241 1.3384585,3.00784596 C1.3384585,4.6987243 2.33882587,5.36113025 3.27748508,5.36113025 C3.79896241,5.36113025 4.40735264,5.11708595 4.7550042,4.74230364 L4.86799096,4.81203058 Z" id="Fill-41" fill="#00529B" mask="url(#mask-6)"></path>
                    </g>
                    <path d="M118.249748,72.7336129 C118.015084,72.071207 117.780419,71.4262327 117.51968,70.7821301 C117.241559,71.4175169 116.989512,72.071207 116.754847,72.7336129 L118.249748,72.7336129 Z M120.413879,74.8951481 C120.153141,74.8777164 119.928036,74.8524404 119.692502,74.8524404 C119.466529,74.8524404 119.223173,74.8777164 118.997199,74.8951481 C118.823373,74.3373326 118.640856,73.7708012 118.432265,73.2138572 C118.085483,73.2042698 117.736962,73.1955539 117.389311,73.1955539 C117.103367,73.1955539 116.824377,73.2042698 116.537564,73.2138572 C116.320282,73.7708012 116.137765,74.3286167 115.982191,74.8951481 C115.850953,74.8777164 115.730144,74.8524404 115.598905,74.8524404 C115.468536,74.8524404 115.346858,74.8777164 115.190415,74.8951481 C115.590214,73.9886979 116.816555,71.0688822 117.51968,69.2036865 C117.623976,69.2219898 117.728271,69.2472658 117.833436,69.2472658 C117.937731,69.2472658 118.041157,69.2219898 118.145453,69.2036865 C118.841625,71.0688822 119.796798,73.5616203 120.413879,74.8951481 L120.413879,74.8951481 Z" id="Fill-44" fill="#00529B"></path>
                    <path d="M122.490924,69.7093811 C122.473541,70.4502299 122.465719,71.1910786 122.465719,71.9406433 C122.535249,71.9493591 122.586528,71.958075 122.648236,71.958075 C123.369613,71.958075 123.759852,71.5571451 123.759852,70.7901487 C123.759852,69.8139715 123.386126,69.7093811 122.490924,69.7093811 L122.490924,69.7093811 Z M122.54394,72.289278 L122.473541,72.289278 L122.473541,72.6204809 C122.473541,73.5356471 122.490924,74.1719054 122.54394,74.8866066 C122.361423,74.8691748 122.144141,74.8430272 121.873842,74.8430272 C121.604412,74.8430272 121.38713,74.8691748 121.205482,74.8866066 C121.256761,74.1631895 121.275012,73.5356471 121.275012,72.6204809 L121.275012,71.5048499 C121.275012,70.5896838 121.256761,69.9534254 121.205482,69.2387243 C121.38713,69.256156 121.604412,69.2823036 121.873842,69.2823036 C122.169346,69.2823036 122.516997,69.2387243 123.07324,69.2387243 C123.898912,69.2387243 124.203977,69.3084512 124.481229,69.517632 C124.811498,69.7529605 125.011397,70.1190269 125.011397,70.5992712 C125.011397,71.3915436 124.550759,71.8970639 123.742469,72.1062447 C124.263947,73.0301267 124.890588,73.9627246 125.480727,74.8866066 C125.237371,74.8691748 124.994015,74.8430272 124.751528,74.8430272 C124.507303,74.8430272 124.255255,74.8691748 124.003208,74.8866066 L122.54394,72.289278 Z" id="Fill-46" fill="#00529B"></path>
                    <path d="M126.176291,71.5139144 C126.176291,70.5987483 126.158908,69.9624899 126.106761,69.2469172 C126.584781,69.2565046 127.080185,69.2913681 127.558206,69.2913681 C128.357804,69.2913681 129.044416,69.2739364 129.261698,69.2469172 C129.244316,69.3436633 129.226933,69.4482537 129.226933,69.5964235 C129.226933,69.7707408 129.244316,69.8404678 129.261698,69.9624899 C128.644617,69.9189106 127.662501,69.8657438 127.419145,69.8657438 C127.375689,70.4680102 127.375689,71.0519734 127.375689,71.6533683 C128.088374,71.6359365 128.609852,71.6185048 129.226933,71.5836413 C129.192168,71.7753904 129.183477,71.8451174 129.183477,71.9497078 C129.183477,72.0368664 129.200859,72.1144377 129.226933,72.2809107 C128.609852,72.2277439 127.99277,72.2111838 127.375689,72.2111838 C127.375689,72.5502311 127.366997,72.9084532 127.366997,73.2570879 C127.366997,73.5970068 127.375689,73.9543573 127.393071,74.2768445 C128.001462,74.2768445 128.635926,74.241981 129.261698,74.172254 C129.244316,74.2855603 129.226933,74.3640031 129.226933,74.5383205 C129.226933,74.7126378 129.244316,74.7910807 129.261698,74.8869552 C128.966195,74.8773677 128.584647,74.8425043 127.836327,74.8425043 C126.50656,74.8425043 126.280586,74.8695235 126.106761,74.8869552 C126.158908,74.1635382 126.176291,73.5351241 126.176291,72.6208296 L126.176291,71.5139144 Z" id="Fill-48" fill="#00529B"></path>
                    <path d="M134.63335,71.3828277 C134.90278,71.1832344 135.285196,70.7640011 135.285196,70.2497649 C135.285196,69.8924143 134.998384,69.64837 134.70288,69.64837 C134.381302,69.64837 134.119694,69.848835 134.119694,70.2410491 C134.119694,70.5809679 134.363051,71.0002011 134.63335,71.3828277 L134.63335,71.3828277 Z M134.476037,74.3898021 C134.806306,74.3898021 135.137444,74.2686515 135.345166,74.067315 C134.859323,73.4659201 134.363051,72.8645252 133.902412,72.2544145 C133.528687,72.5420381 133.294891,72.8296618 133.294891,73.2480234 C133.294891,73.7884072 133.719895,74.3898021 134.476037,74.3898021 L134.476037,74.3898021 Z M135.5807,74.3549386 C135.093119,74.7558685 134.389994,74.9999128 133.745969,74.9999128 C132.721266,74.9999128 132.190228,74.3200752 132.190228,73.6838168 C132.190228,72.8296618 132.781236,72.3938684 133.659925,71.9406433 C133.311405,71.470858 133.059357,71.0429089 133.059357,70.5992712 C133.059357,69.64837 133.842442,69.2918911 134.563819,69.2918911 C135.319961,69.2918911 135.884026,69.6396542 135.884026,70.2933443 C135.884026,70.8250122 135.554626,71.2433738 134.841071,71.6887547 C135.259122,72.2369828 135.693687,72.7433747 136.128251,73.2567393 C136.406373,72.9264079 136.761846,72.3764366 137.101676,71.6791672 C137.249428,71.8534846 137.405002,72.0190861 137.552754,72.1498241 C137.196411,72.6989238 136.814863,73.1443046 136.415064,73.580098 C136.761846,73.9888722 137.258119,74.529256 137.630975,74.8953224 C137.231176,74.8874781 136.92785,74.8517431 136.623655,74.8517431 C136.406373,74.8517431 136.17953,74.8874781 135.954426,74.8953224 L135.5807,74.3549386 Z" id="Fill-50" fill="#00529B"></path>
                    <path d="M141.420812,71.1733854 C141.246986,72.4110386 141.177456,73.6582793 141.090543,74.8959325 C140.960173,74.8689133 140.829804,74.8523532 140.708126,74.8523532 C140.577757,74.8523532 140.456079,74.8689133 140.325709,74.8959325 C140.66467,73.0124335 140.942791,71.1298061 141.168764,69.2471787 C141.281751,69.2733263 141.386047,69.2916296 141.499033,69.2916296 C141.603329,69.2916296 141.716316,69.2733263 141.829302,69.2471787 C142.429001,70.5458429 143.115613,72.0101087 143.715312,73.1606033 C144.358467,71.9403818 145.027697,70.5458429 145.618704,69.2471787 C145.731691,69.2733263 145.853369,69.2916296 145.966356,69.2916296 C146.079343,69.2916296 146.192329,69.2733263 146.305316,69.2471787 C146.513907,71.1298061 146.80072,73.7445664 147.009311,74.8959325 C146.792028,74.8689133 146.566055,74.8523532 146.348773,74.8523532 C146.13149,74.8523532 145.896826,74.8689133 145.670852,74.8959325 C145.610013,73.7532823 145.470952,72.3674593 145.340583,71.0949426 L145.323201,71.0949426 C144.71481,72.3674593 144.10642,73.6234158 143.515412,74.8959325 C143.463265,74.8872167 143.411117,74.8776292 143.358969,74.8776292 C143.306821,74.8776292 143.254674,74.8872167 143.202526,74.8959325 C142.62021,73.6582793 142.037893,72.4110386 141.420812,71.1733854" id="Fill-52" fill="#00529B"></path>
                    <path d="M147.957096,71.5139144 C147.957096,70.5987483 147.938844,69.9624899 147.887565,69.2469172 C148.365586,69.2565046 148.860121,69.2913681 149.339011,69.2913681 C150.138609,69.2913681 150.825221,69.2739364 151.042503,69.2469172 C151.024252,69.3436633 151.007738,69.4482537 151.007738,69.5964235 C151.007738,69.7707408 151.024252,69.8404678 151.042503,69.9624899 C150.425422,69.9189106 149.443306,69.8657438 149.19995,69.8657438 C149.156494,70.4680102 149.156494,71.0519734 149.156494,71.6533683 C149.86831,71.6359365 150.390657,71.6185048 151.007738,71.5836413 C150.972973,71.7753904 150.964282,71.8451174 150.964282,71.9497078 C150.964282,72.0368664 150.980795,72.1144377 151.007738,72.2809107 C150.390657,72.2277439 149.773575,72.2111838 149.156494,72.2111838 C149.156494,72.5502311 149.146933,72.9084532 149.146933,73.2570879 C149.146933,73.5970068 149.156494,73.9543573 149.173007,74.2768445 C149.782266,74.2768445 150.415861,74.241981 151.042503,74.172254 C151.024252,74.2855603 151.007738,74.3640031 151.007738,74.5383205 C151.007738,74.7126378 151.024252,74.7910807 151.042503,74.8869552 C150.746999,74.8773677 150.364583,74.8425043 149.616263,74.8425043 C148.287365,74.8425043 148.060522,74.8695235 147.887565,74.8869552 C147.938844,74.1635382 147.957096,73.5351241 147.957096,72.6208296 L147.957096,71.5139144 Z" id="Fill-54" fill="#00529B"></path>
                    <path d="M153.328051,72.803427 C153.328051,73.2479363 153.328051,74.2415452 153.336743,74.3984308 C153.501877,74.4071467 153.719159,74.4245784 154.05812,74.4245784 C155.283592,74.4245784 156.057116,73.5878551 156.057116,71.8882609 C156.057116,70.5460173 155.309665,69.709294 154.188489,69.709294 C153.797381,69.709294 153.58879,69.7275973 153.336743,69.7528733 C153.328051,69.9106305 153.328051,70.9033678 153.328051,71.3478771 L153.328051,72.803427 Z M152.119093,71.5143502 C152.119093,70.5991841 152.10258,69.9620541 152.050432,69.247353 C152.232949,69.2647847 152.450231,69.2918039 152.719661,69.2918039 C153.076004,69.2918039 153.475803,69.247353 154.19718,69.247353 C156.057116,69.247353 157.343427,69.8487478 157.343427,71.9065642 C157.343427,73.7098773 156.057116,74.8952353 154.518758,74.8952353 C153.701777,74.8952353 153.145534,74.8525275 152.719661,74.8525275 C152.450231,74.8525275 152.232949,74.8778035 152.050432,74.8952353 C152.10258,74.1718182 152.119093,73.5451474 152.119093,72.6291097 L152.119093,71.5143502 Z" id="Fill-56" fill="#00529B"></path>
                    <path d="M158.50806,71.5139144 C158.50806,70.5987483 158.489808,69.9624899 158.438529,69.2469172 C158.621046,69.2652205 158.838329,69.2913681 159.10689,69.2913681 C159.377189,69.2913681 159.594471,69.2652205 159.776988,69.2469172 C159.723971,69.9703342 159.707458,70.5987483 159.707458,71.5139144 L159.707458,72.6286739 C159.707458,73.5447116 159.723971,74.1809699 159.776988,74.8956711 C159.594471,74.8773677 159.377189,74.8520917 159.10689,74.8520917 C158.838329,74.8520917 158.621046,74.8773677 158.438529,74.8956711 C158.489808,74.172254 158.50806,73.5447116 158.50806,72.6286739 L158.50806,71.5139144 Z" id="Fill-58" fill="#00529B"></path>
                    <g id="Group-62" transform="translate(160.741634, 69.133611)">
                        <mask id="mask-8" fill="white">
                            <use xlink:href="#path-7"></use>
                        </mask>
                        <g id="Clip-61"></g>
                        <path d="M4.86712183,4.81203058 C4.78020894,5.03864314 4.71067863,5.28268744 4.68460476,5.5093 C4.25004031,5.73591256 3.68510653,5.86665058 3.01587728,5.86665058 C1.12117628,5.86665058 0,4.68129257 0,3.12899652 C0,0.871586775 1.52966686,0 3.24185079,0 C3.81547586,0 4.52816156,0.175188942 4.91057827,0.400929916 C4.80628281,0.671993403 4.74544378,0.959617039 4.71936992,1.23765322 L4.60638316,1.23765322 C4.19702345,0.732132891 3.78071071,0.506391916 3.19839435,0.506391916 C2.32057416,0.506391916 1.3384585,1.26467241 1.3384585,3.00784596 C1.3384585,4.6987243 2.33795674,5.36113025 3.27661595,5.36113025 C3.79809329,5.36113025 4.40648351,5.11708595 4.75413507,4.74230364 L4.86712183,4.81203058 Z" id="Fill-60" fill="#00529B" mask="url(#mask-8)"></path>
                    </g>
                    <path d="M168.884937,72.7336129 C168.650272,72.071207 168.415608,71.4262327 168.154869,70.7821301 C167.877617,71.4175169 167.62557,72.071207 167.390036,72.7336129 L168.884937,72.7336129 Z M171.049068,74.8951481 C170.78833,74.8777164 170.563225,74.8524404 170.327691,74.8524404 C170.101718,74.8524404 169.858362,74.8777164 169.632388,74.8951481 C169.458562,74.3373326 169.276045,73.7708012 169.067454,73.2138572 C168.720672,73.2042698 168.372151,73.1955539 168.025369,73.1955539 C167.738556,73.1955539 167.459566,73.2042698 167.172753,73.2138572 C166.955471,73.7708012 166.772954,74.3286167 166.61738,74.8951481 C166.486142,74.8777164 166.365333,74.8524404 166.234094,74.8524404 C166.104594,74.8524404 165.982047,74.8777164 165.825604,74.8951481 C166.225403,73.9886979 167.451744,71.0688822 168.154869,69.2036865 C168.259164,69.2219898 168.36346,69.2472658 168.468625,69.2472658 C168.57292,69.2472658 168.677215,69.2219898 168.781511,69.2036865 C169.476814,71.0688822 170.431987,73.5616203 171.049068,74.8951481 L171.049068,74.8951481 Z" id="Fill-63" fill="#00529B"></path>
                    <path d="M171.926888,71.5139144 C171.926888,70.5987483 171.909506,69.9624899 171.858227,69.2469172 C172.040744,69.2652205 172.258027,69.2913681 172.526587,69.2913681 C172.796017,69.2913681 173.0133,69.2652205 173.195817,69.2469172 C173.143669,69.9703342 173.127155,70.5987483 173.127155,71.5139144 L173.127155,72.6286739 C173.127155,73.5447116 173.143669,74.1809699 173.195817,74.8956711 C173.0133,74.8773677 172.796017,74.8520917 172.526587,74.8520917 C172.258027,74.8520917 172.040744,74.8773677 171.858227,74.8956711 C171.909506,74.172254 171.926888,73.5447116 171.926888,72.6286739 L171.926888,71.5139144 Z" id="Fill-65" fill="#00529B"></path>
                    <path d="M175.82102,72.803427 C175.82102,73.2479363 175.82102,74.2415452 175.829712,74.3984308 C175.994846,74.4071467 176.212128,74.4245784 176.551089,74.4245784 C177.77656,74.4245784 178.550085,73.5878551 178.550085,71.8882609 C178.550085,70.5460173 177.802634,69.709294 176.681458,69.709294 C176.29035,69.709294 176.081759,69.7275973 175.829712,69.7528733 C175.82102,69.9106305 175.82102,70.9033678 175.82102,71.3478771 L175.82102,72.803427 Z M174.612931,71.5143502 C174.612931,70.5991841 174.595549,69.9620541 174.543401,69.247353 C174.725918,69.2647847 174.9432,69.2918039 175.21263,69.2918039 C175.568973,69.2918039 175.968772,69.247353 176.690149,69.247353 C178.550085,69.247353 179.836396,69.8487478 179.836396,71.9065642 C179.836396,73.7098773 178.550085,74.8952353 177.011727,74.8952353 C176.194746,74.8952353 175.638503,74.8525275 175.21263,74.8525275 C174.9432,74.8525275 174.725918,74.8778035 174.543401,74.8952353 C174.595549,74.1718182 174.612931,73.5451474 174.612931,72.6291097 L174.612931,71.5143502 Z" id="Fill-67" fill="#00529B"></path>
                    <g id="Group-71" transform="translate(182.808643, 69.134395)">
                        <mask id="mask-10" fill="white">
                            <use xlink:href="#path-9"></use>
                        </mask>
                        <g id="Clip-70"></g>
                        <path d="M2.83336021,1.22022148 C2.65953443,0.749564626 2.34664803,0.51336461 1.84255326,0.51336461 C1.34714979,0.51336461 0.990806944,0.854155039 0.990806944,1.24636909 C0.990806944,2.4578747 3.47651559,2.15194775 3.47651559,4.01801503 C3.47651559,5.11621437 2.60738669,5.86577899 1.31238464,5.86577899 C0.721376986,5.86577899 0.234664803,5.69146164 0,5.51714428 C0.104295468,5.14236197 0.182517069,4.84602247 0.234664803,4.47995602 L0.391108004,4.47995602 C0.478020894,4.95061288 0.860437609,5.36025866 1.52097557,5.36025866 C2.15543967,5.36025866 2.47701736,4.98460476 2.47701736,4.52353536 C2.47701736,3.28588214 0.0434564449,3.61708511 0.0434564449,1.75101783 C0.0434564449,0.61882661 0.912585343,0 1.88600971,0 C2.47701736,0 2.91158181,0.156885619 3.22446821,0.400929916 C3.12886403,0.653690081 3.06889414,0.854155039 2.96372954,1.21150562 L2.83336021,1.21150562 L2.83336021,1.22022148 Z" id="Fill-69" fill="#00529B" mask="url(#mask-10)"></path>
                    </g>
                    <path d="M187.250413,71.5139144 C187.250413,70.5987483 187.232161,69.9624899 187.189574,69.2469172 C187.666726,69.2565046 188.162998,69.2913681 188.641019,69.2913681 C189.440618,69.2913681 190.12723,69.2739364 190.344512,69.2469172 C190.327129,69.3436633 190.309747,69.4482537 190.309747,69.5964235 C190.309747,69.7707408 190.327129,69.8404678 190.344512,69.9624899 C189.72743,69.9189106 188.745315,69.8657438 188.50109,69.8657438 C188.458502,70.4680102 188.458502,71.0519734 188.458502,71.6533683 C189.171188,71.6359365 189.692665,71.6185048 190.309747,71.5836413 C190.274113,71.7753904 190.26629,71.8451174 190.26629,71.9497078 C190.26629,72.0368664 190.282804,72.1144377 190.309747,72.2809107 C189.692665,72.2277439 189.075584,72.2111838 188.458502,72.2111838 C188.458502,72.5502311 188.449811,72.9084532 188.449811,73.2570879 C188.449811,73.5970068 188.458502,73.9543573 188.475016,74.2768445 C189.083406,74.2768445 189.718739,74.241981 190.344512,74.172254 C190.327129,74.2855603 190.309747,74.3640031 190.309747,74.5383205 C190.309747,74.7126378 190.327129,74.7910807 190.344512,74.8869552 C190.049008,74.8773677 189.665722,74.8425043 188.919141,74.8425043 C187.589373,74.8425043 187.3634,74.8695235 187.189574,74.8869552 C187.240853,74.1635382 187.250413,73.5351241 187.250413,72.6208296 L187.250413,71.5139144 Z" id="Fill-72" fill="#00529B"></path>
                    <path d="M192.638317,69.7093811 C192.620934,70.4502299 192.613112,71.1910786 192.613112,71.9406433 C192.682643,71.9493591 192.733921,71.958075 192.795629,71.958075 C193.517006,71.958075 193.907245,71.5571451 193.907245,70.7901487 C193.907245,69.8139715 193.525698,69.7093811 192.638317,69.7093811 L192.638317,69.7093811 Z M192.691334,72.289278 L192.613112,72.289278 L192.613112,72.6204809 C192.613112,73.5356471 192.629626,74.1719054 192.682643,74.8866066 C192.500125,74.8691748 192.282843,74.8430272 192.012544,74.8430272 C191.743983,74.8430272 191.526701,74.8691748 191.344184,74.8866066 C191.395463,74.1631895 191.413714,73.5356471 191.413714,72.6204809 L191.413714,71.5048499 C191.413714,70.5896838 191.395463,69.9534254 191.344184,69.2387243 C191.526701,69.256156 191.743983,69.2823036 192.012544,69.2823036 C192.308048,69.2823036 192.656569,69.2387243 193.211942,69.2387243 C194.037615,69.2387243 194.34181,69.3084512 194.619931,69.517632 C194.9502,69.7529605 195.150969,70.1190269 195.150969,70.5992712 C195.150969,71.3915436 194.689461,71.8970639 193.88204,72.1062447 C194.402649,73.0301267 195.028421,73.9627246 195.620298,74.8866066 C195.376073,74.8691748 195.132717,74.8430272 194.89023,74.8430272 C194.646874,74.8430272 194.394826,74.8691748 194.14191,74.8866066 L192.691334,72.289278 Z" id="Fill-74" fill="#00529B"></path>
                    <path d="M200.148112,69.2472658 C200.261099,69.2734134 200.382777,69.2917167 200.504455,69.2917167 C200.626133,69.2917167 200.746942,69.2734134 200.859929,69.2472658 C200.321938,70.5372142 199.260732,73.0212365 198.627137,74.8951481 C198.504589,74.8777164 198.391603,74.8524404 198.270794,74.8524404 C198.149116,74.8524404 198.027438,74.8777164 197.914451,74.8951481 C197.410356,73.4918934 196.227472,70.4945065 195.698172,69.2472658 C195.95022,69.2734134 196.193576,69.2917167 196.436063,69.2917167 C196.671597,69.2917167 196.914084,69.2734134 197.158309,69.2472658 C197.522474,70.4674873 198.114351,71.9927642 198.608885,73.362027 C199.165996,71.9927642 199.722239,70.5110666 200.148112,69.2472658" id="Fill-76" fill="#00529B"></path>
                    <path d="M201.729405,71.5139144 C201.729405,70.5987483 201.712023,69.9624899 201.659875,69.2469172 C201.843261,69.2652205 202.060543,69.2913681 202.329104,69.2913681 C202.598534,69.2913681 202.815816,69.2652205 202.998333,69.2469172 C202.946186,69.9703342 202.929672,70.5987483 202.929672,71.5139144 L202.929672,72.6286739 C202.929672,73.5447116 202.946186,74.1809699 202.998333,74.8956711 C202.815816,74.8773677 202.598534,74.8520917 202.329104,74.8520917 C202.060543,74.8520917 201.843261,74.8773677 201.659875,74.8956711 C201.712023,74.172254 201.729405,73.5447116 201.729405,72.6286739 L201.729405,71.5139144 Z" id="Fill-78" fill="#00529B"></path>
                    <g id="Group-82" transform="translate(203.971410, 69.133611)">
                        <mask id="mask-12" fill="white">
                            <use xlink:href="#path-11"></use>
                        </mask>
                        <g id="Clip-81"></g>
                        <path d="M4.86799096,4.81203058 C4.78020894,5.03864314 4.71067863,5.28268744 4.68547389,5.5093 C4.25090944,5.73591256 3.68597566,5.86665058 3.01674641,5.86665058 C1.12117628,5.86665058 0,4.68129257 0,3.12899652 C0,0.871586775 1.53053599,0 3.24271992,0 C3.81634499,0 4.52816156,0.175188942 4.9114474,0.400929916 C4.80715194,0.671993403 4.74544378,0.959617039 4.72023905,1.23765322 L4.60725229,1.23765322 C4.19789258,0.732132891 3.78157984,0.506391916 3.19926347,0.506391916 C2.32057416,0.506391916 1.3384585,1.26467241 1.3384585,3.00784596 C1.3384585,4.6987243 2.33882587,5.36113025 3.27748508,5.36113025 C3.79896241,5.36113025 4.40735264,5.11708595 4.7550042,4.74230364 L4.86799096,4.81203058 Z" id="Fill-80" fill="#00529B" mask="url(#mask-12)"></path>
                    </g>
                    <path d="M209.795095,71.5139144 C209.795095,70.5987483 209.777713,69.9624899 209.725565,69.2469172 C210.203586,69.2565046 210.698989,69.2913681 211.17701,69.2913681 C211.976609,69.2913681 212.663221,69.2739364 212.880503,69.2469172 C212.86312,69.3436633 212.845738,69.4482537 212.845738,69.5964235 C212.845738,69.7707408 212.86312,69.8404678 212.880503,69.9624899 C212.263421,69.9189106 211.281306,69.8657438 211.03795,69.8657438 C210.994493,70.4680102 210.994493,71.0519734 210.994493,71.6533683 C211.707179,71.6359365 212.228656,71.6185048 212.845738,71.5836413 C212.810973,71.7753904 212.802281,71.8451174 212.802281,71.9497078 C212.802281,72.0368664 212.819664,72.1144377 212.845738,72.2809107 C212.228656,72.2277439 211.611575,72.2111838 210.994493,72.2111838 C210.994493,72.5502311 210.985802,72.9084532 210.985802,73.2570879 C210.985802,73.5970068 210.994493,73.9543573 211.011876,74.2768445 C211.621135,74.2768445 212.25473,74.241981 212.880503,74.172254 C212.86312,74.2855603 212.845738,74.3640031 212.845738,74.5383205 C212.845738,74.7126378 212.86312,74.7910807 212.880503,74.8869552 C212.584999,74.8773677 212.203451,74.8425043 211.455131,74.8425043 C210.125364,74.8425043 209.899391,74.8695235 209.725565,74.8869552 C209.777713,74.1635382 209.795095,73.5351241 209.795095,72.6208296 L209.795095,71.5139144 Z" id="Fill-83" fill="#00529B"></path>
                    <g id="Group-87" transform="translate(213.523484, 69.134395)">
                        <mask id="mask-14" fill="white">
                            <use xlink:href="#path-13"></use>
                        </mask>
                        <g id="Clip-86"></g>
                        <path d="M2.83336021,1.22022148 C2.66040356,0.749564626 2.34664803,0.51336461 1.84255326,0.51336461 C1.34714979,0.51336461 0.990806944,0.854155039 0.990806944,1.24636909 C0.990806944,2.4578747 3.47651559,2.15194775 3.47651559,4.01801503 C3.47651559,5.11621437 2.60738669,5.86577899 1.31238464,5.86577899 C0.721376986,5.86577899 0.235533931,5.69146164 0,5.51714428 C0.104295468,5.14236197 0.182517069,4.84602247 0.234664803,4.47995602 L0.391108004,4.47995602 C0.478020894,4.95061288 0.860437609,5.36025866 1.52097557,5.36025866 C2.1563088,5.36025866 2.47701736,4.98460476 2.47701736,4.52353536 C2.47701736,3.28588214 0.0434564449,3.61708511 0.0434564449,1.75101783 C0.0434564449,0.61882661 0.912585343,0 1.87731842,0 C2.46832607,0 2.90289052,0.156885619 3.21577692,0.400929916 C3.12017274,0.653690081 3.05933372,0.854155039 2.95590738,1.21150562 L2.83336021,1.21150562 L2.83336021,1.22022148 Z" id="Fill-85" fill="#00529B" mask="url(#mask-14)"></path>
                    </g>
                </g>
            </g>
        </g>
    </g>
</svg>