<svg id="svg" version="1.1" xmlns="http://www.w3.org/2000/svg" xmlns:xlink="http://www.w3.org/1999/xlink" width="400" height="400" viewBox="0, 0, 400,400"><g id="svgg"><path id="path0" d="M173.713 120.407 C 173.169 120.627,172.220 121.966,171.252 123.882 C 170.386 125.597,168.311 129.520,166.641 132.600 C 163.218 138.911,162.956 140.251,164.393 144.085 C 165.225 146.305,168.994 151.335,169.658 151.114 C 170.103 150.966,172.067 146.142,174.219 139.913 C 176.003 134.748,176.003 134.748,179.864 140.028 C 181.765 142.628,182.712 143.600,183.345 143.600 C 183.824 143.600,185.520 144.148,187.116 144.819 C 190.985 146.444,190.800 146.838,190.800 136.976 C 190.800 126.839,191.469 128.131,184.127 124.085 C 177.118 120.223,175.549 119.669,173.713 120.407 M222.496 126.100 C 217.628 140.559,217.578 140.666,216.205 139.767 C 215.620 139.383,214.659 139.030,214.071 138.983 C 213.482 138.935,212.325 138.761,211.500 138.596 L 210.000 138.295 210.000 146.919 L 210.000 155.542 211.378 156.671 C 215.663 160.182,223.003 162.577,224.463 160.941 C 225.065 160.267,228.964 153.055,232.696 145.711 L 234.165 142.822 233.649 140.327 C 232.993 137.151,232.541 136.286,228.937 131.319 C 224.194 124.782,223.209 123.984,222.496 126.100 M292.528 214.312 C 292.269 214.477,288.738 222.894,284.683 233.015 C 276.184 254.227,276.020 254.579,274.179 255.666 C 272.258 256.799,272.262 256.800,277.412 256.800 L 282.024 256.800 281.161 255.632 C 280.520 254.766,280.369 254.172,280.574 253.332 C 280.999 251.599,284.065 243.465,284.507 242.900 C 285.204 242.008,297.868 242.207,298.356 243.117 C 299.689 245.608,302.780 254.941,302.561 255.813 L 302.313 256.800 308.057 256.796 L 313.800 256.792 312.155 255.806 C 309.858 254.430,308.813 252.276,301.059 232.934 C 295.150 218.196,293.377 213.986,293.090 214.006 C 293.040 214.009,292.788 214.147,292.528 214.312 M66.632 215.300 C 66.532 215.795,66.341 224.533,66.208 234.717 C 65.961 253.724,65.859 254.850,64.279 256.091 C 63.433 256.756,63.584 256.783,68.306 256.791 L 73.213 256.800 72.004 255.700 C 71.141 254.914,70.692 254.029,70.431 252.600 C 69.986 250.166,69.385 227.936,69.740 227.013 C 69.930 226.516,73.740 230.144,85.245 241.777 C 93.902 250.531,100.804 257.200,101.206 257.200 C 102.319 257.200,102.397 256.516,102.442 246.467 C 102.537 225.150,102.898 217.771,103.900 216.706 C 105.259 215.261,105.126 215.200,100.600 215.200 C 96.752 215.200,95.444 215.547,97.018 216.152 C 98.630 216.770,100.320 244.860,98.802 245.799 C 98.380 246.060,90.780 238.479,71.037 218.100 C 67.167 214.105,66.909 213.941,66.632 215.300 M131.105 214.786 C 108.662 218.889,107.384 252.328,129.492 257.012 C 144.967 260.292,157.667 251.490,158.650 236.805 C 159.662 221.682,147.326 211.821,131.105 214.786 M330.694 214.807 C 319.270 217.710,319.402 228.862,330.972 238.167 C 335.680 241.954,337.429 243.987,338.268 246.649 C 339.884 251.775,335.247 256.298,329.291 255.405 C 325.160 254.785,323.324 252.823,322.214 247.842 C 321.671 245.406,321.174 247.544,321.286 251.833 L 321.400 256.198 323.000 256.790 C 327.978 258.631,337.187 257.297,340.334 254.280 C 347.122 247.769,344.755 239.173,333.945 231.083 C 327.099 225.960,325.434 221.430,329.226 218.240 C 333.370 214.753,342.000 217.475,342.000 222.269 C 342.000 222.561,342.180 222.800,342.400 222.800 C 343.507 222.800,342.847 215.598,341.700 215.159 C 340.192 214.582,332.542 214.338,330.694 214.807 M237.176 215.863 C 236.996 216.337,236.734 217.867,236.595 219.263 L 236.341 221.800 237.162 220.800 C 237.613 220.250,237.986 219.708,237.991 219.596 C 238.043 218.417,249.458 217.101,251.300 218.063 C 251.950 218.402,252.000 219.648,252.000 235.517 C 252.000 253.310,251.870 254.881,250.300 256.090 C 249.435 256.755,249.651 256.782,255.800 256.782 C 261.891 256.782,262.138 256.751,260.926 256.154 C 258.858 255.134,258.800 254.576,258.800 235.754 C 258.800 215.406,258.095 217.484,264.842 217.947 C 269.617 218.274,271.440 218.866,272.548 220.448 C 273.283 221.496,273.747 219.807,273.527 216.882 L 273.400 215.182 255.452 215.091 L 237.504 215.000 237.176 215.863 M162.143 215.724 C 165.224 217.698,164.679 216.651,172.379 235.400 C 180.667 255.580,181.258 256.959,181.751 257.280 C 182.498 257.765,183.510 256.424,184.935 253.058 C 187.466 247.079,191.492 237.868,194.400 231.400 C 195.983 227.880,197.917 223.494,198.698 221.654 C 199.499 219.767,200.703 217.724,201.459 216.967 C 203.268 215.158,203.331 215.200,198.800 215.200 C 194.854 215.200,194.223 215.423,195.400 216.400 C 196.188 217.054,196.157 217.671,195.226 219.926 C 194.800 220.957,192.368 227.110,189.822 233.600 C 187.275 240.090,185.039 245.670,184.852 246.000 C 183.857 247.760,183.600 247.207,176.036 227.000 C 172.365 217.193,172.517 217.788,173.332 216.408 L 174.045 215.200 167.723 215.224 C 162.675 215.242,161.550 215.343,162.143 215.724 M216.359 216.614 L 217.600 218.028 217.600 235.317 C 217.600 253.316,217.472 254.879,215.900 256.090 C 215.035 256.755,215.252 256.782,221.400 256.775 C 227.190 256.769,227.679 256.716,226.531 256.217 C 224.218 255.210,224.217 255.209,224.066 238.207 C 223.905 220.196,224.041 218.088,225.468 216.392 L 226.471 215.200 220.794 215.200 L 215.117 215.200 216.359 216.614 M141.552 218.154 C 153.681 224.424,154.992 248.448,143.517 254.166 C 139.231 256.302,132.562 255.402,128.224 252.103 C 120.006 245.851,118.075 228.321,124.765 220.700 C 128.291 216.685,136.347 215.463,141.552 218.154 M293.120 228.800 C 297.753 240.918,297.894 240.000,291.400 240.000 C 285.199 240.000,285.359 240.281,287.816 233.698 C 291.221 224.575,291.431 224.381,293.120 228.800 " stroke="none" fill="#2e576c" fill-rule="evenodd"></path><path id="path1" d="M0.000 200.000 L 0.000 400.000 200.000 400.000 L 400.000 400.000 400.000 200.000 L 400.000 0.000 200.000 0.000 L 0.000 0.000 0.000 200.000 M195.815 79.500 C 196.603 83.253,196.968 84.408,197.936 86.200 C 199.236 88.606,210.576 104.588,219.223 116.200 C 236.454 139.338,236.706 139.951,232.399 148.212 C 224.529 163.304,225.193 162.400,221.976 162.400 C 218.865 162.400,206.443 156.095,202.577 152.554 L 201.184 151.278 201.292 142.539 C 201.420 132.181,200.997 132.723,207.019 135.209 C 211.983 137.257,212.400 137.388,212.400 136.893 C 212.400 136.431,209.140 131.941,197.233 116.000 C 188.114 103.791,187.517 102.855,186.598 99.328 C 185.547 95.292,185.650 94.925,190.235 86.334 C 194.438 78.459,195.360 77.330,195.815 79.500 M184.000 123.081 C 191.786 127.112,195.853 129.708,196.226 130.883 C 196.574 131.977,196.597 148.737,196.251 149.082 C 195.895 149.438,192.083 148.200,188.476 146.556 C 186.839 145.810,185.413 145.200,185.307 145.200 C 184.696 145.200,186.069 147.125,199.994 165.800 C 209.500 178.548,209.679 178.806,210.461 180.863 C 211.918 184.697,211.596 187.360,209.109 192.058 C 201.873 205.729,201.964 205.618,201.433 201.509 C 200.720 195.986,200.652 195.878,181.792 170.600 C 159.453 140.659,160.158 142.720,167.578 129.002 C 173.904 117.305,173.280 117.530,184.000 123.081 M293.712 213.700 C 294.342 214.173,295.726 217.207,297.773 222.600 C 307.744 248.873,311.140 255.594,314.451 255.599 C 315.796 255.600,316.740 256.622,316.038 257.317 C 315.406 257.943,302.114 257.874,301.481 257.241 C 301.181 256.941,301.201 256.545,301.550 255.894 C 302.011 255.032,300.537 250.143,297.991 244.090 C 297.613 243.191,297.531 243.181,291.333 243.290 L 285.057 243.400 283.720 246.800 C 280.882 254.016,280.752 255.600,283.000 255.600 C 284.119 255.600,285.101 256.659,284.520 257.240 C 284.193 257.567,273.988 257.867,270.700 257.647 C 268.769 257.517,270.242 255.600,272.273 255.600 C 273.918 255.600,275.714 253.378,277.283 249.400 C 281.557 238.565,286.100 227.226,286.659 226.000 C 287.011 225.230,287.622 223.700,288.017 222.600 C 290.930 214.503,292.180 212.549,293.712 213.700 M82.768 229.005 C 91.001 237.472,97.886 244.400,98.068 244.400 C 98.450 244.400,98.448 239.080,98.062 226.660 C 97.761 217.008,97.574 216.410,94.856 216.394 C 93.427 216.386,92.630 215.820,92.933 215.031 C 93.314 214.038,107.725 214.263,107.918 215.266 C 108.043 215.919,107.772 216.065,105.515 216.567 C 103.776 216.953,103.631 218.389,103.304 238.486 C 102.964 259.355,102.995 259.142,100.505 257.854 C 99.848 257.515,92.806 250.631,84.855 242.557 L 70.400 227.877 70.429 233.038 C 70.537 252.265,71.098 255.578,74.251 255.594 C 75.735 255.601,76.778 256.582,76.063 257.297 C 75.430 257.930,61.358 257.918,60.723 257.283 C 60.058 256.618,61.055 255.600,62.373 255.600 C 65.220 255.600,65.452 253.403,65.560 225.474 C 65.601 214.988,65.783 213.595,67.114 213.605 C 67.491 213.608,74.536 220.538,82.768 229.005 M144.507 214.584 C 165.857 220.221,163.986 253.175,142.052 257.824 C 125.941 261.239,112.800 251.533,112.800 236.219 C 112.800 220.046,127.417 210.072,144.507 214.584 M257.258 214.352 C 275.733 214.293,274.407 214.063,274.377 217.324 C 274.329 222.464,272.956 225.258,272.100 221.956 C 271.457 219.471,264.969 217.702,260.300 218.738 C 259.647 218.883,259.600 220.025,259.600 235.821 C 259.600 255.436,259.622 255.579,262.667 255.594 C 265.134 255.606,266.215 256.881,264.300 257.520 C 263.177 257.895,247.875 257.817,247.254 257.434 C 246.057 256.694,247.089 255.600,248.984 255.600 C 250.985 255.600,250.991 255.544,251.119 236.539 L 251.239 218.800 245.919 218.814 C 240.037 218.830,239.375 219.027,237.911 221.200 C 236.006 224.028,235.165 222.556,236.001 217.856 C 236.624 214.348,237.364 213.533,239.466 214.037 C 240.310 214.239,248.316 214.381,257.258 214.352 M339.986 214.026 C 343.575 214.608,343.600 214.643,343.600 219.173 C 343.600 224.480,341.842 226.547,341.026 222.198 C 339.969 216.565,331.209 215.410,328.648 220.565 C 327.145 223.592,328.779 226.121,335.787 231.609 C 342.678 237.005,344.602 240.103,344.597 245.800 C 344.591 254.050,339.708 258.197,330.000 258.199 C 320.783 258.201,319.945 257.515,320.370 250.319 C 320.690 244.921,322.171 243.757,323.150 248.135 C 324.784 255.435,333.691 257.347,337.151 251.141 C 339.126 247.599,337.455 244.449,330.712 239.007 C 314.815 226.176,320.500 210.864,339.986 214.026 M176.611 214.818 C 177.005 215.455,176.018 216.400,174.959 216.400 C 172.822 216.400,172.806 216.341,179.994 235.200 C 181.797 239.930,183.367 244.115,183.483 244.500 C 183.729 245.317,184.227 245.414,184.518 244.700 C 184.631 244.425,186.730 239.160,189.183 233.000 C 191.637 226.840,194.024 220.864,194.488 219.720 C 195.421 217.417,195.106 216.406,193.451 216.394 C 192.218 216.385,191.446 215.778,191.729 215.040 C 192.070 214.152,205.387 214.067,205.726 214.951 C 206.008 215.687,205.244 216.400,204.174 216.400 C 202.013 216.400,201.531 217.159,196.546 228.400 C 191.334 240.154,189.766 243.743,186.277 251.909 C 183.053 259.455,181.596 260.142,179.626 255.046 C 179.191 253.921,178.049 251.110,177.087 248.800 C 174.835 243.392,169.146 229.585,167.362 225.200 C 164.636 218.498,163.044 216.411,160.641 216.394 C 159.417 216.385,158.647 215.776,158.929 215.040 C 159.227 214.265,176.138 214.052,176.611 214.818 M229.071 215.040 C 229.353 215.775,228.583 216.385,227.362 216.394 C 225.068 216.411,225.012 216.778,224.867 232.741 C 224.670 254.392,224.854 255.600,228.351 255.600 C 230.100 255.600,231.244 256.516,230.465 257.295 C 229.954 257.806,213.668 257.936,212.857 257.435 C 212.606 257.280,212.400 256.906,212.400 256.603 C 212.400 256.065,212.721 255.913,214.856 255.441 C 216.546 255.067,216.587 254.645,216.717 236.608 C 216.860 216.649,216.832 216.412,214.271 216.394 C 213.020 216.385,212.244 215.783,212.529 215.040 C 212.743 214.483,213.811 214.400,220.800 214.400 C 227.789 214.400,228.857 214.483,229.071 215.040 M131.600 217.738 C 123.688 219.553,119.865 228.596,122.180 240.020 C 125.730 257.538,146.480 260.189,150.042 243.579 C 153.312 228.332,143.761 214.949,131.600 217.738 M290.931 227.833 C 288.405 234.392,286.913 238.659,287.062 238.900 C 287.164 239.065,289.127 239.200,291.424 239.200 C 296.453 239.200,296.293 239.637,293.767 232.778 C 291.763 227.337,291.380 226.668,290.931 227.833 M94.100 267.500 C 97.772 269.152,96.144 271.352,92.260 269.987 C 88.149 268.542,83.158 269.125,82.876 271.083 C 82.693 272.352,83.662 272.683,88.841 273.120 C 96.462 273.763,99.182 276.181,97.010 280.381 C 95.098 284.078,84.004 284.923,79.997 281.678 C 77.702 279.820,79.866 278.506,83.059 279.819 C 88.358 281.997,95.577 280.547,94.010 277.618 C 93.454 276.580,92.744 276.395,87.601 275.954 C 80.937 275.382,78.743 273.963,79.368 270.630 C 80.092 266.771,88.507 264.983,94.100 267.500 M124.653 267.442 C 129.917 269.933,131.416 276.067,127.794 280.299 C 122.750 286.191,110.691 284.224,108.800 277.201 C 106.739 269.546,116.456 263.564,124.653 267.442 M257.451 267.039 C 267.551 271.208,264.061 283.738,252.800 283.738 C 241.611 283.738,238.047 271.361,248.000 267.069 C 249.942 266.231,255.452 266.214,257.451 267.039 M320.141 267.211 C 322.989 268.090,323.378 268.410,323.011 269.567 C 322.641 270.731,321.901 270.810,319.207 269.971 C 314.690 268.565,310.000 269.115,310.000 271.050 C 310.000 272.378,310.837 272.664,316.144 273.147 C 323.246 273.792,325.732 275.844,324.218 279.809 C 322.776 283.585,313.560 285.111,308.400 282.428 C 304.493 280.397,305.930 278.063,310.005 279.821 C 313.991 281.540,319.922 281.088,320.877 278.991 C 321.737 277.104,320.490 276.446,315.180 275.985 C 308.405 275.396,306.400 274.387,306.400 271.565 C 306.400 267.119,313.037 265.017,320.141 267.211 M144.957 267.433 C 145.091 267.781,145.200 270.841,145.200 274.233 C 145.200 277.625,145.245 280.423,145.300 280.452 C 145.355 280.480,148.098 280.615,151.396 280.752 C 157.720 281.014,159.035 281.562,156.967 283.074 C 156.073 283.727,143.964 283.823,142.774 283.186 C 141.989 282.766,141.519 267.815,142.267 267.067 C 142.791 266.542,144.716 266.804,144.957 267.433 M171.200 272.692 C 171.467 280.295,171.714 280.600,177.600 280.600 C 183.486 280.600,183.733 280.295,184.000 272.692 L 184.200 267.000 185.400 267.000 L 186.600 267.000 186.723 273.000 C 186.903 281.836,185.264 283.771,177.600 283.771 C 170.013 283.771,168.023 281.533,168.009 272.980 C 167.999 267.349,168.219 266.675,169.997 266.883 L 171.000 267.000 171.200 272.692 M215.800 268.200 L 215.800 269.400 212.413 269.518 C 208.211 269.663,208.414 269.301,208.406 276.680 C 208.400 283.158,208.204 283.788,206.343 283.301 C 205.659 283.122,205.600 282.608,205.594 276.853 C 205.586 269.288,205.790 269.664,201.629 269.518 C 198.121 269.394,197.172 268.891,197.727 267.447 C 197.954 266.853,198.907 266.796,206.890 266.892 L 215.800 267.000 215.800 268.200 M229.908 275.069 C 230.008 282.516,229.962 283.150,229.308 283.290 C 227.210 283.739,227.200 283.701,227.200 275.220 C 227.200 266.821,227.223 266.699,228.785 266.882 L 229.800 267.000 229.908 275.069 M279.891 267.500 C 280.320 267.885,282.884 270.580,285.590 273.490 C 288.296 276.399,290.665 278.684,290.855 278.566 C 291.045 278.449,291.203 275.978,291.206 273.076 C 291.213 267.212,291.371 266.677,293.043 266.868 L 294.200 267.000 294.308 274.907 L 294.417 282.813 293.381 283.207 C 291.528 283.912,290.573 283.223,284.997 277.168 C 281.975 273.886,279.344 271.200,279.151 271.200 C 278.958 271.200,278.797 273.675,278.794 276.700 C 278.787 282.795,278.636 283.324,276.957 283.132 L 275.800 283.000 275.691 275.412 C 275.631 271.239,275.670 267.594,275.778 267.312 C 276.074 266.543,278.972 266.675,279.891 267.500 M250.706 269.392 C 246.955 270.345,245.376 272.327,245.698 275.679 C 246.387 282.850,259.358 282.689,259.889 275.503 C 260.220 271.030,255.811 268.096,250.706 269.392 M115.208 270.100 C 110.900 272.302,110.594 276.819,114.554 279.775 C 116.400 281.154,122.167 280.978,124.126 279.484 C 130.651 274.507,122.784 266.229,115.208 270.100 " stroke="none" fill="#fbfbfb" fill-rule="evenodd"></path><path id="path2" d="M173.493 119.705 C 172.656 120.079,171.816 121.323,170.055 124.800 C 168.774 127.330,166.694 131.290,165.432 133.600 C 164.048 136.135,163.077 138.434,162.982 139.400 L 162.826 141.000 163.140 139.566 C 163.312 138.778,165.286 134.715,167.526 130.537 C 169.767 126.360,171.600 122.755,171.600 122.525 C 171.600 119.563,175.438 119.253,180.463 121.810 C 193.956 128.677,192.867 127.184,192.713 138.600 L 192.600 147.000 191.411 146.871 C 190.757 146.800,188.883 146.123,187.247 145.368 C 185.612 144.612,184.183 144.084,184.073 144.194 C 183.793 144.474,190.911 147.751,193.695 148.623 C 196.689 149.562,196.514 150.081,196.504 140.277 C 196.494 130.023,196.613 130.466,193.278 128.265 C 185.126 122.886,175.597 118.763,173.493 119.705 M201.467 133.867 C 201.320 134.013,201.200 137.994,201.200 142.713 L 201.200 151.292 202.585 152.561 C 206.450 156.101,218.869 162.400,221.983 162.400 C 224.678 162.400,225.105 162.050,226.811 158.442 C 227.442 157.109,229.407 153.339,231.179 150.064 C 234.521 143.884,235.091 141.671,234.024 139.000 C 233.843 138.545,233.787 139.409,233.895 141.000 C 234.071 143.601,233.987 143.985,232.710 146.400 C 231.954 147.830,229.919 151.700,228.189 155.000 C 226.458 158.300,224.763 161.232,224.421 161.515 C 222.628 163.003,217.233 161.091,209.700 156.297 L 207.200 154.706 207.200 145.545 L 207.200 136.385 208.300 136.655 C 208.905 136.804,210.180 137.258,211.133 137.663 C 214.002 138.883,214.399 138.433,211.600 137.133 C 205.628 134.359,202.109 133.224,201.467 133.867 M292.095 213.533 C 291.599 213.847,289.432 218.665,288.017 222.600 C 287.622 223.700,287.011 225.230,286.659 226.000 C 286.100 227.226,281.557 238.565,277.283 249.400 C 275.714 253.378,273.918 255.600,272.273 255.600 C 270.242 255.600,268.769 257.517,270.700 257.647 C 273.988 257.867,284.193 257.567,284.520 257.240 C 285.101 256.659,284.119 255.600,283.000 255.600 C 280.752 255.600,280.882 254.016,283.720 246.800 L 285.057 243.400 291.333 243.290 C 297.531 243.181,297.613 243.191,297.991 244.090 C 300.537 250.143,302.011 255.032,301.550 255.894 C 301.201 256.545,301.181 256.941,301.481 257.241 C 302.114 257.874,315.406 257.943,316.038 257.317 C 316.740 256.622,315.796 255.600,314.451 255.599 C 311.140 255.594,307.744 248.873,297.773 222.600 C 294.524 214.039,293.606 212.574,292.095 213.533 M66.014 214.374 C 65.763 214.844,65.584 219.200,65.560 225.474 C 65.452 253.403,65.220 255.600,62.373 255.600 C 61.055 255.600,60.058 256.618,60.723 257.283 C 61.358 257.918,75.430 257.930,76.063 257.297 C 76.778 256.582,75.735 255.601,74.251 255.594 C 71.098 255.578,70.537 252.265,70.429 233.038 L 70.400 227.877 84.855 242.557 C 92.806 250.631,99.848 257.515,100.505 257.854 C 102.995 259.142,102.964 259.355,103.304 238.486 C 103.631 218.389,103.776 216.953,105.515 216.567 C 107.772 216.065,108.043 215.919,107.918 215.266 C 107.725 214.263,93.314 214.038,92.933 215.031 C 92.630 215.820,93.427 216.386,94.856 216.394 C 97.574 216.410,97.761 217.008,98.062 226.660 C 98.448 239.080,98.450 244.400,98.068 244.400 C 97.886 244.400,91.001 237.472,82.768 229.005 C 68.066 213.884,66.846 212.819,66.014 214.374 M130.800 214.032 C 120.353 215.594,112.800 224.905,112.800 236.219 C 112.800 264.062,154.461 266.784,159.255 239.254 C 162.148 222.637,149.315 211.262,130.800 214.032 M237.210 214.390 C 236.439 215.161,235.415 219.915,235.656 221.600 C 235.859 223.010,236.805 222.842,237.911 221.200 C 239.375 219.027,240.037 218.830,245.919 218.814 L 251.239 218.800 251.119 236.539 C 250.991 255.544,250.985 255.600,248.984 255.600 C 247.089 255.600,246.057 256.694,247.254 257.434 C 247.875 257.817,263.177 257.895,264.300 257.520 C 266.215 256.881,265.134 255.606,262.667 255.594 C 259.622 255.579,259.600 255.436,259.600 235.821 C 259.600 220.025,259.647 218.883,260.300 218.738 C 264.969 217.702,271.457 219.471,272.100 221.956 C 272.956 225.258,274.329 222.464,274.377 217.324 C 274.407 214.063,275.733 214.293,257.258 214.352 C 248.316 214.381,240.310 214.239,239.466 214.037 C 238.198 213.733,237.806 213.794,237.210 214.390 M330.963 214.012 C 318.375 216.508,318.250 228.949,330.712 239.007 C 337.455 244.449,339.126 247.599,337.151 251.141 C 333.691 257.347,324.784 255.435,323.150 248.135 C 322.171 243.757,320.690 244.921,320.370 250.319 C 319.945 257.515,320.783 258.201,330.000 258.199 C 347.036 258.196,350.342 243.006,335.787 231.609 C 328.779 226.121,327.145 223.592,328.648 220.565 C 331.209 215.410,339.969 216.565,341.026 222.198 C 341.381 224.091,342.300 224.825,343.043 223.808 C 343.793 222.784,343.828 215.487,343.086 214.872 C 341.831 213.830,334.502 213.311,330.963 214.012 M71.109 217.687 C 81.206 228.352,98.246 245.493,98.560 245.300 C 99.108 244.963,98.457 218.832,97.870 217.600 C 97.547 216.922,96.775 216.404,95.472 215.991 C 92.518 215.055,93.581 214.800,100.443 214.800 C 106.596 214.800,108.628 215.207,105.944 215.903 C 103.201 216.613,103.275 216.099,102.847 237.488 C 102.635 248.097,102.347 256.962,102.207 257.188 C 101.490 258.349,99.567 256.651,85.416 242.358 C 77.116 233.974,70.183 227.269,70.010 227.458 C 69.693 227.803,70.221 249.172,70.624 252.272 C 70.923 254.576,72.015 255.836,73.987 256.152 C 77.693 256.744,75.380 257.200,68.667 257.200 C 61.565 257.200,59.974 256.928,62.643 256.170 C 65.779 255.279,65.664 256.040,65.900 234.744 C 66.163 210.995,65.824 212.105,71.109 217.687 M144.167 215.005 C 165.801 220.667,163.159 254.061,140.800 257.584 C 125.675 259.967,114.325 251.794,113.324 237.797 C 112.144 221.310,126.820 210.465,144.167 215.005 M294.007 214.813 C 294.494 215.722,296.756 221.247,300.799 231.400 C 310.111 254.783,310.314 255.164,313.917 256.071 C 317.019 256.852,315.106 257.224,308.569 257.111 L 302.200 257.000 302.301 255.706 C 302.390 254.563,300.517 248.896,298.544 244.335 C 297.751 242.502,297.397 242.412,290.976 242.405 C 284.569 242.399,284.922 242.148,282.629 248.328 C 280.227 254.798,280.253 255.546,282.902 256.211 C 285.477 256.858,283.572 257.200,277.400 257.200 C 271.147 257.200,269.131 256.816,271.900 256.151 C 275.538 255.279,275.088 256.114,284.176 233.400 C 288.314 223.060,291.777 214.465,291.873 214.300 C 292.224 213.696,293.584 214.023,294.007 214.813 M339.369 214.416 C 340.892 214.636,342.377 215.015,342.669 215.257 C 343.280 215.764,343.419 222.235,342.839 223.151 C 342.415 223.820,341.600 223.399,341.600 222.512 C 341.600 217.520,332.409 214.821,329.042 218.823 C 325.966 222.479,327.517 225.804,334.984 231.569 C 345.055 239.344,347.311 247.863,340.975 254.198 C 337.049 258.124,325.194 259.390,321.300 256.299 C 320.776 255.883,320.565 248.278,321.043 247.033 C 321.523 245.782,322.281 246.439,322.744 248.507 C 324.226 255.130,331.672 257.633,336.256 253.049 C 340.125 249.180,338.693 244.769,331.782 239.267 C 324.871 233.766,322.471 230.428,322.100 225.805 C 321.431 217.470,328.454 212.838,339.369 214.416 M158.929 215.040 C 158.647 215.776,159.417 216.385,160.641 216.394 C 163.044 216.411,164.636 218.498,167.362 225.200 C 169.146 229.585,174.835 243.392,177.087 248.800 C 178.049 251.110,179.191 253.921,179.626 255.046 C 181.596 260.142,183.053 259.455,186.277 251.909 C 189.766 243.743,191.334 240.154,196.546 228.400 C 201.531 217.159,202.013 216.400,204.174 216.400 C 205.244 216.400,206.008 215.687,205.726 214.951 C 205.387 214.067,192.070 214.152,191.729 215.040 C 191.446 215.778,192.218 216.385,193.451 216.394 C 195.106 216.406,195.421 217.417,194.488 219.720 C 194.024 220.864,191.637 226.840,189.183 233.000 C 186.730 239.160,184.631 244.425,184.518 244.700 C 184.227 245.414,183.729 245.317,183.483 244.500 C 183.367 244.115,181.797 239.930,179.994 235.200 C 172.806 216.341,172.822 216.400,174.959 216.400 C 176.018 216.400,177.005 215.455,176.611 214.818 C 176.138 214.052,159.227 214.265,158.929 215.040 M212.529 215.040 C 212.244 215.783,213.020 216.385,214.271 216.394 C 216.832 216.412,216.860 216.649,216.717 236.608 C 216.587 254.645,216.546 255.067,214.856 255.441 C 212.721 255.913,212.400 256.065,212.400 256.603 C 212.400 256.906,212.606 257.280,212.857 257.435 C 213.668 257.936,229.954 257.806,230.465 257.295 C 231.244 256.516,230.100 255.600,228.351 255.600 C 224.854 255.600,224.670 254.392,224.867 232.741 C 225.012 216.778,225.068 216.411,227.362 216.394 C 228.583 216.385,229.353 215.775,229.071 215.040 C 228.857 214.483,227.789 214.400,220.800 214.400 C 213.811 214.400,212.743 214.483,212.529 215.040 M273.699 215.306 C 273.886 215.578,273.941 216.700,273.823 217.800 C 273.704 218.900,273.605 220.385,273.603 221.100 C 273.602 221.815,273.452 222.400,273.272 222.400 C 273.092 222.400,272.687 221.815,272.372 221.100 C 271.504 219.128,269.736 218.481,264.344 218.163 C 258.125 217.796,258.672 215.959,258.863 236.593 C 259.047 256.422,258.860 255.516,262.900 256.187 C 266.621 256.805,263.934 257.200,256.000 257.200 C 247.655 257.200,245.887 256.892,249.163 256.010 C 251.601 255.354,251.646 255.042,251.893 237.163 C 252.187 215.980,252.855 217.819,245.011 218.230 L 239.800 218.503 238.095 220.313 C 237.157 221.308,236.267 222.001,236.118 221.852 C 235.794 221.527,236.739 215.572,237.205 215.000 C 237.718 214.371,273.262 214.669,273.699 215.306 M175.749 215.082 C 175.904 215.238,175.439 215.649,174.716 215.996 C 172.511 217.052,172.350 216.455,181.026 239.400 C 183.565 246.114,184.156 247.095,184.740 245.559 C 184.944 245.020,187.386 238.872,190.165 231.897 C 196.490 216.019,196.383 216.537,193.484 215.843 C 190.935 215.234,193.148 214.800,198.800 214.800 C 204.325 214.800,206.473 215.189,204.306 215.796 C 201.636 216.545,200.676 217.729,198.455 223.012 C 197.811 224.545,195.986 228.680,194.401 232.200 C 192.815 235.720,190.710 240.483,189.722 242.784 C 187.732 247.417,187.220 248.566,184.821 253.785 C 182.316 259.232,181.990 259.201,179.464 253.274 C 177.262 248.107,169.108 228.369,167.147 223.460 C 164.993 218.065,163.918 216.737,161.088 215.971 C 160.256 215.747,159.682 215.391,159.812 215.181 C 160.083 214.742,175.314 214.648,175.749 215.082 M228.203 215.205 C 228.342 215.429,227.916 215.717,227.247 215.851 C 224.512 216.398,224.600 215.747,224.600 235.342 C 224.600 256.605,224.398 255.526,228.511 256.195 C 232.088 256.776,229.080 257.200,221.376 257.200 C 213.672 257.200,211.066 256.807,214.380 256.144 C 217.078 255.604,216.988 256.259,217.112 236.227 C 217.236 216.002,217.295 216.439,214.386 215.857 C 211.320 215.244,214.015 214.800,220.800 214.800 C 225.192 214.800,228.049 214.956,228.203 215.205 M130.800 217.418 C 124.160 219.273,121.458 223.992,121.422 233.800 C 121.378 245.846,126.096 253.120,135.049 254.809 C 143.676 256.437,149.600 251.260,150.862 240.990 C 152.746 225.665,142.859 214.049,130.800 217.418 M140.351 218.491 C 153.003 223.225,154.238 250.698,141.947 254.015 C 130.219 257.180,120.957 247.398,121.705 232.634 C 122.328 220.339,129.913 214.586,140.351 218.491 M290.653 227.500 C 289.472 229.786,286.377 238.562,286.572 239.070 C 286.868 239.844,295.936 239.831,296.234 239.057 C 296.348 238.758,295.997 237.363,295.454 235.957 C 294.911 234.551,293.887 231.825,293.180 229.900 C 291.783 226.098,291.510 225.839,290.653 227.500 M293.767 232.778 C 296.293 239.637,296.453 239.200,291.424 239.200 C 289.127 239.200,287.164 239.065,287.062 238.900 C 286.913 238.659,288.405 234.392,290.931 227.833 C 291.380 226.668,291.763 227.337,293.767 232.778 M83.018 267.013 C 79.894 268.202,78.525 270.670,79.662 273.066 C 80.483 274.796,82.451 275.512,87.601 275.954 C 92.744 276.395,93.454 276.580,94.010 277.618 C 95.577 280.547,88.358 281.997,83.059 279.819 C 79.866 278.506,77.702 279.820,79.997 281.678 C 84.004 284.923,95.098 284.078,97.010 280.381 C 99.182 276.181,96.462 273.763,88.841 273.120 C 83.662 272.683,82.693 272.352,82.876 271.083 C 83.158 269.125,88.149 268.542,92.260 269.987 C 94.745 270.861,96.000 270.584,96.000 269.163 C 96.000 267.047,86.894 265.539,83.018 267.013 M113.615 267.513 C 104.377 272.165,108.360 283.729,119.200 283.729 C 127.890 283.729,132.616 276.436,128.029 270.104 C 125.342 266.394,118.338 265.135,113.615 267.513 M248.000 267.069 C 238.047 271.361,241.611 283.738,252.800 283.738 C 264.061 283.738,267.551 271.208,257.451 267.039 C 255.452 266.214,249.942 266.231,248.000 267.069 M309.341 267.405 C 306.411 268.865,305.502 271.551,307.206 273.717 C 308.290 275.095,309.766 275.515,315.180 275.985 C 320.490 276.446,321.737 277.104,320.877 278.991 C 319.922 281.088,313.991 281.540,310.005 279.821 C 305.930 278.063,304.493 280.397,308.400 282.428 C 313.560 285.111,322.776 283.585,324.218 279.809 C 325.732 275.844,323.246 273.792,316.144 273.147 C 310.837 272.664,310.000 272.378,310.000 271.050 C 310.000 269.115,314.690 268.565,319.207 269.971 C 321.901 270.810,322.641 270.731,323.011 269.567 C 323.872 266.851,313.685 265.240,309.341 267.405 M142.267 267.067 C 141.519 267.815,141.989 282.766,142.774 283.186 C 143.964 283.823,156.073 283.727,156.967 283.074 C 159.035 281.562,157.720 281.014,151.396 280.752 C 148.098 280.615,145.355 280.480,145.300 280.452 C 145.245 280.423,145.200 277.625,145.200 274.233 C 145.200 270.841,145.091 267.781,144.957 267.433 C 144.716 266.804,142.791 266.542,142.267 267.067 M168.497 267.263 C 167.637 268.123,167.845 277.819,168.767 279.850 C 170.479 283.621,178.242 285.141,183.257 282.688 C 186.605 281.050,186.872 280.303,186.723 273.000 L 186.600 267.000 185.400 267.000 L 184.200 267.000 184.000 272.692 C 183.733 280.295,183.486 280.600,177.600 280.600 C 171.714 280.600,171.467 280.295,171.200 272.692 L 171.000 267.000 169.997 266.883 C 169.446 266.818,168.771 266.989,168.497 267.263 M197.727 267.447 C 197.172 268.891,198.121 269.394,201.629 269.518 C 205.790 269.664,205.586 269.288,205.594 276.853 C 205.600 282.608,205.659 283.122,206.343 283.301 C 208.204 283.788,208.400 283.158,208.406 276.680 C 208.414 269.301,208.211 269.663,212.413 269.518 L 215.800 269.400 215.800 268.200 L 215.800 267.000 206.890 266.892 C 198.907 266.796,197.954 266.853,197.727 267.447 M227.485 267.048 C 226.777 267.757,227.169 283.099,227.900 283.274 C 230.022 283.781,230.025 283.771,229.908 275.069 L 229.800 267.000 228.785 266.882 C 228.227 266.817,227.642 266.892,227.485 267.048 M275.778 267.312 C 275.670 267.594,275.631 271.239,275.691 275.412 L 275.800 283.000 276.957 283.132 C 278.636 283.324,278.787 282.795,278.794 276.700 C 278.797 273.675,278.958 271.200,279.151 271.200 C 279.344 271.200,281.975 273.886,284.997 277.168 C 290.573 283.223,291.528 283.912,293.381 283.207 L 294.417 282.813 294.308 274.907 L 294.200 267.000 293.043 266.868 C 291.371 266.677,291.213 267.212,291.206 273.076 C 291.203 275.978,291.045 278.449,290.855 278.566 C 290.665 278.684,288.296 276.399,285.590 273.490 C 282.884 270.580,280.320 267.885,279.891 267.500 C 278.972 266.675,276.074 266.543,275.778 267.312 M92.027 267.836 C 93.222 268.186,94.368 268.633,94.573 268.830 C 95.364 269.586,94.364 269.646,92.130 268.975 C 87.590 267.612,82.458 268.328,81.795 270.415 C 81.164 272.403,83.734 273.990,87.600 274.001 C 95.660 274.024,99.411 277.681,95.041 281.255 C 92.205 283.575,80.400 282.974,80.400 280.510 C 80.400 279.856,80.437 279.863,84.000 281.168 C 89.850 283.311,96.757 280.810,94.769 277.269 C 93.883 275.690,92.712 275.296,88.043 275.005 C 81.540 274.600,80.400 274.034,80.400 271.207 C 80.400 267.911,86.372 266.180,92.027 267.836 M124.236 268.413 C 130.390 271.572,130.441 278.715,124.333 281.759 C 117.626 285.101,109.800 281.499,109.800 275.071 C 109.800 268.552,117.546 264.980,124.236 268.413 M256.440 267.667 C 261.644 269.454,263.758 273.944,261.500 278.411 C 258.589 284.169,247.338 284.282,244.111 278.586 C 240.395 272.025,248.425 264.914,256.440 267.667 M319.027 267.798 C 321.354 268.504,322.289 269.045,321.884 269.450 C 321.722 269.611,320.557 269.416,319.295 269.016 C 314.225 267.410,309.000 268.407,309.000 270.979 C 309.000 272.910,310.443 273.597,315.431 274.044 C 323.002 274.721,325.452 276.778,322.947 280.354 C 320.899 283.279,311.438 283.710,307.794 281.045 C 306.313 279.962,307.527 279.927,310.536 280.965 C 316.257 282.940,322.000 281.707,322.000 278.504 C 322.000 276.032,320.668 275.372,314.912 274.991 C 308.658 274.578,306.795 273.555,307.387 270.858 C 308.073 267.738,313.836 266.223,319.027 267.798 M144.311 274.205 C 144.449 282.135,143.976 281.600,150.849 281.600 C 154.283 281.600,156.400 281.753,156.400 282.000 C 156.400 282.251,153.867 282.400,149.600 282.400 L 142.800 282.400 142.800 275.267 C 142.800 271.343,142.924 268.010,143.075 267.858 C 143.955 266.978,144.207 268.274,144.311 274.205 M170.410 273.232 C 170.710 280.881,171.481 281.800,177.600 281.800 C 183.765 281.800,184.800 280.469,184.800 272.540 C 184.800 268.416,184.899 267.600,185.400 267.600 C 186.496 267.600,186.258 278.764,185.131 280.196 C 182.313 283.780,172.887 283.780,170.069 280.196 C 169.026 278.872,168.687 267.364,169.700 267.699 C 170.052 267.816,170.262 269.449,170.410 273.232 M215.200 267.950 C 215.200 268.142,213.655 268.381,211.767 268.480 C 207.450 268.706,207.614 268.407,207.606 276.100 C 207.601 281.431,207.508 282.400,207.000 282.400 C 206.493 282.400,206.400 281.453,206.400 276.276 C 206.400 268.587,206.442 268.662,202.036 268.462 C 195.648 268.172,198.942 267.600,207.000 267.600 C 211.510 267.600,215.200 267.757,215.200 267.950 M229.200 275.000 C 229.200 281.311,229.112 282.400,228.600 282.400 C 228.088 282.400,228.000 281.311,228.000 275.000 C 228.000 268.689,228.088 267.600,228.600 267.600 C 229.112 267.600,229.200 268.689,229.200 275.000 M284.043 273.266 C 286.989 276.383,289.638 279.173,289.929 279.466 C 291.836 281.392,292.400 280.005,292.400 273.391 C 292.400 270.260,292.566 267.945,292.800 267.800 C 293.061 267.639,293.200 270.138,293.200 275.002 L 293.200 282.451 292.086 282.325 C 291.239 282.230,289.624 280.761,285.355 276.200 C 277.715 268.040,277.615 268.046,277.606 276.700 C 277.601 281.497,277.505 282.400,277.000 282.400 C 276.370 282.400,276.051 268.482,276.667 267.867 C 277.627 266.907,278.939 267.867,284.043 273.266 M116.086 268.735 C 110.280 270.799,108.999 276.082,113.374 279.924 C 118.390 284.327,127.400 281.189,127.400 275.040 C 127.400 270.089,121.511 266.807,116.086 268.735 M250.600 268.355 C 244.526 269.930,242.548 275.911,246.824 279.774 C 252.317 284.736,262.135 280.721,260.996 273.978 C 260.338 270.084,255.022 267.209,250.600 268.355 M257.212 270.206 C 259.156 271.211,260.072 273.025,259.889 275.503 C 259.358 282.689,246.387 282.850,245.698 275.679 C 245.183 270.322,251.568 267.287,257.212 270.206 M123.071 270.034 C 127.271 272.068,127.787 276.691,124.126 279.484 C 122.167 280.978,116.400 281.154,114.554 279.775 C 107.750 274.695,115.170 266.209,123.071 270.034 " stroke="none" fill="#989a9d" fill-rule="evenodd"></path><path id="path3" d="M172.429 121.054 C 171.973 121.634,171.607 122.309,171.616 122.554 C 171.625 122.799,171.906 122.495,172.240 121.878 C 172.575 121.261,173.243 120.598,173.724 120.404 C 174.366 120.145,174.421 120.044,173.929 120.025 C 173.560 120.011,172.885 120.474,172.429 121.054 M181.600 122.550 C 181.600 122.658,183.337 123.684,185.459 124.832 C 191.248 127.962,190.800 126.944,190.800 136.976 C 190.800 146.855,191.001 146.440,187.017 144.781 C 185.363 144.093,183.783 143.621,183.505 143.733 C 183.174 143.867,183.222 143.948,183.644 143.968 C 183.998 143.986,185.623 144.617,187.254 145.371 C 188.886 146.125,190.757 146.800,191.411 146.871 L 192.600 147.000 192.713 138.600 C 192.845 128.812,192.862 128.917,190.904 127.551 C 189.134 126.316,181.600 122.267,181.600 122.550 M228.799 131.100 C 229.322 131.815,229.813 132.400,229.889 132.400 C 230.193 132.400,229.201 130.900,228.545 130.367 C 228.113 130.016,228.210 130.296,228.799 131.100 M207.200 145.545 L 207.200 154.706 209.700 156.297 C 219.943 162.815,223.874 163.518,225.946 159.199 C 226.786 157.448,226.691 157.541,224.977 160.148 C 223.354 162.620,216.500 160.867,211.378 156.671 L 210.000 155.542 210.000 146.919 L 210.000 138.295 211.300 138.545 C 212.015 138.682,213.122 138.912,213.759 139.055 C 214.579 139.240,214.836 139.182,214.636 138.858 C 214.480 138.606,214.018 138.400,213.610 138.400 C 213.201 138.400,212.086 138.068,211.133 137.663 C 210.180 137.258,208.905 136.804,208.300 136.655 L 207.200 136.385 207.200 145.545 M163.309 140.000 C 163.309 140.990,163.387 141.395,163.482 140.900 C 163.578 140.405,163.578 139.595,163.482 139.100 C 163.387 138.605,163.309 139.010,163.309 140.000 M232.481 146.209 C 232.002 147.194,231.694 148.000,231.797 148.000 C 232.068 148.000,233.684 144.751,233.503 144.570 C 233.419 144.486,232.959 145.224,232.481 146.209 M230.000 150.800 C 229.334 152.120,228.878 153.200,228.988 153.200 C 229.098 153.200,229.734 152.120,230.400 150.800 C 231.066 149.480,231.522 148.400,231.412 148.400 C 231.302 148.400,230.666 149.480,230.000 150.800 M66.667 214.267 C 66.520 214.413,66.403 214.728,66.406 214.967 C 66.409 215.205,66.589 215.130,66.804 214.800 C 67.121 214.314,67.905 214.925,70.911 218.000 C 72.955 220.090,79.959 227.266,86.476 233.947 C 93.317 240.961,98.509 245.980,98.762 245.823 C 99.055 245.642,99.172 243.476,99.116 239.276 L 99.032 233.000 98.816 239.200 C 98.697 242.610,98.453 245.367,98.274 245.326 C 97.947 245.252,77.692 224.644,71.109 217.688 C 67.705 214.092,67.217 213.716,66.667 214.267 M134.900 214.291 C 135.725 214.378,137.075 214.378,137.900 214.291 C 138.725 214.205,138.050 214.134,136.400 214.134 C 134.750 214.134,134.075 214.205,134.900 214.291 M291.356 215.443 C 291.024 216.237,290.836 216.969,290.937 217.070 C 291.038 217.171,291.328 216.623,291.583 215.853 C 291.837 215.082,292.260 214.364,292.522 214.257 C 292.865 214.118,292.852 214.054,292.480 214.032 C 292.193 214.014,291.688 214.649,291.356 215.443 M293.878 215.395 C 294.244 216.162,294.614 216.719,294.701 216.632 C 294.884 216.449,293.670 214.000,293.396 214.000 C 293.295 214.000,293.512 214.628,293.878 215.395 M333.900 214.289 C 334.615 214.378,335.785 214.378,336.500 214.289 C 337.215 214.201,336.630 214.128,335.200 214.128 C 333.770 214.128,333.185 214.201,333.900 214.289 M130.900 214.676 C 131.285 214.776,131.915 214.776,132.300 214.676 C 132.685 214.575,132.370 214.493,131.600 214.493 C 130.830 214.493,130.515 214.575,130.900 214.676 M140.500 214.676 C 140.885 214.776,141.515 214.776,141.900 214.676 C 142.285 214.575,141.970 214.493,141.200 214.493 C 140.430 214.493,140.115 214.575,140.500 214.676 M237.280 214.880 C 237.016 215.144,236.813 215.639,236.828 215.980 C 236.848 216.408,236.953 216.353,237.168 215.800 C 237.339 215.360,238.002 214.886,238.640 214.747 C 239.751 214.505,239.757 214.493,238.780 214.447 C 238.219 214.421,237.544 214.616,237.280 214.880 M338.900 214.676 C 339.285 214.776,339.915 214.776,340.300 214.676 C 340.685 214.575,340.370 214.493,339.600 214.493 C 338.830 214.493,338.515 214.575,338.900 214.676 M93.820 215.167 C 93.695 215.370,94.180 215.657,94.897 215.807 C 95.613 215.956,96.650 216.342,97.200 216.663 L 98.200 217.247 97.300 216.460 C 95.930 215.260,96.088 215.200,100.600 215.200 C 104.941 215.200,105.357 215.372,104.000 216.600 C 103.560 216.998,103.200 217.500,103.200 217.716 C 103.200 217.932,103.555 217.657,103.988 217.106 C 104.421 216.556,105.333 215.993,106.014 215.857 C 106.704 215.719,107.142 215.430,107.003 215.205 C 106.686 214.692,94.136 214.656,93.820 215.167 M143.600 215.200 C 144.968 215.638,146.019 215.638,145.000 215.200 C 144.560 215.011,143.840 214.862,143.400 214.868 C 142.757 214.877,142.796 214.943,143.600 215.200 M159.812 215.181 C 159.682 215.391,160.278 215.752,161.136 215.983 C 163.325 216.572,164.477 217.603,165.581 219.960 C 166.106 221.081,166.607 221.926,166.695 221.839 C 166.782 221.751,166.398 220.779,165.840 219.679 C 164.906 217.835,164.111 216.985,162.143 215.724 C 161.550 215.343,162.675 215.242,167.723 215.224 L 174.045 215.200 173.352 216.374 C 172.724 217.437,173.145 221.389,173.815 220.719 C 173.902 220.631,173.775 219.909,173.531 219.115 C 172.966 217.273,173.286 216.468,174.794 215.942 C 175.457 215.711,175.899 215.360,175.776 215.161 C 175.474 214.673,160.114 214.692,159.812 215.181 M192.597 215.205 C 192.458 215.429,192.889 215.718,193.565 215.853 C 195.381 216.216,195.815 216.937,195.275 218.696 C 195.028 219.501,194.898 220.231,194.985 220.319 C 195.597 220.930,196.068 217.138,195.463 216.470 C 194.389 215.283,194.607 215.200,198.800 215.200 C 202.748 215.200,203.626 215.530,202.000 216.400 C 201.219 216.818,198.804 220.605,198.811 221.400 C 198.813 221.620,199.358 220.810,200.021 219.600 C 201.367 217.147,202.424 216.175,204.114 215.837 C 206.888 215.282,204.417 214.800,198.800 214.800 C 195.217 214.800,192.748 214.961,192.597 215.205 M213.397 215.205 C 213.258 215.429,213.684 215.717,214.353 215.851 C 217.069 216.394,216.978 215.765,217.208 235.542 L 217.416 253.400 217.508 235.714 L 217.600 218.028 216.359 216.614 L 215.117 215.200 220.828 215.200 L 226.539 215.200 225.570 216.297 C 224.912 217.041,224.857 217.187,225.400 216.751 C 225.840 216.397,226.702 215.988,227.316 215.842 C 227.930 215.696,228.325 215.402,228.193 215.188 C 227.864 214.657,213.726 214.672,213.397 215.205 M247.900 215.100 C 252.355 215.164,259.645 215.164,264.100 215.100 C 268.555 215.035,264.910 214.982,256.000 214.982 C 247.090 214.982,243.445 215.035,247.900 215.100 M341.900 215.212 C 342.740 215.550,342.800 215.814,342.800 219.187 C 342.800 223.015,342.473 223.665,341.669 221.439 C 341.398 220.691,340.890 219.841,340.540 219.550 C 340.107 219.191,340.175 219.467,340.750 220.411 C 341.216 221.175,341.598 222.104,341.599 222.476 C 341.601 223.393,342.407 223.832,342.839 223.151 C 344.022 221.283,343.068 214.766,341.620 214.825 C 341.240 214.841,341.348 214.991,341.900 215.212 M125.700 215.989 C 124.765 216.414,124.000 216.850,124.000 216.958 C 124.000 217.066,124.765 216.826,125.700 216.424 C 126.635 216.022,127.670 215.597,128.000 215.478 C 128.533 215.287,128.533 215.261,128.000 215.240 C 127.670 215.228,126.635 215.565,125.700 215.989 M327.000 215.938 C 325.542 216.830,322.799 219.811,322.801 220.501 C 322.802 220.776,323.140 220.460,323.551 219.800 C 324.480 218.308,326.224 216.693,327.800 215.864 C 328.460 215.516,328.820 215.225,328.600 215.218 C 328.380 215.210,327.660 215.534,327.000 215.938 M66.177 227.400 C 66.177 234.000,66.232 236.756,66.299 233.525 C 66.366 230.293,66.366 224.893,66.299 221.525 C 66.232 218.156,66.177 220.800,66.177 227.400 M146.033 215.752 C 146.441 216.124,150.400 217.993,150.400 217.813 C 150.400 217.588,146.580 215.600,146.147 215.600 C 145.993 215.600,145.942 215.668,146.033 215.752 M273.701 217.000 C 273.705 217.880,273.787 218.193,273.883 217.695 C 273.979 217.198,273.975 216.478,273.875 216.095 C 273.775 215.713,273.696 216.120,273.701 217.000 M333.505 216.683 C 334.002 216.779,334.722 216.775,335.105 216.675 C 335.487 216.575,335.080 216.496,334.200 216.501 C 333.320 216.505,333.007 216.587,333.505 216.683 M129.800 217.386 C 128.259 218.091,128.526 218.096,131.000 217.409 C 132.211 217.073,132.606 216.850,132.000 216.845 C 131.450 216.840,130.460 217.083,129.800 217.386 M336.800 217.082 C 337.130 217.202,337.985 217.652,338.700 218.083 C 339.415 218.513,340.000 218.758,340.000 218.627 C 340.000 218.233,337.445 216.801,336.800 216.833 C 336.267 216.860,336.267 216.887,336.800 217.082 M121.748 218.339 C 118.026 221.035,114.246 226.967,113.806 230.800 C 113.617 232.445,113.651 232.398,114.201 230.254 C 115.368 225.703,119.124 220.305,122.800 217.897 C 123.350 217.537,123.692 217.233,123.560 217.221 C 123.428 217.209,122.612 217.713,121.748 218.339 M294.828 217.400 C 294.828 217.620,295.086 218.250,295.400 218.800 C 295.714 219.350,295.972 219.620,295.972 219.400 C 295.972 219.180,295.714 218.550,295.400 218.000 C 295.086 217.450,294.828 217.180,294.828 217.400 M249.000 217.797 C 249.220 217.870,249.895 218.039,250.500 218.173 C 251.163 218.319,251.613 218.691,251.632 219.108 C 251.655 219.622,251.721 219.655,251.887 219.235 C 252.181 218.491,250.912 217.592,249.624 217.632 C 249.061 217.649,248.780 217.723,249.000 217.797 M260.500 217.876 C 260.885 217.976,261.515 217.976,261.900 217.876 C 262.285 217.775,261.970 217.693,261.200 217.693 C 260.430 217.693,260.115 217.775,260.500 217.876 M290.065 218.617 C 289.395 220.088,289.523 220.402,290.247 219.065 C 290.586 218.440,290.788 217.854,290.696 217.763 C 290.605 217.671,290.321 218.056,290.065 218.617 M328.636 218.831 C 328.066 219.508,327.611 220.363,327.625 220.731 C 327.642 221.162,327.792 221.045,328.049 220.400 C 328.269 219.850,328.829 218.995,329.294 218.500 C 329.759 218.005,330.034 217.600,329.905 217.600 C 329.776 217.600,329.205 218.154,328.636 218.831 M152.854 220.048 C 154.093 221.254,155.659 223.312,156.334 224.621 C 157.009 225.929,157.570 226.858,157.581 226.684 C 157.664 225.322,154.348 220.654,152.110 218.982 C 151.042 218.184,151.260 218.496,152.854 220.048 M241.700 218.291 C 242.525 218.378,243.875 218.378,244.700 218.291 C 245.525 218.205,244.850 218.134,243.200 218.134 C 241.550 218.134,240.875 218.205,241.700 218.291 M266.105 218.287 C 266.714 218.379,267.614 218.377,268.105 218.282 C 268.597 218.187,268.100 218.111,267.000 218.114 C 265.900 218.117,265.497 218.195,266.105 218.287 M102.959 224.000 C 102.959 227.190,103.021 228.495,103.097 226.900 C 103.173 225.305,103.173 222.695,103.097 221.100 C 103.021 219.505,102.959 220.810,102.959 224.000 M125.699 219.808 C 124.100 221.177,121.581 225.472,121.619 226.764 C 121.629 227.114,121.967 226.556,122.370 225.525 C 123.435 222.802,124.634 221.013,126.317 219.638 C 127.133 218.972,127.697 218.421,127.572 218.413 C 127.447 218.406,126.604 219.033,125.699 219.808 M238.770 218.913 C 238.423 219.181,237.793 219.934,237.370 220.586 L 236.600 221.772 236.353 220.386 L 236.105 219.000 236.053 220.500 C 235.986 222.407,236.146 222.384,238.180 220.200 C 239.809 218.450,240.052 217.922,238.770 218.913 M98.558 224.200 C 98.558 227.280,98.621 228.487,98.697 226.882 C 98.773 225.278,98.773 222.758,98.696 221.282 C 98.619 219.807,98.557 221.120,98.558 224.200 M271.853 219.980 C 272.102 220.321,272.429 221.005,272.580 221.500 C 272.988 222.841,273.607 222.587,273.554 221.100 C 273.528 220.385,273.426 220.111,273.326 220.490 C 273.165 221.105,273.050 221.081,272.273 220.271 C 271.793 219.770,271.604 219.640,271.853 219.980 M146.077 222.036 C 147.025 223.266,148.028 224.616,148.306 225.036 C 148.596 225.475,148.570 225.288,148.245 224.596 C 147.933 223.933,146.931 222.583,146.017 221.596 L 144.355 219.800 146.077 222.036 M224.182 235.400 C 224.182 243.980,224.235 247.433,224.300 243.074 C 224.364 238.714,224.364 231.694,224.299 227.474 C 224.235 223.253,224.182 226.820,224.182 235.400 M296.229 220.800 C 296.376 221.350,296.664 222.070,296.867 222.400 C 297.125 222.817,297.157 222.695,296.971 222.000 C 296.824 221.450,296.536 220.730,296.333 220.400 C 296.075 219.983,296.043 220.105,296.229 220.800 M288.844 221.644 C 288.598 222.351,288.466 223.000,288.552 223.085 C 288.638 223.171,288.909 222.662,289.156 221.956 C 289.402 221.249,289.534 220.600,289.448 220.515 C 289.362 220.429,289.091 220.938,288.844 221.644 M166.828 222.492 C 166.782 222.965,168.086 226.048,168.258 225.875 C 168.345 225.788,168.066 224.925,167.637 223.958 C 167.208 222.991,166.844 222.331,166.828 222.492 M174.654 223.200 C 174.789 223.750,175.145 224.740,175.445 225.400 C 175.884 226.364,175.943 226.403,175.746 225.600 C 175.611 225.050,175.255 224.060,174.955 223.400 C 174.516 222.436,174.457 222.397,174.654 223.200 M322.128 224.800 C 322.128 226.230,322.201 226.815,322.289 226.100 C 322.378 225.385,322.378 224.215,322.289 223.500 C 322.201 222.785,322.128 223.370,322.128 224.800 M297.218 223.249 C 297.208 223.385,297.653 224.465,298.206 225.649 C 298.760 226.832,299.097 227.350,298.955 226.800 C 298.687 225.756,297.248 222.816,297.218 223.249 M287.665 224.617 C 286.995 226.088,287.123 226.402,287.847 225.065 C 288.186 224.440,288.388 223.854,288.296 223.763 C 288.205 223.671,287.921 224.056,287.665 224.617 M327.616 223.920 C 327.587 224.884,328.724 226.590,330.467 228.200 L 332.200 229.799 330.520 228.000 C 329.596 227.010,328.568 225.570,328.235 224.800 C 327.903 224.030,327.624 223.634,327.616 223.920 M196.875 225.819 C 195.670 228.300,195.805 228.647,197.046 226.261 C 197.601 225.194,197.987 224.253,197.903 224.170 C 197.819 224.086,197.357 224.828,196.875 225.819 M290.423 227.154 C 289.970 228.042,289.608 228.910,289.618 229.084 C 289.627 229.258,289.992 228.725,290.427 227.900 C 291.245 226.350,291.786 226.034,292.135 226.900 C 292.262 227.214,292.349 227.232,292.368 226.949 C 292.472 225.474,291.213 225.607,290.423 227.154 M192.065 227.017 C 191.395 228.488,191.523 228.802,192.247 227.465 C 192.586 226.840,192.788 226.254,192.696 226.163 C 192.605 226.071,192.321 226.456,192.065 227.017 M69.843 226.691 C 69.448 227.085,69.566 227.668,69.988 227.407 C 70.201 227.275,77.164 234.023,85.460 242.402 C 100.296 257.387,101.870 258.746,102.239 256.890 C 102.294 256.610,102.249 256.565,102.137 256.790 C 101.539 257.995,99.429 256.120,85.291 241.824 C 76.928 233.367,69.976 226.557,69.843 226.691 M286.444 227.644 C 286.198 228.351,286.066 229.000,286.152 229.085 C 286.238 229.171,286.509 228.662,286.756 227.956 C 287.002 227.249,287.134 226.600,287.048 226.515 C 286.962 226.429,286.691 226.938,286.444 227.644 M299.228 228.092 C 299.182 228.565,300.486 231.648,300.658 231.475 C 300.745 231.388,300.466 230.525,300.037 229.558 C 299.608 228.591,299.244 227.931,299.228 228.092 M194.875 230.219 C 193.670 232.700,193.805 233.047,195.046 230.661 C 195.601 229.594,195.987 228.653,195.903 228.570 C 195.819 228.486,195.357 229.228,194.875 230.219 M177.054 229.600 C 177.189 230.150,177.545 231.140,177.845 231.800 C 178.284 232.764,178.343 232.803,178.146 232.000 C 178.011 231.450,177.655 230.460,177.355 229.800 C 176.916 228.836,176.857 228.797,177.054 229.600 M190.844 230.044 C 190.598 230.751,190.466 231.400,190.552 231.485 C 190.638 231.571,190.909 231.062,191.156 230.356 C 191.402 229.649,191.534 229.000,191.448 228.915 C 191.362 228.829,191.091 229.338,190.844 230.044 M169.623 229.326 C 169.589 229.814,171.285 233.648,171.459 233.474 C 171.542 233.392,171.168 232.351,170.628 231.162 C 170.088 229.973,169.636 229.147,169.623 229.326 M158.493 230.800 C 158.493 231.570,158.575 231.885,158.676 231.500 C 158.776 231.115,158.776 230.485,158.676 230.100 C 158.575 229.715,158.493 230.030,158.493 230.800 M288.646 231.446 C 288.292 232.485,288.072 233.405,288.156 233.490 C 288.241 233.574,288.600 232.793,288.954 231.754 C 289.308 230.715,289.528 229.795,289.444 229.710 C 289.359 229.626,289.000 230.407,288.646 231.446 M293.429 230.400 C 293.576 230.950,293.864 231.670,294.067 232.000 C 294.325 232.417,294.357 232.295,294.171 231.600 C 294.024 231.050,293.736 230.330,293.533 230.000 C 293.275 229.583,293.243 229.705,293.429 230.400 M332.544 229.909 C 332.860 230.421,335.200 232.153,335.200 231.875 C 335.200 231.776,334.539 231.191,333.732 230.575 C 332.924 229.959,332.389 229.659,332.544 229.909 M69.757 235.200 C 69.757 238.170,69.820 239.385,69.897 237.900 C 69.974 236.415,69.974 233.985,69.897 232.500 C 69.820 231.015,69.757 232.230,69.757 235.200 M120.950 234.200 C 120.951 236.620,121.016 237.558,121.096 236.285 C 121.176 235.012,121.175 233.032,121.094 231.885 C 121.014 230.738,120.949 231.780,120.950 234.200 M324.718 232.600 C 325.766 234.139,328.267 236.502,331.800 239.291 C 334.981 241.801,335.963 242.811,337.157 244.800 C 337.619 245.570,337.998 246.015,337.999 245.789 C 338.003 244.547,335.487 241.829,330.908 238.130 C 328.878 236.489,326.471 234.304,325.559 233.273 C 324.647 232.243,324.269 231.940,324.718 232.600 M150.893 233.200 C 150.893 233.970,150.975 234.285,151.076 233.900 C 151.176 233.515,151.176 232.885,151.076 232.500 C 150.975 232.115,150.893 232.430,150.893 233.200 M338.291 234.600 C 339.669 235.920,341.428 238.069,342.199 239.376 C 342.969 240.684,343.600 241.566,343.600 241.338 C 343.600 240.597,340.541 236.232,339.153 234.992 C 336.376 232.513,335.870 232.282,338.291 234.600 M158.931 235.000 C 158.933 236.540,159.005 237.121,159.092 236.291 C 159.179 235.461,159.177 234.201,159.089 233.491 C 159.000 232.781,158.929 233.460,158.931 235.000 M113.340 236.000 C 113.340 237.870,113.409 238.635,113.493 237.700 C 113.577 236.765,113.577 235.235,113.493 234.300 C 113.409 233.365,113.340 234.130,113.340 236.000 M193.265 233.817 C 192.595 235.288,192.723 235.602,193.447 234.265 C 193.786 233.640,193.988 233.054,193.896 232.963 C 193.805 232.871,193.521 233.256,193.265 233.817 M301.829 234.800 C 301.976 235.350,302.264 236.070,302.467 236.400 C 302.725 236.817,302.757 236.695,302.571 236.000 C 302.424 235.450,302.136 234.730,301.933 234.400 C 301.675 233.983,301.643 234.105,301.829 234.800 M102.570 242.800 C 102.570 247.530,102.628 249.465,102.698 247.100 C 102.769 244.735,102.769 240.865,102.698 238.500 C 102.628 236.135,102.570 238.070,102.570 242.800 M283.244 235.644 C 282.998 236.351,282.866 237.000,282.952 237.085 C 283.038 237.171,283.309 236.662,283.556 235.956 C 283.802 235.249,283.934 234.600,283.848 234.515 C 283.762 234.429,283.491 234.938,283.244 235.644 M188.444 236.044 C 188.198 236.751,188.066 237.400,188.152 237.485 C 188.238 237.571,188.509 237.062,188.756 236.356 C 189.002 235.649,189.134 235.000,189.048 234.915 C 188.962 234.829,188.691 235.338,188.444 236.044 M191.675 237.419 C 190.470 239.900,190.605 240.247,191.846 237.861 C 192.401 236.794,192.787 235.853,192.703 235.770 C 192.619 235.686,192.157 236.428,191.675 237.419 M286.403 237.390 C 285.577 239.895,285.777 240.000,291.400 240.000 C 296.828 240.000,297.384 239.768,296.485 237.878 C 296.097 237.063,296.071 237.086,296.133 238.200 L 296.200 239.400 291.492 239.513 C 286.332 239.636,286.005 239.491,286.795 237.414 C 287.030 236.795,287.145 236.212,287.051 236.118 C 286.957 236.023,286.665 236.596,286.403 237.390 M282.065 238.617 C 281.395 240.088,281.523 240.402,282.247 239.065 C 282.586 238.440,282.788 237.854,282.696 237.763 C 282.605 237.671,282.321 238.056,282.065 238.617 M158.493 239.200 C 158.493 239.970,158.575 240.285,158.676 239.900 C 158.776 239.515,158.776 238.885,158.676 238.500 C 158.575 238.115,158.493 238.430,158.493 239.200 M173.228 238.200 C 173.228 238.420,173.486 239.050,173.800 239.600 C 174.114 240.150,174.372 240.420,174.372 240.200 C 174.372 239.980,174.114 239.350,173.800 238.800 C 173.486 238.250,173.228 237.980,173.228 238.200 M303.360 238.600 C 304.435 241.589,306.943 247.590,307.066 247.467 C 307.239 247.295,303.687 238.338,303.318 238.015 C 303.183 237.897,303.202 238.160,303.360 238.600 M150.901 241.400 C 150.905 242.280,150.987 242.593,151.083 242.095 C 151.179 241.598,151.175 240.878,151.075 240.495 C 150.975 240.113,150.896 240.520,150.901 241.400 M186.250 241.591 C 185.347 243.847,185.487 244.183,186.437 242.042 C 186.866 241.075,187.145 240.212,187.058 240.125 C 186.971 240.038,186.608 240.698,186.250 241.591 M280.844 241.644 C 280.598 242.351,280.466 243.000,280.552 243.085 C 280.638 243.171,280.909 242.662,281.156 241.956 C 281.402 241.249,281.534 240.600,281.448 240.515 C 281.362 240.429,281.091 240.938,280.844 241.644 M157.680 242.280 C 157.088 244.209,157.375 244.495,158.000 242.600 C 158.264 241.801,158.402 241.069,158.307 240.974 C 158.212 240.878,157.930 241.466,157.680 242.280 M121.656 241.600 C 121.656 241.930,121.811 242.560,122.000 243.000 C 122.217 243.504,122.344 243.578,122.344 243.200 C 122.344 242.870,122.189 242.240,122.000 241.800 C 121.783 241.296,121.656 241.222,121.656 241.600 M189.072 243.419 C 188.132 245.389,188.264 245.724,189.247 243.862 C 189.693 243.016,189.987 242.254,189.901 242.167 C 189.814 242.081,189.441 242.644,189.072 243.419 M297.260 242.668 C 297.624 242.765,298.143 243.379,298.414 244.035 C 298.686 244.690,298.987 245.147,299.083 245.050 C 299.482 244.651,297.934 242.403,297.290 242.446 C 296.675 242.488,296.671 242.512,297.260 242.668 M70.150 247.000 C 70.151 249.420,70.216 250.358,70.296 249.085 C 70.376 247.812,70.375 245.832,70.294 244.685 C 70.214 243.538,70.149 244.580,70.150 247.000 M182.433 243.713 C 182.368 244.330,183.567 246.800,183.931 246.800 C 184.466 246.800,185.064 245.954,185.347 244.800 C 185.516 244.108,185.405 244.207,184.987 245.118 C 184.303 246.611,183.824 246.502,183.021 244.669 C 182.715 243.971,182.451 243.541,182.433 243.713 M279.665 244.617 C 278.995 246.088,279.123 246.402,279.847 245.065 C 280.186 244.440,280.388 243.854,280.296 243.763 C 280.205 243.671,279.921 244.056,279.665 244.617 M344.124 245.800 C 344.126 247.120,344.201 247.612,344.290 246.893 C 344.379 246.174,344.377 245.094,344.286 244.493 C 344.195 243.892,344.122 244.480,344.124 245.800 M122.400 244.153 C 122.400 244.582,123.590 246.800,123.821 246.800 C 123.931 246.800,123.723 246.215,123.359 245.500 C 122.617 244.040,122.400 243.736,122.400 244.153 M156.081 246.209 C 155.602 247.194,155.294 248.000,155.397 248.000 C 155.668 248.000,157.284 244.751,157.103 244.570 C 157.019 244.486,156.559 245.224,156.081 246.209 M283.046 246.246 C 282.692 247.285,282.472 248.205,282.556 248.290 C 282.641 248.374,283.000 247.593,283.354 246.554 C 283.708 245.515,283.928 244.595,283.844 244.510 C 283.759 244.426,283.400 245.207,283.046 246.246 M65.751 249.200 C 65.751 251.730,65.816 252.765,65.896 251.500 C 65.975 250.235,65.975 248.165,65.896 246.900 C 65.816 245.635,65.751 246.670,65.751 249.200 M114.800 244.962 C 114.800 245.375,116.831 248.800,117.076 248.800 C 117.186 248.800,116.783 247.945,116.179 246.900 C 114.930 244.736,114.800 244.553,114.800 244.962 M176.028 245.000 C 176.028 245.220,176.286 245.850,176.600 246.400 C 176.914 246.950,177.172 247.220,177.172 247.000 C 177.172 246.780,176.914 246.150,176.600 245.600 C 176.286 245.050,176.028 244.780,176.028 245.000 M187.665 246.617 C 186.995 248.088,187.123 248.402,187.847 247.065 C 188.186 246.440,188.388 245.854,188.296 245.763 C 188.205 245.671,187.921 246.056,187.665 246.617 M251.742 249.800 C 251.741 251.780,251.808 252.640,251.892 251.712 C 251.976 250.784,251.977 249.164,251.895 248.112 C 251.812 247.060,251.743 247.820,251.742 249.800 M321.043 247.033 C 320.094 249.506,320.947 256.824,322.180 256.788 C 322.411 256.781,322.285 256.592,321.900 256.368 C 321.301 256.019,321.200 255.331,321.200 251.604 C 321.200 247.684,321.581 245.926,322.134 247.298 C 322.256 247.601,322.349 247.522,322.368 247.100 C 322.408 246.227,321.372 246.175,321.043 247.033 M124.226 247.600 C 125.436 249.959,130.604 254.400,132.138 254.400 C 132.366 254.400,131.484 253.765,130.176 252.989 C 127.825 251.593,127.281 251.104,125.059 248.392 C 124.432 247.627,124.057 247.270,124.226 247.600 M148.678 248.605 C 148.312 249.372,148.095 250.000,148.196 250.000 C 148.470 250.000,149.684 247.551,149.501 247.368 C 149.414 247.281,149.044 247.838,148.678 248.605 M177.429 248.400 C 177.576 248.950,177.864 249.670,178.067 250.000 C 178.325 250.417,178.357 250.295,178.171 249.600 C 178.024 249.050,177.736 248.330,177.533 248.000 C 177.275 247.583,177.243 247.705,177.429 248.400 M307.228 248.200 C 307.228 248.420,307.486 249.050,307.800 249.600 C 308.114 250.150,308.372 250.420,308.372 250.200 C 308.372 249.980,308.114 249.350,307.800 248.800 C 307.486 248.250,307.228 247.980,307.228 248.200 M322.413 248.513 C 322.363 251.256,325.868 255.241,328.280 255.182 C 328.676 255.173,328.295 254.914,327.433 254.607 C 325.288 253.842,324.043 252.481,323.167 249.945 C 322.759 248.765,322.420 248.121,322.413 248.513 M152.800 250.758 C 151.590 252.029,150.060 253.469,149.400 253.957 C 148.740 254.445,148.560 254.672,149.000 254.461 C 150.157 253.907,153.444 250.942,154.419 249.573 C 155.605 247.907,155.301 248.130,152.800 250.758 M258.931 251.000 C 258.933 252.540,259.005 253.121,259.092 252.291 C 259.179 251.461,259.177 250.201,259.089 249.491 C 259.000 248.781,258.929 249.460,258.931 251.000 M277.467 250.067 C 277.105 250.988,276.874 251.807,276.954 251.888 C 277.034 251.968,277.400 251.283,277.767 250.367 C 278.133 249.450,278.364 248.631,278.279 248.546 C 278.194 248.461,277.829 249.145,277.467 250.067 M118.141 250.471 C 119.766 252.625,125.647 256.886,126.213 256.320 C 126.290 256.243,125.357 255.660,124.141 255.023 C 122.924 254.386,120.827 252.770,119.480 251.432 C 117.879 249.842,117.416 249.509,118.141 250.471 M342.874 250.998 C 342.623 251.548,341.649 252.839,340.709 253.865 C 339.429 255.264,339.271 255.557,340.079 255.034 C 341.168 254.329,343.862 250.528,343.516 250.183 C 343.414 250.081,343.125 250.447,342.874 250.998 M146.378 251.900 L 145.000 253.400 146.500 252.022 C 147.896 250.738,148.184 250.400,147.878 250.400 C 147.812 250.400,147.137 251.075,146.378 251.900 M309.677 253.132 C 310.227 254.182,311.216 255.243,312.192 255.828 L 313.800 256.792 308.068 256.796 L 302.336 256.800 302.570 255.500 C 302.781 254.329,302.763 254.297,302.388 255.174 C 301.566 257.095,301.895 257.200,308.764 257.200 C 315.306 257.200,316.936 256.831,313.842 256.052 C 312.199 255.639,310.865 254.500,309.285 252.162 C 309.002 251.743,309.178 252.179,309.677 253.132 M224.446 252.926 C 224.381 254.510,225.056 255.575,226.531 256.217 C 227.680 256.717,227.201 256.770,221.442 256.784 L 215.083 256.800 216.142 255.819 C 216.724 255.280,217.189 254.515,217.175 254.119 C 217.153 253.495,217.106 253.507,216.819 254.214 C 216.393 255.267,215.665 255.826,214.300 256.152 C 213.695 256.297,213.200 256.592,213.200 256.808 C 213.200 257.306,229.464 257.343,229.772 256.845 C 230.007 256.465,228.722 256.014,227.376 256.005 C 226.048 255.997,225.117 255.046,224.794 253.367 C 224.545 252.078,224.484 251.999,224.446 252.926 M335.906 253.411 C 334.390 254.821,334.320 255.358,335.817 254.091 C 336.658 253.380,337.814 251.992,337.549 252.011 C 337.467 252.017,336.728 252.647,335.906 253.411 M275.804 253.593 C 275.171 254.816,273.845 255.685,271.900 256.151 C 269.131 256.816,271.147 257.200,277.400 257.200 C 281.533 257.200,284.000 257.051,284.000 256.800 C 284.000 256.580,283.775 256.399,283.500 256.398 C 283.225 256.396,282.471 256.119,281.824 255.782 C 280.651 255.170,280.650 255.171,281.386 255.984 L 282.124 256.800 277.462 256.800 C 272.260 256.800,272.257 256.799,274.175 255.668 C 275.326 254.989,277.263 252.400,276.621 252.400 C 276.511 252.400,276.143 252.937,275.804 253.593 M143.816 253.679 C 143.384 253.930,142.304 254.362,141.416 254.640 C 140.527 254.919,140.160 255.155,140.600 255.164 C 141.448 255.184,144.800 253.791,144.800 253.420 C 144.800 253.129,144.734 253.146,143.816 253.679 M251.039 254.586 C 250.856 255.316,250.378 255.683,249.196 256.001 C 245.886 256.892,247.631 257.200,256.000 257.200 C 260.620 257.200,264.400 257.041,264.400 256.847 C 264.400 256.446,263.028 256.014,261.729 256.005 C 261.250 256.002,260.485 255.526,260.029 254.946 C 259.573 254.366,259.203 254.051,259.206 254.246 C 259.218 254.911,259.818 255.553,261.009 256.174 C 262.132 256.759,261.834 256.795,255.842 256.798 L 249.483 256.800 250.542 255.819 C 251.124 255.280,251.600 254.560,251.600 254.219 C 251.600 253.289,251.318 253.474,251.039 254.586 M64.717 254.965 C 64.328 255.500,63.420 256.020,62.606 256.172 C 59.433 256.768,61.965 257.200,68.624 257.200 C 75.376 257.200,77.701 256.745,73.987 256.152 C 72.952 255.986,72.093 255.535,71.587 254.893 C 71.154 254.342,70.800 254.080,70.800 254.310 C 70.800 254.541,71.354 255.195,72.031 255.764 L 73.261 256.800 68.372 256.800 L 63.483 256.800 64.542 255.819 C 65.124 255.280,65.600 254.650,65.600 254.419 C 65.600 253.831,65.493 253.898,64.717 254.965 M133.400 254.781 C 134.168 255.129,136.310 255.356,135.967 255.053 C 135.875 254.972,135.080 254.796,134.200 254.662 C 133.085 254.493,132.842 254.529,133.400 254.781 M329.900 255.482 C 330.395 255.578,331.205 255.578,331.700 255.482 C 332.195 255.387,331.790 255.309,330.800 255.309 C 329.810 255.309,329.405 255.387,329.900 255.482 M337.800 256.094 C 337.360 256.353,336.190 256.785,335.200 257.055 C 334.000 257.382,333.733 257.552,334.400 257.564 C 335.400 257.582,338.800 256.234,338.800 255.820 C 338.800 255.528,338.734 255.546,337.800 256.094 M182.820 256.976 C 182.557 257.293,182.040 257.456,181.671 257.338 C 181.131 257.166,181.110 257.203,181.564 257.525 C 182.240 258.006,183.056 257.752,183.357 256.969 C 183.636 256.241,183.428 256.244,182.820 256.976 M323.400 257.200 C 323.840 257.389,324.560 257.538,325.000 257.532 C 325.643 257.523,325.604 257.457,324.800 257.200 C 323.432 256.762,322.381 256.762,323.400 257.200 M133.700 257.894 C 134.745 257.976,136.455 257.976,137.500 257.894 C 138.545 257.812,137.690 257.744,135.600 257.744 C 133.510 257.744,132.655 257.812,133.700 257.894 M328.112 257.895 C 329.164 257.977,330.784 257.976,331.712 257.892 C 332.640 257.808,331.780 257.741,329.800 257.742 C 327.820 257.743,327.060 257.812,328.112 257.895 M83.694 267.700 C 81.732 268.329,80.400 269.748,80.400 271.207 C 80.400 274.034,81.540 274.600,88.043 275.005 C 92.712 275.296,93.883 275.690,94.769 277.269 C 96.757 280.810,89.850 283.311,84.000 281.168 C 80.437 279.863,80.400 279.856,80.400 280.510 C 80.400 282.974,92.205 283.575,95.041 281.255 C 99.411 277.681,95.660 274.024,87.600 274.001 C 83.734 273.990,81.164 272.403,81.795 270.415 C 82.458 268.328,87.590 267.612,92.130 268.975 C 94.364 269.646,95.364 269.586,94.573 268.830 C 93.176 267.493,86.502 266.800,83.694 267.700 M114.200 268.345 C 105.801 272.351,109.274 282.800,119.004 282.800 C 125.216 282.800,128.600 280.055,128.600 275.015 C 128.600 268.635,120.986 265.109,114.200 268.345 M247.737 268.366 C 243.489 270.376,241.938 274.748,244.111 278.586 C 247.338 284.282,258.589 284.169,261.500 278.411 C 265.281 270.932,256.248 264.339,247.737 268.366 M310.674 267.780 C 307.759 268.819,306.496 271.066,307.750 272.981 C 308.567 274.227,310.174 274.678,314.912 274.991 C 320.668 275.372,322.000 276.032,322.000 278.504 C 322.000 281.707,316.257 282.940,310.536 280.965 C 307.527 279.927,306.313 279.962,307.794 281.045 C 311.438 283.710,320.899 283.279,322.947 280.354 C 325.452 276.778,323.002 274.721,315.431 274.044 C 310.443 273.597,309.000 272.910,309.000 270.979 C 309.000 268.407,314.225 267.410,319.295 269.016 C 321.494 269.712,322.823 269.574,321.588 268.777 C 319.292 267.295,313.513 266.767,310.674 267.780 M143.075 267.858 C 142.924 268.010,142.800 271.343,142.800 275.267 L 142.800 282.400 149.600 282.400 C 153.867 282.400,156.400 282.251,156.400 282.000 C 156.400 281.753,154.283 281.600,150.849 281.600 C 143.976 281.600,144.449 282.135,144.311 274.205 C 144.207 268.274,143.955 266.978,143.075 267.858 M169.200 273.313 C 169.200 278.639,169.268 279.179,170.069 280.196 C 172.887 283.780,182.313 283.780,185.131 280.196 C 186.258 278.764,186.496 267.600,185.400 267.600 C 184.899 267.600,184.800 268.416,184.800 272.540 C 184.800 280.469,183.765 281.800,177.600 281.800 C 171.481 281.800,170.710 280.881,170.410 273.232 C 170.101 265.343,169.200 265.403,169.200 273.313 M198.800 267.958 C 198.800 268.154,200.256 268.381,202.036 268.462 C 206.442 268.662,206.400 268.587,206.400 276.276 C 206.400 281.453,206.493 282.400,207.000 282.400 C 207.508 282.400,207.601 281.431,207.606 276.100 C 207.614 268.407,207.450 268.706,211.767 268.480 C 218.179 268.143,215.236 267.600,207.000 267.600 C 202.447 267.600,198.800 267.759,198.800 267.958 M228.000 275.000 C 228.000 281.311,228.088 282.400,228.600 282.400 C 229.112 282.400,229.200 281.311,229.200 275.000 C 229.200 268.689,229.112 267.600,228.600 267.600 C 228.088 267.600,228.000 268.689,228.000 275.000 M276.667 267.867 C 276.051 268.482,276.370 282.400,277.000 282.400 C 277.505 282.400,277.601 281.497,277.606 276.700 C 277.615 268.046,277.715 268.040,285.355 276.200 C 289.624 280.761,291.239 282.230,292.086 282.325 L 293.200 282.451 293.200 275.002 C 293.200 270.138,293.061 267.639,292.800 267.800 C 292.566 267.945,292.400 270.260,292.400 273.391 C 292.400 280.005,291.836 281.392,289.929 279.466 C 289.638 279.173,286.989 276.383,284.043 273.266 C 278.939 267.867,277.627 266.907,276.667 267.867 M123.380 269.150 C 125.932 270.279,127.400 272.429,127.400 275.040 C 127.400 281.189,118.390 284.327,113.374 279.924 C 106.573 273.953,114.628 265.279,123.380 269.150 M257.208 269.204 C 261.658 271.474,262.417 276.485,258.806 279.747 C 254.295 283.822,246.326 282.050,244.810 276.635 C 243.118 270.593,250.849 265.960,257.208 269.204 " stroke="none" fill="#848484" fill-rule="evenodd"></path><path id="path4" d="M190.235 86.334 C 183.852 98.294,183.779 97.988,197.233 116.000 C 209.283 132.131,212.397 136.428,212.418 136.946 C 212.437 137.418,217.178 140.556,217.454 140.279 C 217.540 140.193,218.250 138.250,219.030 135.961 C 220.485 131.692,222.867 125.110,223.047 124.859 C 223.719 123.923,232.292 134.502,233.625 137.913 C 234.031 138.951,234.369 139.530,234.377 139.200 C 234.425 137.286,230.581 131.452,219.223 116.200 C 210.576 104.588,199.236 88.606,197.936 86.200 C 196.968 84.408,196.603 83.253,195.815 79.500 C 195.360 77.330,194.438 78.459,190.235 86.334 M169.557 125.300 C 169.085 126.235,168.242 127.810,167.683 128.800 C 167.125 129.790,166.864 130.420,167.104 130.200 C 167.679 129.671,170.935 123.600,170.643 123.600 C 170.518 123.600,170.030 124.365,169.557 125.300 M164.000 135.600 C 163.551 136.480,163.274 137.200,163.384 137.200 C 163.494 137.200,163.951 136.480,164.400 135.600 C 164.849 134.720,165.126 134.000,165.016 134.000 C 164.906 134.000,164.449 134.720,164.000 135.600 M174.222 139.913 C 172.371 145.282,170.347 150.476,169.902 150.999 C 169.039 152.013,163.979 145.265,163.235 142.106 C 162.972 140.991,162.872 140.860,162.850 141.600 C 162.764 144.407,166.375 149.937,181.792 170.600 C 200.652 195.878,200.720 195.986,201.433 201.509 C 201.964 205.618,201.873 205.729,209.109 192.058 C 211.596 187.360,211.918 184.697,210.461 180.863 C 209.673 178.789,209.798 178.968,198.816 164.200 C 185.871 146.793,185.200 145.866,185.200 145.391 C 185.200 145.135,184.556 144.583,183.769 144.163 C 182.897 143.698,181.347 142.046,179.795 139.928 C 176.008 134.758,175.999 134.758,174.222 139.913 M234.509 142.000 C 234.509 142.990,234.587 143.395,234.682 142.900 C 234.778 142.405,234.778 141.595,234.682 141.100 C 234.587 140.605,234.509 141.010,234.509 142.000 M227.878 156.205 C 227.512 156.972,227.295 157.600,227.396 157.600 C 227.670 157.600,228.884 155.151,228.701 154.968 C 228.614 154.881,228.244 155.438,227.878 156.205 " stroke="none" fill="#68b8db" fill-rule="evenodd"></path></g></svg>