<svg id="svg" version="1.1" xmlns="http://www.w3.org/2000/svg" xmlns:xlink="http://www.w3.org/1999/xlink" width="400" height="202.0725388601036" viewBox="0, 0, 400,202.0725388601036"><g id="svgg"><path id="path0" d="M240.986 131.610 C 236.907 132.195,232.590 134.776,231.061 137.544 C 225.078 148.373,230.218 160.403,241.270 161.435 C 241.972 161.501,242.547 161.632,242.547 161.727 C 242.547 161.971,245.124 161.943,245.275 161.698 C 245.344 161.587,245.744 161.496,246.165 161.496 C 252.164 161.496,258.002 156.179,259.133 149.684 C 261.115 138.304,252.705 129.928,240.986 131.610 M298.535 131.567 C 291.480 132.601,286.977 136.739,285.432 143.608 C 285.165 144.793,285.295 150.296,285.596 150.581 C 285.655 150.637,285.954 151.467,286.262 152.427 C 287.911 157.574,293.393 161.496,298.937 161.496 C 299.370 161.496,299.780 161.587,299.848 161.698 C 300.000 161.944,302.510 161.970,302.660 161.727 C 302.718 161.633,303.422 161.494,304.222 161.420 C 307.267 161.137,311.376 159.346,313.340 157.446 L 314.502 156.322 314.502 151.745 C 314.502 147.198,314.499 147.164,314.015 146.600 L 313.527 146.033 307.636 145.974 L 301.746 145.915 301.050 146.611 C 300.286 147.374,300.119 148.429,300.595 149.475 C 301.039 150.448,301.628 150.581,305.505 150.581 L 309.060 150.581 309.002 152.540 L 308.944 154.498 307.832 155.167 C 304.185 157.359,298.288 157.413,295.235 155.283 C 294.795 154.976,294.269 154.627,294.066 154.507 C 293.505 154.177,292.954 153.400,292.194 151.868 C 289.141 145.714,292.083 138.335,298.223 136.745 C 301.772 135.825,304.867 136.479,308.509 138.917 C 312.335 141.479,315.444 137.270,311.729 134.558 C 308.523 132.217,302.859 130.933,298.535 131.567 M41.342 131.729 C 40.128 132.038,39.336 133.459,34.014 144.871 C 33.171 146.678,32.424 148.156,32.354 148.156 C 32.232 148.156,31.675 149.282,28.721 155.497 C 26.949 159.225,27.063 160.744,29.159 161.308 C 31.143 161.842,32.183 160.900,34.159 156.780 L 35.472 154.040 42.244 154.029 L 49.015 154.019 50.429 156.993 C 52.406 161.150,53.158 161.838,55.142 161.304 C 57.783 160.592,57.634 159.584,53.680 151.390 C 51.937 147.777,50.183 144.138,49.782 143.305 C 49.380 142.471,48.980 141.741,48.892 141.682 C 48.804 141.623,48.174 140.396,47.492 138.953 C 43.836 131.222,43.748 131.118,41.342 131.729 M66.082 131.763 C 65.142 132.067,64.687 132.395,64.378 132.992 C 63.928 133.862,63.918 158.791,64.367 159.659 C 64.996 160.877,65.112 160.889,75.493 160.889 L 84.932 160.889 85.619 160.202 C 86.569 159.252,86.610 157.800,85.717 156.800 L 85.127 156.139 77.537 156.082 L 69.947 156.024 69.890 144.754 C 69.838 134.384,69.805 133.440,69.477 132.940 C 68.779 131.875,67.311 131.366,66.082 131.763 M94.648 131.870 C 93.117 132.561,93.180 131.936,93.179 146.498 C 93.178 160.663,93.143 160.217,94.330 161.001 C 95.639 161.866,98.150 161.185,98.620 159.838 C 98.760 159.435,98.839 156.582,98.841 151.814 L 98.844 144.416 99.717 146.134 C 100.197 147.079,101.713 150.081,103.084 152.804 C 104.456 155.528,105.858 158.184,106.200 158.707 C 106.542 159.229,107.005 159.957,107.230 160.324 C 107.955 161.508,109.870 161.794,111.019 160.890 C 111.631 160.409,114.875 154.458,119.228 145.831 L 120.044 144.214 120.052 152.043 L 120.061 159.872 120.616 160.493 C 121.713 161.716,123.957 161.702,124.998 160.466 L 125.518 159.848 125.518 146.605 C 125.518 131.653,125.606 132.487,123.960 131.858 C 121.494 130.916,120.896 131.474,117.736 137.659 C 116.291 140.488,114.709 143.530,114.220 144.418 C 113.731 145.306,112.467 147.716,111.411 149.773 C 110.355 151.829,109.437 153.527,109.369 153.545 C 109.302 153.563,108.623 152.308,107.859 150.757 C 107.096 149.205,106.349 147.813,106.199 147.663 C 106.050 147.514,105.443 146.404,104.852 145.196 C 98.163 131.545,97.444 130.607,94.648 131.870 M368.166 131.721 C 366.934 132.063,365.299 135.049,360.026 146.589 C 359.632 147.451,359.228 148.156,359.127 148.156 C 359.027 148.156,358.997 148.239,359.060 148.341 C 359.123 148.444,359.048 148.655,358.892 148.811 C 358.103 149.599,354.285 157.982,354.249 159.005 C 354.168 161.305,357.050 162.252,358.868 160.521 C 359.211 160.195,360.090 158.659,360.889 156.992 L 362.304 154.041 369.075 154.037 L 375.846 154.032 377.261 156.996 C 379.259 161.180,379.987 161.839,382.017 161.292 C 383.500 160.893,384.629 158.476,383.622 157.854 C 383.528 157.796,383.270 157.326,383.049 156.809 C 382.828 156.293,381.406 153.293,379.889 150.143 C 378.372 146.994,376.801 143.711,376.398 142.850 C 375.994 141.988,375.607 141.283,375.536 141.283 C 375.415 141.283,373.859 138.133,372.144 134.411 C 371.032 132.000,369.905 131.237,368.166 131.721 M0.687 132.875 L 0.000 133.562 -0.000 146.705 L -0.000 159.848 0.520 160.466 C 1.555 161.696,3.625 161.749,4.800 160.575 L 5.457 159.919 5.457 154.865 L 5.457 149.812 11.673 149.722 C 18.502 149.623,19.211 149.521,21.472 148.317 C 27.246 145.239,27.072 136.113,21.187 133.338 C 18.917 132.267,18.170 132.194,9.429 132.191 L 1.374 132.188 0.687 132.875 M136.454 132.706 C 135.447 133.554,135.424 133.857,135.424 146.539 C 135.424 159.220,135.447 159.524,136.454 160.371 L 137.070 160.889 147.383 160.889 L 157.696 160.889 158.383 160.202 C 159.172 159.413,159.310 158.302,158.754 157.225 C 158.160 156.077,157.848 156.038,149.173 156.038 L 141.283 156.038 141.283 152.414 L 141.283 148.789 145.983 148.725 C 149.689 148.674,150.776 148.598,151.128 148.365 C 152.410 147.515,152.554 145.387,151.408 144.240 L 150.776 143.608 146.030 143.541 L 141.283 143.474 141.283 140.257 L 141.283 137.039 148.768 137.039 C 156.694 137.039,157.102 136.996,157.925 136.072 C 158.455 135.477,158.580 134.212,158.184 133.446 C 157.507 132.137,157.961 132.188,147.014 132.188 L 137.070 132.188 136.454 132.706 M164.947 132.810 C 164.410 133.348,164.325 133.577,164.325 134.501 C 164.325 136.755,165.049 137.036,170.844 137.038 L 175.038 137.039 175.038 148.105 C 175.039 160.291,175.012 160.020,176.296 160.961 C 177.009 161.484,178.523 161.516,179.535 161.032 C 180.943 160.357,180.899 160.763,180.899 148.280 L 180.899 137.066 185.599 137.002 C 190.663 136.933,190.847 136.896,191.487 135.812 C 192.062 134.839,191.918 133.666,191.127 132.875 L 190.440 132.188 178.004 132.188 L 165.569 132.188 164.947 132.810 M197.952 132.546 C 196.486 133.734,196.897 136.343,198.625 136.823 C 199.050 136.941,201.266 137.037,203.581 137.038 L 207.769 137.039 207.826 148.316 C 207.888 160.718,207.834 160.182,209.129 161.031 C 209.820 161.484,211.513 161.481,212.377 161.025 C 213.674 160.341,213.643 160.655,213.643 148.280 L 213.643 137.066 218.343 137.002 C 222.432 136.946,223.110 136.892,223.567 136.581 C 224.784 135.754,224.933 133.938,223.871 132.875 L 223.183 132.188 210.783 132.192 C 199.339 132.197,198.350 132.224,197.952 132.546 M324.281 132.567 C 323.196 133.241,323.194 133.272,323.194 146.575 C 323.194 160.067,323.184 159.954,324.380 160.573 C 325.282 161.039,339.243 161.040,341.545 160.574 C 346.415 159.588,348.762 156.963,348.762 152.501 C 348.762 148.890,347.474 147.110,344.031 145.966 L 342.938 145.603 343.860 145.064 C 348.989 142.057,348.130 134.853,342.395 132.782 C 340.488 132.094,325.333 131.913,324.281 132.567 M246.056 136.531 C 248.193 136.984,252.249 140.028,252.249 141.178 C 252.249 141.347,252.345 141.486,252.463 141.486 C 252.580 141.486,252.620 141.577,252.552 141.688 C 252.483 141.799,252.529 141.890,252.653 141.890 C 252.777 141.890,252.823 141.981,252.754 142.092 C 252.685 142.203,252.725 142.294,252.843 142.294 C 252.961 142.294,253.042 142.362,253.024 142.446 C 253.007 142.529,253.117 142.870,253.270 143.204 C 253.462 143.623,253.548 144.652,253.548 146.539 C 253.548 148.425,253.462 149.454,253.270 149.874 C 253.117 150.207,253.007 150.548,253.024 150.632 C 253.042 150.715,252.961 150.783,252.843 150.783 C 252.725 150.783,252.685 150.874,252.754 150.985 C 252.823 151.097,252.777 151.187,252.653 151.187 C 252.529 151.187,252.478 151.271,252.541 151.372 C 252.604 151.474,252.585 151.588,252.499 151.625 C 252.413 151.662,252.042 152.165,251.675 152.743 C 247.983 158.554,238.359 157.875,235.341 151.592 C 232.933 146.577,234.678 139.692,238.839 137.796 C 239.100 137.677,239.313 137.511,239.313 137.427 C 239.313 137.243,240.910 136.695,242.158 136.450 C 243.506 136.186,244.524 136.207,246.056 136.531 M18.020 137.568 C 20.624 139.438,20.445 143.064,17.686 144.338 C 16.961 144.672,16.286 144.711,11.167 144.715 L 5.457 144.720 5.457 140.767 L 5.457 136.814 11.299 136.876 L 17.142 136.938 18.020 137.568 M339.749 137.531 C 341.781 138.940,341.650 141.690,339.491 142.927 C 338.687 143.388,338.475 143.408,333.855 143.470 L 329.055 143.533 329.055 140.169 L 329.055 136.805 333.974 136.872 L 338.894 136.938 339.749 137.531 M43.752 142.850 C 44.508 144.490,45.479 146.590,45.909 147.518 C 46.339 148.446,46.690 149.242,46.690 149.287 C 46.690 149.332,44.648 149.368,42.151 149.368 L 37.612 149.368 38.233 148.004 C 38.575 147.254,39.242 145.758,39.715 144.680 C 40.188 143.603,40.710 142.587,40.874 142.422 C 41.039 142.257,41.379 141.615,41.631 140.996 C 42.240 139.496,42.182 139.445,43.752 142.850 M370.080 141.738 C 370.939 143.594,372.687 147.451,373.240 148.711 L 373.527 149.368 368.979 149.368 L 364.432 149.368 364.959 148.206 C 365.248 147.567,365.831 146.249,366.254 145.277 C 366.676 144.306,367.149 143.384,367.304 143.228 C 367.459 143.073,367.888 142.254,368.257 141.407 C 369.091 139.495,369.036 139.485,370.080 141.738 M340.300 148.815 C 341.276 149.185,342.591 150.003,342.595 150.242 C 342.596 150.333,342.745 150.555,342.925 150.735 C 343.534 151.344,343.207 153.632,342.388 154.501 C 340.982 155.991,340.328 156.130,334.361 156.204 L 329.055 156.270 329.055 152.292 L 329.055 148.314 334.260 148.406 C 338.324 148.478,339.648 148.567,340.300 148.815 M392.897 151.052 C 388.508 152.693,387.959 158.760,392.016 160.788 C 395.985 162.773,399.896 160.515,399.895 156.241 C 399.893 152.263,396.462 149.719,392.897 151.052 M396.521 152.178 C 399.852 153.887,399.729 158.746,396.318 160.171 C 393.469 161.361,389.953 158.820,390.351 155.857 C 390.764 152.772,393.962 150.866,396.521 152.178 M393.225 153.461 C 392.939 154.615,393.218 158.962,393.583 159.032 C 393.885 159.090,393.936 158.937,393.936 157.973 C 393.936 156.404,394.572 156.360,395.421 157.872 C 396.039 158.972,396.450 159.266,396.830 158.883 C 397.014 158.698,396.946 158.420,396.530 157.674 C 396.002 156.725,395.999 156.699,396.379 156.374 C 397.216 155.657,396.599 152.919,395.680 153.272 C 395.499 153.341,395.351 153.310,395.351 153.202 C 395.351 152.740,393.343 152.985,393.225 153.461 M395.628 154.594 C 396.221 155.250,395.511 156.038,394.327 156.038 C 393.999 156.038,393.936 155.893,393.936 155.129 C 393.936 154.091,394.898 153.787,395.628 154.594 M10.463 186.913 C 10.292 187.107,9.684 188.263,9.112 189.481 C 8.541 190.700,7.962 191.767,7.826 191.853 C 7.691 191.939,7.651 192.011,7.739 192.013 C 7.827 192.015,7.800 192.130,7.679 192.269 C 7.558 192.408,6.549 194.428,5.436 196.758 C 3.284 201.265,3.159 201.792,4.178 202.048 C 4.995 202.253,5.276 201.954,6.352 199.732 L 7.348 197.676 11.112 197.676 L 14.876 197.676 15.319 198.535 C 16.651 201.119,17.296 202.021,17.858 202.086 C 18.523 202.164,18.999 201.822,18.999 201.269 C 18.999 200.834,16.672 195.840,16.386 195.662 C 16.290 195.602,15.609 194.252,14.873 192.661 C 13.054 188.728,12.119 186.890,11.849 186.714 C 11.450 186.452,10.785 186.548,10.463 186.913 M36.079 186.842 C 29.363 188.966,28.773 198.476,35.169 201.496 C 38.621 203.126,45.275 201.497,45.275 199.022 C 45.275 197.907,44.274 197.731,43.211 198.659 C 39.972 201.484,34.769 200.341,33.466 196.517 C 31.401 190.456,38.378 185.806,43.211 190.022 C 44.250 190.929,45.275 190.774,45.275 189.709 C 45.275 187.450,39.676 185.704,36.079 186.842 M63.709 186.801 C 63.361 187.149,63.361 201.330,63.709 201.678 C 63.885 201.854,65.377 201.920,69.152 201.920 C 74.695 201.920,74.987 201.869,74.987 200.910 C 74.987 199.972,74.627 199.899,70.021 199.899 L 65.690 199.899 65.690 193.438 C 65.690 187.257,65.673 186.968,65.299 186.768 C 64.774 186.487,64.007 186.503,63.709 186.801 M110.474 186.876 C 110.197 187.153,110.157 188.113,110.157 194.341 C 110.157 202.097,110.160 202.122,111.268 202.122 C 112.376 202.122,112.380 202.097,112.380 194.341 C 112.380 186.584,112.376 186.559,111.268 186.559 C 111.006 186.559,110.649 186.702,110.474 186.876 M122.528 186.876 C 122.279 187.050,122.124 187.271,122.183 187.367 C 122.242 187.463,122.187 187.606,122.059 187.684 C 121.932 187.763,121.374 188.792,120.818 189.972 C 120.262 191.152,118.864 194.084,117.710 196.487 C 115.574 200.941,115.393 201.485,115.905 201.910 C 116.715 202.582,117.280 202.123,118.444 199.849 L 119.555 197.676 123.315 197.676 L 127.074 197.676 128.012 199.671 C 129.113 202.011,129.306 202.215,130.254 202.037 C 131.211 201.858,131.386 200.517,130.534 199.893 C 130.408 199.800,128.980 196.839,125.371 189.186 C 124.089 186.467,123.636 186.099,122.528 186.876 M134.452 186.801 C 134.272 186.981,134.209 188.935,134.209 194.341 C 134.209 202.136,134.207 202.122,135.220 202.122 C 136.212 202.122,136.230 202.018,136.238 196.069 L 136.246 190.500 137.097 191.465 C 137.565 191.995,138.295 192.814,138.718 193.284 C 139.142 193.754,140.941 195.883,142.716 198.014 C 146.079 202.054,146.564 202.447,147.537 201.927 C 148.170 201.588,148.194 187.106,147.563 186.768 C 145.886 185.871,145.744 186.317,145.683 192.671 L 145.629 198.245 143.855 196.091 C 142.880 194.906,141.470 193.193,140.722 192.285 C 136.312 186.927,135.253 186.000,134.452 186.801 M166.404 186.840 C 165.255 187.215,163.985 187.997,163.032 188.914 C 160.375 191.473,160.430 197.271,163.137 199.877 C 166.177 202.805,172.302 202.920,175.502 200.110 L 176.251 199.453 176.251 197.267 C 176.251 196.065,176.195 194.937,176.128 194.761 C 175.944 194.281,169.281 194.281,169.097 194.761 C 168.633 195.970,169.183 196.261,171.929 196.261 L 174.249 196.261 174.189 197.507 L 174.128 198.753 172.856 199.450 C 169.042 201.540,163.517 199.331,163.517 195.716 C 163.517 195.460,163.426 195.250,163.315 195.250 C 163.204 195.250,163.113 194.841,163.113 194.341 C 163.113 193.840,163.204 193.431,163.315 193.431 C 163.426 193.431,163.498 193.363,163.475 193.279 C 163.386 192.952,164.004 191.471,164.537 190.737 C 166.491 188.046,170.583 187.623,173.398 189.821 C 174.298 190.524,175.442 190.212,175.442 189.263 C 175.442 187.423,169.498 185.829,166.404 186.840 M201.581 186.840 C 195.321 188.873,194.727 198.538,200.682 201.463 C 202.364 202.289,206.477 202.301,208.216 201.486 C 213.951 198.797,213.951 189.865,208.216 187.200 C 206.834 186.558,203.077 186.354,201.581 186.840 M216.196 186.818 C 215.871 187.056,215.847 187.524,215.905 192.528 L 215.968 197.979 216.574 199.083 C 218.975 203.456,227.623 203.144,229.639 198.612 C 230.070 197.642,230.105 197.249,230.179 192.568 C 230.267 186.999,230.183 186.552,229.050 186.565 C 227.806 186.580,227.792 186.640,227.791 191.836 C 227.789 196.879,227.676 197.706,226.849 198.689 C 224.748 201.185,219.569 200.602,218.363 197.733 C 218.159 197.248,218.090 195.858,218.090 192.270 C 218.090 186.611,217.764 185.672,216.196 186.818 M263.798 186.951 C 257.919 189.131,256.824 197.307,261.950 200.746 C 265.105 202.862,270.225 202.609,272.767 200.213 C 274.465 198.611,272.821 197.301,271.015 198.817 C 268.828 200.651,265.712 200.767,263.409 199.099 C 262.564 198.487,261.350 196.667,261.346 196.008 C 261.345 195.814,261.253 195.654,261.142 195.654 C 261.028 195.654,260.940 195.082,260.940 194.341 C 260.940 193.599,261.028 193.027,261.142 193.027 C 261.253 193.027,261.345 192.868,261.346 192.673 C 261.350 192.014,262.564 190.194,263.409 189.583 C 265.654 187.956,268.805 188.043,270.916 189.789 C 272.251 190.893,273.471 190.779,273.471 189.550 C 273.471 187.437,267.102 185.726,263.798 186.951 M280.806 186.840 C 278.458 187.607,276.552 189.437,275.899 191.552 C 275.132 194.036,275.596 197.798,276.822 199.024 C 277.092 199.293,277.315 199.577,277.318 199.655 C 277.329 199.906,279.022 201.086,280.053 201.561 C 281.496 202.226,285.814 202.228,287.268 201.564 C 292.850 199.014,292.944 190.012,287.418 187.241 C 286.070 186.565,282.341 186.339,280.806 186.840 M295.534 186.825 C 295.358 187.036,295.310 189.048,295.349 194.443 C 295.407 202.557,295.389 202.453,296.654 202.009 L 297.221 201.810 297.322 196.815 L 297.423 191.820 299.424 195.960 C 300.524 198.238,301.508 200.101,301.609 200.101 C 301.710 200.101,301.741 200.185,301.678 200.287 C 301.614 200.389,301.678 200.594,301.820 200.742 C 301.961 200.890,302.237 201.261,302.433 201.566 C 303.453 203.161,304.036 202.522,306.911 196.654 L 309.233 191.915 309.240 196.607 C 309.248 201.744,309.340 202.122,310.585 202.122 C 311.666 202.122,311.673 202.073,311.673 194.341 C 311.673 186.099,311.698 186.206,309.883 186.692 C 309.462 186.804,306.203 193.083,303.762 198.484 L 303.443 199.192 302.792 197.903 C 302.434 197.194,302.051 196.512,301.940 196.387 C 301.830 196.262,300.677 194.022,299.379 191.410 C 296.877 186.375,296.390 185.794,295.534 186.825 M336.411 186.714 C 336.288 186.795,335.747 187.726,335.210 188.782 C 334.673 189.838,334.160 190.733,334.070 190.770 C 333.980 190.807,333.906 190.919,333.906 191.018 C 333.906 191.118,332.860 193.374,331.582 196.033 C 329.218 200.948,329.033 201.482,329.548 201.910 C 330.358 202.582,330.923 202.123,332.087 199.849 L 333.199 197.676 336.955 197.676 L 340.711 197.676 341.598 199.545 C 342.766 202.010,343.628 202.680,344.503 201.805 C 345.003 201.304,344.917 201.033,343.227 197.797 C 342.351 196.118,340.840 193.062,339.868 191.006 C 337.737 186.493,337.391 186.063,336.411 186.714 M348.095 186.801 C 347.915 186.981,347.852 188.935,347.852 194.341 C 347.852 202.136,347.851 202.122,348.863 202.122 C 349.856 202.122,349.874 202.017,349.874 196.118 C 349.874 189.746,349.723 190.014,351.853 192.597 C 359.504 201.874,359.963 202.348,360.946 202.003 L 361.496 201.809 361.496 194.341 L 361.496 186.872 360.929 186.673 C 359.702 186.241,359.687 186.303,359.576 192.587 C 359.506 196.489,359.408 198.222,359.262 198.123 C 358.989 197.937,356.006 194.387,355.235 193.330 C 351.821 188.652,348.908 185.988,348.095 186.801 M364.265 186.801 C 363.699 187.367,364.997 189.756,366.891 191.634 C 367.520 192.257,368.873 193.965,368.873 194.135 C 368.873 194.208,369.101 194.565,369.378 194.929 C 369.864 195.565,369.884 195.707,369.884 198.522 C 369.884 201.632,370.032 202.122,370.974 202.122 C 372.038 202.122,372.107 201.914,372.107 198.683 L 372.107 195.662 372.764 194.749 C 373.639 193.534,375.159 191.577,376.705 189.675 C 377.980 188.107,378.256 187.331,377.726 186.801 C 377.366 186.441,376.602 186.508,376.200 186.934 C 375.126 188.073,374.435 188.900,372.841 190.955 C 371.870 192.206,371.049 193.229,371.014 193.229 C 370.980 193.229,370.312 192.388,369.528 191.359 C 368.745 190.331,367.887 189.256,367.622 188.970 C 367.357 188.684,366.792 188.025,366.365 187.505 C 365.564 186.526,364.797 186.270,364.265 186.801 M49.065 186.900 C 48.871 186.951,48.662 187.191,48.602 187.433 C 48.427 188.134,48.593 201.465,48.779 201.651 C 48.871 201.743,51.384 201.846,54.364 201.879 C 60.167 201.943,60.435 201.900,60.435 200.910 C 60.435 199.966,60.090 199.899,55.266 199.899 L 50.733 199.899 50.733 197.473 L 50.733 195.048 53.336 195.048 C 56.237 195.048,56.466 194.953,56.355 193.798 L 56.291 193.128 53.512 193.072 L 50.733 193.015 50.733 190.899 L 50.733 188.782 55.139 188.782 C 59.852 188.782,60.030 188.745,60.030 187.772 C 60.030 186.782,59.901 186.759,54.482 186.784 C 51.697 186.797,49.260 186.849,49.065 186.900 M78.171 186.979 C 77.594 187.315,77.630 201.402,78.208 201.711 C 78.448 201.839,80.586 201.920,83.752 201.920 C 89.244 201.920,89.540 201.868,89.540 200.910 C 89.540 199.966,89.195 199.899,84.372 199.899 L 79.838 199.899 79.838 197.473 L 79.838 195.048 82.542 195.048 C 85.553 195.048,85.775 194.959,85.663 193.798 L 85.599 193.128 82.719 193.072 L 79.838 193.016 79.838 190.899 L 79.838 188.782 84.245 188.782 C 88.957 188.782,89.136 188.745,89.136 187.772 C 89.136 187.483,89.027 187.137,88.893 187.004 C 88.582 186.692,78.703 186.669,78.171 186.979 M93.017 187.004 C 92.669 187.351,92.669 201.532,93.017 201.880 C 93.150 202.013,93.496 202.122,93.785 202.122 C 94.718 202.122,94.795 201.855,94.795 198.646 L 94.795 195.654 97.676 195.658 L 100.556 195.661 102.274 198.841 C 103.809 201.681,104.054 202.028,104.561 202.086 C 106.109 202.264,106.049 201.236,104.329 198.080 L 102.953 195.553 103.974 195.042 C 104.693 194.683,105.127 194.293,105.439 193.729 C 105.682 193.287,105.991 192.804,106.124 192.655 C 106.403 192.343,106.458 189.813,106.190 189.618 C 106.093 189.548,105.863 189.217,105.680 188.883 C 105.194 188.001,103.948 187.198,102.701 186.965 C 101.103 186.666,93.323 186.697,93.017 187.004 M180.424 187.063 C 179.868 187.619,179.922 201.613,180.482 201.913 C 181.957 202.703,182.314 202.050,182.314 198.565 L 182.314 195.643 185.160 195.699 L 188.006 195.755 189.657 198.768 C 191.419 201.983,191.655 202.257,192.487 202.048 C 193.497 201.794,193.395 201.162,191.884 198.341 C 190.243 195.274,190.285 195.569,191.407 195.001 C 194.504 193.436,194.319 188.661,191.107 187.230 C 189.910 186.697,180.931 186.557,180.424 187.063 M234.779 187.079 C 234.237 187.621,234.306 201.621,234.853 201.913 C 236.347 202.713,236.887 201.775,236.887 198.381 L 236.887 195.654 240.374 195.648 C 245.834 195.638,247.213 194.802,247.367 191.407 C 247.483 188.856,246.633 187.742,244.059 187.072 C 242.317 186.618,235.235 186.623,234.779 187.079 M316.473 186.979 C 316.024 187.241,315.919 201.436,316.362 201.880 C 316.772 202.290,317.631 202.159,318.104 201.615 C 318.510 201.148,318.545 200.894,318.545 198.381 L 318.545 195.654 322.031 195.648 C 327.619 195.638,328.954 194.785,328.954 191.226 C 328.954 188.628,328.254 187.733,325.704 187.069 C 324.313 186.706,317.062 186.636,316.473 186.979 M206.654 188.794 C 210.263 190.144,211.415 195.356,208.769 198.362 C 205.169 202.452,198.787 199.881,198.787 194.341 C 198.787 189.971,202.606 187.279,206.654 188.794 M286.322 189.014 C 290.794 191.247,290.186 198.646,285.417 200.032 C 280.786 201.378,276.804 197.286,278.095 192.510 C 279.019 189.094,283.052 187.381,286.322 189.014 M103.269 189.475 C 104.423 190.581,104.215 192.297,102.826 193.137 C 102.254 193.483,101.715 193.540,98.484 193.599 L 94.795 193.665 94.795 191.212 L 94.795 188.758 98.724 188.821 L 102.653 188.883 103.269 189.475 M190.195 189.084 C 192.094 190.066,191.741 192.763,189.630 193.395 C 189.164 193.535,187.490 193.633,185.575 193.633 L 182.314 193.633 182.314 191.208 L 182.314 188.782 185.963 188.782 C 188.804 188.782,189.740 188.849,190.195 189.084 M244.122 189.332 C 245.670 190.336,245.707 191.997,244.205 193.058 C 243.463 193.582,243.368 193.596,240.166 193.623 L 236.887 193.651 236.887 191.216 L 236.887 188.782 240.081 188.782 C 243.214 188.782,243.290 188.793,244.122 189.332 M325.780 189.332 C 327.320 190.331,327.369 192.017,325.887 193.027 C 325.182 193.507,324.979 193.535,321.845 193.596 L 318.545 193.660 318.545 191.221 L 318.545 188.782 321.738 188.782 C 324.871 188.782,324.948 188.793,325.780 189.332 M12.870 193.296 C 13.462 194.611,13.946 195.726,13.946 195.772 C 13.946 195.818,12.709 195.856,11.196 195.856 C 9.015 195.856,8.467 195.802,8.547 195.592 C 8.603 195.447,9.223 194.081,9.925 192.556 L 11.202 189.783 11.498 190.344 C 11.661 190.652,12.279 191.981,12.870 193.296 M125.529 194.492 L 126.101 195.856 123.262 195.856 C 121.068 195.856,120.446 195.799,120.528 195.604 C 121.431 193.457,122.346 191.521,122.559 191.308 C 122.706 191.161,122.950 190.743,123.101 190.379 L 123.375 189.718 124.166 191.423 C 124.601 192.361,125.215 193.742,125.529 194.492 M339.173 194.492 L 339.745 195.856 336.910 195.856 C 335.350 195.856,334.105 195.788,334.142 195.705 C 334.179 195.622,334.846 194.252,335.624 192.661 L 337.039 189.769 337.820 191.448 C 338.249 192.372,338.858 193.742,339.173 194.492 " stroke="none" fill="#7c6c54" fill-rule="evenodd"></path><path id="path1" d="M153.806 35.828 C 144.699 44.799,143.830 46.185,143.828 51.743 C 143.827 56.176,144.833 58.499,148.319 62.107 C 151.653 65.558,186.757 100.677,188.522 102.326 C 190.760 104.419,190.886 104.391,194.397 101.046 C 199.221 96.449,203.142 92.195,204.089 90.530 C 206.167 86.878,206.358 81.122,204.512 77.834 C 202.973 75.095,201.511 73.554,180.856 52.906 L 159.677 31.733 158.818 31.735 C 157.973 31.737,157.891 31.804,153.806 35.828 M213.723 40.082 C 204.846 48.978,203.755 50.263,202.770 52.992 C 201.617 56.187,202.350 63.382,203.940 64.477 C 204.021 64.533,204.247 64.896,204.443 65.285 C 204.639 65.675,207.354 68.562,210.477 71.703 L 216.154 77.413 217.089 77.413 L 218.024 77.413 224.373 71.080 C 233.957 61.520,235.287 60.103,235.979 58.717 C 236.312 58.050,236.643 57.458,236.715 57.403 C 238.091 56.340,238.037 46.084,236.656 46.084 C 236.561 46.084,236.483 45.966,236.483 45.822 C 236.483 44.238,224.366 31.724,222.853 31.745 C 222.044 31.756,221.903 31.885,213.723 40.082 M179.512 57.150 C 202.367 80.041,201.146 78.672,201.720 82.075 C 202.463 86.478,201.440 88.457,195.207 94.676 L 190.769 99.105 170.662 79.012 C 159.604 67.960,150.168 58.373,149.694 57.706 C 147.446 54.544,147.137 50.598,148.867 47.142 C 149.486 45.906,158.293 36.584,158.842 36.584 C 158.918 36.584,168.219 45.839,179.512 57.150 M227.305 40.879 C 231.824 45.444,232.642 46.453,233.302 48.273 C 233.888 49.890,234.008 52.731,233.556 54.291 C 232.728 57.148,232.691 57.193,224.648 65.210 L 217.119 72.715 212.592 68.242 C 208.326 64.028,208.015 63.670,207.215 62.052 C 205.158 57.885,205.821 53.882,209.166 50.274 C 211.135 48.151,222.756 36.584,222.920 36.584 C 222.993 36.584,224.966 38.517,227.305 40.879 " stroke="none" fill="#6cb43c" fill-rule="evenodd"></path><path id="path2" d="M181.845 7.933 C 177.470 12.297,173.601 16.247,173.246 16.711 C 169.714 21.338,169.184 26.728,171.749 31.935 L 172.694 33.855 181.278 42.488 C 190.140 51.400,190.351 51.578,191.514 51.136 C 192.179 50.883,207.618 35.530,208.800 33.947 C 211.828 29.888,212.268 22.815,209.755 18.595 C 208.584 16.628,202.461 10.203,194.103 2.171 L 191.845 -0.000 190.822 -0.000 L 189.799 0.000 181.845 7.933 M198.234 11.976 C 207.271 21.021,207.604 21.496,207.635 25.357 C 207.667 29.421,207.207 30.093,198.253 39.022 L 190.820 46.436 183.786 39.438 C 179.917 35.590,176.500 32.102,176.192 31.689 C 173.492 28.060,173.403 23.285,175.968 19.658 C 176.603 18.761,190.547 4.649,190.799 4.649 C 190.862 4.649,194.208 7.946,198.234 11.976 " stroke="none" fill="#d4c404" fill-rule="evenodd"></path><path id="path3" d="M228.467 146.438 C 228.468 147.327,228.504 147.666,228.546 147.190 C 228.589 146.715,228.589 145.987,228.545 145.573 C 228.502 145.159,228.467 145.548,228.467 146.438 M96.463 193.582 C 97.436 193.619,99.027 193.619,100.000 193.582 C 100.973 193.544,100.177 193.514,98.231 193.514 C 96.286 193.514,95.490 193.544,96.463 193.582 M183.982 193.582 C 184.955 193.619,186.546 193.619,187.519 193.582 C 188.492 193.544,187.696 193.514,185.750 193.514 C 183.805 193.514,183.009 193.544,183.982 193.582 " stroke="none" fill="#888058" fill-rule="evenodd"></path><path id="path4" d="M228.467 146.438 C 228.468 147.327,228.504 147.666,228.546 147.190 C 228.589 146.715,228.589 145.987,228.545 145.573 C 228.502 145.159,228.467 145.548,228.467 146.438 M96.463 193.582 C 97.436 193.619,99.027 193.619,100.000 193.582 C 100.973 193.544,100.177 193.514,98.231 193.514 C 96.286 193.514,95.490 193.544,96.463 193.582 M183.982 193.582 C 184.955 193.619,186.546 193.619,187.519 193.582 C 188.492 193.544,187.696 193.514,185.750 193.514 C 183.805 193.514,183.009 193.544,183.982 193.582 " stroke="none" fill="#888058" fill-rule="evenodd"></path></g></svg>