<?xml version="1.0" encoding="UTF-8"?>
<svg width="107px" height="31px" viewBox="0 0 107 31" version="1.1" xmlns="http://www.w3.org/2000/svg" xmlns:xlink="http://www.w3.org/1999/xlink">
    <title>icon-pecos-blue-no-bkgd</title>
    <defs>
        <polygon id="path-1" points="0 0 19.9084029 0 19.9084029 27.5107531 0 27.5107531"></polygon>
        <polygon id="path-3" points="0 0 24.1152484 0 24.1152484 27.5473746 0 27.5473746"></polygon>
        <polygon id="path-5" points="0 0 16.6611189 0 16.6611189 27.5107439 0 27.5107439"></polygon>
        <polygon id="path-7" points="0 31 106 31 106 0 0 0"></polygon>
    </defs>
    <g id="Page-1-Icons" stroke="none" stroke-width="1" fill="none" fill-rule="evenodd">
        <g id="PECOS-2.0-Icons-Overview-v31" transform="translate(-2895.000000, -915.000000)">
            <g id="LOGOS" transform="translate(2886.000000, 591.000000)">
                <g id="icon-pecos-blue-no-bkgd" transform="translate(9.237305, 324.000000)">
                    <g id="PECOS-logo-on-white"></g>
                    <polygon id="Fill-1" fill="#0573BB" points="39.9314602 30.633918 24.6726385 30.633918 24.6726385 3.87360754 39.9314602 3.87360754 39.9314602 7.57099415 29.0823756 7.57099415 29.0823756 14.8559304 39.2487415 14.8559304 39.2487415 18.5167505 29.0823756 18.5167505 29.0823756 26.9182252 39.9314602 26.9182252"></polygon>
                    <g id="Group-20">
                        <g id="Group-4" transform="translate(42.162695, 3.489247)">
                            <mask id="mask-2" fill="white">
                                <use xlink:href="#path-1"></use>
                            </mask>
                            <g id="Clip-3"></g>
                            <path d="M12.952461,1.68393782 C9.56957677,1.68393782 6.90664109,2.75780776 4.96323777,4.90541001 C3.01951071,7.05333341 2.04801717,9.99392754 2.04801717,13.7279265 C2.04801717,17.5474001 2.96415139,20.5126318 4.79715983,22.6235759 C6.62993701,24.7348869 9.24990794,25.7901754 12.6572113,25.7901754 C14.9202835,25.7901754 16.9992871,25.5037 18.8936209,24.9299233 L18.8936209,26.5772488 C17.1100057,27.1996125 14.8833773,27.5107715 12.2144293,27.5107715 C8.42557675,27.5107715 5.44297225,26.296646 3.26578335,23.8682575 C1.08859445,21.4401901 0,18.047631 0,13.6913142 C0,10.970394 0.519415595,8.57256162 1.55903301,6.49786287 C2.59841918,4.42348529 4.09293569,2.82190228 6.04262879,1.69311384 C7.99199816,0.56460068 10.2586314,0 12.8417424,0 C15.4738304,0 17.8295381,0.488164411 19.9084029,1.46430971 L19.1519181,3.14824753 C17.1837719,2.17210223 15.1173016,1.68393782 12.952461,1.68393782" id="Fill-2" fill="#0573BB" mask="url(#mask-2)"></path>
                        </g>
                        <g id="Group-7" transform="translate(63.213738, 3.452625)">
                            <mask id="mask-4" fill="white">
                                <use xlink:href="#path-3"></use>
                            </mask>
                            <g id="Clip-6"></g>
                            <path d="M2.04801717,13.7645388 C2.04801717,17.5964 2.90879208,20.5583743 4.63117438,22.6510581 C6.35318669,24.7441088 8.82557902,25.7901754 12.0483514,25.7901754 C15.2956816,25.7901754 17.7773236,24.753239 19.4932774,22.6785402 C21.2092312,20.6041168 22.0671387,17.6329665 22.0671387,13.7645388 C22.0671387,9.90872817 21.2092312,6.95267244 19.4932774,4.89627986 C17.7773236,2.84020844 15.3077525,1.81208097 12.0852576,1.81208097 C8.8747873,1.81208097 6.39929633,2.84933859 4.65878466,4.92376205 C2.91804176,6.99841492 2.04801717,9.94538638 2.04801717,13.7645388 M24.1152484,13.7645388 C24.1152484,18.0110645 23.0450608,21.36981 20.9047781,23.8408212 C18.7644491,26.3118323 15.8123223,27.5473838 12.0483514,27.5473838 C8.29645127,27.5473838 5.35070673,26.3118323 3.21042404,23.8408212 C1.0700951,21.36981 0,17.9990898 0,13.7279265 C0,9.46947196 1.07934477,6.11659913 3.23808057,3.6699503 C5.39681637,1.22357675 8.34584454,0 12.0852576,0 C15.8492285,0 18.7951118,1.22944941 20.9232312,3.68821059 C23.0510268,6.14729293 24.1152484,9.5060843 24.1152484,13.7645388" id="Fill-5" fill="#0573BB" mask="url(#mask-4)"></path>
                        </g>
                        <g id="Group-10" transform="translate(89.338867, 3.489256)">
                            <mask id="mask-6" fill="white">
                                <use xlink:href="#path-5"></use>
                            </mask>
                            <g id="Clip-9"></g>
                            <path d="M16.6611189,20.2440955 C16.6611189,22.4771724 15.8337816,24.2465849 14.1794769,25.5521953 C12.5248485,26.8581268 10.3262003,27.5107715 7.58330119,27.5107715 C4.28657767,27.5107715 1.75877978,27.1507043 0,26.4308453 L0,24.5638 C1.94331083,25.3814754 4.42194669,25.7901754 7.43567635,25.7901754 C9.64977146,25.7901754 11.4055913,25.2868247 12.7034135,24.2801233 C14.0009119,23.2733759 14.6500079,21.9527168 14.6500079,20.3173202 C14.6500079,19.3045167 14.4344905,18.4657823 14.0041955,17.8005207 C13.5735768,17.1355343 12.8724513,16.5284028 11.9007728,15.9793095 C10.928863,15.4301705 9.50219287,14.8384088 7.62025365,14.2038409 C4.86482121,13.2642621 2.96137649,12.2483846 1.90968825,11.1562085 C0.85800001,10.0643076 0.33215589,8.60917395 0.33215589,6.79071564 C0.33215589,4.78956272 1.12226327,3.15742355 2.70303302,1.89443578 C4.28357153,0.631448006 6.31614173,0 8.80106738,0 C11.3347851,0 13.7149581,0.47586854 15.9415403,1.42769738 L15.2588679,3.03841054 C13.0200299,2.1112652 10.8797472,1.64732549 8.83797359,1.64732549 C6.84526949,1.64732549 5.25848745,2.10493374 4.07767372,3.02010437 C2.89681375,3.93532088 2.30636064,5.18000249 2.30636064,6.75410331 C2.30636064,7.74254448 2.48760805,8.55425545 2.85070411,9.18854803 C3.21343018,9.82311588 3.80688944,10.3937727 4.63117438,10.899968 C5.45522807,11.4063927 6.86968863,12.0136619 8.8748798,12.7211791 C10.9782563,13.4414052 12.5587948,14.1397464 13.6167266,14.8169827 C14.6743808,15.494265 15.4463126,16.2630322 15.9322906,17.1232843 C16.4179911,17.9835364 16.6611189,19.0240515 16.6611189,20.2440955" id="Fill-8" fill="#0573BB" mask="url(#mask-6)"></path>
                        </g>
                        <path d="M19.1848377,5.92364572 C17.6442578,4.66992573 15.3894641,3.99278113 12.4252202,3.88932148 L12.4252202,7.77224727 C13.8714534,7.83744291 14.9816921,8.06069554 15.743773,8.66924937 C16.6908474,9.42604185 17.1644771,10.5728153 17.1644771,12.1103955 C17.1644771,13.769971 16.635488,14.9904279 15.577695,15.7711698 C14.5195782,16.552187 12.85903,16.9425809 10.5960041,16.9425809 L7.68596335,16.9425809 L7.68596335,12.4582586 L3.84295393,12.4582586 L3.84295393,30.633895 L7.68596335,30.633895 L7.68596335,20.6217072 L11.0572393,20.6217072 C14.4642652,20.6217072 17.0906646,19.8775776 18.9357439,18.3886303 C20.7808232,16.8999583 21.7033859,14.7583663 21.7033859,11.9639462 C21.7033859,9.30381723 20.8638852,7.29041431 19.1848377,5.92364572" id="Fill-11" fill="#0573BB"></path>
                        <polygon id="Fill-13" fill-opacity="0.65" fill="#0573BB" points="3.84296318 7.74722425 7.68592636 7.74722425 7.68592636 3.87361213 3.84296318 3.87361213"></polygon>
                        <mask id="mask-8" fill="white">
                            <use xlink:href="#path-7"></use>
                        </mask>
                        <g id="Clip-16"></g>
                        <polygon id="Fill-15" fill="#0573BB" mask="url(#mask-8)" points="3.84296318 3.87361213 7.68592636 3.87361213 7.68592636 -4.58801138e-05 3.84296318 -4.58801138e-05"></polygon>
                        <polygon id="Fill-17" fill="#0573BB" opacity="0.4" mask="url(#mask-8)" points="3.84296318 11.6208823 7.68592636 11.6208823 7.68592636 7.74722425 3.84296318 7.74722425"></polygon>
                        <polygon id="Fill-18" fill="#0573BB" opacity="0.4" mask="url(#mask-8)" points="7.68592636 7.74722425 11.5289358 7.74722425 11.5289358 3.88930313 7.68592636 3.88930313"></polygon>
                        <polygon id="Fill-19" fill="#0573BB" mask="url(#mask-8)" points="0 7.74722425 3.84296318 7.74722425 3.84296318 3.88930313 0 3.88930313"></polygon>
                    </g>
                </g>
            </g>
        </g>
    </g>
</svg>