<?xml version="1.0" encoding="UTF-8"?>
<svg width="104px" height="33px" viewBox="0 0 104 33" version="1.1" xmlns="http://www.w3.org/2000/svg" xmlns:xlink="http://www.w3.org/1999/xlink">
    <title>icon-pecos-logo</title>
    <defs>
        <polygon id="path-1" points="0.0295965 0.016983 19.4006115 0.016983 19.4006115 27 0.0295965 27"></polygon>
        <polygon id="path-3" points="0.0374085 0.026064 23.5017135 0.026064 23.5017135 27.045 0.0374085 27.045"></polygon>
        <polygon id="path-5" points="0.0323415 0.016992 16.2437265 0.016992 16.2437265 27 0.0323415 27"></polygon>
        <polygon id="path-7" points="0 30.42 103.13874 30.42 103.13874 0.01467 0 0.01467"></polygon>
    </defs>
    <g id="Page-1-Icons" stroke="none" stroke-width="1" fill="none" fill-rule="evenodd">
        <g id="PECOS-2.0-Icons-Overview-v25" transform="translate(-2694.000000, -1054.000000)">
            <g id="PECOS-logo" transform="translate(2681.000000, 1048.000000)">
                <g id="icon-pecos-logo" transform="translate(13.000000, 6.000000)">
                    <polygon id="Fill-1" fill="#FFFFFF" points="38.8535895 30.0912705 24.0066495 30.0912705 24.0066495 3.8443005 38.8535895 3.8443005 38.8535895 7.4707605 28.2973545 7.4707605 28.2973545 14.6159505 38.1892995 14.6159505 38.1892995 18.2065455 28.2973545 18.2065455 28.2973545 26.4468555 38.8535895 26.4468555"></polygon>
                    <g id="Group-20" transform="translate(0.000000, 0.030330)">
                        <g id="Group-4" transform="translate(40.995000, 3.420000)">
                            <mask id="mask-2" fill="white">
                                <use xlink:href="#path-1"></use>
                            </mask>
                            <g id="Clip-3"></g>
                            <path d="M12.6324315,1.668618 C9.3408615,1.668618 6.7498065,2.721888 4.8588615,4.828293 C2.9676015,6.935013 2.0223315,9.819198 2.0223315,13.481568 C2.0223315,17.227773 2.9137365,20.136123 4.6972665,22.206573 C6.4805715,24.277383 9.0298215,25.312428 12.3451515,25.312428 C14.5471365,25.312428 16.5700215,25.031448 18.4132215,24.468678 L18.4132215,26.084403 C16.6777515,26.694828 14.5112265,27.000018 11.9143215,27.000018 C8.2277415,27.000018 5.3256465,25.809183 3.2072265,23.427378 C1.0888065,21.045888 0.0295965,17.718408 0.0295965,13.445658 C0.0295965,10.776933 0.5349915,8.425098 1.5465465,6.390198 C2.5578765,4.355613 4.0120515,2.784753 5.9091165,1.677618 C7.8058665,0.570753 10.0113165,0.016983 12.5247015,0.016983 C15.0857415,0.016983 17.3778615,0.495783 19.4006115,1.453203 L18.6645465,3.104838 C16.7495265,2.147418 14.7388365,1.668618 12.6324315,1.668618" id="Fill-2" fill="#FFFFFF" mask="url(#mask-2)"></path>
                        </g>
                        <g id="Group-7" transform="translate(61.470000, 3.375000)">
                            <mask id="mask-4" fill="white">
                                <use xlink:href="#path-3"></use>
                            </mask>
                            <g id="Clip-6"></g>
                            <path d="M2.0301435,13.526559 C2.0301435,17.284914 2.8676835,20.190069 4.5435735,22.242609 C6.2191035,24.295509 8.6247585,25.321509 11.7605385,25.321509 C14.9202135,25.321509 17.3348685,24.304464 19.0045035,22.269564 C20.6741385,20.234934 21.5088885,17.320779 21.5088885,13.526559 C21.5088885,9.744714 20.6741385,6.845364 19.0045035,4.828419 C17.3348685,2.811789 14.9319585,1.803384 11.7964485,1.803384 C8.6726385,1.803384 6.2639685,2.820744 4.5704385,4.855374 C2.8766835,6.890229 2.0301435,9.780669 2.0301435,13.526559 M23.5017135,13.526559 C23.5017135,17.691624 22.4604135,20.985939 20.3779035,23.409549 C18.2953485,25.833159 15.4229085,27.045009 11.7605385,27.045009 C8.1099135,27.045009 5.2436835,25.833159 3.1611735,23.409549 C1.0786185,20.985939 0.0374085,17.679879 0.0374085,13.490649 C0.0374085,9.313884 1.0876185,6.025329 3.1880835,3.625614 C5.2885485,1.226169 8.1579735,0.026064 11.7964485,0.026064 C15.4588185,0.026064 18.3251835,1.231929 20.3958585,3.643524 C22.4662185,6.055434 23.5017135,9.349794 23.5017135,13.526559" id="Fill-5" fill="#FFFFFF" mask="url(#mask-4)"></path>
                        </g>
                        <g id="Group-10" transform="translate(86.895000, 3.420000)">
                            <mask id="mask-6" fill="white">
                                <use xlink:href="#path-5"></use>
                            </mask>
                            <g id="Clip-9"></g>
                            <path d="M16.2437265,19.872747 C16.2437265,22.062987 15.4387215,23.798457 13.8290715,25.079022 C12.2191065,26.359902 10.0798065,27.000027 7.4109465,27.000027 C4.2032115,27.000027 1.7436465,26.646867 0.0323415,25.940817 L0.0323415,24.109587 C1.9231965,24.911577 4.3349265,25.312437 7.2673065,25.312437 C9.4216365,25.312437 11.1300615,24.818742 12.3928515,23.831352 C13.6553265,22.843917 14.2869015,21.548592 14.2869015,19.944567 C14.2869015,18.951192 14.0772015,18.128547 13.6585215,17.476047 C13.2395265,16.823817 12.5573265,16.228332 11.6118765,15.689772 C10.6662015,15.151167 9.2780415,14.570757 7.4469015,13.948362 C4.7658465,13.026807 2.9137815,12.030417 1.8904815,10.959192 C0.8671815,9.888237 0.3555315,8.461017 0.3555315,6.677442 C0.3555315,4.714677 1.1243115,3.113847 2.6624115,1.875087 C4.2002865,0.636327 6.1779915,0.016992 8.5958415,0.016992 C11.0611665,0.016992 13.3770915,0.483732 15.5435715,1.417302 L14.8793265,2.997117 C12.7009215,2.087757 10.6184115,1.632717 8.6317515,1.632717 C6.6928365,1.632717 5.1488865,2.081547 3.9999465,2.979162 C2.8509615,3.876822 2.2764465,5.097627 2.2764465,6.641532 C2.2764465,7.611012 2.4528015,8.407152 2.8060965,9.029277 C3.1590315,9.651672 3.7364715,10.211382 4.5385065,10.707867 C5.3403165,11.204577 6.7165965,11.800197 8.6676615,12.494142 C10.7142615,13.200552 12.2521365,13.885497 13.2815115,14.549742 C14.3106165,15.214032 15.0617115,15.968052 15.5345715,16.811802 C16.0071615,17.655552 16.2437265,18.676107 16.2437265,19.872747" id="Fill-8" fill="#FFFFFF" mask="url(#mask-6)"></path>
                        </g>
                        <path d="M18.666981,5.824683 C17.167986,4.595013 14.974056,3.930858 12.089826,3.829383 L12.089826,7.637823 C13.497021,7.701768 14.577291,7.920738 15.318801,8.517618 C16.240311,9.259893 16.701156,10.384668 16.701156,11.892753 C16.701156,13.520493 16.186446,14.717538 15.157206,15.483303 C14.127651,16.249338 12.511926,16.632243 10.309986,16.632243 L7.478496,16.632243 L7.478496,12.233943 L3.739221,12.233943 L3.739221,30.060918 L7.478496,30.060918 L7.478496,20.240793 L10.758771,20.240793 C14.073831,20.240793 16.629336,19.510938 18.424611,18.050553 C20.219886,16.590438 21.117546,14.489928 21.117546,11.749113 C21.117546,9.140013 20.300706,7.165233 18.666981,5.824683" id="Fill-11" fill="#FFFFFF"></path>
                        <polygon id="Fill-13" fill="#6FA4D3" points="3.73923 7.61328 7.47846 7.61328 7.47846 3.813975 3.73923 3.813975"></polygon>
                        <mask id="mask-8" fill="white">
                            <use xlink:href="#path-7"></use>
                        </mask>
                        <g id="Clip-16"></g>
                        <polygon id="Fill-15" fill="#FFFFFF" mask="url(#mask-8)" points="3.73923 3.813975 7.47846 3.813975 7.47846 0.014625 3.73923 0.014625"></polygon>
                        <polygon id="Fill-17" fill="#A8C8E5" mask="url(#mask-8)" points="3.73923 11.41263 7.47846 11.41263 7.47846 7.61328 3.73923 7.61328"></polygon>
                        <polygon id="Fill-18" fill="#A8C8E5" mask="url(#mask-8)" points="7.47846 7.61328 11.217735 7.61328 11.217735 3.829365 7.47846 3.829365"></polygon>
                        <polygon id="Fill-19" fill="#FFFFFF" mask="url(#mask-8)" points="0 7.61328 3.73923 7.61328 3.73923 3.829365 0 3.829365"></polygon>
                    </g>
                </g>
            </g>
        </g>
    </g>
</svg>