<?xml version="1.0" encoding="UTF-8"?>
<svg width="217px" height="48px" viewBox="0 0 217 48" version="1.1" xmlns="http://www.w3.org/2000/svg" xmlns:xlink="http://www.w3.org/1999/xlink">
    <title>logo-pecos-blue-with full-name-right</title>
    <defs>
        <polygon id="path-1" points="0 0 19.9084029 0 19.9084029 27.5107531 0 27.5107531"></polygon>
        <polygon id="path-3" points="0 0 24.1152484 0 24.1152484 27.5473746 0 27.5473746"></polygon>
        <polygon id="path-5" points="0 0 16.6611189 0 16.6611189 27.5107439 0 27.5107439"></polygon>
        <polygon id="path-7" points="0 31 106 31 106 0 0 0"></polygon>
    </defs>
    <g id="Page-1-Icons" stroke="none" stroke-width="1" fill="none" fill-rule="evenodd">
        <g id="PECOS-2.0-Icons-Overview-v25" transform="translate(-2681.000000, -909.000000)">
            <g id="logo-pecos-blue-with-full-name-right" transform="translate(2681.000000, 909.000000)">
                <g id="PECOS-logo-on-white" transform="translate(110.237305, 0.000000)">
                    <polygon id="Fill-1" fill="#0573BB" points="39.9314602 30.633918 24.6726385 30.633918 24.6726385 3.87360754 39.9314602 3.87360754 39.9314602 7.57099415 29.0823756 7.57099415 29.0823756 14.8559304 39.2487415 14.8559304 39.2487415 18.5167505 29.0823756 18.5167505 29.0823756 26.9182252 39.9314602 26.9182252"></polygon>
                    <g id="Group-20">
                        <g id="Group-4" transform="translate(42.162695, 3.489247)">
                            <mask id="mask-2" fill="white">
                                <use xlink:href="#path-1"></use>
                            </mask>
                            <g id="Clip-3"></g>
                            <path d="M12.952461,1.68393782 C9.56957677,1.68393782 6.90664109,2.75780776 4.96323777,4.90541001 C3.01951071,7.05333341 2.04801717,9.99392754 2.04801717,13.7279265 C2.04801717,17.5474001 2.96415139,20.5126318 4.79715983,22.6235759 C6.62993701,24.7348869 9.24990794,25.7901754 12.6572113,25.7901754 C14.9202835,25.7901754 16.9992871,25.5037 18.8936209,24.9299233 L18.8936209,26.5772488 C17.1100057,27.1996125 14.8833773,27.5107715 12.2144293,27.5107715 C8.42557675,27.5107715 5.44297225,26.296646 3.26578335,23.8682575 C1.08859445,21.4401901 0,18.047631 0,13.6913142 C0,10.970394 0.519415595,8.57256162 1.55903301,6.49786287 C2.59841918,4.42348529 4.09293569,2.82190228 6.04262879,1.69311384 C7.99199816,0.56460068 10.2586314,0 12.8417424,0 C15.4738304,0 17.8295381,0.488164411 19.9084029,1.46430971 L19.1519181,3.14824753 C17.1837719,2.17210223 15.1173016,1.68393782 12.952461,1.68393782" id="Fill-2" fill="#0573BB" mask="url(#mask-2)"></path>
                        </g>
                        <g id="Group-7" transform="translate(63.213738, 3.452625)">
                            <mask id="mask-4" fill="white">
                                <use xlink:href="#path-3"></use>
                            </mask>
                            <g id="Clip-6"></g>
                            <path d="M2.04801717,13.7645388 C2.04801717,17.5964 2.90879208,20.5583743 4.63117438,22.6510581 C6.35318669,24.7441088 8.82557902,25.7901754 12.0483514,25.7901754 C15.2956816,25.7901754 17.7773236,24.753239 19.4932774,22.6785402 C21.2092312,20.6041168 22.0671387,17.6329665 22.0671387,13.7645388 C22.0671387,9.90872817 21.2092312,6.95267244 19.4932774,4.89627986 C17.7773236,2.84020844 15.3077525,1.81208097 12.0852576,1.81208097 C8.8747873,1.81208097 6.39929633,2.84933859 4.65878466,4.92376205 C2.91804176,6.99841492 2.04801717,9.94538638 2.04801717,13.7645388 M24.1152484,13.7645388 C24.1152484,18.0110645 23.0450608,21.36981 20.9047781,23.8408212 C18.7644491,26.3118323 15.8123223,27.5473838 12.0483514,27.5473838 C8.29645127,27.5473838 5.35070673,26.3118323 3.21042404,23.8408212 C1.0700951,21.36981 0,17.9990898 0,13.7279265 C0,9.46947196 1.07934477,6.11659913 3.23808057,3.6699503 C5.39681637,1.22357675 8.34584454,0 12.0852576,0 C15.8492285,0 18.7951118,1.22944941 20.9232312,3.68821059 C23.0510268,6.14729293 24.1152484,9.5060843 24.1152484,13.7645388" id="Fill-5" fill="#0573BB" mask="url(#mask-4)"></path>
                        </g>
                        <g id="Group-10" transform="translate(89.338867, 3.489256)">
                            <mask id="mask-6" fill="white">
                                <use xlink:href="#path-5"></use>
                            </mask>
                            <g id="Clip-9"></g>
                            <path d="M16.6611189,20.2440955 C16.6611189,22.4771724 15.8337816,24.2465849 14.1794769,25.5521953 C12.5248485,26.8581268 10.3262003,27.5107715 7.58330119,27.5107715 C4.28657767,27.5107715 1.75877978,27.1507043 0,26.4308453 L0,24.5638 C1.94331083,25.3814754 4.42194669,25.7901754 7.43567635,25.7901754 C9.64977146,25.7901754 11.4055913,25.2868247 12.7034135,24.2801233 C14.0009119,23.2733759 14.6500079,21.9527168 14.6500079,20.3173202 C14.6500079,19.3045167 14.4344905,18.4657823 14.0041955,17.8005207 C13.5735768,17.1355343 12.8724513,16.5284028 11.9007728,15.9793095 C10.928863,15.4301705 9.50219287,14.8384088 7.62025365,14.2038409 C4.86482121,13.2642621 2.96137649,12.2483846 1.90968825,11.1562085 C0.85800001,10.0643076 0.33215589,8.60917395 0.33215589,6.79071564 C0.33215589,4.78956272 1.12226327,3.15742355 2.70303302,1.89443578 C4.28357153,0.631448006 6.31614173,0 8.80106738,0 C11.3347851,0 13.7149581,0.47586854 15.9415403,1.42769738 L15.2588679,3.03841054 C13.0200299,2.1112652 10.8797472,1.64732549 8.83797359,1.64732549 C6.84526949,1.64732549 5.25848745,2.10493374 4.07767372,3.02010437 C2.89681375,3.93532088 2.30636064,5.18000249 2.30636064,6.75410331 C2.30636064,7.74254448 2.48760805,8.55425545 2.85070411,9.18854803 C3.21343018,9.82311588 3.80688944,10.3937727 4.63117438,10.899968 C5.45522807,11.4063927 6.86968863,12.0136619 8.8748798,12.7211791 C10.9782563,13.4414052 12.5587948,14.1397464 13.6167266,14.8169827 C14.6743808,15.494265 15.4463126,16.2630322 15.9322906,17.1232843 C16.4179911,17.9835364 16.6611189,19.0240515 16.6611189,20.2440955" id="Fill-8" fill="#0573BB" mask="url(#mask-6)"></path>
                        </g>
                        <path d="M19.1848377,5.92364572 C17.6442578,4.66992573 15.3894641,3.99278113 12.4252202,3.88932148 L12.4252202,7.77224727 C13.8714534,7.83744291 14.9816921,8.06069554 15.743773,8.66924937 C16.6908474,9.42604185 17.1644771,10.5728153 17.1644771,12.1103955 C17.1644771,13.769971 16.635488,14.9904279 15.577695,15.7711698 C14.5195782,16.552187 12.85903,16.9425809 10.5960041,16.9425809 L7.68596335,16.9425809 L7.68596335,12.4582586 L3.84295393,12.4582586 L3.84295393,30.633895 L7.68596335,30.633895 L7.68596335,20.6217072 L11.0572393,20.6217072 C14.4642652,20.6217072 17.0906646,19.8775776 18.9357439,18.3886303 C20.7808232,16.8999583 21.7033859,14.7583663 21.7033859,11.9639462 C21.7033859,9.30381723 20.8638852,7.29041431 19.1848377,5.92364572" id="Fill-11" fill="#0573BB"></path>
                        <polygon id="Fill-13" fill-opacity="0.65" fill="#0573BB" points="3.84296318 7.74722425 7.68592636 7.74722425 7.68592636 3.87361213 3.84296318 3.87361213"></polygon>
                        <mask id="mask-8" fill="white">
                            <use xlink:href="#path-7"></use>
                        </mask>
                        <g id="Clip-16"></g>
                        <polygon id="Fill-15" fill="#0573BB" mask="url(#mask-8)" points="3.84296318 3.87361213 7.68592636 3.87361213 7.68592636 -4.58801138e-05 3.84296318 -4.58801138e-05"></polygon>
                        <polygon id="Fill-17" fill="#0573BB" opacity="0.4" mask="url(#mask-8)" points="3.84296318 11.6208823 7.68592636 11.6208823 7.68592636 7.74722425 3.84296318 7.74722425"></polygon>
                        <polygon id="Fill-18" fill="#0573BB" opacity="0.4" mask="url(#mask-8)" points="7.68592636 7.74722425 11.5289358 7.74722425 11.5289358 3.88930313 7.68592636 3.88930313"></polygon>
                        <polygon id="Fill-19" fill="#0573BB" mask="url(#mask-8)" points="0 7.74722425 3.84296318 7.74722425 3.84296318 3.88930313 0 3.88930313"></polygon>
                    </g>
                </g>
                <path d="M1.05029297,45 L1.05029297,42.5961914 L1.71826172,42.5961914 C2.52978516,42.5961914 3.15527344,42.4174805 3.59472656,42.0600586 C4.03417969,41.7026367 4.25390625,41.1884766 4.25390625,40.5175781 C4.25390625,39.8789062 4.05395508,39.3955078 3.65405273,39.0673828 C3.25415039,38.7392578 2.65283203,38.5751953 1.85009766,38.5751953 L1.85009766,38.5751953 L0,38.5751953 L0,45 L1.05029297,45 Z M1.60839844,41.7128906 L1.05029297,41.7128906 L1.05029297,39.4541016 L1.77978516,39.4541016 C2.25732422,39.4541016 2.60888672,39.5449219 2.83447266,39.7265625 C3.06005859,39.9082031 3.17285156,40.1835938 3.17285156,40.5527344 C3.17285156,40.9511719 3.046875,41.2441406 2.79492188,41.4316406 C2.54296875,41.6191406 2.14746094,41.7128906 1.60839844,41.7128906 L1.60839844,41.7128906 Z M6.45996094,45 L6.45996094,42.4599609 C6.45996094,42.0292969 6.58813477,41.6791992 6.84448242,41.409668 C7.10083008,41.1401367 7.43554688,41.0053711 7.84863281,41.0053711 C8.00683594,41.0053711 8.15917969,41.0229492 8.30566406,41.0581055 L8.30566406,41.0581055 L8.40673828,40.0957031 C8.27197266,40.0664062 8.10058594,40.0517578 7.89257812,40.0517578 C7.59375,40.0517578 7.31469727,40.1367188 7.05541992,40.3066406 C6.79614258,40.4765625 6.5859375,40.706543 6.42480469,40.996582 L6.42480469,40.996582 L6.37207031,40.996582 L6.23583984,40.1396484 L5.42724609,40.1396484 L5.42724609,45 L6.45996094,45 Z M11.3071289,45.0878906 C12.0336914,45.0878906 12.6005859,44.8652344 13.0078125,44.4199219 C13.4150391,43.9746094 13.6186523,43.3549805 13.6186523,42.5610352 C13.6186523,41.793457 13.4135742,41.1833496 13.003418,40.7307129 C12.5932617,40.2780762 12.0366211,40.0517578 11.3334961,40.0517578 C10.5981445,40.0517578 10.0283203,40.2729492 9.62402344,40.715332 C9.21972656,41.1577148 9.01757812,41.7729492 9.01757812,42.5610352 C9.01757812,43.0678711 9.11132812,43.5131836 9.29882812,43.8969727 C9.48632812,44.2807617 9.75439453,44.5751953 10.1030273,44.7802734 C10.4516602,44.9853516 10.8530273,45.0878906 11.3071289,45.0878906 Z M11.324707,44.2441406 C10.4956055,44.2441406 10.0810547,43.6831055 10.0810547,42.5610352 C10.0810547,42.0249023 10.1784668,41.6132812 10.373291,41.3261719 C10.5681152,41.0390625 10.8823242,40.8955078 11.315918,40.8955078 C12.1420898,40.8955078 12.5551758,41.4506836 12.5551758,42.5610352 C12.5551758,43.6831055 12.1450195,44.2441406 11.324707,44.2441406 Z M17.0288086,45 L18.8833008,40.1396484 L17.784668,40.1396484 L16.7958984,42.965332 C16.6171875,43.5219727 16.5146484,43.9057617 16.4882812,44.1166992 L16.4882812,44.1166992 L16.453125,44.1166992 C16.4179688,43.8237305 16.3154297,43.4399414 16.1455078,42.965332 L16.1455078,42.965332 L15.1567383,40.1396484 L14.0668945,40.1396484 L15.9125977,45 L17.0288086,45 Z M20.1445312,39.4189453 C20.3261719,39.4189453 20.4675293,39.3684082 20.5686035,39.267334 C20.6696777,39.1662598 20.7202148,39.027832 20.7202148,38.8520508 C20.7202148,38.6674805 20.6696777,38.5253906 20.5686035,38.4257812 C20.4675293,38.3261719 20.3261719,38.2763672 20.1445312,38.2763672 C19.9570312,38.2763672 19.8127441,38.3261719 19.7116699,38.4257812 C19.6105957,38.5253906 19.5600586,38.6674805 19.5600586,38.8520508 C19.5600586,39.027832 19.6105957,39.1662598 19.7116699,39.267334 C19.8127441,39.3684082 19.9570312,39.4189453 20.1445312,39.4189453 Z M20.6542969,45 L20.6542969,40.1396484 L19.621582,40.1396484 L19.621582,45 L20.6542969,45 Z M23.7700195,45.0878906 C24.4086914,45.0878906 24.8935547,44.8461914 25.2246094,44.362793 L25.2246094,44.362793 L25.2729492,44.362793 L25.453125,45 L26.2617188,45 L26.2617188,38.1621094 L25.2246094,38.1621094 L25.2246094,39.9331055 C25.2246094,40.1352539 25.2495117,40.4106445 25.2993164,40.7592773 L25.2993164,40.7592773 L25.246582,40.7592773 C24.9125977,40.2875977 24.4262695,40.0517578 23.7875977,40.0517578 C23.1782227,40.0517578 22.701416,40.2736816 22.3571777,40.7175293 C22.0129395,41.161377 21.8408203,41.7817383 21.8408203,42.5786133 C21.8408203,43.3725586 22.0107422,43.9892578 22.3505859,44.4287109 C22.6904297,44.8681641 23.1635742,45.0878906 23.7700195,45.0878906 Z M24.046875,44.2529297 C23.6660156,44.2529297 23.3803711,44.1115723 23.1899414,43.8288574 C22.9995117,43.5461426 22.9042969,43.1352539 22.9042969,42.5961914 C22.9042969,42.0512695 23.0024414,41.6315918 23.1987305,41.3371582 C23.3950195,41.0427246 23.6748047,40.8955078 24.0380859,40.8955078 C24.4628906,40.8955078 24.7749023,41.0244141 24.9741211,41.2822266 C25.1733398,41.5400391 25.2729492,41.9750977 25.2729492,42.5874023 L25.2729492,42.5874023 L25.2729492,42.7324219 C25.2670898,43.2685547 25.1674805,43.6560059 24.9741211,43.8947754 C24.7807617,44.1335449 24.4716797,44.2529297 24.046875,44.2529297 Z M29.8608398,45.0878906 C30.1918945,45.0878906 30.4863281,45.0629883 30.7441406,45.0131836 C31.0019531,44.9633789 31.2568359,44.878418 31.5087891,44.7583008 L31.5087891,44.7583008 L31.5087891,43.9189453 C31.2246094,44.0449219 30.9587402,44.1350098 30.7111816,44.189209 C30.463623,44.2434082 30.1962891,44.2705078 29.9091797,44.2705078 C29.4726562,44.2705078 29.1342773,44.1437988 28.894043,43.8903809 C28.6538086,43.6369629 28.5263672,43.2744141 28.5117188,42.8027344 L28.5117188,42.8027344 L31.7504883,42.8027344 L31.7504883,42.2446289 C31.7504883,41.5620117 31.5644531,41.0258789 31.1923828,40.6362305 C30.8203125,40.246582 30.3134766,40.0517578 29.671875,40.0517578 C28.9804688,40.0517578 28.4370117,40.2788086 28.0415039,40.7329102 C27.6459961,41.1870117 27.4482422,41.8110352 27.4482422,42.6049805 C27.4482422,43.378418 27.661377,43.9855957 28.0876465,44.4265137 C28.513916,44.8674316 29.1049805,45.0878906 29.8608398,45.0878906 Z M30.7353516,42.0556641 L28.5292969,42.0556641 C28.5673828,41.6572266 28.6853027,41.3540039 28.8830566,41.1459961 C29.0808105,40.9379883 29.34375,40.8339844 29.671875,40.8339844 C30,40.8339844 30.2578125,40.9372559 30.4453125,41.1437988 C30.6328125,41.3503418 30.7294922,41.6542969 30.7353516,42.0556641 L30.7353516,42.0556641 Z M33.956543,45 L33.956543,42.4599609 C33.956543,42.0292969 34.0847168,41.6791992 34.3410645,41.409668 C34.5974121,41.1401367 34.9321289,41.0053711 35.3452148,41.0053711 C35.503418,41.0053711 35.6557617,41.0229492 35.8022461,41.0581055 L35.8022461,41.0581055 L35.9033203,40.0957031 C35.7685547,40.0664062 35.597168,40.0517578 35.3891602,40.0517578 C35.090332,40.0517578 34.8112793,40.1367188 34.552002,40.3066406 C34.2927246,40.4765625 34.0825195,40.706543 33.9213867,40.996582 L33.9213867,40.996582 L33.8686523,40.996582 L33.7324219,40.1396484 L32.9238281,40.1396484 L32.9238281,45 L33.956543,45 Z M42.8862305,45 L42.8862305,44.1079102 L40.3022461,44.1079102 L40.3022461,42.0908203 L42.7236328,42.0908203 L42.7236328,41.2119141 L40.3022461,41.2119141 L40.3022461,39.4628906 L42.8862305,39.4628906 L42.8862305,38.5751953 L39.2519531,38.5751953 L39.2519531,45 L42.8862305,45 Z M45.1977539,45 L45.1977539,42.5786133 C45.1977539,41.972168 45.2988281,41.5400391 45.5009766,41.2822266 C45.703125,41.0244141 46.0224609,40.8955078 46.4589844,40.8955078 C46.7871094,40.8955078 47.0266113,40.987793 47.1774902,41.1723633 C47.3283691,41.3569336 47.4038086,41.6367188 47.4038086,42.0117188 L47.4038086,42.0117188 L47.4038086,45 L48.440918,45 L48.440918,41.831543 C48.440918,40.6450195 47.8579102,40.0517578 46.6918945,40.0517578 C46.3637695,40.0517578 46.0649414,40.1147461 45.7954102,40.2407227 C45.5258789,40.3666992 45.3178711,40.5454102 45.1713867,40.7768555 L45.1713867,40.7768555 L45.1186523,40.7768555 L44.9736328,40.1396484 L44.1650391,40.1396484 L44.1650391,45 L45.1977539,45 Z M50.9106445,45 L50.9106445,42.4599609 C50.9106445,42.0292969 51.0388184,41.6791992 51.295166,41.409668 C51.5515137,41.1401367 51.8862305,41.0053711 52.2993164,41.0053711 C52.4575195,41.0053711 52.6098633,41.0229492 52.7563477,41.0581055 L52.7563477,41.0581055 L52.8574219,40.0957031 C52.7226562,40.0664062 52.5512695,40.0517578 52.3432617,40.0517578 C52.0444336,40.0517578 51.7653809,40.1367188 51.5061035,40.3066406 C51.2468262,40.4765625 51.0366211,40.706543 50.8754883,40.996582 L50.8754883,40.996582 L50.8227539,40.996582 L50.6865234,40.1396484 L49.8779297,40.1396484 L49.8779297,45 L50.9106445,45 Z M55.7578125,45.0878906 C56.484375,45.0878906 57.0512695,44.8652344 57.4584961,44.4199219 C57.8657227,43.9746094 58.0693359,43.3549805 58.0693359,42.5610352 C58.0693359,41.793457 57.8642578,41.1833496 57.4541016,40.7307129 C57.0439453,40.2780762 56.4873047,40.0517578 55.7841797,40.0517578 C55.0488281,40.0517578 54.4790039,40.2729492 54.074707,40.715332 C53.6704102,41.1577148 53.4682617,41.7729492 53.4682617,42.5610352 C53.4682617,43.0678711 53.5620117,43.5131836 53.7495117,43.8969727 C53.9370117,44.2807617 54.2050781,44.5751953 54.5537109,44.7802734 C54.9023438,44.9853516 55.3037109,45.0878906 55.7578125,45.0878906 Z M55.7753906,44.2441406 C54.9462891,44.2441406 54.5317383,43.6831055 54.5317383,42.5610352 C54.5317383,42.0249023 54.6291504,41.6132812 54.8239746,41.3261719 C55.0187988,41.0390625 55.3330078,40.8955078 55.7666016,40.8955078 C56.5927734,40.8955078 57.0058594,41.4506836 57.0058594,42.5610352 C57.0058594,43.6831055 56.5957031,44.2441406 55.7753906,44.2441406 Z M60.2885742,45 L60.2885742,38.1621094 L59.2558594,38.1621094 L59.2558594,45 L60.2885742,45 Z M62.7978516,45 L62.7978516,38.1621094 L61.7651367,38.1621094 L61.7651367,45 L62.7978516,45 Z M65.3071289,45 L65.3071289,42.5786133 C65.3071289,41.9750977 65.4001465,41.5437012 65.5861816,41.2844238 C65.7722168,41.0251465 66.0644531,40.8955078 66.4628906,40.8955078 C66.7617188,40.8955078 66.9814453,40.9870605 67.1220703,41.170166 C67.2626953,41.3532715 67.3330078,41.6308594 67.3330078,42.0029297 L67.3330078,42.0029297 L67.3330078,45 L68.3701172,45 L68.3701172,42.4248047 C68.3701172,41.90625 68.4631348,41.5217285 68.6491699,41.2712402 C68.8352051,41.020752 69.1289062,40.8955078 69.5302734,40.8955078 C69.8291016,40.8955078 70.0495605,40.9870605 70.1916504,41.170166 C70.3337402,41.3532715 70.4047852,41.6308594 70.4047852,42.0029297 L70.4047852,42.0029297 L70.4047852,45 L71.4375,45 L71.4375,41.831543 C71.4375,41.230957 71.3049316,40.7841797 71.0397949,40.4912109 C70.7746582,40.1982422 70.3520508,40.0517578 69.7719727,40.0517578 C69.4350586,40.0517578 69.1362305,40.1191406 68.8754883,40.2539062 C68.6147461,40.3886719 68.4125977,40.5761719 68.269043,40.8164062 L68.269043,40.8164062 L68.1987305,40.8164062 C67.9555664,40.3066406 67.4604492,40.0517578 66.7133789,40.0517578 C66.4057617,40.0517578 66.1237793,40.1147461 65.8674316,40.2407227 C65.611084,40.3666992 65.4155273,40.5454102 65.2807617,40.7768555 L65.2807617,40.7768555 L65.2280273,40.7768555 L65.0830078,40.1396484 L64.2744141,40.1396484 L64.2744141,45 L65.3071289,45 Z M75.0014648,45.0878906 C75.3325195,45.0878906 75.6269531,45.0629883 75.8847656,45.0131836 C76.1425781,44.9633789 76.3974609,44.878418 76.6494141,44.7583008 L76.6494141,44.7583008 L76.6494141,43.9189453 C76.3652344,44.0449219 76.0993652,44.1350098 75.8518066,44.189209 C75.604248,44.2434082 75.3369141,44.2705078 75.0498047,44.2705078 C74.6132812,44.2705078 74.2749023,44.1437988 74.034668,43.8903809 C73.7944336,43.6369629 73.6669922,43.2744141 73.6523438,42.8027344 L73.6523438,42.8027344 L76.8911133,42.8027344 L76.8911133,42.2446289 C76.8911133,41.5620117 76.7050781,41.0258789 76.3330078,40.6362305 C75.9609375,40.246582 75.4541016,40.0517578 74.8125,40.0517578 C74.1210938,40.0517578 73.5776367,40.2788086 73.1821289,40.7329102 C72.7866211,41.1870117 72.5888672,41.8110352 72.5888672,42.6049805 C72.5888672,43.378418 72.802002,43.9855957 73.2282715,44.4265137 C73.654541,44.8674316 74.2456055,45.0878906 75.0014648,45.0878906 Z M75.8759766,42.0556641 L73.6699219,42.0556641 C73.7080078,41.6572266 73.8259277,41.3540039 74.0236816,41.1459961 C74.2214355,40.9379883 74.484375,40.8339844 74.8125,40.8339844 C75.140625,40.8339844 75.3984375,40.9372559 75.5859375,41.1437988 C75.7734375,41.3503418 75.8701172,41.6542969 75.8759766,42.0556641 L75.8759766,42.0556641 Z M79.097168,45 L79.097168,42.5786133 C79.097168,41.972168 79.1982422,41.5400391 79.4003906,41.2822266 C79.6025391,41.0244141 79.921875,40.8955078 80.3583984,40.8955078 C80.6865234,40.8955078 80.9260254,40.987793 81.0769043,41.1723633 C81.2277832,41.3569336 81.3032227,41.6367188 81.3032227,42.0117188 L81.3032227,42.0117188 L81.3032227,45 L82.340332,45 L82.340332,41.831543 C82.340332,40.6450195 81.7573242,40.0517578 80.5913086,40.0517578 C80.2631836,40.0517578 79.9643555,40.1147461 79.6948242,40.2407227 C79.425293,40.3666992 79.2172852,40.5454102 79.0708008,40.7768555 L79.0708008,40.7768555 L79.0180664,40.7768555 L78.8730469,40.1396484 L78.0644531,40.1396484 L78.0644531,45 L79.097168,45 Z M85.3417969,45.0878906 C85.5351562,45.0878906 85.7219238,45.0710449 85.9020996,45.0373535 C86.0822754,45.0036621 86.2294922,44.9619141 86.34375,44.9121094 L86.34375,44.9121094 L86.34375,44.1342773 C86.0917969,44.2133789 85.8398438,44.2529297 85.5878906,44.2529297 C85.3857422,44.2529297 85.2224121,44.1936035 85.0979004,44.0749512 C84.9733887,43.9562988 84.9111328,43.7724609 84.9111328,43.5234375 L84.9111328,43.5234375 L84.9111328,40.921875 L86.2954102,40.921875 L86.2954102,40.1396484 L84.9111328,40.1396484 L84.9111328,39.0585938 L84.2739258,39.0585938 L83.9223633,40.0869141 L83.2104492,40.4648438 L83.2104492,40.921875 L83.8740234,40.921875 L83.8740234,43.5410156 C83.8740234,44.5722656 84.3632812,45.0878906 85.3417969,45.0878906 Z M92.3686523,45.0878906 C93.0073242,45.0878906 93.5786133,44.9926758 94.0825195,44.8022461 L94.0825195,44.8022461 L94.0825195,43.9013672 C93.8071289,43.9863281 93.5419922,44.0559082 93.2871094,44.1101074 C93.0322266,44.1643066 92.7685547,44.1914062 92.4960938,44.1914062 C91.8662109,44.1914062 91.3850098,43.9892578 91.0524902,43.5849609 C90.7199707,43.1806641 90.5537109,42.5844727 90.5537109,41.7963867 C90.5537109,41.043457 90.7265625,40.453125 91.0722656,40.0253906 C91.4179688,39.5976562 91.8925781,39.3837891 92.4960938,39.3837891 C92.7626953,39.3837891 93.0168457,39.4226074 93.2585449,39.5002441 C93.5002441,39.5778809 93.7294922,39.6679688 93.9462891,39.7705078 L93.9462891,39.7705078 L94.3242188,38.8959961 C93.7675781,38.6206055 93.1611328,38.4829102 92.5048828,38.4829102 C91.8808594,38.4829102 91.3374023,38.6162109 90.8745117,38.8828125 C90.4116211,39.1494141 90.0578613,39.5332031 89.8132324,40.0341797 C89.5686035,40.5351562 89.4462891,41.1196289 89.4462891,41.7875977 C89.4462891,42.8481445 89.6982422,43.6633301 90.2021484,44.2331543 C90.7060547,44.8029785 91.4282227,45.0878906 92.3686523,45.0878906 Z M96.3896484,45 L96.3896484,42.5874023 C96.3896484,41.9780273 96.4914551,41.5437012 96.6950684,41.2844238 C96.8986816,41.0251465 97.2172852,40.8955078 97.6508789,40.8955078 C97.9790039,40.8955078 98.2185059,40.987793 98.3693848,41.1723633 C98.5202637,41.3569336 98.5957031,41.6367188 98.5957031,42.0117188 L98.5957031,42.0117188 L98.5957031,45 L99.6328125,45 L99.6328125,41.831543 C99.6328125,40.6450195 99.0439453,40.0517578 97.8662109,40.0517578 C97.5322266,40.0517578 97.2399902,40.1162109 96.989502,40.2451172 C96.7390137,40.3740234 96.543457,40.5556641 96.402832,40.7900391 L96.402832,40.7900391 L96.3369141,40.7900391 C96.3720703,40.4736328 96.3896484,40.1762695 96.3896484,39.8979492 L96.3896484,39.8979492 L96.3896484,38.1621094 L95.3569336,38.1621094 L95.3569336,45 L96.3896484,45 Z M102.247559,45.0878906 C102.619629,45.0878906 102.924316,45.0344238 103.161621,44.9274902 C103.398926,44.8205566 103.634766,44.6191406 103.869141,44.3232422 L103.869141,44.3232422 L103.904297,44.3232422 L104.11084,45 L104.849121,45 L104.849121,41.7260742 C104.849121,41.1489258 104.69165,40.7255859 104.376709,40.4560547 C104.061768,40.1865234 103.595215,40.0517578 102.977051,40.0517578 C102.69873,40.0517578 102.402832,40.0876465 102.089355,40.1594238 C101.775879,40.2312012 101.487305,40.3359375 101.223633,40.4736328 L101.223633,40.4736328 L101.557617,41.2119141 C101.768555,41.1123047 101.988281,41.0258789 102.216797,40.9526367 C102.445312,40.8793945 102.684082,40.8427734 102.933105,40.8427734 C103.237793,40.8427734 103.462646,40.9196777 103.607666,41.0734863 C103.752686,41.2272949 103.825195,41.4594727 103.825195,41.7700195 L103.825195,41.7700195 L103.825195,42.0292969 L102.98584,42.0556641 C102.224121,42.0791016 101.657227,42.2182617 101.285156,42.4731445 C100.913086,42.7280273 100.727051,43.105957 100.727051,43.6069336 C100.727051,44.0786133 100.861084,44.4433594 101.12915,44.7011719 C101.397217,44.9589844 101.77002,45.0878906 102.247559,45.0878906 Z M102.572754,44.296875 C102.314941,44.296875 102.121582,44.2375488 101.992676,44.1188965 C101.86377,44.0002441 101.799316,43.8325195 101.799316,43.6157227 C101.799316,43.3168945 101.909912,43.0949707 102.131104,42.9499512 C102.352295,42.8049316 102.706055,42.7236328 103.192383,42.7060547 L103.192383,42.7060547 L103.816406,42.6796875 L103.816406,43.1015625 C103.816406,43.4794922 103.702881,43.7731934 103.47583,43.982666 C103.248779,44.1921387 102.947754,44.296875 102.572754,44.296875 Z M106.813477,39.4189453 C106.995117,39.4189453 107.136475,39.3684082 107.237549,39.267334 C107.338623,39.1662598 107.38916,39.027832 107.38916,38.8520508 C107.38916,38.6674805 107.338623,38.5253906 107.237549,38.4257812 C107.136475,38.3261719 106.995117,38.2763672 106.813477,38.2763672 C106.625977,38.2763672 106.481689,38.3261719 106.380615,38.4257812 C106.279541,38.5253906 106.229004,38.6674805 106.229004,38.8520508 C106.229004,39.027832 106.279541,39.1662598 106.380615,39.267334 C106.481689,39.3684082 106.625977,39.4189453 106.813477,39.4189453 Z M107.323242,45 L107.323242,40.1396484 L106.290527,40.1396484 L106.290527,45 L107.323242,45 Z M109.83252,45 L109.83252,42.5786133 C109.83252,41.972168 109.933594,41.5400391 110.135742,41.2822266 C110.337891,41.0244141 110.657227,40.8955078 111.09375,40.8955078 C111.421875,40.8955078 111.661377,40.987793 111.812256,41.1723633 C111.963135,41.3569336 112.038574,41.6367188 112.038574,42.0117188 L112.038574,42.0117188 L112.038574,45 L113.075684,45 L113.075684,41.831543 C113.075684,40.6450195 112.492676,40.0517578 111.32666,40.0517578 C110.998535,40.0517578 110.699707,40.1147461 110.430176,40.2407227 C110.160645,40.3666992 109.952637,40.5454102 109.806152,40.7768555 L109.806152,40.7768555 L109.753418,40.7768555 L109.608398,40.1396484 L108.799805,40.1396484 L108.799805,45 L109.83252,45 Z M118.02832,45.0878906 C118.400391,45.0878906 118.705078,45.0344238 118.942383,44.9274902 C119.179688,44.8205566 119.415527,44.6191406 119.649902,44.3232422 L119.649902,44.3232422 L119.685059,44.3232422 L119.891602,45 L120.629883,45 L120.629883,41.7260742 C120.629883,41.1489258 120.472412,40.7255859 120.157471,40.4560547 C119.842529,40.1865234 119.375977,40.0517578 118.757812,40.0517578 C118.479492,40.0517578 118.183594,40.0876465 117.870117,40.1594238 C117.556641,40.2312012 117.268066,40.3359375 117.004395,40.4736328 L117.004395,40.4736328 L117.338379,41.2119141 C117.549316,41.1123047 117.769043,41.0258789 117.997559,40.9526367 C118.226074,40.8793945 118.464844,40.8427734 118.713867,40.8427734 C119.018555,40.8427734 119.243408,40.9196777 119.388428,41.0734863 C119.533447,41.2272949 119.605957,41.4594727 119.605957,41.7700195 L119.605957,41.7700195 L119.605957,42.0292969 L118.766602,42.0556641 C118.004883,42.0791016 117.437988,42.2182617 117.065918,42.4731445 C116.693848,42.7280273 116.507812,43.105957 116.507812,43.6069336 C116.507812,44.0786133 116.641846,44.4433594 116.909912,44.7011719 C117.177979,44.9589844 117.550781,45.0878906 118.02832,45.0878906 Z M118.353516,44.296875 C118.095703,44.296875 117.902344,44.2375488 117.773438,44.1188965 C117.644531,44.0002441 117.580078,43.8325195 117.580078,43.6157227 C117.580078,43.3168945 117.690674,43.0949707 117.911865,42.9499512 C118.133057,42.8049316 118.486816,42.7236328 118.973145,42.7060547 L118.973145,42.7060547 L119.597168,42.6796875 L119.597168,43.1015625 C119.597168,43.4794922 119.483643,43.7731934 119.256592,43.982666 C119.029541,44.1921387 118.728516,44.296875 118.353516,44.296875 Z M123.104004,45 L123.104004,42.5786133 C123.104004,41.972168 123.205078,41.5400391 123.407227,41.2822266 C123.609375,41.0244141 123.928711,40.8955078 124.365234,40.8955078 C124.693359,40.8955078 124.932861,40.987793 125.08374,41.1723633 C125.234619,41.3569336 125.310059,41.6367188 125.310059,42.0117188 L125.310059,42.0117188 L125.310059,45 L126.347168,45 L126.347168,41.831543 C126.347168,40.6450195 125.76416,40.0517578 124.598145,40.0517578 C124.27002,40.0517578 123.971191,40.1147461 123.70166,40.2407227 C123.432129,40.3666992 123.224121,40.5454102 123.077637,40.7768555 L123.077637,40.7768555 L123.024902,40.7768555 L122.879883,40.1396484 L122.071289,40.1396484 L122.071289,45 L123.104004,45 Z M129.42334,45.0878906 C130.062012,45.0878906 130.546875,44.8461914 130.87793,44.362793 L130.87793,44.362793 L130.92627,44.362793 L131.106445,45 L131.915039,45 L131.915039,38.1621094 L130.87793,38.1621094 L130.87793,39.9331055 C130.87793,40.1352539 130.902832,40.4106445 130.952637,40.7592773 L130.952637,40.7592773 L130.899902,40.7592773 C130.565918,40.2875977 130.07959,40.0517578 129.440918,40.0517578 C128.831543,40.0517578 128.354736,40.2736816 128.010498,40.7175293 C127.66626,41.161377 127.494141,41.7817383 127.494141,42.5786133 C127.494141,43.3725586 127.664062,43.9892578 128.003906,44.4287109 C128.34375,44.8681641 128.816895,45.0878906 129.42334,45.0878906 Z M129.700195,44.2529297 C129.319336,44.2529297 129.033691,44.1115723 128.843262,43.8288574 C128.652832,43.5461426 128.557617,43.1352539 128.557617,42.5961914 C128.557617,42.0512695 128.655762,41.6315918 128.852051,41.3371582 C129.04834,41.0427246 129.328125,40.8955078 129.691406,40.8955078 C130.116211,40.8955078 130.428223,41.0244141 130.627441,41.2822266 C130.82666,41.5400391 130.92627,41.9750977 130.92627,42.5874023 L130.92627,42.5874023 L130.92627,42.7324219 C130.92041,43.2685547 130.820801,43.6560059 130.627441,43.8947754 C130.434082,44.1335449 130.125,44.2529297 129.700195,44.2529297 Z M138.537598,45.0878906 C139.495605,45.0878906 140.236084,44.7978516 140.759033,44.2177734 C141.281982,43.6376953 141.543457,42.824707 141.543457,41.7788086 C141.543457,40.7299805 141.282715,39.9169922 140.76123,39.3398438 C140.239746,38.7626953 139.501465,38.4741211 138.546387,38.4741211 C137.57666,38.4741211 136.830322,38.7583008 136.307373,39.3266602 C135.784424,39.8950195 135.522949,40.7094727 135.522949,41.7700195 C135.522949,42.8305664 135.782959,43.6486816 136.302979,44.2243652 C136.822998,44.8000488 137.567871,45.0878906 138.537598,45.0878906 Z M138.537598,44.1914062 C137.910645,44.1914062 137.4375,43.9870605 137.118164,43.5783691 C136.798828,43.1696777 136.63916,42.5698242 136.63916,41.7788086 C136.63916,40.9907227 136.799561,40.3930664 137.120361,39.9858398 C137.441162,39.5786133 137.916504,39.375 138.546387,39.375 C139.17041,39.375 139.639893,39.5786133 139.954834,39.9858398 C140.269775,40.3930664 140.427246,40.9907227 140.427246,41.7788086 C140.427246,42.5786133 140.268311,43.1806641 139.950439,43.5849609 C139.632568,43.9892578 139.161621,44.1914062 138.537598,44.1914062 Z M144.667969,45 L145.313965,42.7412109 C145.413574,42.4101562 145.54834,41.8491211 145.718262,41.0581055 L145.718262,41.0581055 L145.757812,41.0581055 C145.957031,41.934082 146.094727,42.4921875 146.170898,42.7324219 L146.170898,42.7324219 L146.799316,45 L147.959473,45 L149.330566,40.1396484 L148.293457,40.1396484 L147.665039,42.534668 C147.503906,43.1821289 147.401367,43.6860352 147.357422,44.0463867 L147.357422,44.0463867 L147.322266,44.0463867 C147.310547,43.8823242 147.271729,43.6523438 147.205811,43.3564453 C147.139893,43.0605469 147.084961,42.8408203 147.041016,42.6972656 L147.041016,42.6972656 L146.324707,40.1396484 L145.190918,40.1396484 L144.452637,42.6972656 C144.408691,42.8349609 144.356689,43.0422363 144.296631,43.3190918 C144.236572,43.5959473 144.191895,43.8413086 144.162598,44.0551758 L144.162598,44.0551758 L144.13623,44.0551758 C144.077637,43.6333008 143.978027,43.1264648 143.837402,42.534668 L143.837402,42.534668 L143.217773,40.1396484 L142.163086,40.1396484 L143.525391,45 L144.667969,45 Z M151.198242,45 L151.198242,42.5786133 C151.198242,41.972168 151.299316,41.5400391 151.501465,41.2822266 C151.703613,41.0244141 152.022949,40.8955078 152.459473,40.8955078 C152.787598,40.8955078 153.0271,40.987793 153.177979,41.1723633 C153.328857,41.3569336 153.404297,41.6367188 153.404297,42.0117188 L153.404297,42.0117188 L153.404297,45 L154.441406,45 L154.441406,41.831543 C154.441406,40.6450195 153.858398,40.0517578 152.692383,40.0517578 C152.364258,40.0517578 152.06543,40.1147461 151.795898,40.2407227 C151.526367,40.3666992 151.318359,40.5454102 151.171875,40.7768555 L151.171875,40.7768555 L151.119141,40.7768555 L150.974121,40.1396484 L150.165527,40.1396484 L150.165527,45 L151.198242,45 Z M158.000977,45.0878906 C158.332031,45.0878906 158.626465,45.0629883 158.884277,45.0131836 C159.14209,44.9633789 159.396973,44.878418 159.648926,44.7583008 L159.648926,44.7583008 L159.648926,43.9189453 C159.364746,44.0449219 159.098877,44.1350098 158.851318,44.189209 C158.60376,44.2434082 158.336426,44.2705078 158.049316,44.2705078 C157.612793,44.2705078 157.274414,44.1437988 157.03418,43.8903809 C156.793945,43.6369629 156.666504,43.2744141 156.651855,42.8027344 L156.651855,42.8027344 L159.890625,42.8027344 L159.890625,42.2446289 C159.890625,41.5620117 159.70459,41.0258789 159.33252,40.6362305 C158.960449,40.246582 158.453613,40.0517578 157.812012,40.0517578 C157.120605,40.0517578 156.577148,40.2788086 156.181641,40.7329102 C155.786133,41.1870117 155.588379,41.8110352 155.588379,42.6049805 C155.588379,43.378418 155.801514,43.9855957 156.227783,44.4265137 C156.654053,44.8674316 157.245117,45.0878906 158.000977,45.0878906 Z M158.875488,42.0556641 L156.669434,42.0556641 C156.70752,41.6572266 156.825439,41.3540039 157.023193,41.1459961 C157.220947,40.9379883 157.483887,40.8339844 157.812012,40.8339844 C158.140137,40.8339844 158.397949,40.9372559 158.585449,41.1437988 C158.772949,41.3503418 158.869629,41.6542969 158.875488,42.0556641 L158.875488,42.0556641 Z M162.09668,45 L162.09668,42.4599609 C162.09668,42.0292969 162.224854,41.6791992 162.481201,41.409668 C162.737549,41.1401367 163.072266,41.0053711 163.485352,41.0053711 C163.643555,41.0053711 163.795898,41.0229492 163.942383,41.0581055 L163.942383,41.0581055 L164.043457,40.0957031 C163.908691,40.0664062 163.737305,40.0517578 163.529297,40.0517578 C163.230469,40.0517578 162.951416,40.1367188 162.692139,40.3066406 C162.432861,40.4765625 162.222656,40.706543 162.061523,40.996582 L162.061523,40.996582 L162.008789,40.996582 L161.872559,40.1396484 L161.063965,40.1396484 L161.063965,45 L162.09668,45 Z M166.205566,45.0878906 C166.850098,45.0878906 167.345215,44.9611816 167.690918,44.7077637 C168.036621,44.4543457 168.209473,44.090332 168.209473,43.6157227 C168.209473,43.3813477 168.165527,43.1799316 168.077637,43.0114746 C167.989746,42.8430176 167.85498,42.6943359 167.67334,42.5654297 C167.491699,42.4365234 167.200195,42.2944336 166.798828,42.1391602 C166.321289,41.9545898 166.011475,41.8095703 165.869385,41.7041016 C165.727295,41.5986328 165.65625,41.4697266 165.65625,41.3173828 C165.65625,41.0068359 165.928711,40.8515625 166.473633,40.8515625 C166.831055,40.8515625 167.271973,40.9599609 167.796387,41.1767578 L167.796387,41.1767578 L168.130371,40.3989258 C167.620605,40.1674805 167.080078,40.0517578 166.508789,40.0517578 C165.931641,40.0517578 165.475342,40.166748 165.139893,40.3967285 C164.804443,40.626709 164.636719,40.949707 164.636719,41.3657227 C164.636719,41.7114258 164.735596,41.9926758 164.93335,42.2094727 C165.131104,42.4262695 165.509766,42.6430664 166.069336,42.8598633 C166.356445,42.9711914 166.580566,43.0708008 166.741699,43.1586914 C166.902832,43.246582 167.018555,43.331543 167.088867,43.4135742 C167.15918,43.4956055 167.194336,43.5981445 167.194336,43.7211914 C167.194336,44.1049805 166.876465,44.296875 166.240723,44.296875 C165.748535,44.296875 165.216797,44.1650391 164.645508,43.9013672 L164.645508,43.9013672 L164.645508,44.793457 C165.038086,44.9897461 165.558105,45.0878906 166.205566,45.0878906 Z M170.358398,45 L170.358398,42.5874023 C170.358398,41.9780273 170.460205,41.5437012 170.663818,41.2844238 C170.867432,41.0251465 171.186035,40.8955078 171.619629,40.8955078 C171.947754,40.8955078 172.187256,40.987793 172.338135,41.1723633 C172.489014,41.3569336 172.564453,41.6367188 172.564453,42.0117188 L172.564453,42.0117188 L172.564453,45 L173.601562,45 L173.601562,41.831543 C173.601562,40.6450195 173.012695,40.0517578 171.834961,40.0517578 C171.500977,40.0517578 171.20874,40.1162109 170.958252,40.2451172 C170.707764,40.3740234 170.512207,40.5556641 170.371582,40.7900391 L170.371582,40.7900391 L170.305664,40.7900391 C170.34082,40.4736328 170.358398,40.1762695 170.358398,39.8979492 L170.358398,39.8979492 L170.358398,38.1621094 L169.325684,38.1621094 L169.325684,45 L170.358398,45 Z M175.561523,39.4189453 C175.743164,39.4189453 175.884521,39.3684082 175.985596,39.267334 C176.08667,39.1662598 176.137207,39.027832 176.137207,38.8520508 C176.137207,38.6674805 176.08667,38.5253906 175.985596,38.4257812 C175.884521,38.3261719 175.743164,38.2763672 175.561523,38.2763672 C175.374023,38.2763672 175.229736,38.3261719 175.128662,38.4257812 C175.027588,38.5253906 174.977051,38.6674805 174.977051,38.8520508 C174.977051,39.027832 175.027588,39.1662598 175.128662,39.267334 C175.229736,39.3684082 175.374023,39.4189453 175.561523,39.4189453 Z M176.071289,45 L176.071289,40.1396484 L175.038574,40.1396484 L175.038574,45 L176.071289,45 Z M178.580566,47.1621094 L178.580566,45.1713867 C178.580566,45.0834961 178.560059,44.8344727 178.519043,44.4243164 L178.519043,44.4243164 L178.580566,44.4243164 C178.92041,44.8666992 179.397949,45.0878906 180.013184,45.0878906 C180.619629,45.0878906 181.094971,44.8652344 181.439209,44.4199219 C181.783447,43.9746094 181.955566,43.3549805 181.955566,42.5610352 C181.955566,41.7670898 181.786377,41.1503906 181.447998,40.7109375 C181.109619,40.2714844 180.637207,40.0517578 180.030762,40.0517578 C179.38623,40.0517578 178.902832,40.2978516 178.580566,40.7900391 L178.580566,40.7900391 L178.527832,40.7900391 C178.45459,40.4472656 178.40625,40.2304688 178.382812,40.1396484 L178.382812,40.1396484 L177.547852,40.1396484 L177.547852,47.1621094 L178.580566,47.1621094 Z M179.780273,44.2441406 C179.355469,44.2441406 179.049316,44.1115723 178.861816,43.8464355 C178.674316,43.5812988 178.580566,43.152832 178.580566,42.5610352 L178.580566,42.5610352 L178.580566,42.4072266 C178.580566,41.8798828 178.675049,41.4960938 178.864014,41.2558594 C179.052979,41.015625 179.352539,40.8955078 179.762695,40.8955078 C180.134766,40.8955078 180.416748,41.0354004 180.608643,41.3151855 C180.800537,41.5949707 180.896484,42.0073242 180.896484,42.5522461 C180.896484,43.0942383 180.799805,43.5117188 180.606445,43.8046875 C180.413086,44.0976562 180.137695,44.2441406 179.780273,44.2441406 Z M186.978516,45.0878906 C187.705078,45.0878906 188.274902,44.925293 188.687988,44.6000977 C189.101074,44.2749023 189.307617,43.8266602 189.307617,43.2553711 C189.307617,42.965332 189.256348,42.7133789 189.153809,42.4995117 C189.05127,42.2856445 188.890137,42.09375 188.67041,41.9238281 C188.450684,41.7539062 188.10498,41.5708008 187.633301,41.3745117 C187.214355,41.2016602 186.924316,41.0625 186.763184,40.9570312 C186.602051,40.8515625 186.486328,40.739502 186.416016,40.6208496 C186.345703,40.5021973 186.310547,40.359375 186.310547,40.1923828 C186.310547,39.9492188 186.398438,39.7536621 186.574219,39.6057129 C186.75,39.4577637 187.007812,39.3837891 187.347656,39.3837891 C187.795898,39.3837891 188.305664,39.5039062 188.876953,39.7441406 L188.876953,39.7441406 L189.210938,38.887207 C188.601562,38.6176758 187.989258,38.4829102 187.374023,38.4829102 C186.732422,38.4829102 186.221191,38.6367188 185.840332,38.9443359 C185.459473,39.2519531 185.269043,39.6738281 185.269043,40.2099609 C185.269043,40.6376953 185.38916,41.0039062 185.629395,41.3085938 C185.869629,41.6132812 186.282715,41.8842773 186.868652,42.121582 C187.437012,42.3500977 187.812012,42.5478516 187.993652,42.7148438 C188.175293,42.8818359 188.266113,43.0854492 188.266113,43.3256836 C188.266113,43.5922852 188.167236,43.8046875 187.969482,43.9628906 C187.771729,44.1210938 187.464844,44.2001953 187.048828,44.2001953 C186.764648,44.2001953 186.457764,44.1606445 186.128174,44.081543 C185.798584,44.0024414 185.487305,43.894043 185.194336,43.7563477 L185.194336,43.7563477 L185.194336,44.7495117 C185.657227,44.9750977 186.251953,45.0878906 186.978516,45.0878906 Z M190.560059,47.1621094 C191.441895,47.1621094 192.071777,46.6567383 192.449707,45.6459961 L192.449707,45.6459961 L194.52832,40.1396484 L193.412109,40.1396484 C192.738281,42.09375 192.366211,43.185791 192.295898,43.4157715 C192.225586,43.645752 192.177246,43.8413086 192.150879,44.0024414 L192.150879,44.0024414 L192.115723,44.0024414 C192.065918,43.6567383 191.966309,43.2875977 191.816895,42.8950195 L191.816895,42.8950195 L190.828125,40.1396484 L189.703125,40.1396484 L191.654297,45 L191.474121,45.4570312 C191.271973,46.0341797 190.921875,46.3227539 190.423828,46.3227539 C190.224609,46.3227539 190.047363,46.3051758 189.89209,46.2700195 L189.89209,46.2700195 L189.89209,47.0874023 C190.108887,47.137207 190.331543,47.1621094 190.560059,47.1621094 Z M196.527832,45.0878906 C197.172363,45.0878906 197.66748,44.9611816 198.013184,44.7077637 C198.358887,44.4543457 198.531738,44.090332 198.531738,43.6157227 C198.531738,43.3813477 198.487793,43.1799316 198.399902,43.0114746 C198.312012,42.8430176 198.177246,42.6943359 197.995605,42.5654297 C197.813965,42.4365234 197.522461,42.2944336 197.121094,42.1391602 C196.643555,41.9545898 196.33374,41.8095703 196.19165,41.7041016 C196.049561,41.5986328 195.978516,41.4697266 195.978516,41.3173828 C195.978516,41.0068359 196.250977,40.8515625 196.795898,40.8515625 C197.15332,40.8515625 197.594238,40.9599609 198.118652,41.1767578 L198.118652,41.1767578 L198.452637,40.3989258 C197.942871,40.1674805 197.402344,40.0517578 196.831055,40.0517578 C196.253906,40.0517578 195.797607,40.166748 195.462158,40.3967285 C195.126709,40.626709 194.958984,40.949707 194.958984,41.3657227 C194.958984,41.7114258 195.057861,41.9926758 195.255615,42.2094727 C195.453369,42.4262695 195.832031,42.6430664 196.391602,42.8598633 C196.678711,42.9711914 196.902832,43.0708008 197.063965,43.1586914 C197.225098,43.246582 197.34082,43.331543 197.411133,43.4135742 C197.481445,43.4956055 197.516602,43.5981445 197.516602,43.7211914 C197.516602,44.1049805 197.19873,44.296875 196.562988,44.296875 C196.070801,44.296875 195.539062,44.1650391 194.967773,43.9013672 L194.967773,43.9013672 L194.967773,44.793457 C195.360352,44.9897461 195.880371,45.0878906 196.527832,45.0878906 Z M201.212402,45.0878906 C201.405762,45.0878906 201.592529,45.0710449 201.772705,45.0373535 C201.952881,45.0036621 202.100098,44.9619141 202.214355,44.9121094 L202.214355,44.9121094 L202.214355,44.1342773 C201.962402,44.2133789 201.710449,44.2529297 201.458496,44.2529297 C201.256348,44.2529297 201.093018,44.1936035 200.968506,44.0749512 C200.843994,43.9562988 200.781738,43.7724609 200.781738,43.5234375 L200.781738,43.5234375 L200.781738,40.921875 L202.166016,40.921875 L202.166016,40.1396484 L200.781738,40.1396484 L200.781738,39.0585938 L200.144531,39.0585938 L199.792969,40.0869141 L199.081055,40.4648438 L199.081055,40.921875 L199.744629,40.921875 L199.744629,43.5410156 C199.744629,44.5722656 200.233887,45.0878906 201.212402,45.0878906 Z M205.308105,45.0878906 C205.63916,45.0878906 205.933594,45.0629883 206.191406,45.0131836 C206.449219,44.9633789 206.704102,44.878418 206.956055,44.7583008 L206.956055,44.7583008 L206.956055,43.9189453 C206.671875,44.0449219 206.406006,44.1350098 206.158447,44.189209 C205.910889,44.2434082 205.643555,44.2705078 205.356445,44.2705078 C204.919922,44.2705078 204.581543,44.1437988 204.341309,43.8903809 C204.101074,43.6369629 203.973633,43.2744141 203.958984,42.8027344 L203.958984,42.8027344 L207.197754,42.8027344 L207.197754,42.2446289 C207.197754,41.5620117 207.011719,41.0258789 206.639648,40.6362305 C206.267578,40.246582 205.760742,40.0517578 205.119141,40.0517578 C204.427734,40.0517578 203.884277,40.2788086 203.48877,40.7329102 C203.093262,41.1870117 202.895508,41.8110352 202.895508,42.6049805 C202.895508,43.378418 203.108643,43.9855957 203.534912,44.4265137 C203.961182,44.8674316 204.552246,45.0878906 205.308105,45.0878906 Z M206.182617,42.0556641 L203.976562,42.0556641 C204.014648,41.6572266 204.132568,41.3540039 204.330322,41.1459961 C204.528076,40.9379883 204.791016,40.8339844 205.119141,40.8339844 C205.447266,40.8339844 205.705078,40.9372559 205.892578,41.1437988 C206.080078,41.3503418 206.176758,41.6542969 206.182617,42.0556641 L206.182617,42.0556641 Z M209.403809,45 L209.403809,42.5786133 C209.403809,41.9750977 209.496826,41.5437012 209.682861,41.2844238 C209.868896,41.0251465 210.161133,40.8955078 210.55957,40.8955078 C210.858398,40.8955078 211.078125,40.9870605 211.21875,41.170166 C211.359375,41.3532715 211.429688,41.6308594 211.429688,42.0029297 L211.429688,42.0029297 L211.429688,45 L212.466797,45 L212.466797,42.4248047 C212.466797,41.90625 212.559814,41.5217285 212.74585,41.2712402 C212.931885,41.020752 213.225586,40.8955078 213.626953,40.8955078 C213.925781,40.8955078 214.14624,40.9870605 214.28833,41.170166 C214.43042,41.3532715 214.501465,41.6308594 214.501465,42.0029297 L214.501465,42.0029297 L214.501465,45 L215.53418,45 L215.53418,41.831543 C215.53418,41.230957 215.401611,40.7841797 215.136475,40.4912109 C214.871338,40.1982422 214.44873,40.0517578 213.868652,40.0517578 C213.531738,40.0517578 213.23291,40.1191406 212.972168,40.2539062 C212.711426,40.3886719 212.509277,40.5761719 212.365723,40.8164062 L212.365723,40.8164062 L212.29541,40.8164062 C212.052246,40.3066406 211.557129,40.0517578 210.810059,40.0517578 C210.502441,40.0517578 210.220459,40.1147461 209.964111,40.2407227 C209.707764,40.3666992 209.512207,40.5454102 209.377441,40.7768555 L209.377441,40.7768555 L209.324707,40.7768555 L209.179688,40.1396484 L208.371094,40.1396484 L208.371094,45 L209.403809,45 Z" id="ProviderEnrollmentChainandOwnershipSystem" fill="#0573BB" fill-rule="nonzero"></path>
            </g>
        </g>
    </g>
</svg>