<?xml version="1.0" encoding="UTF-8"?>
<svg width="220px" height="48px" viewBox="0 0 220 48" version="1.1" xmlns="http://www.w3.org/2000/svg" xmlns:xlink="http://www.w3.org/1999/xlink">
    <title>logo-pecos-blue-with full-name-left</title>
    <defs>
        <polygon id="path-1" points="0 0 19.9084029 0 19.9084029 27.5107531 0 27.5107531"></polygon>
        <polygon id="path-3" points="0 0 24.1152484 0 24.1152484 27.5473746 0 27.5473746"></polygon>
        <polygon id="path-5" points="0 0 16.6611189 0 16.6611189 27.5107439 0 27.5107439"></polygon>
        <polygon id="path-7" points="0 31 106 31 106 0 0 0"></polygon>
    </defs>
    <g id="Page-1-Icons" stroke="none" stroke-width="1" fill="none" fill-rule="evenodd">
        <g id="PECOS-2.0-Icons-Overview-v25" transform="translate(-2680.000000, -979.000000)">
            <g id="logo-pecos-blue-with-full-name-left" transform="translate(2680.237305, 979.000000)">
                <g id="PECOS-logo-on-white">
                    <polygon id="Fill-1" fill="#0573BB" points="39.9314602 30.633918 24.6726385 30.633918 24.6726385 3.87360754 39.9314602 3.87360754 39.9314602 7.57099415 29.0823756 7.57099415 29.0823756 14.8559304 39.2487415 14.8559304 39.2487415 18.5167505 29.0823756 18.5167505 29.0823756 26.9182252 39.9314602 26.9182252"></polygon>
                    <g id="Group-20">
                        <g id="Group-4" transform="translate(42.162695, 3.489247)">
                            <mask id="mask-2" fill="white">
                                <use xlink:href="#path-1"></use>
                            </mask>
                            <g id="Clip-3"></g>
                            <path d="M12.952461,1.68393782 C9.56957677,1.68393782 6.90664109,2.75780776 4.96323777,4.90541001 C3.01951071,7.05333341 2.04801717,9.99392754 2.04801717,13.7279265 C2.04801717,17.5474001 2.96415139,20.5126318 4.79715983,22.6235759 C6.62993701,24.7348869 9.24990794,25.7901754 12.6572113,25.7901754 C14.9202835,25.7901754 16.9992871,25.5037 18.8936209,24.9299233 L18.8936209,26.5772488 C17.1100057,27.1996125 14.8833773,27.5107715 12.2144293,27.5107715 C8.42557675,27.5107715 5.44297225,26.296646 3.26578335,23.8682575 C1.08859445,21.4401901 0,18.047631 0,13.6913142 C0,10.970394 0.519415595,8.57256162 1.55903301,6.49786287 C2.59841918,4.42348529 4.09293569,2.82190228 6.04262879,1.69311384 C7.99199816,0.56460068 10.2586314,0 12.8417424,0 C15.4738304,0 17.8295381,0.488164411 19.9084029,1.46430971 L19.1519181,3.14824753 C17.1837719,2.17210223 15.1173016,1.68393782 12.952461,1.68393782" id="Fill-2" fill="#0573BB" mask="url(#mask-2)"></path>
                        </g>
                        <g id="Group-7" transform="translate(63.213738, 3.452625)">
                            <mask id="mask-4" fill="white">
                                <use xlink:href="#path-3"></use>
                            </mask>
                            <g id="Clip-6"></g>
                            <path d="M2.04801717,13.7645388 C2.04801717,17.5964 2.90879208,20.5583743 4.63117438,22.6510581 C6.35318669,24.7441088 8.82557902,25.7901754 12.0483514,25.7901754 C15.2956816,25.7901754 17.7773236,24.753239 19.4932774,22.6785402 C21.2092312,20.6041168 22.0671387,17.6329665 22.0671387,13.7645388 C22.0671387,9.90872817 21.2092312,6.95267244 19.4932774,4.89627986 C17.7773236,2.84020844 15.3077525,1.81208097 12.0852576,1.81208097 C8.8747873,1.81208097 6.39929633,2.84933859 4.65878466,4.92376205 C2.91804176,6.99841492 2.04801717,9.94538638 2.04801717,13.7645388 M24.1152484,13.7645388 C24.1152484,18.0110645 23.0450608,21.36981 20.9047781,23.8408212 C18.7644491,26.3118323 15.8123223,27.5473838 12.0483514,27.5473838 C8.29645127,27.5473838 5.35070673,26.3118323 3.21042404,23.8408212 C1.0700951,21.36981 0,17.9990898 0,13.7279265 C0,9.46947196 1.07934477,6.11659913 3.23808057,3.6699503 C5.39681637,1.22357675 8.34584454,0 12.0852576,0 C15.8492285,0 18.7951118,1.22944941 20.9232312,3.68821059 C23.0510268,6.14729293 24.1152484,9.5060843 24.1152484,13.7645388" id="Fill-5" fill="#0573BB" mask="url(#mask-4)"></path>
                        </g>
                        <g id="Group-10" transform="translate(89.338867, 3.489256)">
                            <mask id="mask-6" fill="white">
                                <use xlink:href="#path-5"></use>
                            </mask>
                            <g id="Clip-9"></g>
                            <path d="M16.6611189,20.2440955 C16.6611189,22.4771724 15.8337816,24.2465849 14.1794769,25.5521953 C12.5248485,26.8581268 10.3262003,27.5107715 7.58330119,27.5107715 C4.28657767,27.5107715 1.75877978,27.1507043 0,26.4308453 L0,24.5638 C1.94331083,25.3814754 4.42194669,25.7901754 7.43567635,25.7901754 C9.64977146,25.7901754 11.4055913,25.2868247 12.7034135,24.2801233 C14.0009119,23.2733759 14.6500079,21.9527168 14.6500079,20.3173202 C14.6500079,19.3045167 14.4344905,18.4657823 14.0041955,17.8005207 C13.5735768,17.1355343 12.8724513,16.5284028 11.9007728,15.9793095 C10.928863,15.4301705 9.50219287,14.8384088 7.62025365,14.2038409 C4.86482121,13.2642621 2.96137649,12.2483846 1.90968825,11.1562085 C0.85800001,10.0643076 0.33215589,8.60917395 0.33215589,6.79071564 C0.33215589,4.78956272 1.12226327,3.15742355 2.70303302,1.89443578 C4.28357153,0.631448006 6.31614173,0 8.80106738,0 C11.3347851,0 13.7149581,0.47586854 15.9415403,1.42769738 L15.2588679,3.03841054 C13.0200299,2.1112652 10.8797472,1.64732549 8.83797359,1.64732549 C6.84526949,1.64732549 5.25848745,2.10493374 4.07767372,3.02010437 C2.89681375,3.93532088 2.30636064,5.18000249 2.30636064,6.75410331 C2.30636064,7.74254448 2.48760805,8.55425545 2.85070411,9.18854803 C3.21343018,9.82311588 3.80688944,10.3937727 4.63117438,10.899968 C5.45522807,11.4063927 6.86968863,12.0136619 8.8748798,12.7211791 C10.9782563,13.4414052 12.5587948,14.1397464 13.6167266,14.8169827 C14.6743808,15.494265 15.4463126,16.2630322 15.9322906,17.1232843 C16.4179911,17.9835364 16.6611189,19.0240515 16.6611189,20.2440955" id="Fill-8" fill="#0573BB" mask="url(#mask-6)"></path>
                        </g>
                        <path d="M19.1848377,5.92364572 C17.6442578,4.66992573 15.3894641,3.99278113 12.4252202,3.88932148 L12.4252202,7.77224727 C13.8714534,7.83744291 14.9816921,8.06069554 15.743773,8.66924937 C16.6908474,9.42604185 17.1644771,10.5728153 17.1644771,12.1103955 C17.1644771,13.769971 16.635488,14.9904279 15.577695,15.7711698 C14.5195782,16.552187 12.85903,16.9425809 10.5960041,16.9425809 L7.68596335,16.9425809 L7.68596335,12.4582586 L3.84295393,12.4582586 L3.84295393,30.633895 L7.68596335,30.633895 L7.68596335,20.6217072 L11.0572393,20.6217072 C14.4642652,20.6217072 17.0906646,19.8775776 18.9357439,18.3886303 C20.7808232,16.8999583 21.7033859,14.7583663 21.7033859,11.9639462 C21.7033859,9.30381723 20.8638852,7.29041431 19.1848377,5.92364572" id="Fill-11" fill="#0573BB"></path>
                        <polygon id="Fill-13" fill-opacity="0.65" fill="#0573BB" points="3.84296318 7.74722425 7.68592636 7.74722425 7.68592636 3.87361213 3.84296318 3.87361213"></polygon>
                        <mask id="mask-8" fill="white">
                            <use xlink:href="#path-7"></use>
                        </mask>
                        <g id="Clip-16"></g>
                        <polygon id="Fill-15" fill="#0573BB" mask="url(#mask-8)" points="3.84296318 3.87361213 7.68592636 3.87361213 7.68592636 -4.58801138e-05 3.84296318 -4.58801138e-05"></polygon>
                        <polygon id="Fill-17" fill="#0573BB" opacity="0.4" mask="url(#mask-8)" points="3.84296318 11.6208823 7.68592636 11.6208823 7.68592636 7.74722425 3.84296318 7.74722425"></polygon>
                        <polygon id="Fill-18" fill="#0573BB" opacity="0.4" mask="url(#mask-8)" points="7.68592636 7.74722425 11.5289358 7.74722425 11.5289358 3.88930313 7.68592636 3.88930313"></polygon>
                        <polygon id="Fill-19" fill="#0573BB" mask="url(#mask-8)" points="0 7.74722425 3.84296318 7.74722425 3.84296318 3.88930313 0 3.88930313"></polygon>
                    </g>
                </g>
                <path d="M4.81298828,45 L4.81298828,42.5961914 L5.48095703,42.5961914 C6.29248047,42.5961914 6.91796875,42.4174805 7.35742188,42.0600586 C7.796875,41.7026367 8.01660156,41.1884766 8.01660156,40.5175781 C8.01660156,39.8789062 7.81665039,39.3955078 7.41674805,39.0673828 C7.0168457,38.7392578 6.41552734,38.5751953 5.61279297,38.5751953 L5.61279297,38.5751953 L3.76269531,38.5751953 L3.76269531,45 L4.81298828,45 Z M5.37109375,41.7128906 L4.81298828,41.7128906 L4.81298828,39.4541016 L5.54248047,39.4541016 C6.02001953,39.4541016 6.37158203,39.5449219 6.59716797,39.7265625 C6.82275391,39.9082031 6.93554688,40.1835938 6.93554688,40.5527344 C6.93554688,40.9511719 6.80957031,41.2441406 6.55761719,41.4316406 C6.30566406,41.6191406 5.91015625,41.7128906 5.37109375,41.7128906 L5.37109375,41.7128906 Z M10.2226562,45 L10.2226562,42.4599609 C10.2226562,42.0292969 10.3508301,41.6791992 10.6071777,41.409668 C10.8635254,41.1401367 11.1982422,41.0053711 11.6113281,41.0053711 C11.7695312,41.0053711 11.921875,41.0229492 12.0683594,41.0581055 L12.0683594,41.0581055 L12.1694336,40.0957031 C12.034668,40.0664062 11.8632812,40.0517578 11.6552734,40.0517578 C11.3564453,40.0517578 11.0773926,40.1367188 10.8181152,40.3066406 C10.5588379,40.4765625 10.3486328,40.706543 10.1875,40.996582 L10.1875,40.996582 L10.1347656,40.996582 L9.99853516,40.1396484 L9.18994141,40.1396484 L9.18994141,45 L10.2226562,45 Z M15.0698242,45.0878906 C15.7963867,45.0878906 16.3632812,44.8652344 16.7705078,44.4199219 C17.1777344,43.9746094 17.3813477,43.3549805 17.3813477,42.5610352 C17.3813477,41.793457 17.1762695,41.1833496 16.7661133,40.7307129 C16.355957,40.2780762 15.7993164,40.0517578 15.0961914,40.0517578 C14.3608398,40.0517578 13.7910156,40.2729492 13.3867188,40.715332 C12.9824219,41.1577148 12.7802734,41.7729492 12.7802734,42.5610352 C12.7802734,43.0678711 12.8740234,43.5131836 13.0615234,43.8969727 C13.2490234,44.2807617 13.5170898,44.5751953 13.8657227,44.7802734 C14.2143555,44.9853516 14.6157227,45.0878906 15.0698242,45.0878906 Z M15.0874023,44.2441406 C14.2583008,44.2441406 13.84375,43.6831055 13.84375,42.5610352 C13.84375,42.0249023 13.9411621,41.6132812 14.1359863,41.3261719 C14.3308105,41.0390625 14.6450195,40.8955078 15.0786133,40.8955078 C15.9047852,40.8955078 16.3178711,41.4506836 16.3178711,42.5610352 C16.3178711,43.6831055 15.9077148,44.2441406 15.0874023,44.2441406 Z M20.7915039,45 L22.6459961,40.1396484 L21.5473633,40.1396484 L20.5585938,42.965332 C20.3798828,43.5219727 20.2773438,43.9057617 20.2509766,44.1166992 L20.2509766,44.1166992 L20.2158203,44.1166992 C20.1806641,43.8237305 20.078125,43.4399414 19.9082031,42.965332 L19.9082031,42.965332 L18.9194336,40.1396484 L17.8295898,40.1396484 L19.675293,45 L20.7915039,45 Z M23.9072266,39.4189453 C24.0888672,39.4189453 24.2302246,39.3684082 24.3312988,39.267334 C24.432373,39.1662598 24.4829102,39.027832 24.4829102,38.8520508 C24.4829102,38.6674805 24.432373,38.5253906 24.3312988,38.4257812 C24.2302246,38.3261719 24.0888672,38.2763672 23.9072266,38.2763672 C23.7197266,38.2763672 23.5754395,38.3261719 23.4743652,38.4257812 C23.373291,38.5253906 23.3227539,38.6674805 23.3227539,38.8520508 C23.3227539,39.027832 23.373291,39.1662598 23.4743652,39.267334 C23.5754395,39.3684082 23.7197266,39.4189453 23.9072266,39.4189453 Z M24.4169922,45 L24.4169922,40.1396484 L23.3842773,40.1396484 L23.3842773,45 L24.4169922,45 Z M27.5327148,45.0878906 C28.1713867,45.0878906 28.65625,44.8461914 28.9873047,44.362793 L28.9873047,44.362793 L29.0356445,44.362793 L29.2158203,45 L30.0244141,45 L30.0244141,38.1621094 L28.9873047,38.1621094 L28.9873047,39.9331055 C28.9873047,40.1352539 29.012207,40.4106445 29.0620117,40.7592773 L29.0620117,40.7592773 L29.0092773,40.7592773 C28.675293,40.2875977 28.1889648,40.0517578 27.550293,40.0517578 C26.940918,40.0517578 26.4641113,40.2736816 26.119873,40.7175293 C25.7756348,41.161377 25.6035156,41.7817383 25.6035156,42.5786133 C25.6035156,43.3725586 25.7734375,43.9892578 26.1132812,44.4287109 C26.453125,44.8681641 26.9262695,45.0878906 27.5327148,45.0878906 Z M27.8095703,44.2529297 C27.4287109,44.2529297 27.1430664,44.1115723 26.9526367,43.8288574 C26.762207,43.5461426 26.6669922,43.1352539 26.6669922,42.5961914 C26.6669922,42.0512695 26.7651367,41.6315918 26.9614258,41.3371582 C27.1577148,41.0427246 27.4375,40.8955078 27.8007812,40.8955078 C28.2255859,40.8955078 28.5375977,41.0244141 28.7368164,41.2822266 C28.9360352,41.5400391 29.0356445,41.9750977 29.0356445,42.5874023 L29.0356445,42.5874023 L29.0356445,42.7324219 C29.0297852,43.2685547 28.9301758,43.6560059 28.7368164,43.8947754 C28.543457,44.1335449 28.234375,44.2529297 27.8095703,44.2529297 Z M33.6235352,45.0878906 C33.9545898,45.0878906 34.2490234,45.0629883 34.5068359,45.0131836 C34.7646484,44.9633789 35.0195312,44.878418 35.2714844,44.7583008 L35.2714844,44.7583008 L35.2714844,43.9189453 C34.9873047,44.0449219 34.7214355,44.1350098 34.473877,44.189209 C34.2263184,44.2434082 33.9589844,44.2705078 33.671875,44.2705078 C33.2353516,44.2705078 32.8969727,44.1437988 32.6567383,43.8903809 C32.4165039,43.6369629 32.2890625,43.2744141 32.2744141,42.8027344 L32.2744141,42.8027344 L35.5131836,42.8027344 L35.5131836,42.2446289 C35.5131836,41.5620117 35.3271484,41.0258789 34.9550781,40.6362305 C34.5830078,40.246582 34.0761719,40.0517578 33.4345703,40.0517578 C32.7431641,40.0517578 32.199707,40.2788086 31.8041992,40.7329102 C31.4086914,41.1870117 31.2109375,41.8110352 31.2109375,42.6049805 C31.2109375,43.378418 31.4240723,43.9855957 31.8503418,44.4265137 C32.2766113,44.8674316 32.8676758,45.0878906 33.6235352,45.0878906 Z M34.4980469,42.0556641 L32.2919922,42.0556641 C32.3300781,41.6572266 32.447998,41.3540039 32.645752,41.1459961 C32.8435059,40.9379883 33.1064453,40.8339844 33.4345703,40.8339844 C33.7626953,40.8339844 34.0205078,40.9372559 34.2080078,41.1437988 C34.3955078,41.3503418 34.4921875,41.6542969 34.4980469,42.0556641 L34.4980469,42.0556641 Z M37.7192383,45 L37.7192383,42.4599609 C37.7192383,42.0292969 37.8474121,41.6791992 38.1037598,41.409668 C38.3601074,41.1401367 38.6948242,41.0053711 39.1079102,41.0053711 C39.2661133,41.0053711 39.418457,41.0229492 39.5649414,41.0581055 L39.5649414,41.0581055 L39.6660156,40.0957031 C39.53125,40.0664062 39.3598633,40.0517578 39.1518555,40.0517578 C38.8530273,40.0517578 38.5739746,40.1367188 38.3146973,40.3066406 C38.0554199,40.4765625 37.8452148,40.706543 37.684082,40.996582 L37.684082,40.996582 L37.6313477,40.996582 L37.4951172,40.1396484 L36.6865234,40.1396484 L36.6865234,45 L37.7192383,45 Z M46.6489258,45 L46.6489258,44.1079102 L44.0649414,44.1079102 L44.0649414,42.0908203 L46.4863281,42.0908203 L46.4863281,41.2119141 L44.0649414,41.2119141 L44.0649414,39.4628906 L46.6489258,39.4628906 L46.6489258,38.5751953 L43.0146484,38.5751953 L43.0146484,45 L46.6489258,45 Z M48.9604492,45 L48.9604492,42.5786133 C48.9604492,41.972168 49.0615234,41.5400391 49.2636719,41.2822266 C49.4658203,41.0244141 49.7851562,40.8955078 50.2216797,40.8955078 C50.5498047,40.8955078 50.7893066,40.987793 50.9401855,41.1723633 C51.0910645,41.3569336 51.1665039,41.6367188 51.1665039,42.0117188 L51.1665039,42.0117188 L51.1665039,45 L52.2036133,45 L52.2036133,41.831543 C52.2036133,40.6450195 51.6206055,40.0517578 50.4545898,40.0517578 C50.1264648,40.0517578 49.8276367,40.1147461 49.5581055,40.2407227 C49.2885742,40.3666992 49.0805664,40.5454102 48.934082,40.7768555 L48.934082,40.7768555 L48.8813477,40.7768555 L48.7363281,40.1396484 L47.9277344,40.1396484 L47.9277344,45 L48.9604492,45 Z M54.6733398,45 L54.6733398,42.4599609 C54.6733398,42.0292969 54.8015137,41.6791992 55.0578613,41.409668 C55.314209,41.1401367 55.6489258,41.0053711 56.0620117,41.0053711 C56.2202148,41.0053711 56.3725586,41.0229492 56.519043,41.0581055 L56.519043,41.0581055 L56.6201172,40.0957031 C56.4853516,40.0664062 56.3139648,40.0517578 56.105957,40.0517578 C55.8071289,40.0517578 55.5280762,40.1367188 55.2687988,40.3066406 C55.0095215,40.4765625 54.7993164,40.706543 54.6381836,40.996582 L54.6381836,40.996582 L54.5854492,40.996582 L54.4492188,40.1396484 L53.640625,40.1396484 L53.640625,45 L54.6733398,45 Z M59.5205078,45.0878906 C60.2470703,45.0878906 60.8139648,44.8652344 61.2211914,44.4199219 C61.628418,43.9746094 61.8320312,43.3549805 61.8320312,42.5610352 C61.8320312,41.793457 61.6269531,41.1833496 61.2167969,40.7307129 C60.8066406,40.2780762 60.25,40.0517578 59.546875,40.0517578 C58.8115234,40.0517578 58.2416992,40.2729492 57.8374023,40.715332 C57.4331055,41.1577148 57.230957,41.7729492 57.230957,42.5610352 C57.230957,43.0678711 57.324707,43.5131836 57.512207,43.8969727 C57.699707,44.2807617 57.9677734,44.5751953 58.3164062,44.7802734 C58.6650391,44.9853516 59.0664062,45.0878906 59.5205078,45.0878906 Z M59.5380859,44.2441406 C58.7089844,44.2441406 58.2944336,43.6831055 58.2944336,42.5610352 C58.2944336,42.0249023 58.3918457,41.6132812 58.5866699,41.3261719 C58.7814941,41.0390625 59.0957031,40.8955078 59.5292969,40.8955078 C60.3554688,40.8955078 60.7685547,41.4506836 60.7685547,42.5610352 C60.7685547,43.6831055 60.3583984,44.2441406 59.5380859,44.2441406 Z M64.0512695,45 L64.0512695,38.1621094 L63.0185547,38.1621094 L63.0185547,45 L64.0512695,45 Z M66.5605469,45 L66.5605469,38.1621094 L65.527832,38.1621094 L65.527832,45 L66.5605469,45 Z M69.0698242,45 L69.0698242,42.5786133 C69.0698242,41.9750977 69.1628418,41.5437012 69.348877,41.2844238 C69.5349121,41.0251465 69.8271484,40.8955078 70.2255859,40.8955078 C70.5244141,40.8955078 70.7441406,40.9870605 70.8847656,41.170166 C71.0253906,41.3532715 71.0957031,41.6308594 71.0957031,42.0029297 L71.0957031,42.0029297 L71.0957031,45 L72.1328125,45 L72.1328125,42.4248047 C72.1328125,41.90625 72.2258301,41.5217285 72.4118652,41.2712402 C72.5979004,41.020752 72.8916016,40.8955078 73.2929688,40.8955078 C73.5917969,40.8955078 73.8122559,40.9870605 73.9543457,41.170166 C74.0964355,41.3532715 74.1674805,41.6308594 74.1674805,42.0029297 L74.1674805,42.0029297 L74.1674805,45 L75.2001953,45 L75.2001953,41.831543 C75.2001953,41.230957 75.067627,40.7841797 74.8024902,40.4912109 C74.5373535,40.1982422 74.1147461,40.0517578 73.534668,40.0517578 C73.1977539,40.0517578 72.8989258,40.1191406 72.6381836,40.2539062 C72.3774414,40.3886719 72.175293,40.5761719 72.0317383,40.8164062 L72.0317383,40.8164062 L71.9614258,40.8164062 C71.7182617,40.3066406 71.2231445,40.0517578 70.4760742,40.0517578 C70.168457,40.0517578 69.8864746,40.1147461 69.630127,40.2407227 C69.3737793,40.3666992 69.1782227,40.5454102 69.043457,40.7768555 L69.043457,40.7768555 L68.9907227,40.7768555 L68.8457031,40.1396484 L68.0371094,40.1396484 L68.0371094,45 L69.0698242,45 Z M78.7641602,45.0878906 C79.0952148,45.0878906 79.3896484,45.0629883 79.6474609,45.0131836 C79.9052734,44.9633789 80.1601562,44.878418 80.4121094,44.7583008 L80.4121094,44.7583008 L80.4121094,43.9189453 C80.1279297,44.0449219 79.8620605,44.1350098 79.614502,44.189209 C79.3669434,44.2434082 79.0996094,44.2705078 78.8125,44.2705078 C78.3759766,44.2705078 78.0375977,44.1437988 77.7973633,43.8903809 C77.5571289,43.6369629 77.4296875,43.2744141 77.4150391,42.8027344 L77.4150391,42.8027344 L80.6538086,42.8027344 L80.6538086,42.2446289 C80.6538086,41.5620117 80.4677734,41.0258789 80.0957031,40.6362305 C79.7236328,40.246582 79.2167969,40.0517578 78.5751953,40.0517578 C77.8837891,40.0517578 77.340332,40.2788086 76.9448242,40.7329102 C76.5493164,41.1870117 76.3515625,41.8110352 76.3515625,42.6049805 C76.3515625,43.378418 76.5646973,43.9855957 76.9909668,44.4265137 C77.4172363,44.8674316 78.0083008,45.0878906 78.7641602,45.0878906 Z M79.6386719,42.0556641 L77.4326172,42.0556641 C77.4707031,41.6572266 77.588623,41.3540039 77.786377,41.1459961 C77.9841309,40.9379883 78.2470703,40.8339844 78.5751953,40.8339844 C78.9033203,40.8339844 79.1611328,40.9372559 79.3486328,41.1437988 C79.5361328,41.3503418 79.6328125,41.6542969 79.6386719,42.0556641 L79.6386719,42.0556641 Z M82.8598633,45 L82.8598633,42.5786133 C82.8598633,41.972168 82.9609375,41.5400391 83.1630859,41.2822266 C83.3652344,41.0244141 83.6845703,40.8955078 84.1210938,40.8955078 C84.4492188,40.8955078 84.6887207,40.987793 84.8395996,41.1723633 C84.9904785,41.3569336 85.065918,41.6367188 85.065918,42.0117188 L85.065918,42.0117188 L85.065918,45 L86.1030273,45 L86.1030273,41.831543 C86.1030273,40.6450195 85.5200195,40.0517578 84.3540039,40.0517578 C84.0258789,40.0517578 83.7270508,40.1147461 83.4575195,40.2407227 C83.1879883,40.3666992 82.9799805,40.5454102 82.8334961,40.7768555 L82.8334961,40.7768555 L82.7807617,40.7768555 L82.6357422,40.1396484 L81.8271484,40.1396484 L81.8271484,45 L82.8598633,45 Z M89.1044922,45.0878906 C89.2978516,45.0878906 89.4846191,45.0710449 89.6647949,45.0373535 C89.8449707,45.0036621 89.9921875,44.9619141 90.1064453,44.9121094 L90.1064453,44.9121094 L90.1064453,44.1342773 C89.8544922,44.2133789 89.6025391,44.2529297 89.3505859,44.2529297 C89.1484375,44.2529297 88.9851074,44.1936035 88.8605957,44.0749512 C88.736084,43.9562988 88.6738281,43.7724609 88.6738281,43.5234375 L88.6738281,43.5234375 L88.6738281,40.921875 L90.0581055,40.921875 L90.0581055,40.1396484 L88.6738281,40.1396484 L88.6738281,39.0585938 L88.0366211,39.0585938 L87.6850586,40.0869141 L86.9731445,40.4648438 L86.9731445,40.921875 L87.6367188,40.921875 L87.6367188,43.5410156 C87.6367188,44.5722656 88.1259766,45.0878906 89.1044922,45.0878906 Z M96.1313477,45.0878906 C96.7700195,45.0878906 97.3413086,44.9926758 97.8452148,44.8022461 L97.8452148,44.8022461 L97.8452148,43.9013672 C97.5698242,43.9863281 97.3046875,44.0559082 97.0498047,44.1101074 C96.7949219,44.1643066 96.53125,44.1914062 96.2587891,44.1914062 C95.6289062,44.1914062 95.1477051,43.9892578 94.8151855,43.5849609 C94.482666,43.1806641 94.3164062,42.5844727 94.3164062,41.7963867 C94.3164062,41.043457 94.4892578,40.453125 94.8349609,40.0253906 C95.1806641,39.5976562 95.6552734,39.3837891 96.2587891,39.3837891 C96.5253906,39.3837891 96.779541,39.4226074 97.0212402,39.5002441 C97.2629395,39.5778809 97.4921875,39.6679688 97.7089844,39.7705078 L97.7089844,39.7705078 L98.0869141,38.8959961 C97.5302734,38.6206055 96.9238281,38.4829102 96.2675781,38.4829102 C95.6435547,38.4829102 95.1000977,38.6162109 94.637207,38.8828125 C94.1743164,39.1494141 93.8205566,39.5332031 93.5759277,40.0341797 C93.3312988,40.5351562 93.2089844,41.1196289 93.2089844,41.7875977 C93.2089844,42.8481445 93.4609375,43.6633301 93.9648438,44.2331543 C94.46875,44.8029785 95.190918,45.0878906 96.1313477,45.0878906 Z M100.152344,45 L100.152344,42.5874023 C100.152344,41.9780273 100.25415,41.5437012 100.457764,41.2844238 C100.661377,41.0251465 100.97998,40.8955078 101.413574,40.8955078 C101.741699,40.8955078 101.981201,40.987793 102.13208,41.1723633 C102.282959,41.3569336 102.358398,41.6367188 102.358398,42.0117188 L102.358398,42.0117188 L102.358398,45 L103.395508,45 L103.395508,41.831543 C103.395508,40.6450195 102.806641,40.0517578 101.628906,40.0517578 C101.294922,40.0517578 101.002686,40.1162109 100.752197,40.2451172 C100.501709,40.3740234 100.306152,40.5556641 100.165527,40.7900391 L100.165527,40.7900391 L100.099609,40.7900391 C100.134766,40.4736328 100.152344,40.1762695 100.152344,39.8979492 L100.152344,39.8979492 L100.152344,38.1621094 L99.1196289,38.1621094 L99.1196289,45 L100.152344,45 Z M106.010254,45.0878906 C106.382324,45.0878906 106.687012,45.0344238 106.924316,44.9274902 C107.161621,44.8205566 107.397461,44.6191406 107.631836,44.3232422 L107.631836,44.3232422 L107.666992,44.3232422 L107.873535,45 L108.611816,45 L108.611816,41.7260742 C108.611816,41.1489258 108.454346,40.7255859 108.139404,40.4560547 C107.824463,40.1865234 107.35791,40.0517578 106.739746,40.0517578 C106.461426,40.0517578 106.165527,40.0876465 105.852051,40.1594238 C105.538574,40.2312012 105.25,40.3359375 104.986328,40.4736328 L104.986328,40.4736328 L105.320312,41.2119141 C105.53125,41.1123047 105.750977,41.0258789 105.979492,40.9526367 C106.208008,40.8793945 106.446777,40.8427734 106.695801,40.8427734 C107.000488,40.8427734 107.225342,40.9196777 107.370361,41.0734863 C107.515381,41.2272949 107.587891,41.4594727 107.587891,41.7700195 L107.587891,41.7700195 L107.587891,42.0292969 L106.748535,42.0556641 C105.986816,42.0791016 105.419922,42.2182617 105.047852,42.4731445 C104.675781,42.7280273 104.489746,43.105957 104.489746,43.6069336 C104.489746,44.0786133 104.623779,44.4433594 104.891846,44.7011719 C105.159912,44.9589844 105.532715,45.0878906 106.010254,45.0878906 Z M106.335449,44.296875 C106.077637,44.296875 105.884277,44.2375488 105.755371,44.1188965 C105.626465,44.0002441 105.562012,43.8325195 105.562012,43.6157227 C105.562012,43.3168945 105.672607,43.0949707 105.893799,42.9499512 C106.11499,42.8049316 106.46875,42.7236328 106.955078,42.7060547 L106.955078,42.7060547 L107.579102,42.6796875 L107.579102,43.1015625 C107.579102,43.4794922 107.465576,43.7731934 107.238525,43.982666 C107.011475,44.1921387 106.710449,44.296875 106.335449,44.296875 Z M110.576172,39.4189453 C110.757812,39.4189453 110.89917,39.3684082 111.000244,39.267334 C111.101318,39.1662598 111.151855,39.027832 111.151855,38.8520508 C111.151855,38.6674805 111.101318,38.5253906 111.000244,38.4257812 C110.89917,38.3261719 110.757812,38.2763672 110.576172,38.2763672 C110.388672,38.2763672 110.244385,38.3261719 110.143311,38.4257812 C110.042236,38.5253906 109.991699,38.6674805 109.991699,38.8520508 C109.991699,39.027832 110.042236,39.1662598 110.143311,39.267334 C110.244385,39.3684082 110.388672,39.4189453 110.576172,39.4189453 Z M111.085938,45 L111.085938,40.1396484 L110.053223,40.1396484 L110.053223,45 L111.085938,45 Z M113.595215,45 L113.595215,42.5786133 C113.595215,41.972168 113.696289,41.5400391 113.898438,41.2822266 C114.100586,41.0244141 114.419922,40.8955078 114.856445,40.8955078 C115.18457,40.8955078 115.424072,40.987793 115.574951,41.1723633 C115.72583,41.3569336 115.80127,41.6367188 115.80127,42.0117188 L115.80127,42.0117188 L115.80127,45 L116.838379,45 L116.838379,41.831543 C116.838379,40.6450195 116.255371,40.0517578 115.089355,40.0517578 C114.76123,40.0517578 114.462402,40.1147461 114.192871,40.2407227 C113.92334,40.3666992 113.715332,40.5454102 113.568848,40.7768555 L113.568848,40.7768555 L113.516113,40.7768555 L113.371094,40.1396484 L112.5625,40.1396484 L112.5625,45 L113.595215,45 Z M121.791016,45.0878906 C122.163086,45.0878906 122.467773,45.0344238 122.705078,44.9274902 C122.942383,44.8205566 123.178223,44.6191406 123.412598,44.3232422 L123.412598,44.3232422 L123.447754,44.3232422 L123.654297,45 L124.392578,45 L124.392578,41.7260742 C124.392578,41.1489258 124.235107,40.7255859 123.920166,40.4560547 C123.605225,40.1865234 123.138672,40.0517578 122.520508,40.0517578 C122.242188,40.0517578 121.946289,40.0876465 121.632812,40.1594238 C121.319336,40.2312012 121.030762,40.3359375 120.76709,40.4736328 L120.76709,40.4736328 L121.101074,41.2119141 C121.312012,41.1123047 121.531738,41.0258789 121.760254,40.9526367 C121.98877,40.8793945 122.227539,40.8427734 122.476562,40.8427734 C122.78125,40.8427734 123.006104,40.9196777 123.151123,41.0734863 C123.296143,41.2272949 123.368652,41.4594727 123.368652,41.7700195 L123.368652,41.7700195 L123.368652,42.0292969 L122.529297,42.0556641 C121.767578,42.0791016 121.200684,42.2182617 120.828613,42.4731445 C120.456543,42.7280273 120.270508,43.105957 120.270508,43.6069336 C120.270508,44.0786133 120.404541,44.4433594 120.672607,44.7011719 C120.940674,44.9589844 121.313477,45.0878906 121.791016,45.0878906 Z M122.116211,44.296875 C121.858398,44.296875 121.665039,44.2375488 121.536133,44.1188965 C121.407227,44.0002441 121.342773,43.8325195 121.342773,43.6157227 C121.342773,43.3168945 121.453369,43.0949707 121.674561,42.9499512 C121.895752,42.8049316 122.249512,42.7236328 122.73584,42.7060547 L122.73584,42.7060547 L123.359863,42.6796875 L123.359863,43.1015625 C123.359863,43.4794922 123.246338,43.7731934 123.019287,43.982666 C122.792236,44.1921387 122.491211,44.296875 122.116211,44.296875 Z M126.866699,45 L126.866699,42.5786133 C126.866699,41.972168 126.967773,41.5400391 127.169922,41.2822266 C127.37207,41.0244141 127.691406,40.8955078 128.12793,40.8955078 C128.456055,40.8955078 128.695557,40.987793 128.846436,41.1723633 C128.997314,41.3569336 129.072754,41.6367188 129.072754,42.0117188 L129.072754,42.0117188 L129.072754,45 L130.109863,45 L130.109863,41.831543 C130.109863,40.6450195 129.526855,40.0517578 128.36084,40.0517578 C128.032715,40.0517578 127.733887,40.1147461 127.464355,40.2407227 C127.194824,40.3666992 126.986816,40.5454102 126.840332,40.7768555 L126.840332,40.7768555 L126.787598,40.7768555 L126.642578,40.1396484 L125.833984,40.1396484 L125.833984,45 L126.866699,45 Z M133.186035,45.0878906 C133.824707,45.0878906 134.30957,44.8461914 134.640625,44.362793 L134.640625,44.362793 L134.688965,44.362793 L134.869141,45 L135.677734,45 L135.677734,38.1621094 L134.640625,38.1621094 L134.640625,39.9331055 C134.640625,40.1352539 134.665527,40.4106445 134.715332,40.7592773 L134.715332,40.7592773 L134.662598,40.7592773 C134.328613,40.2875977 133.842285,40.0517578 133.203613,40.0517578 C132.594238,40.0517578 132.117432,40.2736816 131.773193,40.7175293 C131.428955,41.161377 131.256836,41.7817383 131.256836,42.5786133 C131.256836,43.3725586 131.426758,43.9892578 131.766602,44.4287109 C132.106445,44.8681641 132.57959,45.0878906 133.186035,45.0878906 Z M133.462891,44.2529297 C133.082031,44.2529297 132.796387,44.1115723 132.605957,43.8288574 C132.415527,43.5461426 132.320312,43.1352539 132.320312,42.5961914 C132.320312,42.0512695 132.418457,41.6315918 132.614746,41.3371582 C132.811035,41.0427246 133.09082,40.8955078 133.454102,40.8955078 C133.878906,40.8955078 134.190918,41.0244141 134.390137,41.2822266 C134.589355,41.5400391 134.688965,41.9750977 134.688965,42.5874023 L134.688965,42.5874023 L134.688965,42.7324219 C134.683105,43.2685547 134.583496,43.6560059 134.390137,43.8947754 C134.196777,44.1335449 133.887695,44.2529297 133.462891,44.2529297 Z M142.300293,45.0878906 C143.258301,45.0878906 143.998779,44.7978516 144.521729,44.2177734 C145.044678,43.6376953 145.306152,42.824707 145.306152,41.7788086 C145.306152,40.7299805 145.04541,39.9169922 144.523926,39.3398438 C144.002441,38.7626953 143.26416,38.4741211 142.309082,38.4741211 C141.339355,38.4741211 140.593018,38.7583008 140.070068,39.3266602 C139.547119,39.8950195 139.285645,40.7094727 139.285645,41.7700195 C139.285645,42.8305664 139.545654,43.6486816 140.065674,44.2243652 C140.585693,44.8000488 141.330566,45.0878906 142.300293,45.0878906 Z M142.300293,44.1914062 C141.67334,44.1914062 141.200195,43.9870605 140.880859,43.5783691 C140.561523,43.1696777 140.401855,42.5698242 140.401855,41.7788086 C140.401855,40.9907227 140.562256,40.3930664 140.883057,39.9858398 C141.203857,39.5786133 141.679199,39.375 142.309082,39.375 C142.933105,39.375 143.402588,39.5786133 143.717529,39.9858398 C144.032471,40.3930664 144.189941,40.9907227 144.189941,41.7788086 C144.189941,42.5786133 144.031006,43.1806641 143.713135,43.5849609 C143.395264,43.9892578 142.924316,44.1914062 142.300293,44.1914062 Z M148.430664,45 L149.07666,42.7412109 C149.17627,42.4101562 149.311035,41.8491211 149.480957,41.0581055 L149.480957,41.0581055 L149.520508,41.0581055 C149.719727,41.934082 149.857422,42.4921875 149.933594,42.7324219 L149.933594,42.7324219 L150.562012,45 L151.722168,45 L153.093262,40.1396484 L152.056152,40.1396484 L151.427734,42.534668 C151.266602,43.1821289 151.164062,43.6860352 151.120117,44.0463867 L151.120117,44.0463867 L151.084961,44.0463867 C151.073242,43.8823242 151.034424,43.6523438 150.968506,43.3564453 C150.902588,43.0605469 150.847656,42.8408203 150.803711,42.6972656 L150.803711,42.6972656 L150.087402,40.1396484 L148.953613,40.1396484 L148.215332,42.6972656 C148.171387,42.8349609 148.119385,43.0422363 148.059326,43.3190918 C147.999268,43.5959473 147.95459,43.8413086 147.925293,44.0551758 L147.925293,44.0551758 L147.898926,44.0551758 C147.840332,43.6333008 147.740723,43.1264648 147.600098,42.534668 L147.600098,42.534668 L146.980469,40.1396484 L145.925781,40.1396484 L147.288086,45 L148.430664,45 Z M154.960938,45 L154.960938,42.5786133 C154.960938,41.972168 155.062012,41.5400391 155.26416,41.2822266 C155.466309,41.0244141 155.785645,40.8955078 156.222168,40.8955078 C156.550293,40.8955078 156.789795,40.987793 156.940674,41.1723633 C157.091553,41.3569336 157.166992,41.6367188 157.166992,42.0117188 L157.166992,42.0117188 L157.166992,45 L158.204102,45 L158.204102,41.831543 C158.204102,40.6450195 157.621094,40.0517578 156.455078,40.0517578 C156.126953,40.0517578 155.828125,40.1147461 155.558594,40.2407227 C155.289062,40.3666992 155.081055,40.5454102 154.93457,40.7768555 L154.93457,40.7768555 L154.881836,40.7768555 L154.736816,40.1396484 L153.928223,40.1396484 L153.928223,45 L154.960938,45 Z M161.763672,45.0878906 C162.094727,45.0878906 162.38916,45.0629883 162.646973,45.0131836 C162.904785,44.9633789 163.159668,44.878418 163.411621,44.7583008 L163.411621,44.7583008 L163.411621,43.9189453 C163.127441,44.0449219 162.861572,44.1350098 162.614014,44.189209 C162.366455,44.2434082 162.099121,44.2705078 161.812012,44.2705078 C161.375488,44.2705078 161.037109,44.1437988 160.796875,43.8903809 C160.556641,43.6369629 160.429199,43.2744141 160.414551,42.8027344 L160.414551,42.8027344 L163.65332,42.8027344 L163.65332,42.2446289 C163.65332,41.5620117 163.467285,41.0258789 163.095215,40.6362305 C162.723145,40.246582 162.216309,40.0517578 161.574707,40.0517578 C160.883301,40.0517578 160.339844,40.2788086 159.944336,40.7329102 C159.548828,41.1870117 159.351074,41.8110352 159.351074,42.6049805 C159.351074,43.378418 159.564209,43.9855957 159.990479,44.4265137 C160.416748,44.8674316 161.007812,45.0878906 161.763672,45.0878906 Z M162.638184,42.0556641 L160.432129,42.0556641 C160.470215,41.6572266 160.588135,41.3540039 160.785889,41.1459961 C160.983643,40.9379883 161.246582,40.8339844 161.574707,40.8339844 C161.902832,40.8339844 162.160645,40.9372559 162.348145,41.1437988 C162.535645,41.3503418 162.632324,41.6542969 162.638184,42.0556641 L162.638184,42.0556641 Z M165.859375,45 L165.859375,42.4599609 C165.859375,42.0292969 165.987549,41.6791992 166.243896,41.409668 C166.500244,41.1401367 166.834961,41.0053711 167.248047,41.0053711 C167.40625,41.0053711 167.558594,41.0229492 167.705078,41.0581055 L167.705078,41.0581055 L167.806152,40.0957031 C167.671387,40.0664062 167.5,40.0517578 167.291992,40.0517578 C166.993164,40.0517578 166.714111,40.1367188 166.454834,40.3066406 C166.195557,40.4765625 165.985352,40.706543 165.824219,40.996582 L165.824219,40.996582 L165.771484,40.996582 L165.635254,40.1396484 L164.82666,40.1396484 L164.82666,45 L165.859375,45 Z M169.968262,45.0878906 C170.612793,45.0878906 171.10791,44.9611816 171.453613,44.7077637 C171.799316,44.4543457 171.972168,44.090332 171.972168,43.6157227 C171.972168,43.3813477 171.928223,43.1799316 171.840332,43.0114746 C171.752441,42.8430176 171.617676,42.6943359 171.436035,42.5654297 C171.254395,42.4365234 170.962891,42.2944336 170.561523,42.1391602 C170.083984,41.9545898 169.77417,41.8095703 169.63208,41.7041016 C169.48999,41.5986328 169.418945,41.4697266 169.418945,41.3173828 C169.418945,41.0068359 169.691406,40.8515625 170.236328,40.8515625 C170.59375,40.8515625 171.034668,40.9599609 171.559082,41.1767578 L171.559082,41.1767578 L171.893066,40.3989258 C171.383301,40.1674805 170.842773,40.0517578 170.271484,40.0517578 C169.694336,40.0517578 169.238037,40.166748 168.902588,40.3967285 C168.567139,40.626709 168.399414,40.949707 168.399414,41.3657227 C168.399414,41.7114258 168.498291,41.9926758 168.696045,42.2094727 C168.893799,42.4262695 169.272461,42.6430664 169.832031,42.8598633 C170.119141,42.9711914 170.343262,43.0708008 170.504395,43.1586914 C170.665527,43.246582 170.78125,43.331543 170.851562,43.4135742 C170.921875,43.4956055 170.957031,43.5981445 170.957031,43.7211914 C170.957031,44.1049805 170.63916,44.296875 170.003418,44.296875 C169.51123,44.296875 168.979492,44.1650391 168.408203,43.9013672 L168.408203,43.9013672 L168.408203,44.793457 C168.800781,44.9897461 169.320801,45.0878906 169.968262,45.0878906 Z M174.121094,45 L174.121094,42.5874023 C174.121094,41.9780273 174.2229,41.5437012 174.426514,41.2844238 C174.630127,41.0251465 174.94873,40.8955078 175.382324,40.8955078 C175.710449,40.8955078 175.949951,40.987793 176.10083,41.1723633 C176.251709,41.3569336 176.327148,41.6367188 176.327148,42.0117188 L176.327148,42.0117188 L176.327148,45 L177.364258,45 L177.364258,41.831543 C177.364258,40.6450195 176.775391,40.0517578 175.597656,40.0517578 C175.263672,40.0517578 174.971436,40.1162109 174.720947,40.2451172 C174.470459,40.3740234 174.274902,40.5556641 174.134277,40.7900391 L174.134277,40.7900391 L174.068359,40.7900391 C174.103516,40.4736328 174.121094,40.1762695 174.121094,39.8979492 L174.121094,39.8979492 L174.121094,38.1621094 L173.088379,38.1621094 L173.088379,45 L174.121094,45 Z M179.324219,39.4189453 C179.505859,39.4189453 179.647217,39.3684082 179.748291,39.267334 C179.849365,39.1662598 179.899902,39.027832 179.899902,38.8520508 C179.899902,38.6674805 179.849365,38.5253906 179.748291,38.4257812 C179.647217,38.3261719 179.505859,38.2763672 179.324219,38.2763672 C179.136719,38.2763672 178.992432,38.3261719 178.891357,38.4257812 C178.790283,38.5253906 178.739746,38.6674805 178.739746,38.8520508 C178.739746,39.027832 178.790283,39.1662598 178.891357,39.267334 C178.992432,39.3684082 179.136719,39.4189453 179.324219,39.4189453 Z M179.833984,45 L179.833984,40.1396484 L178.80127,40.1396484 L178.80127,45 L179.833984,45 Z M182.343262,47.1621094 L182.343262,45.1713867 C182.343262,45.0834961 182.322754,44.8344727 182.281738,44.4243164 L182.281738,44.4243164 L182.343262,44.4243164 C182.683105,44.8666992 183.160645,45.0878906 183.775879,45.0878906 C184.382324,45.0878906 184.857666,44.8652344 185.201904,44.4199219 C185.546143,43.9746094 185.718262,43.3549805 185.718262,42.5610352 C185.718262,41.7670898 185.549072,41.1503906 185.210693,40.7109375 C184.872314,40.2714844 184.399902,40.0517578 183.793457,40.0517578 C183.148926,40.0517578 182.665527,40.2978516 182.343262,40.7900391 L182.343262,40.7900391 L182.290527,40.7900391 C182.217285,40.4472656 182.168945,40.2304688 182.145508,40.1396484 L182.145508,40.1396484 L181.310547,40.1396484 L181.310547,47.1621094 L182.343262,47.1621094 Z M183.542969,44.2441406 C183.118164,44.2441406 182.812012,44.1115723 182.624512,43.8464355 C182.437012,43.5812988 182.343262,43.152832 182.343262,42.5610352 L182.343262,42.5610352 L182.343262,42.4072266 C182.343262,41.8798828 182.437744,41.4960938 182.626709,41.2558594 C182.815674,41.015625 183.115234,40.8955078 183.525391,40.8955078 C183.897461,40.8955078 184.179443,41.0354004 184.371338,41.3151855 C184.563232,41.5949707 184.65918,42.0073242 184.65918,42.5522461 C184.65918,43.0942383 184.5625,43.5117188 184.369141,43.8046875 C184.175781,44.0976562 183.900391,44.2441406 183.542969,44.2441406 Z M190.741211,45.0878906 C191.467773,45.0878906 192.037598,44.925293 192.450684,44.6000977 C192.86377,44.2749023 193.070312,43.8266602 193.070312,43.2553711 C193.070312,42.965332 193.019043,42.7133789 192.916504,42.4995117 C192.813965,42.2856445 192.652832,42.09375 192.433105,41.9238281 C192.213379,41.7539062 191.867676,41.5708008 191.395996,41.3745117 C190.977051,41.2016602 190.687012,41.0625 190.525879,40.9570312 C190.364746,40.8515625 190.249023,40.739502 190.178711,40.6208496 C190.108398,40.5021973 190.073242,40.359375 190.073242,40.1923828 C190.073242,39.9492188 190.161133,39.7536621 190.336914,39.6057129 C190.512695,39.4577637 190.770508,39.3837891 191.110352,39.3837891 C191.558594,39.3837891 192.068359,39.5039062 192.639648,39.7441406 L192.639648,39.7441406 L192.973633,38.887207 C192.364258,38.6176758 191.751953,38.4829102 191.136719,38.4829102 C190.495117,38.4829102 189.983887,38.6367188 189.603027,38.9443359 C189.222168,39.2519531 189.031738,39.6738281 189.031738,40.2099609 C189.031738,40.6376953 189.151855,41.0039062 189.39209,41.3085938 C189.632324,41.6132812 190.04541,41.8842773 190.631348,42.121582 C191.199707,42.3500977 191.574707,42.5478516 191.756348,42.7148438 C191.937988,42.8818359 192.028809,43.0854492 192.028809,43.3256836 C192.028809,43.5922852 191.929932,43.8046875 191.732178,43.9628906 C191.534424,44.1210938 191.227539,44.2001953 190.811523,44.2001953 C190.527344,44.2001953 190.220459,44.1606445 189.890869,44.081543 C189.561279,44.0024414 189.25,43.894043 188.957031,43.7563477 L188.957031,43.7563477 L188.957031,44.7495117 C189.419922,44.9750977 190.014648,45.0878906 190.741211,45.0878906 Z M194.322754,47.1621094 C195.20459,47.1621094 195.834473,46.6567383 196.212402,45.6459961 L196.212402,45.6459961 L198.291016,40.1396484 L197.174805,40.1396484 C196.500977,42.09375 196.128906,43.185791 196.058594,43.4157715 C195.988281,43.645752 195.939941,43.8413086 195.913574,44.0024414 L195.913574,44.0024414 L195.878418,44.0024414 C195.828613,43.6567383 195.729004,43.2875977 195.57959,42.8950195 L195.57959,42.8950195 L194.59082,40.1396484 L193.46582,40.1396484 L195.416992,45 L195.236816,45.4570312 C195.034668,46.0341797 194.68457,46.3227539 194.186523,46.3227539 C193.987305,46.3227539 193.810059,46.3051758 193.654785,46.2700195 L193.654785,46.2700195 L193.654785,47.0874023 C193.871582,47.137207 194.094238,47.1621094 194.322754,47.1621094 Z M200.290527,45.0878906 C200.935059,45.0878906 201.430176,44.9611816 201.775879,44.7077637 C202.121582,44.4543457 202.294434,44.090332 202.294434,43.6157227 C202.294434,43.3813477 202.250488,43.1799316 202.162598,43.0114746 C202.074707,42.8430176 201.939941,42.6943359 201.758301,42.5654297 C201.57666,42.4365234 201.285156,42.2944336 200.883789,42.1391602 C200.40625,41.9545898 200.096436,41.8095703 199.954346,41.7041016 C199.812256,41.5986328 199.741211,41.4697266 199.741211,41.3173828 C199.741211,41.0068359 200.013672,40.8515625 200.558594,40.8515625 C200.916016,40.8515625 201.356934,40.9599609 201.881348,41.1767578 L201.881348,41.1767578 L202.215332,40.3989258 C201.705566,40.1674805 201.165039,40.0517578 200.59375,40.0517578 C200.016602,40.0517578 199.560303,40.166748 199.224854,40.3967285 C198.889404,40.626709 198.72168,40.949707 198.72168,41.3657227 C198.72168,41.7114258 198.820557,41.9926758 199.018311,42.2094727 C199.216064,42.4262695 199.594727,42.6430664 200.154297,42.8598633 C200.441406,42.9711914 200.665527,43.0708008 200.82666,43.1586914 C200.987793,43.246582 201.103516,43.331543 201.173828,43.4135742 C201.244141,43.4956055 201.279297,43.5981445 201.279297,43.7211914 C201.279297,44.1049805 200.961426,44.296875 200.325684,44.296875 C199.833496,44.296875 199.301758,44.1650391 198.730469,43.9013672 L198.730469,43.9013672 L198.730469,44.793457 C199.123047,44.9897461 199.643066,45.0878906 200.290527,45.0878906 Z M204.975098,45.0878906 C205.168457,45.0878906 205.355225,45.0710449 205.5354,45.0373535 C205.715576,45.0036621 205.862793,44.9619141 205.977051,44.9121094 L205.977051,44.9121094 L205.977051,44.1342773 C205.725098,44.2133789 205.473145,44.2529297 205.221191,44.2529297 C205.019043,44.2529297 204.855713,44.1936035 204.731201,44.0749512 C204.606689,43.9562988 204.544434,43.7724609 204.544434,43.5234375 L204.544434,43.5234375 L204.544434,40.921875 L205.928711,40.921875 L205.928711,40.1396484 L204.544434,40.1396484 L204.544434,39.0585938 L203.907227,39.0585938 L203.555664,40.0869141 L202.84375,40.4648438 L202.84375,40.921875 L203.507324,40.921875 L203.507324,43.5410156 C203.507324,44.5722656 203.996582,45.0878906 204.975098,45.0878906 Z M209.070801,45.0878906 C209.401855,45.0878906 209.696289,45.0629883 209.954102,45.0131836 C210.211914,44.9633789 210.466797,44.878418 210.71875,44.7583008 L210.71875,44.7583008 L210.71875,43.9189453 C210.43457,44.0449219 210.168701,44.1350098 209.921143,44.189209 C209.673584,44.2434082 209.40625,44.2705078 209.119141,44.2705078 C208.682617,44.2705078 208.344238,44.1437988 208.104004,43.8903809 C207.86377,43.6369629 207.736328,43.2744141 207.72168,42.8027344 L207.72168,42.8027344 L210.960449,42.8027344 L210.960449,42.2446289 C210.960449,41.5620117 210.774414,41.0258789 210.402344,40.6362305 C210.030273,40.246582 209.523438,40.0517578 208.881836,40.0517578 C208.19043,40.0517578 207.646973,40.2788086 207.251465,40.7329102 C206.855957,41.1870117 206.658203,41.8110352 206.658203,42.6049805 C206.658203,43.378418 206.871338,43.9855957 207.297607,44.4265137 C207.723877,44.8674316 208.314941,45.0878906 209.070801,45.0878906 Z M209.945312,42.0556641 L207.739258,42.0556641 C207.777344,41.6572266 207.895264,41.3540039 208.093018,41.1459961 C208.290771,40.9379883 208.553711,40.8339844 208.881836,40.8339844 C209.209961,40.8339844 209.467773,40.9372559 209.655273,41.1437988 C209.842773,41.3503418 209.939453,41.6542969 209.945312,42.0556641 L209.945312,42.0556641 Z M213.166504,45 L213.166504,42.5786133 C213.166504,41.9750977 213.259521,41.5437012 213.445557,41.2844238 C213.631592,41.0251465 213.923828,40.8955078 214.322266,40.8955078 C214.621094,40.8955078 214.84082,40.9870605 214.981445,41.170166 C215.12207,41.3532715 215.192383,41.6308594 215.192383,42.0029297 L215.192383,42.0029297 L215.192383,45 L216.229492,45 L216.229492,42.4248047 C216.229492,41.90625 216.32251,41.5217285 216.508545,41.2712402 C216.69458,41.020752 216.988281,40.8955078 217.389648,40.8955078 C217.688477,40.8955078 217.908936,40.9870605 218.051025,41.170166 C218.193115,41.3532715 218.26416,41.6308594 218.26416,42.0029297 L218.26416,42.0029297 L218.26416,45 L219.296875,45 L219.296875,41.831543 C219.296875,41.230957 219.164307,40.7841797 218.89917,40.4912109 C218.634033,40.1982422 218.211426,40.0517578 217.631348,40.0517578 C217.294434,40.0517578 216.995605,40.1191406 216.734863,40.2539062 C216.474121,40.3886719 216.271973,40.5761719 216.128418,40.8164062 L216.128418,40.8164062 L216.058105,40.8164062 C215.814941,40.3066406 215.319824,40.0517578 214.572754,40.0517578 C214.265137,40.0517578 213.983154,40.1147461 213.726807,40.2407227 C213.470459,40.3666992 213.274902,40.5454102 213.140137,40.7768555 L213.140137,40.7768555 L213.087402,40.7768555 L212.942383,40.1396484 L212.133789,40.1396484 L212.133789,45 L213.166504,45 Z" id="ProviderEnrollmentChainandOwnershipSystem" fill="#0573BB" fill-rule="nonzero"></path>
            </g>
        </g>
    </g>
</svg>