<?xml version="1.0" encoding="UTF-8"?>
<svg width="21px" height="21px" viewBox="0 0 21 21" version="1.1" xmlns="http://www.w3.org/2000/svg" xmlns:xlink="http://www.w3.org/1999/xlink">
    <title>icon-note-med</title>
    <g id="Page-1-Icons" stroke="none" stroke-width="1" fill="none" fill-rule="evenodd">
        <g id="PECOS-2.0-Icons-Overview-v21" transform="translate(-1809.000000, -597.000000)" fill="#C5A240">
            <g id="Note-Icons" transform="translate(1798.000000, 564.000000)">
                <g id="icon-note-med" transform="translate(11.000000, 33.000000)">
                    <path d="M17.5,2.003 L19,2.00366211 C19.5522847,2.00366211 20,2.45137736 20,3.00366211 L20,19.0036621 C20,20.1082316 19.1045695,21.0036621 18,21.0036621 L3,21.0036621 C1.8954305,21.0036621 1,20.1082316 1,19.0036621 L1,4.00366211 C1,2.89909261 1.8954305,2.00366211 3,2.00366211 L3.50000458,2.00305962 L3.50000458,2.00305962 L3.5,1 C3.5,0.44771525 3.94771525,1.01453063e-16 4.5,0 C5.05228475,-1.01453063e-16 5.5,0.44771525 5.5,1 L5.5,2.003 L7.50000458,2.00305962 L7.50000458,2.00305962 L7.5,1 C7.5,0.44771525 7.94771525,1.01453063e-16 8.5,0 C9.05228475,-1.01453063e-16 9.5,0.44771525 9.5,1 L9.5,2.003 L11.5000046,2.00305962 L11.5000046,2.00305962 L11.5,1 C11.5,0.44771525 11.9477153,1.01453063e-16 12.5,0 C13.0522847,-1.01453063e-16 13.5,0.44771525 13.5,1 L13.5,2.003 L15.5000046,2.00305962 L15.5000046,2.00305962 L15.5,1 C15.5,0.44771525 15.9477153,1.01453063e-16 16.5,0 C17.0522847,-1.01453063e-16 17.5,0.44771525 17.5,1 L17.5,2.003 Z M16.9969817,4.00557616 L4.01359379,4.03035225 C3.46248814,4.03140392 3.01611407,4.47813476 3.0155027,5.02924107 L3.0155027,5.02924107 L3.00111059,18.0025527 C3.00111018,18.0029225 3.00110998,18.0032923 3.00110998,18.0036621 L3.00783771,18.1202832 C3.06560282,18.6176219 3.48827414,19.0036621 4.00110998,19.0036621 L4.00110998,19.0036621 L16.9844979,19.0036621 C17.5363503,19.0036621 17.9838863,18.5566214 17.9844973,18.0047694 L17.9844973,18.0047694 L17.9988894,5.00668159 L17.9988894,5.00668159 C17.9978343,4.45138231 17.5492655,4.00452224 16.9969817,4.00557616 L16.9969817,4.00557616 Z M16,15.0036621 L16,17.0036621 L5,17.0036621 L5,15.0036621 L16,15.0036621 Z M16,12.0036621 L16,14.0036621 L5,14.0036621 L5,12.0036621 L16,12.0036621 Z M16,9.00366211 L16,11.0036621 L5,11.0036621 L5,9.00366211 L16,9.00366211 Z M16,6.00366211 L16,8.00366211 L5,8.00366211 L5,6.00366211 L16,6.00366211 Z"></path>
                </g>
            </g>
        </g>
    </g>
</svg>