<?xml version="1.0" encoding="UTF-8"?>
<svg width="17px" height="17px" viewBox="0 0 17 17" version="1.1" xmlns="http://www.w3.org/2000/svg" xmlns:xlink="http://www.w3.org/1999/xlink">
    <title>icon-note-small</title>
    <g id="Page-1-Icons" stroke="none" stroke-width="1" fill="none" fill-rule="evenodd">
        <g id="PECOS-2.0-Icons-Overview-v21" transform="translate(-1811.000000, -630.000000)" fill="#C5A240">
            <g id="Note-Icons" transform="translate(1798.000000, 564.000000)">
                <g id="icon-note-small" transform="translate(13.000000, 66.000000)">
                    <path d="M13,-2.84217094e-13 C13.5522847,-2.84318547e-13 14,0.44771525 14,1 L14,2 L15,2 C15.5522847,2 16,2.44771525 16,3 L16,15 C16,16.1045695 15.1045695,17 14,17 L3,17 C1.8954305,17 1,16.1045695 1,15 L1,4 C1,2.8954305 1.8954305,2 3,2 L3,1 C3,0.44771525 3.44771525,-2.84115641e-13 4,-2.84217094e-13 C4.55228475,-2.84318547e-13 5,0.44771525 5,1 L5,2 L6,2 L6,2 L6,1 C6,0.44771525 6.44771525,-2.84115641e-13 7,-2.84217094e-13 C7.55228475,-2.84318547e-13 8,0.44771525 8,1 L8,2 L9,2 L9,2 L9,1 C9,0.44771525 9.44771525,-2.84115641e-13 10,-2.84217094e-13 C10.5522847,-2.84318547e-13 11,0.44771525 11,1 L11,2 L12,2 L12,2 L12,1 C12,0.44771525 12.4477153,-2.84115641e-13 13,-2.84217094e-13 Z M12.9982433,4.0002628 L4.01466701,4.00261956 C3.46306774,4.00276427 3.01575412,4.44952764 3.01493046,5.00112631 L3.01493046,5.00112631 L3.00149544,13.9985068 L3.00149544,13.9985068 C3.00149433,14.5522847 3.44920958,15 4.00149433,15 L4.00149433,15 L12.9850707,15 C13.5367725,15 13.9842459,14.5531941 13.9850695,14.0014928 L13.9850695,14.0014928 L13.9985046,5.00175559 C13.9985054,5.00117054 13.9985058,5.00058548 13.9985056,5.00000043 L13.9917473,4.88338107 C13.9338517,4.38605756 13.5110792,4.00012826 12.9982433,4.0002628 L12.9982433,4.0002628 Z M12,12 L12,13 L5,13 L5,12 L12,12 Z M12,10 L12,11 L5,11 L5,10 L12,10 Z M12,8 L12,9 L5,9 L5,8 L12,8 Z M12,6 L12,7 L5,7 L5,6 L12,6 Z" id="icon-application-event-note-copy-5"></path>
                </g>
            </g>
        </g>
    </g>
</svg>