<?xml version="1.0" encoding="UTF-8"?>
<svg width="20px" height="20px" viewBox="0 0 20 20" version="1.1" xmlns="http://www.w3.org/2000/svg" xmlns:xlink="http://www.w3.org/1999/xlink">
    <title>icon-add-note</title>
    <g id="Page-1-Icons" stroke="none" stroke-width="1" fill="none" fill-rule="evenodd">
        <g id="PECOS-2.0-Icons-Overview-v28" transform="translate(-1371.000000, -588.000000)" fill="#0573BB">
            <g id="NOTE" transform="translate(1359.000000, 490.000000)">
                <g id="icon-add-note" transform="translate(12.000000, 98.000000)">
                    <path d="M14,9 C16.7614237,9 19,11.2385763 19,14 C19,16.7614237 16.7614237,19 14,19 C11.2385763,19 9,16.7614237 9,14 C9,11.2385763 11.2385763,9 14,9 Z M13,1 C13.5522847,1 14,1.44771525 14,2 L14,2.996 L15,2.99633789 C15.5522847,2.99633789 16,3.44405314 16,3.99633789 L16.0010432,7.29018925 C15.3670274,7.10138872 14.695354,7 14,7 L13.997,7 L13.9985046,6.00175559 C13.998505,6.00146306 13.9985053,6.00117054 13.9985055,6.00087801 L13.9917473,5.88338107 C13.9338517,5.38605756 13.5110792,5.00012826 12.9982433,5.0002628 L12.9982433,5.0002628 L4.01466701,5.00261956 C3.46306774,5.00276427 3.01575412,5.44952764 3.01493046,6.00112631 L3.01493046,6.00112631 L3.00149544,14.9985068 L3.00149544,14.9985068 C3.00149433,15.5522847 3.44920958,16 4.00149433,16 L4.00149433,16 L7.29018925,16.0010432 C7.50488457,16.722017 7.83261382,17.3942952 8.25282427,17.9973249 L3,17.9963379 C1.8954305,17.9963379 1,17.1009074 1,15.9963379 L1,4.99633789 C1,3.89176839 1.8954305,2.99633789 3,2.99633789 L3,2 C3,1.44771525 3.44771525,1 4,1 C4.55228475,1 5,1.44771525 5,2 L5,2.996 L6,2.996 L6,2 C6,1.44771525 6.44771525,1 7,1 C7.55228475,1 8,1.44771525 8,2 L8,2.996 L9,2.996 L9,2 C9,1.44771525 9.44771525,1 10,1 C10.5522847,1 11,1.44771525 11,2 L11,2.996 L12,2.996 L12,2 C12,1.44771525 12.4477153,1 13,1 Z M15,11 L13,11 L13,13 L11,13 L11,15 L13,15 L13,17 L15,17 L15,15 L17,15 L17,13 L15,13 L15,11 Z M7.00000007,13.9989974 L5,13.9981723 L5,13 L7.07089004,12.9999918 C7.02421835,13.3262759 7.00004761,13.6598185 7.00000007,13.9989974 Z M7.29018925,11.9989568 L5,11.9981723 L5,11 L7.67350433,11.000267 C7.5213812,11.3205288 7.39286026,11.6541746 7.29018925,11.9989568 Z M5,9 L9.10066301,9.00034717 C8.78911867,9.30567911 8.50599174,9.63989841 8.25561705,9.99867024 L5,9.99817229 L5,9 Z M5,7 L12,7.00182771 L11.9999537,7.28989247 C11.4306909,7.45931766 10.8917768,7.69920853 10.3933262,7.99945005 L5,7.99817229 L5,7 Z" id="icon-application-event-note-copy-3"></path>
                </g>
            </g>
        </g>
    </g>
</svg>