<?xml version="1.0" encoding="UTF-8"?>
<svg width="35px" height="35px" viewBox="0 0 35 35" version="1.1" xmlns="http://www.w3.org/2000/svg" xmlns:xlink="http://www.w3.org/1999/xlink">
    <title>icon-tl-application-assigned-reassigned</title>
    <defs>
        <linearGradient x1="50%" y1="0%" x2="50%" y2="50%" id="linearGradient-1">
            <stop stop-color="#149D9D" offset="0%"></stop>
            <stop stop-color="#095C5C" offset="100%"></stop>
        </linearGradient>
    </defs>
    <g id="Page-1-Icons" stroke="none" stroke-width="1" fill="none" fill-rule="evenodd">
        <g id="PECOS-2.0-Icons-Overview-v31" transform="translate(-864.000000, -2942.000000)">
            <g id="EVENT-TIMELINE" transform="translate(846.000000, 2211.000000)">
                <g id="Application-Assigned-Reassigned" transform="translate(11.000000, 725.000000)">
                    <g id="icon-tl-application-assigned-reassigned" transform="translate(7.000000, 6.000000)">
                        <g id="paper">
                            <path d="M2,0 L23,0 C24.1045695,-2.02906125e-16 25,0.8954305 25,2 L25,28 C25,29.1045695 24.1045695,30 23,30 L2,30 C0.8954305,30 1.3527075e-16,29.1045695 0,28 L0,2 C-1.3527075e-16,0.8954305 0.8954305,2.02906125e-16 2,0 Z" id="dark-bgd" fill="url(#linearGradient-1)"></path>
                            <rect fill="#E5FFFF" x="2" y="2" width="21" height="26"></rect>
                            <path d="M19,17 L19,19 L6,19 L6,17 L19,17 Z M19,13 L19,15 L6,15 L6,13 L19,13 Z M19,9 L19,11 L6,11 L6,9 L19,9 Z M19,5 L19,7 L6,7 L6,5 L19,5 Z" id="text-lines" fill="#15BBBB"></path>
                        </g>
                        <path d="M8,21 L8,23 L10,23 L10,25 L8,25 L8,27 L6,27 L6,25 L4,25 L4,23 L6,23 L6,21 L8,21 Z" id="cross" fill="#18DCDC"></path>
                        <circle id="Oval" fill="#0E7B7B" cx="23" cy="23" r="12"></circle>
                        <g id="icon-assign-reassign" transform="translate(13.000000, 13.000000)" fill="#FFFFFF">
                            <path d="M7.60457802,3.78820038 C9.39950346,3.78820038 10.854578,5.46713257 10.854578,7.53820038 C10.854578,8.19465126 10.7083936,8.81170614 10.4515376,9.34838864 C12.2924916,9.98803874 13.5382271,11.2165528 13.5382271,12.626915 C13.5382271,14.6979828 10.8519356,16.376915 7.53822708,16.376915 C4.22451858,16.376915 1.53822708,14.6979828 1.53822708,12.626915 C1.53822708,11.1874118 2.8359732,9.93734921 4.74013644,9.30880774 C4.49393066,8.78250168 4.35457802,8.17912846 4.35457802,7.53820038 C4.35457802,5.46713257 5.80965258,3.78820038 7.60457802,3.78820038 Z M6.28410792,10.9657504 L6.18919196,10.9789376 C4.64380964,11.2211043 3.53822708,11.8675234 3.53822708,12.626915 C3.53822708,13.5934133 5.32908808,14.376915 7.53822708,14.376915 C9.74736608,14.376915 11.5382271,13.5934133 11.5382271,12.626915 C11.5382271,11.8686907 10.4360407,11.2230918 8.89438535,10.9800571 C8.49954427,11.1786131 8.06315252,11.2882004 7.60457802,11.2882004 C7.13442336,11.2882004 6.68758593,11.1730085 6.28410792,10.9657504 Z M7.60457802,5.78820038 C6.91422208,5.78820038 6.35457802,6.57170207 6.35457802,7.53820038 C6.35457802,8.50469869 6.91422208,9.28820038 7.60457802,9.28820038 C8.29493396,9.28820038 8.85457802,8.50469869 8.85457802,7.53820038 C8.85457802,6.57170207 8.29493396,5.78820038 7.60457802,5.78820038 Z" id="person-front"></path>
                            <path d="M15.025856,3.50710297 C15.5781408,3.50710297 16.025856,3.95481822 16.025856,4.50710297 L16.025856,6.00710297 L17.525856,6.00710297 C18.0781408,6.00710297 18.525856,6.45481822 18.525856,7.00710297 C18.525856,7.55938772 18.0781408,8.00710297 17.525856,8.00710297 L16.025856,8.00710297 L16.025856,9.50710297 C16.025856,10.0593877 15.5781408,10.507103 15.025856,10.507103 C14.4735713,10.507103 14.025856,10.0593877 14.025856,9.50710297 L14.025856,8.00710297 L12.525856,8.00710297 C11.9735713,8.00710297 11.525856,7.55938772 11.525856,7.00710297 C11.525856,6.45481822 11.9735713,6.00710297 12.525856,6.00710297 L14.025856,6.00710297 L14.025856,4.50710297 C14.025856,3.95481822 14.4735713,3.50710297 15.025856,3.50710297 Z" id="Combined-Shape"></path>
                        </g>
                    </g>
                </g>
            </g>
        </g>
    </g>
</svg>