<?xml version="1.0" encoding="UTF-8"?>
<svg width="35px" height="35px" viewBox="0 0 35 35" version="1.1" xmlns="http://www.w3.org/2000/svg" xmlns:xlink="http://www.w3.org/1999/xlink">
    <title>icon-application-event-processing</title>
    <defs>
        <linearGradient x1="50%" y1="0%" x2="50%" y2="50%" id="linearGradient-1">
            <stop stop-color="#149D9D" offset="0%"></stop>
            <stop stop-color="#095C5C" offset="100%"></stop>
        </linearGradient>
    </defs>
    <g id="Page-1-Icons" stroke="none" stroke-width="1" fill="none" fill-rule="evenodd">
        <g id="PECOS-2.0-Icons-Overview-v21" transform="translate(-1501.000000, -1010.000000)">
            <g id="Event-Timeline-Icons" transform="translate(1483.000000, 564.000000)">
                <g id="icon-application-event-processing" transform="translate(18.000000, 446.000000)">
                    <g id="paper">
                        <path d="M2,0 L23,0 C24.1045695,-2.02906125e-16 25,0.8954305 25,2 L25,28 C25,29.1045695 24.1045695,30 23,30 L2,30 C0.8954305,30 1.3527075e-16,29.1045695 0,28 L0,2 C-1.3527075e-16,0.8954305 0.8954305,2.02906125e-16 2,0 Z" id="dark-bgd" fill="url(#linearGradient-1)"></path>
                        <rect fill="#E5FFFF" x="2" y="2" width="21" height="26"></rect>
                        <path d="M19,17 L19,19 L6,19 L6,17 L19,17 Z M19,13 L19,15 L6,15 L6,13 L19,13 Z M19,9 L19,11 L6,11 L6,9 L19,9 Z M19,5 L19,7 L6,7 L6,5 L19,5 Z" id="text-lines" fill="#15BBBB"></path>
                    </g>
                    <path d="M8,21 L8,23 L10,23 L10,25 L8,25 L8,27 L6,27 L6,25 L4,25 L4,23 L6,23 L6,21 L8,21 Z" id="cross" fill="#18DCDC"></path>
                    <g id="icon-processing" transform="translate(11.000000, 11.000000)">
                        <circle id="Oval" fill="#0E7B7B" cx="12" cy="12" r="12"></circle>
                        <path d="M14.6153946,5.62625521 C14.754684,5.62625521 14.8899819,5.6727845 14.9998086,5.75845618 L18.5050024,8.49272611 C18.7771678,8.70503209 18.8256934,9.09777374 18.6133874,9.36993913 C18.5818429,9.4103776 18.5454409,9.44677963 18.5050024,9.47832416 L14.9998086,12.2125941 C14.7276432,12.4249001 14.3349016,12.3763744 14.1225956,12.1042091 C14.0369239,11.9943824 13.9903946,11.8590845 13.9903946,11.7197951 L13.9895722,9.97925521 L7.99357224,9.9797821 C7.44128749,9.9797821 6.99357224,9.53206685 6.99357224,8.9797821 C6.99357224,8.42749735 7.44128749,7.9797821 7.99357224,7.9797821 L13.9895722,7.97925521 L13.9903946,6.25125521 C13.9903946,5.90607724 14.2702166,5.62625521 14.6153946,5.62625521 Z" id="arrow-right" fill="#FFFFFF"></path>
                        <path d="M13.6153946,11.6262552 C13.754684,11.6262552 13.8899819,11.6727845 13.9998086,11.7584562 L17.5050024,14.4927261 C17.7771678,14.7050321 17.8256934,15.0977737 17.6133874,15.3699391 C17.5818429,15.4103776 17.5454409,15.4467796 17.5050024,15.4783242 L13.9998086,18.2125941 C13.7276432,18.4249001 13.3349016,18.3763744 13.1225956,18.1042091 C13.0369239,17.9943824 12.9903946,17.8590845 12.9903946,17.7197951 L12.9895722,15.9792552 L6.99357224,15.9797821 C6.44128749,15.9797821 5.99357224,15.5320669 5.99357224,14.9797821 C5.99357224,14.4274974 6.44128749,13.9797821 6.99357224,13.9797821 L12.9895722,13.9792552 L12.9903946,12.2512552 C12.9903946,11.9060772 13.2702166,11.6262552 13.6153946,11.6262552 Z" id="arrow-left" fill="#FFFFFF" transform="translate(11.869594, 14.985539) scale(-1, 1) translate(-11.869594, -14.985539) "></path>
                    </g>
                </g>
            </g>
        </g>
    </g>
</svg>