<?xml version="1.0" encoding="UTF-8"?>
<svg width="35px" height="35px" viewBox="0 0 35 35" version="1.1" xmlns="http://www.w3.org/2000/svg" xmlns:xlink="http://www.w3.org/1999/xlink">
    <title>icon-application-event-submitted</title>
    <defs>
        <linearGradient x1="50%" y1="0%" x2="50%" y2="50%" id="linearGradient-1">
            <stop stop-color="#149D9D" offset="0%"></stop>
            <stop stop-color="#095C5C" offset="100%"></stop>
        </linearGradient>
    </defs>
    <g id="Page-1" stroke="none" stroke-width="1" fill="none" fill-rule="evenodd">
        <g id="PECOS-2.0-Icons-&amp;-Illus-v14" transform="translate(-1497.000000, -1383.000000)">
            <g id="Timeline-Event-Icons" transform="translate(1479.000000, 1202.000000)">
                <g id="icon-application-event-submitted" transform="translate(18.000000, 181.000000)">
                    <g id="paper">
                        <path d="M2,0 L23,0 C24.1045695,-2.02906125e-16 25,0.8954305 25,2 L25,28 C25,29.1045695 24.1045695,30 23,30 L2,30 C0.8954305,30 1.3527075e-16,29.1045695 0,28 L0,2 C-1.3527075e-16,0.8954305 0.8954305,2.02906125e-16 2,0 Z" id="dark-bgd" fill="url(#linearGradient-1)"></path>
                        <rect fill="#E5FFFF" x="2" y="2" width="21" height="26"></rect>
                        <path d="M19,17 L19,19 L6,19 L6,17 L19,17 Z M19,13 L19,15 L6,15 L6,13 L19,13 Z M19,9 L19,11 L6,11 L6,9 L19,9 Z M19,5 L19,7 L6,7 L6,5 L19,5 Z" id="text-lines" fill="#15BBBB"></path>
                    </g>
                    <path d="M8,21 L8,23 L10,23 L10,25 L8,25 L8,27 L6,27 L6,25 L4,25 L4,23 L6,23 L6,21 L8,21 Z" id="cross" fill="#18DCDC"></path>
                    <g id="icon-submitted" transform="translate(11.000000, 11.000000)">
                        <circle id="Oval" fill="#0E7B7B" cx="12" cy="12" r="12"></circle>
                        <path d="M17,16 C17.5522847,16 18,16.4477153 18,17 C18,17.5522847 17.5522847,18 17,18 L7,18 C6.44771525,18 6,17.5522847 6,17 C6,16.4477153 6.44771525,16 7,16 L17,16 Z M12,4 C12.5522847,4 13,4.44771525 13,5 L13.000975,10.038 L15.718975,10.0383301 C16.0503459,10.0383301 16.318975,10.3069592 16.318975,10.6383301 C16.318975,10.778692 16.2697653,10.9146117 16.1799078,11.0224407 L12.4609328,15.4852108 C12.2487943,15.7397769 11.8704555,15.7741713 11.6158894,15.5620329 C11.5880115,15.5388014 11.5622988,15.5130886 11.5390672,15.4852108 L7.8200922,11.0224407 C7.60795375,10.7678746 7.64234819,10.3895358 7.89691433,10.1773973 C8.00474333,10.0875398 8.14066306,10.0383301 8.28102497,10.0383301 L11.000975,10.038 L11,5 C11,4.44771525 11.4477153,4 12,4 Z" id="arrow-down" fill="#FFFFFF"></path>
                    </g>
                </g>
            </g>
        </g>
    </g>
</svg>