<?xml version="1.0" encoding="UTF-8"?>
<svg width="35px" height="35px" viewBox="0 0 35 35" version="1.1" xmlns="http://www.w3.org/2000/svg" xmlns:xlink="http://www.w3.org/1999/xlink">
    <title>icon-tl-application-event-generic</title>
    <defs>
        <linearGradient x1="50%" y1="0%" x2="50%" y2="50%" id="linearGradient-1">
            <stop stop-color="#149D9D" offset="0%"></stop>
            <stop stop-color="#095C5C" offset="100%"></stop>
        </linearGradient>
    </defs>
    <g id="Page-1-Icons" stroke="none" stroke-width="1" fill="none" fill-rule="evenodd">
        <g id="PECOS-2.0-Icons-Overview-v30" transform="translate(-537.000000, -2806.000000)">
            <g id="EVENT-TIMELINE" transform="translate(519.000000, 2129.000000)">
                <g id="Application-Generic" transform="translate(11.000000, 671.000000)">
                    <g id="icon-tl-application-event-generic" transform="translate(7.000000, 6.000000)">
                        <g id="paper">
                            <path d="M2,0 L23,0 C24.1045695,-2.02906125e-16 25,0.8954305 25,2 L25,28 C25,29.1045695 24.1045695,30 23,30 L2,30 C0.8954305,30 1.3527075e-16,29.1045695 0,28 L0,2 C-1.3527075e-16,0.8954305 0.8954305,2.02906125e-16 2,0 Z" id="dark-bgd" fill="url(#linearGradient-1)"></path>
                            <rect fill="#E5FFFF" x="2" y="2" width="21" height="26"></rect>
                            <path d="M19,17 L19,19 L6,19 L6,17 L19,17 Z M19,13 L19,15 L6,15 L6,13 L19,13 Z M19,9 L19,11 L6,11 L6,9 L19,9 Z M19,5 L19,7 L6,7 L6,5 L19,5 Z" id="text-lines" fill="#15BBBB"></path>
                        </g>
                        <path d="M8,21 L8,23 L10,23 L10,25 L8,25 L8,27 L6,27 L6,25 L4,25 L4,23 L6,23 L6,21 L8,21 Z" id="cross" fill="#18DCDC"></path>
                        <circle id="Oval" fill="#0E7B7B" cx="23" cy="23" r="12"></circle>
                        <g id="generic-clock" transform="translate(15.000000, 15.000000)" fill="#FFFFFF">
                            <path d="M8,0 C12.418278,0 16,3.581722 16,8 C16,12.418278 12.418278,16 8,16 C3.581722,16 0,12.418278 0,8 C0,3.581722 3.581722,0 8,0 Z M8,2 C4.6862915,2 2,4.6862915 2,8 C2,11.3137085 4.6862915,14 8,14 C11.3137085,14 14,11.3137085 14,8 C14,4.6862915 11.3137085,2 8,2 Z M8,3 C8.55228475,3 9,3.44771525 9,4 L9,8 L10.6214739,9.19859243 C11.0589006,9.52193796 11.1576382,10.1356259 10.8437088,10.5798587 L10.8408499,10.5839043 C10.5319392,11.0210351 9.92715309,11.1249782 9.49002222,10.8160675 C9.48606804,10.8132732 9.48213486,10.8104493 9.47822301,10.807596 L7,9 L7,4 C7,3.44771525 7.44771525,3 8,3 Z" id="Combined-Shape-Copy-14"></path>
                        </g>
                    </g>
                </g>
            </g>
        </g>
    </g>
</svg>