<?xml version="1.0" encoding="UTF-8"?>
<svg width="35px" height="35px" viewBox="0 0 35 35" version="1.1" xmlns="http://www.w3.org/2000/svg" xmlns:xlink="http://www.w3.org/1999/xlink">
    <title>icon-application-event-closed</title>
    <defs>
        <linearGradient x1="50%" y1="0%" x2="50%" y2="50%" id="linearGradient-1">
            <stop stop-color="#149D9D" offset="0%"></stop>
            <stop stop-color="#095C5C" offset="100%"></stop>
        </linearGradient>
    </defs>
    <g id="Page-1-Icons" stroke="none" stroke-width="1" fill="none" fill-rule="evenodd">
        <g id="PECOS-2.0-Icons-Overview-v28" transform="translate(-2555.000000, -1555.000000)">
            <g id="EVENT-TIMELINE" transform="translate(2537.000000, 1336.000000)">
                <g id="icon-application-event-closed" transform="translate(18.000000, 219.000000)">
                    <g id="paper">
                        <path d="M2,0 L23,0 C24.1045695,-2.02906125e-16 25,0.8954305 25,2 L25,28 C25,29.1045695 24.1045695,30 23,30 L2,30 C0.8954305,30 1.3527075e-16,29.1045695 0,28 L0,2 C-1.3527075e-16,0.8954305 0.8954305,2.02906125e-16 2,0 Z" id="dark-bgd" fill="url(#linearGradient-1)"></path>
                        <rect fill="#E5FFFF" x="2" y="2" width="21" height="26"></rect>
                        <path d="M19,17 L19,19 L6,19 L6,17 L19,17 Z M19,13 L19,15 L6,15 L6,13 L19,13 Z M19,9 L19,11 L6,11 L6,9 L19,9 Z M19,5 L19,7 L6,7 L6,5 L19,5 Z" id="text-lines" fill="#15BBBB"></path>
                    </g>
                    <path d="M8,21 L8,23 L10,23 L10,25 L8,25 L8,27 L6,27 L6,25 L4,25 L4,23 L6,23 L6,21 L8,21 Z" id="cross" fill="#18DCDC"></path>
                    <g id="icon-approved-closed" transform="translate(11.000000, 11.000000)">
                        <circle id="Oval" fill="#37A04C" cx="12" cy="12" r="12"></circle>
                        <path d="M9.00115967,14.9887085 L13.0138094,14.9887085 L13.0138094,14.9887085 L13.0138094,5.03957356 C13.0138094,4.47510736 13.4713997,4.01751709 14.0358659,4.01751709 C14.6003321,4.01751709 15.0579224,4.47510736 15.0579224,5.03957356 L15.0579224,16.0482788 C15.0579224,16.6005636 14.6102071,17.0482788 14.0579224,17.0482788 L9.00115967,17.0482788 C8.43242503,17.0482788 7.97137451,16.5872283 7.97137451,16.0184937 C7.97137451,15.449759 8.43242503,14.9887085 9.00115967,14.9887085 Z" id="Rectangle" fill="#FFFFFF" transform="translate(11.514648, 10.532898) rotate(45.000000) translate(-11.514648, -10.532898) "></path>
                    </g>
                </g>
            </g>
        </g>
    </g>
</svg>