<?xml version="1.0" encoding="UTF-8"?>
<svg width="18px" height="18px" viewBox="0 0 18 18" version="1.1" xmlns="http://www.w3.org/2000/svg" xmlns:xlink="http://www.w3.org/1999/xlink">
    <title>icon-application-event-note</title>
    <g id="Page-1" stroke="none" stroke-width="1" fill="none" fill-rule="evenodd">
        <g id="PECOS-2.0-Icons-&amp;-Illus-v14" transform="translate(-1505.000000, -1485.000000)" fill="#0E7B7B">
            <g id="Timeline-Event-Icons" transform="translate(1479.000000, 1202.000000)">
                <g id="icon-application-event-note" transform="translate(26.000000, 283.000000)">
                    <path d="M13.5689938,-1.77635684e-15 C13.8335984,-2.26905313e-15 14.087417,0.10487264 14.2748508,0.291645696 L17.7058571,3.71055614 C17.8941578,3.89819302 18,4.15308201 18,4.41891045 L18,16.0036621 C18,17.1082316 17.1045695,18.0036621 16,18.0036621 L2,18.0036621 C0.8954305,18.0036621 1.03163967e-13,17.1082316 1.03028697e-13,16.0036621 L1.03028697e-13,2 C1.02893426e-13,0.8954305 0.8954305,-1.57345071e-15 2,-1.77635684e-15 L13.5689938,-1.77635684e-15 Z M13.0014901,2.02709961 L3.00568997,2.02709961 C2.4539025,2.02709961 2.0063935,2.47403906 2.00569079,3.02582608 L2.00569079,3.02582608 L1.99043827,15.0023886 C1.99043773,15.0028131 1.99043746,15.0032376 1.99043746,15.0036621 L1.99716519,15.1202832 C2.0549303,15.6176219 2.47760162,16.0036621 2.99043746,16.0036621 L2.99043746,16.0036621 L15.0183056,16.0036621 C15.5699586,16.0036621 16.0174117,15.5569325 16.0183043,15.0052803 L16.0183043,15.0052803 L16.0344884,5.00366211 L14.0014901,5.00366211 C13.4492053,5.00366211 13.0014901,4.55594686 13.0014901,4.00366211 L13.0014901,4.00366211 L13.0014901,2.02709961 Z M13.9821733,12.0036621 L13.9821733,14.0036621 L3.99490667,14.0036621 L3.99490667,12.0036621 L13.9821733,12.0036621 Z M13.9821733,8.00366211 L13.9821733,10.0036621 L3.99490667,10.0036621 L3.99490667,8.00366211 L13.9821733,8.00366211 Z M11.98472,4.00366211 L11.98472,6.00366211 L3.99490667,6.00366211 L3.99490667,4.00366211 L11.98472,4.00366211 Z"></path>
                </g>
            </g>
        </g>
    </g>
</svg>