<?xml version="1.0" encoding="UTF-8"?>
<svg width="80px" height="80px" viewBox="0 0 80 80" version="1.1" xmlns="http://www.w3.org/2000/svg" xmlns:xlink="http://www.w3.org/1999/xlink">
    <title>icon-fee-payment-match-overview</title>
    <defs>
        <linearGradient x1="50%" y1="0%" x2="50%" y2="100%" id="linearGradient-1">
            <stop stop-color="#4EB049" offset="0%"></stop>
            <stop stop-color="#267823" offset="100%"></stop>
        </linearGradient>
        <linearGradient x1="50%" y1="0%" x2="50%" y2="100%" id="linearGradient-2">
            <stop stop-color="#61BE59" offset="0%"></stop>
            <stop stop-color="#1D6E1B" offset="100%"></stop>
        </linearGradient>
    </defs>
    <g id="Page-1-Icons" stroke="none" stroke-width="1" fill="none" fill-rule="evenodd">
        <g id="PECOS-2.0-Icons-Overview-v30" transform="translate(-2475.000000, -2931.000000)">
            <g id="FEE-PAYMENT-OVERVIEW" transform="translate(2459.000000, 2773.000000)">
                <g id="icon-fee-payment-match-overview" transform="translate(16.000000, 158.000000)">
                    <circle id="green-80x80-oval" fill="#CAEFBD" cx="40" cy="40" r="40"></circle>
                    <g id="application" transform="translate(25.925116, 21.000000)">
                        <rect id="Rectangle" fill="#74BF71" x="0.0748836932" y="0" width="32" height="40" rx="2"></rect>
                        <rect id="Rectangle-Copy" fill="#CDEEBC" x="2.07488369" y="2" width="28" height="36" rx="1"></rect>
                        <path d="M26.0748837,31 L26.0748837,33 L6.07488369,33 L6.07488369,31 L26.0748837,31 Z M26.0748837,27 L26.0748837,29 L6.07488369,29 L6.07488369,27 L26.0748837,27 Z M26.0748837,23 L26.0748837,25 L6.07488369,25 L6.07488369,23 L26.0748837,23 Z M26.0748837,19 L26.0748837,21 L6.07488369,21 L6.07488369,19 L26.0748837,19 Z M26.0748837,15 L26.0748837,17 L6.07488369,17 L6.07488369,15 L26.0748837,15 Z M26.0748837,11 L26.0748837,13 L6.07488369,13 L6.07488369,11 L26.0748837,11 Z M26.0748837,7 L26.0748837,9 L6.07488369,9 L6.07488369,7 L26.0748837,7 Z" id="Combined-Shape" fill="#9CD199"></path>
                        <path d="M0,13 C8.08037901,11.1179661 14.2177161,13.4512994 18.4120114,20 C22.6063066,26.5487006 21.8147834,33.2091684 16.0374418,39.9814036 L0,39.9814036 L0,13 Z" id="Rectangle" fill="#CAEFBD"></path>
                    </g>
                    <path d="M53,16 L55.457,20.915 L60.6412421,19.0872622 L58.949,24.474 L64,27 L58.949,29.525 L60.6412421,34.9127378 L55.457,33.084 L53,38 L50.542,33.084 L45.3587579,34.9127378 L47.05,29.525 L42,27 L47.05,24.474 L45.3587579,19.0872622 L50.542,20.915 L53,16 Z" id="Combined-Shape" fill="url(#linearGradient-1)"></path>
                    <path d="M53,21 L54.341,23.681 L57.1679502,22.6839612 L56.244,25.622 L59,27 L56.244,28.377 L57.1679502,31.3160388 L54.34,30.318 L53,33 L51.659,30.318 L48.8320498,31.3160388 L49.755,28.377 L47,27 L49.755,25.622 L48.8320498,22.6839612 L51.658,23.681 L53,21 Z" id="Combined-Shape-Copy" fill="#B5E5B3"></path>
                    <g id="coin" transform="translate(16.000000, 35.000000)">
                        <circle id="Oval-Copy-9" fill="url(#linearGradient-2)" cx="14.5" cy="14.5" r="14.5"></circle>
                        <path d="M15.2625576,24.0359415 L15.2625576,21.5777384 C16.7729743,21.4115925 17.928443,20.9735717 18.7289639,20.2636759 C19.5294847,19.55378 19.9297451,18.6513061 19.9297451,17.556254 C19.9297451,16.6726603 19.6540941,15.925004 19.102792,15.3132853 C18.5514899,14.7015665 17.5583909,14.1200561 16.1234951,13.568754 L15.2625576,13.2402384 L15.2625576,9.11680088 C16.4331305,9.20742588 17.6112555,9.48685296 18.7969326,9.95508213 L19.6238857,7.88203526 C18.2494066,7.31562901 16.7956305,7.00599359 15.2625576,6.95312901 L15.2625576,5.08398838 L13.755917,5.08398838 L13.755917,6.98711338 C12.3663336,7.13060296 11.2656175,7.53841546 10.4537685,8.21055088 C9.64191958,8.8826863 9.2359951,9.73984776 9.2359951,10.7820353 C9.2359951,11.756254 9.52108625,12.573767 10.0912685,13.2345743 C10.6614508,13.8953816 11.5658128,14.4636759 12.8043545,14.9394571 L13.755917,15.290629 L13.755917,19.5273478 C13.0686774,19.5197957 12.2908128,19.4084024 11.4223232,19.1931681 C10.5538336,18.9779337 9.79484927,18.7117228 9.1453701,18.3945353 L9.1453701,20.7847696 C10.3461514,21.3285196 11.8830003,21.6154988 13.755917,21.6457071 L13.755917,24.0359415 L15.2625576,24.0359415 Z M13.755917,12.6851603 C13.0535732,12.4057332 12.5683519,12.12253 12.3002529,11.8355509 C12.032154,11.5485717 11.8981045,11.1898478 11.8981045,10.759379 C11.8981045,10.3440144 12.0566982,9.99661859 12.3738857,9.71719151 C12.6910732,9.43776442 13.1517503,9.25273838 13.755917,9.16211338 L13.755917,12.6851603 Z M15.2625576,15.8230509 C15.9800055,16.0873738 16.4916592,16.3611368 16.7975185,16.6443399 C17.1033779,16.9275431 17.2563076,17.288155 17.2563076,17.7261759 C17.2563076,18.6626342 16.5917243,19.2328165 15.2625576,19.4367228 L15.2625576,15.8230509 Z" id="$" fill="#CDEEBC" fill-rule="nonzero"></path>
                    </g>
                </g>
            </g>
        </g>
    </g>
</svg>