<?xml version="1.0" encoding="UTF-8"?>
<svg width="80px" height="80px" viewBox="0 0 80 80" version="1.1" xmlns="http://www.w3.org/2000/svg" xmlns:xlink="http://www.w3.org/1999/xlink">
    <title>icon-fee-payment-refund-overview</title>
    <defs>
        <linearGradient x1="50%" y1="0%" x2="50%" y2="100%" id="linearGradient-1">
            <stop stop-color="#61BE59" offset="0%"></stop>
            <stop stop-color="#1D6E1B" offset="100%"></stop>
        </linearGradient>
    </defs>
    <g id="Page-1-Icons" stroke="none" stroke-width="1" fill="none" fill-rule="evenodd">
        <g id="PECOS-2.0-Icons-Overview-v30" transform="translate(-2475.000000, -3131.000000)">
            <g id="FEE-PAYMENT-OVERVIEW" transform="translate(2459.000000, 2773.000000)">
                <g id="icon-fee-payment-refund-overview" transform="translate(16.000000, 358.000000)">
                    <circle id="green-80x80-oval" fill="#CAEFBD" cx="40" cy="40" r="40"></circle>
                    <g id="application-copy" transform="translate(25.925116, 21.000000)">
                        <rect id="Rectangle" fill="#74BF71" x="0.0748836932" y="0" width="32" height="40" rx="2"></rect>
                        <rect id="Rectangle-Copy" fill="#CDEEBC" x="2.07488369" y="2" width="28" height="36" rx="1"></rect>
                        <path d="M26.0748837,31 L26.0748837,33 L6.07488369,33 L6.07488369,31 L26.0748837,31 Z M26.0748837,27 L26.0748837,29 L6.07488369,29 L6.07488369,27 L26.0748837,27 Z M26.0748837,23 L26.0748837,25 L6.07488369,25 L6.07488369,23 L26.0748837,23 Z M26.0748837,19 L26.0748837,21 L6.07488369,21 L6.07488369,19 L26.0748837,19 Z M26.0748837,15 L26.0748837,17 L6.07488369,17 L6.07488369,15 L26.0748837,15 Z M26.0748837,11 L26.0748837,13 L6.07488369,13 L6.07488369,11 L26.0748837,11 Z M26.0748837,7 L26.0748837,9 L6.07488369,9 L6.07488369,7 L26.0748837,7 Z" id="Combined-Shape" fill="#9CD199"></path>
                        <path d="M0,13 C8.08037901,11.1179661 14.2177161,13.4512994 18.4120114,20 C22.6063066,26.5487006 21.8147834,33.2091684 16.0374418,39.9814036 L0,39.9814036 L0,13 Z" id="Rectangle" fill="#CAEFBD"></path>
                    </g>
                    <g id="coin" transform="translate(16.000000, 35.000000)">
                        <circle id="Oval-Copy-9" fill="url(#linearGradient-1)" cx="14.5" cy="14.5" r="14.5"></circle>
                        <path d="M15.2625576,24.0359415 L15.2625576,21.5777384 C16.7729743,21.4115925 17.928443,20.9735717 18.7289639,20.2636759 C19.5294847,19.55378 19.9297451,18.6513061 19.9297451,17.556254 C19.9297451,16.6726603 19.6540941,15.925004 19.102792,15.3132853 C18.5514899,14.7015665 17.5583909,14.1200561 16.1234951,13.568754 L15.2625576,13.2402384 L15.2625576,9.11680088 C16.4331305,9.20742588 17.6112555,9.48685296 18.7969326,9.95508213 L19.6238857,7.88203526 C18.2494066,7.31562901 16.7956305,7.00599359 15.2625576,6.95312901 L15.2625576,5.08398838 L13.755917,5.08398838 L13.755917,6.98711338 C12.3663336,7.13060296 11.2656175,7.53841546 10.4537685,8.21055088 C9.64191958,8.8826863 9.2359951,9.73984776 9.2359951,10.7820353 C9.2359951,11.756254 9.52108625,12.573767 10.0912685,13.2345743 C10.6614508,13.8953816 11.5658128,14.4636759 12.8043545,14.9394571 L13.755917,15.290629 L13.755917,19.5273478 C13.0686774,19.5197957 12.2908128,19.4084024 11.4223232,19.1931681 C10.5538336,18.9779337 9.79484927,18.7117228 9.1453701,18.3945353 L9.1453701,20.7847696 C10.3461514,21.3285196 11.8830003,21.6154988 13.755917,21.6457071 L13.755917,24.0359415 L15.2625576,24.0359415 Z M13.755917,12.6851603 C13.0535732,12.4057332 12.5683519,12.12253 12.3002529,11.8355509 C12.032154,11.5485717 11.8981045,11.1898478 11.8981045,10.759379 C11.8981045,10.3440144 12.0566982,9.99661859 12.3738857,9.71719151 C12.6910732,9.43776442 13.1517503,9.25273838 13.755917,9.16211338 L13.755917,12.6851603 Z M15.2625576,15.8230509 C15.9800055,16.0873738 16.4916592,16.3611368 16.7975185,16.6443399 C17.1033779,16.9275431 17.2563076,17.288155 17.2563076,17.7261759 C17.2563076,18.6626342 16.5917243,19.2328165 15.2625576,19.4367228 L15.2625576,15.8230509 Z" id="$" fill="#CDEEBC" fill-rule="nonzero"></path>
                    </g>
                    <path d="M53.6211296,41.6290558 C54.3523268,41.6290558 55.0145202,41.9264873 55.493771,42.4080397 C55.9712918,42.8878538 56.2670517,43.5505987 56.2670517,44.2828827 C56.2670517,45.0151667 55.9712918,45.6779116 55.493771,46.1577258 C55.0145202,46.6392782 54.3523268,46.9367096 53.6211296,46.9367096 C52.8899325,46.9367096 52.227739,46.6392782 51.7484883,46.1577258 C51.2709675,45.6779116 50.9752075,45.0151667 50.9752075,44.2828827 C50.9752075,43.5505987 51.2709675,42.8878538 51.7484883,42.4080397 C52.227739,41.9264873 52.8899325,41.6290558 53.6211296,41.6290558 Z M47.8182541,41.6290558 C48.5494512,41.6290558 49.2116447,41.9264873 49.6908954,42.4080397 C50.1684162,42.8878538 50.4641762,43.5505987 50.4641762,44.2828827 C50.4641762,45.0151667 50.1684162,45.6779116 49.6908954,46.1577258 C49.2116447,46.6392782 48.5494512,46.9367096 47.8182541,46.9367096 C47.0870569,46.9367096 46.4248635,46.6392782 45.9456127,46.1577258 C45.4680919,45.6779116 45.172332,45.0151667 45.172332,44.2828827 C45.172332,43.5505987 45.4680919,42.8878538 45.9456127,42.4080397 C46.4248635,41.9264873 47.0870569,41.6290558 47.8182541,41.6290558 Z M58.7574408,39.0057859 C59.4886379,39.0057859 60.1508314,39.3032174 60.6300821,39.7847698 C61.1076029,40.2645839 61.4033629,40.9273288 61.4033629,41.6596128 C61.4033629,42.3918968 61.1076029,43.0546417 60.6300821,43.5344559 C60.1508314,44.0160083 59.4886379,44.3134397 58.7574408,44.3134397 C58.0262437,44.3134397 57.3640502,44.0160083 56.8847994,43.5344559 C56.4072786,43.0546417 56.1115187,42.3918968 56.1115187,41.6596128 C56.1115187,40.9273288 56.4072786,40.2645839 56.8847994,39.7847698 C57.3640502,39.3032174 58.0262437,39.0057859 58.7574408,39.0057859 Z M61.9089436,34.165435 C62.6401407,34.165435 63.3023342,34.4628665 63.7815849,34.9444189 C64.2591057,35.4242331 64.5548657,36.086978 64.5548657,36.819262 C64.5548657,37.5515459 64.2591057,38.2142908 63.7815849,38.694105 C63.3023342,39.1756574 62.6401407,39.4730889 61.9089436,39.4730889 C61.1777464,39.4730889 60.515553,39.1756574 60.0363022,38.694105 C59.5587814,38.2142908 59.2630215,37.5515459 59.2630215,36.819262 C59.2630215,36.086978 59.5587814,35.4242331 60.0363022,34.9444189 C60.515553,34.4628665 61.1777464,34.165435 61.9089436,34.165435 Z M50.5901876,15.4197136 C51.1696405,15.0057851 51.9542623,15.0897963 52.4346685,15.5868698 L52.4346685,15.5868698 L52.7523075,18.9750835 C55.6414515,19.3307914 58.2619482,20.5598832 60.3438004,22.3920068 C62.6545154,24.42554 64.300987,27.2021669 64.9146339,30.3504171 C64.9255721,31.3631865 64.6363896,32.0377389 64.2001304,32.5204773 C63.7111087,33.0615995 63.0304807,33.3741562 62.2771126,33.3741562 C61.716204,33.3741562 61.1960769,33.1988891 60.7677574,32.9001931 C60.3288173,32.5940906 59.9868488,32.1575511 59.7970864,31.6465282 C59.2910216,29.4564488 58.265155,27.705776 56.8624679,26.4311017 C55.7300912,25.4020685 54.3529443,24.6850998 52.8342147,24.3648944 L52.8342147,24.3648944 L52.834502,26.710724 C52.834502,27.1026561 52.6756401,27.4574841 52.4187952,27.714329 C52.0788382,28.054286 51.5672259,28.2225879 51.025123,28.07807 L51.025123,28.07807 L43.5000655,22.7931273 C43.1813103,22.5650792 42.9851663,22.2294194 42.9257231,21.8710828 C42.8558688,21.4499854 42.9747935,20.9975721 43.3053623,20.6516784 L43.3053623,20.6516784 Z" id="refund" stroke="#CAEFBD" stroke-width="2" fill="#237520"></path>
                </g>
            </g>
        </g>
    </g>
</svg>