<?xml version="1.0" encoding="UTF-8"?>
<svg width="80px" height="80px" viewBox="0 0 80 80" version="1.1" xmlns="http://www.w3.org/2000/svg" xmlns:xlink="http://www.w3.org/1999/xlink">
    <title>icon-fee-payment-overview</title>
    <defs>
        <linearGradient x1="50%" y1="0%" x2="50%" y2="100%" id="linearGradient-1">
            <stop stop-color="#61BE59" offset="0%"></stop>
            <stop stop-color="#1D6E1B" offset="100%"></stop>
        </linearGradient>
    </defs>
    <g id="Page-1-Icons" stroke="none" stroke-width="1" fill="none" fill-rule="evenodd">
        <g id="PECOS-2.0-Icons-Overview-v30" transform="translate(-2475.000000, -2831.000000)">
            <g id="FEE-PAYMENT-OVERVIEW" transform="translate(2459.000000, 2773.000000)">
                <g id="icon-fee-payment-overview" transform="translate(16.000000, 58.000000)">
                    <circle id="green-80x80-oval" fill="#CAEFBD" cx="40" cy="40" r="40"></circle>
                    <g id="coin-copy" transform="translate(16.000000, 31.000000)">
                        <circle id="Combined-Shape" fill="url(#linearGradient-1)" cx="16.5" cy="16.5" r="16.5"></circle>
                        <path d="M17.367738,27.3512438 L17.367738,24.5539782 C19.086488,24.3649157 20.4013317,23.8664782 21.3122692,23.0586657 C22.2232067,22.2508532 22.6786755,21.2239 22.6786755,19.9778063 C22.6786755,18.9723375 22.3650036,18.1215563 21.7376598,17.4254625 C21.1103161,16.7293688 19.980238,16.06765 18.3474255,15.4403063 L17.367738,15.0664782 L17.367738,10.3742907 C18.6997692,10.4774157 20.0403942,10.7953844 21.389613,11.3281969 L22.3306286,8.96921253 C20.7665661,8.32468128 19.1122692,7.97233753 17.367738,7.91218128 L17.367738,5.78522816 L15.6532848,5.78522816 L15.6532848,7.95085316 C14.0720348,8.11413441 12.8194958,8.57819691 11.8956676,9.34304066 C10.9718395,10.1078844 10.5099255,11.083275 10.5099255,12.2692125 C10.5099255,13.3778063 10.8343395,14.3080797 11.4831676,15.0600328 C12.1319958,15.811986 13.1610973,16.4586657 14.5704723,17.0000719 L15.6532848,17.3996813 L15.6532848,22.220775 C14.8712536,22.2121813 13.9860973,22.0854235 12.9978161,21.8405016 C12.0095348,21.5955797 11.145863,21.29265 10.4068005,20.9317125 L10.4068005,23.6516344 C11.7732067,24.2703844 13.5220348,24.5969469 15.6532848,24.6313219 L15.6532848,27.3512438 L17.367738,27.3512438 Z M15.6532848,14.4348375 C14.8540661,14.1168688 14.3019176,13.7946032 13.9968395,13.4680407 C13.6917614,13.1414782 13.5392223,12.733275 13.5392223,12.2434313 C13.5392223,11.770775 13.7196911,11.3754625 14.0806286,11.0574938 C14.4415661,10.739525 14.9657848,10.5289782 15.6532848,10.4258532 L15.6532848,14.4348375 Z M17.367738,18.0055407 C18.1841442,18.3063219 18.7663708,18.6178453 19.1144176,18.940111 C19.4624645,19.2623766 19.636488,19.6727282 19.636488,20.1711657 C19.636488,21.2367907 18.880238,21.8856188 17.367738,22.11765 L17.367738,18.0055407 Z" id="$" fill="#CDEEBC" fill-rule="nonzero"></path>
                    </g>
                    <rect id="Rectangle" fill="#A4E1A0" x="40" y="16" width="24" height="24" rx="2"></rect>
                    <rect id="Rectangle-Copy-8" fill="#3F8C24" x="42" y="16" width="22" height="22" rx="2"></rect>
                    <path d="M49.3960426,29.9326114 L55.1067346,29.9796235 L55.1067346,29.9796235 L54.6096743,17.144058 C54.578368,16.3356358 55.2083448,15.6549014 56.0167669,15.6235951 C56.0427865,15.6225875 56.0688284,15.6222738 56.0948648,15.6226544 C56.9601163,15.6353036 57.6632346,16.3246411 57.693006,17.1894728 L58.1628909,30.8391968 C58.2008927,31.9431124 57.3367987,32.8688194 56.2328831,32.9068211 C56.2103245,32.9075977 56.1877544,32.9079923 56.1651824,32.9080048 L49.3574768,32.9117745 C48.5421521,32.912226 47.8808348,32.2516408 47.8803833,31.4363161 C47.8803796,31.4296934 47.8804205,31.4230707 47.880506,31.4164485 C47.8911842,30.5890168 48.56857,29.9257993 49.3960426,29.9326114 Z" id="Rectangle" fill="#CAEFBD" transform="translate(53.047633, 24.256336) rotate(39.000000) translate(-53.047633, -24.256336) "></path>
                </g>
            </g>
        </g>
    </g>
</svg>