<?xml version="1.0" encoding="UTF-8"?>
<svg width="80px" height="80px" viewBox="0 0 80 80" version="1.1" xmlns="http://www.w3.org/2000/svg" xmlns:xlink="http://www.w3.org/1999/xlink">
    <title>icon-fee-payment-waiver-overview</title>
    <defs>
        <linearGradient x1="50%" y1="0%" x2="50%" y2="100%" id="linearGradient-1">
            <stop stop-color="#61BE59" offset="0%"></stop>
            <stop stop-color="#1D6E1B" offset="100%"></stop>
        </linearGradient>
        <path d="M41.0419922,55.2080078 L41.0419922,50.9033203 C43.3056641,50.6188151 45.0683594,49.9291992 46.3300781,48.8344727 C47.5917969,47.7397461 48.2226562,46.351237 48.2226562,44.6689453 C48.2226562,43.5804036 47.9938151,42.6557617 47.5361328,41.8950195 C47.0784505,41.1342773 46.3671875,40.4601237 45.4023438,39.8725586 C44.4375,39.2849935 42.9840495,38.6819661 41.0419922,38.0634766 L41.0419922,38.0634766 L41.0419922,30.0107422 C42.9469401,30.1468099 44.8209635,30.5797526 46.6640625,31.3095703 L46.6640625,31.3095703 L47.6289062,28.8789062 C45.5136719,28.0253906 43.3180339,27.5677083 41.0419922,27.5058594 L41.0419922,27.5058594 L41.0419922,24.1660156 L38.6484375,24.1660156 L38.6484375,27.5429688 C36.5826823,27.765625 34.9220378,28.3964844 33.6665039,29.4355469 C32.4109701,30.4746094 31.7832031,31.804362 31.7832031,33.4248047 C31.7832031,35.1070964 32.293457,36.4801432 33.3139648,37.5439453 C34.3344727,38.6077474 36.1126302,39.5416667 38.6484375,40.3457031 L38.6484375,40.3457031 L38.6484375,48.5097656 C37.547526,48.5097656 36.3260091,48.3644206 34.9838867,48.0737305 C33.6417643,47.7830404 32.4573568,47.4088542 31.4306641,46.9511719 L31.4306641,46.9511719 L31.4306641,49.8457031 C32.2594401,50.2291667 33.3232422,50.5291341 34.6220703,50.7456055 C35.9208984,50.9620768 37.2630208,51.0703125 38.6484375,51.0703125 L38.6484375,51.0703125 L38.6484375,55.2080078 L41.0419922,55.2080078 Z M38.6484375,37.265625 C37.2753906,36.7584635 36.3105469,36.2203776 35.7539062,35.6513672 C35.1972656,35.0823568 34.9189453,34.3277995 34.9189453,33.3876953 C34.9189453,32.5341797 35.234375,31.8198242 35.8652344,31.2446289 C36.4960938,30.6694336 37.4238281,30.2828776 38.6484375,30.0849609 L38.6484375,30.0849609 L38.6484375,37.265625 Z M41.0419922,48.3242188 L41.0419922,41.1064453 C42.6253255,41.6507161 43.6922201,42.1980794 44.2426758,42.7485352 C44.7931315,43.2989909 45.0683594,44.0195312 45.0683594,44.9101562 C45.0683594,46.8151042 43.726237,47.953125 41.0419922,48.3242188 L41.0419922,48.3242188 Z" id="path-2"></path>
        <filter x="-80.4%" y="-43.5%" width="260.8%" height="187.0%" filterUnits="objectBoundingBox" id="filter-3">
            <feOffset dx="0" dy="0" in="SourceAlpha" result="shadowOffsetOuter1"></feOffset>
            <feGaussianBlur stdDeviation="4.5" in="shadowOffsetOuter1" result="shadowBlurOuter1"></feGaussianBlur>
            <feColorMatrix values="0 0 0 0 0   0 0 0 0 0   0 0 0 0 0  0 0 0 0.5 0" type="matrix" in="shadowBlurOuter1"></feColorMatrix>
        </filter>
    </defs>
    <g id="Page-1-Icons" stroke="none" stroke-width="1" fill="none" fill-rule="evenodd">
        <g id="PECOS-2.0-Icons-Overview-v30" transform="translate(-2475.000000, -3031.000000)">
            <g id="FEE-PAYMENT-OVERVIEW" transform="translate(2459.000000, 2773.000000)">
                <g id="icon-fee-payment-waiver-overview" transform="translate(16.000000, 258.000000)">
                    <g id="coin">
                        <circle id="green-80x80-oval" fill="#CAEFBD" cx="40" cy="40" r="40"></circle>
                        <circle id="Oval-Copy-9" fill="url(#linearGradient-1)" cx="40" cy="40" r="22"></circle>
                        <g id="$" fill-rule="nonzero">
                            <use fill="black" fill-opacity="1" filter="url(#filter-3)" xlink:href="#path-2"></use>
                            <use fill="#CAEFBD" xlink:href="#path-2"></use>
                        </g>
                    </g>
                    <polygon id="Rectangle" fill="#CAEFBD" opacity="0.870532808" transform="translate(40.063419, 39.552562) rotate(-45.000000) translate(-40.063419, -39.552562) " points="13.0109143 36.0747359 67.1159229 36.0230686 67.1159229 43.0303883 13.0109143 43.0820556"></polygon>
                    <rect id="Rectangle" fill="#106E0D" transform="translate(40.432136, 39.447449) rotate(-45.000000) translate(-40.432136, -39.447449) " x="9.93213615" y="37.9474491" width="61" height="3"></rect>
                </g>
            </g>
        </g>
    </g>
</svg>