<?xml version="1.0" encoding="UTF-8"?>
<svg width="20px" height="20px" viewBox="0 0 20 20" version="1.1" xmlns="http://www.w3.org/2000/svg" xmlns:xlink="http://www.w3.org/1999/xlink">
    <title>icon-mac-small-black</title>
    <g id="Page-1-Icons" stroke="none" stroke-width="1" fill="none" fill-rule="evenodd">
        <g id="PECOS-2.0-Icons-Overview-v30" transform="translate(-1692.000000, -1172.000000)" fill="#333333">
            <g id="MAC-ROUTING-ICON" transform="translate(1666.000000, 1082.000000)">
                <g id="icon-mac-small-black" transform="translate(26.000000, 90.000000)">
                    <path d="M15.5,6 C17.9852814,6 20,8.01471863 20,10.5 C20,12.9852814 17.9852814,15 15.5,15 C14.9604892,15 14.4431535,14.9050569 13.9637897,14.7309672 L12.996,15.69 L12.9960022,17.1823718 C12.9960022,17.6426091 12.6229062,18.0157051 12.1626689,18.0157051 L11.035,18.015 L11.035511,19.1666667 C11.035511,19.626904 10.662415,20 10.2021777,20 L7.0047876,20 L7,17.3800906 L11.5968876,12.7411044 C11.2171795,12.0812286 11,11.3159768 11,10.5 C11,8.01471863 13.0147186,6 15.5,6 Z M3.08504526,7.67296718 C3.97300167,9.22432239 5.28138159,10 7.010185,10 C8.42882433,10 9.56007423,9.47768317 10.4039347,8.4330495 C10.1429026,9.06987392 10,9.76824861 10,10.5 C10,11.1496572 10.1126371,11.7730065 10.3194478,12.3515845 L6.609,15.998 L6.5,16 C2.99562177,16 0.138963848,14.0800782 0.00491912783,11.676699 L0,11.5 C0,9.90231912 1.20266367,8.49910549 3.01542682,7.70059587 L3.08504526,7.67296718 Z M16.5,8 C15.6715729,8 15,8.67157288 15,9.5 C15,10.3284271 15.6715729,11 16.5,11 C17.3284271,11 18,10.3284271 18,9.5 C18,8.67157288 17.3284271,8 16.5,8 Z M7,0 C9.209139,0 11,2.01471863 11,4.5 C11,6.98528137 9.209139,9 7,9 C4.790861,9 3,6.98528137 3,4.5 C3,2.01471863 4.790861,0 7,0 Z" id="Combined-Shape"></path>
                </g>
            </g>
        </g>
    </g>
</svg>