<?xml version="1.0" encoding="UTF-8"?>
<svg width="36px" height="36px" viewBox="0 0 36 36" version="1.1" xmlns="http://www.w3.org/2000/svg" xmlns:xlink="http://www.w3.org/1999/xlink">
    <title>icon-mac-routing</title>
    <g id="Page-1-Icons" stroke="none" stroke-width="1" fill="none" fill-rule="evenodd">
        <g id="PECOS-2.0-Icons-Overview-v21" transform="translate(-1817.000000, -1516.000000)" fill="#0573BB">
            <g id="MAC-Routing-Icon" transform="translate(1798.000000, 1482.000000)">
                <path d="M47.5,48.3856033 C51.6421356,48.3856033 55,51.7434677 55,55.8856033 C55,60.027739 51.6421356,63.3856033 47.5,63.3856033 C46.5363349,63.3856033 45.615119,63.2038565 44.7687599,62.8727704 L44.7803168,62.8827298 L43.1877874,64.8177343 C43.0928094,64.9331374 42.9511854,65 42.801724,65 L41.3586788,65 C41.119417,65 40.925457,65.19396 40.925457,65.4332218 L40.925457,66.5329514 C40.925457,66.8090937 40.7015994,67.0329514 40.425457,67.0329514 L38.5,67.0329514 C38.2238576,67.0329514 38,67.256809 38,67.5329514 L38,69.5 C38,69.7761424 37.7761424,70 37.5,70 L33.5945168,70 C33.3183744,70 33.0945168,69.7761424 33.0945168,69.5 L33.0945168,66.1903667 C33.0945168,66.056129 33.148494,65.9275293 33.2443026,65.8335054 L40.5366164,58.6768732 C40.1904608,57.8141117 40,56.8720998 40,55.8856033 C40,51.7434677 43.3578644,48.3856033 47.5,48.3856033 Z M37.5915378,49.1564431 C38.5057382,49.4263996 39.3648481,49.7628989 40.154682,50.1565912 C38.8110246,51.7294711 38,53.7700231 38,56 C38,56.580426 38.0549449,57.148019 38.1599171,57.6978614 L38.2479495,58.1068382 L30.530427,65.7310721 C24.0284915,65.190195 19,61.5321378 19,57.1 C19,53.560965 22.2061286,50.5154779 26.8084622,49.1564431 C26.8024953,49.2044788 26.8,49.2520937 26.8,49.3 C26.8,50.7911688 29.2176624,52 32.2,52 C35.1823376,52 37.6,50.7911688 37.6,49.3 L37.5937729,49.1691826 L37.5915378,49.1564431 Z M27.5257323,53.5786686 C26.8510094,54.7323054 25.7607197,55.3378802 24.2548631,55.395393 C24.1205981,55.4005138 24.0143972,55.5108483 24.0143972,55.6452109 L24.0143972,58.4458706 C24.0143972,59.3074247 25.0523879,60.4037175 27.1283692,61.7347489 L27.3932579,61.9023747 C27.4743021,61.9529914 27.5771081,61.9529914 27.6581523,61.9023749 C29.9107624,60.4954961 31.0370674,59.343328 31.0370674,58.4458706 L31.0370674,55.6453329 C31.0370646,55.510879 30.9307203,55.4005058 30.7963593,55.3955084 C29.2688728,55.3386954 28.1786638,54.7330821 27.5257323,53.5786686 Z M49.5,51.3856033 C48.1192881,51.3856033 47,52.5048915 47,53.8856033 C47,55.2663152 48.1192881,56.3856033 49.5,56.3856033 C50.8807119,56.3856033 52,55.2663152 52,53.8856033 C52,52.5048915 50.8807119,51.3856033 49.5,51.3856033 Z M32.2,34 C36.1764502,34 39.4,37.6264935 39.4,42.1 C39.4,46.5735065 36.1764502,50.2 32.2,50.2 C28.2235498,50.2 25,46.5735065 25,42.1 C25,37.6264935 28.2235498,34 32.2,34 Z" id="icon-mac-routing"></path>
            </g>
        </g>
    </g>
</svg>