<?xml version="1.0" encoding="UTF-8"?>
<svg width="60px" height="60px" viewBox="0 0 60 60" version="1.1" xmlns="http://www.w3.org/2000/svg" xmlns:xlink="http://www.w3.org/1999/xlink">
    <title>icon-reassignments</title>
    <g id="Page-1" stroke="none" stroke-width="1" fill="none" fill-rule="evenodd">
        <g id="PECOS-2.0-Icons-&amp;-Illus-Overview-v17" transform="translate(-1158.000000, -1760.000000)" fill="#0573BB">
            <g id="Setup-Wizard-Icons" transform="translate(878.000000, 1313.000000)">
                <g id="Large-wizard-icons" transform="translate(16.000000, 35.000000)">
                    <g id="icon-reassignments" transform="translate(264.000000, 412.000000)">
                        <path d="M21.1099345,47 C22.2150828,47 23.1109824,47.8958996 23.1109824,49.0010478 C23.1109824,50.106196 22.2150828,51.0020957 21.1099345,51.0020957 L21.1099345,51.0020957 L16.4342464,51.0028454 C20.3415249,53.5317585 24.9992993,55 30,55 C35.0594755,55 39.7679163,53.4970423 43.7032123,50.9132371 L47.1350657,53.3987849 C42.3344195,56.9202795 36.4100821,59 30,59 C24.129209,59 18.6658679,57.2554998 14.1000751,54.2565978 L14.1001181,58.0054321 C14.1001181,59.1070015 13.2071197,60 12.1055503,60 C11.0039808,60 10.1109824,59.1070015 10.1109824,58.0054321 L10.1109824,58.0054321 L10.1100536,51.1043745 C10.0768381,51.0730588 10.0436965,51.0416656 10.0106291,51.0101951 L10.11,50.951 L10.1109824,47 Z M16.9620299,26.4921842 C21.1134696,27.8513125 24,30.8632958 24,34.3606557 C24,39.1320338 18.627417,43 12,43 C5.372583,43 0,39.1320338 0,34.3606557 C0,30.8641399 2.88513719,27.8527664 7.0349644,26.4931686 L11.9815674,31.3114754 L16.9620299,26.4921842 Z M19,31 L17,31 L17,33 L15,33 L15,35 L17,35 L17,37 L19,37 L19,35 L21,35 L21,33 L19,33 L19,31 Z M12,12 C15.8659932,12 19,15.526675 19,19.8770492 C19,24.2274233 15.8659932,27.7540984 12,27.7540984 C8.13400675,27.7540984 5,24.2274233 5,19.8770492 C5,15.526675 8.13400675,12 12,12 Z M48.0010478,0 C49.106196,-2.03012431e-16 50.0020957,0.89589963 50.0020957,2.00104783 L50.0020957,13 L38.9966635,13 C37.8950941,13 37.0020957,12.1070015 37.0020957,11.0054321 C37.0020957,9.90386271 37.8950941,9.01086426 38.9966635,9.01086426 L46,9.01086426 L45.999,9 L43.5702584,9.000071 C39.6620554,6.46937032 35.0026226,5 30,5 C25.0446844,5 20.4260986,6.44171169 16.5408158,8.92856182 L13.496725,6.15060426 C18.1810914,2.90299642 23.8683114,1 30,1 C35.9136018,1 41.4137897,2.77003538 45.9996653,5.80920765 L46,2.00104783 C46,0.89589963 46.8958996,1.18458121e-15 48.0010478,0 Z" id="Combined-Shape"></path>
                        <g id="building" transform="translate(34.000000, 17.000000)">
                            <path d="M25,0 C25.5522847,-1.01453063e-16 26,0.44771525 26,1 L26,30 C26,30.5522847 25.5522847,31 25,31 L11,31 L11,22 L4,22 L4,31 L1,31 C0.44771525,31 6.76353751e-17,30.5522847 0,30 L0,1 C-6.76353751e-17,0.44771525 0.44771525,1.01453063e-16 1,0 L25,0 Z M20,22 L18,22 L18,24 L16,24 L16,26 L18,26 L18,28 L20,28 L20,26 L22,26 L22,24 L20,24 L20,22 Z M8,15 L4,15 L4,19 L8,19 L8,15 Z M15,15 L11,15 L11,19 L15,19 L15,15 Z M22,15 L18,15 L18,19 L22,19 L22,15 Z M8,9 L4,9 L4,13 L8,13 L8,9 Z M15,9 L11,9 L11,13 L15,13 L15,9 Z M22,9 L18,9 L18,13 L22,13 L22,9 Z M8,3 L4,3 L4,7 L8,7 L8,3 Z M15,3 L11,3 L11,7 L15,7 L15,3 Z M22,3 L18,3 L18,7 L22,7 L22,3 Z" id="Combined-Shape"></path>
                        </g>
                    </g>
                </g>
            </g>
        </g>
    </g>
</svg>