<?xml version="1.0" encoding="UTF-8"?>
<svg width="62px" height="62px" viewBox="0 0 62 62" version="1.1" xmlns="http://www.w3.org/2000/svg" xmlns:xlink="http://www.w3.org/1999/xlink">
    <title>icon-change-of-info</title>
    <g id="Page-1" stroke="none" stroke-width="1" fill="none" fill-rule="evenodd">
        <g id="PECOS-2.0-Icons-&amp;-Illus-Overview-v17" transform="translate(-894.000000, -1894.000000)" fill="#0573BB">
            <g id="Setup-Wizard-Icons" transform="translate(878.000000, 1313.000000)">
                <g id="Large-wizard-icons" transform="translate(16.000000, 35.000000)">
                    <g id="icon-change-of-info" transform="translate(0.000000, 546.000000)">
                        <path d="M51,24 C52.6568542,24 54,25.3431458 54,27 L54,59 C54,60.6568542 52.6568542,62 51,62 L34.9687784,62 L34.9687333,59.5002169 C35.5759823,59.0441159 35.9687784,58.3179292 35.9687784,57.5 C35.9687784,56.1192881 34.8494902,55 33.4687784,55 C32.0880665,55 30.9687784,56.1192881 30.9687784,57.5 C30.9687784,58.3174727 31.3611362,59.0433054 31.967807,59.4994531 L31.9687784,62 L21.9687784,62 L21.9687333,59.5002169 C22.5759823,59.0441159 22.9687784,58.3179292 22.9687784,57.5 C22.9687784,56.1192881 21.8494902,55 20.4687784,55 C19.0880665,55 17.9687784,56.1192881 17.9687784,57.5 C17.9687784,58.3174727 18.3611362,59.0433054 18.967807,59.4994531 L18.9687784,62 L3,62 C1.34314575,62 2.02906125e-16,60.6568542 0,59 L0,24 L1.33731618,20.3173403 C1.62448899,19.5265327 2.37586819,19 3.21720333,19 L16.8497757,19 C17.7030226,19 18.4623088,19.5413132 18.7404938,20.3479379 L20,24 L30.966,24 L29.2695445,28.9838729 C29.1573662,29.3133468 29.104182,29.657325 29.1098603,30.0004414 L26,30 L26,32 L29.9179584,32.0006653 C30.7117406,32.8484603 31.9626247,33.1918013 33.1248971,32.7737138 L33.1248971,32.7737138 L35.273,32 L49,32 L49,30 L40.833,30 L41.4031466,29.7958984 L47.139,24 L51,24 Z M21,30 L5,30 L5,48 L21,48 L21,30 Z M49,45 L26,45 L26,47 L49,47 L49,45 Z M19,32 L19,46 L7,46 L7,32 L19,32 Z M49,40 L26,40 L26,42 L49,42 L49,40 Z M49,35 L26,35 L26,37 L49,37 L49,35 Z" id="icon-enrollment-card-copy-2"></path>
                        <path d="M49.4362793,28.7043808 L45.8307065,35.9155264 C45.5837172,36.4095049 44.9830442,36.6097293 44.4890657,36.36274 C44.2955383,36.2659763 44.1386158,36.1090538 44.0418521,35.9155264 L40.4362793,28.7043808 L49.4362793,28.7043808 Z M49.4362793,6.94702148 L49.4362793,26.7043808 L40.4362793,26.7043808 L40.4362793,6.94702148 L49.4362793,6.94702148 Z M45.4362793,-2.05297852 C47.6454183,-2.05297852 49.4362793,-0.262117515 49.4362793,1.94702148 L49.4362793,4.94702148 L40.4362793,4.94702148 L40.4362793,1.94702148 C40.4362793,-0.262117515 42.2271403,-2.05297852 44.4362793,-2.05297852 L45.4362793,-2.05297852 Z" id="pencil" transform="translate(44.936279, 17.207777) rotate(45.000000) translate(-44.936279, -17.207777) "></path>
                    </g>
                </g>
            </g>
        </g>
    </g>
</svg>