<?xml version="1.0" encoding="UTF-8"?>
<svg width="60px" height="60px" viewBox="0 0 60 60" version="1.1" xmlns="http://www.w3.org/2000/svg" xmlns:xlink="http://www.w3.org/1999/xlink">
    <title>icon-eft-setup-v2</title>
    <g id="Page-1-Icons" stroke="none" stroke-width="1" fill="none" fill-rule="evenodd">
        <g id="PECOS-2.0-Icons-Overview-v28" transform="translate(-1158.000000, -1977.000000)">
            <g id="SETUP-WIZARD" transform="translate(878.000000, 1265.000000)">
                <g id="Large-wizard-icons" transform="translate(16.000000, 35.000000)">
                    <g id="icon-eft-setup-v2" transform="translate(264.000000, 677.000000)">
                        <g id="document">
                            <path d="M3,0 L41,0 C42.6568542,-3.04359188e-16 44,1.34314575 44,3 L44,51 C44,52.6568542 42.6568542,54 41,54 L3,54 C1.34314575,54 2.02906125e-16,52.6568542 0,51 L0,3 C-2.02906125e-16,1.34314575 1.34314575,3.04359188e-16 3,0 Z" id="dark-bgd" fill="#0573BB"></path>
                            <rect id="document-bgd" fill="#FFFFFF" x="4" y="4" width="36" height="46" rx="1"></rect>
                            <path d="M48,6 C49.6568542,6 51,7.34314575 51,9 L51.0002139,14.3311074 C48.833909,13.4721178 46.472089,13 44,13 C33.5065898,13 25,21.5065898 25,32 C25,42.4934102 33.5065898,51 44,51 C46.472089,51 48.833909,50.5278822 51.0002139,49.6688926 L51,57 C51,58.6568542 49.6568542,60 48,60 L10,60 C8.34314575,60 7,58.6568542 7,57 L7,9 C7,7.34314575 8.34314575,6 10,6 L48,6 Z" id="Combined-Shape" fill="#0573BB"></path>
                            <rect id="document-bgd" fill="#FFFFFF" x="11" y="10" width="36" height="46" rx="1"></rect>
                            <path d="M28.5061113,42.9998636 L17,43 L17,41 L27.2627513,41.0002559 C27.6364826,41.6938032 28.052063,42.3614662 28.5061113,42.9998636 Z M25.9668331,38.0000612 L17,38 L17,36 L25.4217788,35.99993 C25.5676885,36.6808923 25.7500887,37.3483181 25.9668331,38.0000612 Z M25,32 C25,32.3354658 25.008694,32.668901 25.0258689,33.0000926 L17,33 L17,31 L25.0258689,30.9999074 C25.008694,31.331099 25,31.6645342 25,32 Z M25.4219587,27.9992305 L17,28 L17,26 L25.9669718,25.9995217 C25.7502556,26.6511293 25.5678696,27.3184139 25.4219587,27.9992305 Z M27.2628262,22.9996051 L17,23 L17,21 L28.5068235,20.9991351 C28.0525279,21.6377931 27.6367336,22.305745 27.2628262,22.9996051 Z M31.1545765,18.0000274 L17,18 L17,16 L33.7509828,15.9985499 C32.8278006,16.5910803 31.9592538,17.2613176 31.1545765,18.0000274 Z" id="Combined-Shape" fill="#0573BB"></path>
                            <path d="M23,45 L23,48 L26,48 L26,51 L23,51 L23,54 L20,54 L20,51 L17,51 L17,48 L20,48 L20,45 L23,45 Z" id="cross" fill="#0573BB"></path>
                        </g>
                        <g id="$" transform="translate(28.000000, 16.000000)">
                            <circle id="Oval-Copy-9" fill="#0573BB" cx="16" cy="16" r="16"></circle>
                            <path d="M16.9003906,27.6269531 L16.9003906,24.6601562 C18.7233073,24.4596354 20.1178385,23.9309896 21.0839844,23.0742188 C22.0501302,22.2174479 22.5332031,21.1282552 22.5332031,19.8066406 C22.5332031,18.7402344 22.2005208,17.8378906 21.5351562,17.0996094 C20.8697917,16.3613281 19.671224,15.6595052 17.9394531,14.9941406 L17.9394531,14.9941406 L16.9003906,14.5976562 L16.9003906,9.62109375 C18.313151,9.73046875 19.735026,10.0677083 21.1660156,10.6328125 L21.1660156,10.6328125 L22.1640625,8.13085938 C20.5052083,7.44726562 18.750651,7.07356771 16.9003906,7.00976562 L16.9003906,7.00976562 L16.9003906,4.75390625 L15.0820312,4.75390625 L15.0820312,7.05078125 C13.4049479,7.22395833 12.0764974,7.71614583 11.0966797,8.52734375 C10.116862,9.33854167 9.62695312,10.3730469 9.62695312,11.6308594 C9.62695312,12.8066406 9.97102865,13.7932943 10.6591797,14.5908203 C11.3473307,15.3883464 12.4388021,16.0742188 13.9335938,16.6484375 L13.9335938,16.6484375 L15.0820312,17.0722656 L15.0820312,22.1855469 C14.2526042,22.1764323 13.3138021,22.0419922 12.265625,21.7822266 C11.2174479,21.5224609 10.3014323,21.2011719 9.51757812,20.8183594 L9.51757812,20.8183594 L9.51757812,23.703125 C10.9667969,24.359375 12.8216146,24.7057292 15.0820312,24.7421875 L15.0820312,24.7421875 L15.0820312,27.6269531 L16.9003906,27.6269531 Z M15.0820312,13.9277344 C14.234375,13.5904948 13.648763,13.2486979 13.3251953,12.9023438 C13.0016276,12.5559896 12.8398438,12.1230469 12.8398438,11.6035156 C12.8398438,11.1022135 13.03125,10.6829427 13.4140625,10.3457031 C13.796875,10.0084635 14.3528646,9.78515625 15.0820312,9.67578125 L15.0820312,9.67578125 L15.0820312,13.9277344 Z M16.9003906,22.0761719 L16.9003906,17.7148438 C17.766276,18.0338542 18.3837891,18.3642578 18.7529297,18.7060547 C19.1220703,19.0478516 19.3066406,19.4830729 19.3066406,20.0117188 C19.3066406,21.1419271 18.5045573,21.8300781 16.9003906,22.0761719 L16.9003906,22.0761719 Z" fill="#FFFFFF" fill-rule="nonzero"></path>
                        </g>
                    </g>
                </g>
            </g>
        </g>
    </g>
</svg>