<?xml version="1.0" encoding="UTF-8"?>
<svg width="60px" height="60px" viewBox="0 0 60 60" version="1.1" xmlns="http://www.w3.org/2000/svg" xmlns:xlink="http://www.w3.org/1999/xlink">
    <title>icon-reactivation</title>
    <g id="Page-1" stroke="none" stroke-width="1" fill="none" fill-rule="evenodd">
        <g id="PECOS-2.0-Icons-&amp;-Illus-Overview-v17" transform="translate(-1158.000000, -1900.000000)" fill="#0573BB">
            <g id="Setup-Wizard-Icons" transform="translate(878.000000, 1313.000000)">
                <g id="Large-wizard-icons" transform="translate(16.000000, 35.000000)">
                    <g id="icon-reactivation" transform="translate(264.000000, 552.000000)">
                        <path d="M16.8497757,17 C17.7030226,17 18.4623088,17.5413132 18.7404938,18.3479379 L20,22 L24.7865703,22.0005441 C25.4273136,24.1839524 26.4397954,26.2083945 27.7508183,28.0006727 L26,28 L26,30 L29.4296327,30.0009545 C30.5253711,31.1426128 31.7587114,32.1511924 33.102991,33.0000307 L26,33 L26,35 L37.3205395,35.0005589 C39.2623651,35.648862 41.3401762,36 43.5,36 C47.3661992,36 50.969606,34.8748521 54.0006405,32.9341362 L54,57 C54,58.6568542 52.6568542,60 51,60 L34.9687784,60 L34.9687333,57.5002169 C35.5759823,57.0441159 35.9687784,56.3179292 35.9687784,55.5 C35.9687784,54.1192881 34.8494902,53 33.4687784,53 C32.0880665,53 30.9687784,54.1192881 30.9687784,55.5 C30.9687784,56.3174727 31.3611362,57.0433054 31.967807,57.4994531 L31.9687784,60 L21.9687784,60 L21.9687333,57.5002169 C22.5759823,57.0441159 22.9687784,56.3179292 22.9687784,55.5 C22.9687784,54.1192881 21.8494902,53 20.4687784,53 C19.0880665,53 17.9687784,54.1192881 17.9687784,55.5 C17.9687784,56.3174727 18.3611362,57.0433054 18.967807,57.4994531 L18.9687784,60 L3,60 C1.34314575,60 2.02906125e-16,58.6568542 0,57 L0,22 L1.33731618,18.3173403 C1.62448899,17.5265327 2.37586819,17 3.21720333,17 L16.8497757,17 Z M21,28 L5,28 L5,46 L21,46 L21,28 Z M49,43 L26,43 L26,45 L49,45 L49,43 Z M19,30 L19,44 L7,44 L7,30 L19,30 Z M49,38 L26,38 L26,40 L49,40 L49,38 Z M43.5,0 C52.6126984,0 60,7.38730163 60,16.5 C60,25.6126984 52.6126984,33 43.5,33 C34.3873016,33 27,25.6126984 27,16.5 C27,7.38730163 34.3873016,0 43.5,0 Z M51.903394,5.15886552 C51.7381736,5.1903596 51.5861166,5.26777194 51.4640526,5.3810463 L51.3783912,5.47256907 L49.4505247,7.84773366 C47.759205,6.68232296 45.709285,6 43.5,6 C37.7010101,6 33,10.7010101 33,16.5 C33,22.2989899 37.7010101,27 43.5,27 C47.5192867,27 51.0111158,24.7416853 52.7758281,21.424715 L52.9115374,21.1606713 L49.3765597,21.1605228 C48.0026518,22.8905929 45.8808839,24 43.5,24 C39.3578644,24 36,20.6421356 36,16.5 C36,12.3578644 39.3578644,9 43.5,9 C44.8856888,9 46.183607,9.37579061 47.2974018,10.0310191 L47.5511191,10.1871423 L45.4435719,12.7823397 L45.3736635,12.8813514 C45.1452929,13.256254 45.2234417,13.7515695 45.5737127,14.0359552 C45.7035453,14.1413667 45.859717,14.2075823 46.0240124,14.2282882 L46.1484726,14.2351858 L53.4563135,14.1283906 L53.5679909,14.1198141 C54.0065724,14.0584057 54.3410386,13.6785478 54.3343998,13.2242594 L54.3299094,13.1469924 L54.3299094,13.1469924 L54.318732,13.0704065 L52.9457103,5.86743109 L52.9179569,5.75891783 C52.781654,5.33755538 52.3496949,5.07379222 51.903394,5.15886552 Z" id="Combined-Shape"></path>
                    </g>
                </g>
            </g>
        </g>
    </g>
</svg>