<?xml version="1.0" encoding="UTF-8"?>
<svg width="16px" height="16px" viewBox="0 0 16 16" version="1.1" xmlns="http://www.w3.org/2000/svg" xmlns:xlink="http://www.w3.org/1999/xlink">
    <title>icon-checkmark-large-white</title>
    <g id="Page-1" stroke="none" stroke-width="1" fill="none" fill-rule="evenodd">
        <g id="PECOS-2.0-Icons-&amp;-Illus-v14" transform="translate(-1245.000000, -1501.000000)" fill="#FFFFFF">
            <g id="Wizard-Icons" transform="translate(972.000000, 1353.000000)">
                <g id="icon-checkmark-large-white" transform="translate(273.000000, 148.000000)">
                    <path d="M2.66509727,6.58494497 L6.26086957,10.2886882 L6.26086957,10.2886882 L13.3516686,2.91869152 C13.8204824,2.43141837 14.595544,2.41645409 15.0828172,2.88526787 C15.0947058,2.89670612 15.106362,2.90838349 15.1177787,2.92029284 C15.6109283,3.43472391 15.6109283,4.24644744 15.1177787,4.76087852 L6.97702665,13.2529378 C6.59483599,13.6516215 5.9618122,13.6649918 5.56312843,13.2828012 C5.55487912,13.2748931 5.54676597,13.2668443 5.53879256,13.2586581 L0.908576664,8.50490913 C0.398545964,7.98127092 0.385580847,7.15067303 0.879019716,6.61137129 C1.33658111,6.11128167 2.11291065,6.07680573 2.61300027,6.53436712 C2.63086095,6.55070891 2.64823422,6.56757558 2.66509727,6.58494497 Z" id="Rectangle"></path>
                </g>
            </g>
        </g>
    </g>
</svg>