<?xml version="1.0" encoding="UTF-8"?>
<svg width="60px" height="60px" viewBox="0 0 60 60" version="1.1" xmlns="http://www.w3.org/2000/svg" xmlns:xlink="http://www.w3.org/1999/xlink">
    <title>icon-ordering-referring</title>
    <g id="Page-1" stroke="none" stroke-width="1" fill="none" fill-rule="evenodd">
        <g id="PECOS-2.0-Icons-&amp;-Illus-v14" transform="translate(-986.000000, -1603.000000)" fill="#0573BB">
            <g id="Wizard-Icons" transform="translate(972.000000, 1353.000000)">
                <g id="icon-ordering-referring" transform="translate(14.000000, 250.000000)">
                    <path d="M41.0013613,43.413001 L49.4766041,51.8882437 L43.1208316,58.2440162 C40.780458,60.5843898 36.9859625,60.5843898 34.6455889,58.2440162 C32.3052152,55.9036425 32.3052152,52.1091471 34.6455889,49.7687734 L41.0013613,43.413001 Z M35.9576615,12.9846202 L35.957,45.667 L33.1722232,48.4527068 C31.1439034,50.4816103 30.4326766,53.3287582 31.0385427,55.9314937 L30.9576615,55.9337485 L8.9975095,55.9337485 C6.23608575,55.9337485 3.9975095,53.6951723 3.9975095,50.9337485 L3.9975095,12.9846202 L35.9576615,12.9846202 Z M57.244829,35.644776 C59.5852027,37.9851496 59.5852027,41.7796451 57.244829,44.1200187 L50.8890566,50.4757912 L42.4138138,42.0005484 L48.7695863,35.644776 C51.1099599,33.3044023 54.9044554,33.3044023 57.244829,35.644776 Z M31.9626425,19.9763388 L7.99252849,19.9763388 L7.99252849,43.9479453 L31.9626425,43.9479453 L31.9626425,19.9763388 Z M17.4826493,23.9774589 C18.8390311,23.9774589 19.8426626,24.2243995 20.4935437,24.7182807 C21.1444249,25.2121619 21.4698655,25.9620874 21.4698655,26.9680573 C21.4698655,27.5552524 21.3082831,28.077583 20.9851183,28.5350489 C20.6619536,28.9925149 20.2557218,29.3101319 19.6640116,29.5695902 C20.9873447,31.5466927 21.8646353,32.9389511 22.3659189,33.6905005 L23.8103922,31.3384911 L26.1726812,31.3384911 L23.6874985,35.0733251 L26.2887475,38.9720275 L23.919631,38.9720275 L22.3151861,36.3569609 L20.7039138,38.9720275 L18.3416247,38.9720275 L20.9292188,35.0733251 L18.4713458,31.3384911 L18.4771662,31.3384589 L17.6823515,30.1293519 L16.690668,30.1293519 L16.690668,33.9597759 L14.5741662,33.9597759 L14.5741662,23.9774589 L17.4826493,23.9774589 Z M17.3324459,25.7117329 L16.690668,25.7117329 L16.690668,28.4087337 L17.3734105,28.4087337 C18.0424982,28.4087337 18.5363486,28.2972122 18.8549617,28.074169 C19.1735749,27.8511259 19.3328815,27.5006296 19.3328815,27.0226801 C19.3328815,26.5492825 19.1701612,26.2124419 18.8447206,26.0121583 C18.51928,25.8118747 18.0151885,25.7117329 17.3324459,25.7117329 Z M29.9626425,0 C31.067212,-2.02906125e-16 31.9626425,0.8954305 31.9626425,2 L31.9626425,3.99526775 L34.9564162,3.99526775 C36.0609857,3.99526775 36.9564162,4.89069825 36.9564162,5.99526775 L36.956,9.988 L37.955171,9.98816938 L37.955171,11.9858033 L2,11.9858033 L2,9.98816938 L2.998,9.988 L2.99875475,5.99526775 C2.99875475,4.89069825 3.89418525,3.99526775 4.99875475,3.99526775 L7.99252849,3.99526775 L7.99252849,2 C7.99252849,0.8954305 8.88795899,2.02906125e-16 9.99252849,0 L29.9626425,0 Z"></path>
                </g>
            </g>
        </g>
    </g>
</svg>