<?xml version="1.0" encoding="UTF-8"?>
<svg width="60px" height="60px" viewBox="0 0 60 60" version="1.1" xmlns="http://www.w3.org/2000/svg" xmlns:xlink="http://www.w3.org/1999/xlink">
    <title>icon-revalidation</title>
    <g id="Page-1" stroke="none" stroke-width="1" fill="none" fill-rule="evenodd">
        <g id="PECOS-2.0-Icons-&amp;-Illus-Overview-v17" transform="translate(-1157.000000, -1830.000000)" fill="#0573BB">
            <g id="Setup-Wizard-Icons" transform="translate(878.000000, 1313.000000)">
                <g id="Large-wizard-icons" transform="translate(16.000000, 35.000000)">
                    <g id="icon-revalidation" transform="translate(263.000000, 482.000000)">
                        <path d="M56,0 C58.209139,-8.49901461e-16 60,1.790861 60,4 L60,56 C60,58.209139 58.209139,60 56,60 L15,60 C12.790861,60 11,58.209139 11,56 L10.9995537,35.288 L14.9995537,38.333 L15,54 C15,55.0543618 15.8158778,55.9181651 16.8507377,55.9945143 L17,56 L54,56 C55.0543618,56 55.9181651,55.1841222 55.9945143,54.1492623 L56,54 L56,6 C56,4.9456382 55.1841222,4.08183488 54.1492623,4.00548574 L54,4 L17,4 C16.1809629,4 15.4769147,4.49232623 15.1676507,5.19718349 L12.1775615,1.16559687 C12.9009409,0.445251897 13.8984734,-1.90857565e-17 15,0 L56,0 Z M48.7893114,28.908461 L48.8191796,29.021393 L50.6160169,37.8431399 C50.6293959,37.9088256 50.6361363,37.9756902 50.6361363,38.0427246 C50.6361363,38.5555604 50.2500961,38.9782318 49.7527574,39.0359969 L49.6361363,39.0427246 L40.7587233,39.0427246 C40.531103,39.0427246 40.3102936,38.9650704 40.1327797,38.8225929 C39.7352018,38.503486 39.6458989,37.9426429 39.9064143,37.519483 L39.978855,37.416781 L42.7678032,33.9410453 C41.6450419,33.3405039 40.3622854,33 39,33 C34.581722,33 31,36.581722 31,41 C31,45.418278 34.581722,49 39,49 C41.8941531,49 44.4293579,47.4631595 45.8340467,45.161046 L49.1860541,45.1602981 C47.5455027,49.1728567 43.6029087,52 39,52 C32.9248678,52 28,47.0751322 28,41 C28,34.9248678 32.9248678,30 39,30 C41.074303,30 43.0145055,30.5741528 44.6703552,31.5722063 L47.0594307,28.5950341 C47.2056001,28.4129205 47.4108942,28.2877039 47.6397143,28.2410972 C48.1422322,28.138743 48.6334473,28.4326575 48.7893114,28.908461 Z M29.704798,10.2773319 L32.7609307,13.3345234 C36.0586463,16.7557547 34.3617834,23.8758064 28.9325036,29.3050861 C23.5492764,34.6883133 16.5038394,36.4021737 13.0505053,33.2158082 L12.8933649,33.0649373 L9.40824878,29.5794592 C13.0946697,31.5637415 19.5328508,29.5377989 24.4142311,24.6564186 C29.0320306,20.0386191 31.1562226,14.0324384 29.704798,10.2773319 Z M27.1022908,8.01040768 C30.4217473,11.3298642 28.8388348,18.2946789 23.5667569,23.5667569 C18.2946789,28.8388348 11.3298642,30.4217473 8.01040768,27.1022908 C5.55152983,24.6434129 5.78261272,20.184304 8.21054664,15.8946467 L10.9321343,17.9948048 C13.5922884,20.0313244 15.9927192,20.0313244 18.1334267,17.9948048 C20.21467,16.0148551 20.2724823,13.7154778 18.3068636,11.096673 L18.1334267,10.8714217 L16.0105061,8.14552718 C20.2644052,5.77867115 24.6655426,5.57365955 27.1022908,8.01040768 Z M9.02794774,1.92985935 L17.627074,12.2179025 C18.6272857,14.0570486 18.4976067,15.628783 17.2380371,16.9331055 C15.9784675,18.237428 14.4056456,18.428685 12.5195712,17.5068765 L2.08984375,9.11447635 C-0.330140061,6.5487336 -0.441154131,4.12783735 1.75680154,1.85178763 C3.95475721,-0.4242621 6.37847261,-0.398238192 9.02794774,1.92985935 Z" id="Combined-Shape"></path>
                    </g>
                </g>
            </g>
        </g>
    </g>
</svg>