<?xml version="1.0" encoding="UTF-8"?>
<svg width="60px" height="60px" viewBox="0 0 60 60" version="1.1" xmlns="http://www.w3.org/2000/svg" xmlns:xlink="http://www.w3.org/1999/xlink">
    <title>icon-med-equipment</title>
    <g id="Page-1" stroke="none" stroke-width="1" fill="none" fill-rule="evenodd">
        <g id="PECOS-2.0-Icons-&amp;-Illus-Overview-v17" transform="translate(-1158.000000, -1690.000000)" fill="#0573BB">
            <g id="Setup-Wizard-Icons" transform="translate(878.000000, 1313.000000)">
                <g id="Large-wizard-icons" transform="translate(16.000000, 35.000000)">
                    <g id="icon-med-equipment" transform="translate(264.000000, 342.000000)">
                        <path d="M9,0 L9,0.108 L9.38556715,0.127787593 C10.2660263,0.170487614 11.0147117,0.784593982 11.2288025,1.63969439 L14.823,16 L39,16 C41.209139,16 43,17.790861 43,20 L43,34 L52,34 C53.1045695,34 54,34.8954305 54,36 L54,40 C54,41.1045695 53.1045695,42 52,42 L49,42 L49.0005324,50.4162763 C50.1538812,50.9203564 51.0803203,51.846982 51.5841577,53.0004611 L58,53 C59.1045695,53 60,53.8954305 60,55 C60,56.1045695 59.1045695,57 58,57 L51.5837237,57.0005324 C50.8120455,58.7661528 49.050113,60 47,60 C44.2385763,60 42,57.7614237 42,55 C42,52.9495025 43.23431,51.1872936 45.0004611,50.4158423 L45,42 L37.9741311,42.0000926 C37.4540719,52.0286138 29.1579445,60 19,60 C8.50658975,60 0,51.4934102 0,41 C0,32.7850514 5.21353013,25.787788 12.5123737,23.1364264 L7.751,4 L2,4 C0.8954305,4 1.3527075e-16,3.1045695 0,2 C-1.3527075e-16,0.8954305 0.8954305,2.02906125e-16 2,0 L9,0 Z M47,53 C45.8954305,53 45,53.8954305 45,55 C45,56.1045695 45.8954305,57 47,57 C48.1045695,57 49,56.1045695 49,55 C49,53.8954305 48.1045695,53 47,53 Z M19,27 C11.2680135,27 5,33.2680135 5,41 C5,48.7319865 11.2680135,55 19,55 C26.7319865,55 33,48.7319865 33,41 C33,33.2680135 26.7319865,27 19,27 Z M19,30 C25.0751322,30 30,34.9248678 30,41 C30,47.0751322 25.0751322,52 19,52 C12.9248678,52 8,47.0751322 8,41 C8,34.9248678 12.9248678,30 19,30 Z M37.0440505,20.0188383 L15.829,20.018 L16.3701867,22.1805234 C17.1210598,22.0765599 17.885955,22.0164755 18.6622002,22.0029425 L19,22 C27.0216998,22 33.8823304,26.9711286 36.6692873,34.0007815 L39.044,34 L39.0440505,22.0188383 C39.0440505,20.9142688 38.14862,20.0188383 37.0440505,20.0188383 Z" id="Combined-Shape"></path>
                    </g>
                </g>
            </g>
        </g>
    </g>
</svg>