<?xml version="1.0" encoding="UTF-8"?>
<svg width="60px" height="60px" viewBox="0 0 60 60" version="1.1" xmlns="http://www.w3.org/2000/svg" xmlns:xlink="http://www.w3.org/1999/xlink">
    <title>icon-physician</title>
    <g id="Page-1" stroke="none" stroke-width="1" fill="none" fill-rule="evenodd">
        <g id="PECOS-2.0-Icons-&amp;-Illus-v14" transform="translate(-986.000000, -1394.000000)" fill="#0573BB">
            <g id="Wizard-Icons" transform="translate(972.000000, 1353.000000)">
                <g id="icon-physician" transform="translate(14.000000, 41.000000)">
                    <path d="M39.9251131,27.5172178 C40.3555542,27.6558836 40.7791952,27.8032909 41.1955844,27.9591194 C41.3717098,30.7687546 41.3062038,33.165831 41,35.1523437 C40.7177629,36.9833713 40.1587913,38.9342573 39.3230854,41.0050018 L39.5,41 C37.5670034,41 36,42.5670034 36,44.5 C36,46.4329966 37.5670034,48 39.5,48 C41.4329966,48 43,46.4329966 43,44.5 C43,43.1754487 42.2642246,42.022747 41.1790938,41.428315 C42.0260358,39.7035381 42.6331693,37.6115693 43,35.1523438 C43.392107,32.5236663 43.392107,30.2634124 43,28.371582 L43.0702663,28.7397335 C49.6495401,31.7715267 54,37.025893 54,43 C54,52.3888407 43.254834,60 30,60 C16.745166,60 6,52.3888407 6,43 C6,37.5314019 9.64536654,32.6658936 15.3087458,29.5561841 C14.9196226,30.4063167 14.7737979,31.4045057 14.8713379,32.5505371 C14.9638963,33.6380387 15.2477605,34.6328345 15.7237389,35.5335079 C12.0270376,37.0055285 10.1033973,41.1390284 11.4125559,44.941101 L11.4125559,44.941101 L13.5287489,51.0869717 C13.7085552,51.6091672 14.2776401,51.8867285 14.7998356,51.7069221 L14.7998356,51.7069221 L17.636,50.729 L17.6363913,50.7302177 L25.2005399,48.1256724 L28.0370957,47.148968 C28.5592911,46.9691616 28.8368524,46.4000767 28.6570461,45.8778812 L28.6570461,45.8778812 L26.5408531,39.7320105 C25.2870938,36.0908293 21.5097516,34.0355427 17.8380617,34.8495215 C17.672983,34.4399235 17.4580801,33.8850488 17.1933529,33.1848976 C16.5616235,31.5140973 16.9260891,29.8386895 18.2867496,28.1586742 C18.8673741,27.928262 19.4623305,27.7146479 20.0708842,27.5185076 L29.9631348,37 Z M17.1860796,37.1362036 C20.3192526,36.0573656 23.733762,37.7227331 24.8126,40.8559061 L24.8126,40.8559061 L26.4404408,45.583499 L24.5494036,46.2346353 L25.2,48.125 L17.636,50.729 L16.985255,48.8391805 L15.0942179,49.4903168 L13.4663771,44.7627239 L13.3955457,44.5437069 C12.4657919,41.4719998 14.1257712,38.1899523 17.1860796,37.1362036 Z M30,0 C37.1797017,0 43,6.49187113 43,14.5 C43,22.5081289 37.1797017,29 30,29 C22.8202983,29 17,22.5081289 17,14.5 C17,6.49187113 22.8202983,0 30,0 Z M39.5,46 C40.3284271,46 41,45.3284271 41,44.5 C41,43.6715729 40.3284271,43 39.5,43 C38.6715729,43 38,43.6715729 38,44.5 C38,45.3284271 38.6715729,46 39.5,46 Z"></path>
                </g>
            </g>
        </g>
    </g>
</svg>