<?xml version="1.0" encoding="UTF-8"?>
<svg width="60px" height="60px" viewBox="0 0 60 60" version="1.1" xmlns="http://www.w3.org/2000/svg" xmlns:xlink="http://www.w3.org/1999/xlink">
    <title>icon-billing-reimbursement</title>
    <g id="Page-1" stroke="none" stroke-width="1" fill="none" fill-rule="evenodd">
        <g id="PECOS-2.0-Icons-&amp;-Illus-v14" transform="translate(-986.000000, -1672.000000)" fill="#0573BB">
            <g id="Wizard-Icons" transform="translate(972.000000, 1353.000000)">
                <g id="icon-billing-reimbursement" transform="translate(14.000000, 319.000000)">
                    <path d="M29.8574929,1.48565537 C29.9507422,1.64107077 30,1.81890718 30,2.00015113 L30,6 C44.9116882,6 57,18.0883118 57,33 C57,47.9116882 44.9116882,60 30,60 C15.0883118,60 3,47.9116882 3,33 C3,26.6127504 5.21788895,20.7435165 8.92554576,16.1204194 L14.0260296,19.3673536 C10.8922135,23.0358783 9,27.7969641 9,33 C9,44.5979797 18.4020203,54 30,54 C41.5979797,54 51,44.5979797 51,33 C51,21.4020203 41.5979797,12 30,12 L30,16.4677704 C30,17.0200551 29.5522847,17.4677704 29,17.4677704 C28.8187561,17.4677704 28.6409196,17.4185125 28.4855042,17.3252633 L16.4291549,10.0914537 C15.9555746,9.80730552 15.8020095,9.19304526 16.0861577,8.71946499 C16.1706075,8.57871539 16.2884053,8.46091759 16.4291549,8.37646782 L28.4855042,1.1426582 C28.9590845,0.858510043 29.5733448,1.01207511 29.8574929,1.48565537 Z M32.51,19.6339607 L32.51,22.9039607 C33.67,23.0639607 34.76,23.3389607 35.78,23.7289607 C36.8,24.1189607 37.63,24.6039607 38.27,25.1839607 L38.27,25.1839607 L36.77,28.5139607 C34.79,27.1339607 32.83,26.4439607 30.89,26.4439607 C29.81,26.4439607 28.945,26.6739607 28.295,27.1339607 C27.645,27.5939607 27.32,28.2339607 27.32,29.0539607 C27.32,29.6139607 27.51,30.0739607 27.89,30.4339607 C28.27,30.7939607 28.75,31.0739607 29.33,31.2739607 C29.91,31.4739607 30.72,31.7039607 31.76,31.9639607 C33.2,32.3239607 34.39,32.6939607 35.33,33.0739607 C36.27,33.4539607 37.075,34.0439607 37.745,34.8439607 C38.415,35.6439607 38.75,36.7239607 38.75,38.0839607 C38.75,39.7039607 38.195,41.0689607 37.085,42.1789607 C35.975,43.2889607 34.48,44.0039607 32.6,44.3239607 L32.6,44.3239607 L32.6,47.6839607 L29,47.6839607 L29,44.4439607 C27.7,44.3439607 26.485,44.0939607 25.355,43.6939607 C24.225,43.2939607 23.25,42.7739607 22.43,42.1339607 L22.43,42.1339607 L23.93,38.8039607 C25.91,40.1839607 28.04,40.8739607 30.32,40.8739607 C31.54,40.8739607 32.475,40.6489607 33.125,40.1989607 C33.775,39.7489607 34.1,39.1139607 34.1,38.2939607 C34.1,37.7939607 33.92,37.3839607 33.56,37.0639607 C33.2,36.7439607 32.745,36.4889607 32.195,36.2989607 C31.645,36.1089607 30.86,35.8839607 29.84,35.6239607 C28.36,35.2639607 27.14,34.8839607 26.18,34.4839607 C25.22,34.0839607 24.395,33.4689607 23.705,32.6389607 C23.015,31.8089607 22.67,30.7039607 22.67,29.3239607 C22.67,27.7239607 23.245,26.3489607 24.395,25.1989607 C25.545,24.0489607 27.05,23.3139607 28.91,22.9939607 L28.91,22.9939607 L28.91,19.6339607 L32.51,19.6339607 Z"></path>
                </g>
            </g>
        </g>
    </g>
</svg>