<?xml version="1.0" encoding="UTF-8"?>
<svg width="60px" height="60px" viewBox="0 0 60 60" version="1.1" xmlns="http://www.w3.org/2000/svg" xmlns:xlink="http://www.w3.org/1999/xlink">
    <title>icon-voluntary-withdrawal</title>
    <g id="Page-1" stroke="none" stroke-width="1" fill="none" fill-rule="evenodd">
        <g id="PECOS-2.0-Icons-&amp;-Illus-v14" transform="translate(-986.000000, -1877.000000)" fill="#0573BB">
            <g id="Wizard-Icons" transform="translate(972.000000, 1353.000000)">
                <g id="icon-voluntary-withdrawal" transform="translate(14.000000, 524.000000)">
                    <path d="M44.5,29 C53.0604136,29 60,35.9395864 60,44.5 C60,53.0604136 53.0604136,60 44.5,60 C35.9395864,60 29,53.0604136 29,44.5 C29,35.9395864 35.9395864,29 44.5,29 Z M50.7707767,36.6188551 L50.6568542,36.7218254 L44.9991652,42.3781652 L39.3431458,36.7218254 C38.7573593,36.136039 37.8076118,36.136039 37.2218254,36.7218254 C36.6726506,37.2710002 36.6383272,38.1400626 37.1188551,38.7292233 L37.2218254,38.8431458 L42.8781652,44.4991652 L37.2218254,50.1568542 L37.1188551,50.2707767 C36.6703624,50.82066 36.6703624,51.6143688 37.1188551,52.1642522 L37.2218254,52.2781746 L37.3357478,52.3811449 C37.8856312,52.8296376 38.67934,52.8296376 39.2292233,52.3811449 L39.3431458,52.2781746 L44.9991652,46.6211652 L50.6568542,52.2781746 C51.2426407,52.863961 52.1923882,52.863961 52.7781746,52.2781746 C53.3273494,51.7289998 53.3616728,50.8599374 52.8811449,50.2707767 L52.7781746,50.1568542 L47.1211652,44.4991652 L52.7781746,38.8431458 L52.8811449,38.7292233 C53.3616728,38.1400626 53.3273494,37.2710002 52.7781746,36.7218254 C52.2289998,36.1726506 51.3599374,36.1383272 50.7707767,36.6188551 Z M16.8497757,0 C17.7030226,2.87350297e-16 18.4623088,0.541313227 18.7404938,1.34793792 L20,5 L51,5 C52.6568542,5 54,6.34314575 54,8 L54.0004714,28.6225011 C51.2235361,26.9573148 47.9735645,26 44.5,26 C34.7876414,26 26.8233439,33.4843394 26.0599148,43.0002111 L21.9687784,43 L21.9687333,40.5002169 C22.5759823,40.0441159 22.9687784,39.3179292 22.9687784,38.5 C22.9687784,37.1192881 21.8494902,36 20.4687784,36 C19.0880665,36 17.9687784,37.1192881 17.9687784,38.5 C17.9687784,39.3174727 18.3611362,40.0433054 18.967807,40.4994531 L18.9687784,43 L3,43 C1.34314575,43 2.02906125e-16,41.6568542 0,40 L0,5 L1.33731618,1.31734027 C1.62448899,0.526532717 2.37586819,-6.74938482e-17 3.21720333,0 L16.8497757,0 Z M21,11 L5,11 L5,29 L21,29 L21,11 Z M32,26 L26,26 L26,28 L32,28 L32,26 Z M19,13 L19,27 L7,27 L7,13 L19,13 Z M49,21 L26,21 L26,23 L49,23 L49,21 Z M49,16 L26,16 L26,18 L49,18 L49,16 Z M49,11 L26,11 L26,13 L49,13 L49,11 Z"></path>
                </g>
            </g>
        </g>
    </g>
</svg>