<?xml version="1.0" encoding="UTF-8"?>
<svg width="60px" height="60px" viewBox="0 0 60 60" version="1.1" xmlns="http://www.w3.org/2000/svg" xmlns:xlink="http://www.w3.org/1999/xlink">
    <title>icon-emergency-services</title>
    <g id="Page-1" stroke="none" stroke-width="1" fill="none" fill-rule="evenodd">
        <g id="PECOS-2.0-Icons-&amp;-Illus-v14" transform="translate(-986.000000, -1807.000000)" fill="#0573BB">
            <g id="Wizard-Icons" transform="translate(972.000000, 1353.000000)">
                <g id="icon-emergency-services" transform="translate(14.000000, 454.000000)">
                    <path d="M38.6725148,12 C39.4997315,12 40.2902378,12.3415682 40.8571675,12.9439619 L59.4564351,32.7066978 C59.8055857,33.0776893 60,33.5679383 60,34.0773899 L60,51 C60,52.1045695 59.1045695,53 58,53 L55.987106,53.0007338 C55.7274662,47.9861065 51.5792356,44 46.5,44 C41.4207644,44 37.2725338,47.9861065 37.012894,53.0007338 L23.987106,53.0007338 C23.7274662,47.9861065 19.5792356,44 14.5,44 C9.42076438,44 5.27253382,47.9861065 5.01289404,53.0007338 L2,53 C0.8954305,53 1.3527075e-16,52.1045695 0,51 L0,14 C-1.3527075e-16,12.8954305 0.8954305,12 2,12 L38.6725148,12 Z M16,16 C9.92486775,16 5,20.9248678 5,27 C5,33.0751322 9.92486775,38 16,38 C22.0751322,38 27,33.0751322 27,27 C27,20.9248678 22.0751322,16 16,16 Z M38.4330336,17 L35,17 C33.8954305,17 33,17.8954305 33,19 L33,19 L33,32 C33,33.1045695 33.8954305,34 35,34 L35,34 L50.4322358,34 C50.934993,34 51.4193083,33.8106498 51.7887473,33.4696518 C52.6004136,32.7204712 52.6510683,31.4551548 51.9018877,30.6434885 L51.9018877,30.6434885 L39.9026854,17.6434885 C39.5240701,17.2332946 38.9912527,17 38.4330336,17 L38.4330336,17 Z M28,0 C30.7614237,-5.07265313e-16 33,2.23857625 33,5 L33,10 L23,10 L23,5 C23,2.23857625 25.2385763,5.07265313e-16 28,0 Z M14.5,47 C18.0898509,47 21,49.9101491 21,53.5 C21,57.0898509 18.0898509,60 14.5,60 C10.9101491,60 8,57.0898509 8,53.5 C8,49.9101491 10.9101491,47 14.5,47 Z M46.5,47 C50.0898509,47 53,49.9101491 53,53.5 C53,57.0898509 50.0898509,60 46.5,60 C42.9101491,60 40,57.0898509 40,53.5 C40,49.9101491 42.9101491,47 46.5,47 Z M18,21 L18,25 L22,25 L22,29 L18,29 L18,33 L14,33 L14,29 L10,29 L10,25 L14,25 L14,21 L18,21 Z"></path>
                </g>
            </g>
        </g>
    </g>
</svg>