<?xml version="1.0" encoding="UTF-8"?>
<svg width="60px" height="60px" viewBox="0 0 60 60" version="1.1" xmlns="http://www.w3.org/2000/svg" xmlns:xlink="http://www.w3.org/1999/xlink">
    <title>icon-change-ownership</title>
    <g id="Page-1-Icons" stroke="none" stroke-width="1" fill="none" fill-rule="evenodd">
        <g id="PECOS-2.0-Icons-Overview-v30" transform="translate(-882.000000, -2024.000000)" fill="#0573BB">
            <g id="SETUP-WIZARD" transform="translate(865.000000, 1239.000000)">
                <g id="Large-wizard-icons" transform="translate(16.000000, 35.000000)">
                    <g id="icon-change-ownership" transform="translate(1.000000, 750.000000)">
                        <path d="M17.7462958,18.5077464 C19.8665915,19.2037109 21.5497516,20.4722288 22.4166363,22.0396695 L16.9659615,24.9798765 L16.965907,30.6415428 C16.0366528,30.8738213 15.0387435,31 14,31 C8.99694991,31 4.94117647,28.0728905 4.94117647,24.4621179 C4.94117647,21.816205 7.119009,19.5373994 10.2515328,18.5084594 L13.9860852,22.15463 L17.7462958,18.5077464 Z M28,19.0283891 L25.037,20.626 L25.0378761,9.57384872 L14.0271091,3.53430319 L3.01634216,9.57384872 L3.016,21 L4,21 L4,24 L3.016,24 L3.016,24.016 L0,24.0161991 L0,7.42329234 L14.0165202,0 L28,7.42329234 L28,19.0283891 Z M14,7.54054054 C16.9184459,7.54054054 19.2843137,10.2093757 19.2843137,13.5015507 C19.2843137,16.7937258 16.9184459,19.4625609 14,19.4625609 C11.0815541,19.4625609 8.71568627,16.7937258 8.71568627,13.5015507 C8.71568627,10.2093757 11.0815541,7.54054054 14,7.54054054 Z" id="smaller-owner"></path>
                        <path d="M53.457032,2.45226057 C54.5156614,2.45226057 55.37385,3.31044922 55.37385,4.36907858 L55.37385,14.4522606 L44.767211,14.4522606 C43.7476084,14.4522606 42.9210572,13.6257093 42.9210572,12.6061067 C42.9210572,11.5865041 43.7476084,10.7599529 44.767211,10.7599529 L48.7521047,10.759208 C46.4693438,8.0340563 42.9744652,6.29101311 39.0571157,6.29101311 C36.7127269,6.29101311 34.5196494,6.91529793 32.6471396,8.00076556 C32.5318187,8.09251971 32.4043821,8.16967258 32.2683044,8.23105981 C32.255622,8.23735435 32.2438854,8.24475162 32.2321626,8.25216744 C32.0060074,8.34307175 31.758236,8.39605111 31.4980906,8.39605111 C30.4625567,8.39605111 29.6230906,7.55658502 29.6230906,6.52105111 C29.6230906,5.7223601 30.1224717,5.04030579 30.8260292,4.77009293 L30.8188805,4.75200695 C33.2356749,3.38348101 36.0512901,2.59870542 39.0571157,2.59870542 C44.0741286,2.59870542 48.5612377,4.78499843 51.5484235,8.22283561 L51.5428517,4.36907676 C51.5413969,3.31190415 52.3972254,2.45371712 53.454398,2.45226238 L53.457032,2.45226057 Z" id="Combined-Shape" transform="translate(42.498470, 8.452261) rotate(10.000000) translate(-42.498470, -8.452261) "></path>
                        <path d="M34.1141863,42.9825738 L39.9801217,47.7306159 L45.8888085,42.9836396 C50.0755059,44.4741298 52.9411765,47.5043265 52.9411765,51 C52.9411765,55.9705627 47.1472144,60 40,60 C32.8527856,60 27.0588235,55.9705627 27.0588235,51 C27.0588235,47.503493 29.9258607,44.472685 34.1141863,42.9825738 Z M40.0236003,17 L60,27.2968249 L60,49.9967003 L58,49.996 L58,50 L54,50 L54,46 L56.047,46 L56.0472336,29.6728897 L40,21.3590202 L24,29.6728897 L24,46 L26,46 L26,50 L22,50 L22,49.996 L20,49.9967003 L20,27.2968249 L40.0236003,17 Z M40,27.4594595 C44.1692084,27.4594595 47.5490196,31.1613921 47.5490196,35.7279575 C47.5490196,40.2945228 44.1692084,43.9964555 40,43.9964555 C35.8307916,43.9964555 32.4509804,40.2945228 32.4509804,35.7279575 C32.4509804,31.1613921 35.8307916,27.4594595 40,27.4594595 Z" id="larger-owner"></path>
                    </g>
                </g>
            </g>
        </g>
    </g>
</svg>