<?xml version="1.0" encoding="UTF-8"?>
<svg width="32px" height="32px" viewBox="0 0 32 32" version="1.1" xmlns="http://www.w3.org/2000/svg" xmlns:xlink="http://www.w3.org/1999/xlink">
    <title>icon-sole-proprietor</title>
    <g id="Page-1" stroke="none" stroke-width="1" fill="none" fill-rule="evenodd">
        <g id="PECOS-2.0-Icons-&amp;-Illus-Overview-v17" transform="translate(-1165.000000, -1348.000000)" fill="#0573BB">
            <g id="Setup-Wizard-Icons" transform="translate(878.000000, 1313.000000)">
                <g id="Large-wizard-icons" transform="translate(16.000000, 35.000000)">
                    <g id="icon-sole-proprietor" transform="translate(271.000000, 0.000000)">
                        <path d="M12.742801,10.7991837 C14.6074249,11.4052781 16.1298648,12.4502579 17.0478086,13.747914 C14.1064126,15.6443695 12.1278136,18.904517 12.0059659,22.6342532 C11.0665962,22.8712672 10.0544758,23 9,23 C4.02943725,23 0,20.139597 0,16.6111111 C0,14.0306713 2.15503873,11.8075382 5.25719901,10.7991837 L8.98707323,14.0555556 Z M9,0 C11.8403216,0 14.1428571,2.57436269 14.1428571,5.75 C14.1428571,8.92563731 11.8403216,11.5 9,11.5 C6.15967843,11.5 3.85714286,8.92563731 3.85714286,5.75 C3.85714286,2.57436269 6.15967843,0 9,0 Z" id="icon-non-physician-copy-3"></path>
                        <path d="M23,14 C27.9705627,14 32,18.0294373 32,23 C32,27.9705627 27.9705627,32 23,32 C18.0294373,32 14,27.9705627 14,23 C14,18.0294373 18.0294373,14 23,14 Z M23.9411765,16 L22.1764706,16 L22.1764706,17.6770053 C21.2647059,17.8367201 20.5269608,18.2035651 19.9632353,18.7775401 C19.3995098,19.3515152 19.1176471,20.0377897 19.1176471,20.8363636 C19.1176471,21.5251337 19.2867647,22.0766488 19.625,22.4909091 C19.9632353,22.9051693 20.3676471,23.2121212 20.8382353,23.4117647 C21.3088235,23.6114082 21.9068627,23.8010695 22.6323529,23.9807487 C23.1323529,24.1105169 23.5171569,24.2228164 23.7867647,24.3176471 C24.0563725,24.4124777 24.2794118,24.5397504 24.4558824,24.6994652 C24.6323529,24.85918 24.7205882,25.0638146 24.7205882,25.313369 C24.7205882,25.7226381 24.5612745,26.0395722 24.2426471,26.2641711 C23.9240196,26.4887701 23.4656863,26.6010695 22.8676471,26.6010695 C21.75,26.6010695 20.7058824,26.2566845 19.7352941,25.5679144 L19,27.2299465 C19.4019608,27.5493761 19.879902,27.8089127 20.4338235,28.0085561 C20.9877451,28.2081996 21.5833333,28.3329768 22.2205882,28.3828877 L22.2205882,30 L23.9852941,30 L23.9852941,28.3229947 C24.9068627,28.1632799 25.6397059,27.8064171 26.1838235,27.2524064 C26.7279412,26.6983957 27,26.0171123 27,25.2085561 C27,24.5297683 26.8357843,23.9907308 26.5073529,23.5914439 C26.1789216,23.1921569 25.7843137,22.8976827 25.3235294,22.7080214 C24.8627451,22.5183601 24.2794118,22.3336898 23.5735294,22.1540107 C23.0637255,22.0242424 22.6666667,21.9094474 22.3823529,21.8096257 C22.0980392,21.7098039 21.8627451,21.5700535 21.6764706,21.3903743 C21.4901961,21.2106952 21.3970588,20.9811052 21.3970588,20.7016043 C21.3970588,20.2923351 21.5563725,19.9729055 21.875,19.7433155 C22.1936275,19.5137255 22.6176471,19.3989305 23.1470588,19.3989305 C24.0980392,19.3989305 25.0588235,19.7433155 26.0294118,20.4320856 L26.7647059,18.7700535 C26.4509804,18.4805704 26.0441176,18.2385027 25.5441176,18.0438503 C25.0441176,17.8491979 24.5098039,17.711943 23.9411765,17.6320856 L23.9411765,16 Z" id="Combined-Shape"></path>
                    </g>
                </g>
            </g>
        </g>
    </g>
</svg>