<?xml version="1.0" encoding="UTF-8"?>
<svg width="60px" height="60px" viewBox="0 0 60 60" version="1.1" xmlns="http://www.w3.org/2000/svg" xmlns:xlink="http://www.w3.org/1999/xlink">
    <title>icon-clinic-group-practice</title>
    <g id="Page-1" stroke="none" stroke-width="1" fill="none" fill-rule="evenodd">
        <g id="PECOS-2.0-Icons-&amp;-Illus-v14" transform="translate(-986.000000, -1942.000000)" fill="#0573BB">
            <g id="Wizard-Icons" transform="translate(972.000000, 1353.000000)">
                <g id="icon-clinic-group-practice" transform="translate(14.000000, 589.000000)">
                    <path d="M16.9620299,43.4921842 C21.1134696,44.8513125 24,47.8632958 24,51.3606557 C24,56.1320338 18.627417,60 12,60 C5.372583,60 0,56.1320338 0,51.3606557 C0,47.8641399 2.88513719,44.8527664 7.0349644,43.4931686 L11.9815674,48.3114754 L16.9620299,43.4921842 Z M52.9632062,44.0250671 C57.1140149,45.3405304 60,48.2551221 60,51.6393443 C60,56.2568069 54.627417,60 48,60 C41.372583,60 36,56.2568069 36,51.6393443 C36,48.2556698 38.885051,45.3414739 43.0347784,44.025706 L47.9815674,48.6885246 L52.9632062,44.0250671 Z M19,47 L17,47 L17,49.012 L14.9877049,49.0122951 L14.9877049,51.0122951 L17,51.012 L17,53 L19,53 L19,51.012 L20.9877049,51.0122951 L20.9877049,49.0122951 L19,49.012 L19,47 Z M57.0122951,49.9877049 L51.0122951,49.9877049 L51.0122951,51.9877049 L57.0122951,51.9877049 L57.0122951,49.9877049 Z M48,30 C51.8659932,30 55,33.4129113 55,37.6229508 C55,41.8329903 51.8659932,45.2459016 48,45.2459016 C44.1340068,45.2459016 41,41.8329903 41,37.6229508 C41,33.4129113 44.1340068,30 48,30 Z M12,29 C15.8659932,29 19,32.526675 19,36.8770492 C19,41.2274233 15.8659932,44.7540984 12,44.7540984 C8.13400675,44.7540984 5,41.2274233 5,36.8770492 C5,32.526675 8.13400675,29 12,29 Z M31,32 L31,41 L40,41 L40,43 L20,43 L20,41 L29,41 L29,32 L31,32 Z M35.0586954,14.3998149 C35.5576933,14.5400278 36.0407749,14.7003563 36.5056387,14.8792709 C36.9616826,16.5868572 37.0697995,17.9372662 36.8299561,18.9313965 C36.6264526,19.7749007 36.365479,20.4852039 36.0470353,21.0623064 C35.870024,21.0206239 35.6874205,21 35.5,21 C34.1192881,21 33,22.1192881 33,23.5 C33,24.8807119 34.1192881,26 35.5,26 C36.8807119,26 38,24.8807119 38,23.5 C38,22.9694587 37.8347376,22.4775166 37.5528834,22.0728442 C37.920567,21.5363027 38.2475524,20.7468822 38.5321655,19.7059326 C38.8693227,18.4728078 38.8607083,17.2301906 38.5063225,15.9780811 L38.438,15.754 L38.4512341,15.7958142 C41.2355468,17.3803336 43,19.7335577 43,22.3606557 C43,27.1320338 37.1797017,31 30,31 C22.8202983,31 17,27.1320338 17,22.3606557 C17,19.6576476 18.8678942,17.2445693 21.7926608,15.6603975 C21.5693319,16.1212136 21.4690311,16.6870285 21.4903328,17.3573199 C21.5124075,18.0519336 21.7290683,18.6692274 22.1426581,19.208525 C20.458945,20.0704814 19.5925994,22.0226431 20.1255747,23.8718289 L20.1880602,24.0695076 L21.2982287,27.2936712 C21.3937153,27.5709842 21.6752563,27.7313751 21.9552332,27.683336 L22.0482436,27.6594778 L24.1149074,26.9472675 L23.6343027,25.4808443 L22.5404663,25.8632202 L21.8572084,23.7802983 L21.8081231,23.6142338 C21.427959,22.1718934 22.2172636,20.6623891 23.6434937,20.1638794 C25.0326299,19.678335 26.5473361,20.3639929 27.11071,21.7017887 L27.1736796,21.8654212 L27.1908266,21.9160405 L27.8740845,23.9989624 L26.7474138,24.3919922 L27.2455194,25.8693113 L29.4420893,25.1135726 C29.7194023,25.0180861 29.8797932,24.736545 29.8317541,24.4565681 L29.8078959,24.3635578 L28.6977274,21.1393942 C27.9785021,19.0506123 25.7021624,17.9403672 23.6133805,18.6595925 L23.633,18.653 L23.5167288,18.4789079 C23.2602001,18.0648379 23.1159027,17.60406 23.0838366,17.0965743 L23.0769653,16.8762207 C23.0769653,16.1465088 23.2972699,15.4736511 23.737879,14.8576477 L23.8102723,14.7615646 C24.1766832,14.6294746 24.5537193,14.5087474 24.9403104,14.4000943 L29.9815674,19.3114754 L35.0586954,14.3998149 Z M35.5,22.5 C36.0522847,22.5 36.5,22.9477153 36.5,23.5 C36.5,24.0522847 36.0522847,24.5 35.5,24.5 C34.9477153,24.5 34.5,24.0522847 34.5,23.5 C34.5,22.9477153 34.9477153,22.5 35.5,22.5 Z M30,-4.97379915e-14 C33.8659932,-4.97379915e-14 37,3.52667504 37,7.87704918 C37,12.2274233 33.8659932,15.7540984 30,15.7540984 C26.1340068,15.7540984 23,12.2274233 23,7.87704918 C23,3.52667504 26.1340068,-4.97379915e-14 30,-4.97379915e-14 Z"></path>
                </g>
            </g>
        </g>
    </g>
</svg>