<?xml version="1.0" encoding="UTF-8"?>
<svg width="30px" height="20px" viewBox="0 0 30 20" version="1.1" xmlns="http://www.w3.org/2000/svg" xmlns:xlink="http://www.w3.org/1999/xlink">
    <title>icon-reval-marker-green-small</title>
    <g id="Page-1-Icons" stroke="none" stroke-width="1" fill="none" fill-rule="evenodd">
        <g id="PECOS-2.0-Icons-Overview-v32-pending-reviews" transform="translate(-2987.000000, -1460.000000)">
            <g id="REVALIDATION-MARKER-ICONS-" transform="translate(2975.000000, 1363.000000)">
                <g id="icon-reval-marker-green-small" transform="translate(13.000000, 98.000000)">
                    <path d="M1,-0.5 L22.0513883,-0.5 L27.5784653,9 L22.0513883,18.5 L1,18.5 C0.585786438,18.5 0.210786438,18.3321068 -0.0606601718,18.0606602 C-0.332106781,17.7892136 -0.5,17.4142136 -0.5,17 L-0.5,17 L-0.5,1 C-0.5,0.585786438 -0.332106781,0.210786438 -0.0606601718,-0.0606601718 C0.210786438,-0.332106781 0.585786438,-0.5 1,-0.5 L1,-0.5 Z" id="Rectangle" stroke-opacity="0.4" stroke="#FFFFFF" fill="#00861A"></path>
                    <path d="M4.53125,13 L4.53125,9.578125 L5.9140625,9.578125 L7.96484375,13 L9.55859375,13 L7.13867188,9.20898438 C8.24804688,8.75585938 8.80273438,7.99609375 8.80273438,6.9296875 C8.80273438,6.09375 8.53710938,5.46875 8.00585938,5.0546875 C7.47460938,4.640625 6.65625,4.43359375 5.55078125,4.43359375 L5.55078125,4.43359375 L3.13085938,4.43359375 L3.13085938,13 L4.53125,13 Z M5.50390625,8.41796875 L4.53125,8.41796875 L4.53125,5.6171875 L5.45703125,5.6171875 C6.09375,5.6171875 6.5703125,5.72265625 6.88671875,5.93359375 C7.203125,6.14453125 7.36132812,6.4921875 7.36132812,6.9765625 C7.36132812,7.453125 7.21484375,7.8125 6.921875,8.0546875 C6.62890625,8.296875 6.15625,8.41796875 5.50390625,8.41796875 L5.50390625,8.41796875 Z M13.284375,13.1171875 C13.7257813,13.1171875 14.1183594,13.0839844 14.4621094,13.0175781 C14.8058594,12.9511719 15.1457031,12.8378906 15.4816406,12.6777344 L15.4816406,12.6777344 L15.4816406,11.5585938 C15.1027344,11.7265625 14.7482422,11.8466797 14.4181641,11.9189453 C14.0880859,11.9912109 13.7316406,12.0273438 13.3488281,12.0273438 C12.7667969,12.0273438 12.315625,11.8583984 11.9953125,11.5205078 C11.675,11.1826172 11.5050781,10.6992188 11.4855469,10.0703125 L11.4855469,10.0703125 L15.8039063,10.0703125 L15.8039063,9.32617188 C15.8039063,8.41601562 15.5558594,7.70117188 15.0597656,7.18164062 C14.5636719,6.66210938 13.8878906,6.40234375 13.0324219,6.40234375 C12.1105469,6.40234375 11.3859375,6.70507812 10.8585938,7.31054688 C10.33125,7.91601562 10.0675781,8.74804688 10.0675781,9.80664062 C10.0675781,10.8378906 10.3517578,11.6474609 10.9201172,12.2353516 C11.4884766,12.8232422 12.2765625,13.1171875 13.284375,13.1171875 Z M14.4503906,9.07421875 L11.5089844,9.07421875 C11.5597656,8.54296875 11.7169922,8.13867188 11.9806641,7.86132812 C12.2443359,7.58398438 12.5949219,7.4453125 13.0324219,7.4453125 C13.4699219,7.4453125 13.8136719,7.58300781 14.0636719,7.85839844 C14.3136719,8.13378906 14.4425781,8.5390625 14.4503906,9.07421875 L14.4503906,9.07421875 Z M19.8929688,13 L22.365625,6.51953125 L20.9007813,6.51953125 L19.5824219,10.2871094 C19.3441406,11.0292969 19.2074219,11.5410156 19.1722656,11.8222656 L19.1722656,11.8222656 L19.1253906,11.8222656 C19.0785156,11.4316406 18.9417969,10.9199219 18.7152344,10.2871094 L18.7152344,10.2871094 L17.396875,6.51953125 L15.94375,6.51953125 L18.4046875,13 L19.8929688,13 Z" id="Rev" fill="#FFFFFF" fill-rule="nonzero"></path>
                </g>
            </g>
        </g>
    </g>
</svg>