<?xml version="1.0" encoding="UTF-8"?>
<svg width="22px" height="22px" viewBox="0 0 22 22" version="1.1" xmlns="http://www.w3.org/2000/svg" xmlns:xlink="http://www.w3.org/1999/xlink">
    <title>icon-reval-complete-white</title>
    <g id="Page-1-Icons" stroke="none" stroke-width="1" fill="none" fill-rule="evenodd">
        <g id="PECOS-2.0-Icons-Overview-v32-pending-reviews" transform="translate(-2994.000000, -1641.000000)" fill="#FFFFFF">
            <g id="REVALIDATION-MARKER-ICONS-" transform="translate(2975.000000, 1363.000000)">
                <g id="icon-reval-marker-green-large" transform="translate(12.000000, 265.000000)">
                    <g id="icon-reval-complete-white" transform="translate(7.000000, 13.000000)">
                        <path d="M11,0 C17.0751322,0 22,4.92486775 22,11 C22,17.0751322 17.0751322,22 11,22 C4.92486775,22 0,17.0751322 0,11 C0,4.92486775 4.92486775,0 11,0 Z M10.8116913,1.75 C5.70305735,1.75 1.56169128,5.89136606 1.56169128,11 C1.56169128,16.1086339 5.70305735,20.25 10.8116913,20.25 C15.9203252,20.25 20.0616913,16.1086339 20.0616913,11 C20.0616913,5.89136606 15.9203252,1.75 10.8116913,1.75 Z M16.0502989,7.83241022 L16.0900676,7.86698062 C16.5068822,8.22931201 16.5510495,8.86093463 16.1887181,9.27774923 L10.413096,15.9218424 C9.97024656,16.4312825 9.19826336,16.4852648 8.68882331,16.0424153 L5.03376082,12.865118 C4.61694622,12.5027866 4.57277887,11.871164 4.93511026,11.4543494 L4.93589417,11.4534476 C5.29822556,11.036633 5.92984818,10.9924656 6.34666278,11.354797 L9.37496023,13.9872559 L14.6395303,7.93106077 C15.0018617,7.51424618 15.6334843,7.47007883 16.0502989,7.83241022 Z" id="Combined-Shape"></path>
                    </g>
                </g>
            </g>
        </g>
    </g>
</svg>