<?xml version="1.0" encoding="UTF-8"?>
<svg width="80px" height="80px" viewBox="0 0 80 80" version="1.1" xmlns="http://www.w3.org/2000/svg" xmlns:xlink="http://www.w3.org/1999/xlink">
    <title>icon-fingerprints-results-overview</title>
    <defs>
        <linearGradient x1="50%" y1="0%" x2="50%" y2="99.4376229%" id="linearGradient-1">
            <stop stop-color="#6B92A3" offset="0%"></stop>
            <stop stop-color="#4D6E7E" offset="100%"></stop>
        </linearGradient>
        <linearGradient x1="50%" y1="0%" x2="50%" y2="100%" id="linearGradient-2">
            <stop stop-color="#6493A8" offset="0%"></stop>
            <stop stop-color="#476777" offset="100%"></stop>
        </linearGradient>
    </defs>
    <g id="Page-1-Icons" stroke="none" stroke-width="1" fill="none" fill-rule="evenodd">
        <g id="PECOS-2.0-Icons-Overview-v28" transform="translate(-2549.000000, -2781.000000)">
            <g id="FINGERPRINT-OVERVIEW" transform="translate(2533.000000, 2423.000000)">
                <g id="icon-fingerprints-results-overview" transform="translate(16.000000, 358.000000)">
                    <circle id="gray-80x80-oval" fill="#D8E3E8" cx="40" cy="40" r="40"></circle>
                    <path d="M29.0502453,39.6613419 C30.7940552,39.6613419 32.5063884,40.0191693 34.1242914,40.7220447 C35.6540597,41.3865815 37.039035,42.3258786 38.2414455,43.514377 C40.5959036,45.8402556 41.9682883,48.8817891 42.0375371,51.884984 L42.0375371,51.884984 L42.0501278,51.884984 C42.0501278,51.9808307 42.0501278,52.0766773 42.0375371,52.1661342 L42.0375371,52.1661342 L42.0375371,52.1853035 C41.8801535,54.8306709 39.7145557,56.9329073 37.0705118,56.9329073 C34.3509237,56.9329073 32.1349631,54.7092652 32.0971911,51.9552716 C31.7950146,50.3961661 30.441516,49.2140575 28.8173176,49.2140575 C26.9790775,49.2140575 25.480786,50.7348243 25.480786,52.600639 C25.480786,52.9073482 25.5248534,53.2076677 25.6003975,53.5015974 L25.6003975,53.5015974 L25.6129882,53.5463259 L25.6192835,53.5910543 C25.6255789,53.6230032 26.1166156,56.5878594 27.8793115,58.5047923 C29.7868003,60.5750799 31.5180196,61.6613419 33.8472963,62.2555911 C34.3131517,62.3769968 34.6027375,62.85623 34.4831259,63.3290735 C34.3824005,63.7316294 34.0298613,64 33.63955,64 C33.5703013,64 33.4947572,63.9936102 33.4255084,63.9744409 C30.7688738,63.3035144 28.7291828,62.0255591 26.601357,59.7124601 C24.7700025,57.726238 24.1019646,54.952838 23.9365764,54.1173718 L23.9093136,53.9730624 L23.9093136,53.9730624 L23.900655,53.9233227 C23.7873388,53.4952077 23.7306807,53.0479233 23.7306807,52.600639 C23.7306807,49.7571885 26.0095948,47.4440895 28.8110222,47.4440895 C31.5872683,47.4440895 33.8472963,49.7188498 33.8913637,52.5239617 C34.1872448,54.0319489 35.4966761,55.1693291 37.0642164,55.1693291 C38.7765496,55.1693291 40.180411,53.8146965 40.2874318,52.1022364 C40.2685458,47.0607029 35.4651994,41.4313099 29.0439499,41.4313099 C22.4904982,41.4313099 17.7375146,46.2428115 17.7375146,52.8690096 C17.7375146,54.5750799 18.1026444,56.2172524 18.8140182,57.7444089 C19.0217645,58.1853035 18.8329042,58.7092652 18.3985255,58.9201278 C18.278914,58.9776358 18.1530072,59.0031949 18.0271003,59.0031949 C17.6997425,59.0031949 17.3912707,58.8178914 17.2401825,58.4984026 C16.4154926,56.7348243 16,54.8370607 16,52.8690096 C16,49.2715655 17.2653639,45.9552716 19.5631639,43.5399361 C20.7340977,42.313099 22.1253684,41.3546326 23.699204,40.6964856 C25.3422885,40.0127796 27.1427564,39.6613419 29.0502453,39.6613419 Z M28.9621105,43.5399361 C31.2662059,43.5399361 33.4632804,44.4217252 35.1504323,46.0191693 C36.8249934,47.6102236 37.8385436,49.7635783 38.0022225,52.0766773 C38.0399945,52.5623003 37.6748647,52.9904153 37.1964186,53.0223642 C36.7179726,53.0607029 36.2961846,52.6900958 36.2647079,52.2044728 C35.9940082,48.3386581 32.7833834,45.3099042 28.9621105,45.3099042 C24.9267958,45.3099042 21.640627,48.6453674 21.640627,52.7412141 C21.640627,53.3482428 21.7098758,53.9552716 21.8546686,54.543131 L21.8546686,54.543131 L21.860964,54.5814696 C21.8672593,54.5942492 22.100187,55.7444089 22.7486073,57.2587859 C23.3403695,58.6389776 24.4105777,60.6134185 26.1355016,62.2044728 C26.4943362,62.5367412 26.5195175,63.0926518 26.198455,63.456869 C26.0221855,63.6485623 25.7892578,63.7444089 25.5500348,63.7444089 C25.3422885,63.7444089 25.1345421,63.6677316 24.9645679,63.514377 C21.2880878,60.1277955 20.2430609,55.3674121 20.1612215,54.9520767 C19.9849519,54.2364217 19.8968171,53.4888179 19.8968171,52.7412141 C19.8968171,50.2875399 20.8411185,47.9744409 22.5534517,46.2364217 C24.2657849,44.4984026 26.5384036,43.5399361 28.9621105,43.5399361 Z M28.880271,51.4185304 C29.358717,51.4185304 29.7490283,51.8146965 29.7490283,52.3003195 C29.7490283,52.428115 29.7553236,52.5559105 29.761619,52.6837061 C29.981956,56.1853035 33.1925807,58.9265176 37.0705118,58.9265176 C37.5489578,58.9265176 38.0336992,58.8817891 38.4995545,58.798722 C38.9780006,58.715655 39.4249699,59.0351438 39.5131047,59.514377 C39.5949442,59.9936102 39.280177,60.4536741 38.8080263,60.5367412 C38.2351501,60.6389776 37.6559786,60.6900958 37.0705118,60.6900958 C32.2734607,60.6900958 28.3010995,57.2204473 28.0241044,52.7923323 C28.0178091,52.6325879 28.0115137,52.4664537 28.0115137,52.3003195 C28.0115137,51.8146965 28.401825,51.4185304 28.880271,51.4185304 Z M28.9809965,35.8210863 C31.7572426,35.8210863 34.5146027,36.5047923 36.9509003,37.7891374 C39.3116537,39.0351438 41.3702308,40.8434505 42.9125897,43.0223642 C43.1958801,43.4185304 43.10145,43.9744409 42.7174341,44.2555911 C42.3271229,44.5367412 41.7857234,44.4472843 41.502433,44.0511182 C38.6443474,40.0063898 33.9606125,37.5910543 28.9872918,37.5910543 C27.3945701,37.5910543 25.8396205,37.8402556 24.360215,38.3067093 C24.3035569,38.3194888 24.1902408,38.3578275 24.0139712,38.428115 C23.9636084,38.4472843 23.9132457,38.4600639 23.8628829,38.4792332 C23.4347996,38.6070288 22.9689443,38.3897764 22.79897,37.9616613 C22.6164051,37.5079872 22.8367421,36.9904153 23.2837114,36.8115016 C23.3088928,36.8051118 23.3214835,36.7923323 23.3403695,36.7859425 C25.1408375,36.1533546 27.0546216,35.8210863 28.9809965,35.8210863 Z M28.9621105,32 C29.6002987,32 30.2367634,32.0297387 30.868954,32.0888925 C31.191102,32.8140015 31.5900258,33.4621021 32.0639913,34.0354452 C31.0417969,33.8587951 30.0033767,33.7699681 28.9621105,33.7699681 C25.9340507,33.7699681 22.9311722,34.5239617 20.2745376,35.942492 C19.8464543,36.172524 19.3239409,36.0063898 19.0973086,35.571885 C18.8706762,35.1373802 19.0343551,34.6070288 19.4624384,34.3769968 C20.8977766,33.6102236 22.4212495,33.0159744 23.9887898,32.6198083 C25.6066928,32.2108626 27.281254,32 28.9621105,32 Z" id="fingerprint" fill="#7494A4"></path>
                    <g id="Group-3" transform="translate(32.000000, 16.000000)">
                        <path d="M10,0 C15.5228475,0 20,4.4771525 20,10 C20,11.1461313 19.8071834,12.2472278 19.4522186,13.2726211 C15.7468163,14.072507 12.6794355,16.5840168 11.1167872,19.9379315 C10.7508484,19.9790413 10.3778718,20 10,20 C4.4771525,20 0,15.5228475 0,10 C0,4.4771525 4.4771525,0 10,0 Z" id="Combined-Shape" fill="url(#linearGradient-1)"></path>
                        <path d="M10,3 C13.8659932,3 17,6.13400675 17,10 C17,13.8659932 13.8659932,17 10,17 C6.13400675,17 3,13.8659932 3,10 C3,6.13400675 6.13400675,3 10,3 Z M5,10 C5,12.7614237 7.23857625,15 10,15 C11.0191072,15 11.9670032,14.6951083 12.7574478,14.1715651 L5.8284349,7.24255219 C5.30489166,8.03299682 5,8.98089278 5,10 Z M10,5 C8.98089278,5 8.03299682,5.30489166 7.24255219,5.8284349 L14.1715651,12.7574478 C14.6951083,11.9670032 15,11.0191072 15,10 C15,7.23857625 12.7614237,5 10,5 Z" id="Combined-Shape" fill="#C9DEE8"></path>
                    </g>
                    <g id="Group" transform="translate(44.000000, 31.000000)">
                        <circle id="Oval" fill="url(#linearGradient-2)" cx="10" cy="10" r="10"></circle>
                        <path d="M7.60649888,12.4540021 L11.5193131,12.4843301 L11.5193131,12.4843301 L11.1863796,4.38970939 C11.163978,3.84505915 11.5873442,3.38537282 12.1319944,3.36297123 C12.1500328,3.3622293 12.1680882,3.36198244 12.1861402,3.36223091 C12.7702505,3.37027073 13.2455058,3.83481991 13.26685,4.41859544 L13.5824387,13.0501055 C13.6076459,13.7395361 13.0691865,14.3188646 12.3797558,14.3440718 C12.3647652,14.3446199 12.349766,14.3448979 12.3347654,14.3449058 L7.58046755,14.3473845 C7.06282105,14.3476544 6.64296686,13.9282378 6.64269698,13.4105913 C6.64269466,13.4061463 6.64272396,13.4017014 6.64278488,13.3972568 C6.6499936,12.8713288 7.08053725,12.4499254 7.60649888,12.4540021 Z" id="Rectangle" fill="#E9F8FF" opacity="0.900000036" transform="translate(10.129755, 8.847880) rotate(39.000000) translate(-10.129755, -8.847880) "></path>
                    </g>
                </g>
            </g>
        </g>
    </g>
</svg>