<?xml version="1.0" encoding="UTF-8"?>
<svg width="80px" height="80px" viewBox="0 0 80 80" version="1.1" xmlns="http://www.w3.org/2000/svg" xmlns:xlink="http://www.w3.org/1999/xlink">
    <title>icon-fingerprints-status-overview</title>
    <defs>
        <linearGradient x1="50%" y1="0%" x2="50%" y2="100%" id="linearGradient-1">
            <stop stop-color="#7CA5B6" offset="0%"></stop>
            <stop stop-color="#5E7E8E" offset="100%"></stop>
        </linearGradient>
        <linearGradient x1="50%" y1="0%" x2="50%" y2="100%" id="linearGradient-2">
            <stop stop-color="#E1E9ED" offset="0%"></stop>
            <stop stop-color="#C4D8E2" offset="100%"></stop>
        </linearGradient>
    </defs>
    <g id="Page-1-Icons" stroke="none" stroke-width="1" fill="none" fill-rule="evenodd">
        <g id="PECOS-2.0-Icons-Overview-v28" transform="translate(-2549.000000, -2581.000000)">
            <g id="FINGERPRINT-OVERVIEW" transform="translate(2533.000000, 2423.000000)">
                <g id="icon-fingerprints-status-overview" transform="translate(16.000000, 158.000000)">
                    <circle id="gray-80x80-oval" fill="#D8E3E8" cx="40" cy="40" r="40"></circle>
                    <path d="M37.9301547,45.8553259 C38.2706839,45.9496163 38.6294581,46 39,46 L39,46 L40.2257141,46.0005792 C41.3544039,47.8262913 41.9909438,49.8643159 42.0375371,51.884984 L42.0375371,51.884984 L42.0501278,51.884984 C42.0501278,51.9808307 42.0501278,52.0766773 42.0375371,52.1661342 L42.0375371,52.1661342 L42.0375371,52.1853035 C41.8801535,54.8306709 39.7145557,56.9329073 37.0705118,56.9329073 C34.3509237,56.9329073 32.1349631,54.7092652 32.0971911,51.9552716 C31.7950146,50.3961661 30.441516,49.2140575 28.8173176,49.2140575 C26.9790775,49.2140575 25.480786,50.7348243 25.480786,52.600639 C25.480786,52.9073482 25.5248534,53.2076677 25.6003975,53.5015974 L25.6003975,53.5015974 L25.6129882,53.5463259 L25.6192835,53.5910543 C25.6255789,53.6230032 26.1166156,56.5878594 27.8793115,58.5047923 C29.7868003,60.5750799 31.5180196,61.6613419 33.8472963,62.2555911 C34.3131517,62.3769968 34.6027375,62.85623 34.4831259,63.3290735 C34.3824005,63.7316294 34.0298613,64 33.63955,64 C33.5703013,64 33.4947572,63.9936102 33.4255084,63.9744409 C30.7688738,63.3035144 28.7291828,62.0255591 26.601357,59.7124601 C24.7700025,57.726238 24.1019646,54.952838 23.9365764,54.1173718 L23.9093136,53.9730624 L23.9093136,53.9730624 L23.900655,53.9233227 C23.7873388,53.4952077 23.7306807,53.0479233 23.7306807,52.600639 C23.7306807,49.7571885 26.0095948,47.4440895 28.8110222,47.4440895 C31.5872683,47.4440895 33.8472963,49.7188498 33.8913637,52.5239617 C34.1872448,54.0319489 35.4966761,55.1693291 37.0642164,55.1693291 C38.7765496,55.1693291 40.180411,53.8146965 40.2874318,52.1022364 C40.2796376,50.0216035 39.4569542,47.8408464 38.0419613,45.9969807 Z M28.9621105,43.5399361 C31.2662059,43.5399361 33.4632804,44.4217252 35.1504323,46.0191693 C36.8249934,47.6102236 37.8385436,49.7635783 38.0022225,52.0766773 C38.0399945,52.5623003 37.6748647,52.9904153 37.1964186,53.0223642 C36.7179726,53.0607029 36.2961846,52.6900958 36.2647079,52.2044728 C35.9940082,48.3386581 32.7833834,45.3099042 28.9621105,45.3099042 C24.9267958,45.3099042 21.640627,48.6453674 21.640627,52.7412141 C21.640627,53.3482428 21.7098758,53.9552716 21.8546686,54.543131 L21.8546686,54.543131 L21.860964,54.5814696 C21.8672593,54.5942492 22.100187,55.7444089 22.7486073,57.2587859 C23.3403695,58.6389776 24.4105777,60.6134185 26.1355016,62.2044728 C26.4943362,62.5367412 26.5195175,63.0926518 26.198455,63.456869 C26.0221855,63.6485623 25.7892578,63.7444089 25.5500348,63.7444089 C25.3422885,63.7444089 25.1345421,63.6677316 24.9645679,63.514377 C21.2880878,60.1277955 20.2430609,55.3674121 20.1612215,54.9520767 C19.9849519,54.2364217 19.8968171,53.4888179 19.8968171,52.7412141 C19.8968171,50.2875399 20.8411185,47.9744409 22.5534517,46.2364217 C24.2657849,44.4984026 26.5384036,43.5399361 28.9621105,43.5399361 Z M28.880271,51.4185304 C29.358717,51.4185304 29.7490283,51.8146965 29.7490283,52.3003195 C29.7490283,52.428115 29.7553236,52.5559105 29.761619,52.6837061 C29.981956,56.1853035 33.1925807,58.9265176 37.0705118,58.9265176 C37.5489578,58.9265176 38.0336992,58.8817891 38.4995545,58.798722 C38.9780006,58.715655 39.4249699,59.0351438 39.5131047,59.514377 C39.5949442,59.9936102 39.280177,60.4536741 38.8080263,60.5367412 C38.2351501,60.6389776 37.6559786,60.6900958 37.0705118,60.6900958 C32.2734607,60.6900958 28.3010995,57.2204473 28.0241044,52.7923323 C28.0178091,52.6325879 28.0115137,52.4664537 28.0115137,52.3003195 C28.0115137,51.8146965 28.401825,51.4185304 28.880271,51.4185304 Z M29.0502453,39.6613419 C30.7940552,39.6613419 32.5063884,40.0191693 34.1242914,40.7220447 C34.4219987,40.8513698 34.7142223,40.9911009 35.0006838,41.1410495 L35,42 C35,42.4746566 35.0826751,42.9300035 35.2344107,43.3524258 C33.4839767,42.1700766 31.3701251,41.4313099 29.0439499,41.4313099 C22.4904982,41.4313099 17.7375146,46.2428115 17.7375146,52.8690096 C17.7375146,54.5750799 18.1026444,56.2172524 18.8140182,57.7444089 C19.0217645,58.1853035 18.8329042,58.7092652 18.3985255,58.9201278 C18.278914,58.9776358 18.1530072,59.0031949 18.0271003,59.0031949 C17.6997425,59.0031949 17.3912707,58.8178914 17.2401825,58.4984026 C16.4154926,56.7348243 16,54.8370607 16,52.8690096 C16,49.2715655 17.2653639,45.9552716 19.5631639,43.5399361 C20.7340977,42.313099 22.1253684,41.3546326 23.699204,40.6964856 C25.3422885,40.0127796 27.1427564,39.6613419 29.0502453,39.6613419 Z M28.9809965,35.8210863 C31.0391862,35.8210863 33.0869959,36.1968582 35.0013016,36.9145557 L35.0007539,38.8170193 C33.12405,38.0192658 31.0813411,37.5910543 28.9872918,37.5910543 C27.3945701,37.5910543 25.8396205,37.8402556 24.360215,38.3067093 C24.3035569,38.3194888 24.1902408,38.3578275 24.0139712,38.428115 C23.9636084,38.4472843 23.9132457,38.4600639 23.8628829,38.4792332 C23.4347996,38.6070288 22.9689443,38.3897764 22.79897,37.9616613 C22.6164051,37.5079872 22.8367421,36.9904153 23.2837114,36.8115016 C23.3088928,36.8051118 23.3214835,36.7923323 23.3403695,36.7859425 C25.1408375,36.1533546 27.0546216,35.8210863 28.9809965,35.8210863 Z M28.9621105,32 C30.6870343,32 32.3993675,32.2172524 34.0487473,32.6453674 C34.3681271,32.7279991 34.6855134,32.8187243 35.0005592,32.9173415 L35.0011405,34.7840321 C33.0656576,34.1167282 31.0194391,33.7699681 28.9621105,33.7699681 C25.9340507,33.7699681 22.9311722,34.5239617 20.2745376,35.942492 C19.8464543,36.172524 19.3239409,36.0063898 19.0973086,35.571885 C18.8706762,35.1373802 19.0343551,34.6070288 19.4624384,34.3769968 C20.8977766,33.6102236 22.4212495,33.0159744 23.9887898,32.6198083 C25.6066928,32.2108626 27.281254,32 28.9621105,32 Z" id="fingerprint" fill="#7494A4"></path>
                    <g id="icon-due-date-black-copy" transform="translate(37.000000, 16.000000)">
                        <path d="M5,3 C5,4.1045695 5.8954305,5 7,5 C8.1045695,5 9,4.1045695 9,3 L9,3 L18,3 C18,4.1045695 18.8954305,5 20,5 C21.1045695,5 22,4.1045695 22,3 L22,3 L25,3 C26.1045695,3 27,3.8954305 27,5 L27,26 C27,27.1045695 26.1045695,28 25,28 L2,28 C0.8954305,28 1.3527075e-16,27.1045695 0,26 L0,5 C-1.3527075e-16,3.8954305 0.8954305,3 2,3 Z M20,0 C20.5522847,-1.01453063e-16 21,0.44771525 21,1 L21,3 C21,3.55228475 20.5522847,4 20,4 C19.4477153,4 19,3.55228475 19,3 L19,1 C19,0.44771525 19.4477153,1.01453063e-16 20,0 Z M7,0 C7.55228475,-1.01453063e-16 8,0.44771525 8,1 L8,3 C8,3.55228475 7.55228475,4 7,4 C6.44771525,4 6,3.55228475 6,3 L6,1 C6,0.44771525 6.44771525,1.01453063e-16 7,0 Z" id="icon-calendar" fill="url(#linearGradient-1)"></path>
                        <rect id="Rectangle-Copy" fill="url(#linearGradient-2)" x="2" y="6" width="23" height="20" rx="1"></rect>
                        <path d="M16.5,21 C16.7761424,21 17,21.2238576 17,21.5 L17,22.5 C17,22.7761424 16.7761424,23 16.5,23 L15.5,23 C15.2238576,23 15,22.7761424 15,22.5 L15,21.5 C15,21.2238576 15.2238576,21 15.5,21 L16.5,21 Z M11.5,21 C11.7761424,21 12,21.2238576 12,21.5 L12,22.5 C12,22.7761424 11.7761424,23 11.5,23 L10.5,23 C10.2238576,23 10,22.7761424 10,22.5 L10,21.5 C10,21.2238576 10.2238576,21 10.5,21 L11.5,21 Z M6.5,21 C6.77614237,21 7,21.2238576 7,21.5 L7,22.5 C7,22.7761424 6.77614237,23 6.5,23 L5.5,23 C5.22385763,23 5,22.7761424 5,22.5 L5,21.5 C5,21.2238576 5.22385763,21 5.5,21 L6.5,21 Z M21.5,17 C21.7761424,17 22,17.2238576 22,17.5 L22,18.5 C22,18.7761424 21.7761424,19 21.5,19 L20.5,19 C20.2238576,19 20,18.7761424 20,18.5 L20,17.5 C20,17.2238576 20.2238576,17 20.5,17 L21.5,17 Z M16.5,17 C16.7761424,17 17,17.2238576 17,17.5 L17,18.5 C17,18.7761424 16.7761424,19 16.5,19 L15.5,19 C15.2238576,19 15,18.7761424 15,18.5 L15,17.5 C15,17.2238576 15.2238576,17 15.5,17 L16.5,17 Z M11.5,17 C11.7761424,17 12,17.2238576 12,17.5 L12,18.5 C12,18.7761424 11.7761424,19 11.5,19 L10.5,19 C10.2238576,19 10,18.7761424 10,18.5 L10,17.5 C10,17.2238576 10.2238576,17 10.5,17 L11.5,17 Z M6.5,17 C6.77614237,17 7,17.2238576 7,17.5 L7,18.5 C7,18.7761424 6.77614237,19 6.5,19 L5.5,19 C5.22385763,19 5,18.7761424 5,18.5 L5,17.5 C5,17.2238576 5.22385763,17 5.5,17 L6.5,17 Z M21.5,13 C21.7761424,13 22,13.2238576 22,13.5 L22,14.5 C22,14.7761424 21.7761424,15 21.5,15 L20.5,15 C20.2238576,15 20,14.7761424 20,14.5 L20,13.5 C20,13.2238576 20.2238576,13 20.5,13 L21.5,13 Z M16.5,13 C16.7761424,13 17,13.2238576 17,13.5 L17,14.5 C17,14.7761424 16.7761424,15 16.5,15 L15.5,15 C15.2238576,15 15,14.7761424 15,14.5 L15,13.5 C15,13.2238576 15.2238576,13 15.5,13 L16.5,13 Z M11.5,13 C11.7761424,13 12,13.2238576 12,13.5 L12,14.5 C12,14.7761424 11.7761424,15 11.5,15 L10.5,15 C10.2238576,15 10,14.7761424 10,14.5 L10,13.5 C10,13.2238576 10.2238576,13 10.5,13 L11.5,13 Z M6.5,13 C6.77614237,13 7,13.2238576 7,13.5 L7,14.5 C7,14.7761424 6.77614237,15 6.5,15 L5.5,15 C5.22385763,15 5,14.7761424 5,14.5 L5,13.5 C5,13.2238576 5.22385763,13 5.5,13 L6.5,13 Z M21.5,9 C21.7761424,9 22,9.22385763 22,9.5 L22,10.5 C22,10.7761424 21.7761424,11 21.5,11 L20.5,11 C20.2238576,11 20,10.7761424 20,10.5 L20,9.5 C20,9.22385763 20.2238576,9 20.5,9 L21.5,9 Z M16.5,9 C16.7761424,9 17,9.22385763 17,9.5 L17,10.5 C17,10.7761424 16.7761424,11 16.5,11 L15.5,11 C15.2238576,11 15,10.7761424 15,10.5 L15,9.5 C15,9.22385763 15.2238576,9 15.5,9 L16.5,9 Z M11.5,9 C11.7761424,9 12,9.22385763 12,9.5 L12,10.5 C12,10.7761424 11.7761424,11 11.5,11 L10.5,11 C10.2238576,11 10,10.7761424 10,10.5 L10,9.5 C10,9.22385763 10.2238576,9 10.5,9 L11.5,9 Z" id="Combined-Shape" fill="#47768D"></path>
                        <path d="M14,9 L14,23 L13,23 L13,9 L14,9 Z M9,9 L9,23 L8,23 L8,9 L9,9 Z M19,9 L19,23 L18,23 L18,9 L19,9 Z" id="Combined-Shape" fill="#A0B8C2"></path>
                    </g>
                </g>
            </g>
        </g>
    </g>
</svg>