<?xml version="1.0" encoding="UTF-8"?>
<svg width="80px" height="80px" viewBox="0 0 80 80" version="1.1" xmlns="http://www.w3.org/2000/svg" xmlns:xlink="http://www.w3.org/1999/xlink">
    <title>icon-fingerprints-order-info-overview</title>
    <defs>
        <linearGradient x1="50%" y1="0%" x2="50%" y2="100%" id="linearGradient-1">
            <stop stop-color="#658899" offset="0%"></stop>
            <stop stop-color="#507485" offset="100%"></stop>
        </linearGradient>
        <linearGradient x1="50%" y1="0%" x2="50%" y2="100%" id="linearGradient-2">
            <stop stop-color="#E0EDF3" offset="0%"></stop>
            <stop stop-color="#CAD9E1" offset="100%"></stop>
        </linearGradient>
        <linearGradient x1="50%" y1="0%" x2="50%" y2="100%" id="linearGradient-3">
            <stop stop-color="#9AB4BF" offset="0%"></stop>
            <stop stop-color="#7494A4" offset="100%"></stop>
        </linearGradient>
    </defs>
    <g id="Page-1-Icons" stroke="none" stroke-width="1" fill="none" fill-rule="evenodd">
        <g id="PECOS-2.0-Icons-Overview-v28" transform="translate(-2549.000000, -2481.000000)">
            <g id="FINGERPRINT-OVERVIEW" transform="translate(2533.000000, 2423.000000)">
                <g id="icon-fingerprints-order-info-overview" transform="translate(16.000000, 58.000000)">
                    <circle id="gray-80x80-oval" fill="#D8E3E8" cx="40" cy="40" r="40"></circle>
                    <g id="icon-fingerprints-small" transform="translate(16.000000, 32.000000)" fill="#7494A4">
                        <path d="M12.8110222,15.4440895 C15.5872683,15.4440895 17.8472963,17.7188498 17.8913637,20.5239617 C18.1872448,22.0319489 19.4966761,23.1693291 21.0642164,23.1693291 C22.7765496,23.1693291 24.180411,21.8146965 24.2874318,20.1022364 C24.286065,19.7373518 24.2596359,19.3693878 24.2093451,19.0007015 L25.9798019,19.0004148 C26.011395,19.2951654 26.0307412,19.5902593 26.0375371,19.884984 L26.0375371,19.884984 L26.0501278,19.884984 C26.0501278,19.9808307 26.0501278,20.0766773 26.0375371,20.1661342 L26.0375371,20.1661342 L26.0375371,20.1853035 C25.8801535,22.8306709 23.7145557,24.9329073 21.0705118,24.9329073 C18.3509237,24.9329073 16.1349631,22.7092652 16.0971911,19.9552716 C15.7950146,18.3961661 14.441516,17.2140575 12.8173176,17.2140575 C10.9790775,17.2140575 9.48078599,18.7348243 9.48078599,20.600639 C9.48078599,20.9073482 9.52485339,21.2076677 9.6003975,21.5015974 L9.6003975,21.5015974 L9.61298819,21.5463259 L9.61928353,21.5910543 C9.62557887,21.6230032 10.1166156,24.5878594 11.8793115,26.5047923 C13.7868003,28.5750799 15.5180196,29.6613419 17.8472963,30.2555911 C18.3131517,30.3769968 18.6027375,30.85623 18.4831259,31.3290735 C18.3824005,31.7316294 18.0298613,32 17.63955,32 C17.5703013,32 17.4947572,31.9936102 17.4255084,31.9744409 C14.7688738,31.3035144 12.7291828,30.0255591 10.601357,27.7124601 C8.77000246,25.726238 8.10196456,22.952838 7.93657637,22.1173718 L7.90931359,21.9730624 L7.90931359,21.9730624 L7.90065499,21.9233227 C7.78733882,21.4952077 7.73068074,21.0479233 7.73068074,20.600639 C7.73068074,17.7571885 10.0095948,15.4440895 12.8110222,15.4440895 Z M12.9621105,11.5399361 C15.2662059,11.5399361 17.4632804,12.4217252 19.1504323,14.0191693 C20.8249934,15.6102236 21.8385436,17.7635783 22.0022225,20.0766773 C22.0399945,20.5623003 21.6748647,20.9904153 21.1964186,21.0223642 C20.7179726,21.0607029 20.2961846,20.6900958 20.2647079,20.2044728 C19.9940082,16.3386581 16.7833834,13.3099042 12.9621105,13.3099042 C8.92679584,13.3099042 5.64062699,16.6453674 5.64062699,20.7412141 C5.64062699,21.3482428 5.70987576,21.9552716 5.85466864,22.543131 L5.85466864,22.543131 L5.86096398,22.5814696 C5.86725932,22.5942492 6.100187,23.7444089 6.74860729,25.2587859 C7.3403695,26.6389776 8.41057774,28.6134185 10.1355016,30.2044728 C10.4943362,30.5367412 10.5195175,31.0926518 10.198455,31.456869 C10.0221855,31.6485623 9.78925778,31.7444089 9.55003476,31.7444089 C9.34228845,31.7444089 9.13454215,31.6677316 8.9645679,31.514377 C5.2880878,28.1277955 4.24306093,23.3674121 4.16122147,22.9520767 C3.98495188,22.2364217 3.89681708,21.4888179 3.89681708,20.7412141 C3.89681708,18.2875399 4.84111848,15.9744409 6.55345167,14.2364217 C8.26578486,12.4984026 10.5384036,11.5399361 12.9621105,11.5399361 Z M12.880271,19.4185304 C13.358717,19.4185304 13.7490283,19.8146965 13.7490283,20.3003195 C13.7490283,20.428115 13.7553236,20.5559105 13.761619,20.6837061 C13.981956,24.1853035 17.1925807,26.9265176 21.0705118,26.9265176 C21.5489578,26.9265176 22.0336992,26.8817891 22.4995545,26.798722 C22.9780006,26.715655 23.4249699,27.0351438 23.5131047,27.514377 C23.5949442,27.9936102 23.280177,28.4536741 22.8080263,28.5367412 C22.2351501,28.6389776 21.6559786,28.6900958 21.0705118,28.6900958 C16.2734607,28.6900958 12.3010995,25.2204473 12.0241044,20.7923323 C12.0178091,20.6325879 12.0115137,20.4664537 12.0115137,20.3003195 C12.0115137,19.8146965 12.401825,19.4185304 12.880271,19.4185304 Z M13.0502453,7.66134185 C14.7940552,7.66134185 16.5063884,8.01916933 18.1242914,8.72204473 C19.6540597,9.38658147 21.039035,10.3258786 22.2414455,11.514377 L22,11.283 L22.0015651,13.9446397 C20.0403432,11.4179086 16.9630531,9.53607249 13.3484881,9.43554006 L13.0439499,9.4313099 C6.49049824,9.4313099 1.73751456,14.2428115 1.73751456,20.8690096 C1.73751456,22.5750799 2.10264444,24.2172524 2.81401815,25.7444089 C3.02176446,26.1853035 2.83290418,26.7092652 2.39852554,26.9201278 C2.27891403,26.9776358 2.15300718,27.0031949 2.02710032,27.0031949 C1.69974251,27.0031949 1.39127072,26.8178914 1.2401825,26.4984026 C0.415492613,24.7348243 0,22.8370607 0,20.8690096 C0,17.2715655 1.26536387,13.9552716 3.56316392,11.5399361 C4.73409765,10.313099 6.12536837,9.35463259 7.69920403,8.69648562 C9.34228845,8.01277955 11.1427564,7.66134185 13.0502453,7.66134185 Z M12.9809965,3.82108626 C15.7572426,3.82108626 18.5146027,4.50479233 20.9509003,5.78913738 C21.3081378,5.97768746 21.6584559,6.17911356 22.0011128,6.39275142 L22.0008119,8.5115935 C19.4148703,6.63949059 16.263932,5.59105431 12.9872918,5.59105431 C11.3945701,5.59105431 9.83962052,5.84025559 8.360215,6.30670927 C8.30355692,6.31948882 8.19024075,6.35782748 8.01397116,6.42811502 C7.96360842,6.44728435 7.91324568,6.4600639 7.86288294,6.47923323 C7.43479964,6.60702875 6.96894428,6.38977636 6.79897003,5.96166134 C6.6164051,5.50798722 6.83674209,4.99041534 7.28371142,4.8115016 C7.30889279,4.80511182 7.32148347,4.79233227 7.3403695,4.78594249 C9.14083749,4.15335463 11.0546216,3.82108626 12.9809965,3.82108626 Z M12.9621105,0 C14.6870343,0 16.3993675,0.217252396 18.0487473,0.645367412 C19.4114504,0.997933644 20.7378631,1.49783932 22.00103,2.12945042 L22.0004078,4.10700292 C21.9454434,4.08951269 21.8914886,4.06648779 21.8385436,4.03833866 C19.1315462,2.55591054 16.059419,1.76996805 12.9621105,1.76996805 C9.93405066,1.76996805 6.93117223,2.52396166 4.27453764,3.94249201 C3.84645434,4.17252396 3.32394091,4.00638978 3.09730857,3.57188498 C2.87067624,3.13738019 3.03435514,2.60702875 3.46243844,2.37699681 C4.89777656,1.61022364 6.42124948,1.01597444 7.98878979,0.619808307 C9.60669284,0.21086262 11.281254,0 12.9621105,0 Z" id="fingerprint"></path>
                    </g>
                    <g id="icon-checklist" transform="translate(40.000000, 21.000000)">
                        <rect id="Rectangle" fill="url(#linearGradient-1)" x="0" y="0" width="24" height="28" rx="2"></rect>
                        <rect id="Rectangle-Copy-15" fill="url(#linearGradient-2)" x="3" y="2" width="18" height="23" rx="0.5"></rect>
                        <rect id="line" fill="#7494A4" x="9" y="15" width="10" height="1" rx="0.5"></rect>
                        <rect id="line-copy-4" fill="#7494A4" x="9" y="20" width="10" height="1" rx="0.5"></rect>
                        <rect id="line-copy-3" fill="#7494A4" x="9" y="13" width="10" height="1" rx="0.5"></rect>
                        <rect id="line-copy-5" fill="#7494A4" x="9" y="18" width="10" height="1" rx="0.5"></rect>
                        <rect id="Rectangle" fill="#7494A4" x="5" y="8" width="3" height="3" rx="1"></rect>
                        <rect id="Rectangle-Copy-169" fill="#7494A4" x="5" y="13" width="3" height="3" rx="1"></rect>
                        <rect id="Rectangle-Copy-172" fill="#7494A4" x="5" y="18" width="3" height="3" rx="1"></rect>
                        <rect id="line" fill="#7494A4" x="9" y="8" width="10" height="1" rx="0.5"></rect>
                        <rect id="line-copy-2" fill="#7494A4" x="9" y="10" width="10" height="1" rx="0.5"></rect>
                    </g>
                    <path d="M49.0050927,18.8237272 C49.0963391,17.24892 50.4023191,16 52,16 C53.6568542,16 55,17.3431458 55,19 L55,19 C56.6568542,19 58,20.3431458 58,22 L58,24 C58,24.5522847 57.5522847,25 57,25 L47,25 C46.4477153,25 46,24.5522847 46,24 L46,22 C46,20.3431458 47.3431458,19 49,19 Z M52,20 C52.5522847,20 53,19.5522847 53,19 C53,18.4477153 52.5522847,18 52,18 C51.4477153,18 51,18.4477153 51,19 C51,19.5522847 51.4477153,20 52,20 Z" id="Combined-Shape" fill="url(#linearGradient-3)"></path>
                </g>
            </g>
        </g>
    </g>
</svg>