<?xml version="1.0" encoding="UTF-8"?>
<svg width="80px" height="80px" viewBox="0 0 80 80" version="1.1" xmlns="http://www.w3.org/2000/svg" xmlns:xlink="http://www.w3.org/1999/xlink">
    <title>icon-fingerprints-contractor-overview</title>
    <defs>
        <linearGradient x1="50%" y1="0%" x2="50%" y2="100%" id="linearGradient-1">
            <stop stop-color="#8BA7B5" offset="0%"></stop>
            <stop stop-color="#4F6D7C" offset="100%"></stop>
        </linearGradient>
        <linearGradient x1="50%" y1="1.32000086%" x2="100%" y2="98.6799991%" id="linearGradient-2">
            <stop stop-color="#83A0AD" offset="0.0819493007%"></stop>
            <stop stop-color="#506F7E" offset="100%"></stop>
        </linearGradient>
    </defs>
    <g id="Page-1-Icons" stroke="none" stroke-width="1" fill="none" fill-rule="evenodd">
        <g id="PECOS-2.0-Icons-Overview-v28" transform="translate(-2549.000000, -2681.000000)">
            <g id="FINGERPRINT-OVERVIEW" transform="translate(2533.000000, 2423.000000)">
                <g id="icon-fingerprints-contractor-overview" transform="translate(16.000000, 258.000000)">
                    <circle id="gray-80x80-oval" fill="#D8E3E8" cx="40" cy="40" r="40"></circle>
                    <path d="M29.0502453,39.6613419 C30.4671788,39.6613419 31.8633302,39.8975932 33.2049264,40.3632401 C33.3736201,40.6822088 33.5618683,40.9851724 33.7687799,41.274252 C34.9304576,42.897251 36.6804273,43.9229255 39.0186891,44.3512756 C40.8962511,46.5441053 41.9763067,49.2295317 42.0375371,51.884984 L42.0375371,51.884984 L42.0501278,51.884984 C42.0501278,51.9808307 42.0501278,52.0766773 42.0375371,52.1661342 L42.0375371,52.1661342 L42.0375371,52.1853035 C41.8801535,54.8306709 39.7145557,56.9329073 37.0705118,56.9329073 C34.3509237,56.9329073 32.1349631,54.7092652 32.0971911,51.9552716 C31.7950146,50.3961661 30.441516,49.2140575 28.8173176,49.2140575 C26.9790775,49.2140575 25.480786,50.7348243 25.480786,52.600639 C25.480786,52.9073482 25.5248534,53.2076677 25.6003975,53.5015974 L25.6003975,53.5015974 L25.6129882,53.5463259 L25.6192835,53.5910543 C25.6255789,53.6230032 26.1166156,56.5878594 27.8793115,58.5047923 C29.7868003,60.5750799 31.5180196,61.6613419 33.8472963,62.2555911 C34.3131517,62.3769968 34.6027375,62.85623 34.4831259,63.3290735 C34.3824005,63.7316294 34.0298613,64 33.63955,64 C33.5703013,64 33.4947572,63.9936102 33.4255084,63.9744409 C30.7688738,63.3035144 28.7291828,62.0255591 26.601357,59.7124601 C24.7700025,57.726238 24.1019646,54.952838 23.9365764,54.1173718 L23.9093136,53.9730624 L23.9093136,53.9730624 L23.900655,53.9233227 C23.7873388,53.4952077 23.7306807,53.0479233 23.7306807,52.600639 C23.7306807,49.7571885 26.0095948,47.4440895 28.8110222,47.4440895 C31.5872683,47.4440895 33.8472963,49.7188498 33.8913637,52.5239617 C34.1872448,54.0319489 35.4966761,55.1693291 37.0642164,55.1693291 C38.7765496,55.1693291 40.180411,53.8146965 40.2874318,52.1022364 C40.2685458,47.0607029 35.4651994,41.4313099 29.0439499,41.4313099 C22.4904982,41.4313099 17.7375146,46.2428115 17.7375146,52.8690096 C17.7375146,54.5750799 18.1026444,56.2172524 18.8140182,57.7444089 C19.0217645,58.1853035 18.8329042,58.7092652 18.3985255,58.9201278 C18.278914,58.9776358 18.1530072,59.0031949 18.0271003,59.0031949 C17.6997425,59.0031949 17.3912707,58.8178914 17.2401825,58.4984026 C16.4154926,56.7348243 16,54.8370607 16,52.8690096 C16,49.2715655 17.2653639,45.9552716 19.5631639,43.5399361 C20.7340977,42.313099 22.1253684,41.3546326 23.699204,40.6964856 C25.3422885,40.0127796 27.1427564,39.6613419 29.0502453,39.6613419 Z M28.9621105,43.5399361 C31.2662059,43.5399361 33.4632804,44.4217252 35.1504323,46.0191693 C36.8249934,47.6102236 37.8385436,49.7635783 38.0022225,52.0766773 C38.0399945,52.5623003 37.6748647,52.9904153 37.1964186,53.0223642 C36.7179726,53.0607029 36.2961846,52.6900958 36.2647079,52.2044728 C35.9940082,48.3386581 32.7833834,45.3099042 28.9621105,45.3099042 C24.9267958,45.3099042 21.640627,48.6453674 21.640627,52.7412141 C21.640627,53.3482428 21.7098758,53.9552716 21.8546686,54.543131 L21.8546686,54.543131 L21.860964,54.5814696 C21.8672593,54.5942492 22.100187,55.7444089 22.7486073,57.2587859 C23.3403695,58.6389776 24.4105777,60.6134185 26.1355016,62.2044728 C26.4943362,62.5367412 26.5195175,63.0926518 26.198455,63.456869 C26.0221855,63.6485623 25.7892578,63.7444089 25.5500348,63.7444089 C25.3422885,63.7444089 25.1345421,63.6677316 24.9645679,63.514377 C21.2880878,60.1277955 20.2430609,55.3674121 20.1612215,54.9520767 C19.9849519,54.2364217 19.8968171,53.4888179 19.8968171,52.7412141 C19.8968171,50.2875399 20.8411185,47.9744409 22.5534517,46.2364217 C24.2657849,44.4984026 26.5384036,43.5399361 28.9621105,43.5399361 Z M28.880271,51.4185304 C29.358717,51.4185304 29.7490283,51.8146965 29.7490283,52.3003195 C29.7490283,52.428115 29.7553236,52.5559105 29.761619,52.6837061 C29.981956,56.1853035 33.1925807,58.9265176 37.0705118,58.9265176 C37.5489578,58.9265176 38.0336992,58.8817891 38.4995545,58.798722 C38.9780006,58.715655 39.4249699,59.0351438 39.5131047,59.514377 C39.5949442,59.9936102 39.280177,60.4536741 38.8080263,60.5367412 C38.2351501,60.6389776 37.6559786,60.6900958 37.0705118,60.6900958 C32.2734607,60.6900958 28.3010995,57.2204473 28.0241044,52.7923323 C28.0178091,52.6325879 28.0115137,52.4664537 28.0115137,52.3003195 C28.0115137,51.8146965 28.401825,51.4185304 28.880271,51.4185304 Z M28.9809965,35.8210863 C30.0208529,35.8210863 31.0580597,35.9170043 32.0767386,36.1044754 C32.116831,36.7563079 32.2015444,37.3747084 32.3304155,37.9602595 C31.2444005,37.7170993 30.1234022,37.5910543 28.9872918,37.5910543 C27.3945701,37.5910543 25.8396205,37.8402556 24.360215,38.3067093 C24.3035569,38.3194888 24.1902408,38.3578275 24.0139712,38.428115 C23.9636084,38.4472843 23.9132457,38.4600639 23.8628829,38.4792332 C23.4347996,38.6070288 22.9689443,38.3897764 22.79897,37.9616613 C22.6164051,37.5079872 22.8367421,36.9904153 23.2837114,36.8115016 C23.3088928,36.8051118 23.3214835,36.7923323 23.3403695,36.7859425 C25.1408375,36.1533546 27.0546216,35.8210863 28.9809965,35.8210863 Z M28.9621105,32 C30.0801167,32 31.1928336,32.0912669 32.2865482,32.2720608 C32.1922038,32.8825223 32.1262814,33.4709093 32.0880229,34.0387169 C31.0580538,33.8601912 30.0115275,33.7699681 28.9621105,33.7699681 C25.9340507,33.7699681 22.9311722,34.5239617 20.2745376,35.942492 C19.8464543,36.172524 19.3239409,36.0063898 19.0973086,35.571885 C18.8706762,35.1373802 19.0343551,34.6070288 19.4624384,34.3769968 C20.8977766,33.6102236 22.4212495,33.0159744 23.9887898,32.6198083 C25.6066928,32.2108626 27.281254,32 28.9621105,32 Z" id="fingerprint" fill="#7494A4"></path>
                    <path d="M49.4934315,28.630512 C50.2550664,28.8554462 50.9708117,29.135805 51.6288544,29.4638025 C50.5091185,30.7747319 49.8333333,32.4751136 49.8333333,34.3333333 C49.8333333,34.9379985 49.9048891,35.525951 50.0399946,36.0891848 L50.0399946,36.0891848 L43.6090221,42.4425878 C38.1905812,41.991954 34,38.9435238 34,35.25 C34,32.300928 36.6715493,29.7631115 40.5065685,28.630512 C40.5020614,28.6707441 40.5,28.7102517 40.5,28.75 C40.5,29.9926407 42.5147186,31 45,31 C47.4852814,31 49.5,29.9926407 49.5,28.75 Z M41.1047769,32.3155572 C40.5424789,33.2769705 39.6338397,33.7816187 38.3788592,33.8295016 C38.2670843,33.8339619 38.1786643,33.9258198 38.1786643,34.0376834 L38.1786643,36.3715588 L38.1786643,36.3715588 C38.1786643,37.0854413 39.033855,37.9927227 40.7442364,39.093403 L40.9943816,39.2519789 C41.0619184,39.2941595 41.1475901,39.2941595 41.2151269,39.2519791 C43.092302,38.0795801 44.0308895,37.11944 44.0308895,36.3715588 L44.0308895,34.0377774 L44.0308895,34.0377774 C44.0308872,33.9257325 43.9422669,33.8337549 43.8302994,33.8295904 C42.557394,33.7822462 41.6488865,33.2775684 41.1047769,32.3155572 Z M45,16 C48.3137085,16 51,19.0220779 51,22.75 C51,26.4779221 48.3137085,29.5 45,29.5 C41.6862915,29.5 39,26.4779221 39,22.75 C39,19.0220779 41.6862915,16 45,16 Z" id="person" fill="url(#linearGradient-1)"></path>
                    <path d="M57.75,27.9880028 C61.2017797,27.9880028 64,30.7862231 64,34.2380028 C64,37.6897825 61.2017797,40.4880028 57.75,40.4880028 C56.9472429,40.4880028 56.1798339,40.3366592 55.4747495,40.0609482 L55.4835973,40.0689415 L54.1564895,41.6814452 C54.0773412,41.7776145 53.9593212,41.8333333 53.83477,41.8333333 L52.6322323,41.8333333 C52.4328475,41.8333333 52.2712142,41.9949667 52.2712142,42.1943515 L52.2712142,43.1107928 C52.2712142,43.3409114 52.0846661,43.5274595 51.8545475,43.5274595 L50.25,43.5274595 C50.0198814,43.5274595 49.8333333,43.7140075 49.8333333,43.9441261 L49.8333333,45.5833333 C49.8333333,45.813452 49.6467853,46 49.4166667,46 L46.1620973,46 C45.9319786,46 45.7454306,45.813452 45.7454306,45.5833333 L45.7454306,42.8253056 C45.7454306,42.7134408 45.7904117,42.6062744 45.8702521,42.5279212 L51.9472258,36.5641743 C51.658734,35.8451756 51.5,35.0601263 51.5,34.2380028 C51.5,30.7862231 54.2982203,27.9880028 57.75,27.9880028 Z M59.4166667,30.4880028 C58.2660734,30.4880028 57.3333333,31.4207429 57.3333333,32.5713361 C57.3333333,33.7219293 58.2660734,34.6546695 59.4166667,34.6546695 C60.5672599,34.6546695 61.5,33.7219293 61.5,32.5713361 C61.5,31.4207429 60.5672599,30.4880028 59.4166667,30.4880028 Z" id="icon-mac-routing" fill="url(#linearGradient-2)"></path>
                </g>
            </g>
        </g>
    </g>
</svg>