<?xml version="1.0" encoding="UTF-8"?>
<svg width="36px" height="36px" viewBox="0 0 36 36" version="1.1" xmlns="http://www.w3.org/2000/svg" xmlns:xlink="http://www.w3.org/1999/xlink">
    <title>icon-tl-fingerprints-passed</title>
    <g id="Page-1-Icons" stroke="none" stroke-width="1" fill="none" fill-rule="evenodd">
        <g id="PECOS-2.0-Icons-Overview-v28" transform="translate(-1353.000000, -2127.000000)">
            <g id="FINGERPRINT-TIMELINE-ICONS" transform="translate(1336.000000, 2079.000000)">
                <g id="Fingerprints-timeline-passed" transform="translate(12.000000, 42.000000)">
                    <g id="icon-tl-fingerprints-passed" transform="translate(5.000000, 6.000000)">
                        <path d="M10.6033243,7.22484026 C12.0201698,7.22484026 13.4114405,7.51557508 14.7259868,8.08666134 C15.9689235,8.62659744 17.094216,9.38977636 18.0711745,10.3554313 C19.9841717,12.2452077 21.0992343,14.7164537 21.1554989,17.1565495 L21.1554989,17.1565495 L21.1657288,17.1565495 C21.1657288,17.2344249 21.1657288,17.3123003 21.1554989,17.384984 L21.1554989,17.384984 L21.1554989,17.4005591 C21.0276247,19.5499201 19.2680765,21.2579872 17.1197908,21.2579872 C14.9101255,21.2579872 13.1096576,19.451278 13.0789678,17.2136581 C12.8334494,15.946885 11.7337317,14.9864217 10.4140705,14.9864217 C8.9205005,14.9864217 7.70313862,16.2220447 7.70313862,17.7380192 C7.70313862,17.9872204 7.73894338,18.23123 7.80032297,18.4700479 L7.80032297,18.4700479 L7.8105529,18.5063898 L7.81566787,18.5427316 C7.82078283,18.5686901 8.21975017,20.9776358 9.65194062,22.5351438 C11.2017753,24.2172524 12.6083909,25.0998403 14.5009283,25.5826677 C14.8794357,25.6813099 15.1147242,26.0706869 15.0175398,26.4548722 C14.9357004,26.7819489 14.6492623,27 14.3321344,27 C14.2758698,27 14.2144902,26.9948083 14.1582256,26.9792332 C11.99971,26.4341054 10.342461,25.3957668 8.61360254,23.5163738 C6.9716985,21.735623 6.48066177,19.1761182 6.41928218,18.8126997 C6.3272128,18.4648562 6.2811781,18.1014377 6.2811781,17.7380192 C6.2811781,15.4277157 8.13279575,13.5483227 10.4089556,13.5483227 C12.6646555,13.5483227 14.5009283,15.3965655 14.536733,17.6757188 C14.7771364,18.9009585 15.8410493,19.8250799 17.1146758,19.8250799 C18.5059466,19.8250799 19.646584,18.7244409 19.7335384,17.3330671 C19.7181935,13.2368211 15.8154745,8.6629393 10.5982093,8.6629393 C5.27352982,8.6629393 1.41173058,12.5722843 1.41173058,17.9560703 C1.41173058,19.3422524 1.7083986,20.6765176 2.28638975,21.9173323 C2.45518362,22.2755591 2.30173465,22.701278 1.948802,22.8726038 C1.85161765,22.9193291 1.74931833,22.9400958 1.64701901,22.9400958 C1.38104079,22.9400958 1.13040746,22.7895367 1.00764828,22.5299521 C0.337587748,21.0970447 0,19.5551118 0,17.9560703 C0,15.033147 1.02810814,12.3386581 2.89507069,10.3761981 C3.84645434,9.37939297 4.9768618,8.60063898 6.25560327,8.06589457 C7.59060937,7.51038339 9.05348961,7.22484026 10.6033243,7.22484026 Z M10.5317147,10.3761981 C12.4037923,10.3761981 14.1889154,11.0926518 15.5597262,12.3905751 C16.9203071,13.6833067 17.7438166,15.4329073 17.8768058,17.3123003 C17.9074956,17.706869 17.6108275,18.0547125 17.2220901,18.0806709 C16.8333527,18.1118211 16.49065,17.8107029 16.4650752,17.4161342 C16.2451316,14.2751597 13.636499,11.8142971 10.5317147,11.8142971 C7.25302162,11.8142971 4.58300943,14.524361 4.58300943,17.8522364 C4.58300943,18.3454473 4.63927405,18.8386581 4.75691827,19.3162939 L4.75691827,19.3162939 L4.76203324,19.3474441 C4.7671482,19.3578275 4.95640194,20.2923323 5.48324342,21.5227636 C5.96405022,22.6441693 6.83359442,24.2484026 8.23509507,25.5411342 C8.52664812,25.8111022 8.54710799,26.2627796 8.28624473,26.5587061 C8.14302568,26.7144569 7.95377195,26.7923323 7.75940324,26.7923323 C7.59060937,26.7923323 7.42181549,26.7300319 7.28371142,26.6054313 C4.29657134,23.8538339 3.447487,19.9860224 3.38099245,19.6485623 C3.2377734,19.0670927 3.16616388,18.4596645 3.16616388,17.8522364 C3.16616388,15.8586262 3.93340876,13.9792332 5.32467948,12.5670927 C6.7159502,11.1549521 8.56245289,10.3761981 10.5317147,10.3761981 Z M10.4652202,16.7775559 C10.8539576,16.7775559 11.1710855,17.0994409 11.1710855,17.4940096 C11.1710855,17.5978435 11.1762005,17.7016773 11.1813154,17.8055112 C11.3603392,20.6505591 13.9689718,22.8777955 17.1197908,22.8777955 C17.5085282,22.8777955 17.9023806,22.8414537 18.2808881,22.7739617 C18.6696255,22.7064696 19.032788,22.9660543 19.1043976,23.3554313 C19.1708921,23.7448083 18.9151438,24.1186102 18.5315214,24.1861022 C18.0660595,24.2691693 17.5954826,24.3107029 17.1197908,24.3107029 C13.2221868,24.3107029 9.99464333,21.4916134 9.76958483,17.89377 C9.76446987,17.7639776 9.7593549,17.6289936 9.7593549,17.4940096 C9.7593549,17.0994409 10.0764828,16.7775559 10.4652202,16.7775559 Z M10.5470596,4.10463259 C12.8027596,4.10463259 15.0431147,4.66014377 17.0226065,5.70367412 C18.9407187,6.71605431 20.6133125,8.18530351 21.8664791,9.95567093 C22.0966526,10.2775559 22.0199281,10.7292332 21.7079152,10.9576677 C21.3907873,11.1861022 20.9509003,11.1134185 20.7207268,10.7915335 C18.3985323,7.50519169 14.5929977,5.54273163 10.5521746,5.54273163 C9.25808825,5.54273163 7.99469167,5.74520767 6.79267469,6.12420128 C6.74664,6.13458466 6.65457061,6.16573482 6.51135157,6.22284345 C6.47043184,6.23841853 6.42951211,6.24880192 6.38859239,6.264377 C6.04077471,6.36821086 5.66226723,6.19169329 5.52416315,5.84384984 C5.37582914,5.47523962 5.55485295,5.05471246 5.91801552,4.90934505 C5.93847539,4.90415335 5.94870532,4.89376997 5.96405022,4.88857827 C7.42693046,4.37460064 8.98188009,4.10463259 10.5470596,4.10463259 Z M10.5317147,1 C11.9332154,1 13.3244861,1.17651757 14.6646072,1.52436102 C15.9689235,1.86182109 17.2323201,2.36541534 18.4189921,3.014377 C18.7616949,3.20646965 18.889569,3.64257188 18.7054302,3.99041534 C18.5775561,4.23442492 18.3320377,4.36940895 18.0814044,4.36940895 C17.9637602,4.36940895 17.8512309,4.33825879 17.7438166,4.28115016 C15.5443813,3.07667732 13.048278,2.43809904 10.5317147,2.43809904 C8.07141616,2.43809904 5.63157744,3.05071885 3.47306183,4.20327476 C3.12524415,4.39017572 2.70070199,4.25519169 2.51656321,3.90215655 C2.33242444,3.54912141 2.46541355,3.11821086 2.81323123,2.9313099 C3.97944346,2.30830671 5.2172652,1.82547923 6.4908917,1.50359425 C7.80543794,1.17132588 9.16601886,1 10.5317147,1 Z" id="fingerprint" fill="#7494A4"></path>
                        <g id="icon-completed-passed" transform="translate(11.000000, 11.000000)">
                            <circle id="Oval" stroke="#D8E3E8" fill="#37A04C" cx="12" cy="12" r="12.5"></circle>
                            <path d="M9.00115967,14.9887085 L13.0138094,14.9887085 L13.0138094,14.9887085 L13.0138094,5.03957356 C13.0138094,4.47510736 13.4713997,4.01751709 14.0358659,4.01751709 C14.6003321,4.01751709 15.0579224,4.47510736 15.0579224,5.03957356 L15.0579224,16.0482788 C15.0579224,16.6005636 14.6102071,17.0482788 14.0579224,17.0482788 L9.00115967,17.0482788 C8.43242503,17.0482788 7.97137451,16.5872283 7.97137451,16.0184937 C7.97137451,15.449759 8.43242503,14.9887085 9.00115967,14.9887085 Z" id="Rectangle" fill="#FFFFFF" transform="translate(11.514648, 10.532898) rotate(45.000000) translate(-11.514648, -10.532898) "></path>
                        </g>
                    </g>
                </g>
            </g>
        </g>
    </g>
</svg>