<?xml version="1.0" encoding="UTF-8"?>
<svg width="18px" height="18px" viewBox="0 0 18 18" version="1.1" xmlns="http://www.w3.org/2000/svg" xmlns:xlink="http://www.w3.org/1999/xlink">
    <title>icon-site-visit-in-progress-pending-18</title>
    <g id="Page-1" stroke="none" stroke-width="1" fill="none" fill-rule="evenodd">
        <g id="PECOS-2.0-Icons-&amp;-Illus-Overview-v17" transform="translate(-1522.000000, -1370.000000)">
            <g id="18x18-Status-Icons" transform="translate(1506.000000, 1189.000000)">
                <g id="icon-site-visit-in-progress-pending-18" transform="translate(16.000000, 181.000000)">
                    <circle id="Oval" fill="#A88427" cx="9" cy="9" r="9"></circle>
                    <path d="M9.49681191,12.7670085 C10.0067651,12.7670085 10.4201639,13.1781125 10.4201639,13.685235 C10.4201639,14.1923576 10.0067651,14.6034616 9.49681191,14.6034616 C8.9868587,14.6034616 8.57345995,14.1923576 8.57345995,13.685235 C8.57345995,13.1781125 8.9868587,12.7670085 9.49681191,12.7670085 Z M6.39346113,12.2666467 C6.90341434,12.2666467 7.31681309,12.6777508 7.31681309,13.1848733 C7.31681309,13.6919958 6.90341434,14.1030999 6.39346113,14.1030999 C5.88350793,14.1030999 5.47010917,13.6919958 5.47010917,13.1848733 C5.47010917,12.6777508 5.88350793,12.2666467 6.39346113,12.2666467 Z M4.43979176,10.1925666 C4.94974497,10.1925666 5.36314372,10.6036707 5.36314372,11.1107932 C5.36314372,11.6179157 4.94974497,12.0290198 4.43979176,12.0290198 C3.92983855,12.0290198 3.5164398,11.6179157 3.5164398,11.1107932 C3.5164398,10.6036707 3.92983855,10.1925666 4.43979176,10.1925666 Z M8.61520926,3.60346161 C10.3548817,3.60346161 11.7863664,4.27475553 12.9096633,5.61734336 L14.2430347,4.54420106 C14.4451431,4.38144535 14.740924,4.41334704 14.9036797,4.61545548 C14.9703182,4.69820659 15.0069431,4.80110025 15.0075774,4.90734545 L15.0333626,9.22599016 C15.034912,9.48547974 14.8258101,9.69709358 14.5663205,9.69864291 C14.5318006,9.69884902 14.4973632,9.69525026 14.4636318,9.68791178 L10.2211416,8.76493329 C9.96757868,8.7097692 9.80674464,8.45949648 9.86190874,8.20593354 C9.88472237,8.10107021 9.94274593,8.00717643 10.0263298,7.93986728 L11.4423482,6.79846161 L11.4231594,6.77394337 C10.6871088,5.86960699 9.75112541,5.4174388 8.61520926,5.4174388 C7.65478985,5.4174388 6.81154734,5.74068193 6.08548173,6.3871682 C5.72936746,6.704246 5.20534851,6.74446835 4.80501691,6.48545037 L4.77179044,6.46395256 C4.40221086,6.22483139 4.29645342,5.73138195 4.53557458,5.36180237 C4.56608661,5.31464376 4.60149816,5.27084259 4.6412362,5.23114614 C5.72655561,4.14602312 7.05121329,3.60346161 8.61520926,3.60346161 Z M3.95670015,7.25764912 C4.46665335,7.25764912 4.88005211,7.66875316 4.88005211,8.17587569 C4.88005211,8.68299821 4.46665335,9.09410225 3.95670015,9.09410225 C3.44674694,9.09410225 3.03334819,8.68299821 3.03334819,8.17587569 C3.03334819,7.66875316 3.44674694,7.25764912 3.95670015,7.25764912 Z" id="arrow-circle" fill="#FFFFFF"></path>
                </g>
            </g>
        </g>
    </g>
</svg>