<?xml version="1.0" encoding="UTF-8"?>
<svg width="24px" height="24px" viewBox="0 0 24 24" version="1.1" xmlns="http://www.w3.org/2000/svg" xmlns:xlink="http://www.w3.org/1999/xlink">
    <title>icon-step-skipped</title>
    <g id="Page-1-Icons" stroke="none" stroke-width="1" fill="none" fill-rule="evenodd">
        <g id="PECOS-2.0-Icons-Overview-v30" transform="translate(-356.000000, -2656.000000)">
            <g id="STEP-STATUS-ICONS" transform="translate(339.000000, 2578.000000)">
                <g id="icon-step-skipped" transform="translate(17.000000, 78.000000)">
                    <circle id="Oval" fill="#848D94" cx="12" cy="12" r="12"></circle>
                    <path d="M11.5,7 C14.5736398,7 17.1490018,9.1333807 17.8261066,12.0001627 L20.2478956,12 C20.5585558,12 20.8103956,12.2518398 20.8103956,12.5625 C20.8103956,12.701461 20.7589586,12.8355038 20.6659985,12.9387927 L17.4290149,16.5354412 C17.2211942,16.766353 16.8655312,16.7850722 16.6346193,16.5772515 L16.592809,16.5354412 L16.592809,16.5354412 L13.3558253,12.9387927 C13.1480046,12.7078808 13.1667237,12.3522177 13.3976356,12.144397 C13.5009245,12.051437 13.6349673,12 13.7739283,12 L15.7439108,11.9999135 C15.1261318,10.2521701 13.4592959,9 11.5,9 C9.18362124,9 7.27601865,10.7501788 7.02743156,13.000297 L7,13 L7,14 C7,14.5522847 6.55228475,15 6,15 C5.44771525,15 5,14.5522847 5,14 L5,13 L5.01889382,13.0006709 C5.27388358,9.64412846 8.07815715,7 11.5,7 Z" id="arrow-right" fill="#FFFFFF"></path>
                </g>
            </g>
        </g>
    </g>
</svg>