<?xml version="1.0" encoding="UTF-8"?>
<svg width="20px" height="20px" viewBox="0 0 20 20" version="1.1" xmlns="http://www.w3.org/2000/svg" xmlns:xlink="http://www.w3.org/1999/xlink">
    <title>icon-chevron-white</title>
    <g id="Page-1-Icons" stroke="none" stroke-width="1" fill="none" fill-rule="evenodd">
        <g id="PECOS-2.0-Icons-Overview-v28" transform="translate(-1361.000000, -78.000000)" fill="#FFFFFF">
            <g id="TABLE" transform="translate(918.000000, 32.000000)">
                <g id="Column-3" transform="translate(439.000000, 44.000000)">
                    <g id="icon-chevron-white" transform="translate(4.000000, 2.000000)">
                        <path d="M6.07564303,6.74753778 L10,10.9052187 L10,10.9052187 L13.9193399,6.74893048 C14.2780048,6.36858216 14.8770933,6.35100421 15.2574416,6.70966902 C15.2766745,6.72780544 15.2951392,6.74673957 15.3127871,6.76642163 L15.3784646,6.83966921 C15.7286785,7.23024906 15.717537,7.82506446 15.3529419,8.20225515 L10.7252027,12.9898681 C10.3413648,13.3869663 9.70829113,13.3977159 9.31119293,13.0138781 C9.30333517,13.0062828 9.29560245,12.9985591 9.28799788,12.9907102 L4.64757557,8.20122124 C4.28264865,7.82457157 4.27069228,7.22998791 4.62018236,6.83897217 L4.68502808,6.76642163 C5.0325355,6.37762413 5.62942857,6.3441519 6.01822608,6.69165933 C6.03814705,6.70946471 6.05730328,6.72810764 6.07564303,6.74753778 Z" id="chevron"></path>
                    </g>
                </g>
            </g>
        </g>
    </g>
</svg>