<?xml version="1.0" encoding="UTF-8"?>
<svg width="14px" height="14px" viewBox="0 0 14 14" version="1.1" xmlns="http://www.w3.org/2000/svg" xmlns:xlink="http://www.w3.org/1999/xlink">
    <title>icon-column-sort-option</title>
    <g id="Page-1" stroke="none" stroke-width="1" fill="none" fill-rule="evenodd">
        <g id="PECOS-2.0-Icons-&amp;-Illus-v14" transform="translate(-1494.000000, -242.000000)" fill="#8A8A8A">
            <g id="Table-Icons" transform="translate(1011.000000, 57.000000)">
                <g id="Column-3" transform="translate(479.000000, 51.000000)">
                    <g id="icon-column-sort-option" transform="translate(4.000000, 134.000000)">
                        <path d="M7.01031494,7.77573088 C7.28645732,7.77573088 7.51031494,7.99958851 7.51031494,8.27573088 L7.50963857,12.0368628 L9.482552,9.84338388 C9.65516173,9.65145636 9.95067755,9.63579619 10.1426051,9.80840592 L10.1637679,9.82867411 L10.1637679,9.82867411 C10.3591947,10.0279545 10.3647227,10.3452492 10.1763564,10.5512163 L7.39141162,13.5963825 C7.20505035,13.8001571 6.88878274,13.8142734 6.68500813,13.6279121 L6.65333256,13.5962228 L6.65333256,13.5962228 L3.89173342,10.5739596 C3.70127088,10.3655195 3.70280036,10.0457569 3.89524814,9.83914836 C4.06742644,9.65430076 4.35685311,9.64403027 4.5417007,9.81620857 C4.55159863,9.82542811 4.56108272,9.83508217 4.570125,9.8451423 L6.50963857,12.0028628 L6.51031494,8.27573088 C6.51031494,7.99958851 6.73417257,7.77573088 7.01031494,7.77573088 Z M6.65075353,0.417899357 C6.85452813,0.231538092 7.17079574,0.245654394 7.35715701,0.449429 L7.35715701,0.449429 L10.1421018,3.49459518 C10.3304681,3.70056221 10.32494,4.01785693 10.1295133,4.21713734 C10.1226726,4.22411293 10.1156149,4.23087232 10.1083505,4.23740553 C9.91642295,4.41001526 9.62090712,4.39435509 9.44829739,4.20242757 L9.44829739,4.20242757 L7.47563857,2.00886282 L7.47606033,5.79730762 C7.47606033,6.07345 7.25220271,6.29730762 6.97606033,6.29730762 C6.69991796,6.29730762 6.47606033,6.07345 6.47606033,5.79730762 L6.47563857,2.04086282 L4.53587039,4.20066915 C4.53134926,4.20569922 4.52671766,4.21062776 4.52197911,4.21545124 L4.50744609,4.22960288 C4.3225985,4.40178118 4.03317183,4.39151069 3.86099353,4.20666309 C3.66854575,4.00005454 3.66701627,3.68029197 3.85747881,3.4718519 L3.85747881,3.4718519 L6.61907795,0.449588636 C6.62915765,0.438557529 6.63972678,0.427983823 6.65075353,0.417899357 Z" transform="translate(7.014852, 7.022906) scale(1, -1) translate(-7.014852, -7.022906) "></path>
                    </g>
                </g>
            </g>
        </g>
    </g>
</svg>