<?xml version="1.0" encoding="UTF-8"?>
<svg width="16px" height="16px" viewBox="0 0 16 16" version="1.1" xmlns="http://www.w3.org/2000/svg" xmlns:xlink="http://www.w3.org/1999/xlink">
    <title>icon-info-message-outline</title>
    <g id="Page-1-Icons" stroke="none" stroke-width="1" fill="none" fill-rule="evenodd">
        <g id="PECOS-2.0-Icons-Overview-v30" transform="translate(-1334.000000, -429.000000)">
            <g id="TABLE" transform="translate(890.000000, 41.000000)">
                <g id="Column-3" transform="translate(439.000000, 44.000000)">
                    <g id="icon-info-message-outline" transform="translate(5.000000, 344.000000)">
                        <path d="M8,0 C12.418278,0 16,3.581722 16,8 C16,12.418278 12.418278,16 8,16 C3.581722,16 0,12.418278 0,8 C0,3.581722 3.581722,0 8,0 Z M8,1.49826813 C4.41014913,1.49826813 1.5,4.40841725 1.5,7.99826813 C1.5,11.588119 4.41014913,14.4982681 8,14.4982681 C11.5898509,14.4982681 14.5,11.588119 14.5,7.99826813 C14.5,4.40841725 11.5898509,1.49826813 8,1.49826813 Z" id="Combined-Shape" fill="#0673BB"></path>
                        <path d="M6.29431915,6.00887299 L8.74405289,6.00887299 C8.88212407,6.00887299 8.99405289,6.1208018 8.99405289,6.25887299 L8.99405289,10.485837 C8.99405289,10.7685563 9.22324214,10.9977455 9.50596142,10.9977455 L9.76786995,10.9977455 C9.90594114,10.9977455 10.0178699,11.1096743 10.0178699,11.2477455 L10.0178699,11.7416821 C10.0178699,11.8797532 9.90594114,11.9916821 9.76786995,11.9916821 L6.29431915,11.9916821 C6.15624797,11.9916821 6.04431915,11.8797532 6.04431915,11.7416821 L6.04431915,11.2477455 C6.04431915,11.1096743 6.15624797,10.9977455 6.29431915,10.9977455 L6.51918602,10.9977455 C6.78144775,10.9977455 6.99405289,10.7851404 6.99405289,10.5228786 L6.99405289,7.48662663 C6.99405289,7.2243649 6.78144775,7.01175976 6.51918602,7.01175976 L6.29431915,7.01175976 C6.15624797,7.01175976 6.04431915,6.89983095 6.04431915,6.76175976 L6.04431915,6.25887299 C6.04431915,6.1208018 6.15624797,6.00887299 6.29431915,6.00887299 Z" id="Rectangle" fill="#0573BB"></path>
                        <path d="M8,5 C8.55228475,5 9,4.55228475 9,4 C9,3.44771525 8.55228475,3 8,3 C7.44771525,3 7,3.44771525 7,4 C7,4.55228475 7.44771525,5 8,5 Z" id="Oval" fill="#0573BB"></path>
                    </g>
                </g>
            </g>
        </g>
    </g>
</svg>