<?xml version="1.0" encoding="UTF-8"?>
<svg width="18px" height="18px" viewBox="0 0 18 18" version="1.1" xmlns="http://www.w3.org/2000/svg" xmlns:xlink="http://www.w3.org/1999/xlink">
    <title>icon-lock-gray</title>
    <g id="Page-1-Icons" stroke="none" stroke-width="1" fill="none" fill-rule="evenodd">
        <g id="PECOS-2.0-Icons-Overview-v30" transform="translate(-1333.000000, -393.000000)" fill="#949494">
            <g id="TABLE" transform="translate(890.000000, 41.000000)">
                <g id="Column-3" transform="translate(439.000000, 44.000000)">
                    <g id="icon-lock-gray" transform="translate(4.000000, 308.000000)">
                        <path d="M9,0 C11.7614237,-5.07265313e-16 14,2.23857625 14,5 L14,6 C15.1045695,6 16,6.8954305 16,8 L16,16 C16,17.1045695 15.1045695,18 14,18 L4,18 C2.8954305,18 2,17.1045695 2,16 L2,8 C2,6.8954305 2.8954305,6 4,6 L4,5 C4,2.23857625 6.23857625,5.07265313e-16 9,0 Z M13,8 L5,8 C4.44771525,8 4,8.44771525 4,9 L4,9 L4,15 C4,15.5522847 4.44771525,16 5,16 L5,16 L13,16 C13.5522847,16 14,15.5522847 14,15 L14,15 L14,9 C14,8.44771525 13.5522847,8 13,8 L13,8 Z M9,9 C10.1045695,9 11,9.8954305 11,11 C11,11.7398375 10.5982846,12.3858493 10.0010775,12.7318119 L10,14 C10,14.5522847 9.55228475,15 9,15 C8.44771525,15 8,14.5522847 8,14 L7.99992752,12.7323937 C7.40216612,12.3865739 7,11.7402524 7,11 C7,9.8954305 7.8954305,9 9,9 Z M9,2 C7.34314575,2 6,3.34314575 6,5 L6,5 L6,6 L12,6 L12,5 C12,3.34314575 10.6568542,2 9,2 Z" id="lock"></path>
                    </g>
                </g>
            </g>
        </g>
    </g>
</svg>