<?xml version="1.0" encoding="UTF-8"?>
<svg width="20px" height="20px" viewBox="0 0 20 20" version="1.1" xmlns="http://www.w3.org/2000/svg" xmlns:xlink="http://www.w3.org/1999/xlink">
    <title>icon-filter</title>
    <g id="Page-1" stroke="none" stroke-width="1" fill="none" fill-rule="evenodd">
        <g id="PECOS-2.0-Icons-&amp;-Illus-v14" transform="translate(-1027.000000, -108.000000)" fill="#0573BB">
            <g id="Table-Icons" transform="translate(1011.000000, 57.000000)">
                <g id="Column-1" transform="translate(15.000000, 49.000000)">
                    <g id="icon-filter" transform="translate(1.000000, 2.000000)">
                        <path d="M19.0001895,0 C19.5524743,-1.32269839e-15 20.0001895,0.44771525 20.0001895,1 C20.0001895,1.22851361 19.9219256,1.45013452 19.7784254,1.62797202 L13.0197331,10.0039139 L13.0197331,16.7807724 C13.0197331,16.9636912 12.9198473,17.1320101 12.7592898,17.2196489 L7.77706408,19.9391502 C7.53467926,20.0714536 7.23093438,19.9822151 7.0986309,19.7398303 C7.05852439,19.6663537 7.03750743,19.5839835 7.03750743,19.5002736 L7.03750743,10.0015939 L0.224286499,1.63128119 C-0.124360476,1.20295453 -0.0597673244,0.573092942 0.368559341,0.224445967 C0.546917696,0.0792668173 0.769865123,-6.23888018e-16 0.999840532,0 L19.0001895,0 Z M16.8591249,2.00061184 L3.13471653,2.00061184 L9.03856771,9.04170561 L9.03856771,17.0155187 L11.0439656,16.0227835 L11.0439656,9.04170561 L16.8591249,2.00061184 Z"></path>
                    </g>
                </g>
            </g>
        </g>
    </g>
</svg>