<?xml version="1.0" encoding="UTF-8"?>
<svg width="20px" height="20px" viewBox="0 0 20 20" version="1.1" xmlns="http://www.w3.org/2000/svg" xmlns:xlink="http://www.w3.org/1999/xlink">
    <title>icon-expand-all-selected</title>
    <g id="Page-1" stroke="none" stroke-width="1" fill="none" fill-rule="evenodd">
        <g id="PECOS-2.0-Icons-&amp;-Illus-v14" transform="translate(-1027.000000, -371.000000)" fill="#000000">
            <g id="Table-Icons" transform="translate(1011.000000, 57.000000)">
                <g id="Column-1" transform="translate(15.000000, 49.000000)">
                    <g id="icon-expand-all-selected" transform="translate(1.000000, 265.000000)">
                        <path d="M19,14 L19,20 L1,20 L1,14 L19,14 Z M17,16 L3,16 L3,18 L17,18 L17,16 Z M19,7 L19,13 L1,13 L1,7 L19,7 Z M17,9 L3,9 L3,11 L17,11 L17,9 Z M19,-8.8817842e-16 L19,6 L1,6 L1,-8.8817842e-16 L19,-8.8817842e-16 Z M17,2 L3,2 L3,4 L17,4 L17,2 Z" id="expand-all-selected"></path>
                    </g>
                </g>
            </g>
        </g>
    </g>
</svg>