<?xml version="1.0" encoding="UTF-8"?>
<svg width="20px" height="20px" viewBox="0 0 20 20" version="1.1" xmlns="http://www.w3.org/2000/svg" xmlns:xlink="http://www.w3.org/1999/xlink">
    <title>icon-history-small</title>
    <g id="Page-1-Icons" stroke="none" stroke-width="1" fill="none" fill-rule="evenodd">
        <g id="PECOS-2.0-Icons-Overview-v28" transform="translate(-929.000000, -397.000000)" fill="#000000">
            <g id="TABLE" transform="translate(918.000000, 32.000000)">
                <g id="Column-1" transform="translate(9.000000, 42.000000)">
                    <g id="icon-history-small" transform="translate(2.000000, 323.000000)">
                        <path d="M10,2 C14.418278,2 18,5.581722 18,10 C18,14.418278 14.418278,18 10,18 C6.11828774,18 2.88228267,15.2353989 2.15355539,11.5677673 L3.72050809,11.2423973 C4.29887878,14.182379 6.89046282,16.4 10,16.4 C13.5346224,16.4 16.4,13.5346224 16.4,10 C16.4,6.4653776 13.5346224,3.6 10,3.6 C7.99530927,3.6 6.2058936,4.5217021 5.032409,5.96445028 L6.24354371,6.90789698 C6.41777598,7.04371328 6.44891828,7.2950573 6.31310198,7.46928957 C6.2686253,7.52634659 6.20950725,7.57027333 6.14204268,7.59639249 L2.54441614,8.98922723 C2.33840284,9.06898606 2.10673875,8.96663659 2.02697992,8.76062329 C2.00914757,8.71456316 2,8.66559873 2,8.61620715 L2,4.41897618 C2,4.19806228 2.1790861,4.01897618 2.4,4.01897618 C2.48909838,4.01897618 2.57564628,4.04872369 2.64591716,4.10350075 L3.77029796,4.98051585 C5.23677439,3.16276194 7.4825984,2 10,2 Z M10,5.58163605 C10.4418278,5.58163605 10.8,5.93980825 10.8,6.38163605 L10.8,10 L10.8,10 L13.2527853,11.5172249 C13.6028969,11.7337942 13.7111543,12.1931799 13.494585,12.5432915 C13.4781258,12.5698998 13.4600077,12.5954455 13.4403381,12.6197769 L13.3672997,12.7101262 C13.1074591,13.0315517 12.6455451,13.1021244 12.301582,12.87295 L9.2,10.8064392 L9.2,10.8064392 L9.2,6.38163605 C9.2,5.93980825 9.5581722,5.58163605 10,5.58163605 Z" id="arrow-circle"></path>
                    </g>
                </g>
            </g>
        </g>
    </g>
</svg>