<?xml version="1.0" encoding="UTF-8"?>
<svg width="20px" height="20px" viewBox="0 0 20 20" version="1.1" xmlns="http://www.w3.org/2000/svg" xmlns:xlink="http://www.w3.org/1999/xlink">
    <title>icon-gear</title>
    <g id="Page-1-Icons" stroke="none" stroke-width="1" fill="none" fill-rule="evenodd">
        <g id="PECOS-2.0-Icons-Overview-v28" transform="translate(-929.000000, -361.000000)" fill="#0573BB">
            <g id="TABLE" transform="translate(918.000000, 32.000000)">
                <g id="Column-1" transform="translate(9.000000, 42.000000)">
                    <g id="icon-gear" transform="translate(2.000000, 287.000000)">
                        <path d="M9.0099374,2 L11.0251843,2.002 C11.2833441,2.002 11.4984772,2.199 11.522492,2.456 L11.6697416,4.05318978 C12.1474638,4.18999649 12.6016859,4.38232642 13.0249765,4.62274225 L14.274695,3.5861 C14.4728176,3.4211 14.7649983,3.4341 14.9481116,3.6171 L16.3729933,5.0411 C16.555106,5.2231 16.5691146,5.5151 16.4040125,5.7131 L15.3686882,6.96178647 C15.6116657,7.38767653 15.805832,7.8449806 15.9435825,8.32608826 L17.5467195,8.4763 C17.8038786,8.5003 18,8.7163 18,8.9743 L17.9979988,10.9883 C17.9969981,11.2453 17.8008768,11.4613 17.5437177,11.4853 L15.9798055,11.6294907 C15.8469058,12.1357738 15.6518732,12.6169128 15.4033375,13.0642713 L16.3824992,14.2428 C16.5466007,14.4418 16.5335927,14.7328 16.35148,14.9158 L16.35148,14.9158 L14.9265983,16.3398 C14.743485,16.5218 14.4513042,16.5358 14.2531817,16.3708 L14.2531817,16.3708 L13.1058766,15.4181029 C12.6571141,15.6819672 12.1723757,15.8912961 11.6607719,16.0369716 L11.5206909,17.5498 C11.4956754,17.8078 11.2805423,18.0038 11.021382,18.0038 L9.00713567,18.0038 C8.74897593,18.0038 8.5328422,17.8078 8.50882734,17.5498 L8.37106228,16.0735575 C7.86372791,15.9413157 7.38156668,15.7467967 6.9332371,15.4986618 L5.77953859,16.4558 C5.58041538,16.6208 5.2882346,16.6078 5.10512129,16.4258 L3.68124027,15.0018 C3.49912759,14.8188 3.48511892,14.5268 3.65022107,14.3288 L4.57885735,13.2107436 C4.28641597,12.7164096 4.06035256,12.1782011 3.91292597,11.6083805 L2.45628232,11.4741 C2.19912321,11.4511 2.00200124,11.2351 2.00200124,10.9771 L2.00200124,10.9771 L2,8.9631 C2,8.7051 2.19612135,8.4891 2.45328047,8.4651 L2.45328047,8.4651 L3.95521984,8.32409696 C4.10126596,7.81464452 4.31057214,7.33190216 4.57410117,6.88490996 L3.67123408,5.799 C3.50713254,5.6 3.52014059,5.309 3.70325389,5.126 L3.70325389,5.126 L5.12713491,3.702 C5.31024822,3.52 5.602429,3.506 5.80055159,3.671 L5.80055159,3.671 L6.9181273,4.59732842 C7.36865715,4.34633869 7.85356659,4.14957828 8.36402407,4.01588154 L8.51162907,2.453 C8.53564393,2.196 8.75177766,2 9.0099374,2 Z M10.02574,7.46798433 C8.64444665,7.46798433 7.52419212,8.58666137 7.52419212,9.9671 C7.52419212,11.3475386 8.64444665,12.4671 10.02574,12.4671 C11.4070333,12.4671 12.5272878,11.3475386 12.5272878,9.9671 C12.5272878,8.58666137 11.4070333,7.46798433 10.02574,7.46798433 Z" id="gear"></path>
                    </g>
                </g>
            </g>
        </g>
    </g>
</svg>