<?xml version="1.0" encoding="UTF-8"?>
<svg width="20px" height="20px" viewBox="0 0 20 20" version="1.1" xmlns="http://www.w3.org/2000/svg" xmlns:xlink="http://www.w3.org/1999/xlink">
    <title>icon-search-small</title>
    <g id="Page-1-Icons" stroke="none" stroke-width="1" fill="none" fill-rule="evenodd">
        <g id="PECOS-2.0-Icons-Overview-v28" transform="translate(-929.000000, -110.000000)" fill="#0573BB">
            <g id="TABLE" transform="translate(918.000000, 32.000000)">
                <g id="Column-1" transform="translate(9.000000, 42.000000)">
                    <g id="icon-search-small" transform="translate(2.000000, 36.000000)">
                        <path d="M9,2 C12.8659932,2 16,5.13400675 16,9 C16,10.572797 15.4812918,12.0244433 14.6056132,13.1932009 L18.357435,16.9562339 C18.7457259,17.345547 18.7458113,17.9756384 18.3576258,18.3650566 C17.9708924,18.7530182 17.342878,18.7540137 16.9549165,18.3672803 L16.9528824,18.3652468 L13.1981868,14.6018741 C12.0285729,15.4798151 10.5750343,16 9,16 C5.13400675,16 2,12.8659932 2,9 C2,5.13400675 5.13400675,2 9,2 Z M8.99544659,4.00214534 C6.23402284,4.00214534 3.99544659,6.24072159 3.99544659,9.00214534 C3.99544659,11.7635691 6.23402284,14.0021453 8.99544659,14.0021453 C11.7568703,14.0021453 13.9954466,11.7635691 13.9954466,9.00214534 C13.9954466,6.24072159 11.7568703,4.00214534 8.99544659,4.00214534 Z"></path>
                    </g>
                </g>
            </g>
        </g>
    </g>
</svg>