<?xml version="1.0" encoding="UTF-8"?>
<svg width="20px" height="20px" viewBox="0 0 20 20" version="1.1" xmlns="http://www.w3.org/2000/svg" xmlns:xlink="http://www.w3.org/1999/xlink">
    <title>icon-next-arrow</title>
    <g id="Page-1-Icons" stroke="none" stroke-width="1" fill="none" fill-rule="evenodd">
        <g id="PECOS-2.0-Icons-Overview-v28" transform="translate(-1126.000000, -181.000000)" fill="#0573BB">
            <g id="TABLE" transform="translate(918.000000, 32.000000)">
                <g id="Column-2" transform="translate(205.000000, 41.000000)">
                    <g id="icon-next-arrow" transform="translate(3.000000, 108.000000)">
                        <path d="M9.60609106,4.28199299 L9.60747457,4.28331901 C9.99630397,4.65599093 10.0094022,5.27330972 9.63673027,5.66213911 L9.6265645,5.67258814 L9.6265645,5.67258814 L6.357,8.98193992 L15.0084011,8.98262268 C15.5606859,8.98262268 16.0084011,9.43033793 16.0084011,9.98262268 L16.0084011,10.0061749 C16.0084011,10.5584597 15.5606859,11.0061749 15.0084011,11.0061749 L6.416,11.0059399 L9.64974188,14.2803021 C10.0343775,14.6697881 10.0343775,15.2961412 9.64974188,15.6856272 L9.63453283,15.701028 C9.2477731,16.0926648 8.61675801,16.0966185 8.22512116,15.7098588 C8.22215915,15.7069337 8.21921549,15.70399 8.21629036,15.701028 L3.28847675,10.7110737 C2.90461846,10.3223749 2.90373089,9.69756073 3.28648331,9.30777292 L8.20062666,4.30330239 C8.58426962,3.91260767 9.21077989,3.90310863 9.60609106,4.28199299 Z" id="icon-next" transform="translate(9.504201, 10.000651) scale(-1, 1) translate(-9.504201, -10.000651) "></path>
                    </g>
                </g>
            </g>
        </g>
    </g>
</svg>