<?xml version="1.0" encoding="UTF-8"?>
<svg width="20px" height="20px" viewBox="0 0 20 20" version="1.1" xmlns="http://www.w3.org/2000/svg" xmlns:xlink="http://www.w3.org/1999/xlink">
    <title>icon-previous-arrow-disabled</title>
    <g id="Page-1-Icons" stroke="none" stroke-width="1" fill="none" fill-rule="evenodd">
        <g id="PECOS-2.0-Icons-Overview-v28" transform="translate(-1126.000000, -107.000000)" fill="#949494">
            <g id="TABLE" transform="translate(918.000000, 32.000000)">
                <g id="Column-2" transform="translate(205.000000, 41.000000)">
                    <g id="icon-previous-arrow-disabled" transform="translate(3.000000, 34.000000)">
                        <path d="M10.5871571,4.36033774 L10.5937968,4.36662232 C10.9781024,4.73037148 10.9947667,5.33678967 10.6310175,5.72109527 C10.624986,5.72746769 10.6188671,5.73375696 10.6126628,5.73996129 L7.34128335,9.01060087 L16,9.01123047 C16.5522847,9.01123047 17,9.45894572 17,10.0112305 C17,10.5635152 16.5522847,11.0112305 16,11.0112305 L7.39928335,11.0106009 L10.6234764,14.2346272 C11.0140007,14.6251515 11.0140007,15.2583165 10.6234764,15.6488408 L10.6182783,15.6540388 C10.227754,16.0445631 9.59458906,16.0445631 9.20406477,15.6540388 L4.28217657,10.7321506 C3.89243668,10.3424107 3.89153934,9.71079482 4.28017026,9.31994909 L9.19062787,4.38150679 C9.57327567,3.99667829 10.193021,3.98728398 10.5871571,4.36033774 Z" id="icon-previous"></path>
                    </g>
                </g>
            </g>
        </g>
    </g>
</svg>