<?xml version="1.0" encoding="UTF-8"?>
<svg width="8px" height="8px" viewBox="0 0 8 8" version="1.1" xmlns="http://www.w3.org/2000/svg" xmlns:xlink="http://www.w3.org/1999/xlink">
    <title>icon-column-sorted-down</title>
    <g id="Page-1" stroke="none" stroke-width="1" fill="none" fill-rule="evenodd">
        <g id="PECOS-2.0-Icons-&amp;-Illus-v14" transform="translate(-1497.000000, -203.000000)" fill="#000000">
            <g id="Table-Icons" transform="translate(1011.000000, 57.000000)">
                <g id="Column-3" transform="translate(479.000000, 51.000000)">
                    <g id="icon-column-sorted-down" transform="translate(7.000000, 95.000000)">
                        <path d="M4.02923584,0.241051869 C4.27435139,0.240707774 4.47846144,0.417048627 4.52106499,0.649911278 L4.52923572,0.739999998 L4.52923572,0.739999998 L4.52860841,6.23105137 L6.46026723,4.08513766 C6.63287695,3.89321013 6.92839278,3.87754997 7.1203203,4.05015969 C7.12758469,4.0566929 7.13464243,4.06345229 7.14148313,4.07042789 C7.33690988,4.2697083 7.34243793,4.58700302 7.1540716,4.79297005 L4.36912684,7.83813622 C4.18276558,8.04191083 3.86649797,8.05602713 3.66272336,7.86966587 C3.65169661,7.8595814 3.64112748,7.8490077 3.63104778,7.83797659 L0.869448646,4.81571333 C0.678986108,4.60727325 0.680515583,4.28751068 0.872963365,4.08090213 C1.04514166,3.89605454 1.33456833,3.88578404 1.51941593,4.05796234 L1.54784023,4.08689607 L1.54784023,4.08689607 L3.52860841,6.29105137 L3.52923584,0.741754266 C3.52923584,0.465498152 3.75298,0.24143968 4.02923584,0.241051869 Z" id="icon-column-sorted-up"></path>
                    </g>
                </g>
            </g>
        </g>
    </g>
</svg>