<?xml version="1.0" encoding="UTF-8"?>
<svg width="412px" height="398px" viewBox="0 0 412 398" version="1.1" xmlns="http://www.w3.org/2000/svg" xmlns:xlink="http://www.w3.org/1999/xlink">
    <title>illus-app-setup-step-1-1059204248</title>
    <defs>
        <path d="M65.8571062,10.721115 C65.9737788,12.5915221 63.9238053,13.7673628 62.4043274,12.672646 L62.4043274,12.672646 C56.760292,8.60277876 47.164885,2.90861062 40.3960531,5.37149558 L40.3960531,5.37149558 C35.8266814,7.03407965 33.8086106,9.91078761 32.9718496,12.5742035 L32.9718496,12.5742035 C32.3183009,14.6496991 29.8526814,15.4882832 28.1910088,14.0818319 L28.1910088,14.0818319 C24.2606018,10.7502832 18.0796903,7.18721239 10.9845398,9.18067257 L10.9845398,9.18067257 C4.8820177,10.8943009 2.13109735,13.3708584 0.91059292,16.2749115 L0.91059292,16.2749115 C-1.39095575,21.7521416 2.08825664,28.0396991 7.82161947,29.5938142 L7.82161947,29.5938142 C37.9249646,37.7517788 130.196558,28.6084779 130.196558,28.6084779 L130.196558,28.6084779 C130.196558,28.6084779 130.196558,22.8942566 119.583,16.5593009 L119.583,16.5593009 C113.694681,13.0454513 108.843655,15.0279735 105.691673,17.4890354 L105.691673,17.4890354 C103.879602,18.9055133 101.172434,18.1252655 100.33385,15.9832301 L100.33385,15.9832301 C98.2592655,10.6819204 93.113823,3.34522124 80.3928673,1.29615929 L80.3928673,1.29615929 C78.6892655,1.02179646 77.1779912,0.89600885 75.8362566,0.89600885 L75.8362566,0.89600885 C67.0375044,0.896920354 65.5809204,6.30669912 65.8571062,10.721115" id="path-1"></path>
        <linearGradient x1="99.9997899%" y1="50.0001832%" x2="0.000336717412%" y2="50.0001832%" id="linearGradient-3">
            <stop stop-color="#CFEBEC" offset="0%"></stop>
            <stop stop-color="#D0EBED" offset="100%"></stop>
        </linearGradient>
        <path d="M43.0804336,14.9149469 C42.6301504,16.3423628 40.6403363,16.5374248 39.8929027,15.240354 L39.8929027,15.240354 C37.6214336,11.2953628 33.6964956,7.45610619 27.4909735,9.9700354 L27.4909735,9.9700354 C21.1833628,12.5258938 18.9875487,16.8509823 18.2747522,20.1551858 L18.2747522,20.1551858 C17.8445221,22.152292 15.8902566,23.474885 13.9296106,22.9024602 L13.9296106,22.9024602 C10.9225575,22.0255929 6.78068142,21.7165929 3.27412389,24.7017699 L3.27412389,24.7017699 C-3.08088496,30.1115487 3.27412389,38.1510177 3.27412389,38.1510177 L3.27412389,38.1510177 L120.456221,38.1510177 C120.456221,38.1510177 120.456221,28.7570531 115.288903,24.7017699 L115.288903,24.7017699 C111.610982,21.8141239 103.409265,23.0382743 98.9893805,23.9835044 L98.9893805,23.9835044 C97.8299469,24.2314336 96.8883628,23.0920531 97.333177,21.9927788 L97.333177,21.9927788 C99.8935929,15.663292 103.077478,0.432964602 74.4279823,0.432964602 L74.4279823,0.432964602 C51.902885,0.432964602 45.0483717,8.68754867 43.0804336,14.9149469" id="path-4"></path>
        <linearGradient x1="99.9996878%" y1="49.9990619%" x2="-0.000232901996%" y2="49.9990619%" id="linearGradient-6">
            <stop stop-color="#D8EEEB" offset="0%"></stop>
            <stop stop-color="#C1E5EF" offset="100%"></stop>
        </linearGradient>
        <linearGradient x1="50%" y1="0%" x2="50%" y2="100%" id="linearGradient-7">
            <stop stop-color="#F0FAFB" offset="0%"></stop>
            <stop stop-color="#D5F0F6" offset="100%"></stop>
        </linearGradient>
        <polygon id="path-8" points="0.674513274 42.6018938 15.1747257 42.7076283 15.4791681 0.762929204 0.977132743 0.65719469"></polygon>
        <path d="M33.0256283,3.02528319 C22.2689646,11.3892478 1.40736283,9.17611504 1.40736283,9.17611504 L1.40736283,9.17611504 L0.44299115,14.6460531 C0.44299115,14.6460531 26.9121681,22.4658496 30.2127257,16.2083717 L30.2127257,16.2083717 C32.8351239,11.2415841 39.8455044,0.582451327 37.2431593,0.582451327 L37.2431593,0.582451327 C36.5677345,0.582451327 35.2442301,1.30071681 33.0256283,3.02528319" id="path-10"></path>
        <linearGradient x1="4.53848023%" y1="44.0757378%" x2="95.4876792%" y2="51.8207609%" id="linearGradient-12">
            <stop stop-color="#D7EEF3" offset="0%"></stop>
            <stop stop-color="#C9E6ED" offset="100%"></stop>
        </linearGradient>
        <path d="M11.9689646,0.915150442 C5.67229204,1.14484956 0.756548673,9.83239823 0.756548673,16.1327168 L0.756548673,16.1327168 L0.756548673,38.9130354 L25.0545221,38.9130354 L25.0545221,12.8403628 C25.0545221,7.0459292 20.903531,1.98069912 15.1765487,1.09927434 L15.1765487,1.09927434 C14.3598407,0.973486726 13.483885,0.904212389 12.5450354,0.904212389 L12.5450354,0.904212389 C12.350885,0.904212389 12.157646,0.907858407 11.9689646,0.915150442" id="path-13"></path>
        <linearGradient x1="-5.02682222e-05%" y1="50.0008218%" x2="99.9965352%" y2="50.0008218%" id="linearGradient-15">
            <stop stop-color="#DCF1F6" offset="0%"></stop>
            <stop stop-color="#CBE6EC" offset="100%"></stop>
        </linearGradient>
        <path d="M13.8585133,7.51444248 C13.8585133,7.51444248 18.7104513,13.5285487 17.7488142,19.0805221 L17.7488142,19.0805221 C16.7862655,24.6343186 0.426584071,24.5942124 0.426584071,24.5942124 L0.426584071,24.5942124 L0.426584071,29.6457699 C0.426584071,29.6457699 17.7488142,33.0146903 25.446469,25.0754867 L25.446469,25.0754867 C33.1441239,17.1371947 20.8907699,0.769309735 20.8907699,0.769309735 L20.8907699,0.769309735 L13.8585133,7.51444248 Z" id="path-16"></path>
        <linearGradient x1="0.00389342266%" y1="50.0021873%" x2="100.000435%" y2="50.0021873%" id="linearGradient-18">
            <stop stop-color="#E0F4F8" offset="0%"></stop>
            <stop stop-color="#C1E2E9" offset="100%"></stop>
        </linearGradient>
        <path d="M0.683628319,37.5020265 L20.5124956,37.5020265 C21.1824513,20.9345221 15.2212124,4.36154867 15.2212124,4.36154867 L15.2212124,4.36154867 C15.2212124,4.36154867 15.7863451,3.48923894 10.7566637,0.88780531 L10.7566637,0.88780531 C3.1729469,8.47061062 0.683628319,37.5020265 0.683628319,37.5020265" id="path-19"></path>
        <linearGradient x1="50%" y1="0%" x2="50%" y2="100%" id="linearGradient-21">
            <stop stop-color="#D5EDF2" offset="0%"></stop>
            <stop stop-color="#C2E3EA" offset="100%"></stop>
        </linearGradient>
        <path d="M2.53124779,24.1922389 C9.92810619,31.6109735 30.8079381,35.7173009 30.8079381,35.7173009 L30.8079381,35.7173009 L31.7604602,30.3494513 C31.7604602,30.3494513 17.0469558,25.7819027 12.9169292,21.0265841 L12.9169292,21.0265841 C12.1713186,20.1679469 12.0810796,18.9210088 12.6854071,17.9575487 L12.6854071,17.9575487 C14.8575221,14.4901858 18.5500265,11.1103274 18.5500265,11.1103274 L18.5500265,11.1103274 L14.5621947,0.682716814 C14.5621947,0.682716814 -5.05702655,16.581177 2.53124779,24.1922389" id="path-22"></path>
        <linearGradient x1="50%" y1="0%" x2="50%" y2="100%" id="linearGradient-24">
            <stop stop-color="#D7EEF3" offset="0%"></stop>
            <stop stop-color="#CBE5E8" offset="100%"></stop>
        </linearGradient>
        <path d="M0.660840708,16.6477168 C0.660840708,16.6477168 12.154,30.9164071 17.3860354,27.190177 L17.3860354,27.190177 C22.6180708,23.4648584 16.0388319,3.07723894 16.0388319,3.07723894 L16.0388319,3.07723894 L10.8067965,3.07723894 C10.8067965,3.07723894 12.5505044,14.9723717 11.2826018,14.9723717 L11.2826018,14.9723717 C9.69658407,14.9723717 3.45004425,0.404707965 3.45004425,0.404707965 L3.45004425,0.404707965 L0.660840708,16.6477168 Z" id="path-25"></path>
        <linearGradient x1="99.9980712%" y1="49.9996706%" x2="-0.00391175402%" y2="49.9996706%" id="linearGradient-27">
            <stop stop-color="#D5EDE9" offset="0%"></stop>
            <stop stop-color="#C7EEF4" offset="100%"></stop>
        </linearGradient>
        <path d="M0.301707965,7.07145133 L0.301707965,38.5511681 L19.4186903,38.5511681 L19.4186903,4.88110619 C19.4186903,2.34438938 16.1564159,0.131256637 16.1564159,0.131256637 L16.1564159,0.131256637 C16.1564159,0.131256637 14.3780708,0.0720088496 7.53540708,0.0720088496 L7.53540708,0.0720088496 C0.692743363,0.0720088496 0.301707965,7.07145133 0.301707965,7.07145133" id="path-28"></path>
        <linearGradient x1="99.9995313%" y1="49.9992965%" x2="0.000961235875%" y2="49.9992965%" id="linearGradient-30">
            <stop stop-color="#D7EDE8" offset="0%"></stop>
            <stop stop-color="#C8E8EE" offset="100%"></stop>
        </linearGradient>
        <path d="M0.644433628,19.5581504 C0.644433628,26.7544779 9.41675221,39.4380619 9.41675221,39.4380619 L9.41675221,39.4380619 L13.7509558,38.1692478 C13.7509558,38.1692478 9.83969027,22.4740531 9.83969027,18.2993628 L9.83969027,18.2993628 C9.83969027,14.1237611 17.8718673,8.00300885 17.8718673,8.00300885 L17.8718673,8.00300885 L11.4521416,0.35639823 C11.4521416,0.35639823 0.644433628,12.361823 0.644433628,19.5581504" id="path-31"></path>
        <linearGradient x1="100.002111%" y1="49.9984931%" x2="-6.34920635e-06%" y2="49.9984931%" id="linearGradient-33">
            <stop stop-color="#CEE9EF" offset="0%"></stop>
            <stop stop-color="#DBF0EB" offset="100%"></stop>
        </linearGradient>
    </defs>
    <g id="Page-2-Illustrations" stroke="none" stroke-width="1" fill="none" fill-rule="evenodd">
        <g id="PECOS-2.0-Illustrations-v31" transform="translate(-50.000000, -831.000000)">
            <g id="Application-Setup-Wizard-8551-Non-Physician" transform="translate(25.000000, 766.000000)">
                <g id="Step-1-Illustration" transform="translate(25.000000, 38.000000)">
                    <g id="illus-app-setup-step-1-1059204248" transform="translate(0.000000, 27.153418)">
                        <g id="Leaves" transform="translate(0.000000, 97.377555)">
                            <path d="M104.315665,74.0348504 C104.315665,74.0348504 99.7718159,13.7069301 57.550931,0.215753097 C9.73158584,59.6276115 68.2893646,106.498992 68.2893646,106.498992 L104.315665,74.0348504 Z" id="Fill-2" fill="#FED147"></path>
                            <path d="M57.5507487,0.215844248 C57.3839434,0.422755752 57.2244301,0.628755752 57.0603593,0.834755752 L80.0011027,68.3261894 L38.868554,51.4578885 C38.8968106,51.9528354 38.9314478,52.4450478 38.971554,52.9345257 L80.5680584,69.993331 L87.188315,89.4685345 L88.2611558,88.5014283 L75.0643947,49.6786319 L90.7468283,29.2299416 C90.5125717,28.8106496 90.276492,28.392269 90.0340319,27.976623 L74.5503062,48.1655345 L58.3437575,0.485649558 C58.0785097,0.396322124 57.818731,0.301525664 57.5507487,0.215844248 Z" id="Fill-4" fill="#FEFEFE"></path>
                            <path d="M84.7618903,67.718854 C84.7618903,67.718854 43.6284301,23.5856327 2.54419115,34.2757566 C-10.3608885,83.6692699 42.5400938,106.435916 42.5400938,106.435916 L95.2943239,107.079438 L84.7618903,67.718854 Z" id="Fill-6" fill="#00898B"></path>
                            <path d="M49.0948133,41.3644354 L46.8069372,68.0195593 L3.52050354,34.0414088 C3.19600796,34.1197982 2.87060088,34.1908956 2.5442823,34.2756655 C2.49414956,34.4698159 2.45313186,34.6603204 2.40391062,34.8535593 L25.5871142,53.0517451 L1.15059204,57.5837451 C1.18705221,57.8180018 1.23080442,58.0467894 1.27091062,58.2783115 L1.38484867,58.891754 L26.9789814,54.1446389 L65.614008,84.4713027 L22.9793,93.7941699 C23.4095301,94.1605947 23.8388487,94.5215504 24.2663442,94.8715681 L66.9685035,85.5341168 L94.4029637,107.068409 L95.294415,107.079347 L94.9553354,105.813267 L48.0566097,68.9994265 L50.3727425,42.0134265 C49.9488929,41.7946655 49.5232204,41.5786389 49.0948133,41.3644354" id="Fill-8" fill="#00666A"></path>
                            <path d="M80.7993982,96.3123832 C80.7993982,96.3123832 31.4778938,86.1582239 13.1320442,114.568905 C42.7185664,176.969587 124.18154,143.741604 124.18154,143.741604 L80.7993982,96.3123832 Z" id="Fill-10" fill="#212B53"></path>
                            <path d="M13.1322265,114.57009 C13.2461646,114.810727 13.3637487,115.044984 13.4785982,115.281975 L81.1350142,123.853763 L54.5026779,149.712232 C55.0040053,149.848046 55.5053327,149.978391 56.0075717,150.102356 L82.8222088,124.067055 L109.247634,127.415011 L107.862147,125.899179 L56.4131912,119.381011 L39.0061912,97.1658248 C38.5431469,97.2888779 38.0819257,97.4183115 37.6207044,97.5523027 L54.5391381,119.144931 L13.5496956,113.951179 C13.4111469,114.157179 13.2680407,114.358621 13.1322265,114.568267 L13.1322265,114.57009 Z" id="Fill-12" fill="#00666A"></path>
                            <path d="M283.669292,157.563019 C283.669292,157.563019 304.982088,89.0616389 357.362602,84.7137628 C396.800664,166.098347 316.654814,204.669568 316.654814,204.669568 L283.669292,157.563019 Z" id="Fill-14" fill="#FED147"></path>
                            <path d="M357.362237,84.7133982 C357.498963,84.9968761 357.630219,85.2776195 357.764211,85.5592743 L313.285529,157.440513 L365.30691,148.899717 C365.142839,149.46485 364.971476,150.024513 364.794644,150.579619 L312.186255,159.216124 L299.351361,179.958319 L298.368759,178.555513 L323.9556,137.206027 L323.954688,137.206027 L311.277485,109.400584 C311.659405,108.980381 312.04406,108.560177 312.435096,108.142708 L324.951874,135.59631 L356.374166,84.8145752 C356.704131,84.7817611 357.029538,84.7407434 357.362237,84.7133982 Z" id="Fill-16" fill="#FEFEFE"></path>
                            <path d="M296.049345,164.686791 C296.049345,164.686791 360.561071,113.2588 411.855982,138.717119 C413.61792,199.229163 346.427283,211.452437 346.427283,211.452437 L285.295416,198.149942 L296.049345,164.686791 Z" id="Fill-18" fill="#00666A"></path>
                            <path d="M356.177464,134.513625 L351.724765,165.924067 L410.790251,138.186076 C411.145738,138.362908 411.502136,138.531536 411.8558,138.716572 C411.864004,138.954474 411.859446,139.185085 411.864004,139.422076 L380.230242,154.278687 L407.260906,166.021598 C407.156995,166.282288 407.04488,166.535687 406.937322,166.791819 L406.642906,167.469979 L378.331579,155.170138 L325.611986,179.926598 L372.395862,202.051545 C371.801561,202.361457 371.209083,202.664076 370.621163,202.954846 L323.763455,180.79435 L286.327968,198.375448 L285.295234,198.149395 L286.024437,196.777581 L350.01934,166.724368 L354.527641,134.92289 C355.075455,134.78343 355.626004,134.646704 356.177464,134.513625" id="Fill-20" fill="#00898B"></path>
                            <path d="M296.409845,185.427072 C296.409845,185.427072 364.607695,190.965373 378.243801,228.67978 C327.441102,292.90985 242.153456,232.822567 242.153456,232.822567 L296.409845,185.427072 Z" id="Fill-22" fill="#63C0C4"></path>
                            <path d="M378.243163,228.680782 C378.047189,228.9278 377.849393,229.168437 377.653419,229.41272 L297.190366,221.302154 L321.080897,258.274596 C320.465632,258.298296 319.851278,258.314703 319.238747,258.324729 L295.184145,221.100712 L263.756384,217.932322 L265.762605,216.550481 L326.949163,222.71772 L352.978083,201.680198 C353.480322,201.946358 353.979827,202.218897 354.476596,202.495083 L329.177791,222.94195 L377.925048,227.855871 C378.031694,228.130234 378.142897,228.400039 378.243163,228.678959 L378.243163,228.680782 Z" id="Fill-24" fill="#00898B"></path>
                        </g>
                        <g id="Cloud" transform="translate(274.362832, 110.138617)">
                            <mask id="mask-2" fill="white">
                                <use xlink:href="#path-1"></use>
                            </mask>
                            <g id="Clip-28"></g>
                            <path d="M65.8571062,10.721115 C65.9737788,12.5915221 63.9238053,13.7673628 62.4043274,12.672646 L62.4043274,12.672646 C56.760292,8.60277876 47.164885,2.90861062 40.3960531,5.37149558 L40.3960531,5.37149558 C35.8266814,7.03407965 33.8086106,9.91078761 32.9718496,12.5742035 L32.9718496,12.5742035 C32.3183009,14.6496991 29.8526814,15.4882832 28.1910088,14.0818319 L28.1910088,14.0818319 C24.2606018,10.7502832 18.0796903,7.18721239 10.9845398,9.18067257 L10.9845398,9.18067257 C4.8820177,10.8943009 2.13109735,13.3708584 0.91059292,16.2749115 L0.91059292,16.2749115 C-1.39095575,21.7521416 2.08825664,28.0396991 7.82161947,29.5938142 L7.82161947,29.5938142 C37.9249646,37.7517788 130.196558,28.6084779 130.196558,28.6084779 L130.196558,28.6084779 C130.196558,28.6084779 130.196558,22.8942566 119.583,16.5593009 L119.583,16.5593009 C113.694681,13.0454513 108.843655,15.0279735 105.691673,17.4890354 L105.691673,17.4890354 C103.879602,18.9055133 101.172434,18.1252655 100.33385,15.9832301 L100.33385,15.9832301 C98.2592655,10.6819204 93.113823,3.34522124 80.3928673,1.29615929 L80.3928673,1.29615929 C78.6892655,1.02179646 77.1779912,0.89600885 75.8362566,0.89600885 L75.8362566,0.89600885 C67.0375044,0.896920354 65.5809204,6.30669912 65.8571062,10.721115" id="Fill-27" fill="url(#linearGradient-3)" mask="url(#mask-2)"></path>
                        </g>
                        <g id="Cloud-32" transform="translate(51.044248, 36.306759)">
                            <mask id="mask-5" fill="white">
                                <use xlink:href="#path-4"></use>
                            </mask>
                            <g id="Clip-31"></g>
                            <path d="M43.0804336,14.9149469 C42.6301504,16.3423628 40.6403363,16.5374248 39.8929027,15.240354 L39.8929027,15.240354 C37.6214336,11.2953628 33.6964956,7.45610619 27.4909735,9.9700354 L27.4909735,9.9700354 C21.1833628,12.5258938 18.9875487,16.8509823 18.2747522,20.1551858 L18.2747522,20.1551858 C17.8445221,22.152292 15.8902566,23.474885 13.9296106,22.9024602 L13.9296106,22.9024602 C10.9225575,22.0255929 6.78068142,21.7165929 3.27412389,24.7017699 L3.27412389,24.7017699 C-3.08088496,30.1115487 3.27412389,38.1510177 3.27412389,38.1510177 L3.27412389,38.1510177 L120.456221,38.1510177 C120.456221,38.1510177 120.456221,28.7570531 115.288903,24.7017699 L115.288903,24.7017699 C111.610982,21.8141239 103.409265,23.0382743 98.9893805,23.9835044 L98.9893805,23.9835044 C97.8299469,24.2314336 96.8883628,23.0920531 97.333177,21.9927788 L97.333177,21.9927788 C99.8935929,15.663292 103.077478,0.432964602 74.4279823,0.432964602 L74.4279823,0.432964602 C51.902885,0.432964602 45.0483717,8.68754867 43.0804336,14.9149469" id="Fill-30" fill="url(#linearGradient-6)" mask="url(#mask-5)"></path>
                        </g>
                        <polygon id="Fill-33" fill="#00898B" points="74.4662655 390.356042 339.557274 390.356042 339.557274 64.2334315 74.4662655 64.2334315"></polygon>
                        <g id="Group-37" transform="translate(86.592920, 74.589945)"></g>
                        <path d="M328.45515,75.2963607 L326.458956,380.287564 L87.2081858,380.287564 L87.6967522,75.8058917 L328.45515,75.2963607 Z" id="Fill-36" fill="url(#linearGradient-7)"></path>
                        <g id="Group-100" transform="translate(86.592920, 35.395254)">
                            <polygon id="Fill-38" fill="#F6A506" points="1.10419646 40.4106372 0.614718584 58.9023274 242.026665 58.9023274 241.861683 39.9011062"></polygon>
                            <polygon id="Fill-40" fill="#63C0C4" points="26.3762035 76.408408 25.7299469 82.8399832 150.172177 82.8399832 152.711628 77.1594876"></polygon>
                            <polygon id="Fill-42" fill="#63C0C4" points="26.1087681 91.9640513 26.2053876 96.8688566 215.67252 96.8688566 217.609467 92.5364761"></polygon>
                            <polygon id="Fill-44" fill="#00666A" points="26.3762035 105.904509 25.7299469 112.336084 150.172177 112.336084 152.711628 106.655588"></polygon>
                            <polygon id="Fill-46" fill="#00898B" points="26.1087681 121.460152 26.2053876 126.364958 215.67252 126.364958 217.609467 122.033488"></polygon>
                            <polygon id="Fill-48" fill="#63C0C4" points="26.1919885 145.133927 25.7298558 151.565503 114.731882 151.565503 116.547599 145.885007"></polygon>
                            <polygon id="Fill-50" fill="#63C0C4" points="26.0010283 160.689571 26.0703027 165.594376 161.577285 165.594376 162.962772 161.262907"></polygon>
                            <polygon id="Fill-52" fill="#00666A" points="26.1919885 174.630575 25.7298558 181.06215 114.731882 181.06215 116.547599 175.381655"></polygon>
                            <polygon id="Fill-54" fill="#00898B" points="26.0010283 190.186674 26.0703027 195.09148 161.577285 195.09148 162.962772 190.759099"></polygon>
                            <polygon id="Fill-56" fill="#63C0C4" points="26.1069451 215.958004 25.7295823 222.39049 98.3062991 222.39049 99.7874938 216.709083"></polygon>
                            <polygon id="Fill-58" fill="#63C0C4" points="25.9507133 231.514103 26.0072265 236.418908 136.507996 236.418908 137.63735 232.086527"></polygon>
                            <polygon id="Fill-60" fill="#00898B" points="26.1069451 245.454651 25.7295823 251.887138 98.3062991 251.887138 99.7874938 246.205731"></polygon>
                            <polygon id="Fill-62" fill="#00898B" points="25.9507133 261.01075 26.0072265 265.915556 136.507996 265.915556 137.63735 261.583175"></polygon>
                            <path d="M122.365003,296.933231 L27.6432858,296.933231 C25.6042504,296.933231 24.4475513,295.264266 25.0737549,293.226142 C25.6999584,291.186196 27.880277,289.518142 29.9202239,289.518142 L124.641029,289.518142 C126.680065,289.518142 127.836764,291.186196 127.21056,293.226142 C126.584357,295.264266 124.404038,296.933231 122.365003,296.933231" id="Fill-64" fill="#63C0C4"></path>
                            <path d="M84.3386788,289.518416 L29.9200416,289.518416 C27.8810062,289.518416 25.6997761,291.186469 25.0735726,293.225504 C24.447369,295.26454 25.6040681,296.933504 27.6431035,296.933504 L77.0448204,296.933504 L84.3386788,289.518416 Z" id="Fill-66" fill="#00666A"></path>
                            <path d="M124.145262,311.078504 L29.4235451,311.078504 C27.3845097,311.078504 26.2278106,309.41045 26.8540142,307.371415 C27.4802177,305.331468 29.6605363,303.663415 31.6995717,303.663415 L126.421288,303.663415 C128.460324,303.663415 129.617023,305.331468 128.990819,307.371415 C128.364616,309.41045 126.184297,311.078504 124.145262,311.078504" id="Fill-68" fill="#63C0C4"></path>
                            <path d="M100.095491,303.663597 L31.6998451,303.663597 C29.6608097,303.663597 27.4795796,305.33165 26.8533761,307.370686 C26.2280841,309.410633 27.3838717,311.078686 29.4238186,311.078686 L93.159854,311.078686 L100.095491,303.663597 Z" id="Fill-70" fill="#00898B"></path>
                            <polygon id="Fill-72" fill="#00898B" points="224.203381 249.593793 224.065744 302.641527 166.200709 302.641527 168.317222 249.593793"></polygon>
                            <polygon id="Fill-74" fill="#FEFEFE" points="175.035557 292.20307 177.688035 292.20307 177.71538 290.926964 176.123893 290.928787 176.167645 289.019185 175.109388 289.021919"></polygon>
                            <path d="M204.720886,290.899892 L208.673169,290.895335 L208.662231,292.203343 L204.707213,292.203343 L204.720886,290.899892 Z M196.888328,290.908096 L200.792302,290.903538 L200.777718,292.203343 L196.87101,292.203343 L196.888328,290.908096 Z M189.149656,290.915388 L193.007142,290.911742 L192.988001,292.203343 L189.128691,292.203343 L189.149656,290.915388 Z M181.504868,290.92268 L185.315868,290.919034 L185.292169,292.203343 L181.478435,292.203343 L181.504868,290.92268 Z" id="Fill-76" fill="#FEFEFE"></path>
                            <polygon id="Fill-78" fill="#FEFEFE" points="212.641312 292.20307 215.454215 292.20307 215.472445 288.919831 214.347649 288.922565 214.334888 290.890504 212.650427 290.892327"></polygon>
                            <path d="M214.47772,267.548789 L215.59249,267.528736 L215.562411,272.83825 L214.445818,272.854657 L214.47772,267.548789 Z M214.413004,278.186046 L215.532331,278.173285 L215.502251,283.533842 L214.381101,283.541135 L214.413004,278.186046 Z" id="Fill-80" fill="#FEFEFE"></path>
                            <polygon id="Fill-82" fill="#FEFEFE" points="214.510626 262.268444 215.622661 262.243834 215.63998 259.046276 212.867183 259.116462 212.85898 260.391657 214.522475 260.350639"></polygon>
                            <path d="M205.047569,259.315899 L208.945162,259.216545 L208.935135,260.488094 L205.033896,260.583802 L205.047569,259.315899 Z M197.319835,259.512784 L201.171852,259.41343 L201.156357,260.677687 L197.303427,260.772483 L197.319835,259.512784 Z M189.685073,259.706935 L193.491516,259.609404 L193.472374,260.865457 L189.664109,260.959342 L189.685073,259.706935 Z M182.140551,259.899262 L185.90233,259.802642 L185.878631,261.051404 L182.115941,261.144377 L182.140551,259.899262 Z" id="Fill-84" fill="#FEFEFE"></path>
                            <polygon id="Fill-86" fill="#FEFEFE" points="175.712987 263.161263 176.759394 263.136652 176.802235 261.274449 178.373668 261.236165 178.401925 259.993785 175.784996 260.060325"></polygon>
                            <path d="M175.593671,268.285832 L176.641901,268.26669 L176.524317,273.418513 L175.473352,273.434009 L175.593671,268.285832 Z M175.352122,278.605885 L176.406733,278.595858 L176.287326,283.79508 L175.231804,283.80146 L175.352122,278.605885 Z" id="Fill-88" fill="#FEFEFE"></path>
                            <path d="M218.05337,242.079168 C216.15106,240.340929 214.194972,238.730301 212.261671,237.29377 C209.333007,253.473885 200.074857,272.619124 196.390556,271.765956 C193.177503,271.022168 188.290927,266.207602 183.804503,256.640451 C181.692547,258.307593 179.618874,260.136982 177.735706,261.846965 C177.105857,275.062867 191.884078,287.317133 196.571034,288.402735 C201.465812,289.535735 221.843405,259.320274 218.05337,242.079168" id="Fill-90" fill="#FED147"></path>
                            <path d="M224.258527,49.0636398 C224.258527,52.0314982 226.664899,54.4378699 229.632758,54.4378699 C232.599704,54.4378699 235.006076,52.0314982 235.006076,49.0636398 C235.006076,46.0957814 232.599704,43.6903212 229.632758,43.6903212 C226.664899,43.6903212 224.258527,46.0957814 224.258527,49.0636398" id="Fill-92" fill="#FEFEFE"></path>
                            <path d="M209.041599,49.0636398 C209.041599,52.0314982 211.447971,54.4378699 214.415829,54.4378699 C217.382776,54.4378699 219.789148,52.0314982 219.789148,49.0636398 C219.789148,46.0957814 217.382776,43.6903212 214.415829,43.6903212 C211.447971,43.6903212 209.041599,46.0957814 209.041599,49.0636398" id="Fill-94" fill="#053C5D"></path>
                            <polygon id="Fill-96" fill="#00666A" points="84.9066372 44.9681593 162.962407 44.9681593 162.962407 11.1121504 84.9066372 11.1121504"></polygon>
                            <polygon id="Fill-98" fill="#00666A" points="157.554998 27.641554 152.099644 4.43647434 95.703954 4.43647434 90.2932637 23.4623062 86.7857947 22.4651204 92.9502991 0.790456637 154.98729 0.790456637 161.105308 26.8066159"></polygon>
                            <polygon id="Fill-99" fill="#F6A506" points="129.841344 360.517774 288.582574 361.667181 288.887017 319.722482 130.145787 318.572164"></polygon>
                        </g>
                        <g id="Group-103" transform="translate(369.159292, 354.421803)">
                            <mask id="mask-9" fill="white">
                                <use xlink:href="#path-8"></use>
                            </mask>
                            <g id="Clip-102"></g>
                            <polygon id="Fill-101" mask="url(#mask-9)" points="0.674513274 42.6018938 15.1747257 42.7076283 15.4791681 0.762929204 0.977132743 0.65719469"></polygon>
                        </g>
                        <g id="Group-134" transform="translate(168.628319, 217.696139)">
                            <path d="M212.652888,179.404427 C224.266366,179.413512 233.761508,177.306114 233.899145,158.334061 C234.049543,137.619212 224.572632,137.118796 212.960977,136.956548 L212.652888,179.404427 Z" id="Fill-104" fill="#212B53"></path>
                            <polygon id="Fill-106" fill="#FED147" points="47.805946 178.216889 15.0874947 164.270872 15.1977867 149.00773 48.1103885 136.271279"></polygon>
                            <polygon id="Fill-108" fill="#053C5D" points="15.0878593 164.271054 0.641425664 156.64085 15.1981513 149.007912"></polygon>
                            <polygon id="Fill-110" fill="#F08713" points="201.32143 163.331111 201.253067 172.871827 47.8514301 171.758881 47.9216159 162.219987"></polygon>
                            <polygon id="Fill-112" fill="#F08713" points="201.467362 143.108018 201.398999 152.647823 47.999185 151.535788 48.0684593 141.994159"></polygon>
                            <path d="M179.531643,133.474874 C179.531643,133.474874 177.667617,135.203998 173.418183,136.286865 C172.48298,136.524768 171.473033,136.206653 171.473033,137.74983 L176.630325,137.74983 L180.919865,137.007865 L180.919865,137.74983 L183.236909,137.74983 C183.236909,137.74983 183.882254,133.960706 182.529581,133.474874 L179.531643,133.474874 Z" id="Fill-114" fill="#212B53"></path>
                            <path d="M179.792425,130.753669 L179.531735,133.47451 C180.377611,134.061519 181.486912,134.097979 182.370159,133.570218 L182.529673,133.47451 L183.010035,130.753669 L179.792425,130.753669 Z" id="Fill-116" fill="#F6B58E"></path>
                            <path d="M198.211286,133.474874 C198.211286,133.474874 196.347259,135.203998 192.097826,136.286865 C191.161711,136.524768 190.152675,136.206653 190.152675,137.74983 L195.309967,137.74983 L199.599507,137.007865 L199.599507,137.74983 L201.916551,137.74983 C201.916551,137.74983 202.561896,133.960706 201.209224,133.474874 L198.211286,133.474874 Z" id="Fill-118" fill="#212B53"></path>
                            <path d="M198.472067,130.753669 L198.211377,133.47451 C199.057253,134.061519 200.166554,134.097979 201.049802,133.570218 L201.209315,133.47451 L201.689678,130.753669 L198.472067,130.753669 Z" id="Fill-120" fill="#F6B58E"></path>
                            <path d="M151.894556,30.109908 C151.608343,30.1910319 150.600219,30.3760673 148.672388,29.696085 C146.942352,29.085377 143.754821,26.6954124 143.629945,28.7599699 C144.80214,30.4043239 145.98345,32.493492 145.98345,32.493492 C146.789219,33.411377 148.801821,33.7595717 150.108007,33.725846 L154.133211,33.1160496 C154.133211,33.1160496 155.249804,31.3732531 155.316343,31.3003327 L154.747565,30.6668372 C153.760405,30.641315 152.79968,30.4435186 151.894556,30.109908" id="Fill-122" fill="#F6B58E"></path>
                            <path d="M150.968832,30.6323823 C150.968832,30.6323823 150.874035,30.6925416 150.687177,30.7618159 C150.86492,30.9559664 151.02808,31.1610549 151.184858,31.3697894 C152.044407,31.7909044 152.889372,32.2420991 153.743451,32.6741522 C153.934867,32.113577 154.204673,31.3260372 154.233841,31.2731699 L149.23515,27.2525239 C149.23515,27.2525239 148.485894,27.680931 149.206894,28.8376301 C149.928805,29.9952407 150.968832,30.6323823 150.968832,30.6323823" id="Fill-124" fill="#F6B58E"></path>
                            <polygon id="Fill-126" fill="#F39F85" points="190.710972 15.3531982 190.169538 20.6809416 195.87829 20.9060832 194.734352 12.6478531"></polygon>
                            <path d="M188.957328,16.3269584 C188.293753,16.3078168 187.679399,16.2093743 187.357638,15.9468611 C185.44439,13.1649496 187.623797,5.66691416 187.623797,5.66691416 L190.680983,4.37986991 L194.564904,6.80264867 L194.787311,11.8268611 C194.845647,13.1685956 194.202125,14.4556398 193.051806,15.2933124 C191.822187,15.9842327 190.401151,16.3670646 188.957328,16.3269584" id="Fill-128" fill="#F6B58E"></path>
                            <path d="M193.95374,9.6509177 C193.740448,8.8059531 193.851651,6.85897965 192.991191,6.99935133 C192.364988,7.10143982 190.21566,7.19076726 189.492837,7.19076726 C187.770094,7.19076726 184.699235,6.51625398 184.699235,3.89476726 C184.699235,2.58311239 185.969873,1.45375841 186.775642,1.11741327 C187.565917,0.787448673 188.459191,0.802944248 189.266784,1.08642212 C191.164536,1.74908584 193.680288,3.21296195 194.684766,3.01060796 C196.371961,2.67152832 198.056421,3.66142212 198.033634,5.09613009 C198.0072,6.62836903 197.207811,8.93265221 196.454908,10.3965283 C196.019209,11.2442274 195.435846,12.0035106 194.733988,12.6479442 L193.95374,9.6509177 Z" id="Fill-130" fill="#212B53"></path>
                            <path d="M195.700182,9.84051062 C195.316439,9.50143097 194.597262,9.56523628 194.095023,9.98361681 C193.591873,10.4010858 193.496165,11.0154398 193.879908,11.3545195 C194.264563,11.6935991 194.982828,11.6297938 195.485979,11.2114133 C195.987306,10.7930327 196.084837,10.1786788 195.700182,9.84051062" id="Fill-132" fill="#F6B58E"></path>
                        </g>
                        <g id="Group-137" transform="translate(320.849558, 237.749237)">
                            <mask id="mask-11" fill="white">
                                <use xlink:href="#path-10"></use>
                            </mask>
                            <g id="Clip-136"></g>
                            <path d="M33.0256283,3.02528319 C22.2689646,11.3892478 1.40736283,9.17611504 1.40736283,9.17611504 L1.40736283,9.17611504 L0.44299115,14.6460531 C0.44299115,14.6460531 26.9121681,22.4658496 30.2127257,16.2083717 L30.2127257,16.2083717 C32.8351239,11.2415841 39.8455044,0.582451327 37.2431593,0.582451327 L37.2431593,0.582451327 C36.5677345,0.582451327 35.2442301,1.30071681 33.0256283,3.02528319" id="Fill-135" fill="url(#linearGradient-12)" mask="url(#mask-11)"></path>
                        </g>
                        <g id="Group-140" transform="translate(349.106195, 235.926228)">
                            <mask id="mask-14" fill="white">
                                <use xlink:href="#path-13"></use>
                            </mask>
                            <g id="Clip-139"></g>
                            <path d="M11.9689646,0.915150442 C5.67229204,1.14484956 0.756548673,9.83239823 0.756548673,16.1327168 L0.756548673,16.1327168 L0.756548673,38.9130354 L25.0545221,38.9130354 L25.0545221,12.8403628 C25.0545221,7.0459292 20.903531,1.98069912 15.1765487,1.09927434 L15.1765487,1.09927434 C14.3598407,0.973486726 13.483885,0.904212389 12.5450354,0.904212389 L12.5450354,0.904212389 C12.350885,0.904212389 12.157646,0.907858407 11.9689646,0.915150442" id="Fill-138" fill="url(#linearGradient-15)" mask="url(#mask-14)"></path>
                        </g>
                        <path d="M353.901346,270.429861 L348.525293,271.048772 C346.324921,271.132631 344.563895,268.002524 343.972328,265.608002 C343.883912,265.247958 344.214788,264.925285 344.574833,265.013701 C346.462558,265.475834 351.321788,266.700896 352.608833,267.341684 L353.901346,270.429861 Z" id="Fill-141" fill="#F6B58E"></path>
                        <g id="Group-145" transform="translate(351.840708, 242.306759)">
                            <mask id="mask-17" fill="white">
                                <use xlink:href="#path-16"></use>
                            </mask>
                            <g id="Clip-144"></g>
                            <path d="M13.8585133,7.51444248 C13.8585133,7.51444248 18.7104513,13.5285487 17.7488142,19.0805221 L17.7488142,19.0805221 C16.7862655,24.6343186 0.426584071,24.5942124 0.426584071,24.5942124 L0.426584071,24.5942124 L0.426584071,29.6457699 C0.426584071,29.6457699 17.7488142,33.0146903 25.446469,25.0754867 L25.446469,25.0754867 C33.1441239,17.1371947 20.8907699,0.769309735 20.8907699,0.769309735 L20.8907699,0.769309735 L13.8585133,7.51444248 Z" id="Fill-143" fill="url(#linearGradient-18)" mask="url(#mask-17)"></path>
                        </g>
                        <g id="Group-170" transform="translate(321.537652, 0.000000)">
                            <path d="M52.6224265,269.485451 C44.8673469,273.951823 32.6586566,272.044955 30.9714619,271.751451 L30.9714619,267.141062 C33.0943558,267.123743 47.3566655,266.807451 48.288223,261.429575 C49.2580637,255.832938 44.5501434,249.919097 44.3487009,249.670256 L43.9749841,249.971964 C44.0214708,250.031212 48.7476212,255.963283 47.8151522,261.346628 C46.9027363,266.610566 31.0571434,266.660699 30.7344708,266.660699 L30.7308248,266.660699 L30.4901876,266.659787 L30.4901876,272.151601 L30.6852496,272.189885 C30.7645504,272.204469 34.3695504,272.883539 39.0063735,272.883539 C43.3241699,272.883539 48.5315947,272.287416 52.6224265,270.026885 L52.6224265,269.485451 Z" id="Fill-146" fill="#63C0C4"></path>
                            <path d="M28.3251823,274.839628 C25.5478283,288.315309 25.1203327,302.819168 25.0574389,314.993221 C24.9562619,334.600593 26.5650673,348.930354 26.5650673,348.930354 L30.5747752,348.930354 L38.9460319,292.879212 C38.9460319,292.879212 39.8593593,301.21492 41.0953593,315.349619 C42.0642885,326.440805 42.5218637,335.817451 45.1278549,348.930354 L49.1494124,348.930354 C49.1494124,348.930354 52.6222442,308.457734 52.6222442,274.839628 L28.3251823,274.839628 Z" id="Fill-148" fill="#053C5D"></path>
                            <polygon id="Fill-150" fill="#FEFEFE" points="37.5149699 235.392178 42.5902265 235.392178 43.3978195 237.260762 36.8614212 237.260762"></polygon>
                            <path d="M32.3628735,106.539816 L32.9198027,109.871364 C31.8861566,110.588718 30.526192,110.634293 29.4460593,109.988037 L29.2509973,109.871364 L28.4279088,106.539816 L32.3628735,106.539816 Z" id="Fill-152" fill="#825A46"></path>
                            <path d="M5.66308584,29.47002 C8.6218292,39.2367899 18.5544929,54.2319492 18.5544929,54.2319492 L10.7091743,51.0216306 L5.16540442,38.2113474 C5.16540442,38.2113474 2.70434248,19.7032501 5.66308584,29.47002" id="Fill-154" fill="#AFD8C7"></path>
                            <path d="M26.9810779,68.6905058 L33.1674584,106.837878 L27.6683522,106.837878 C27.6683522,106.837878 15.3156442,72.5160899 14.0185735,62.4239129 C14.0185735,56.7087802 26.5061841,62.4239129 26.5061841,62.4239129 L26.9810779,68.6905058 Z" id="Fill-156" fill="#212B53"></path>
                            <polygon id="Fill-158" fill="#825A46" points="6.49538053 14.0554775 4.44267257 19.3686368 0 16.1528492 2.99884956 9.88899078"></polygon>
                            <path d="M8.1688115,14.93672 C8.85790885,15.0606846 9.51419204,15.0916757 9.90249292,14.8902333 C12.4793159,12.4309943 11.8503779,4.21651645 11.8503779,4.21651645 L8.9718469,2.22670229 L4.43620088,3.88837485 L3.1218115,9.03017131 C2.7708823,10.4019855 3.15736018,11.8704191 4.16274956,12.9842775 C5.2848115,13.9641448 6.66847522,14.6660032 8.1688115,14.93672" id="Fill-160" fill="#9E7059"></path>
                            <path d="M5.23668407,5.61822795 C5.63865752,4.79240494 6.60576372,4.40319255 7.46257788,4.73406866 C8.08878142,4.97561733 8.84350708,5.22901556 9.5900292,5.38579432 C11.3701973,5.75768813 14.6871619,5.72578547 15.2541177,3.01770583 C15.8210735,0.310537685 12.2999319,0.542971314 12.2999319,0.542971314 L7.62209115,0.864732376 C6.23751593,0.96044034 4.86114425,0.680608482 3.58777257,0.126413792 C2.46388761,-0.363064084 1.46487876,0.678785473 1.2251531,1.37608636 C0.697392035,2.90467928 1.2470292,5.51705096 1.70825044,7.19239609 C1.97532124,8.1613253 2.41284336,9.07191822 2.99894071,9.88862618 L5.23668407,5.61822795 Z" id="Fill-162" fill="#212B53"></path>
                            <path d="M2.60808761,6.78030494 C3.07751239,6.51323415 3.80580442,6.73472972 4.2342115,7.27525184 C4.66353009,7.81577397 4.62980442,8.47023415 4.15946814,8.73730494 C3.69004336,9.00437574 2.96175133,8.78288016 2.53334425,8.24235804 C2.10402566,7.70183592 2.13775133,7.04737574 2.60808761,6.78030494" id="Fill-164" fill="#9E7059"></path>
                            <path d="M33.0215265,109.517701 C33.0215265,109.517701 33.0379336,113.058895 40.1504027,115.185435 C41.6106327,115.622046 41.1348274,116.053187 41.4091903,116.66663 L33.2238805,116.66663 L30.0181195,113.063453 L29.0209336,113.920267 L26.7093584,111.648798 C26.7093584,111.648798 27.1113319,108.362824 28.8705354,108.334568 C30.3234735,108.829515 33.0215265,109.517701 33.0215265,109.517701" id="Fill-166" fill="#212B53"></path>
                            <path d="M12.8073664,105.50143 L11.4774814,108.567731 C10.266092,108.913191 8.96537522,108.517598 8.15140177,107.557784 L8.00373805,107.384598 L9.07931327,104.230793 L12.8073664,105.50143 Z" id="Fill-168" fill="#825A46"></path>
                        </g>
                        <g id="body" transform="translate(311.734513, 13.519148)">
                            <mask id="mask-20" fill="white">
                                <use xlink:href="#path-19"></use>
                            </mask>
                            <g id="Clip-172"></g>
                            <path d="M0.683628319,37.5020265 L20.5124956,37.5020265 C21.1824513,20.9345221 15.2212124,4.36154867 15.2212124,4.36154867 L15.2212124,4.36154867 C15.2212124,4.36154867 15.7863451,3.48923894 10.7566637,0.88780531 L10.7566637,0.88780531 C3.1729469,8.47061062 0.683628319,37.5020265 0.683628319,37.5020265" id="Fill-171" fill="url(#linearGradient-21)" mask="url(#mask-20)"></path>
                        </g>
                        <g id="Hand-and-leg" transform="translate(312.047820, 46.898722)">
                            <path d="M34.500967,3.33700979 C34.5893829,2.96238148 34.4216661,2.57316909 34.0880555,2.37993015 L30.8558608,0.506788556 C30.0564714,0.0428328035 29.1139758,-0.109388435 28.2088519,0.0783814761 L24.7041174,0.217841653 L24.2456307,0.772036343 L23.5173386,3.86932838 C24.2219316,3.69978856 24.6339316,3.59223103 24.6339316,3.59223103 L26.8589139,3.65421333 C26.8589139,3.65421333 31.0591263,7.55362926 33.1400909,4.1619213 C33.2257723,7.77056732 34.2831174,7.49438148 34.2831174,7.49438148 L34.500967,3.33700979 Z" id="Fill-174" fill="#9E7059"></path>
                            <path d="M0.37032183,4.12254431 L0.0713483787,6.58178325 C0.0667908566,6.61550891 0.0631448389,6.64832307 0.0594988212,6.68204873 C-0.472819763,11.377208 2.62082625,15.7305532 7.17105634,17.0057478 C7.17105634,17.0057478 16.1967732,19.9945709 27.5887555,20.6189514 C20.1098617,30.2198275 18.0416581,57.1638983 18.0416581,57.1638983 L22.8598705,58.9130753 L41.4673218,14.5929956 C42.6568351,11.7609514 40.9760209,8.54698679 37.9726139,7.90711068 L20.1991891,4.12254431 L0.37032183,4.12254431 Z" id="Fill-176" fill="#053C5D"></path>
                        </g>
                        <g id="arm" transform="translate(306.265487, 16.253662)">
                            <mask id="mask-23" fill="white">
                                <use xlink:href="#path-22"></use>
                            </mask>
                            <g id="Clip-180"></g>
                            <path d="M2.53124779,24.1922389 C9.92810619,31.6109735 30.8079381,35.7173009 30.8079381,35.7173009 L30.8079381,35.7173009 L31.7604602,30.3494513 C31.7604602,30.3494513 17.0469558,25.7819027 12.9169292,21.0265841 L12.9169292,21.0265841 C12.1713186,20.1679469 12.0810796,18.9210088 12.6854071,17.9575487 L12.6854071,17.9575487 C14.8575221,14.4901858 18.5500265,11.1103274 18.5500265,11.1103274 L18.5500265,11.1103274 L14.5621947,0.682716814 C14.5621947,0.682716814 -5.05702655,16.581177 2.53124779,24.1922389" id="Fill-179" fill="url(#linearGradient-24)" mask="url(#mask-23)"></path>
                        </g>
                        <g id="Group-252" transform="translate(35.696245, 27.147051)">
                            <path d="M283.503854,7.22093805 C282.963332,8.08322124 283.045367,9.17611504 283.708942,9.93995575 C285.593022,12.1093363 290.618146,14.427292 295.004305,16.1071947 C294.997925,16.377 295.008863,16.3943186 295.004305,16.7151681 C290.399385,14.9851327 285.319571,12.6936106 283.264128,10.3264336 C282.42919,9.36570796 282.325279,7.9920708 283.00435,6.90829204 C285.17373,3.44730973 288.882642,0.0337256637 288.920013,0 L289.318341,0.434787611 C289.280969,0.46760177 285.629482,3.82831858 283.503854,7.22093805" id="Fill-182" fill="#AFD8C7"></path>
                            <path d="M277.454473,16.2808363 C285.473888,20.6086593 297.224092,23.7077743 301.419747,24.5855531 C301.377818,24.8243673 301.339535,25.0203407 301.294871,25.1534204 C297.257818,24.3285088 285.617906,21.3396858 277.37426,16.9589956 C277.385198,16.732031 277.418924,16.4932168 277.454473,16.2808363" id="Fill-184" fill="#AFD8C7"></path>
                            <polygon id="Fill-186" fill="#00898B" points="318.652923 29.562185 324.832923 7.46549469 323.699012 7.14829115 317.805224 28.2186274 300.061879 25.1359195 299.860436 26.2962646"></polygon>
                            <path d="M297.613487,80.7421558 C297.613487,80.7421558 297.333655,84.3134301 304.447035,86.4399699 C305.907265,86.875669 305.432372,87.3077221 305.705823,87.9211646 L297.519602,87.9211646 L294.314752,84.3179876 L293.317566,85.1738903 L291.006903,82.9033327 C291.006903,82.9033327 292.086124,79.6173593 293.845327,79.5881912 C295.297354,80.0831381 297.613487,80.7421558 297.613487,80.7421558" id="Fill-188" fill="#212B53"></path>
                            <path d="M155.156648,306.076896 L157.450904,312.145693 C157.641409,312.994304 157.673312,314.010631 156.797356,314.51287 C156.797356,314.51287 156.21855,314.851038 155.595081,315.065242 C155.177612,314.976826 152.530604,306.780578 152.530604,306.780578 L152.556126,306.731357 C153.605267,305.363188 155.156648,306.076896 155.156648,306.076896" id="Fill-190" fill="#00666A"></path>
                            <polygon id="Fill-192" fill="#212B53" points="155.595081 315.065606 152.530604 306.780942 152.127719 307.014288 155.214984 315.221473"></polygon>
                            <polygon id="Fill-194" fill="#FEFEFE" points="156.070431 308.476796 156.270962 309.025522 155.213617 309.228788 155.013997 308.698292"></polygon>
                            <polygon id="Fill-196" fill="#FEFEFE" points="156.511508 309.649082 156.712039 310.198719 155.654694 310.401073 155.455074 309.870578"></polygon>
                            <path d="M157.700292,304.643829 L155.156283,306.076714 C155.010442,306.687422 155.229204,307.32821 155.71777,307.723803 L155.806186,307.795812 L158.613619,307.0739 L157.700292,304.643829 Z" id="Fill-198" fill="#9E7059"></path>
                            <path d="M178.009704,266.348156 C178.009704,266.348156 175.48666,269.06535 174.837669,273.847103 C174.404704,277.029165 175.596041,282.071607 175.725474,286.028448 C175.844881,289.646209 174.212377,292.521094 171.344784,294.731492 L157.700474,304.644103 L158.613802,307.074173 C158.613802,307.074173 177.288704,304.27312 182.191687,295.910067 C187.093758,287.546103 188.255926,268.611421 188.255926,268.611421 L178.009704,266.348156 Z" id="Fill-200" fill="#212B53"></path>
                            <path d="M167.146395,256.04214 L160.128722,271.711812 C160.128722,271.711812 157.244722,272.049069 155.99505,273.153812 C155.341501,273.731706 155.371581,274.887494 155.548412,275.859158 C155.682404,276.595653 156.567474,276.908299 157.132607,276.41791 C157.90374,275.747042 158.899103,274.993228 159.55174,274.884759 C161.281775,274.595812 161.800421,273.37075 161.800421,273.37075 L171.867988,257.579848 L167.146395,256.04214 Z" id="Fill-202" fill="#9E7059"></path>
                            <path d="M202.533093,224.528424 L206.128066,221.453919 L203.340686,206.26461 L199.014686,204.0533 C199.014686,204.0533 199.485022,203.21745 200.552394,203.572937 C201.619765,203.928424 202.523066,203.716955 202.523066,203.716955 C202.523066,203.716955 203.333394,202.715212 201.79842,202.037964 C200.937049,201.457335 200.360066,202.034318 197.860721,201.93861 C197.860721,201.553955 201.153987,200.641539 201.153987,200.641539 C202.181252,200.311574 204.802739,202.341495 204.802739,202.341495 C204.979571,202.582132 205.09442,202.861964 205.13635,203.157291 L205.551996,205.975663 C205.551996,205.975663 211.127668,221.263415 211.127668,222.895919 C211.127668,224.528424 208.003031,226.764344 208.003031,226.764344 L202.533093,224.528424 Z" id="Fill-204" fill="#9E7059"></path>
                            <path d="M183.200996,267.924603 C183.200996,267.924603 181.037996,270.529682 182.335066,276.586629 C183.163624,280.452319 186.801438,285.31793 189.245181,288.66862 C190.997093,291.071346 191.034465,294.092072 190.507615,297.018912 C188.505951,308.142001 191.708066,321.721594 191.708066,321.721594 L194.304031,321.721594 C194.304031,321.721594 198.197066,301.821629 199.351031,287.834594 C200.391058,275.222107 194.99404,265.933877 194.880102,265.771629 L183.200996,267.924603 Z" id="Fill-206" fill="#053C5D"></path>
                            <polygon id="Fill-208" fill="#F6A506" points="197.587452 203.506853 205.739036 204.702747 206.055328 202.548862 197.903744 201.35388"></polygon>
                            <polygon id="Fill-210" fill="#FEFEFE" points="206.526303 202.618501 206.210011 204.772386 205.465312 204.663005 205.781604 202.50912"></polygon>
                            <path d="M206.052685,204.748596 C206.64972,204.832454 207.152871,204.792348 207.295977,203.81795 C207.451844,202.754224 206.968747,202.660339 206.373535,202.568277 L206.052685,204.748596 Z" id="Fill-212" fill="#212B53"></path>
                            <polygon id="Fill-214" fill="#FEFEFE" points="197.587452 203.506853 196.005992 202.556154 196.120842 201.77226 197.903744 201.35388"></polygon>
                            <polygon id="Fill-216" fill="#053C5D" points="196.005719 202.556245 195.317533 202.060387 196.120568 201.772351"></polygon>
                            <polygon id="Fill-218" fill="#F08713" points="205.585357 203.841558 205.514259 204.331035 197.636127 203.176159 197.708135 202.68577"></polygon>
                            <polygon id="Fill-220" fill="#F08713" points="205.738489 202.802807 205.666481 203.293196 197.788348 202.137409 197.860357 201.647019"></polygon>
                            <path d="M176.830309,237.178282 C172.193486,240.584574 166.733574,256.962486 166.733574,256.962486 L170.806176,259.246716 L177.431902,250.153548 C177.431902,250.153548 178.07907,260.680512 176.493052,268.756442 C177.214052,271.784459 180.653158,271.443557 186.229742,270.386212 C191.804504,269.327955 195.457813,266.925229 195.457813,266.925229 C195.457813,266.925229 195.69845,252.318371 196.41945,244.574229 C197.14045,236.829176 195.716681,236.002442 197.668212,236.258574 C202.025203,233.78384 209.163194,225.818203 209.163194,225.818203 L202.532911,224.528424 L188.256017,232.8933 C188.256017,232.8933 181.275716,234.732716 176.830309,237.178282" id="Fill-222" fill="#00666A"></path>
                            <path d="M184.918999,217.805167 L188.363574,221.20599 C189.826539,222.650725 190.443627,224.745362 189.99699,226.751583 L189.593194,228.568212 L184.918999,217.805167 Z" id="Fill-224" fill="#9E7059"></path>
                            <path d="M180.749596,216.518032 C172.385631,216.518032 175.943233,232.573271 175.943233,232.573271 C175.943233,232.573271 177.432631,242.98812 180.749596,247.170103 C183.619923,250.789687 189.299507,249.700439 191.990268,247.963112 C193.304658,247.113589 194.779472,246.547545 196.332675,246.359775 C198.611436,246.085412 201.321339,245.080023 201.321339,240.969138 C201.321339,237.099802 196.702746,234.107333 193.661967,231.969855 C191.681268,230.577076 190.299427,228.494288 189.721534,226.141696 C188.748047,222.179386 186.374489,216.518032 180.749596,216.518032" id="Fill-226" fill="#212B53"></path>
                            <path d="M192.153154,324.606141 L198.642154,324.596114 C199.502614,324.716433 200.466074,325.042751 200.627411,326.040849 C200.627411,326.040849 200.740437,326.702601 200.720384,327.359796 C200.490685,327.71984 191.887906,327.312397 191.887906,327.312397 L191.850535,327.27138 C190.93903,325.806592 192.153154,324.606141 192.153154,324.606141" id="Fill-228" fill="#00666A"></path>
                            <polygon id="Fill-230" fill="#053C5D" points="200.720749 327.36016 191.888271 327.31185 191.964837 327.771249 200.734421 327.771249"></polygon>
                            <polygon id="Fill-232" fill="#FEFEFE" points="194.722138 324.596296 195.306412 324.601765 195.124112 325.663668 194.557156 325.663668"></polygon>
                            <polygon id="Fill-234" fill="#FEFEFE" points="195.974545 324.596296 196.558819 324.601765 196.376519 325.663668 195.809563 325.663668"></polygon>
                            <path d="M191.708066,321.721138 L192.152881,324.60605 C192.675173,324.958802 193.351509,324.978855 193.892031,324.661651 L193.991385,324.603315 L194.304031,321.721138 L191.708066,321.721138 Z" id="Fill-236" fill="#9E7059"></path>
                            <path d="M200.552485,203.572755 C199.485113,203.217268 199.014777,204.053118 199.014777,204.053118 L201.893308,205.525197 C201.933414,205.507879 201.971697,205.488737 202.011804,205.471419 C202.483963,205.279091 203.466565,204.85433 203.916848,204.777764 C203.644308,204.504312 201.085715,203.750498 200.552485,203.572755" id="Fill-238" fill="#9E7059"></path>
                            <path d="M25.8272044,363.758993 C25.8272044,363.758993 26.7450894,365.028719 31.0701779,366.130727 C32.0217885,366.372276 33.049054,366.53817 33.049054,368.108692 L28.7795673,368.108692 L24.4143726,367.353966 L24.4143726,368.108692 L22.0563106,368.108692 C22.0563106,368.108692 21.4000274,364.253028 22.7763991,363.758993 L25.8272044,363.758993 Z" id="Fill-240" fill="#212B53"></path>
                            <path d="M26.0515257,360.98884 L25.8272956,363.758902 C24.9668354,364.355026 23.8365699,364.392397 22.9387381,363.855521 L22.7764903,363.758902 L22.7764903,360.98884 L26.0515257,360.98884 Z" id="Fill-242" fill="#BD9669"></path>
                            <path d="M3.92749027,364.310818 C3.92749027,364.310818 4.84537522,365.580543 9.17046372,366.682552 C10.1229858,366.924101 11.1493398,367.089995 11.1493398,368.660517 L6.8798531,368.660517 L2.51465841,367.905791 L2.51465841,368.660517 L0.15659646,368.660517 C0.15659646,368.660517 -0.499686726,364.804853 0.876684956,364.310818 L3.92749027,364.310818 Z" id="Fill-244" fill="#212B53"></path>
                            <path d="M4.1518115,361.540756 L3.92758142,364.310818 C3.06712124,364.906942 1.93776726,364.944313 1.03902389,364.408349 L0.876776106,364.310818 L0.876776106,361.540756 L4.1518115,361.540756 Z" id="Fill-246" fill="#BD9669"></path>
                            <path d="M27.7913142,292.920606 L26.7285,362.492093 L21.6596239,362.492093 C21.6596239,362.492093 13.9446504,306.322456 15.5917389,292.920606 C17.2388274,279.517845 27.7913142,292.920606 27.7913142,292.920606" id="Fill-248" fill="#212B53"></path>
                            <path d="M22.4339469,292.905475 C22.4339469,292.905475 20.6692743,314.276608 16.6167257,326.107935 C12.564177,337.93744 5.24570796,362.492458 5.24570796,362.492458 L0,362.492458 C0,362.492458 8.76138053,311.18205 6.7569823,292.905475 L22.4339469,292.905475 Z" id="Fill-250" fill="#12375A"></path>
                        </g>
                        <g id="Group-255" transform="translate(59.247788, 284.235962)">
                            <mask id="mask-26" fill="white">
                                <use xlink:href="#path-25"></use>
                            </mask>
                            <g id="Clip-254"></g>
                            <path d="M0.660840708,16.6477168 C0.660840708,16.6477168 12.154,30.9164071 17.3860354,27.190177 L17.3860354,27.190177 C22.6180708,23.4648584 16.0388319,3.07723894 16.0388319,3.07723894 L16.0388319,3.07723894 L10.8067965,3.07723894 C10.8067965,3.07723894 12.5505044,14.9723717 11.2826018,14.9723717 L11.2826018,14.9723717 C9.69658407,14.9723717 3.45004425,0.404707965 3.45004425,0.404707965 L3.45004425,0.404707965 L0.660840708,16.6477168 Z" id="Fill-253" fill="url(#linearGradient-27)" mask="url(#mask-26)"></path>
                        </g>
                        <path d="M44.0708743,321.902242 L45.964069,326.582817 C46.8755735,328.42041 50.2253522,328.467808 52.451246,327.883534 C52.7857681,327.79603 52.9015292,327.380384 52.6690956,327.125162 C51.4476796,325.785251 48.2765558,322.351614 47.1772814,321.583216 L44.0708743,321.902242 Z" id="Fill-256" fill="#D9B183"></path>
                        <g id="Group-260" transform="translate(43.752212, 281.501449)">
                            <mask id="mask-29" fill="white">
                                <use xlink:href="#path-28"></use>
                            </mask>
                            <g id="Clip-259"></g>
                            <path d="M0.301707965,7.07145133 L0.301707965,38.5511681 L19.4186903,38.5511681 L19.4186903,4.88110619 C19.4186903,2.34438938 16.1564159,0.131256637 16.1564159,0.131256637 L16.1564159,0.131256637 C16.1564159,0.131256637 14.3780708,0.0720088496 7.53540708,0.0720088496 L7.53540708,0.0720088496 C0.692743363,0.0720088496 0.301707965,7.07145133 0.301707965,7.07145133" id="Fill-258" fill="url(#linearGradient-30)" mask="url(#mask-29)"></path>
                        </g>
                        <g id="Group-275" transform="translate(48.038950, 262.845597)">
                            <polygon id="Fill-261" fill="#93CEC6" points="14.8143845 57.2212398 14.8143845 26.981169 15.4487915 27.0021336 15.4487915 57.2212398"></polygon>
                            <path d="M3.00174287,12.1195451 L4.54036234,19.9101735 C4.54036234,19.9101735 6.18745083,21.4323858 8.52728269,20.9693416 C10.8671146,20.5072088 10.5335039,18.8209257 10.5335039,18.8209257 L9.54725614,13.8277044 L5.90579597,13.6098549 L3.00174287,12.1195451 Z" id="Fill-263" fill="#C59C6E"></path>
                            <path d="M10.1380022,15.2492867 C10.8544446,15.0843044 11.4979668,14.8345522 11.7860022,14.4544549 C13.2097721,10.7327823 9.07883402,2.27493274 9.07883402,2.27493274 L1.80594022,5.11609204 L2.74752429,11.1447823 C2.99909951,12.7544991 4.00175437,14.1472779 5.44740039,14.8983575 C6.94591367,15.4571097 8.57841809,15.6065965 10.1380022,15.2492867" id="Fill-265" fill="#D9B183"></path>
                            <path d="M5.38423314,4.57119469 C5.38423314,4.57119469 7.97928623,4.54476106 10.5196491,3.55669027 C13.0600119,2.56861947 10.8022154,0 10.8022154,0 C10.8022154,0 9.02933933,1.27428319 5.46535703,1.44655752 C3.05989685,1.56323009 2.34254287,1.23417699 1.00171986,2.32889381 C-0.819465979,3.81646903 0.399215437,7.40050442 0.399215437,7.40050442 L3.06171986,14.9641681 L3.4819234,14.8812212 C3.4819234,14.8812212 2.66977296,10.2307257 2.35894995,8.65382301 C2.6570119,7.84987611 3.13464022,7.75507965 3.53752517,7.86172566 C3.97413579,7.97748673 4.2858703,8.36487611 4.37337473,8.80786726 L5.97124199,16.8929115 C5.97124199,16.8929115 11.5569411,18.0942743 12.7883836,17.4334336 C14.0189146,16.7725929 11.9598261,10.9553717 11.9598261,10.9553717 C11.9598261,10.9553717 10.3191181,10.5980619 9.40852517,12.1403274 C8.50522429,13.6670973 6.83079066,12.5951681 6.83079066,12.5951681 L5.38423314,4.57119469 Z" id="Fill-267" fill="#12375A"></path>
                            <path d="M26.2432827,24.4676044 L26.0582473,23.462215 C25.6508048,21.2381442 23.5251765,18.4708168 21.3822296,17.7452593 L19.1618048,17.7452593 L19.8499907,22.4896398 L22.9837429,24.4676044 L26.2432827,24.4676044 Z" id="Fill-269" fill="#D9B183"></path>
                            <path d="M2.8433234,7.78807611 C3.41210216,7.62582832 4.07750039,8.06973097 4.32816411,8.77979292 C4.57973933,9.48985487 4.32269508,10.1971823 3.75391632,10.3585186 C3.18513756,10.5216779 2.51973933,10.0777752 2.26816411,9.36680177 C2.01750039,8.65765133 2.27454464,7.95032389 2.8433234,7.78807611" id="Fill-271" fill="#D9B183"></path>
                            <path d="M20.7649588,21.9636106 L25.0918703,24.4675133 C25.0918703,24.4675133 22.3764986,24.4401681 22.3327464,24.4675133 L17.7533482,20.6355487 C17.7533482,20.6355487 18.0851358,19.9665044 19.1233393,20.5316372 C20.1606314,21.0958584 20.7649588,21.9636106 20.7649588,21.9636106" id="Fill-273" fill="#C59C6E"></path>
                        </g>
                        <g id="Group-278" transform="translate(34.637168, 283.324458)">
                            <mask id="mask-32" fill="white">
                                <use xlink:href="#path-31"></use>
                            </mask>
                            <g id="Clip-277"></g>
                            <path d="M0.644433628,19.5581504 C0.644433628,26.7544779 9.41675221,39.4380619 9.41675221,39.4380619 L9.41675221,39.4380619 L13.7509558,38.1692478 C13.7509558,38.1692478 9.83969027,22.4740531 9.83969027,18.2993628 L9.83969027,18.2993628 C9.83969027,14.1237611 17.8718673,8.00300885 17.8718673,8.00300885 L17.8718673,8.00300885 L11.4521416,0.35639823 C11.4521416,0.35639823 0.644433628,12.361823 0.644433628,19.5581504" id="Fill-276" fill="url(#linearGradient-33)" mask="url(#mask-32)"></path>
                        </g>
                        <g id="Group-305" transform="translate(44.159290, 267.705739)">
                            <path d="M0.63440708,33.9173531 C0.63440708,37.5123265 3.81646903,50.6543973 4.56390265,53.7161407 C4.34423009,53.7735655 4.25399115,53.7917956 3.92129204,53.877477 C3.00249558,50.0947336 0,37.4503442 0,33.9173531 C0,29.6351053 7.82526549,23.6228221 8.1579646,23.3694239 L8.54261947,23.8725743 C8.46331858,23.9336451 0.63440708,29.9459283 0.63440708,33.9173531" id="Fill-279" fill="#93CEC6"></path>
                            <path d="M21.7498628,9.24438673 C21.7498628,9.24438673 20.8575,13.8957938 23.7296504,17.6293159 C23.9064823,17.8599265 24.2091018,18.0349354 24.5381549,18.0786876 C25.2044646,18.1689265 25.6711549,17.9337584 26.0330221,17.8316699 C26.5626062,17.6803602 26.8160044,17.4087319 26.9372345,17.1835903 C27.041146,16.9903513 27.0110664,16.7606522 26.8743407,16.5564752 C26.2918894,15.688723 24.4925796,12.7062805 25.3120221,10.0665637 C23.7788717,8.82874071 21.7498628,9.24438673 21.7498628,9.24438673" id="Fill-281" fill="#FED147"></path>
                            <path d="M26.4307115,17.6696044 C26.7597646,17.5037106 26.8244814,17.3925071 26.937508,17.1837726 C27.040508,16.9905336 27.0113398,16.7608345 26.8746142,16.5566575 C26.2921628,15.6889053 24.4928531,12.7064628 25.3113841,10.066746 C24.7699504,9.62922389 24.167446,9.40043628 23.6132513,9.28467522 C23.5211894,12.1841708 24.1428354,14.1220292 26.4307115,17.6696044" id="Fill-283" fill="#F6A506"></path>
                            <path d="M24.3148363,13.079177 C24.4515619,13.7445752 24.7742345,14.2413451 25.0367478,14.1875664 C25.2983496,14.1337876 25.398615,13.5513363 25.2628009,12.8850265 C25.1260752,12.2196283 24.8024912,11.7228584 24.5408894,11.7766372 C24.2792876,11.8304159 24.1781106,12.4137788 24.3148363,13.079177" id="Fill-285" fill="#212B53"></path>
                            <polygon id="Fill-287" fill="#212B53" points="24.4888425 11.7964168 24.7641168 11.7307885 24.7440637 11.8693372 24.5608513 11.941346"></polygon>
                            <polygon id="Fill-289" fill="#E7375E" points="24.9734894 14.1891159 25.3071 14.1253106 24.9279142 14.0687973"></polygon>
                            <path d="M24.5377903,13.0337841 C24.6745159,13.6991823 24.9971885,14.1950407 25.2597018,14.1421735 C25.5213035,14.0874832 25.6224805,13.5050319 25.4857549,12.8387221 C25.3490292,12.1733239 25.0254451,11.6774655 24.7638434,11.7303327 C24.5022416,11.785023 24.4010646,12.3683858 24.5377903,13.0337841" id="Fill-291" fill="#FED147"></path>
                            <path d="M20.5828637,5.32427965 L20.0705982,5.32427965 C19.090731,5.32427965 18.2895186,6.08812035 18.2895186,7.02058938 L18.2895186,8.36779292 C18.2895186,9.30026195 19.090731,10.0641027 20.0705982,10.0641027 L20.5828637,10.0641027 L20.5828637,5.32427965 Z" id="Fill-293" fill="#212B53"></path>
                            <path d="M36.244515,6.65853982 C36.244515,10.3355487 35.3995504,13.3170796 34.3567894,13.3170796 C33.3140283,13.3170796 32.4681522,10.3355487 32.4681522,6.65853982 C32.4681522,2.98153097 33.3140283,0 34.3567894,0 C35.3995504,0 36.244515,2.98153097 36.244515,6.65853982" id="Fill-295" fill="#212B53"></path>
                            <polygon id="Fill-297" fill="#FEFEFE" points="32.3852965 4.20531681 33.8774292 5.17515752 33.8774292 7.32995398 32.3388097 8.72546726 31.8074027 5.92532566"></polygon>
                            <path d="M32.4685168,6.65853982 C32.4685168,3.56853982 33.0664637,0.978044248 33.8758796,0.226053097 C33.8740566,0.225141593 33.8731451,0.223318584 33.8722336,0.221495575 C27.6174903,4.73617699 20.2844372,5.37149558 20.2844372,5.37149558 L20.2844372,10.0712124 C20.2844372,10.0712124 30.2006938,9.51428319 33.8722336,13.0955841 L33.8777027,13.0928496 C33.0673752,12.3435929 32.4685168,9.75127434 32.4685168,6.65853982" id="Fill-299" fill="#F6A506"></path>
                            <path d="M34.0814239,6.24818053 C34.0814239,6.84521593 33.9902735,7.33013628 33.8772469,7.33013628 C33.7651319,7.33013628 33.6730699,6.84521593 33.6730699,6.24818053 C33.6730699,5.65114513 33.7651319,5.16622478 33.8772469,5.16622478 C33.9902735,5.16622478 34.0814239,5.65114513 34.0814239,6.24818053" id="Fill-301" fill="#FED147"></path>
                            <path d="M27.7183027,16.1617027 C27.5660814,16.2182159 27.0301168,16.5554726 25.3019044,16.5554726 C24.0440283,16.5554726 23.4770726,15.0086496 23.2619575,14.167331 C23.1863027,13.8720035 23.1197628,13.4508885 23.4898336,13.2622071 L25.5115504,12.9823752 L27.7183027,16.1617027 Z" id="Fill-303" fill="#D9B183"></path>
                        </g>
                    </g>
                </g>
            </g>
        </g>
    </g>
</svg>