<?xml version="1.0" encoding="UTF-8"?>
<svg width="327px" height="243px" viewBox="0 0 327 243" version="1.1" xmlns="http://www.w3.org/2000/svg" xmlns:xlink="http://www.w3.org/1999/xlink">
    <title>illus-registered-users-only</title>
    <defs>
        <linearGradient x1="50%" y1="0%" x2="50%" y2="100%" id="linearGradient-1">
            <stop stop-color="#299393" offset="0%"></stop>
            <stop stop-color="#005959" offset="100%"></stop>
        </linearGradient>
        <linearGradient x1="50%" y1="0%" x2="50%" y2="100%" id="linearGradient-2">
            <stop stop-color="#CDE7DE" offset="0%"></stop>
            <stop stop-color="#B4DDDE" offset="100%"></stop>
        </linearGradient>
        <linearGradient x1="50%" y1="0%" x2="50%" y2="100%" id="linearGradient-3">
            <stop stop-color="#2CB7B7" offset="0%"></stop>
            <stop stop-color="#088A8A" offset="100%"></stop>
        </linearGradient>
        <linearGradient x1="50%" y1="0%" x2="50%" y2="100%" id="linearGradient-4">
            <stop stop-color="#044B88" offset="0%"></stop>
            <stop stop-color="#1B2B57" offset="100%"></stop>
        </linearGradient>
        <linearGradient x1="50%" y1="0%" x2="50%" y2="100%" id="linearGradient-5">
            <stop stop-color="#156EA8" offset="0%"></stop>
            <stop stop-color="#004381" offset="100%"></stop>
        </linearGradient>
        <linearGradient x1="50%" y1="13.2275747%" x2="50%" y2="100%" id="linearGradient-6">
            <stop stop-color="#7CDDDD" stop-opacity="0.5" offset="0%"></stop>
            <stop stop-color="#E4FFFF" offset="100%"></stop>
        </linearGradient>
        <linearGradient x1="39.3636618%" y1="32.174705%" x2="50%" y2="50%" id="linearGradient-7">
            <stop stop-color="#FFFFFF" offset="0%"></stop>
            <stop stop-color="#DFFEFE" stop-opacity="0" offset="100%"></stop>
        </linearGradient>
        <linearGradient x1="39.3636618%" y1="32.3390204%" x2="50%" y2="50%" id="linearGradient-8">
            <stop stop-color="#FFFFFF" offset="0%"></stop>
            <stop stop-color="#DFFEFE" stop-opacity="0" offset="100%"></stop>
        </linearGradient>
        <linearGradient x1="50%" y1="0%" x2="50%" y2="100%" id="linearGradient-9">
            <stop stop-color="#FFDD48" offset="0%"></stop>
            <stop stop-color="#FFC01B" offset="100%"></stop>
        </linearGradient>
        <linearGradient x1="50%" y1="0%" x2="50%" y2="100%" id="linearGradient-10">
            <stop stop-color="#FFB800" offset="0%"></stop>
            <stop stop-color="#FFA22C" offset="100%"></stop>
        </linearGradient>
        <linearGradient x1="50%" y1="0%" x2="50%" y2="100%" id="linearGradient-11">
            <stop stop-color="#FFE989" offset="0%"></stop>
            <stop stop-color="#FFCF51" offset="100%"></stop>
        </linearGradient>
        <linearGradient x1="50%" y1="0%" x2="50%" y2="100%" id="linearGradient-12">
            <stop stop-color="#FFCD4A" offset="0%"></stop>
            <stop stop-color="#FF9E24" offset="100%"></stop>
        </linearGradient>
    </defs>
    <g id="Page-2-Illustrations" stroke="none" stroke-width="1" fill="none" fill-rule="evenodd">
        <g id="PECOS-2.0-Illustrations-v31" transform="translate(-1364.000000, -1441.000000)">
            <g id="illus-registered-users-only" transform="translate(1345.000000, 1398.000000)">
                <g transform="translate(19.000000, 43.000000)">
                    <g id="folder" transform="translate(6.018038, 17.957896)">
                        <path d="M13.6043981,0 L63.6100161,0 C66.8713969,4.72996458e-15 69.9110948,1.65092611 71.6866684,4.38660576 L80.8867506,18.5614491 L80.8867506,18.5614491 L243.417534,18.5614491 C250.634429,18.5614491 256.743671,23.8886147 257.726128,31.0383238 L278.561544,182.665444 C279.647432,190.567862 274.121543,197.854324 266.219125,198.940213 C265.567559,199.029746 264.910639,199.07467 264.25295,199.07467 L28.7072356,199.07467 C26.2752859,199.07467 24.2252204,197.260967 23.9287846,194.847151 L1.65827056,13.5029548 C0.848024781,6.90529068 5.53965429,0.899993207 12.1373184,0.0897474273 C12.6240599,0.0299716813 13.1139998,3.64279838e-15 13.6043981,0 Z" id="folder-back" fill="url(#linearGradient-1)"></path>
                        <path d="M19.5457759,40.9167462 L238.297534,40.9167462 C239.502742,40.9167462 240.5222,41.8080456 240.683148,43.0024578 L261.358932,196.439641 C261.536471,197.757179 260.612319,198.969179 259.294781,199.146718 C259.188229,199.161076 259.080834,199.168279 258.973318,199.168279 L40.2215596,199.168279 C39.0163521,199.168279 37.9968939,198.27698 37.8359458,197.082568 L17.1601622,43.6453845 C16.9826229,42.3278465 17.9067745,41.1158468 19.2243126,40.9383075 C19.3308653,40.9239494 19.4382602,40.9167462 19.5457759,40.9167462 Z" id="paper-shadow" fill-opacity="0.196891731" fill="#000000"></path>
                        <path d="M23.1486156,37.3064451 L241.902237,37.3064451 C243.11008,37.3064451 244.130912,38.2015406 244.288766,39.3990243 L264.978653,196.352899 C265.152399,197.670942 264.224763,198.880277 262.906719,199.054024 C262.802418,199.067773 262.697328,199.07467 262.592124,199.07467 L43.8385021,199.07467 C42.6306589,199.07467 41.6098271,198.179574 41.4519731,196.98209 L20.7620865,40.0282158 C20.5883401,38.7101721 21.5159762,37.5008374 22.8340198,37.327091 C22.9383213,37.3133418 23.0434118,37.3064451 23.1486156,37.3064451 Z" id="paper" fill="url(#linearGradient-2)"></path>
                        <path d="M63.2267697,46.3434637 L290.481265,46.5555169 C298.457938,46.56296 304.918275,53.0353647 304.910832,61.0120375 C304.910022,61.8804401 304.830893,62.7470002 304.674407,63.6011875 L282.007906,187.327856 C280.751403,194.186564 274.774139,199.168279 267.801287,199.168279 L28.5144623,199.168279 C26.1879317,199.168279 24.301906,197.282254 24.301906,194.955723 C24.301906,194.703945 24.3244786,194.452673 24.3693527,194.204926 L49.0014886,58.2123443 C50.2471002,51.3353954 56.2379263,46.3369424 63.2267697,46.3434637 Z" id="folder-front" fill="url(#linearGradient-3)"></path>
                    </g>
                    <g id="magnifying-glass" transform="translate(104.939857, 0.000000)">
                        <path d="M175.977172,109.635429 L175.978238,134.086944 C180.289445,136.264438 183.245745,140.733806 183.245745,145.893655 L183.245745,217.149257 C183.245745,224.345658 177.49525,230.198959 170.338692,230.364727 L170.026224,230.368338 C162.725527,230.368338 156.807143,224.449954 156.807143,217.149257 L156.807143,145.893655 C156.807143,140.573019 159.950557,135.986567 164.481575,133.890109 L164.482128,109.635429 L175.977172,109.635429 Z" id="handle" fill="url(#linearGradient-4)" transform="translate(170.026444, 170.001883) rotate(-45.000000) translate(-170.026444, -170.001883) "></path>
                        <path d="M75.2925411,0 C116.875463,0 150.585082,33.7047494 150.585082,75.2816649 C150.585082,116.85858 116.875463,150.56333 75.2925411,150.56333 C33.7096189,150.56333 0,116.85858 0,75.2816649 C0,33.7047494 33.7096189,0 75.2925411,0 Z M75.2925411,5.74669197 C36.8838878,5.74669197 5.74752222,36.8785598 5.74752222,75.2816649 C5.74752222,113.68477 36.8838878,144.816638 75.2925411,144.816638 C113.701195,144.816638 144.83756,113.68477 144.83756,75.2816649 C144.83756,36.8785598 113.701195,5.74669197 75.2925411,5.74669197 Z" id="Combined-Shape" fill="url(#linearGradient-5)"></path>
                        <ellipse id="Oval-Copy" fill="url(#linearGradient-6)" cx="75.2925411" cy="75.2816649" rx="69.5450189" ry="69.5349729"></ellipse>
                        <path d="M75.2925411,17.8147451 C88.2031746,17.8147451 100.119563,22.0709987 109.714707,29.2566978 L104.082756,32.3060836 C95.8528187,26.7833609 85.9489946,23.5614371 75.2925411,23.5614371 C46.7241213,23.5614371 23.5648411,46.7173718 23.5648411,75.2816649 L23.5693189,75.9067451 L17.9331185,78.9593465 C17.8760401,78.0557367 17.8398478,77.1464573 17.8250189,76.2319855 L17.8173189,75.2816649 C17.8173189,43.5435615 43.5498524,17.8147451 75.2925411,17.8147451 Z" id="highlight" fill="url(#linearGradient-7)"></path>
                        <path d="M99.3411268,72.4366216 C112.034665,72.4366216 123.767115,76.5509392 133.277298,83.5185788 L127.6145,86.5855986 C119.48818,81.2723132 109.775443,78.1833136 99.3411268,78.1833136 C70.7727069,78.1833136 47.6134268,101.339248 47.6134268,129.903541 L47.6129045,129.908622 L41.9467279,132.977537 C41.909585,132.272935 41.8851358,131.564968 41.8736046,130.853862 L41.8659045,129.903541 C41.8659045,98.165438 67.5984381,72.4366216 99.3411268,72.4366216 Z" id="highlight-copy" fill="url(#linearGradient-8)" transform="translate(87.572093, 102.707079) scale(-1, -1) translate(-87.572093, -102.707079) "></path>
                    </g>
                    <path d="M180.541137,39.6196259 C190.345952,39.6196259 199.222542,43.5932451 205.647932,50.0177061 C212.073352,56.4421986 216.04755,65.3175543 216.04755,75.1209973 C216.04755,84.9244402 212.073352,93.799796 205.647932,100.224288 C199.222542,106.648749 190.345952,110.622369 180.541137,110.622369 C170.736321,110.622369 161.859731,106.648749 155.434342,100.224288 C149.008921,93.799796 145.034723,84.9244402 145.034723,75.1209973 C145.034723,65.3175543 149.008921,56.4421986 155.434342,50.0177061 C161.859731,43.5932451 170.736321,39.6196259 180.541137,39.6196259 Z M158.64458,59.184849 C155.383884,63.6559815 153.459956,69.1638612 153.459956,75.1209973 C153.459956,82.5981446 156.491113,89.367427 161.391819,94.2674253 C166.292557,99.167455 173.062865,102.198179 180.541137,102.198179 C186.49933,102.198179 192.008179,100.274421 196.480053,97.014018 L196.480053,97.014018 Z M180.541137,48.0438157 C174.582943,48.0438157 169.074094,49.9675736 164.60222,53.2279765 L164.60222,53.2279765 L202.437693,91.0571455 L202.730421,90.6478392 C205.813224,86.2517896 207.622317,80.8976141 207.622317,75.1209973 C207.622317,67.64385 204.59116,60.8745675 199.690454,55.9745693 C194.789716,51.0745396 188.019408,48.0438157 180.541137,48.0438157 Z" id="Combined-Shape" stroke-opacity="0.454248388" stroke="#FFFFFF" stroke-width="1.2035875" fill="#E00F16"></path>
                    <g id="Lock" transform="translate(0.000000, 117.842894)">
                        <rect id="Rectangle" fill="url(#linearGradient-9)" x="0" y="49.942499" width="87.8633531" height="75.214607" rx="9.62869999"></rect>
                        <path d="M19.2577212,111.317618 L19.2577212,116.131353 L0,116.131353 L0,111.317618 L19.2577212,111.317618 Z M87.8633531,111.317618 L87.8633531,116.131353 L68.6056319,116.131353 L68.6056319,111.317618 L87.8633531,111.317618 Z M19.2577212,102.893582 L19.2577212,107.707317 L0,107.707317 L0,102.893582 L19.2577212,102.893582 Z M87.8633531,102.893582 L87.8633531,107.707317 L68.6056319,107.707317 L68.6056319,102.893582 L87.8633531,102.893582 Z M19.2577212,94.4695463 L19.2577212,99.2832812 L0,99.2832812 L0,94.4695463 L19.2577212,94.4695463 Z M87.8633531,94.4695463 L87.8633531,99.2832812 L68.6056319,99.2832812 L68.6056319,94.4695463 L87.8633531,94.4695463 Z M19.2577212,86.0455104 L19.2577212,90.8592452 L0,90.8592452 L0,86.0455104 L19.2577212,86.0455104 Z M87.8633531,86.0455104 L87.8633531,90.8592452 L68.6056319,90.8592452 L68.6056319,86.0455104 L87.8633531,86.0455104 Z M19.2577212,77.6214744 L19.2577212,82.4352092 L0,82.4352092 L0,77.6214744 L19.2577212,77.6214744 Z M87.8633531,77.6214744 L87.8633531,82.4352092 L68.6056319,82.4352092 L68.6056319,77.6214744 L87.8633531,77.6214744 Z M19.2577212,69.1974384 L19.2577212,74.0111732 L0,74.0111732 L0,69.1974384 L19.2577212,69.1974384 Z M87.8633531,69.1974384 L87.8633531,74.0111732 L68.6056319,74.0111732 L68.6056319,69.1974384 L87.8633531,69.1974384 Z M19.2577212,60.7734024 L19.2577212,65.5871373 L0,65.5871373 L0,60.7734024 L19.2577212,60.7734024 Z M87.8633531,60.7734024 L87.8633531,65.5871373 L68.6056319,65.5871373 L68.6056319,60.7734024 L87.8633531,60.7734024 Z" id="Combined-Shape" fill="url(#linearGradient-10)"></path>
                        <path d="M43.9316766,76.4180407 C48.5848153,76.4180407 52.3569296,80.18961 52.3569296,84.8420766 C52.3569296,88.4343195 50.1081355,91.5014042 46.9413352,92.7127351 L46.9406955,101.087997 C46.9406955,102.749832 45.5935118,104.097016 43.9316766,104.097016 C42.2698413,104.097016 40.9226576,102.749832 40.9226576,101.087997 L40.9225508,92.712939 C37.7554699,91.5017484 35.5064235,88.434521 35.5064235,84.8420766 C35.5064235,80.18961 39.2785378,76.4180407 43.9316766,76.4180407 Z" id="Combined-Shape" fill="#363636"></path>
                        <path d="M43.9321785,0 C60.550254,-3.05269095e-15 74.021866,13.471612 74.021866,30.0896875 L74.021866,49.942499 L64.9948091,49.942499 L64.9948091,29.4871686 C64.9948091,17.8543217 55.5645235,8.42403598 43.9316766,8.42403598 C32.2988296,8.42403598 22.868544,17.8543217 22.868544,29.4871686 L22.868544,29.4871686 L22.868544,49.942499 L13.8414871,49.942499 L13.8414871,30.0896875 C13.8414871,13.471612 27.3130991,3.05269095e-15 43.9311746,0 L43.9321785,0 Z" id="Combined-Shape-Copy" fill="url(#linearGradient-11)"></path>
                        <path d="M44.2325784,3.64138959 C59.0229124,3.64138959 71.012847,15.6313242 71.012847,30.4216582 L71.012847,49.942499 L63.1893978,49.942499 L63.1893978,29.5179093 C63.1893978,19.2145306 54.836859,10.8619919 44.5334803,10.8619919 C34.2301016,10.8619919 25.8775629,19.2145306 25.8775629,29.5179093 L25.8775629,29.5179093 L25.8775629,49.942499 L17.4523099,49.942499 L17.4523099,30.4216582 C17.4523099,15.6313242 29.4422445,3.64138959 44.2325784,3.64138959 Z" id="shank" fill="url(#linearGradient-12)"></path>
                    </g>
                </g>
            </g>
        </g>
    </g>
</svg>