<?xml version="1.0" encoding="UTF-8"?>
<svg width="312px" height="264px" viewBox="0 0 312 264" version="1.1" xmlns="http://www.w3.org/2000/svg" xmlns:xlink="http://www.w3.org/1999/xlink">
    <title>Illus-app-billing-no-inf-req-1079770037</title>
    <defs>
        <path d="M0.0135173653,0.17642508 L0,0.184250386 C5.94408353,12.4365454 9.18255968,26.5669138 9.18255968,38.5339408 L9.18255968,38.5339408 L9.18255968,102.401954 L10.7093105,102.401954 L10.7093105,38.5339408 C10.7093105,26.2140636 7.53059535,12.6222185 2.03685352,0.827348259 L2.03685352,0.827348259 C1.79069518,0.297361627 1.26707514,0 0.721400443,0 L0.721400443,0 C0.483067949,0 0.239755374,0.0569113162 0.0135173653,0.17642508" id="path-1"></path>
        <linearGradient x1="-0.00337739985%" y1="50.0000745%" x2="100.003987%" y2="50.0000745%" id="linearGradient-3">
            <stop stop-color="#C6ECED" offset="0%"></stop>
            <stop stop-color="#C3EDEE" offset="100%"></stop>
        </linearGradient>
        <path d="M-2.02203489e-14,0 C1.3247018,6.0418476 2.02191327,12.0210928 2.02191327,17.5393563 L2.02191327,17.5393563 L2.02191327,81.4073694 L3.54795267,81.4073694 L3.54795267,17.5393563 C3.54795267,11.8631639 2.87066153,5.9173541 1.60572071,0 L1.60572071,0 L-2.02203489e-14,0 Z" id="path-4"></path>
        <linearGradient x1="-201.853266%" y1="50.0001742%" x2="100.013912%" y2="50.0001742%" id="linearGradient-6">
            <stop stop-color="#CCE9EB" offset="0%"></stop>
            <stop stop-color="#C3EDEE" offset="100%"></stop>
        </linearGradient>
        <polygon id="path-7" points="5.92487464 0 0 8.40935835 31.7103161 9.17268138 28.7699334 0"></polygon>
        <linearGradient x1="-0.000469128601%" y1="50.00189%" x2="100.000871%" y2="50.00189%" id="linearGradient-9">
            <stop stop-color="#D9FDFF" offset="0%"></stop>
            <stop stop-color="#B8E4E6" offset="100%"></stop>
        </linearGradient>
        <polygon id="path-10" points="0 0 57.2764917 0 57.2764917 57.272703 0 57.272703"></polygon>
    </defs>
    <g id="Page-2-Illustrations" stroke="none" stroke-width="1" fill="none" fill-rule="evenodd">
        <g id="PECOS-2.0-Illustrations-v31" transform="translate(-565.000000, -99.000000)">
            <g id="Application-Billing-Agency--No-Input-Required" transform="translate(545.000000, 46.000000)">
                <g id="Illus-app-billing-no-inf-req-1079770037" transform="translate(20.000000, 53.000000)">
                    <g id="Group-72" transform="translate(7.417044, 0.000000)">
                        <path d="M99.4719492,188.642303 C99.4719492,188.642303 98.3621024,129.85078 58.125886,114.449866 C8.4687774,169.488089 62.7338847,218.17572 62.7338847,218.17572 L99.4719492,188.642303 Z" id="Fill-1" fill="#00898B"></path>
                        <path d="M58.1257437,114.449866 C57.9528637,114.641942 57.7863867,114.832595 57.615641,115.023959 L76.1885009,181.773108 L37.1923249,163.153859 C37.1930364,163.636183 37.1994393,164.114949 37.2115338,164.593004 L76.6466685,183.421402 L82.0059481,202.682325 L83.1001433,201.803045 L72.417156,163.406403 L88.755382,144.420788 C88.5504872,144.001778 88.3441695,143.582769 88.1314489,143.165182 L72.000252,161.911058 L58.8805818,114.755764 C58.6280205,114.654747 58.3811508,114.548038 58.1257437,114.449866 Z" id="Fill-3" fill="#FEFEFE"></path>
                        <path d="M80.8414627,181.443662 C80.8414627,181.443662 43.3364655,136.367054 2.88041401,144.49399 C-12.3451194,191.719712 37.7481021,216.705202 37.7481021,216.705202 L88.9099069,220.215919 L80.8414627,181.443662 Z" id="Fill-5" fill="#053C5D"></path>
                        <path d="M47.6688522,153.91822 L43.990706,179.659919 L3.84128525,144.320126 C3.52113713,144.377749 3.20170044,144.428969 2.88084087,144.493706 C2.82107989,144.679379 2.77127907,144.862206 2.71294097,145.046457 L24.2162234,163.974449 L0.253491924,167.036278 C0.276258013,167.264635 0.305427065,167.489434 0.331750355,167.716368 L0.408585905,168.317494 L25.5074875,165.110541 L61.3427344,196.652927 L19.4566879,203.368462 C19.854383,203.747634 20.2513667,204.121114 20.647639,204.484635 L62.5984264,197.759141 L88.0452223,220.156589 L88.9096223,220.215635 L88.650658,218.968565 L45.1496422,180.679343 L48.8733206,154.618229 C48.474914,154.382758 48.0729503,154.149422 47.6688522,153.91822" id="Fill-7" fill="#00666A"></path>
                        <path d="M75.4316708,208.974583 C75.4316708,208.974583 28.1223151,196.422792 8.76402512,222.989706 C34.0642643,285.162473 114.939372,257.372677 114.939372,257.372677 L75.4316708,208.974583 Z" id="Fill-9" fill="#FED147"></path>
                        <path d="M8.76438084,222.990559 C8.86184816,223.230298 8.96287267,223.464346 9.06176287,223.701239 L74.2517471,235.718775 L46.9907785,259.355467 C47.4695778,259.515531 47.9490885,259.66848 48.4300221,259.817161 L75.8766767,236.018271 L101.339836,240.712032 L100.077029,239.165467 L50.5038706,230.026932 L34.8258611,207.516372 C34.3698279,207.610987 33.9152176,207.710582 33.4606072,207.815868 L48.6982351,229.694712 L9.20333949,222.413621 C9.05749423,222.605696 8.90738033,222.792792 8.76438084,222.989136 L8.76438084,222.990559 Z" id="Fill-11" fill="#FEFEFE"></path>
                        <polygon id="Fill-13" fill="#053C5D" points="234.257583 123.545148 234.086837 189.22721 162.435552 189.22721 165.055787 123.545148"></polygon>
                        <polygon id="Fill-15" fill="#FEFEFE" points="173.374587 176.302009 176.658595 176.302009 176.694167 174.722009 174.722766 174.724143 174.776836 172.360189 173.466363 172.363746"></polygon>
                        <path d="M210.133212,174.688218 L215.02721,174.683238 L215.012981,176.302365 L210.116849,176.302365 L210.133212,174.688218 Z M200.434147,174.698889 L205.269095,174.693909 L205.249886,176.302365 L200.412092,176.302365 L200.434147,174.698889 Z M190.851758,174.708137 L195.628368,174.703157 L195.604179,176.302365 L190.824723,176.302365 L190.851758,174.708137 Z M181.385333,174.717385 L186.104317,174.712405 L186.074436,176.302365 L181.352607,176.302365 L181.385333,174.717385 Z" id="Fill-17" fill="#FEFEFE"></path>
                        <polygon id="Fill-19" fill="#FEFEFE" points="219.940559 176.302009 223.42377 176.302009 223.446536 172.23783 222.053536 172.241387 222.038596 174.67648 219.951942 174.678614"></polygon>
                        <path d="M222.214535,145.776771 L223.594729,145.75045 L223.558446,152.325841 L222.174694,152.34576 L222.214535,145.776771 Z M222.134854,158.946761 L223.520739,158.931822 L223.483745,165.568393 L222.09359,165.577641 L222.134854,158.946761 Z" id="Fill-21" fill="#FEFEFE"></path>
                        <polygon id="Fill-23" fill="#FEFEFE" points="222.254803 139.238088 223.632151 139.206787 223.654206 135.248605 220.220795 135.335394 220.209412 136.913972 222.269743 136.864175"></polygon>
                        <path d="M210.536883,135.58182 L215.364006,135.45875 L215.3512,137.033059 L210.521232,137.15115 L210.536883,135.58182 Z M200.969434,135.825828 L205.73893,135.70418 L205.719721,137.269241 L200.94738,137.385198 L200.969434,135.825828 Z M191.515816,136.066278 L196.228396,135.946053 L196.204207,137.501155 L191.488781,137.617111 L191.515816,136.066278 Z M182.173182,136.303883 L186.83027,136.185792 L186.801101,137.731645 L182.141167,137.846179 L182.173182,136.303883 Z" id="Fill-25" fill="#FEFEFE"></path>
                        <polygon id="Fill-27" fill="#FEFEFE" points="174.213802 140.343377 175.509335 140.313498 175.561981 138.007167 177.508482 137.958793 177.543342 136.421476 174.302732 136.504709"></polygon>
                        <path d="M174.065182,146.688989 L175.364272,146.66409 L175.218427,153.04456 L173.916491,153.063767 L174.065182,146.688989 Z M173.767088,159.467713 L175.07187,159.453485 L174.924602,165.891578 L173.617686,165.900826 L173.767088,159.467713 Z" id="Fill-29" fill="#FEFEFE"></path>
                        <path d="M226.642255,114.240788 C224.285965,112.088118 221.864222,110.093376 219.470937,108.314897 C215.843303,128.349103 204.381288,152.054089 199.818111,150.998385 C195.839025,150.076421 189.787514,144.115672 184.232588,132.269582 C181.618757,134.33404 179.049746,136.59911 176.717645,138.716211 C175.937906,155.078926 194.236862,170.252906 200.040791,171.597435 C206.102263,173.000299 231.335626,135.588223 226.642255,114.240788" id="Fill-31" fill="#FED147"></path>
                        <polygon id="Fill-33" fill="#00666A" points="115.112537 18.6520436 114.902662 99.0933435 27.1514837 99.0933435 30.3607908 18.6520436"></polygon>
                        <polygon id="Fill-35" fill="#FEFEFE" points="40.5485444 83.2636031 44.5710278 83.2636031 44.6144256 81.3286184 42.1997973 81.3307526 42.2666727 78.4361007 40.660952 78.4396577"></polygon>
                        <path d="M85.5672759,81.2871443 L91.5604488,81.2814531 L91.5433742,83.2633897 L85.5466441,83.2633897 L85.5672759,81.2871443 Z M73.689069,81.2992379 L79.609675,81.2935468 L79.5861974,83.2633897 L73.6620342,83.2633897 L73.689069,81.2992379 Z M61.9538616,81.3113316 L67.8033235,81.3049291 L67.773443,83.2633897 L61.9204239,83.2633897 L61.9538616,81.3113316 Z M50.3595193,81.3227138 L56.1392602,81.3170227 L56.1022653,83.2633897 L50.3196787,83.2633897 L50.3595193,81.3227138 Z" id="Fill-37" fill="#FEFEFE"></path>
                        <polygon id="Fill-39" fill="#FEFEFE" points="97.5780241 83.2636031 101.84382 83.2636031 101.871566 78.2859971 100.165532 78.2902655 100.147035 81.2724185 97.5915414 81.275264"></polygon>
                        <path d="M100.363313,45.8790575 L102.053695,45.8470449 L102.008874,53.8992848 L100.314223,53.9241835 L100.363313,45.8790575 Z M100.265134,62.0077245 L101.963342,61.9899397 L101.91781,70.1182985 L100.215333,70.1296807 L100.265134,62.0077245 Z" id="Fill-41" fill="#FEFEFE"></path>
                        <polygon id="Fill-43" fill="#FEFEFE" points="100.412331 37.8714219 102.099156 37.8330068 102.126191 32.984874 97.9215786 33.0915828 97.9073498 35.0251447 100.430117 34.9639651"></polygon>
                        <path d="M86.0615846,33.3932839 L91.9736533,33.2431803 L91.9572901,35.1710511 L86.0423757,35.3154636 L86.0615846,33.3932839 Z M74.3441632,33.6913569 L80.1850879,33.5426761 L80.1623218,35.459876 L74.3178399,35.6021543 L74.3441632,33.6913569 Z M62.7654726,33.9865843 L68.5373876,33.8393263 L68.5082186,35.7444326 L62.7327464,35.8859995 L62.7654726,33.9865843 Z M51.3240901,34.2775434 L57.0277068,34.1324196 L56.9928462,36.026855 L51.2856723,36.1655764 L51.3240901,34.2775434 Z" id="Fill-45" fill="#FEFEFE"></path>
                        <polygon id="Fill-47" fill="#FEFEFE" points="41.5760776 39.2247019 43.1633009 39.1877095 43.228042 36.3634855 45.6113669 36.3051514 45.6540533 34.4220982 41.6856394 34.5231158"></polygon>
                        <path d="M41.3950872,46.9961555 L42.9858677,46.9662771 L42.8065848,54.778778 L41.2129585,54.8029653 L41.3950872,46.9961555 Z M41.0294069,62.6460561 L42.6273018,62.6289827 L42.4473074,70.5140455 L40.8465668,70.5247164 L41.0294069,62.6460561 Z" id="Fill-49" fill="#FEFEFE"></path>
                        <path d="M105.785626,7.2569042 C102.900024,4.62048748 99.9340297,2.17756923 97.0021843,4.04379223e-14 C92.5606626,24.5351798 78.5225231,53.5670649 72.9341597,52.2737553 C68.0607938,51.1447771 60.6504318,43.844478 53.846217,29.3370721 C50.6454472,31.8653573 47.5001697,34.6390726 44.643737,37.2320944 C43.6882727,57.2712802 66.0993529,75.8556705 73.2066413,77.5018304 C80.6305206,79.2198407 111.534063,33.4005401 105.785626,7.2569042" id="Fill-51" fill="#63C0C4"></path>
                        <polygon id="Fill-56" fill="#F6B58E" points="265.690864 172.391419 256.182465 181.292349 247.490087 166.080666 257.396893 158.658007 273.151027 167.529059"></polygon>
                        <path d="M257.142482,158.911832 C257.142482,158.911832 265.171086,147.225805 259.17649,137.925784 C256.596807,131.04734 261.62669,132.923991 261.62669,132.923991 C261.62669,132.923991 268.229567,137.811961 269.192146,144.077186 C273.748921,142.123705 276.17849,139.874997 280.064377,139.209134 C283.825761,138.564614 288.462218,147.015233 287.811961,156.919936 C287.352371,163.958443 267.962777,170.373771 267.962777,170.373771 L257.142482,158.911832 Z" id="Fill-58" fill="#F6B58E"></path>
                        <path d="M114.273251,182.871994 C114.273251,182.871994 147.240682,228.297184 190.557435,222.963882 C233.873476,217.63058 262.086352,175.916008 262.086352,175.916008 L251.064719,162.317761 C251.064719,162.317761 228.154919,176.699962 211.144382,182.592417 C197.863926,187.193697 188.010479,188.881118 174.490979,176.302294 C160.971479,163.72347 150.744525,145.320485 143.872724,141.281916 C137.000922,137.242635 114.273251,182.871994 114.273251,182.871994" id="Fill-60" fill="#63C0C4"></path>
                        <polygon id="Fill-62" fill="#F39F85" points="130.220896 114.587094 132.656868 138.560986 106.965336 139.577564 112.113318 102.413052"></polygon>
                        <path d="M138.113117,118.96834 C138.142997,118.967629 138.172878,118.966917 138.202758,118.966206 C142.853443,118.826062 146.83822,115.533031 147.898978,111.00289 C151.398552,96.0636695 144.114115,70.9956575 144.114115,70.9956575 L130.355572,65.202797 L112.872638,76.1062937 L111.878045,98.7207166 C111.611966,104.756873 114.510374,110.549022 119.683256,114.318686 C125.221107,117.427466 131.614821,119.147611 138.113117,118.96834" id="Fill-64" fill="#F6B58E"></path>
                        <path d="M115.627335,88.9227933 C116.587779,85.1232515 116.086926,76.3581975 119.955026,76.9920472 C122.776598,77.4530289 132.447206,77.8514081 135.701334,77.8514081 C143.455322,77.8514081 157.278606,74.8173236 157.278606,63.0181849 C157.278606,57.1179042 151.555781,52.0328781 147.932415,50.5204599 C144.374502,49.0350746 140.356999,49.1062137 136.717982,50.3781816 C128.178564,53.3624688 116.853858,59.9478194 112.337635,59.0400839 C104.740165,57.5127265 97.1597683,61.9688826 97.2664844,68.42476 C97.3810263,75.3202773 100.979491,85.6923647 104.368793,92.2812723 C106.330945,96.0950419 108.954025,99.5139892 112.113532,102.412909 L115.627335,88.9227933 Z" id="Fill-66" fill="#212B53"></path>
                        <path d="M107.765066,89.7758939 C109.493155,88.2499592 112.728074,88.5387842 114.989742,90.421126 C117.251411,92.3034677 117.684678,95.0665121 115.95659,96.5931582 C114.228501,98.1183815 110.993582,97.8295565 108.731914,95.9472148 C106.469534,94.064873 106.036978,91.3018286 107.765066,89.7758939" id="Fill-68" fill="#F6B58E"></path>
                        <path d="M168.291631,263.999787 L168.291631,200.131773 C168.291631,171.782113 150.742533,132.68973 122.410136,131.651098 C121.557119,131.619797 120.691296,131.603435 119.811244,131.603435 C115.588135,131.603435 111.646044,131.91787 107.972167,132.482715 C82.1959738,136.447299 63.5178207,159.243838 63.5178207,185.321315 L63.5178207,263.999787 L168.291631,263.999787 Z" id="Fill-70" fill="#63C0C4"></path>
                    </g>
                    <g id="right-arm-line" transform="translate(165.762028, 161.598046)">
                        <mask id="mask-2" fill="white">
                            <use xlink:href="#path-1"></use>
                        </mask>
                        <g id="Clip-74"></g>
                        <path d="M0.0135173653,0.17642508 L0,0.184250386 C5.94408353,12.4365454 9.18255968,26.5669138 9.18255968,38.5339408 L9.18255968,38.5339408 L9.18255968,102.401954 L10.7093105,102.401954 L10.7093105,38.5339408 C10.7093105,26.2140636 7.53059535,12.6222185 2.03685352,0.827348259 L2.03685352,0.827348259 C1.79069518,0.297361627 1.26707514,0 0.721400443,0 L0.721400443,0 C0.483067949,0 0.239755374,0.0569113162 0.0135173653,0.17642508" id="Fill-73" fill="url(#linearGradient-3)" mask="url(#mask-2)"></path>
                    </g>
                    <g id="left-arm-line" transform="translate(99.652151, 182.592631)">
                        <mask id="mask-5" fill="white">
                            <use xlink:href="#path-4"></use>
                        </mask>
                        <g id="Clip-77"></g>
                        <path d="M-2.02203489e-14,0 C1.3247018,6.0418476 2.02191327,12.0210928 2.02191327,17.5393563 L2.02191327,17.5393563 L2.02191327,81.4073694 L3.54795267,81.4073694 L3.54795267,17.5393563 C3.54795267,11.8631639 2.87066153,5.9173541 1.60572071,0 L1.60572071,0 L-2.02203489e-14,0 Z" id="Fill-76" fill="url(#linearGradient-6)" mask="url(#mask-5)"></path>
                    </g>
                    <g id="collar" transform="translate(110.158701, 125.129275)">
                        <mask id="mask-8" fill="white">
                            <use xlink:href="#path-7"></use>
                        </mask>
                        <g id="Clip-80"></g>
                        <polygon id="Fill-79" fill="url(#linearGradient-9)" mask="url(#mask-8)" points="5.92487464 0 0 8.40935835 31.7103161 9.17268138 28.7699334 0"></polygon>
                    </g>
                    <g id="smiley-faces" transform="translate(0.000000, 0.000213)">
                        <path d="M283.848308,234.452498 C283.848308,245.485468 274.904081,254.42837 263.871065,254.42837 C252.837338,254.42837 243.893822,245.485468 243.893822,234.452498 C243.893822,223.42024 252.837338,214.476626 263.871065,214.476626 C274.904081,214.476626 283.848308,223.42024 283.848308,234.452498" id="Fill-82" fill="#FED147"></path>
                        <path d="M253.976852,237.3946 L275.40401,237.3946 C275.40401,237.3946 273.149456,247.804391 264.515417,247.804391 C255.880666,247.804391 253.976852,237.3946 253.976852,237.3946" id="Fill-84" fill="#FEFEFE"></path>
                        <path d="M273.651235,229.293488 C273.701035,229.126311 273.736607,228.952731 273.736607,228.769192 C273.736607,227.754036 272.913471,226.930956 271.898246,226.930956 C270.883021,226.930956 270.059884,227.754036 270.059884,228.769192 C270.059884,228.952731 270.095456,229.126311 270.145257,229.293488 L273.651235,229.293488 Z" id="Fill-86" fill="#FEFEFE"></path>
                        <path d="M259.200104,229.293488 C259.249905,229.126311 259.285477,228.952731 259.285477,228.769192 C259.285477,227.754036 258.463052,226.930956 257.447115,226.930956 C256.43189,226.930956 255.608753,227.754036 255.608753,228.769192 C255.608753,228.952731 255.644325,229.126311 255.694126,229.293488 L259.200104,229.293488 Z" id="Fill-88" fill="#FEFEFE"></path>
                        <path d="M185.880065,16.2887301 C185.880065,25.2849864 178.587091,32.5774602 169.590217,32.5774602 C160.593343,32.5774602 153.300369,25.2849864 153.300369,16.2887301 C153.300369,7.29247377 160.593343,0 169.590217,0 C178.587091,0 185.880065,7.29247377 185.880065,16.2887301" id="Fill-90" fill="#FED147"></path>
                        <path d="M161.522271,18.6879689 L178.994532,18.6879689 C178.994532,18.6879689 177.156882,27.1762917 170.115758,27.1762917 C163.075345,27.1762917 161.522271,18.6879689 161.522271,18.6879689" id="Fill-92" fill="#FEFEFE"></path>
                        <path d="M177.565818,12.0818456 C177.60637,11.9452584 177.635539,11.8036915 177.635539,11.6535879 C177.635539,10.8262397 176.96394,10.1553975 176.135823,10.1553975 C175.308418,10.1553975 174.63753,10.8262397 174.63753,11.6535879 C174.63753,11.8036915 174.665987,11.9452584 174.70654,12.0818456 L177.565818,12.0818456 Z" id="Fill-94" fill="#FEFEFE"></path>
                        <path d="M165.781877,12.0818456 C165.823141,11.9452584 165.851598,11.8036915 165.851598,11.6535879 C165.851598,10.8262397 165.179998,10.1553975 164.351882,10.1553975 C163.524477,10.1553975 162.853589,10.8262397 162.853589,11.6535879 C162.853589,11.8036915 162.882046,11.9452584 162.922598,12.0818456 L165.781877,12.0818456 Z" id="Fill-96" fill="#FEFEFE"></path>
                        <g id="Group-100" transform="translate(0.000000, 63.455548)">
                            <mask id="mask-11" fill="white">
                                <use xlink:href="#path-10"></use>
                            </mask>
                            <g id="Clip-99"></g>
                            <path d="M57.2764917,28.6363515 C57.2764917,44.4512949 44.454915,57.272703 28.6381747,57.272703 C12.8221459,57.272703 -0.000142288056,44.4512949 -0.000142288056,28.6363515 C-0.000142288056,12.8214081 12.8221459,0 28.6381747,0 C44.454915,0 57.2764917,12.8214081 57.2764917,28.6363515" id="Fill-98" fill="#FED147" mask="url(#mask-11)"></path>
                        </g>
                        <path d="M14.4549013,96.3098821 L45.1713353,96.3098821 C45.1713353,96.3098821 41.9399736,111.232029 29.5623356,111.232029 C17.1846976,111.232029 14.4549013,96.3098821 14.4549013,96.3098821" id="Fill-101" fill="#FEFEFE"></path>
                        <path d="M42.6589551,84.6966301 C42.7308106,84.4568912 42.7813229,84.2079042 42.7813229,83.9439779 C42.7813229,82.488471 41.6017549,81.308984 40.1461481,81.308984 C38.6905413,81.308984 37.5109733,82.488471 37.5109733,83.9439779 C37.5109733,84.2079042 37.5614855,84.4568912 37.633341,84.6966301 L42.6589551,84.6966301 Z" id="Fill-103" fill="#FEFEFE"></path>
                        <path d="M21.9430948,84.6966301 C22.0149503,84.4568912 22.0654625,84.2079042 22.0654625,83.9439779 C22.0654625,82.488471 20.8858946,81.308984 19.4302877,81.308984 C17.9746809,81.308984 16.795113,82.488471 16.795113,83.9439779 C16.795113,84.2079042 16.8449138,84.4568912 16.9174807,84.6966301 L21.9430948,84.6966301 Z" id="Fill-105" fill="#FEFEFE"></path>
                    </g>
                </g>
            </g>
        </g>
    </g>
</svg>