<?xml version="1.0" encoding="UTF-8"?>
<svg width="386px" height="368px" viewBox="0 0 386 368" version="1.1" xmlns="http://www.w3.org/2000/svg" xmlns:xlink="http://www.w3.org/1999/xlink">
    <title>illus-app-submission-step-1</title>
    <defs>
        <polygon id="path-1" points="0.0667706044 1.04081209 34.3883451 11.8519846 16.2890599 1.86256264 7.04895247 0.0140285714"></polygon>
        <linearGradient x1="-0.000385708278%" y1="49.9998709%" x2="100.000008%" y2="49.9998709%" id="linearGradient-3">
            <stop stop-color="#DFEFE9" offset="0%"></stop>
            <stop stop-color="#BFE2ED" offset="100%"></stop>
        </linearGradient>
        <polygon id="path-4" points="0.0714917582 3.98236071 9.95596923 8.97869038 41.1824901 9.90700412 4.90703242 0.057732967"></polygon>
        <linearGradient x1="9.61368097e-06%" y1="50.000032%" x2="99.9999753%" y2="50.000032%" id="linearGradient-6">
            <stop stop-color="#DFEFE9" offset="0%"></stop>
            <stop stop-color="#BFE2ED" offset="100%"></stop>
        </linearGradient>
        <polygon id="path-7" points="0.0495046703 3.63636758 25.8623459 6.05508214 27.8078659 0.0849807692"></polygon>
        <linearGradient x1="-2.75044344e-05%" y1="49.9997727%" x2="100.000219%" y2="49.9997727%" id="linearGradient-9">
            <stop stop-color="#DFEFE9" offset="0%"></stop>
            <stop stop-color="#BFE2ED" offset="100%"></stop>
        </linearGradient>
        <polygon id="path-10" points="19.0980115 15.7887525 22.4347882 7.18289835 0.0495046703 0.129224725"></polygon>
        <linearGradient x1="-3.41062478e-05%" y1="49.999719%" x2="99.9999634%" y2="49.999719%" id="linearGradient-12">
            <stop stop-color="#DFEFE9" offset="0%"></stop>
            <stop stop-color="#BFE2ED" offset="100%"></stop>
        </linearGradient>
    </defs>
    <g id="Page-2-Illustrations" stroke="none" stroke-width="1" fill="none" fill-rule="evenodd">
        <g id="PECOS-2.0-Illustrations-v31" transform="translate(-41.000000, -1373.000000)">
            <g id="Application-Submission-Step-1-&amp;-3" transform="translate(25.000000, 1315.000000)">
                <g id="Step-1" transform="translate(15.000000, 33.000000)">
                    <g id="illus-app-submission-step-1" transform="translate(1.473543, 25.438394)">
                        <g id="Group-36">
                            <path d="M234.390963,170.037158 C236.266205,172.049179 237.422349,174.740236 237.422349,177.707549 C237.422349,183.928681 232.379212,188.971817 226.15808,188.971817 C219.936948,188.971817 214.893677,183.928681 214.893677,177.707549 C214.893677,173.954097 216.736815,170.638633 219.559661,168.591675 L183.405199,165.068076 L155.322832,243.799926 C179.622611,252.429116 207.470944,250.382563 231.137279,235.809036 C254.183254,221.617652 268.406607,198.538089 272.121211,173.714397 L234.390963,170.037158 Z" id="Fill-2" fill="#12375A"></path>
                            <path d="M74.1524522,251.879425 C75.894423,250.438125 77.7341893,249.34565 79.6548895,248.521876 L83.0833915,220.874124 C83.0833915,220.874124 61.7557813,165.127549 20.1125066,159.671649 C-10.0668624,200.17173 29.9870022,240.695552 29.9870022,240.695552 L69.4155162,257.227953 C70.7870788,255.162381 72.4137187,253.318028 74.1524522,251.879425" id="Fill-4" fill="#63C0C4"></path>
                            <path d="M73.95875,252.04909 L48.9491794,208.416186 L61.0961687,184.53052 C60.7892937,184.172792 60.4786417,183.816277 60.1654269,183.460572 L48.1676261,207.052987 L21.0947763,159.819866 C20.767398,159.770361 20.4424478,159.714922 20.1125066,159.671757 C19.9936684,159.831197 19.8856214,159.990502 19.7689415,160.149807 L34.2689538,185.447368 L10.1771755,180.527656 C10.1242986,180.755351 10.0789755,180.981831 10.029336,181.208986 L9.90618129,181.813024 L35.138995,186.965826 L59.3032093,229.123842 L16.7455145,221.838022 C17.0038291,222.334148 17.2636274,222.824608 17.5258538,223.304817 L60.1503192,230.601967 L72.962047,252.953798 C73.2895601,252.63856 73.6213898,252.335597 73.95875,252.04909" id="Fill-6" fill="#FFFFFF"></path>
                            <path d="M65.3577249,268.740554 C65.5554738,263.566574 68.3083112,257.960272 71.9445439,253.997065 L68.8300661,245.622278 C68.8300661,245.622278 27.3746933,217.992872 9.44230769e-05,237.231304 C2.43418646,279.217739 36.3470439,295.273439 62.0653271,301.416469 C62.0660016,301.12713 62.0664062,300.837656 62.0774672,300.549935 C62.2961241,294.828571 65.6365428,288.575336 69.8445746,284.604575 C66.7897183,279.871956 65.1510733,274.145466 65.3577249,268.740554" id="Fill-8" fill="#12375A"></path>
                            <path d="M65.6001629,273.243699 L37.900344,257.718791 L30.1896206,230.882404 C29.7192588,230.823592 29.2482225,230.770445 28.7759723,230.722289 L36.2700621,256.805315 L0.612131319,236.820536 C0.408447253,236.957585 0.203144505,237.088698 0.000944230769,237.230737 L0,237.232221 C0.0152425824,237.494987 0.0354760989,237.753841 0.0531467033,238.014584 L58.9096135,271.001555 L24.8835832,284.822261 C25.2925701,285.133048 25.7045245,285.4379 26.1189069,285.739109 L60.3772179,271.82398 L65.8919302,274.914717 C65.7775434,274.35897 65.6790736,273.801874 65.6001629,273.243699" id="Fill-10" fill="#00666B"></path>
                            <path d="M239.215794,0 C210.849078,28.1931121 225.516624,75.6129209 229.84255,87.5444907 C231.146532,88.5782885 232.345436,89.7355107 233.406076,91.0053662 L279.563179,103.303837 C279.563179,103.303837 311.510822,32.2889154 239.215794,0" id="Fill-12" fill="#12375A"></path>
                            <path d="M239.215794,0 C239.467498,0.112363462 239.713133,0.226885165 239.962006,0.340192857 L250.683476,73.5648843 L280.718917,38.520164 C280.926783,38.9910654 281.1275,39.4621016 281.322416,39.9338124 L250.9484,75.3736258 L254.042105,96.5037569 L252.592981,96.1175665 L246.42567,53.9958365 L246.425535,53.9962412 L222.259972,42.5154742 C222.278587,42.0175948 222.29909,41.5194456 222.326068,41.0200824 L246.1857,52.355303 L238.611351,0.624676099 C238.813956,0.41694533 239.008602,0.205842308 239.215524,0 L239.215794,0 Z" id="Fill-14" fill="#00666B"></path>
                            <path d="M248.603821,82.0613965 C248.603821,82.0613965 260.534042,12.7528347 310.822829,0.798063846 C346.113184,40.3423136 307.991755,86.4043185 307.991755,86.4043185 L259.54206,111.951966 L248.603821,82.0613965 Z" id="Fill-16" fill="#44BDBF"></path>
                            <path d="M285.877547,52.9188604 L309.80975,1.04376618 C310.14738,0.961752995 310.482042,0.873804643 310.822775,0.798131291 C310.961712,0.953794478 311.089453,1.11026701 311.226096,1.26606508 L298.408299,29.0497857 L323.136084,21.6801994 C323.212566,21.9131546 323.280956,22.1458401 323.353661,22.3785255 L323.538326,22.9987502 L297.63902,30.7174321 L276.277957,77.018867 L320.089456,65.4687665 C319.865268,66.0111596 319.639192,66.5478873 319.409475,67.0740937 L275.529182,78.6421346 L260.360789,111.520385 L259.542006,111.951898 L259.256174,110.621477 L285.186505,54.4161406 L270.281283,30.5717508 C270.568868,30.1692387 270.860636,29.7679406 271.155236,29.367317 L285.877547,52.9188604 Z" id="Fill-18" fill="#24949A"></path>
                            <path d="M344.074145,81.9130714 C316.767935,59.841812 271.41761,85.8492997 271.41761,85.8492997 L258.825484,113.804196 C261.932812,124.592032 262.96027,135.732876 260.348663,146.44477 C286.993911,144.525149 337.528197,133.966086 344.074145,81.9130714" id="Fill-20" fill="#7FD3D6"></path>
                            <path d="M343.963238,82.7295342 C343.999928,82.4577307 344.039451,82.1882202 344.073848,81.9141235 L344.073848,81.9123699 C343.871378,81.7492878 343.66567,81.5976713 343.461986,81.4398499 L304.720198,99.8518103 L314.403959,73.0708628 C313.906214,73.0879938 313.409279,73.1105205 312.912749,73.1388474 L302.948956,100.693525 L260.53411,120.851368 C260.6257,121.319167 260.712569,121.7871 260.795122,122.255304 L278.421887,113.878089 L313.310135,130.860753 C313.765254,130.574652 314.21808,130.284233 314.667939,129.98788 L280.016558,113.120411 L343.963238,82.7295342 Z" id="Fill-22" fill="#FFFFFF"></path>
                            <polygon id="Fill-24" fill="#C59C6E" points="93.3824537 207.036625 83.7912273 232.099747 77.7451828 227.601027 91.2542924 204.826855"></polygon>
                            <path d="M92.1940718,199.457878 C91.5889548,200.203415 91.2801913,201.145893 91.3268633,202.104826 L90.9031735,205.722849 L91.3970062,206.283183 L93.0943284,207.7895 C93.0343023,207.040321 92.949996,207.7895 92.949996,207.7895 L95.678688,203.039345 C95.678688,203.039345 98.978235,200.923459 94.8167402,197.801832 C94.4189493,197.50332 93.8618531,197.437494 93.4488196,197.714288 C92.4125938,198.409242 92.1940718,199.457878 92.1940718,199.457878" id="Fill-26" fill="#F39F85"></path>
                            <path d="M72.2105741,250.201204 C79.0975236,240.959073 83.7911599,232.09976 83.7911599,232.09976 L78.5896623,226.17768 L72.2105741,233.613497 L72.2105741,250.201204 Z" id="Fill-28" fill="#00666B"></path>
                            <path d="M268.83062,90.3307943 L271.996356,79.3210635 C272.367574,79.4276267 272.763072,79.4879226 273.187166,79.4716009 C274.784535,79.4104956 276.250656,77.8941959 276.330645,76.2918363 C276.938056,75.9021388 277.319255,75.1744066 277.522669,74.4826901 L284.611414,77.8169039 C284.611414,77.8169039 281.34532,90.0276962 276.716836,94.1530404 C272.088082,98.2782498 257.10786,109.685232 257.10786,109.685232 L254.302416,108.573063 L268.83062,90.3307943 Z" id="Fill-30" fill="#825A46"></path>
                            <path d="M253.472127,109.053258 C253.30891,109.293498 252.671419,110.066553 250.779855,110.835291 C249.082398,111.52485 245.132816,111.925204 246.37893,113.425856 C248.329441,113.805302 250.574148,114.484743 250.574148,114.484743 C251.777098,114.598321 253.517045,113.546852 254.476384,112.686254 L257.10782,109.685353 C257.10782,109.685353 256.815918,107.770318 256.818885,107.677379 L255.979194,107.606832 C255.220438,108.22247 254.369686,108.702814 253.472127,109.053258" id="Fill-32" fill="#C59C6E"></path>
                            <path d="M253.115005,110.006446 C253.115005,110.006446 253.083441,110.108962 252.98686,110.275686 C253.247333,110.296459 253.503354,110.331531 253.756543,110.374426 C254.677033,110.114088 255.605212,109.881942 256.52813,109.631451 C256.30745,109.122781 255.999226,108.407863 255.986546,108.353367 L249.615821,108.794053 C249.615821,108.794053 249.330798,109.568727 250.624934,109.902176 C251.91907,110.235219 253.115005,110.006446 253.115005,110.006446" id="Fill-34" fill="#C59C6E"></path>
                        </g>
                        <g id="Group-39" transform="translate(114.613820, 35.206386)">
                            <mask id="mask-2" fill="white">
                                <use xlink:href="#path-1"></use>
                            </mask>
                            <g id="Clip-38"></g>
                            <polygon id="Fill-37" fill="url(#linearGradient-3)" mask="url(#mask-2)" points="0.0667706044 1.04081209 34.3883451 11.8519846 16.2890599 1.86256264 7.04895247 0.0140285714"></polygon>
                        </g>
                        <g id="Group-44" transform="translate(114.074259, 36.150617)">
                            <polyline id="Fill-40" fill="#AFD8C7" points="34.9279055 10.9077269 1.03582115 2.19530956 0.606196154 0.0965543407"></polyline>
                            <polygon id="Fill-42" fill="#63C0C4" points="0.0686320879 8.01008497 0.112066703 8.08090228 1.53434802 13.3425608 34.8420884 10.9099526"></polygon>
                        </g>
                        <g id="Group-47" transform="translate(107.599534, 37.094848)">
                            <mask id="mask-5" fill="white">
                                <use xlink:href="#path-4"></use>
                            </mask>
                            <g id="Clip-46"></g>
                            <polygon id="Fill-45" fill="url(#linearGradient-6)" mask="url(#mask-5)" points="0.0714917582 3.98236071 9.95596923 8.97869038 41.1824901 9.90700412 4.90703242 0.057732967"></polygon>
                        </g>
                        <g id="Group-84" transform="translate(22.079204, 36.825067)">
                            <path d="M9.35615338,71.4012605 C10.4636012,71.011428 11.5607973,70.5351311 12.616852,69.9862632 C12.8589798,69.861355 13.1542542,69.955778 13.2810509,70.1966918 C13.406094,70.4378753 13.3123454,70.7346335 13.0704874,70.8608907 C11.97491,71.4303967 10.8341443,71.9250388 9.68312701,72.3305184 C9.26645146,72.4776835 8.84748277,72.6137877 8.42608607,72.7399099 C8.27150201,72.7869866 8.11192701,72.7538036 7.99120036,72.6645063 C7.90864761,72.6031313 7.84390036,72.5157226 7.81314541,72.4103734 C7.73436959,72.1499006 7.88261382,71.8755341 8.14254706,71.7975676 C8.54937563,71.6750874 8.95391107,71.5424904 9.35615338,71.4012605" id="Fill-48" fill="#63C0C4"></path>
                            <path d="M75.6884998,0.582630852 C77.2251679,0.779840192 78.8246949,1.03248937 80.5785361,1.3566303 C80.8456185,1.40640475 81.0211105,1.66229129 80.9736292,1.93031794 C80.9239896,2.19767014 80.6671589,2.37464596 80.3998067,2.32527618 C78.6640407,2.0045075 77.0816449,1.75428635 75.5634567,1.55977481 C75.4769921,1.54844404 75.3987559,1.51553085 75.3329295,1.46683552 C75.1946671,1.36445393 75.1140028,1.19179459 75.1373388,1.00861382 C75.1721405,0.738563819 75.4187196,0.547829203 75.6884998,0.582630852" id="Fill-50" fill="#63C0C4"></path>
                            <path d="M67.4759448,0.959581264 C67.3561624,0.870823571 67.2783308,0.728784286 67.2762935,0.568130165 C67.2742841,0.296326593 67.492806,0.0738928022 67.7651492,0.0714647802 C69.3445775,0.0573013187 71.0151915,0.123397473 72.7291052,0.26705544 C73.0000995,0.289312308 73.2027044,0.527932912 73.1778846,0.798657363 C73.155358,1.06992137 72.9178165,1.2714472 72.6465525,1.2482461 C70.9628541,1.10742082 69.3232648,1.04280846 67.7729728,1.05602769 C67.662228,1.0572417 67.5594418,1.02136093 67.4759448,0.959581264" id="Fill-52" fill="#63C0C4"></path>
                            <path d="M18.857408,65.4652458 C19.0517847,65.2753205 19.3627064,65.2722181 19.5531712,65.4741486 C19.7429616,65.6686601 19.739994,65.9801214 19.5439987,66.1701815 C18.3510306,67.3353623 17.0434059,68.3981615 15.6580844,69.3264752 C15.4812435,69.4457181 15.2532792,69.4337129 15.0911413,69.3133909 C15.0470322,69.2808824 15.0072396,69.2406851 14.9751358,69.19172 C14.823924,68.9660488 14.8842199,68.660253 15.1100259,68.5089063 C16.4446287,67.6135057 17.7054465,66.5892851 18.857408,65.4652458" id="Fill-54" fill="#63C0C4"></path>
                            <path d="M20.887086,64.0236078 C20.6762528,63.8508135 20.6463072,63.5407012 20.8188316,63.3304075 C21.0968402,62.9903495 21.3672948,62.6446262 21.6287119,62.2916188 C22.3286566,61.3464438 22.9650682,60.3510896 23.5202759,59.3332089 C23.6503099,59.0944534 23.9490915,59.0061004 24.1877121,59.1362693 C24.4201278,59.2653591 24.51563,59.5664339 24.3847866,59.8046498 C23.8084012,60.8623232 23.1470349,61.8962559 22.4201121,62.8778512 C22.1491179,63.243808 21.8689512,63.6030204 21.5796119,63.9548138 C21.4128877,64.1586328 21.1162643,64.1941089 20.9061055,64.0383108 C20.9000355,64.0337245 20.8931561,64.0285987 20.887086,64.0236078" id="Fill-56" fill="#63C0C4"></path>
                            <path d="M25.0314633,57.3568799 C24.9930196,57.3410978 24.9576784,57.3207294 24.9258443,57.2973934 C24.7490034,57.1662802 24.6760278,56.92712 24.764246,56.7142634 C25.3481852,55.2937357 25.8386457,53.7862038 26.2623355,52.1053382 C26.3284317,51.8414931 26.5964583,51.6816483 26.8597638,51.7478794 C27.1215855,51.8142453 27.2834537,52.0826766 27.2165482,52.3455774 C26.782202,54.0731151 26.2770385,55.6248909 25.6740798,57.0888533 C25.5711586,57.3406931 25.2827635,57.4604755 25.0314633,57.3568799" id="Fill-58" fill="#63C0C4"></path>
                            <path d="M38.0875579,15.3424955 C37.677492,15.8430727 37.2794313,16.3532271 36.8948596,16.872554 C36.3144274,17.6564005 35.760164,18.4677645 35.2473118,19.2849288 C35.1031143,19.515456 34.7989371,19.5847895 34.5684099,19.4404571 C34.5578884,19.4337126 34.5475019,19.4265634 34.5365758,19.4186049 C34.332622,19.2676628 34.2755634,18.9811562 34.4138258,18.7622296 C34.9390879,17.9234829 35.5076497,17.0906713 36.1031895,16.2865914 C36.4977431,15.7539104 36.905381,15.2306716 37.3267777,14.7182241 C37.4990324,14.5082002 37.7939022,14.449523 38.0201129,14.6501046 C38.2297321,14.822629 38.2600824,15.1322018 38.0875579,15.3424955" id="Fill-60" fill="#63C0C4"></path>
                            <path d="M33.7962989,21.8132011 C33.0434772,23.2547717 32.3865623,24.7497588 31.8445739,26.2560766 C31.7527137,26.5123678 31.4702538,26.6448299 31.2142324,26.5527 C31.1681,26.5359736 31.1261491,26.5133121 31.088245,26.48512 C30.9181486,26.3594024 30.8424752,26.1319777 30.9181486,25.9231678 C31.4748401,24.3744945 32.1494255,22.838231 32.9230203,21.3568678 C33.0491426,21.1156843 33.3467101,21.0224752 33.5873541,21.1480579 C33.8253002,21.2716173 33.9228258,21.5712082 33.7962989,21.8132011" id="Fill-62" fill="#63C0C4"></path>
                            <path d="M43.5864342,9.85303459 C42.3331702,10.8810321 41.1338622,11.993336 40.0215584,13.1591912 C39.8486293,13.3411579 39.5692718,13.3611217 39.3728718,13.215845 C39.3558757,13.2031654 39.3403633,13.1898112 39.3249859,13.175378 C39.1285859,12.9880156 39.1213018,12.6764195 39.3089339,12.4796148 C40.4486205,11.2847582 41.677874,10.1450717 42.960679,9.09157992 C43.1708378,8.91919036 43.4817595,8.9472475 43.654149,9.16010409 C43.8265386,9.37012799 43.7956488,9.68010547 43.5864342,9.85303459" id="Fill-64" fill="#63C0C4"></path>
                            <path d="M52.664053,4.24949709 C52.4965195,4.32395643 52.3095618,4.29684352 52.1719739,4.19500148 C52.1053382,4.14576659 52.0507077,4.07940066 52.0148269,3.9983317 C51.9043519,3.74972923 52.01712,3.45877126 52.2657225,3.34897071 C53.7913296,2.67384571 55.3652274,2.09516714 56.9429022,1.62763802 C57.2055332,1.55102044 57.4780112,1.70007401 57.5548986,1.95973747 C57.6323255,2.22048005 57.4834068,2.49444187 57.2226643,2.5717339 C55.6851868,3.0272578 54.1516211,3.5919078 52.664053,4.24949709" id="Fill-66" fill="#63C0C4"></path>
                            <path d="M28.4029337,42.0245956 C28.3135015,42.0140741 28.2329721,41.9807563 28.165662,41.9309818 C28.0296927,41.830084 27.9484889,41.6599876 27.9698015,41.4795046 L28.0396746,40.8598195 C28.2026218,39.4325472 28.3654342,38.0037912 28.5541455,36.5804307 C28.5898913,36.3109203 28.8378194,36.1216695 29.10706,36.1570107 C29.3765705,36.1941055 29.5659562,36.4393357 29.530615,36.7100601 C29.342713,38.1273505 29.18071,39.5499016 29.0185721,40.9713736 L28.9477548,41.590789 C28.9171348,41.8615134 28.6731185,42.0553505 28.4029337,42.0245956" id="Fill-68" fill="#63C0C4"></path>
                            <path d="M45.9073534,8.08424755 C45.7291636,8.21023492 45.4968828,8.20106239 45.3305633,8.07804261 C45.2895567,8.04742255 45.252462,8.01032777 45.2210326,7.96567915 C45.0644251,7.74378492 45.1173021,7.43637036 45.3397359,7.27976294 C46.6976746,6.32204316 48.1241375,5.44148052 49.5783878,4.66208547 C49.8191666,4.53420964 50.1155202,4.62526047 50.2451496,4.86388107 C50.3730254,5.10331102 50.2835933,5.40209261 50.0434889,5.53064288 C48.6241751,6.29034398 47.2326488,7.14959398 45.9073534,8.08424755" id="Fill-70" fill="#63C0C4"></path>
                            <path d="M28.1719478,43.9814194 C28.4437514,44.0168955 28.6328673,44.260642 28.5986052,44.5320409 C28.3570171,46.4497735 28.1190709,48.0060007 27.8522583,49.4299007 C27.8015396,49.6969832 27.544439,49.872745 27.2766822,49.8222961 C27.2011437,49.8079977 27.1328893,49.7773777 27.0748866,49.7344826 C26.9279912,49.6257612 26.8481363,49.4396128 26.8836124,49.2476642 C27.1474574,47.8441326 27.382436,46.30679 27.6222706,44.4086164 C27.6558583,44.1384315 27.9025723,43.9476969 28.1719478,43.9814194" id="Fill-72" fill="#63C0C4"></path>
                            <path d="M5.32302003,72.4909163 C5.58902332,72.4389836 5.8485519,72.6119127 5.90061948,72.87913 C5.95336151,73.1458077 5.77962305,73.4046619 5.51240574,73.4568643 C3.97749118,73.7600973 2.36177745,73.9686374 0.573674148,74.0948946 C0.451193929,74.1035275 0.337076896,74.0669723 0.245756291,73.9993924 C0.134471951,73.9169745 0.0582590385,73.78748 0.0476027198,73.6384264 C0.0284483242,73.3670275 0.232671951,73.1316443 0.504205742,73.112355 C2.25076288,72.9887957 3.82735849,72.7847069 5.32302003,72.4909163" id="Fill-74" fill="#63C0C4"></path>
                            <path d="M30.6290791,28.4339584 C30.8903612,28.5061246 31.0481827,28.7742861 30.9768258,29.0374567 C30.588747,30.4859067 30.2562428,32.0451015 29.9612382,33.8043383 C29.9167244,34.0727696 29.6623217,34.2531177 29.3949695,34.2087389 C29.3151145,34.195115 29.2437577,34.1639554 29.1827873,34.1187672 C29.0388596,34.012204 28.9581953,33.830507 28.9902991,33.6416609 C29.2897552,31.8504551 29.6290038,30.2610449 30.0263901,28.7823795 C30.096398,28.5196136 30.366448,28.3635457 30.6290791,28.4339584" id="Fill-76" fill="#63C0C4"></path>
                            <path d="M63.0548675,0.363434423 C63.629904,0.295045137 64.2057499,0.239605302 64.7814609,0.195631126 C65.051376,0.17580228 65.2893221,0.378002555 65.3095557,0.649536346 C65.3301938,0.920800357 65.1271842,1.15793717 64.8559202,1.17830558 C64.2934285,1.2202564 63.7325554,1.27461712 63.1711427,1.34111794 C62.1306004,1.46467728 61.0796716,1.63787618 60.0478971,1.85626327 C59.904509,1.88661354 59.762065,1.85113745 59.6532087,1.77033827 C59.5595949,1.70113964 59.4903963,1.59902783 59.4646323,1.47695228 C59.4081134,1.21081409 59.5780749,0.94872261 59.8444829,0.893147885 C60.9049889,0.668151181 61.9854587,0.490635797 63.0548675,0.363434423" id="Fill-78" fill="#63C0C4"></path>
                            <polygon id="Fill-80" fill="#AFD8C7" points="356.747853 131.907582 359.863814 138.035774 353.320295 136.542541 330.935012 129.488867"></polygon>
                            <polygon id="Fill-82" fill="#63C0C4" points="359.86376 138.03572 348.747467 137.344948 351.471437 135.959896"></polygon>
                        </g>
                        <g id="Group-87" transform="translate(352.964644, 162.677540)">
                            <mask id="mask-8" fill="white">
                                <use xlink:href="#path-7"></use>
                            </mask>
                            <g id="Clip-86"></g>
                            <polygon id="Fill-85" fill="url(#linearGradient-9)" mask="url(#mask-8)" points="0.0495046703 3.63636758 25.8623459 6.05508214 27.8078659 0.0849807692"></polygon>
                        </g>
                        <g id="Group-90" transform="translate(352.964644, 166.184683)">
                            <mask id="mask-11" fill="white">
                                <use xlink:href="#path-10"></use>
                            </mask>
                            <g id="Clip-89"></g>
                            <polygon id="Fill-88" fill="url(#linearGradient-12)" mask="url(#mask-11)" points="19.0980115 15.7887525 22.4347882 7.18289835 0.0495046703 0.129224725"></polygon>
                        </g>
                        <g id="Group-227" transform="translate(52.426849, 40.000424)">
                            <path d="M327.061885,141.027175 C327.120292,140.997499 327.173979,140.956628 327.219437,140.90429 C327.409092,140.686847 327.386161,140.356636 327.168043,140.166711 C326.480643,139.568473 325.740097,139.034578 324.967986,138.581483 C324.718979,138.433373 324.398884,138.517005 324.252394,138.767361 C324.106308,139.016368 324.189535,139.336732 324.438677,139.482818 C325.155483,139.903541 325.842748,140.398992 326.481857,140.955683 C326.647368,141.099476 326.87749,141.120789 327.061885,141.027175" id="Fill-91" fill="#63C0C4"></path>
                            <path d="M313.346825,154.855785 C311.881109,154.179851 310.080731,154.010429 308.531788,154.40215 C308.251756,154.472967 307.967003,154.303141 307.89659,154.023513 C307.825773,153.743212 307.996948,153.460347 308.275092,153.388181 C310.07547,152.932792 312.083714,153.121908 313.785218,153.906429 C314.04704,154.027156 314.161427,154.337942 314.040565,154.600438 C313.989981,154.711048 313.904461,154.795624 313.803428,154.847152 C313.665436,154.917026 313.497902,154.925659 313.346825,154.855785 M304.605676,160.828045 C304.325779,160.898188 304.041296,160.727687 303.971828,160.447385 C303.60034,158.961436 303.74818,157.51946 304.400104,156.277797 C304.636566,155.828208 304.937101,155.414635 305.292537,155.049083 C305.492848,154.841082 305.825218,154.837036 306.031869,155.038427 C306.239195,155.239683 306.243512,155.570703 306.042391,155.777894 C305.756424,156.071685 305.51551,156.403649 305.325585,156.764211 C304.787778,157.789376 304.673796,158.943226 304.986201,160.194196 C305.046227,160.434975 304.929008,160.678587 304.716286,160.786634 C304.681754,160.804439 304.644794,160.818333 304.605676,160.828045 M331.603932,148.027513 C331.330509,148.121127 331.033077,147.975715 330.939598,147.702563 C330.686679,146.966198 330.381018,146.243187 330.030843,145.554708 C329.607288,144.721896 329.112511,143.927393 328.560811,143.194401 C328.387072,142.964008 328.433475,142.635956 328.664406,142.462622 C328.896013,142.286455 329.222852,142.334341 329.39605,142.565948 C329.984711,143.347096 330.511727,144.193262 330.962934,145.080839 C331.335096,145.812618 331.660181,146.580547 331.928882,147.363179 C332.014267,147.612726 331.90042,147.882371 331.671647,147.998647 C331.650199,148.009438 331.627672,148.019285 331.603932,148.027513 M319.060905,160.524273 C317.937136,158.780548 316.910487,157.51393 315.830692,156.539484 C315.615947,156.345782 315.59922,156.015166 315.792518,155.80096 C315.98622,155.587969 316.31697,155.570029 316.531176,155.762921 C317.681923,156.801171 318.764821,158.134694 319.940523,159.958004 C320.096456,160.200671 320.026718,160.524138 319.783916,160.68115 C319.768673,160.690592 319.753161,160.69936 319.737379,160.707588 C319.501052,160.82764 319.2078,160.752237 319.060905,160.524273 M309.600792,167.001831 C309.177372,166.785197 308.763934,166.545902 308.372617,166.291095 C307.236843,165.55365 306.214511,164.577046 305.417175,163.46744 C305.248832,163.232866 305.301979,162.906162 305.536553,162.737684 C305.769643,162.569881 306.097696,162.622488 306.266173,162.857062 C306.988645,163.862128 307.914396,164.746333 308.942528,165.414309 C309.304303,165.649827 309.685908,165.870912 310.077359,166.071224 C310.334459,166.202741 310.435897,166.517845 310.304244,166.77481 C310.252041,166.876922 310.171242,166.954214 310.076549,167.002505 C309.932082,167.075885 309.755781,167.081281 309.600792,167.001831 M332.044887,156.382202 C331.760539,156.332697 331.570614,156.061433 331.620119,155.777085 C331.909593,154.124816 331.92578,152.411577 331.6676,150.684983 C331.624705,150.399691 331.821644,150.132204 332.107477,150.090792 C332.393444,150.047897 332.659177,150.244972 332.701667,150.530534 C332.976169,152.368816 332.959173,154.194554 332.650139,155.957703 C332.620868,156.126046 332.513361,156.26161 332.371726,156.333507 C332.27447,156.383146 332.160893,156.402435 332.044887,156.382202 M318.08565,168.578156 C316.226055,168.736652 314.403824,168.594883 312.670351,168.155276 C312.39005,168.084054 312.220897,167.80011 312.29185,167.520078 C312.362937,167.238832 312.648094,167.06968 312.926912,167.141442 C314.547482,167.552587 316.253033,167.684914 317.996622,167.53613 C318.284343,167.51185 318.537262,167.725111 318.562216,168.012697 C318.580831,168.231219 318.461993,168.429777 318.278003,168.523256 C318.219865,168.553067 318.154713,168.572356 318.08565,168.578156 M328.013292,163.668291 C327.80637,163.467305 327.801784,163.13615 328.00358,162.929228 C328.742508,162.169797 329.38445,161.335232 329.910926,160.449004 C330.239114,159.89582 330.531016,159.310531 330.778134,158.708382 C330.88753,158.441839 331.192247,158.312749 331.460274,158.423224 C331.727356,158.532755 331.855097,158.838281 331.745297,159.105498 C331.479158,159.754724 331.164325,160.38628 330.810103,160.982764 C330.241407,161.939809 329.549016,162.839931 328.752625,163.658579 C328.711888,163.700935 328.665351,163.734387 328.615037,163.760016 C328.4212,163.858621 328.177993,163.828541 328.013292,163.668291 M323.882552,168.068541 C323.623833,168.195608 323.310618,168.089045 323.182742,167.829786 C323.11813,167.698268 323.052843,167.566346 322.986747,167.435367 C322.434372,167.651191 321.869857,167.839768 321.296034,167.999208 C321.018026,168.0765 320.729631,167.913823 320.652069,167.63514 C320.574642,167.357401 320.733408,167.072513 321.016137,166.991309 C321.521705,166.851158 322.019585,166.686862 322.508022,166.499095 C321.964684,165.458957 321.366447,164.378083 320.690512,163.214656 C320.545506,162.965379 320.630082,162.645015 320.880303,162.500278 C321.126342,162.35662 321.449809,162.439712 321.594681,162.689798 C322.295705,163.895446 322.914041,165.014225 323.474914,166.092941 C324.234885,165.74371 324.967338,165.335128 325.65258,164.877986 C325.893629,164.714094 326.21777,164.782888 326.377884,165.022318 C326.538538,165.262557 326.473386,165.587238 326.233552,165.747622 C325.513508,166.227831 324.745714,166.656512 323.950537,167.024762 C324.008135,167.139284 324.064654,167.25367 324.121442,167.368732 C324.247295,167.625427 324.143969,167.93581 323.889027,168.065304 C323.887273,168.066248 323.88498,168.067327 323.882552,168.068541 M326.822482,175.979442 C326.54299,176.052957 326.256888,175.886772 326.183373,175.607954 C325.765483,174.031763 325.194493,172.375718 324.485781,170.6846 C324.373552,170.417788 324.508847,170.103494 324.765678,170.000168 C325.031951,169.888344 325.338421,170.013522 325.449975,170.280065 C326.177707,172.015696 326.764344,173.717874 327.193565,175.339388 C327.258177,175.582595 327.140823,175.830388 326.925808,175.939514 C326.893569,175.955971 326.858902,175.96892 326.822482,175.979442 M327.548191,184.359895 C327.2602,184.338987 327.043027,184.088631 327.063396,183.80091 L327.078099,183.565392 C327.16308,181.975712 327.076345,180.321824 326.821403,178.650536 C326.777698,178.365648 326.973559,178.096542 327.259391,178.055535 C327.544549,178.011426 327.811496,178.207691 327.855201,178.493793 C328.120799,180.234146 328.210501,181.959795 328.122553,183.622181 L328.107041,183.875369 C328.093147,184.065564 327.979974,184.22379 327.821748,184.30432 C327.739735,184.346001 327.645851,184.366234 327.548191,184.359895 M324.88519,192.311666 C324.63389,192.169088 324.546211,191.850477 324.688925,191.599177 C325.53644,190.107292 326.174335,188.505607 326.585615,186.83904 C326.654814,186.558873 326.938622,186.388102 327.21825,186.456626 C327.498686,186.52623 327.670536,186.810038 327.601068,187.090475 C327.167261,188.849712 326.492676,190.540155 325.597545,192.115536 C325.545747,192.208206 325.468995,192.278214 325.380642,192.323132 C325.2297,192.399885 325.043281,192.402043 324.88519,192.311666 M318.926015,198.1748 C318.779255,197.926467 318.862077,197.605968 319.110814,197.458668 C320.519202,196.626801 321.809156,195.508157 322.945875,194.134032 C323.13027,193.914296 323.459402,193.879764 323.682105,194.064429 C323.904809,194.249093 323.935834,194.57809 323.752383,194.800929 C322.538237,196.268398 321.155614,197.466222 319.642147,198.359465 C319.633109,198.3654 319.622992,198.370121 319.612875,198.375247 C319.369129,198.499346 319.066975,198.413556 318.926015,198.1748" id="Fill-93" fill="#63C0C4"></path>
                            <path d="M316.663085,199.653128 C316.881472,199.542114 316.998017,199.287846 316.928549,199.043695 C316.848964,198.765686 316.560164,198.605437 316.282155,198.683808 C315.479829,198.913121 314.653087,199.052867 313.823918,199.09846 C313.535523,199.113433 313.314168,199.361226 313.330355,199.648677 C313.346407,199.937072 313.592716,200.157887 313.881246,200.141835 C314.787708,200.09233 315.692146,199.940309 316.569201,199.690358 C316.60198,199.680646 316.633409,199.668101 316.663085,199.653128" id="Fill-95" fill="#63C0C4"></path>
                            <polygon id="Fill-97" fill="#AFD8C7" points="319.116804 323.623331 260.929796 142.733265 257.532319 142.733265 315.719326 323.623331"></polygon>
                            <polygon id="Fill-99" fill="#AFD8C7" points="288.269256 323.623331 230.082114 142.733265 226.684637 142.733265 284.871779 323.623331"></polygon>
                            <polygon id="Fill-101" fill="#AFD8C7" points="276.386004 190.896737 276.386004 193.661714 244.4215 193.644044 243.87533 190.878796"></polygon>
                            <polygon id="Fill-103" fill="#AFD8C7" points="269.777576 172.926056 269.777576 175.691303 237.813206 175.673498 237.266766 172.908115"></polygon>
                            <polygon id="Fill-105" fill="#AFD8C7" points="264.313339 154.955496 264.313339 157.720743 232.349239 157.702938 231.802935 154.937691"></polygon>
                            <polygon id="Fill-107" fill="#AFD8C7" points="282.208023 209.098606 282.208023 211.863583 250.243654 211.845778 249.697483 209.080665"></polygon>
                            <polygon id="Fill-109" fill="#AFD8C7" points="287.672125 227.299679 287.672125 230.064791 255.70762 230.047121 255.161315 227.281739"></polygon>
                            <polygon id="Fill-111" fill="#AFD8C7" points="293.324331 246.209317 294.616038 248.975508 262.651669 248.957433 262.105499 246.19232"></polygon>
                            <polygon id="Fill-113" fill="#AFD8C7" points="299.317202 265.12002 300.608909 267.885941 268.644674 267.868136 268.098369 265.102754"></polygon>
                            <polygon id="Fill-115" fill="#AFD8C7" points="304.929493 283.608921 306.221201 286.374978 274.256831 286.357038 273.710931 283.591925"></polygon>
                            <polygon id="Fill-117" fill="#AFD8C7" points="309.57952 302.501441 310.871227 305.267363 278.907127 305.249423 278.360688 302.484175"></polygon>
                            <polygon id="Fill-119" fill="#01888B" points="169.960351 323.623331 228.147359 142.733265 224.750016 142.733265 166.562874 323.623331"></polygon>
                            <polygon id="Fill-121" fill="#01888B" points="200.808033 323.623331 258.995041 142.733265 255.597563 142.733265 197.410556 323.623331"></polygon>
                            <polygon id="Fill-123" fill="#01888B" points="209.293862 190.896737 209.293862 193.661714 241.258232 193.644044 241.804402 190.878796"></polygon>
                            <polygon id="Fill-125" fill="#01888B" points="215.902291 172.926056 215.902291 175.691303 247.866526 175.673498 248.412831 172.908115"></polygon>
                            <polygon id="Fill-127" fill="#01888B" points="221.366257 154.955496 221.366257 157.720743 253.330627 157.702938 253.876797 154.937691"></polygon>
                            <polygon id="Fill-129" fill="#01888B" points="203.471722 209.098606 203.471722 211.863583 235.435957 211.845778 235.982127 209.080665"></polygon>
                            <polygon id="Fill-131" fill="#01888B" points="198.007607 227.299679 198.007607 230.064791 229.972112 230.047121 230.518282 227.281739"></polygon>
                            <polygon id="Fill-133" fill="#01888B" points="192.355266 246.209317 191.063693 248.975508 223.028063 248.957433 223.574098 246.19232"></polygon>
                            <polygon id="Fill-135" fill="#01888B" points="186.362544 265.12002 185.070836 267.885941 217.035206 267.868136 217.581376 265.102754"></polygon>
                            <polygon id="Fill-137" fill="#01888B" points="180.750238 283.608921 179.458665 286.374978 211.422765 286.357038 211.968936 283.591925"></polygon>
                            <polygon id="Fill-139" fill="#01888B" points="176.100225 302.501441 174.808518 305.267363 206.772753 305.249423 207.319058 302.484175"></polygon>
                            <path d="M158.333053,120.816388 C158.333053,127.037519 163.37619,132.080656 169.597322,132.080656 C175.818454,132.080656 180.861725,127.037519 180.861725,120.816388 C180.861725,114.595256 175.818454,109.552119 169.597322,109.552119 C163.37619,109.552119 158.333053,114.595256 158.333053,120.816388" id="Fill-141" fill="#FFD147"></path>
                            <path d="M93.9625486,90.5184637 C93.9625486,96.7395956 99.00582,101.782732 105.226817,101.782732 C111.447949,101.782732 116.49122,96.7395956 116.49122,90.5184637 C116.49122,84.2973319 111.447949,79.2541953 105.226817,79.2541953 C99.00582,79.2541953 93.9625486,84.2973319 93.9625486,90.5184637" id="Fill-143" fill="#01888B"></path>
                            <path d="M84.8529878,171.939672 C78.631856,171.939672 73.5887194,166.8964 73.5887194,160.675403 C73.5887194,154.454272 78.631856,149.411 84.8529878,149.411 C90.5782637,149.411 95.295101,153.686072 96.0121768,159.216162 L112.925373,133.051932 L82.8340876,45.700874 C36.7784224,61.566379 12.3043656,111.763575 28.1698705,157.819375 C35.2468801,178.362869 49.1579623,194.607011 66.4823038,204.897642 L88.097095,171.460272 C87.0692323,171.769171 85.9813436,171.939672 84.8529878,171.939672" id="Fill-145" fill="#01888B"></path>
                            <path d="M208.881287,61.4777697 C186.407381,18.2600576 133.15371,1.44384712 89.9359979,23.9178883 L110.720675,63.8870419 C111.497642,58.4237227 116.181162,54.2187933 121.858956,54.2187933 C128.080088,54.2187933 133.123225,59.2619298 133.123225,65.4830617 C133.123225,71.7041936 128.080088,76.747465 121.858956,76.747465 C120.026339,76.747465 118.301365,76.3003043 116.771981,75.5238768 L132.561138,105.886427 L216.640706,121.677337 C221.107322,102.028434 218.906051,80.7554548 208.881287,61.4777697" id="Fill-147" fill="#FFD147"></path>
                            <polygon id="Fill-149" fill="#825A46" points="227.987338 18.5313486 230.122109 23.2646425 236.381955 20.34009 230.978392 12.562731"></polygon>
                            <path d="M220.408983,6.49873259 C220.408983,6.49873259 221.786481,18.7576807 224.577896,19.9426903 C227.369312,21.1276999 230.661306,16.9787499 230.661306,16.9787499 L233.795612,9.7159966 L223.848815,5.4320216 L220.408983,6.49873259 Z" id="Fill-151" fill="#9E7059"></path>
                            <path d="M215.884377,4.06687973 C215.884377,4.06687973 218.01119,8.31969512 224.153681,6.41491188 C225.886749,6.45133221 226.819918,8.1945171 227.307411,9.74184155 C227.872601,11.5360149 228.06347,10.1618893 229.492496,11.3850729 L231.992954,14.969238 C231.992954,14.969238 237.734012,4.17802918 229.99159,0.923130831 C222.249167,-2.33190241 215.884377,4.06687973 215.884377,4.06687973" id="Fill-153" fill="#212B53"></path>
                            <path d="M229.043663,9.51749232 C228.454868,9.36075001 227.724438,9.81128297 227.412032,10.5235028 C227.099762,11.2355876 227.323949,11.9399838 227.912744,12.0965912 C228.50154,12.2530637 229.232104,11.8026657 229.544375,11.0905808 C229.856511,10.3782261 229.632458,9.67396484 229.043663,9.51749232" id="Fill-155" fill="#9E7059"></path>
                            <path d="M238.890776,19.8249177 C254.336772,28.9788304 248.450438,66.7866397 248.450438,66.7866397 L224.962563,66.7866397 C224.962563,66.7866397 224.692108,56.8989249 224.381321,46.453979 C224.146073,38.5440229 223.400535,30.3146471 225.520198,25.8176806 C228.478338,19.6197499 235.055985,17.5522892 238.890776,19.8249177" id="Fill-157" fill="#FFFFFF"></path>
                            <path d="M230.827005,44.3266406 C230.827005,44.3266406 227.326067,56.4722809 222.618672,60.5075186 C217.911411,64.5427562 204.376538,75.4242065 204.376538,75.4242065 L199.93029,74.4926554 L214.807725,56.5340606 L220.194966,39.0732103 L230.827005,44.3266406 Z" id="Fill-159" fill="#9E7059"></path>
                            <polygon id="Fill-161" fill="#FFFFFF" points="231.968701 45.4684044 219.053108 40.2151091 225.520144 25.8177481 234.040883 30.2538791"></polygon>
                            <path d="M253.619751,149.067759 C253.619751,149.067759 251.021767,151.477166 245.098608,152.986047 C243.79476,153.318281 242.388665,152.874358 242.388665,155.02572 L249.576824,155.02572 L255.555154,153.991922 L255.555154,155.02572 L258.784018,155.02572 C258.784018,155.02572 259.683196,149.745042 257.797297,149.067759 L253.619751,149.067759 Z" id="Fill-163" fill="#212B53"></path>
                            <path d="M254.254813,145.274635 L253.619751,149.067745 C254.798016,149.88437 256.345205,149.936303 257.575538,149.200477 L257.797297,149.067745 L257.475719,145.274635 L254.254813,145.274635 Z" id="Fill-165" fill="#9E7059"></path>
                            <path d="M248.450451,66.7866397 C248.450451,66.7866397 250.757342,74.6903908 251.223252,93.9978867 C251.317541,97.9038996 252.377912,101.705508 254.077392,105.223577 C260.828103,119.198866 257.773921,146.226393 257.773921,146.226393 L253.112388,146.226393 L234.468147,79.8203966 L241.029742,66.7866397 L248.450451,66.7866397 Z" id="Fill-167" fill="#212B53"></path>
                            <path d="M228.25724,151.351273 C228.25724,151.351273 225.659257,153.76068 219.736232,155.269561 C218.432114,155.601795 217.026155,155.157872 217.026155,157.309234 L224.214179,157.309234 L230.192508,156.275436 L230.192508,157.309234 L233.421508,157.309234 C233.421508,157.309234 234.32055,152.028556 232.434652,151.351273 L228.25724,151.351273 Z" id="Fill-169" fill="#212B53"></path>
                            <path d="M228.892316,147.55815 L228.257254,151.351259 C229.435654,152.167884 230.982708,152.219952 232.212906,151.483991 L232.434665,151.351259 L232.113087,147.55815 L228.892316,147.55815 Z" id="Fill-171" fill="#9E7059"></path>
                            <path d="M204.376565,75.4241525 L200.84784,80.6332039 C199.256406,82.6356476 195.161817,81.8178089 192.603086,80.5251569 C192.21838,80.3309152 192.184657,79.7943223 192.535236,79.5439663 C194.373654,78.2301366 199.133656,74.8738009 200.673831,74.2245748 L204.376565,75.4241525 Z" id="Fill-173" fill="#9E7059"></path>
                            <path d="M224.962576,66.7866397 L227.271085,148.699873 L232.184593,148.699873 C232.184593,148.699873 239.102432,125.919361 237.590584,110.201831 C237.179573,105.927433 237.754205,101.612838 239.455304,97.6700001 C246.751106,80.7603109 245.596312,66.7866397 245.596312,66.7866397 L224.962576,66.7866397 Z" id="Fill-175" fill="#053C5E"></path>
                            <path d="M3.64143945,318.829997 L6.6958911,319.359845 C7.32704192,315.572131 16.8260035,297.612322 17.5979796,288.283997 C18.4552062,277.928483 20.8615109,266.39956 20.8615109,266.39956 L10.6452037,263.361295 C10.6452037,263.361295 8.05828121,263.361295 10.8994716,284.466876 C4.51107599,292.85205 2.79878093,311.880054 3.64143945,318.829997" id="Fill-177" fill="#C59C6E"></path>
                            <path d="M11.1645846,255.684564 C11.1645846,255.684564 13.5641448,270.121718 16.9021354,285.563533 C13.4157657,294.887542 18.7286824,320.906765 18.8268824,320.8145 C19.227506,320.437483 21.0628209,322.69905 21.0628209,322.69905 C21.0628209,322.69905 24.9369997,299.736032 25.7939566,289.380653 C26.6511832,279.02514 26.8641747,266.399695 26.8641747,266.399695 L11.1645846,255.684564 Z" id="Fill-179" fill="#D9B183"></path>
                            <path d="M18.3931298,319.359805 C18.3931298,319.359805 16.9391493,320.593375 17.2055573,322.165249 C17.4719652,323.737259 17.8496575,327.418815 17.8496575,327.418815 L19.3446446,327.418815 L19.2986471,323.985187 C19.3032334,323.760595 22.5055246,327.418815 23.0479177,327.418815 L30.9604366,327.418815 C30.9604366,327.418815 31.4859685,325.102616 26.8396787,324.358428 C22.1933888,323.613834 18.3931298,319.359805 18.3931298,319.359805" id="Fill-181" fill="#053C5E"></path>
                            <path d="M7.04490577,316.742883 L6.83380275,320.019094 C6.7894239,320.708922 6.98015852,321.389442 7.37363297,321.957735 C7.8082489,322.585513 8.54083709,323.444628 9.75255495,324.430945 C7.45847885,325.168254 5.37253819,322.5959 4.27871429,320.886707 C3.74549368,320.053761 3.53843736,319.056518 3.68479313,318.07843 L4.07057885,315.500275 L7.04490577,316.742883 Z" id="Fill-183" fill="#C59C6E"></path>
                            <path d="M3.64176319,318.544934 C3.64176319,318.544934 1.62367225,318.725956 1.288875,320.260871 C0.953942857,321.795651 0,324.900821 0,324.900821 L1.10097308,325.778146 L2.65261401,322.69901 C2.65261401,322.69901 5.98966044,327.19719 6.52031813,327.418815 L15.1567923,327.418815 C15.1567923,327.418815 15.1567923,324.560628 9.75255495,324.430999 C4.77173764,324.311486 3.64176319,318.544934 3.64176319,318.544934" id="Fill-185" fill="#212B53"></path>
                            <polygon id="Fill-187" fill="#D9B183" points="49.8718547 165.824955 40.2806283 190.888212 34.2347187 186.389222 47.7436934 163.61532"></polygon>
                            <path d="M48.6835403,158.246343 C48.0782884,158.991746 47.7696598,159.934358 47.816062,160.893157 L47.3926419,164.511179 L47.8863397,165.071513 L49.583662,166.57783 C49.5237708,165.828786 49.4394645,166.57783 49.4394645,166.57783 L52.1681565,161.82781 C52.1681565,161.82781 55.4675686,159.711924 51.3062087,156.590162 C50.9084177,156.291785 50.3513216,156.225824 49.9382881,156.502618 C48.9020623,157.197572 48.6835403,158.246343 48.6835403,158.246343" id="Fill-189" fill="#D9B183"></path>
                            <polygon id="Fill-191" fill="#C59C6E" points="20.8615244 197.031471 14.6801851 197.031471 17.1474601 189.76683 21.9805727 192.736975"></polygon>
                            <path d="M29.0726361,204.844563 C29.0417462,204.661517 28.9996605,204.508417 28.9632402,204.340209 C35.0842836,196.446574 40.2805204,190.887888 40.2805204,190.887888 L35.078888,184.966212 L23.2529372,196.1946 L19.7836984,196.209033 C19.7836984,196.209033 15.0972113,193.116677 11.0035663,197.337793 C9.50803964,198.879587 8.51214596,203.06253 9.51127701,207.483958 C12.2655982,219.673572 10.110324,226.121724 10.110324,226.121724 L26.057977,232.067545 C26.057977,232.067545 26.4202918,221.468015 26.6699734,214.033817 C26.6701083,214.025184 26.6703781,214.016416 26.6707828,214.007918 C26.7190734,212.557714 27.2033289,211.174821 27.965458,209.939767 C28.8429182,208.517755 29.3997446,206.786711 29.0726361,204.844563" id="Fill-193" fill="#01888B"></path>
                            <path d="M23.0339296,176.70917 L12.8976123,180.25759 L13.8968782,187.82398 C13.9110417,187.931218 13.9396384,188.034004 13.9596021,188.139488 C14.1543834,188.174695 14.3491648,188.21071 14.5427321,188.258327 C14.574701,188.26615 14.6050513,188.276941 14.6367505,188.28517 C14.6672356,188.292454 14.6979906,188.296366 14.7286106,188.303919 C17.0672005,188.878956 18.7233812,190.811122 19.4673002,193.047735 C20.9079266,193.289053 22.3973832,193.291346 23.8543312,192.991486 C24.8465829,192.787127 25.7445463,192.474991 26.1585241,191.997615 C28.2974766,187.331362 23.0339296,176.70917 23.0339296,176.70917" id="Fill-195" fill="#D9B183"></path>
                            <path d="M22.8004483,183.148716 C20.0716214,184.482914 20.7146425,198.545883 20.2433365,208.12389 C19.9900129,213.277366 16.1228483,217.490254 11.0276442,218.303507 C7.41447769,218.880162 3.44857357,218.986186 1.0558928,217.623121 C2.63788401,216.329525 11.1645576,203.783126 8.43343758,187.169656 C8.07395544,184.983222 8.02984637,178.895496 11.7124813,175.590823 C15.8024843,171.920733 24.2428282,176.709197 24.2428282,176.709197 C24.2428282,176.709197 26.5491793,181.316099 22.8004483,183.148716" id="Fill-197" fill="#212B53"></path>
                            <path d="M26.3832645,225.751599 C26.3832645,225.751599 28.5053557,236.558455 28.5053557,242.986643 C28.5053557,246.518336 27.6394961,268.768325 27.6394961,268.768325 C27.6394961,268.768325 12.4883692,269.864982 9.54560654,269.864982 C8.81585104,251.63202 4.6593472,251.071417 4.6593472,242.568079 C4.6593472,238.872225 6.55441835,234.695083 8.0090733,232.033027 C9.05352742,230.121499 9.70774445,228.787571 10.1102565,226.121738 L10.2089961,225.776284 L26.3832645,225.751599 Z" id="Fill-199" fill="#FFD147"></path>
                            <path d="M99.3303656,160.675417 C99.3303656,166.896414 104.373502,171.939685 110.594634,171.939685 C116.815766,171.939685 121.859037,166.896414 121.859037,160.675417 C121.859037,154.454285 116.815766,149.411014 110.594634,149.411014 C104.373502,149.411014 99.3303656,154.454285 99.3303656,160.675417" id="Fill-201" fill="#12375A"></path>
                            <path d="M167.584761,320.020159 C167.584761,320.020159 164.883452,322.525339 158.725044,324.094245 C157.369263,324.439699 155.907324,323.978105 155.907324,326.214853 L163.381046,326.214853 L169.596917,325.140048 L169.596917,326.214853 L172.954197,326.214853 C172.954197,326.214853 173.888851,320.724421 171.928088,320.020159 L167.584761,320.020159 Z" id="Fill-203" fill="#212B53"></path>
                            <path d="M168.244981,316.076472 L167.584694,320.020119 C168.809766,320.869117 170.41833,320.923343 171.697628,320.158112 L171.928155,320.020119 L171.593763,316.076472 L168.244981,316.076472 Z" id="Fill-205" fill="#F7B58E"></path>
                            <path d="M197.163492,320.020159 C197.163492,320.020159 194.462182,322.525339 188.303774,324.094245 C186.947994,324.439699 185.48619,323.978105 185.48619,326.214853 L192.959911,326.214853 L199.175782,325.140048 L199.175782,326.214853 L202.533062,326.214853 C202.533062,326.214853 203.467581,320.724421 201.506818,320.020159 L197.163492,320.020159 Z" id="Fill-207" fill="#212B53"></path>
                            <path d="M197.823846,316.076472 L197.163424,320.020119 C198.388631,320.869117 199.997061,320.923343 201.276493,320.158112 L201.506886,320.020119 L201.172493,316.076472 L197.823846,316.076472 Z" id="Fill-209" fill="#F7B58E"></path>
                            <path d="M163.256542,206.430965 C163.256542,206.430965 153.521388,203.330516 150.470579,199.161872 C147.419499,194.993228 152.582553,172.178724 152.582553,172.178724 L151.915656,168.073209 C151.540257,165.761732 153.312578,163.659065 155.65454,163.638292 L158.255222,163.615299 C159.33758,163.605783 160.067875,164.718492 159.628268,165.707776 L156.20732,173.404471 C156.20732,173.404471 153.639957,190.684703 157.235722,191.995835 C161.524014,193.52387 166.378304,193.892255 166.378304,193.892255 L163.256542,206.430965 Z" id="Fill-211" fill="#F7B58E"></path>
                            <path d="M191.445149,238.652044 C191.445149,238.652044 190.927845,250.493103 188.366822,263.328841 C187.612381,267.11008 187.89619,271.023512 189.126388,274.677685 C194.939612,291.947531 202.171071,317.915631 202.171071,317.915631 L196.757526,317.915631 C196.757526,317.915631 179.413895,287.225298 175.181314,272.000791 C170.948732,256.776149 170.223697,251.943036 170.223697,251.943036 L175.260629,238.652044 L191.445149,238.652044 Z" id="Fill-213" fill="#212B53"></path>
                            <path d="M181.254228,174.361759 L191.007727,180.721288 L187.99698,188.428909 C187.954355,188.5379 187.897566,188.638798 187.849275,188.744551 C187.635205,188.731332 187.420864,188.718922 187.204366,188.718922 C187.169025,188.718922 187.134223,188.722295 187.098747,188.722834 C187.064755,188.722564 187.031437,188.718922 186.997175,188.718922 C184.386242,188.718922 182.142614,190.324384 180.780359,192.486538 C179.201201,192.367835 177.632429,191.984612 176.176155,191.291816 C175.184308,190.819971 174.319663,190.258963 174.007392,189.649259 C172.963208,184.182838 181.254228,174.361759 181.254228,174.361759" id="Fill-215" fill="#F7B58E"></path>
                            <polygon id="Fill-217" fill="#F39F85" points="183.406157 192.491178 184.258528 197.813402 176.71844 197.813402 176.176047 191.291735"></polygon>
                            <path d="M180.665406,192.491178 L182.95611,187.410272 L181.467732,186.475349 C180.368648,185.784982 179.888034,184.429876 180.306463,183.201161 L181.937555,178.412428 C181.937555,178.412428 177.29693,177.844271 177.436946,173.520908 C177.436946,171.294816 180.50057,171.282541 180.50057,171.282541 C180.50057,171.282541 181.416339,173.27217 184.258609,173.508363 C185.478825,173.354993 188.828416,173.804716 191.088365,177.749038 C192.608441,180.401922 191.942354,184.557347 190.618812,187.676141 C189.433263,190.47012 186.405924,192.030933 183.406103,192.491178 L180.665406,192.491178 Z" id="Fill-219" fill="#212B53"></path>
                            <path d="M184.188749,185.043774 C184.461767,185.844347 183.910066,186.903774 182.956123,187.410286 C182.00245,187.916798 181.00831,187.678178 180.735292,186.877875 C180.462275,186.077302 181.014245,185.017875 181.967918,184.511363 C182.921322,184.004985 183.916001,184.243336 184.188749,185.043774" id="Fill-221" fill="#F7B58E"></path>
                            <path d="M167.806979,238.652044 L191.445122,238.652044 L191.445122,208.325375 C191.445122,201.682307 186.388362,196.131039 179.77416,195.513647 L163.335912,193.523883 C163.335912,193.523883 161.403071,196.482563 156.017314,203.357372 C162.490555,207.357269 169.981947,209.199193 169.981947,209.199193 L167.806979,238.652044 Z" id="Fill-223" fill="#63C0C4"></path>
                            <path d="M191.445149,238.652044 C191.445149,238.652044 188.106349,250.734826 175.788184,264.277928 C173.731245,266.322187 170.768384,270.576621 171.19032,276.592181 L172.813048,317.915631 L167.296312,317.915631 C167.296312,317.915631 157.415747,283.600396 159.349127,266.684232 C161.282237,249.768203 167.807006,238.652044 167.807006,238.652044 L191.445149,238.652044 Z" id="Fill-225" fill="#12375A"></path>
                        </g>
                    </g>
                </g>
            </g>
        </g>
    </g>
</svg>