<?xml version="1.0" encoding="UTF-8"?>
<svg width="408px" height="447px" viewBox="0 0 408 447" version="1.1" xmlns="http://www.w3.org/2000/svg" xmlns:xlink="http://www.w3.org/1999/xlink">
    <title>illus-app-welcome-1069201229</title>
    <defs>
        <path d="M54.5678917,18.5873598 C53.9978157,20.3921502 51.4815561,20.638913 50.5359324,18.9971301 L50.5359324,18.9971301 C47.6630375,14.0078393 42.6989633,9.15273694 34.8484853,12.3318338 L34.8484853,12.3318338 C26.8692223,15.5640657 24.0908898,21.0351743 23.1902958,25.2157317 L23.1902958,25.2157317 C22.646337,27.7409973 20.1733059,29.4134004 17.6939705,28.691124 L17.6939705,28.691124 C13.8889608,27.5815922 8.65110607,27.1898338 4.21568057,30.9660245 L4.21568057,30.9660245 C-3.82392217,37.8096384 4.21568057,47.9773448 4.21568057,47.9773448 L4.21568057,47.9773448 L152.442648,47.9773448 C152.442648,47.9773448 152.442648,36.095808 145.907037,30.9660245 L145.907037,30.9660245 C141.254568,27.3132152 130.878825,28.8622369 125.289738,30.0573251 L125.289738,30.0573251 C123.822671,30.3707318 122.632085,28.9297814 123.194056,27.5401649 L123.194056,27.5401649 C126.432592,19.5329835 130.460048,0.267476421 94.2210461,0.267476421 L94.2210461,0.267476421 C65.7280527,0.267476421 57.056233,10.7089634 54.5678917,18.5873598" id="path-1"></path>
        <linearGradient x1="99.999935%" y1="50.0007558%" x2="-0.000165609756%" y2="50.0007558%" id="linearGradient-3">
            <stop stop-color="#D4EBDE" offset="0%"></stop>
            <stop stop-color="#B6DEDF" offset="100%"></stop>
        </linearGradient>
        <path d="M29.2485917,27.3537419 C29.8105624,28.7442591 28.6199771,30.1843089 27.15381,29.8709022 L27.15381,29.8709022 C21.5629224,28.6758139 11.1880794,27.1276928 6.53561074,30.7805021 L6.53561074,30.7805021 C0,35.909385 0,47.7909218 0,47.7909218 L0,47.7909218 L148.226967,47.7909218 C148.226967,47.7909218 156.26657,37.6232154 148.226967,30.7805021 L148.226967,30.7805021 C143.792442,27.0034108 138.552786,27.3951692 134.747777,28.5047011 L134.747777,28.5047011 C132.268441,29.227878 129.796311,27.5536738 129.252352,25.0302094 L129.252352,25.0302094 C128.351758,20.849652 125.573425,15.3785433 117.595063,12.1454108 L117.595063,12.1454108 C109.743684,8.96541338 104.77961,13.8223169 101.906715,18.8116077 L101.906715,18.8116077 C100.961092,20.45249 98.444832,20.2066278 97.874756,18.4009368 L97.874756,18.4009368 C95.3864147,10.523441 86.714595,0.081954055 58.2216016,0.081954055 L58.2216016,0.081954055 C21.9825992,0.081954055 26.009155,19.3465606 29.2485917,27.3537419" id="path-4"></path>
        <linearGradient x1="0%" y1="50.0002714%" x2="100.000092%" y2="50.0002714%" id="linearGradient-6">
            <stop stop-color="#D4EBDE" offset="0%"></stop>
            <stop stop-color="#BFE2DE" offset="100%"></stop>
        </linearGradient>
        <polygon id="path-7" points="0 445.794036 406.697448 445.794036 406.697448 0.29629543 0 0.29629543"></polygon>
        <linearGradient x1="50.0001089%" y1="97.5127791%" x2="50.0001089%" y2="-10.7772206%" id="linearGradient-9">
            <stop stop-color="#B5DEDF" offset="0%"></stop>
            <stop stop-color="#D1E9DE" offset="100%"></stop>
        </linearGradient>
        <linearGradient x1="0.000242839657%" y1="49.9910037%" x2="100.000603%" y2="49.9910037%" id="linearGradient-10">
            <stop stop-color="#D3EADE" offset="0%"></stop>
            <stop stop-color="#B2DDE0" offset="100%"></stop>
        </linearGradient>
        <linearGradient x1="0.000242839657%" y1="49.9910037%" x2="100.000603%" y2="49.9910037%" id="linearGradient-11">
            <stop stop-color="#D3EADE" offset="0%"></stop>
            <stop stop-color="#B2DDE0" offset="100%"></stop>
        </linearGradient>
        <polygon id="path-12" points="0 445.794036 406.697448 445.794036 406.697448 0.29629543 0 0.29629543"></polygon>
        <linearGradient x1="49.9987986%" y1="-13.9650412%" x2="49.9987986%" y2="94.5595771%" id="linearGradient-14">
            <stop stop-color="#CFE8DD" offset="0%"></stop>
            <stop stop-color="#B0DCDF" offset="100%"></stop>
        </linearGradient>
        <linearGradient x1="50.000188%" y1="8.48842527%" x2="50.000188%" y2="102.044425%" id="linearGradient-15">
            <stop stop-color="#D4EBDE" offset="0%"></stop>
            <stop stop-color="#B1DCDF" offset="100%"></stop>
        </linearGradient>
        <linearGradient x1="-0.000114184608%" y1="50.0003387%" x2="99.9997643%" y2="50.0003387%" id="linearGradient-16">
            <stop stop-color="#B1DDDF" offset="0%"></stop>
            <stop stop-color="#D3EADE" offset="100%"></stop>
        </linearGradient>
        <polygon id="path-17" points="0.0418776215 0.29629543 313.267574 0.29629543 313.267574 102.666096 0.0418776215 102.666096"></polygon>
        <polygon id="path-19" points="0.146886883 0.29629543 187.184052 0.29629543 187.184052 83.3763632 0.146886883 83.3763632"></polygon>
        <polygon id="path-21" points="14.3374567 0.369243545 14.3374567 14.2032682 0.502531458 14.2032682 0.502531458 28.2426282 14.3374567 28.2426282 14.3374567 42.0766528 28.3759161 42.0766528 28.3759161 28.2426282 42.2108413 28.2426282 42.2108413 14.2032682 28.3759161 14.2032682 28.3759161 0.369243545"></polygon>
        <linearGradient x1="0.00194096562%" y1="50.0007707%" x2="99.9999812%" y2="50.0007707%" id="linearGradient-23">
            <stop stop-color="#B1DCDF" offset="0%"></stop>
            <stop stop-color="#B0DCDF" offset="0%"></stop>
            <stop stop-color="#D3EBDE" offset="100%"></stop>
        </linearGradient>
        <path d="M36.6604804,1.27253934 C32.9536355,2.03714365 29.8321766,4.52458431 28.1192468,7.90001067 L28.1192468,7.90001067 C28.1192468,7.90001067 22.6589453,21.7259299 20.1300773,23.6432946 L20.1300773,23.6432946 C17.6012094,25.5597586 0.868172627,31.3199579 0.868172627,31.3199579 L0.868172627,31.3199579 L0.868172627,35.0123934 C0.868172627,35.0123934 19.7932552,34.6908813 24.5123678,31.4145203 L24.5123678,31.4145203 C29.232381,28.1399605 29.7385149,24.5907195 29.7385149,24.5907195 L29.7385149,24.5907195 L29.7385149,40.301582 L49.2642936,40.301582 L48.7860782,15.9387128 L49.4606231,50.044208 C49.4606231,50.044208 51.8201794,50.2135197 53.6745025,50.044208 L53.6745025,50.044208 C59.9714558,35.5779664 57.2246441,19.0745812 55.5873642,12.1174924 L55.5873642,12.1174924 C54.5471781,7.69647642 51.6031363,3.89146672 47.4486961,2.06145969 L47.4486961,2.06145969 C45.7618835,1.31756904 43.7562606,0.822242332 41.4057103,0.822242332 L41.4057103,0.822242332 C39.5766038,0.822242332 38.0059679,0.995156383 36.6604804,1.27253934" id="path-24"></path>
        <linearGradient x1="35.2547454%" y1="6.61382082%" x2="69.4160779%" y2="113.193028%" id="linearGradient-26">
            <stop stop-color="#FFCF51" offset="0%"></stop>
            <stop stop-color="#FFCF51" offset="100%"></stop>
        </linearGradient>
        <path d="M4.1508378,35.7202603 L15.7612958,35.7202603 C15.7612958,35.7202603 15.3623326,22.7336946 18.4927974,15.9891461 L18.4927974,15.9891461 C19.192559,14.4779493 19.1817518,12.7316975 18.5180141,11.2042901 L18.5180141,11.2042901 C16.7429433,7.11919566 11.6482829,0.803329858 11.6482829,0.803329858 L11.6482829,0.803329858 C11.6482829,0.803329858 10.7170687,0.220645533 6.74274736,0.220645533 L6.74274736,0.220645533 C-5.3234112,2.05875791 4.66507698,26.0415764 4.1508378,35.7202603" id="path-27"></path>
        <linearGradient x1="-0.000997759754%" y1="50.0008963%" x2="100.00022%" y2="50.0008963%" id="linearGradient-29">
            <stop stop-color="#B2DDE0" offset="0%"></stop>
            <stop stop-color="#CEE7DF" offset="100%"></stop>
        </linearGradient>
        <path d="M0.523245121,0.908699357 C0.523245121,1.28965062 0.831248273,1.59855437 1.21219954,1.59855437 L1.21219954,1.59855437 C1.59315081,1.59855437 1.90205455,1.28965062 1.90205455,0.908699357 L1.90205455,0.908699357 C1.90205455,0.527748091 1.59315081,0.219744939 1.21219954,0.219744939 L1.21219954,0.219744939 C0.831248273,0.219744939 0.523245121,0.527748091 0.523245121,0.908699357" id="path-30"></path>
        <linearGradient x1="99.9999673%" y1="49.9769824%" x2="-0.013089484%" y2="49.9769824%" id="linearGradient-32">
            <stop stop-color="#DBDCDD" offset="0%"></stop>
            <stop stop-color="#BEC0C2" offset="100%"></stop>
        </linearGradient>
    </defs>
    <g id="Page-2-Illustrations" stroke="none" stroke-width="1" fill="none" fill-rule="evenodd">
        <g id="PECOS-2.0-Illustrations-v31" transform="translate(-42.000000, -99.000000)">
            <g id="Application-Welcome-Screen-Illustration" transform="translate(25.000000, 46.000000)">
                <g id="illus-app-welcome-1069201229" transform="translate(17.000000, 53.604299)">
                    <g id="Fill-1-cloud" transform="translate(245.862165, 91.860589)">
                        <mask id="mask-2" fill="white">
                            <use xlink:href="#path-1"></use>
                        </mask>
                        <g id="path-1"></g>
                        <path d="M54.5678917,18.5873598 C53.9978157,20.3921502 51.4815561,20.638913 50.5359324,18.9971301 L50.5359324,18.9971301 C47.6630375,14.0078393 42.6989633,9.15273694 34.8484853,12.3318338 L34.8484853,12.3318338 C26.8692223,15.5640657 24.0908898,21.0351743 23.1902958,25.2157317 L23.1902958,25.2157317 C22.646337,27.7409973 20.1733059,29.4134004 17.6939705,28.691124 L17.6939705,28.691124 C13.8889608,27.5815922 8.65110607,27.1898338 4.21568057,30.9660245 L4.21568057,30.9660245 C-3.82392217,37.8096384 4.21568057,47.9773448 4.21568057,47.9773448 L4.21568057,47.9773448 L152.442648,47.9773448 C152.442648,47.9773448 152.442648,36.095808 145.907037,30.9660245 L145.907037,30.9660245 C141.254568,27.3132152 130.878825,28.8622369 125.289738,30.0573251 L125.289738,30.0573251 C123.822671,30.3707318 122.632085,28.9297814 123.194056,27.5401649 L123.194056,27.5401649 C126.432592,19.5329835 130.460048,0.267476421 94.2210461,0.267476421 L94.2210461,0.267476421 C65.7280527,0.267476421 57.056233,10.7089634 54.5678917,18.5873598" id="Fill-1" fill="url(#linearGradient-3)" fill-rule="nonzero" mask="url(#mask-2)"></path>
                    </g>
                    <g id="cloud" transform="translate(0.000000, 131.486725)">
                        <mask id="mask-5" fill="white">
                            <use xlink:href="#path-4"></use>
                        </mask>
                        <g id="path-4"></g>
                        <path d="M29.2485917,27.3537419 C29.8105624,28.7442591 28.6199771,30.1843089 27.15381,29.8709022 L27.15381,29.8709022 C21.5629224,28.6758139 11.1880794,27.1276928 6.53561074,30.7805021 L6.53561074,30.7805021 C0,35.909385 0,47.7909218 0,47.7909218 L0,47.7909218 L148.226967,47.7909218 C148.226967,47.7909218 156.26657,37.6232154 148.226967,30.7805021 L148.226967,30.7805021 C143.792442,27.0034108 138.552786,27.3951692 134.747777,28.5047011 L134.747777,28.5047011 C132.268441,29.227878 129.796311,27.5536738 129.252352,25.0302094 L129.252352,25.0302094 C128.351758,20.849652 125.573425,15.3785433 117.595063,12.1454108 L117.595063,12.1454108 C109.743684,8.96541338 104.77961,13.8223169 101.906715,18.8116077 L101.906715,18.8116077 C100.961092,20.45249 98.444832,20.2066278 97.874756,18.4009368 L97.874756,18.4009368 C95.3864147,10.523441 86.714595,0.081954055 58.2216016,0.081954055 L58.2216016,0.081954055 C21.9825992,0.081954055 26.009155,19.3465606 29.2485917,27.3537419" id="Fill-4" fill="url(#linearGradient-6)" fill-rule="nonzero" mask="url(#mask-5)"></path>
                    </g>
                    <g id="leaves">
                        <path d="M124.04989,331.315298 C124.04989,331.315298 126.17169,256.230974 75.7609402,234.158316 C9.09086613,301.398466 75.3980008,366.788796 75.3980008,366.788796 L124.04989,331.315298 Z" id="Fill-7" fill="#003F5F" fill-rule="nonzero"></path>
                        <path d="M75.7608501,234.158406 C75.5284969,234.39256 75.304249,234.626714 75.0754981,234.859968 L94.7552784,321.148582 L46.1205,295.043964 C46.0925816,295.659971 46.071868,296.271474 46.058359,296.881176 L95.2415992,323.280288 L100.919844,348.179912 L102.3689,347.123515 L91.0484335,297.486375 L91.0493341,297.486375 L113.037337,274.243845 C112.801381,273.696284 112.563624,273.149623 112.316862,272.604764 L90.6071424,295.553701 L76.7046727,234.593392 C76.3894648,234.449297 76.080561,234.297998 75.7608501,234.158406 Z" id="Fill-9" fill="#108B8B" fill-rule="nonzero"></path>
                        <path d="M110.618792,329.113976 C110.618792,329.113976 65.478318,269.33885 13.3717497,277.273984 C-8.89723842,336.618626 53.5139266,371.514843 53.5139266,371.514843 L118.580043,379.073528 L110.618792,329.113976 Z" id="Fill-11" fill="#FFCF51" fill-rule="nonzero"></path>
                        <path d="M69.9500375,291.996084 L63.7071198,324.620102 L14.6076349,277.111066 C14.1960634,277.165102 13.7844919,277.211933 13.3720199,277.274074 C13.2846623,277.508228 13.209913,277.73788 13.1243565,277.971133 L39.4217017,303.416517 L8.6619132,305.881442 C8.6772233,306.173235 8.70243993,306.462326 8.72135241,306.754118 L8.78349339,307.525027 L40.9995424,304.943024 L84.8242482,347.347493 L30.9777322,353.395882 C31.4622518,353.902916 31.9467714,354.404547 32.4294898,354.891769 L86.3606615,348.834373 L117.479787,378.944833 L118.580313,379.072718 L118.323644,377.465157 L65.1255553,325.990806 L71.4450235,292.96062 C70.9505974,292.637307 70.4516683,292.314894 69.9500375,291.996084" id="Fill-13" fill="#FEFEFE" fill-rule="nonzero"></path>
                        <path d="M92.1531021,355.812536 C92.1531021,355.812536 32.5454863,336.950495 6.24724054,369.683485 C34.7861642,450.538815 139.648629,419.945637 139.648629,419.945637 L92.1531021,355.812536 Z" id="Fill-15" fill="#108B8B" fill-rule="nonzero"></path>
                        <path d="M6.24796101,369.685556 C6.35783348,369.997162 6.47310952,370.302463 6.58478317,370.609566 L89.0377673,389.866967 L52.8329874,418.386979 C53.4345842,418.619332 54.0370816,418.84358 54.6413802,419.062424 L91.0938234,390.346984 L123.299065,397.868745 L121.781564,395.819894 L59.0804081,381.175335 L40.4318079,351.507967 C39.84372,351.601628 39.2574333,351.701594 38.6711466,351.807864 L56.7965017,380.642183 L6.84235306,368.975888 C6.64422238,369.211844 6.44248932,369.441495 6.24796101,369.682854 L6.24796101,369.685556 Z" id="Fill-17" fill="#006669" fill-rule="nonzero"></path>
                        <path d="M281.454631,222.699157 C281.454631,222.699157 292.716559,159.67739 338.612631,150.008612 C382.574227,217.689153 315.895147,260.744751 315.895147,260.744751 L281.454631,222.699157 Z" id="Fill-19" fill="#FFCF51" fill-rule="nonzero"></path>
                        <path d="M338.612451,150.008252 C338.765552,150.244208 338.912349,150.477462 339.062748,150.712517 L307.664438,219.299955 L352.777894,205.959456 C352.69504,206.477298 352.605881,206.991537 352.511318,207.503074 L306.889027,220.994873 L297.829051,240.787228 L296.802374,239.65338 L314.864688,200.199257 L314.863787,200.199257 L300.549746,176.988247 C300.842439,176.572173 301.136033,176.156999 301.43503,175.745428 L315.568052,198.661943 L337.749682,150.208184 C338.037872,150.142441 338.321559,150.069492 338.612451,150.008252" id="Fill-21" fill="#FEFEFE" fill-rule="nonzero"></path>
                        <path d="M302.718016,218.149987 C302.718016,218.149987 350.760203,176.104855 392.862974,191.770688 C401.145737,245.155199 343.009691,263.442661 343.009691,263.442661 L287.403415,258.456072 L302.718016,218.149987 Z" id="Fill-23" fill="#003F5F" fill-rule="nonzero"></path>
                        <path d="M343.096058,194.234983 L342.64306,222.541553 L391.859622,191.419726 C392.194643,191.536803 392.529664,191.646676 392.862883,191.770958 C392.895305,191.980796 392.91782,192.186132 392.94844,192.395069 L366.588954,209.063263 L391.8272,216.458941 C391.764159,216.700301 391.693912,216.937157 391.627268,217.176715 L391.441746,217.809832 L365.00661,210.063823 L321.077435,237.841745 L364.959779,252.233237 C364.467154,252.573662 363.976331,252.906882 363.489109,253.231095 L319.53742,238.815287 L288.343545,258.540097 L287.403325,258.456342 L287.89685,257.159487 L341.221922,223.439446 L341.681225,194.780743 C342.150435,194.596121 342.622346,194.415102 343.096058,194.234983" id="Fill-25" fill="#006669" fill-rule="nonzero"></path>
                        <path d="M311.924428,248.676972 C311.924428,248.676972 364.937895,243.283314 381.200821,275.16164 C343.353358,337.677274 261.161546,293.949833 261.161546,293.949833 L311.924428,248.676972 Z" id="Fill-27" fill="#006669" fill-rule="nonzero"></path>
                        <path d="M381.200731,275.163622 C381.054835,275.40408 380.906237,275.638235 380.75944,275.876892 L308.613755,277.634852 L333.874516,307.716493 C333.333259,307.806552 332.790201,307.889407 332.248944,307.966858 L306.814368,277.67808 L278.635682,278.365233 L280.257652,276.917979 L335.120038,275.581497 L355.830998,254.062704 C356.304711,254.242823 356.776622,254.428345 357.246732,254.618371 L337.119356,275.532865 L380.827885,274.468363 C380.952167,274.698915 381.080052,274.925865 381.200731,275.16092 L381.200731,275.163622 Z" id="Fill-29" fill="#108B8B" fill-rule="nonzero"></path>
                        <g id="Fill-31-Clipped">
                            <mask id="mask-8" fill="white">
                                <use xlink:href="#path-7"></use>
                            </mask>
                            <g id="path-7"></g>
                            <polygon id="Fill-31" fill="#57C4C4" fill-rule="nonzero" mask="url(#mask-8)" points="87.2792674 426.501511 315.866238 426.501511 315.866238 119.588078 87.2792674 119.588078"></polygon>
                        </g>
                    </g>
                    <polygon id="Fill-34" fill="url(#linearGradient-9)" fill-rule="nonzero" points="220.390665 222.543084 283.553826 222.543084 283.553826 136.051836 220.390665 136.051836"></polygon>
                    <g id="Group-40" transform="translate(219.744939, 148.598011)" fill="#003F5F" fill-rule="nonzero">
                        <path d="M63.6718165,73.7643233 C63.7294545,72.9790053 63.7861919,72.1927867 63.7861919,71.3912581 C63.7861919,53.0137367 49.6558719,38.1161105 32.2275766,38.1161105 C14.7974801,38.1161105 0.668961232,53.0137367 0.668961232,71.3912581 C0.668961232,72.1927867 0.72479806,72.9790053 0.782436077,73.7643233 L63.6718165,73.7643233 Z" id="Fill-36"></path>
                        <path d="M50.5059426,18.8491625 C50.5059426,8.75440421 42.3222448,0.570706425 32.2274865,0.570706425 C22.1327282,0.570706425 13.9481299,8.75440421 13.9481299,18.8491625 C13.9481299,28.9439208 22.1327282,37.1276185 32.2274865,37.1276185 C42.3222448,37.1276185 50.5059426,28.9439208 50.5059426,18.8491625" id="Fill-38"></path>
                    </g>
                    <polygon id="Fill-41" fill="url(#linearGradient-10)" fill-rule="nonzero" points="119.666429 259.057668 193.24496 259.057668 193.24496 254.140425 119.666429 254.140425"></polygon>
                    <polygon id="Fill-43" fill="url(#linearGradient-11)" fill-rule="nonzero" points="119.666429 272.1442 193.24496 272.1442 193.24496 267.226056 119.666429 267.226056"></polygon>
                    <polygon id="Fill-45" fill="url(#linearGradient-11)" fill-rule="nonzero" points="119.666429 285.689134 193.24496 285.689134 193.24496 280.77099 119.666429 280.77099"></polygon>
                    <g id="Group-51">
                        <path d="M226.202648,240.536502 C225.109327,242.420545 222.695735,243.061768 220.812593,241.968447 C218.92855,240.875126 218.287327,238.461534 219.379748,236.577491 C220.473069,234.694349 222.88576,234.053126 224.769803,235.146447 C226.654746,236.238868 227.295969,238.651559 226.202648,240.536502" id="Fill-47" fill="#108B8B" fill-rule="nonzero"></path>
                        <g id="Fill-49-Clipped">
                            <mask id="mask-13" fill="white">
                                <use xlink:href="#path-12"></use>
                            </mask>
                            <g id="path-13"></g>
                            <polygon id="Fill-49" fill="#108B8B" fill-rule="nonzero" mask="url(#mask-13)" points="222.289117 240.726978 279.052657 240.726978 279.052657 235.808834 222.289117 235.808834"></polygon>
                        </g>
                    </g>
                    <polygon id="Fill-52" fill="url(#linearGradient-14)" fill-rule="nonzero" points="216.163276 284.742609 242.947843 284.742609 242.947843 260.676936 216.163276 260.676936"></polygon>
                    <polygon id="Fill-54" fill="url(#linearGradient-15)" fill-rule="nonzero" points="260.997548 284.742609 287.781214 284.742609 287.781214 260.676936 260.997548 260.676936"></polygon>
                    <g id="Group-75" transform="translate(118.878410, 298.997211)" fill-rule="nonzero">
                        <polygon id="Fill-56" fill="#108B8B" points="0.858266093 2.43160383 72.4762037 2.43160383 72.4762037 0.000900594011 0.858266093 0.000900594011"></polygon>
                        <polygon id="Fill-58" fill="#108B8B" points="0.858266093 10.3154038 72.4762037 10.3154038 72.4762037 7.88470057 0.858266093 7.88470057"></polygon>
                        <polygon id="Fill-59" fill="#108B8B" points="0.858266093 18.2001044 72.4762037 18.2001044 72.4762037 15.7694011 0.858266093 15.7694011"></polygon>
                        <polygon id="Fill-60" fill="#108B8B" points="0.858266093 26.0830038 72.4762037 26.0830038 72.4762037 23.6523005 0.858266093 23.6523005"></polygon>
                        <polygon id="Fill-61" fill="#108B8B" points="0.858266093 33.9668037 72.4762037 33.9668037 72.4762037 31.5361005 0.858266093 31.5361005"></polygon>
                        <polygon id="Fill-62" fill="#108B8B" points="0.858266093 41.8515043 72.4762037 41.8515043 72.4762037 39.4208011 0.858266093 39.4208011"></polygon>
                        <polygon id="Fill-63" fill="#108B8B" points="0.858266093 49.7353043 72.4762037 49.7353043 72.4762037 47.304601 0.858266093 47.304601"></polygon>
                        <polygon id="Fill-64" fill="#108B8B" points="0.858266093 57.6200048 72.4762037 57.6200048 72.4762037 55.1893016 0.858266093 55.1893016"></polygon>
                        <polygon id="Fill-65" fill="#108B8B" points="90.5268094 69.4276929 162.144747 69.4276929 162.144747 66.9969897 90.5268094 66.9969897"></polygon>
                        <polygon id="Fill-66" fill="#108B8B" points="90.5268094 2.43160383 162.144747 2.43160383 162.144747 0.000900594011 90.5268094 0.000900594011"></polygon>
                        <polygon id="Fill-67" fill="#108B8B" points="90.5268094 10.3154038 162.144747 10.3154038 162.144747 7.88470057 90.5268094 7.88470057"></polygon>
                        <polygon id="Fill-68" fill="#108B8B" points="90.5268094 18.2001044 162.144747 18.2001044 162.144747 15.7694011 90.5268094 15.7694011"></polygon>
                        <polygon id="Fill-69" fill="#108B8B" points="90.5268094 26.0830038 162.144747 26.0830038 162.144747 23.6523005 90.5268094 23.6523005"></polygon>
                        <polygon id="Fill-70" fill="#108B8B" points="90.5268094 33.9668037 162.144747 33.9668037 162.144747 31.5361005 90.5268094 31.5361005"></polygon>
                        <polygon id="Fill-71" fill="#108B8B" points="90.5268094 41.8515043 162.144747 41.8515043 162.144747 39.4208011 90.5268094 39.4208011"></polygon>
                        <polygon id="Fill-72" fill="#108B8B" points="90.5268094 49.7353043 162.144747 49.7353043 162.144747 47.304601 90.5268094 47.304601"></polygon>
                        <polygon id="Fill-73" fill="#108B8B" points="90.5268094 57.6200048 162.144747 57.6200048 162.144747 55.1893016 90.5268094 55.1893016"></polygon>
                        <path d="M147.073576,105.739373 C144.650078,106.077997 136.9518,107.927817 142.077981,105.109858 C145.588497,103.180786 149.205282,102.955637 152.847285,103.576146 C151.185689,104.645152 149.299845,105.427768 147.073576,105.739373 M163.897573,96.1156257 C164.342467,98.0329903 163.846239,100.189913 162.429605,102.582791 C161.810897,102.345034 161.193089,102.135196 160.574381,101.910048 C161.851424,100.113363 162.948347,98.1527693 163.897573,96.1156257 M177.119194,94.0442595 C174.114812,93.3102753 174.142731,93.3453985 171.102325,93.8929597 C169.717212,94.1424242 169.333559,95.8274356 169.875716,96.9054466 C171.578739,99.7747392 172.236173,102.849367 171.963293,106.105915 C170.697058,105.695244 169.456039,105.270164 168.247442,104.817165 C170.308902,100.907686 167.690875,93.6714135 165.386255,90.5922826 C164.289332,89.1261156 162.306224,89.3629718 161.637983,91.0822058 C160.438392,94.1685414 158.96592,97.1432035 157.048556,99.6315447 C155.893994,98.4625737 154.938464,97.0882672 154.25041,95.438379 C153.138176,93.5273185 152.427608,91.4505487 151.070413,89.6826827 C148.703652,86.5981482 145.586696,83.9242846 141.538526,83.6279891 C132.889221,82.9930703 130.519758,91.6549835 130.129801,98.6165753 C129.981203,101.253515 134.082508,101.244509 134.230205,98.6165753 C134.159959,95.7562887 134.73814,93.0355942 135.964749,90.4535911 C142.660666,87.5248594 147.112302,88.9234819 149.321459,94.6476574 C150.30851,96.272329 151.048798,97.962744 151.955697,99.5640002 C148.939607,99.0839835 145.772218,98.9660057 142.251796,99.5558948 C137.821774,100.297084 132.075984,103.530216 134.765158,108.87254 C137.141826,113.593454 145.058047,110.41886 149.017058,109.747017 C152.520369,109.152625 155.325719,107.544164 157.640246,105.361124 C159.703507,106.653476 162.064864,107.600901 164.100207,107.391063 C164.134429,107.38746 164.160547,107.375753 164.193869,107.37125 C167.230672,108.662701 170.226948,109.962259 173.129562,110.7836 C174.105806,111.059182 175.480113,110.444977 175.651226,109.350755 C176.305057,105.180104 176.027674,101.620957 174.724514,97.9483345 C175.159501,97.9645452 175.594488,97.9825571 176.028574,97.9987678 C178.592566,98.6264818 179.686787,94.6719735 177.119194,94.0442595" id="Fill-74" fill="#003F5F"></path>
                    </g>
                    <polygon id="Fill-76" fill="url(#linearGradient-16)" fill-rule="nonzero" points="117.034894 412.76475 198.982644 412.76475 198.982644 372.532514 117.034894 372.532514"></polygon>
                    <g id="Group-92" transform="translate(51.333859, 0.000000)">
                        <polygon id="Fill-78" fill="#F69C82" fill-rule="nonzero" points="161.956163 312.354462 169.838161 332.951948 174.807639 329.255009 163.704216 310.537964"></polygon>
                        <path d="M162.932407,306.125954 C163.429534,306.739258 163.683502,307.513769 163.644776,308.301789 L163.993306,311.27465 L163.588039,311.735754 L162.193019,312.97317 C162.241651,312.357164 162.311897,312.97317 162.311897,312.97317 L160.068518,309.069996 C160.068518,309.069996 157.35773,307.330949 160.776384,304.765156 C161.104201,304.520195 161.562603,304.465258 161.900326,304.693109 C162.753188,305.264085 162.932407,306.125954 162.932407,306.125954" id="Fill-80" fill="#F69C82" fill-rule="nonzero"></path>
                        <path d="M179.355099,347.827689 C173.695766,340.232079 169.838522,332.951677 169.838522,332.951677 L174.113641,328.084867 L179.355099,334.195398 L179.355099,347.827689 Z" id="Fill-82" fill="#006669" fill-rule="nonzero"></path>
                        <g id="Fill-84-Clipped">
                            <mask id="mask-18" fill="white">
                                <use xlink:href="#path-17"></use>
                            </mask>
                            <g id="path-18"></g>
                            <path d="M157.272083,0.311785647 L157.272083,0.295574955 C157.064046,0.295574955 156.862313,0.302779707 156.654276,0.303680301 C156.447139,0.302779707 156.244505,0.295574955 156.037369,0.295574955 L156.037369,0.311785647 C38.4864348,1.12051907 0.0418776215,83.3762731 0.0418776215,83.3762731 C0.0418776215,83.3762731 60.7446158,64.3025925 100.377957,102.666096 C104.602644,100.672181 109.365885,98.9223269 114.350673,97.3931183 C141.929564,88.9293358 171.378988,88.9293358 198.958779,97.3931183 C203.942666,98.9223269 208.705908,100.672181 212.931495,102.666096 C263.750214,60.776767 313.267574,83.3762731 313.267574,83.3762731 C313.267574,83.3762731 274.823017,1.12051907 157.272083,0.311785647" id="Fill-84" fill="#006669" fill-rule="nonzero" mask="url(#mask-18)"></path>
                        </g>
                        <g id="Fill-87-Clipped" transform="translate(126.083162, 0.000000)">
                            <mask id="mask-20" fill="white">
                                <use xlink:href="#path-19"></use>
                            </mask>
                            <g id="path-20"></g>
                            <path d="M84.5235398,30.4025228 C127.273837,58.5722029 127.895247,80.8150738 127.895247,80.8150738 C161.372127,71.6010965 187.184052,83.3763632 187.184052,83.3763632 C187.184052,83.3763632 148.740396,1.12060913 31.1885613,0.311875706 L31.1885613,0.295665014 C30.9805241,0.296565608 30.778791,0.302869766 30.5716544,0.30377036 C30.3636172,0.302869766 30.1618841,0.296565608 29.9538469,0.295665014 L29.9538469,0.311875706 C19.3826744,0.384823821 9.46533312,1.12781388 0.146886883,2.40035322 C18.3028622,0.671212717 41.7741433,2.23284273 84.5235398,30.4025228" id="Fill-87" fill="#57C4C4" fill-rule="nonzero" mask="url(#mask-20)"></path>
                        </g>
                        <path d="M135.468702,443.403229 C121.44105,443.403229 110.028722,431.990901 110.028722,417.963249 L110.028722,406.604957 C110.028722,404.615545 111.641686,403.002581 113.631098,403.002581 C115.620511,403.002581 117.233475,404.615545 117.233475,406.604957 L117.233475,417.963249 C117.233475,428.018381 125.41357,436.198477 135.468702,436.198477 C145.523834,436.198477 153.70483,428.018381 153.70483,417.963249 L153.70483,50.7442398 C153.70483,48.7548276 155.317794,47.1418637 157.307206,47.1418637 C159.296618,47.1418637 160.909582,48.7548276 160.909582,50.7442398 L160.909582,417.963249 C160.909582,431.990901 149.496354,443.403229 135.468702,443.403229" id="Fill-90" fill="#006669" fill-rule="nonzero"></path>
                    </g>
                    <g id="Fill-93-Clipped" transform="translate(134.188508, 131.486725)">
                        <mask id="mask-22" fill="white">
                            <use xlink:href="#path-21"></use>
                        </mask>
                        <g id="path-22"></g>
                        <polygon id="Fill-93" fill="url(#linearGradient-23)" fill-rule="nonzero" mask="url(#mask-22)" points="14.3374567 0.369243545 14.3374567 14.2032682 0.502531458 14.2032682 0.502531458 28.2426282 14.3374567 28.2426282 14.3374567 42.0766528 28.3759161 42.0766528 28.3759161 28.2426282 42.2108413 28.2426282 42.2108413 14.2032682 28.3759161 14.2032682 28.3759161 0.369243545"></polygon>
                    </g>
                    <g id="Tan-man" transform="translate(84.224465, 185.942043)">
                        <polygon id="Fill-96" fill="#006669" fill-rule="nonzero" points="28.6667957 11.9887075 116.559367 11.9887075 116.559367 0 28.6667957 0"></polygon>
                        <polygon id="Fill-98" fill="#108B8B" fill-rule="nonzero" points="28.6667957 33.7497606 116.559367 33.7497606 116.559367 21.7619537 28.6667957 21.7619537"></polygon>
                        <polygon id="Fill-99" fill="#003F5F" fill-rule="nonzero" points="28.6667957 55.5108137 116.559367 55.5108137 116.559367 43.5221062 28.6667957 43.5221062"></polygon>
                        <path d="M158.777323,251.159639 L156.267368,251.594626 C155.748626,248.482173 147.942277,233.723238 147.308259,226.056482 C146.603094,217.545868 144.625389,208.070719 144.625389,208.070719 L153.021627,205.574272 C153.021627,205.574272 155.14793,205.574272 152.812689,222.919713 C158.062252,229.810157 159.470781,245.448072 158.777323,251.159639" id="Fill-100" fill="#F69C82" fill-rule="nonzero"></path>
                        <path d="M152.594475,199.265521 C152.594475,199.265521 150.623075,211.130847 147.879866,223.821117 C150.744655,231.48247 146.378575,252.867075 146.297522,252.790525 C145.968805,252.48072 144.46031,254.338646 144.46031,254.338646 C144.46031,254.338646 141.27671,235.467599 140.571545,226.957886 C139.867281,218.447273 139.692566,208.070628 139.692566,208.070628 L152.594475,199.265521 Z" id="Fill-101" fill="#F8AF89" fill-rule="nonzero"></path>
                        <path d="M146.654427,251.594986 C146.654427,251.594986 147.848615,252.609055 147.629771,253.901407 C147.410926,255.192859 147.101122,258.217955 147.101122,258.217955 L145.872712,258.217955 L145.910537,255.396393 C145.906034,255.212672 143.274498,258.217955 142.828704,258.217955 L136.326415,258.217955 C136.326415,258.217955 135.89413,256.314999 139.712649,255.703496 C143.531167,255.091092 146.654427,251.594986 146.654427,251.594986" id="Fill-102" fill="#003F5F" fill-rule="nonzero"></path>
                        <path d="M155.980529,249.444638 L156.153443,252.136513 C156.190367,252.703888 156.033664,253.263156 155.710351,253.730565 C155.353715,254.245705 154.751218,254.95177 153.755161,255.763205 C155.640104,256.368405 157.354835,254.25471 158.253628,252.849784 C158.692217,252.165332 158.861529,251.345792 158.74175,250.542462 L158.424741,248.423364 L155.980529,249.444638 Z" id="Fill-103" fill="#F69C82" fill-rule="nonzero"></path>
                        <path d="M158.777323,250.925665 C158.777323,250.925665 160.436218,251.074263 160.709998,252.335094 C160.98558,253.596827 161.769997,256.14911 161.769997,256.14911 L160.8649,256.870486 L159.589659,254.338916 C159.589659,254.338916 156.84735,258.036755 156.411463,258.218675 L149.313882,258.218675 C149.313882,258.218675 149.313882,255.869025 153.755611,255.762755 C157.848811,255.66459 158.777323,250.925665 158.777323,250.925665" id="Fill-104" fill="#1B2B57" fill-rule="nonzero"></path>
                        <polygon id="arm" fill="#F8AF89" fill-rule="nonzero" points="120.784324 125.416812 128.666323 146.014298 133.635801 142.317359 122.533278 123.600314"></polygon>
                        <path d="M121.760568,119.189204 C122.258596,119.801608 122.511663,120.576119 122.473838,121.364139 L122.822368,124.3379 L122.4162,124.798104 L121.02118,126.036421 C121.069812,125.420414 121.140059,126.036421 121.140059,126.036421 L118.896679,122.132346 C118.896679,122.132346 116.185891,120.393299 119.605447,117.827506 C119.932362,117.582545 120.390765,117.527608 120.729388,117.755459 C121.58135,118.326435 121.760568,119.189204 121.760568,119.189204" id="hand" fill="#F8AF89" fill-rule="nonzero"></path>
                        <polygon id="neck" fill="#F69C82" fill-rule="nonzero" points="144.625479 151.063568 149.70573 151.063568 147.678493 145.09263 143.705973 147.53414"></polygon>
                        <path d="M137.877148,157.483813 C137.902365,157.333413 137.937488,157.20733 137.968108,157.069539 C132.93739,150.582561 128.665873,146.014748 128.665873,146.014748 L132.941893,141.147037 L142.661104,150.375424 L145.511484,150.387132 C145.511484,150.387132 149.362424,147.845655 152.727043,151.314744 C153.956354,152.58278 154.774994,156.019447 153.953652,159.653344 C151.689558,169.670651 153.461027,174.969746 153.461027,174.969746 L140.354682,179.856369 C140.354682,179.856369 140.057486,171.145824 139.852151,165.036194 C139.85125,165.028989 139.85125,165.021784 139.85125,165.01458 C139.811624,163.823094 139.413562,162.685644 138.787649,161.671575 C138.066273,160.503504 137.608771,159.079665 137.877148,157.483813" id="shirt" fill="#108B8B" fill-rule="nonzero"></path>
                        <path d="M142.840142,134.362052 L151.170636,137.277275 L150.349294,143.496777 C150.337587,143.584135 150.314171,143.66879 150.29706,143.756148 C150.138555,143.784067 149.97825,143.813786 149.818845,143.853412 C149.792727,143.859716 149.76661,143.868722 149.741394,143.875027 C149.716177,143.881331 149.69096,143.884032 149.665744,143.890337 C147.743876,144.362248 146.383078,145.950896 145.771575,147.789008 C144.587294,147.988039 143.363387,147.989841 142.166497,147.742177 C141.350559,147.574667 140.612072,147.318898 140.271647,146.926239 C138.514589,143.090609 142.840142,134.362052 142.840142,134.362052" id="face" fill="#F8AF89" fill-rule="nonzero"></path>
                        <path d="M143.031878,139.653942 C145.274357,140.750866 144.745708,152.308189 145.133864,160.17938 C145.341001,164.413974 148.520098,167.876758 152.70696,168.544998 C155.677119,169.018711 158.935468,169.106068 160.902365,167.985729 C159.601907,166.922128 152.594385,156.612128 154.838666,142.958222 C155.13406,141.161537 155.170985,136.158737 152.144088,133.443446 C148.783071,130.426456 141.847597,134.362052 141.847597,134.362052 C141.847597,134.362052 139.950946,138.148149 143.031878,139.653942" id="hair" fill="#1B2B57" fill-rule="nonzero"></path>
                        <path d="M140.087296,174.666336 C140.087296,174.666336 138.343746,183.547093 138.343746,188.830878 C138.343746,191.732592 139.055215,210.018253 139.055215,210.018253 C139.055215,210.018253 151.506828,210.919748 153.924923,210.919748 C154.524718,195.934764 157.940672,195.47366 157.940672,188.485951 C157.940672,185.449148 156.383545,182.016083 155.188456,179.82764 C154.32929,178.257004 153.792536,177.161882 153.461117,174.969836 L153.380064,174.686149 L140.087296,174.666336 Z" id="skirt" fill="#FFCF51" fill-rule="nonzero"></path>
                        <path d="M35.8769513,253.931757 C35.8769513,253.931757 33.9181593,255.749156 29.4503124,256.886606 C28.4668638,257.137872 27.4068646,256.802851 27.4068646,258.424821 L32.8284406,258.424821 L37.3368142,257.645807 L37.3368142,258.424821 L39.7720204,258.424821 C39.7720204,258.424821 40.4501677,254.442394 39.0272292,253.931757 L35.8769513,253.931757 Z" id="shoe" fill="#1B2B57" fill-rule="nonzero"></path>
                        <path d="M36.1513623,251.071651 L35.8766811,253.931938 C36.7655674,254.547043 37.9327373,254.586669 38.8603491,254.031903 L39.026959,253.931938 L40.0392267,251.071651 L36.1513623,251.071651 Z" id="ankle" fill="#825A46" fill-rule="nonzero"></path>
                        <path d="M57.5435321,253.931757 C57.5435321,253.931757 55.5847401,255.749156 51.1177938,256.886606 C50.1334446,257.137872 49.0734454,256.802851 49.0734454,258.424821 L54.4950214,258.424821 L59.003395,257.645807 L59.003395,258.424821 L61.4386012,258.424821 C61.4386012,258.424821 62.1167485,254.442394 60.6947105,253.931757 L57.5435321,253.931757 Z" id="shoe" fill="#1B2B57" fill-rule="nonzero"></path>
                        <path d="M57.8179431,251.071651 L57.5432619,253.931938 C58.4321482,254.547043 59.599318,254.586669 60.5269299,254.031903 L60.6944404,253.931938 L61.7058074,251.071651 L57.8179431,251.071651 Z" id="ankle" fill="#825A46" fill-rule="nonzero"></path>
                        <polygon id="Fill-116" fill="#1B2B57" fill-rule="nonzero" points="44.5122069 179.473617 38.2746928 179.473617 36.0835476 251.755292 40.2983276 251.755292 52.6787934 192.925789"></polygon>
                        <polygon id="Fill-117" fill="#003F5F" fill-rule="nonzero" points="42.4893827 179.473617 57.0663974 251.755292 61.7053571 251.755292 59.8033026 179.473617"></polygon>
                        <path d="M7.75851504,171.093859 C7.54237248,171.264972 6.74534678,171.786416 4.81267203,171.946722 C3.07812796,172.090817 -0.616108678,171.336119 0.0881558391,173.049049 C1.74975179,173.946041 3.59236714,175.197866 3.59236714,175.197866 C4.65056511,175.641859 6.52650243,175.180755 7.64053722,174.67282 L10.8763715,172.696917 C10.8763715,172.696917 11.1537545,170.877717 11.1825735,170.793962 L10.4413846,170.492263 C9.57861551,170.83629 8.67171737,171.030818 7.75851504,171.093859" id="hand" fill="#825A46" fill-rule="nonzero"></path>
                        <path d="M7.16484347,171.857203 C7.16484347,171.857203 7.10720545,171.940958 6.97211635,172.06434 C7.20266841,172.157101 7.42511514,172.26157 7.64215829,172.372343 C8.55085765,172.397559 9.45775582,172.448893 10.3655546,172.483116 C10.3097177,171.959871 10.2331673,171.224986 10.2367696,171.171851 L4.33517708,169.766924 C4.33517708,169.766924 3.85786226,170.388334 4.93677388,171.056575 C6.01568551,171.725716 7.16484347,171.857203 7.16484347,171.857203" id="thumb" fill="#825A46" fill-rule="nonzero"></path>
                        <path d="M58.8201241,187.885885 L56.8586304,192.19883 C56.8586304,192.19883 57.2810089,194.569193 58.148281,195.493203 C58.4094532,195.772387 58.8228259,195.847136 59.1758587,195.70124 C59.9926975,195.362617 61.8785414,194.546678 62.1901469,194.098183 C62.3441485,193.877537 62.3675639,193.587546 62.2865105,193.330876 L61.7146333,191.431524 L61.6443869,187.003303 L58.8201241,187.885885 Z" id="hand" fill="#825A46" fill-rule="nonzero"></path>
                        <polygon id="neck" fill="#825A46" fill-rule="nonzero" points="47.2702761 136.029592 47.2054333 141.808704 52.3541293 141.531321 52.6783431 132.573112"></polygon>
                        <path d="M46.4119199,136.563464 C45.6923453,136.544552 45.0259058,136.43558 44.6773759,136.151893 C42.6024073,133.134002 44.965566,124.999837 44.965566,124.999837 L48.2815531,123.603016 L52.4954325,126.230949 L52.7349905,131.683145 C52.7998333,133.137604 52.1009723,134.533525 50.8545502,135.443125 C49.5189693,136.192419 47.9780529,136.606692 46.4119199,136.563464" id="Face" fill="#9E7059" fill-rule="nonzero"></path>
                        <path d="M51.3260112,129.320887 C51.0945585,128.404983 51.7204713,126.292189 50.7883565,126.44529 C50.1084081,126.556964 47.7776708,126.652427 46.9932534,126.652427 C45.1245208,126.652427 41.792323,125.921145 41.792323,123.076168 C41.792323,121.65413 42.6658991,120.933655 43.5394753,120.569815 C44.3968408,120.212279 45.3649794,121.239857 46.242158,121.546959 C48.3009159,122.266534 52.5490178,122.848318 53.6360348,122.623169 C54.8707492,122.367401 56.162201,123.627332 56.257664,124.380228 C56.4666018,126.029216 55.3624735,128.542774 54.5456348,130.130521 C54.0728229,131.050027 53.4406059,131.874071 52.6787034,132.572932 L51.3260112,129.320887 Z" id="hair" fill="#1B2B57" fill-rule="nonzero"></path>
                        <path d="M53.7269948,129.526673 C53.3100198,129.15923 52.5301054,129.228576 51.985246,129.682475 C51.4403866,130.136375 51.3359177,130.801914 51.7528927,131.169356 C52.1689672,131.537699 52.9488816,131.467453 53.4937409,131.013553 C54.0395009,130.560555 54.1430692,129.894115 53.7269948,129.526673" id="ear" fill="#9E7059" fill-rule="nonzero"></path>
                        <polygon id="collar" fill="#FFCF51" fill-rule="nonzero" points="52.4509435 138.348802 52.7688532 140.247254 46.85105 140.236447 47.2383054 138.348802"></polygon>
                        <g id="shirt" transform="translate(8.536718, 139.172395)">
                            <mask id="mask-25" fill="white">
                                <use xlink:href="#path-24"></use>
                            </mask>
                            <g id="path-25"></g>
                            <path d="M36.6604804,1.27253934 C32.9536355,2.03714365 29.8321766,4.52458431 28.1192468,7.90001067 L28.1192468,7.90001067 C28.1192468,7.90001067 22.6589453,21.7259299 20.1300773,23.6432946 L20.1300773,23.6432946 C17.6012094,25.5597586 0.868172627,31.3199579 0.868172627,31.3199579 L0.868172627,31.3199579 L0.868172627,35.0123934 C0.868172627,35.0123934 19.7932552,34.6908813 24.5123678,31.4145203 L24.5123678,31.4145203 C29.232381,28.1399605 29.7385149,24.5907195 29.7385149,24.5907195 L29.7385149,24.5907195 L29.7385149,40.301582 L49.2642936,40.301582 L48.7860782,15.9387128 L49.4606231,50.044208 C49.4606231,50.044208 51.8201794,50.2135197 53.6745025,50.044208 L53.6745025,50.044208 C59.9714558,35.5779664 57.2246441,19.0745812 55.5873642,12.1174924 L55.5873642,12.1174924 C54.5471781,7.69647642 51.6031363,3.89146672 47.4486961,2.06145969 L47.4486961,2.06145969 C45.7618835,1.31756904 43.7562606,0.822242332 41.4057103,0.822242332 L41.4057103,0.822242332 C39.5766038,0.822242332 38.0059679,0.995156383 36.6604804,1.27253934" id="Fill-126" fill="url(#linearGradient-26)" fill-rule="nonzero" mask="url(#mask-25)"></path>
                        </g>
                    </g>
                    <g id="Group-147" transform="translate(53.624700, 336.567507)" fill-rule="nonzero">
                        <polygon id="Fill-129" fill="#57C4C4" points="88.1301486 28.9827019 87.6708457 5.508719 88.1760789 5.4934089 88.6398848 28.9827019"></polygon>
                        <path d="M5.93815668,3.1803233 C5.93815668,3.1803233 6.11827548,24.7576552 11.7442862,24.5009859 C17.3693964,24.2443166 21.0735396,7.2086803 21.0735396,7.2086803 L18.7941362,6.5395389 L13.3347353,16.8450362 C13.3347353,16.8450362 14.1542758,13.4867211 12.7682616,7.306845 C11.383148,1.1260683 5.93815668,3.1803233 5.93815668,3.1803233" id="Fill-133" fill="#C49C66"></path>
                        <path d="M7.01904961,1.0687005 L6.76238032,1.4577571 C6.8254219,1.4991844 13.0278128,5.6671335 13.0278128,12.4747236 L13.0278128,40.2175222 L1.6668194,40.2175222 L2.02885819,18.8545316 C1.87485662,18.9770124 1.71815326,19.0958908 1.55694693,19.2102663 L1.19310695,40.6822287 L13.4934199,40.6822287 L13.4934199,12.4747236 C13.4934199,5.4203707 7.08299178,1.1110284 7.01904961,1.0687005" id="Fill-135" fill="#FFCF51"></path>
                        <path d="M12.8838979,46.2197111 L1.95699079,46.2197111 C0.880780946,46.2197111 0,45.3380295 0,44.2618197 L0,37.1029979 C0,36.026788 0.880780946,35.1460071 1.95699079,35.1460071 L12.8838979,35.1460071 C13.9601077,35.1460071 14.8408887,36.026788 14.8408887,37.1029979 L14.8408887,44.2618197 C14.8408887,45.3380295 13.9601077,46.2197111 12.8838979,46.2197111" id="Fill-137" fill="#57C4C4"></path>
                        <path d="M14.8412489,40.4520368 L14.8412489,37.0784117 C14.8412489,36.0148101 13.9712751,35.1457369 12.9085742,35.1457369 L1.9321344,35.1457369 C0.869433456,35.1457369 0.000360238,36.0148101 0.000360238,37.0784117 L0.000360238,40.4520368 L14.8412489,40.4520368 Z" id="Fill-139" fill="#FED774"></path>
                        <path d="M13.2278347,46.2197111 L13.2278347,46.2197111 C12.3020241,46.2197111 11.5446245,45.8234497 11.5446245,44.8967385 L11.5446245,36.4689797 C11.5446245,35.5431691 12.3020241,35.1460071 13.2278347,35.1460071 C14.1536454,35.1460071 14.911045,35.9034067 14.911045,36.4689797 L14.911045,44.5365009 C14.911045,45.8234497 14.1536454,46.2197111 13.2278347,46.2197111" id="Fill-141" fill="#006669"></path>
                        <path d="M5.67698441,42.2725876 L5.67698441,42.2725876 C5.39599908,42.2725876 5.16634761,42.0429362 5.16634761,41.7628514 L5.16634761,39.1880531 C5.16634761,38.9079684 5.39599908,38.6774163 5.67698441,38.6774163 C5.95796975,38.6774163 6.18762122,38.9079684 6.18762122,39.1880531 L6.18762122,41.7628514 C6.18762122,42.0429362 5.95796975,42.2725876 5.67698441,42.2725876" id="Fill-143" fill="#003F5F"></path>
                        <path d="M18.6924591,6.938322 L17.6837938,2.8298121 C17.6837938,2.8298121 18.4447957,0.819686202 19.3588987,0.152346102 C19.6344804,-0.0493869983 20.0091275,-0.0475857983 20.2946158,0.138837202 C20.9556518,0.571122302 22.4758545,1.5977995 22.6757864,2.0426929 C22.7739511,2.2624378 22.7460327,2.5209083 22.6325579,2.7325479 L21.8184209,4.3049851 L21.0736297,7.2085002 L18.6924591,6.938322 Z" id="Fill-145" fill="#C49C66"></path>
                    </g>
                    <g id="shirt" transform="translate(47.731483, 334.120378)">
                        <mask id="mask-28" fill="white">
                            <use xlink:href="#path-27"></use>
                        </mask>
                        <g id="path-28"></g>
                        <path d="M4.1508378,35.7202603 L15.7612958,35.7202603 C15.7612958,35.7202603 15.3623326,22.7336946 18.4927974,15.9891461 L18.4927974,15.9891461 C19.192559,14.4779493 19.1817518,12.7316975 18.5180141,11.2042901 L18.5180141,11.2042901 C16.7429433,7.11919566 11.6482829,0.803329858 11.6482829,0.803329858 L11.6482829,0.803329858 C11.6482829,0.803329858 10.7170687,0.220645533 6.74274736,0.220645533 L6.74274736,0.220645533 C-5.3234112,2.05875791 4.66507698,26.0415764 4.1508378,35.7202603" id="Fill-148" fill="url(#linearGradient-29)" fill-rule="nonzero" mask="url(#mask-28)"></path>
                    </g>
                    <g id="LEFT-GIRL" transform="translate(44.170753, 306.082333)" fill-rule="nonzero">
                        <path d="M24.5278198,132.039541 L25.2338855,134.440525 C25.401396,135.09976 25.7931543,135.659929 26.3470197,136.035477 C26.958523,136.450651 27.9275622,136.965791 29.3991328,137.412485 C27.4079194,138.991227 24.6079726,137.407982 23.0301319,136.241713 C22.2610246,135.673438 21.756692,134.825979 21.5999886,133.858741 L21.3784425,132.039541 L24.5278198,132.039541 Z" id="Fill-151" fill="#C49C66"></path>
                        <path d="M21.4663405,133.288395 C21.4663405,133.288395 20.1271572,134.271844 20.2442344,135.523669 C20.3595104,136.777296 20.4198502,139.711432 20.4198502,139.711432 L21.7058985,139.711432 L21.9130351,136.975427 C21.9328482,136.796209 24.4238912,139.711432 24.8903989,139.711432 L31.6943867,139.711432 C31.6943867,139.711432 32.3121942,137.865214 28.3711948,137.272623 C24.4292948,136.679132 21.4663405,133.288395 21.4663405,133.288395" id="Fill-153" fill="#003F5F"></path>
                        <path d="M19.3216659,63.7579448 L24.9080506,132.194984 L21.0985379,132.272435 C21.0985379,132.272435 14.0549921,117.889048 13.9027917,105.965183 C13.8775751,103.994684 13.9640321,101.98816 12.813073,100.481466 C4.03138076,88.9826825 8.46230329,70.8195024 8.46230329,70.8195024 L14.4089256,63.7579448 L19.3216659,63.7579448 Z" id="Fill-155" fill="#1B2B57"></path>
                        <path d="M3.99796872,132.039541 L4.92017699,134.440525 C5.14712668,135.09976 5.59021893,135.659929 6.17650563,136.035477 C6.82583391,136.450651 7.84260455,136.965791 9.3538013,137.412485 C7.5048818,138.991227 4.56174057,137.407982 2.87943096,136.241713 C2.05898981,135.673438 1.47810667,134.825979 1.2340457,133.858741 L0.848591464,132.039541 L3.99796872,132.039541 Z" id="Fill-157" fill="#C49C66"></path>
                        <path d="M1.04942392,133.288395 C1.04942392,133.288395 -0.201501153,134.271844 0.0281503199,135.523669 C0.256901199,136.777296 0.581115043,139.711432 0.581115043,139.711432 L1.86716329,139.711432 L1.82753715,136.975427 C1.83113953,136.796209 4.58515601,139.711432 5.05166371,139.711432 L11.8556515,139.711432 C11.8556515,139.711432 12.3077497,137.866114 8.31271463,137.272623 C4.316779,136.679132 1.04942392,133.288395 1.04942392,133.288395" id="Fill-159" fill="#003F5F"></path>
                        <polygon id="Fill-161" fill="#C49C66" points="15.79539 25.5319618 15.8061972 33.1473848 11.234782 28.1652987 11.7274069 21.0767232"></polygon>
                        <path d="M16.5565721,14.4047626 C13.3900836,14.8352465 11.8149446,18.8942237 11.8149446,18.8942237 L11.8500678,30.9072472 L6.36004669,26.1602162 C6.36004669,26.1602162 5.96198414,20.7395408 7.31647753,14.8352465 C8.49085212,11.1166938 13.2297778,10.1377481 16.5565721,11.9506439 C18.1749395,12.8341266 19.1358734,14.5650683 19.7077506,16.2843023 C20.4741561,18.5925247 20.5417006,21.0772636 20.032865,23.456633 L18.1497229,32.2707466 L15.8063773,29.947214 C15.8063773,29.947214 15.2047805,27.6975302 15.7955702,25.5316016 C17.0014655,21.1069832 18.6828746,14.1165725 16.5565721,14.4047626" id="Fill-163" fill="#1B2B57"></path>
                        <path d="M10.8825597,19.0624547 C11.2373937,18.7193284 11.9020321,18.7832705 12.365838,19.2083509 C12.8314451,19.6316301 12.9197033,20.2539405 12.5648693,20.5970669 C12.2100352,20.9410938 11.5453969,20.876251 11.0806903,20.4520712 C10.6168844,20.0278914 10.5277256,19.4064816 10.8825597,19.0624547" id="Fill-165" fill="#DBB27A"></path>
                        <path d="M17.115931,25.6339991 C17.7292356,25.6150866 18.2975104,25.5151207 18.5947064,25.2494455 C20.3625725,22.4314868 18.3488443,14.8349763 18.3488443,14.8349763 L15.5227802,13.5318168 L11.9321119,15.9850349 L11.7276771,21.0760928 C11.6727408,22.4350892 12.2680335,23.7391493 13.3307344,24.5875089 C14.4681847,25.2872704 15.7812507,25.6745258 17.115931,25.6339991" id="Fill-167" fill="#DBB27A"></path>
                        <path d="M17.1542063,13.9895887 C17.831453,16.2599862 11.8145844,18.8942237 11.8145844,18.8942237 L10.3033876,16.0609549 L13.0655095,12.6747215 L16.5562119,13.2321892 C16.5562119,13.2321892 17.0389303,13.6104386 17.1542063,13.9895887" id="Fill-169" fill="#1B2B57"></path>
                        <path d="M17.1924815,14.4671737 C17.3185647,15.3623642 18.715386,16.4493811 18.715386,16.4493811 L18.8468727,15.3794755 L18.5280625,14.6265789 L17.8111896,14.2276157 C17.8111896,14.2276157 17.0663984,13.5719833 17.1924815,14.4671737" id="Fill-171" fill="#1B2B57"></path>
                        <path d="M7.71156812,63.7579448 C7.71156812,63.7579448 -3.63141345,68.5103794 2.1504001,98.3389537 C2.48902345,100.087006 2.27378148,101.908007 1.77215062,103.616434 C-0.676564494,111.936122 0.710350284,132.272435 0.710350284,132.272435 L4.52976948,132.272435 C4.52976948,132.272435 17.3164033,79.1995297 18.1413474,63.7579448 L7.71156812,63.7579448 Z" id="Fill-173" fill="#003F5F"></path>
                        <path d="M42.8664355,50.8128065 C43.0600632,50.9073689 43.7508188,51.1667399 45.2061787,50.9280825 C46.5111395,50.7146417 49.0769318,49.4213887 48.9040178,50.9028659 C47.8629311,51.9214377 46.7597034,53.2552174 46.7597034,53.2552174 C46.070749,53.8036792 44.5982778,53.7964744 43.6760695,53.6064491 L40.8959358,52.6635272 C40.8959358,52.6635272 40.3240586,51.2838171 40.2862337,51.2243779 L40.7707532,50.8461285 C41.4750178,50.9532991 42.181984,50.9361879 42.8664355,50.8128065" id="Fill-175" fill="#DBB27A"></path>
                        <path d="M43.456955,51.301829 C43.456955,51.301829 43.5163942,51.3567653 43.6406762,51.4288128 C43.490277,51.5449894 43.3470825,51.6683708 43.2101922,51.7971557 C42.5464544,51.9880817 41.8899214,52.2006219 41.2288854,52.3996531 C41.1640426,51.9763739 41.072182,51.3837831 41.0586731,51.3423558 L45.1167498,49.1223915 C45.1167498,49.1223915 45.5940646,49.5204541 44.9348298,50.2508358 C44.2764955,50.9812176 43.456955,51.301829 43.456955,51.301829" id="Fill-177" fill="#DBB27A"></path>
                        <path d="M6.52512557,32.5819918 C10.6822676,28.2951644 18.6101966,38.8969571 21.4560737,42.0202171 C21.9829212,42.6001996 22.6187406,43.0694091 23.3257069,43.4062313 L42.3363459,50.8019093 L41.1421582,52.7670054 L20.179932,48.2766437 C19.3594908,48.054197 18.5822782,47.7065677 17.8699084,47.2445629 C13.9072947,44.6769694 2.38419431,36.8517081 6.52512557,32.5819918" id="Fill-179" fill="#DBB27A"></path>
                        <path d="M20.7341575,47.9835003 L30.1066394,49.9693101 L29.9166141,50.3475596 L20.6440981,48.3842647 C19.794838,48.1942393 18.9825022,47.8754291 18.2314068,47.4350386 C16.1123091,46.1949206 12.7431869,43.6588479 9.68206782,41.149793 C9.78653673,41.05433 9.88920444,40.9552647 9.99097158,40.8552987 C13.2096946,43.4850332 16.749029,46.0904517 18.439444,47.0802045 C19.1536151,47.4989808 19.9254241,47.8024809 20.7341575,47.9835003" id="Fill-181" fill="#C49C66"></path>
                        <path d="M268.649046,135.663892 L258.039148,135.651284 C256.630619,135.798981 255.056381,136.199745 254.792507,137.420951 C254.792507,137.420951 254.607885,138.231485 254.639406,139.037517 C255.014053,139.477908 269.082232,138.978978 269.082232,138.978978 L269.144373,138.927645 C270.633955,137.134562 268.649046,135.663892 268.649046,135.663892" id="Fill-183" fill="#073A5D"></path>
                        <polygon id="Fill-185" fill="#1B2B57" points="254.639676 139.037607 269.082502 138.979069 268.95732 139.541039 254.618962 139.541039"></polygon>
                        <polygon id="Fill-187" fill="#FEFEFE" points="264.449486 135.651554 263.493056 135.658759 263.792053 136.958316 264.717863 136.958316"></polygon>
                        <polygon id="Fill-189" fill="#FEFEFE" points="262.401175 135.651554 261.444744 135.658759 261.742841 136.958316 262.669552 136.958316"></polygon>
                        <path d="M269.376366,132.130141 L268.648686,135.664072 C267.796724,136.094556 266.690795,136.121574 265.80461,135.731617 L265.642503,135.66047 L265.132767,132.130141 L269.376366,132.130141 Z" id="Fill-191" fill="#F8AF89"></path>
                        <path d="M293.445281,135.663892 L282.835383,135.651284 C281.426854,135.798981 279.852616,136.199745 279.588742,137.420951 C279.588742,137.420951 279.40412,138.231485 279.435641,139.037517 C279.810288,139.477908 293.878467,138.978978 293.878467,138.978978 L293.940608,138.927645 C295.430191,137.134562 293.445281,135.663892 293.445281,135.663892" id="Fill-193" fill="#1B2B57"></path>
                        <polygon id="Fill-195" fill="#1B2B57" points="279.435911 139.037607 293.878737 138.979069 293.753555 139.541039 279.415197 139.541039"></polygon>
                        <polygon id="Fill-197" fill="#FEFEFE" points="289.245721 135.651554 288.289291 135.658759 288.588288 136.958316 289.514098 136.958316"></polygon>
                        <polygon id="Fill-199" fill="#FEFEFE" points="287.19741 135.651554 286.24098 135.658759 286.539076 136.958316 287.465787 136.958316"></polygon>
                        <path d="M292.984447,132.130141 L293.445552,135.664072 C292.592689,136.094556 291.48676,136.121574 290.601476,135.731617 L290.440269,135.66047 L288.739948,132.130141 L292.984447,132.130141 Z" id="Fill-201" fill="#F8AF89"></path>
                        <path d="M277.151915,13.2886564 L285.888577,18.9858141 L283.192199,25.8906684 C283.154374,25.9888332 283.10304,26.077992 283.059811,26.1734549 C282.867985,26.1608466 282.676158,26.1500395 282.482531,26.1500395 C282.45101,26.1500395 282.419489,26.1527413 282.387068,26.1536419 C282.356447,26.1536419 282.326728,26.1500395 282.297008,26.1500395 C279.957265,26.1500395 277.94804,27.5882881 276.726834,29.5254658 C275.312902,29.4191957 273.907074,29.0751688 272.603014,28.4555601 C271.714128,28.032281 270.940518,27.5297495 270.660433,26.9830889 C269.724716,22.0874599 277.151915,13.2886564 277.151915,13.2886564" id="Fill-203" fill="#F8AF89"></path>
                        <path d="M266.038675,15.0748946 C266.038675,15.0748946 264.969669,25.2164837 267.122089,31.6737428 C266.12243,32.5419154 262.450708,36.4775112 261.295246,31.3765468 C260.141585,26.2755823 262.592101,13.2890166 262.592101,13.2890166 L266.038675,15.0748946 Z" id="Fill-205" fill="#F8AF89"></path>
                        <polygon id="Fill-207" fill="#1B2B57" points="271.280402 14.3572112 273.336458 15.6801838 272.603374 17.214796 270.39782 16.2421545"></polygon>
                        <path d="M272.491521,16.2024383 C272.285285,16.6716477 272.270875,17.119243 272.459099,17.201197 C272.646423,17.2831511 272.965233,16.970645 273.171469,16.5005349 C273.376805,16.032226 273.392115,15.5837302 273.204791,15.5026767 C273.016567,15.4198221 272.697757,15.7332288 272.491521,16.2024383" id="Fill-209" fill="#1B2B57"></path>
                        <path d="M246.477142,6.87804813 C246.475341,6.85823506 246.470838,6.83932259 246.469037,6.82041011 C246.856292,5.93872858 247.538042,4.53920548 248.457548,3.25225664 C249.943529,1.17278507 250.366808,0.133499575 250.366808,0.133499575 L271.594709,14.0260628 L270.219502,16.6197735 L246.475341,7.8452861 C246.496055,7.52107225 246.503259,7.19685841 246.477142,6.87804813" id="Fill-211" fill="#003F5F"></path>
                        <polygon id="Fill-213" fill="#F69C82" points="279.079726 29.5292483 279.84343 34.296993 273.088975 34.296993 272.603555 28.4557403"></polygon>
                        <path d="M261.636031,41.3591811 C261.636031,41.3591811 253.657668,38.8186054 251.156719,35.4026523 C248.65667,31.9857986 252.88766,13.2885663 252.88766,13.2885663 L252.3419,9.92394712 C252.033897,8.02999793 253.486555,6.30626099 255.405721,6.2900503 L257.536527,6.27015284 C258.424512,6.26303248 259.022507,7.17443362 258.662269,7.98496823 L255.85872,14.2927287 C255.85872,14.2927287 253.754032,28.4554701 256.701676,29.5289782 C260.215794,30.7817044 264.193718,31.0834034 264.193718,31.0834034 L261.636031,41.3591811 Z" id="Fill-215" fill="#F8AF89"></path>
                        <path d="M276.624166,29.5292483 L278.67662,24.9776462 L277.343741,24.1409944 C276.358491,23.5222863 275.928007,22.307385 276.303555,21.2077597 L277.764319,16.9173298 C277.764319,16.9173298 273.606276,16.4093948 273.732359,12.5359399 C273.732359,10.5411242 276.476469,10.5303171 276.476469,10.5303171 C276.476469,10.5303171 277.29691,12.3125926 279.842889,12.5242322 C280.936211,12.3873419 283.93699,12.7899074 285.961525,16.3229377 C287.323223,18.6996053 286.72613,22.4217604 285.540047,25.2163036 C284.479147,27.7190544 281.766558,29.1176769 279.080086,29.5292483 L276.624166,29.5292483 Z" id="Fill-217" fill="#073A5D"></path>
                        <path d="M284.736537,67.7657683 C284.736537,67.7657683 284.312357,77.4696687 282.213973,87.9886068 C281.596166,91.0875508 281.828519,94.2954667 282.837184,97.2899417 C287.601327,111.442776 294.280132,132.724713 294.280132,132.724713 L288.338013,132.724713 C288.338013,132.724713 274.876834,107.572924 271.407746,95.0960947 C267.939558,82.6183647 267.345166,78.6584528 267.345166,78.6584528 L271.472589,67.7657683 L284.736537,67.7657683 Z" id="Fill-219" fill="#1B2B57"></path>
                        <path d="M279.780658,22.8583684 C280.024719,23.5752412 279.531194,24.5244673 278.67653,24.9783667 C277.821866,25.4313655 276.931179,25.2179247 276.686217,24.5010518 C276.442156,23.7832784 276.936583,22.8349529 277.791246,22.3810535 C278.645009,21.9271542 279.536597,22.1405949 279.780658,22.8583684" id="Fill-221" fill="#F8AF89"></path>
                        <path d="M265.36503,67.7657683 L284.736807,67.7657683 L284.736807,42.9120753 C284.736807,37.4670839 280.592274,32.9190842 275.172499,32.4120498 L261.701414,30.7819746 C261.701414,30.7819746 260.116368,33.2063737 255.702557,38.8404898 C261.007956,42.1177514 267.147306,43.6280476 267.147306,43.6280476 L265.36503,67.7657683 Z" id="Fill-223" fill="#006669"></path>
                        <path d="M284.736537,67.7657683 C284.736537,67.7657683 282.000533,77.6677994 271.905774,88.76672 C270.219862,90.4427255 267.791861,93.9289249 268.136788,98.8587765 L270.219862,132.724713 L264.193087,132.724713 C264.193087,132.724713 256.848743,104.601864 258.432888,90.7390209 C260.017933,76.8752767 265.36476,67.7657683 265.36476,67.7657683 L284.736537,67.7657683 Z" id="Fill-225" fill="#003F5F"></path>
                        <path d="M249.728647,4.57468889 C248.68666,6.73521392 247.272727,8.21398929 246.571164,7.87536594 C245.868701,7.53674259 246.145183,5.51040606 247.187171,3.34898044 C248.228257,1.18755481 249.64219,-0.290319967 250.344653,0.0483033824 C251.046216,0.386926726 250.770634,2.41326326 249.728647,4.57468889" id="Fill-227" fill="#FEFEFE"></path>
                        <path d="M266.875957,10.9378359 L266.696739,11.0242929 C266.065422,11.3268925 265.339543,11.3719222 264.675806,11.150376 L264.556027,11.1107499 C263.461805,10.7460093 262.608942,9.88053852 262.258611,8.78091322 C262.102809,8.29279126 262.532392,7.81907881 263.033122,7.92354772 L264.375908,8.20543364 C264.898252,8.31530611 265.356655,8.62781224 265.650248,9.07360627 L266.875957,10.9378359 Z" id="Fill-229" fill="#F8AF89"></path>
                        <polygon id="Fill-231" fill="#825A46" points="317.803467 34.6390386 312.026157 45.5218167 318.392456 45.2156147 318.839151 34.2887076"></polygon>
                        <polygon id="Fill-233" fill="#FEFEFE" points="326.877132 29.816808 321.539312 29.8087027 319.327453 64.3059563 328.892662 64.3059563"></polygon>
                        <path d="M336.675505,131.084461 C336.675505,131.084461 337.994875,132.121045 337.752615,133.442217 C337.511256,134.764289 337.169031,137.85873 337.169031,137.85873 L335.812736,137.85873 L335.854163,134.972326 C335.850561,134.783201 332.945245,137.85873 332.454421,137.85873 L325.276687,137.85873 C325.276687,137.85873 324.799372,135.912546 329.014152,135.286633 C333.228932,134.66072 336.675505,131.084461 336.675505,131.084461" id="Fill-235" fill="#003F5F"></path>
                        <path d="M333.564763,129.766982 L332.592122,132.299453 C332.352564,132.994711 331.886957,133.5846 331.266447,133.981762 C330.581996,134.420352 329.510289,135.031855 327.916238,135.502866 C329.866924,137.168064 332.970371,135.429017 334.745442,134.199706 C335.610012,133.599911 336.223317,132.706521 336.479986,131.685248 L336.887055,129.766982 L333.564763,129.766982 Z" id="Fill-237" fill="#825A46"></path>
                        <path d="M323.003948,131.084461 C323.003948,131.084461 324.322417,132.121045 324.080157,133.442217 C323.839699,134.764289 323.496572,137.85873 323.496572,137.85873 L322.140278,137.85873 L322.182606,134.972326 C322.178103,134.783201 319.272787,137.85873 318.781963,137.85873 L311.604229,137.85873 C311.604229,137.85873 311.126914,135.912546 315.341694,135.286633 C319.556474,134.66072 323.003948,131.084461 323.003948,131.084461" id="Fill-239" fill="#003F5F"></path>
                        <path d="M319.893206,129.766982 L318.919664,132.299453 C318.680106,132.994711 318.214499,133.5846 317.593989,133.981762 C316.909538,134.420352 315.838732,135.031855 314.24468,135.502866 C316.194466,137.168064 319.297913,135.429017 321.073885,134.199706 C321.938455,133.599911 322.550859,132.706521 322.808429,131.685248 L323.214596,129.766982 L319.893206,129.766982 Z" id="Fill-241" fill="#825A46"></path>
                        <path d="M330.970332,64.3058662 C330.970332,64.3058662 331.867324,69.4626675 326.711423,94.8044824 C330.884776,108.012594 324.200567,130.11137 324.200567,130.11137 L319.327453,130.11137 L316.011465,64.3058662 L330.970332,64.3058662 Z" id="Fill-243" fill="#108B8B"></path>
                        <path d="M322.126139,29.8168073 L320.394296,71.6728153 L314.659314,69.2168954 C314.659314,69.2168954 317.243118,61.3592127 316.998156,50.4440132 C317.875335,42.5512073 313.396681,46.7092499 318.8831,31.5108253 C320.926547,29.8087027 322.126139,29.8168073 322.126139,29.8168073" id="Fill-245" fill="#FED774"></path>
                        <path d="M321.376844,25.4933263 L322.048687,29.0227543 C322.344082,30.5753783 324.108346,31.3444856 325.44843,30.505132 L327.801682,29.029959 L323.59861,19.5295928 L321.376844,25.4933263 Z" id="Fill-247" fill="#825A46"></path>
                        <path d="M335.658824,64.3058662 C335.658824,64.3058662 342.043135,69.4626675 336.886334,94.8044824 C341.060587,108.012594 337.378058,130.11137 337.378058,130.11137 L333.003873,130.11137 L320.699958,64.3058662 L335.658824,64.3058662 Z" id="Fill-249" fill="#57C4C4"></path>
                        <path d="M326.877132,26.2699085 C326.877132,26.2699085 332.265386,29.2977056 333.940491,32.0021894 C335.536344,34.5796895 336.089308,40.4443577 336.242409,45.6660018 C336.453148,52.8365313 339.915932,71.672455 339.915932,71.672455 L325.470404,71.672455 L325.110167,30.6675091 L326.877132,26.2699085 Z" id="Fill-251" fill="#FED774"></path>
                        <path d="M316.242378,14.9078344 C319.509733,14.0801885 322.651905,17.4294976 322.651905,17.4294976 L325.110527,30.667329 L328.89032,24.8404857 C328.89032,24.8404857 329.105562,16.925165 325.452753,11.6837078 C322.835627,8.51001454 317.813914,9.42051512 315.27514,12.5077513 C314.040425,14.0090416 313.782856,16.082209 313.900833,17.9896671 C314.06204,20.5509565 314.787918,35.2504519 314.787918,35.2504519 L322.272755,29.7072958 C322.272755,29.7072958 322.092636,28.2114091 321.376664,25.4934164 C320.144652,20.8157311 314.048531,15.4635009 316.242378,14.9078344" id="Fill-253" fill="#1B2B57"></path>
                        <path d="M323.630941,17.2261435 C323.148223,17.029814 322.524111,17.3567296 322.235921,17.954724 C321.949532,18.5518179 322.108037,19.1957426 322.590755,19.3911715 C323.073473,19.587501 323.697585,19.2614859 323.984875,18.6643921 C324.272164,18.0663977 324.113659,17.422473 323.630941,17.2261435" id="Fill-255" fill="#9E7059"></path>
                        <path d="M320.125379,26.1141958 C319.517478,26.3375432 318.922185,26.4636263 318.527725,26.3204319 C315.68545,24.261674 314.659674,16.0365488 314.659674,16.0365488 L316.909358,13.6454717 L321.390713,14.629821 L323.598069,19.5290524 C324.188859,20.8376155 324.120414,22.3470111 323.415249,23.5970356 C322.578597,24.7299828 321.447451,25.6269745 320.125379,26.1141958" id="Fill-257" fill="#9E7059"></path>
                        <path d="M315.493984,14.7371718 C315.727238,17.2255131 322.651905,17.4290473 322.651905,17.4290473 L323.013944,14.0608257 L318.975681,11.8381597 L315.779472,13.7609279 C315.779472,13.7609279 315.45796,14.3210974 315.493984,14.7371718" id="Fill-259" fill="#1B2B57"></path>
                        <path d="M315.645284,15.2199803 C315.874935,16.1457909 314.937417,17.7596554 314.937417,17.7596554 L314.387154,16.764499 L314.401564,15.9026305 L314.945522,15.2307874 C314.945522,15.2307874 315.414732,14.2941696 315.645284,15.2199803" id="Fill-261" fill="#1B2B57"></path>
                        <path d="M332.467209,32.0023695 C339.456719,32.8174071 336.155142,50.8491004 334.653852,58.2519832 C334.284608,60.0747855 332.420378,61.1861185 330.647109,60.6268496 C324.567199,58.709485 315.681038,50.7446315 315.681038,50.7446315 L317.089567,48.9713619 L328.892752,51.726279 C328.892752,51.726279 324.364565,31.0558452 332.467209,32.0023695" id="Fill-263" fill="#825A46"></path>
                        <path d="M318.484226,44.7373092 L320.766332,58.8649275 C320.832075,59.2737972 320.516867,59.6448419 320.101693,59.6448419 L311.066034,59.6448419 C310.735516,59.6448419 310.452729,59.4034827 310.400495,59.0774677 L308.158916,44.9498494 C308.094073,44.5409797 308.409281,44.1717362 308.823554,44.1717362 L317.819588,44.1717362 C318.150106,44.1717362 318.431091,44.4112942 318.484226,44.7373092" id="Fill-265" fill="#F6A506"></path>
                        <path d="M308.454581,50.9922048 C308.398744,50.4950769 308.446476,50.1852726 308.612185,49.1567942 C308.827427,47.8212133 308.77159,45.7273322 310.13599,46.7711207 C311.425641,48.3885875 311.575139,50.1096227 311.575139,50.1096227 C311.838113,51.0579482 311.256329,52.3773184 310.714171,53.09239 L309.775753,55.137639 C309.775753,55.137639 308.156485,53.2526958 308.454581,50.9922048" id="Fill-267" fill="#825A46"></path>
                    </g>
                    <g id="Fill-270-Clipped" transform="translate(356.635229, 354.834040)">
                        <mask id="mask-31" fill="white">
                            <use xlink:href="#path-30"></use>
                        </mask>
                        <g id="path-31"></g>
                        <path d="M0.523245121,0.908699357 C0.523245121,1.28965062 0.831248273,1.59855437 1.21219954,1.59855437 L1.21219954,1.59855437 C1.59315081,1.59855437 1.90205455,1.28965062 1.90205455,0.908699357 L1.90205455,0.908699357 C1.90205455,0.527748091 1.59315081,0.219744939 1.21219954,0.219744939 L1.21219954,0.219744939 C0.831248273,0.219744939 0.523245121,0.527748091 0.523245121,0.908699357" id="Fill-270" fill="url(#linearGradient-32)" fill-rule="nonzero" mask="url(#mask-31)"></path>
                    </g>
                    <g id="Group-327" transform="translate(39.626137, 118.878409)" fill-rule="nonzero">
                        <polygon id="Fill-273" fill="#57C4C4" points="7.49600419 44.0055451 4.21333902 50.4610029 11.1064856 48.8876652 34.6885398 41.456864"></polygon>
                        <polygon id="Fill-275" fill="#57C4C4" points="4.21369926 50.4610029 15.9241232 49.733323 13.0539301 48.2743607"></polygon>
                        <polygon id="Fill-277" fill="#FEFEFE" points="7.49600419 44.0055451 5.44625222 37.7166971 34.6885398 41.456864"></polygon>
                        <polygon id="Fill-279" fill="#FEFEFE" points="34.6883597 41.4572242 11.1063055 48.8880254 14.6222245 57.9534048"></polygon>
                        <path d="M6.79894443,56.9573478 C6.73770404,56.925827 6.68096661,56.8825985 6.63233454,56.8276622 C6.43330326,56.5989114 6.4576193,56.2512821 6.68727077,56.0513502 C7.41134836,55.4209344 8.19126277,54.8580631 9.00449916,54.3807483 C9.26747261,54.2249455 9.60429478,54.3132038 9.75829635,54.5770778 C9.91229793,54.8391507 9.82494031,55.1768734 9.56196686,55.330875 C8.80726908,55.7739672 8.08319149,56.2954112 7.40954717,56.8825985 C7.23573253,57.0329977 6.99347274,57.0564131 6.79894443,56.9573478" id="Fill-281" fill="#57C4C4"></path>
                        <path d="M20.7660768,71.5159003 C20.6589061,71.460964 20.5697473,71.3727058 20.5166123,71.2556286 C20.3887279,70.9791462 20.5094075,70.6522306 20.7849893,70.5243463 C22.5771714,69.6985016 24.6926667,69.4994703 26.5893177,69.9785863 C26.8829114,70.0551368 27.0630302,70.3523328 26.9882809,70.6486282 C26.9144321,70.9431225 26.6145343,71.1214401 26.3191395,71.0466908 C24.6872632,70.6342187 22.7915128,70.8125363 21.246994,71.5249062 C21.0875889,71.5987549 20.9110725,71.589749 20.7660768,71.5159003 M30.3384906,77.7723269 C30.1142427,77.658852 29.9908613,77.4021827 30.0539029,77.1482152 C30.3835203,75.8306462 30.2628407,74.6148443 29.6972676,73.5359326 C29.4964352,73.155882 29.2433683,72.8055509 28.9416693,72.4957466 C28.7300297,72.2778028 28.7345326,71.9292729 28.9524764,71.7176333 C29.1704201,71.5050931 29.5207512,71.5095961 29.7314902,71.7284405 C30.1061373,72.1138947 30.4231464,72.5488816 30.6717104,73.022594 C31.3588636,74.3302566 31.5146664,75.8495586 31.122908,77.4156916 C31.0490593,77.7101859 30.750062,77.8903047 30.4555678,77.816456 C30.4141405,77.8056488 30.3745143,77.7912393 30.3384906,77.7723269 M1.9427614,64.3012416 C1.7023028,64.1787609 1.5816232,63.8950737 1.6716826,63.6321003 C1.95536972,62.8080568 2.29759544,61.9984228 2.68935384,61.2275143 C3.16486747,60.2926977 3.71963339,59.4011096 4.34014266,58.5779667 C4.52206265,58.3339057 4.86699016,58.2843731 5.11105113,58.4698954 C5.35421152,58.6518154 5.40284359,58.9976435 5.22002301,59.2408039 C4.63913987,60.012613 4.11769594,60.8492648 3.6719019,61.7264434 C3.30265836,62.4523221 2.9802457,63.2133241 2.71457047,63.9896361 C2.61550513,64.2769256 2.30209841,64.4300266 2.01480892,64.3318618 C1.9886917,64.3228559 1.96527625,64.3129494 1.9427614,64.3012416 M14.5150538,77.6894722 C14.4988431,77.6804663 14.4817318,77.6714603 14.4655211,77.6615538 C14.2097524,77.4967451 14.1368043,77.15542 14.3007124,76.8996513 C15.5390292,74.9786842 16.6800818,73.5746582 17.8922813,72.4804365 C18.1183304,72.2778028 18.4668603,72.2958147 18.6703946,72.5209632 C18.8739288,72.7461117 18.8559169,73.0946416 18.6298678,73.2981758 C17.4924176,74.3257536 16.4117048,75.6595333 15.2274237,77.4967451 C15.0725215,77.7363031 14.7636177,77.816456 14.5150538,77.6894722 M24.6917661,84.3205459 C24.5927008,84.2701127 24.5071444,84.1881586 24.4522081,84.0809879 C24.3135166,83.8099091 24.4206873,83.4784905 24.6908655,83.339799 C25.1033376,83.12906 25.5059031,82.8958062 25.8868544,82.6472422 C26.970269,81.9438783 27.9447117,81.0126641 28.7057136,79.9535656 C28.8831307,79.7068028 29.2289588,79.650966 29.4748209,79.8274824 C29.7215837,80.0058 29.7774205,80.3498269 29.6009041,80.5965897 C28.7606499,81.7655607 27.6835394,82.7940391 26.48665,83.5712517 C26.0750785,83.8396287 25.639191,84.091795 25.193397,84.3196453 C25.0294889,84.4034006 24.8439665,84.397997 24.6917661,84.3205459 M1.20517491,73.0820333 C1.05657689,73.0054828 0.943102049,72.8631889 0.912481852,72.6857719 C0.58646682,70.8278464 0.56845494,68.9050782 0.857545618,66.9688011 C0.902575318,66.6680027 1.18266006,66.4599655 1.48345846,66.5058958 C1.78515745,66.5491243 1.99229407,66.8310102 1.94726437,67.130908 C1.67528498,68.9501079 1.69239627,70.7548983 1.99769764,72.494846 C2.04903149,72.7947438 1.84909962,73.0811327 1.55010241,73.1324665 C1.42762163,73.1540808 1.30784262,73.1333671 1.20517491,73.0820333 M16.0523678,85.9227027 C15.8587401,85.8245379 15.7335575,85.6146995 15.7533706,85.385048 C15.7785872,85.0815479 16.045163,84.8573 16.3486632,84.8825166 C18.1849744,85.0401205 19.9816594,84.9005285 21.6891857,84.4673427 C21.9827793,84.3916928 22.2835777,84.5700105 22.358327,84.8663059 C22.4330763,85.1608001 22.2547587,85.4597973 21.9593639,85.5345466 C20.1329592,85.9983526 18.2137934,86.1478512 16.2550014,85.9812413 C16.1820533,85.9740365 16.1136082,85.9542235 16.0523678,85.9227027 M5.16238499,80.9045928 C5.11015054,80.8784756 5.06061787,80.8424518 5.01828995,80.7983227 C4.17893633,79.9355537 3.44945518,78.9872282 2.85056016,77.9794635 C2.47681365,77.3508489 2.14539505,76.6853099 1.86531032,76.001759 C1.75003428,75.7198731 1.88422279,75.398361 2.16520812,75.283085 C2.44799464,75.1669084 2.7695067,75.3028981 2.88478274,75.5838834 C3.14505441,76.2179016 3.45215696,76.8339079 3.79798506,77.4174928 C4.35185038,78.3505082 5.02819648,79.229488 5.8072103,80.0301161 C6.0188499,80.2480598 6.01524752,80.5965897 5.79640318,80.8082293 C5.62348913,80.9766404 5.36681983,81.0090617 5.16238499,80.9045928 M10.1417693,85.4399843 C9.87249167,85.3039946 9.76442039,84.977079 9.89680771,84.7060002 C9.95624691,84.5853206 10.0156861,84.464641 10.0760259,84.3439614 C9.23937408,83.9558053 8.42974007,83.5046077 7.67143991,82.9984739 C7.41927358,82.8300628 7.35082844,82.4878371 7.51923952,82.2347702 C7.68855119,81.9826039 8.02987632,81.9105563 8.28384384,82.0825698 C9.00521964,82.5643876 9.77702871,82.9948715 10.5776568,83.3623139 C11.1684465,82.2266648 11.8195759,81.0468867 12.558063,79.7770491 C12.711164,79.5140757 13.0515885,79.4267181 13.3109596,79.5780179 C13.5748337,79.7302182 13.6630919,80.067941 13.5108915,80.3309145 C12.7985216,81.5557223 12.1690064,82.6949737 11.5962286,83.790096 C12.1104678,83.9882267 12.6355141,84.1611408 13.1677652,84.3088382 C13.4658618,84.3943946 13.6333723,84.6942924 13.5514182,84.9869855 C13.4694642,85.2805791 13.165964,85.4525926 12.8723703,85.3706385 C12.2680717,85.2022275 11.6736797,85.0040968 11.091896,84.7771471 C11.0225502,84.914938 10.9532045,85.0536294 10.8856599,85.1923209 C10.7505708,85.4652009 10.4209534,85.5777752 10.1480734,85.4435867 C10.1453717,85.4426861 10.1435705,85.4408849 10.1417693,85.4399843 M6.94195876,93.7353557 C6.71590966,93.6200797 6.59252828,93.3589074 6.66007283,93.1031387 C7.11217103,91.3947119 7.72997852,89.6016292 8.49728462,87.7734234 C8.61436184,87.492438 8.93767509,87.3609513 9.21775983,87.4789291 C9.48883862,87.5870004 9.63113248,87.918419 9.51225407,88.1994043 C8.76566163,89.9807793 8.16406483,91.7252299 7.72457495,93.3859252 C7.64712387,93.6795189 7.34542488,93.8551347 7.05093063,93.7776836 C7.01310569,93.7668765 6.97618133,93.752467 6.94195876,93.7353557 M5.99903683,102.547668 C5.83152634,102.462112 5.71264793,102.295502 5.69823843,102.09557 L5.68112714,101.828994 C5.58836596,100.077339 5.68292833,98.2590394 5.96301307,96.4263306 C6.00894336,96.1246316 6.29082929,95.9183956 6.59072709,95.9643259 C6.89152549,96.0075544 7.09866212,96.2912415 7.05183123,96.5911393 C6.78345421,98.3518006 6.69249422,100.093549 6.78165302,101.768654 L6.79696312,102.017218 C6.81857738,102.319818 6.5898265,102.583692 6.28632632,102.605306 C6.1836586,102.612511 6.08459326,102.590897 5.99903683,102.547668 M8.57023273,110.994339 C8.47657095,110.946608 8.39641809,110.87366 8.34148185,110.775495 C7.39855992,109.116601 6.68799125,107.335226 6.23048949,105.481803 C6.15754137,105.186409 6.33856077,104.887411 6.6348562,104.814463 C6.92844985,104.742416 7.22744706,104.922535 7.30039518,105.217029 C7.73358089,106.973187 8.40542403,108.66 9.29881329,110.231536 C9.44921249,110.496311 9.3573519,110.832232 9.09257726,110.981731 C8.92596737,111.078095 8.72873728,111.075393 8.57023273,110.994339 M14.6465405,117.369644 C14.6348328,117.364241 14.6249263,117.358837 14.6150197,117.352533 C13.0209683,116.412313 11.5647078,115.150581 10.2849637,113.604261 C10.0922366,113.370106 10.124658,113.023378 10.3588124,112.828849 C10.5938675,112.634321 10.9405962,112.670345 11.1351245,112.901797 C12.3320139,114.349953 13.6910103,115.52793 15.1751892,116.404208 C15.4372621,116.56001 15.5246197,116.897733 15.3697175,117.158905 C15.2211195,117.410171 14.9032098,117.501131 14.6465405,117.369644" id="Fill-283" fill="#57C4C4"></path>
                        <path d="M17.7534097,118.716213 C17.5237583,118.599135 17.4003769,118.330758 17.473325,118.074089 C17.5579808,117.781396 17.8623816,117.612084 18.1550747,117.694939 C18.9998319,117.937199 19.8707063,118.083996 20.7442825,118.132628 C21.0477826,118.147037 21.2810365,118.408209 21.2639252,118.71171 C21.2468139,119.01521 20.9874428,119.248464 20.6839427,119.230452 C19.729313,119.179118 18.7764845,119.018812 17.8524751,118.755839 C17.8173519,118.745032 17.7849305,118.732423 17.7534097,118.716213" id="Fill-285" fill="#57C4C4"></path>
                        <polygon id="Fill-287" fill="#FEFEFE" points="259.232654 4.60365647 280.564124 0.214161256 290.436435 1.2444408 297.139557 4.46136261"></polygon>
                        <polyline id="Fill-289" fill="#A1D6C4" points="259.232654 4.60365647 296.051639 6.43816647 297.139557 4.46136261"></polyline>
                        <polygon id="Fill-291" fill="#108B8B" points="295.206251 12.589854 295.140508 12.647492 292.064079 17.4953896 259.318481 4.63310589"></polygon>
                        <polygon id="Fill-293" fill="#FEFEFE" points="302.680191 11.5116628 299.043592 6.05226193 259.471492 4.61581449 291.175102 13.4470394"></polygon>
                        <path d="M358.371033,102.900791 C357.378579,102.162304 356.42485,101.340062 355.534162,100.45838 C355.328827,100.256647 355.002812,100.259349 354.799278,100.461982 C354.598445,100.665517 354.600246,100.993333 354.803781,101.195967 C355.72779,102.111871 356.720245,102.965634 357.752325,103.73384 C358.125171,104.012124 358.503421,104.2796 358.887974,104.538071 C359.028467,104.634435 359.19958,104.650645 359.349079,104.598411 C359.450846,104.562387 359.544507,104.495743 359.607549,104.398479 C359.768755,104.161623 359.704813,103.83921 359.467957,103.678904 C359.097813,103.428539 358.731271,103.169168 358.371033,102.900791" id="Fill-295" fill="#57C4C4"></path>
                        <path d="M313.790729,10.917541 C312.183169,10.635655 310.494555,10.3897929 308.629425,10.1673462 C308.344837,10.1331236 308.088168,10.3357572 308.052144,10.6203449 C308.018822,10.9049326 308.221456,11.1634031 308.506044,11.1976257 C310.353162,11.4173706 312.021963,11.660531 313.61061,11.9397152 C313.70067,11.9550253 313.789829,11.9469199 313.871783,11.9181009 C314.041995,11.8586617 314.177985,11.7100637 314.211307,11.5182372 C314.260839,11.2363512 314.072615,10.9670736 313.790729,10.917541" id="Fill-297" fill="#57C4C4"></path>
                        <path d="M321.9339,13.8647349 C322.081598,13.813401 322.204979,13.6945226 322.257214,13.5333163 C322.343671,13.2604363 322.194172,12.9686438 321.920391,12.8812862 C320.337147,12.3733512 318.635024,11.91675 316.866258,11.5249916 C316.587074,11.4628506 316.30789,11.6393671 316.24845,11.9194518 C316.186309,12.1995365 316.361925,12.4769195 316.64201,12.5381599 C318.380156,12.9236141 320.048957,13.3712093 321.605183,13.8692378 C321.715957,13.904361 321.831233,13.9016592 321.9339,13.8647349" id="Fill-299" fill="#57C4C4"></path>
                        <path d="M350.669334,93.958613 C350.533344,93.7064466 350.221738,93.6064807 349.96687,93.7496752 C349.714704,93.8856649 349.621042,94.2008728 349.757932,94.4521385 C350.594584,95.9984584 351.577132,97.4763332 352.68036,98.8425343 C352.821753,99.0181501 353.054106,99.0775893 353.254939,99.007343 C353.309875,98.9884305 353.36211,98.9605121 353.409841,98.920886 C353.632288,98.7416678 353.667411,98.4147521 353.487292,98.1923054 C352.424591,96.8738358 351.476266,95.4490961 350.669334,93.958613" id="Fill-301" fill="#57C4C4"></path>
                        <path d="M349.078344,91.8733776 C349.34492,91.7653063 349.471904,91.4627067 349.363832,91.1979321 C349.190918,90.7683487 349.02611,90.3360636 348.873909,89.8992755 C348.46504,88.7294039 348.136323,87.5289121 347.896765,86.3320226 C347.840027,86.0510373 347.567147,85.8691173 347.287063,85.9249542 C347.012382,85.9816916 346.822356,86.2545716 346.879994,86.5355569 C347.128558,87.7801778 347.470784,89.0265999 347.894964,90.2415012 C348.052568,90.6945 348.22278,91.1429959 348.403799,91.5878893 C348.507368,91.8445586 348.795558,91.9733435 349.054929,91.8823835 C349.062133,91.8796818 349.071139,91.8760794 349.078344,91.8733776" id="Fill-303" fill="#57C4C4"></path>
                        <path d="M346.99482,83.8708793 C347.038048,83.867277 347.080376,83.8573704 347.119102,83.8438615 C347.337946,83.767311 347.486544,83.5502679 347.464029,83.3080081 C347.320835,81.6959448 347.299221,80.0262435 347.398286,78.2034412 C347.414497,77.9170523 347.195652,77.6729913 346.909263,77.6567807 C346.625576,77.6414706 346.377913,77.8612155 346.363504,78.1467038 C346.260836,80.0199393 346.283351,81.7391733 346.431949,83.4007693 C346.456265,83.685357 346.709332,83.896096 346.99482,83.8708793" id="Fill-305" fill="#57C4C4"></path>
                        <path d="M346.999233,37.5237898 C347.255002,38.1560068 347.496361,38.7936274 347.720609,39.4357509 C348.060133,40.4056907 348.363633,41.3954435 348.623904,42.3779916 C348.696853,42.6544739 348.98054,42.8192826 349.257923,42.7463345 C349.270531,42.7427321 349.283139,42.7391298 349.296648,42.7346268 C349.548814,42.6463686 349.696512,42.3761904 349.625365,42.1123163 C349.35969,41.1045516 349.047184,40.0895822 348.700455,39.0944258 C348.469903,38.435191 348.22314,37.7813597 347.959266,37.1338326 C347.852095,36.8681574 347.574712,36.7168576 347.283821,36.8483443 C347.018145,36.9564156 346.892062,37.2581146 346.999233,37.5237898" id="Fill-307" fill="#57C4C4"></path>
                        <path d="M349.292956,45.3748983 C349.599158,47.0608102 349.792785,48.7701377 349.866634,50.4542485 C349.878342,50.7406374 350.121502,50.9630841 350.407891,50.9495752 C350.460126,50.947774 350.509658,50.9378675 350.555589,50.9216568 C350.766328,50.8487087 350.914025,50.6433732 350.902317,50.4092188 C350.826667,48.6773765 350.628537,46.9212182 350.314229,45.1884753 C350.261995,44.9065894 349.991817,44.7201664 349.710831,44.7715003 C349.432548,44.8210329 349.240721,45.0921117 349.292956,45.3748983" id="Fill-309" fill="#57C4C4"></path>
                        <path d="M343.184046,30.2820233 C344.123366,31.7076637 344.982533,33.2017491 345.73633,34.7228524 C345.853407,34.9597086 346.128989,35.0668793 346.371249,34.9822235 C346.392863,34.9750187 346.412676,34.9669134 346.431588,34.9570068 C346.689158,34.8300231 346.793627,34.5184176 346.665743,34.2617483 C345.893033,32.7037206 345.013153,31.1727108 344.052219,29.7119473 C343.894615,29.4723893 343.573103,29.4030436 343.332644,29.5633493 C343.093987,29.7209533 343.028244,30.0424653 343.184046,30.2820233" id="Fill-311" fill="#57C4C4"></path>
                        <path d="M335.805119,21.806443 C335.950115,21.9334268 336.147345,21.9649476 336.316657,21.9055084 C336.399511,21.8766894 336.475161,21.8271567 336.536402,21.7569104 C336.725527,21.5416684 336.703012,21.2129516 336.48777,21.0247274 C335.163897,19.8692653 333.760771,18.7939561 332.320721,17.8303205 C332.080263,17.6718159 331.759651,17.7357581 331.601147,17.9735149 C331.441741,18.2112717 331.506584,18.5336844 331.74344,18.6930895 C333.148367,19.6315085 334.513658,20.6797999 335.805119,21.806443" id="Fill-313" fill="#57C4C4"></path>
                        <path d="M348.397585,67.3933411 C348.491247,67.4104524 348.582207,67.4023471 348.665962,67.3735281 C348.833473,67.3140888 348.968562,67.1681926 349.003685,66.9808691 L349.127967,66.3351432 C349.409853,64.8482624 349.692639,63.3604811 349.948408,61.8690975 C349.99614,61.5872115 349.806114,61.3188345 349.524228,61.2702024 C349.241442,61.2233715 348.974866,61.4106951 348.925333,61.6943822 C348.671366,63.1785611 348.388579,64.6609389 348.107594,66.1415154 L347.985113,66.7863408 C347.931077,67.0682267 348.1166,67.3393055 348.397585,67.3933411" id="Fill-315" fill="#57C4C4"></path>
                        <path d="M341.403032,27.776841 C341.542624,27.9596616 341.77948,28.0227031 341.984815,27.9506556 C342.035249,27.9326437 342.084781,27.9074271 342.130712,27.8723039 C342.357661,27.6984893 342.399989,27.3724743 342.225274,27.144624 C341.158971,25.7568086 339.999006,24.4248301 338.780502,23.1865133 C338.577868,22.9820785 338.250953,22.9811779 338.045617,23.1802091 C337.842984,23.3819422 337.839381,23.7097584 338.041114,23.9141933 C339.230799,25.1227904 340.361945,26.4223476 341.403032,27.776841" id="Fill-317" fill="#57C4C4"></path>
                        <path d="M348.017715,69.4337269 C347.734027,69.3841942 347.467452,69.5706172 347.417018,69.8543043 C347.060383,71.8590266 346.81272,73.4990083 346.636203,75.014708 C346.603782,75.2992957 346.806416,75.5568656 347.092805,75.589287 C347.172957,75.5991935 347.250408,75.589287 347.323357,75.5640703 C347.504376,75.5010288 347.643067,75.3389218 347.666483,75.134487 C347.841198,73.6395009 348.085259,72.0202329 348.437391,70.0353237 C348.487825,69.7534378 348.2987,69.4841602 348.017715,69.4337269" id="Fill-319" fill="#57C4C4"></path>
                        <path d="M362.087695,105.258276 C361.836429,105.123187 361.521221,105.215948 361.385232,105.468114 C361.248341,105.720281 361.342904,106.034588 361.59507,106.170578 C363.044126,106.955896 364.603955,107.670967 366.363715,108.35722 C366.484395,108.404051 366.609577,108.40315 366.723052,108.363524 C366.860843,108.315793 366.978821,108.208622 367.035558,108.062726 C367.139127,107.795249 367.00764,107.494451 366.741064,107.390883 C365.022731,106.71994 363.499826,106.02198 362.087695,105.258276" id="Fill-321" fill="#57C4C4"></path>
                        <path d="M350.408161,53.0255344 C350.123574,53.0165285 349.880413,53.2362734 349.869606,53.5235629 C349.807465,55.1023042 349.654364,56.7747073 349.400397,58.6362351 C349.361671,58.9208228 349.561603,59.1810945 349.843489,59.2207206 C349.929045,59.2315278 350.010099,59.2225218 350.085749,59.1964046 C350.264066,59.1342636 350.401857,58.9766597 350.427974,58.7767278 C350.687345,56.8809774 350.842248,55.1761529 350.90619,53.5649903 C350.916997,53.2786014 350.69455,53.0363416 350.408161,53.0255344" id="Fill-323" fill="#57C4C4"></path>
                        <path d="M326.567907,14.6478914 C326.010439,14.3993275 325.448468,14.1633718 324.883796,13.9391239 C324.618121,13.834655 324.315521,13.96344 324.210152,14.2309164 C324.104782,14.4974922 324.234468,14.7982906 324.501044,14.9045607 C325.053108,15.1225045 325.601569,15.3521559 326.144628,15.5953163 C327.152392,16.0447127 328.156555,16.5472442 329.125594,17.0894018 C329.260683,17.1650517 329.414684,17.1740576 329.549774,17.1263261 C329.66505,17.0867 329.767717,17.0056465 329.830759,16.8903705 C329.971252,16.6400054 329.882093,16.3238969 329.631728,16.1852054 C328.63477,15.6268371 327.60359,15.1098961 326.567907,14.6478914" id="Fill-325" fill="#57C4C4"></path>
                    </g>
                </g>
            </g>
        </g>
    </g>
</svg>