<?xml version="1.0" encoding="UTF-8"?>
<svg width="331px" height="211px" viewBox="0 0 331 211" version="1.1" xmlns="http://www.w3.org/2000/svg" xmlns:xlink="http://www.w3.org/1999/xlink">
    <title>illus-guide-me-handshake-1606534624</title>
    <defs>
        <polygon id="path-1" points="0 0 90.144423 0 90.144423 67.0415582 0 67.0415582"></polygon>
        <polygon id="path-3" points="0 0 211.128935 0 211.128935 211 0 211"></polygon>
        <path d="M105.564423,0 C47.26272,0 0,47.233947 0,105.500045 L0,105.500045 C0,163.766143 47.26272,211 105.564423,211 L105.564423,211 C163.866125,211 211.128845,163.766143 211.128845,105.500045 L211.128845,105.500045" id="path-5"></path>
        <path d="M105.564423,0 C47.26272,0 0,47.233947 0,105.500045 L0,105.500045 C0,163.766143 47.26272,211 105.564423,211 L105.564423,211 C163.866125,211 211.128845,163.766143 211.128845,105.500045 L211.128845,105.500045" id="path-7"></path>
        <path d="M105.564423,0 C47.26272,0 0,47.233947 0,105.500045 L0,105.500045 C0,163.766143 47.26272,211 105.564423,211 L105.564423,211 C163.866125,211 211.128845,163.766143 211.128845,105.500045 L211.128845,105.500045" id="path-9"></path>
        <path d="M105.564423,0 C47.26272,0 0,47.233947 0,105.500045 L0,105.500045 C0,163.766143 47.26272,211 105.564423,211 L105.564423,211 C163.866125,211 211.128845,163.766143 211.128845,105.500045 L211.128845,105.500045" id="path-11"></path>
        <path d="M105.564423,0 C47.26272,0 0,47.233947 0,105.500045 L0,105.500045 C0,163.766143 47.26272,211 105.564423,211 L105.564423,211 C163.866125,211 211.128845,163.766143 211.128845,105.500045 L211.128845,105.500045" id="path-13"></path>
    </defs>
    <g id="Page-2-Illustrations" stroke="none" stroke-width="1" fill="none" fill-rule="evenodd">
        <g id="PECOS-2.0-Illustrations-v31" transform="translate(-566.000000, -465.000000)">
            <g id="Guide-me" transform="translate(545.000000, 436.000000)">
                <g id="illus-guide-me-handshake-1606534624" transform="translate(21.000000, 29.000000)">
                    <g id="Group-29">
                        <path d="M97.0230312,100.95464 C97.0230312,100.95464 90.1702108,45.4613982 50.5751359,34.8640655 C9.0179017,91.8156197 65.1732081,132.509997 65.1732081,132.509997 L97.0230312,100.95464 Z" id="Fill-1" fill="#63C0C4"></path>
                        <path d="M50.5750908,34.8640565 C50.4304234,35.0624136 50.2914345,35.2595997 50.1492007,35.4573262 L74.3118192,96.7541805 L35.5732117,82.9916915 C35.6212539,83.4473183 35.6748845,83.8999725 35.7332022,84.3505548 L74.9086063,98.2683426 L81.8811266,115.956537 L82.8298025,115.016638 L68.9305507,79.7561824 L68.930731,79.7564526 L82.5169423,60.1883695 C82.2820492,59.8121936 82.0454436,59.4365582 81.8032495,59.0629045 L68.3889266,78.3829061 L51.318979,35.0789884 C51.0704754,35.0080951 50.8264787,34.9313465 50.5752711,34.8640565 L50.5750908,34.8640565 Z" id="Fill-3" fill="#FEFEFE"></path>
                        <g id="Group-7" transform="translate(0.000000, 66.542675)">
                            <mask id="mask-2" fill="white">
                                <use xlink:href="#path-1"></use>
                            </mask>
                            <g id="Clip-6"></g>
                            <path d="M78.6827051,29.4414436 C78.6827051,29.4414436 38.7431324,-9.49177132 1.2629964,2.18463499 C-8.48416445,48.3516693 41.3847329,67.0415582 41.3847329,67.0415582 L90.144423,65.3151667 L78.6827051,29.4414436 Z" id="Fill-5" fill="#083C5D" mask="url(#mask-2)"></path>
                        </g>
                        <path d="M44.5754028,73.223459 L43.6351996,97.9313517 L2.15467066,68.468383 C1.85749398,68.55459 1.56004689,68.6347616 1.26305048,68.7272742 C1.2247429,68.9089665 1.19535873,69.086515 1.15885386,69.2673965 L23.3752671,85.047327 L1.00138717,90.3067634 C1.04564369,90.5206143 1.09593929,90.7304117 1.14280974,90.942461 L1.27485822,91.5031217 L24.7086413,85.9945228 L61.732241,112.291795 L22.7592812,122.774005 C23.1728228,123.09361 23.585463,123.407901 23.9961203,123.712553 L63.0302821,113.213858 L89.3203684,131.887172 L90.144387,131.857896 L89.7756427,130.703785 L44.8325593,98.7816209 L45.7844801,73.766554 C45.3838279,73.5832403 44.9805618,73.4024489 44.5754028,73.223459" id="Fill-8" fill="#00666A"></path>
                        <path d="M76.280955,122.55556 C76.280955,122.55556 30.2739124,115.351016 14.5776295,142.386317 C44.6548482,198.691815 118.442998,164.432153 118.442998,164.432153 L76.280955,122.55556 Z" id="Fill-10" fill="#00666A"></path>
                        <path d="M14.5780711,142.387155 C14.6939854,142.604069 14.8125135,142.815668 14.9295995,143.029969 L77.8038751,147.965836 L54.3402572,173.009819 C54.8089617,173.113322 55.2781169,173.210789 55.7477228,173.303932 L79.3716015,148.088796 L103.929284,150.016698 L102.582209,148.678643 L54.7697528,144.925081 L37.7124241,125.181702 C37.2902295,125.316011 36.8696574,125.455276 36.4499866,125.599314 L53.0282451,144.788429 L14.9362695,141.798299 C14.8171104,141.994224 14.6941656,142.185825 14.5780711,142.385443 L14.5780711,142.387155 Z" id="Fill-12" fill="#00898B"></path>
                        <path d="M233.976991,100.95464 C233.976991,100.95464 240.829811,45.4613982 280.424886,34.8640655 C321.982121,91.8156197 265.826724,132.509997 265.826724,132.509997 L233.976991,100.95464 Z" id="Fill-14" fill="#00666A"></path>
                        <path d="M280.424931,34.8640565 C280.569509,35.0624136 280.708498,35.2595997 280.850822,35.4573262 L256.688203,96.7541805 L295.426811,82.9916915 C295.378768,83.4473183 295.325138,83.8999725 295.26682,84.3505548 L256.091326,98.2683426 L249.118896,115.956537 L248.17013,115.016638 L262.069472,79.7561824 L262.069291,79.7564526 L248.48308,60.1883695 C248.717973,59.8121936 248.954579,59.4365582 249.196773,59.0629045 L262.611096,78.3829061 L279.680953,35.0789884 C279.929547,35.0080951 280.173544,34.9313465 280.424751,34.8640565 L280.424931,34.8640565 Z" id="Fill-16" fill="#00898B"></path>
                        <path d="M252.317272,95.9841189 C252.317272,95.9841189 292.256845,57.0509039 329.736981,68.7273103 C339.484142,114.894345 289.615244,133.584233 289.615244,133.584233 L240.855644,131.857842 L252.317272,95.9841189 Z" id="Fill-18" fill="#00898B"></path>
                        <path d="M286.424574,73.223459 L287.364868,97.9313517 L328.845307,68.468383 C329.142573,68.55459 329.43993,68.6347616 329.736927,68.7272742 C329.775234,68.9089665 329.804618,69.086515 329.841214,69.2673965 L307.62471,85.047327 L329.99868,90.3067634 C329.954334,90.5206143 329.904128,90.7304117 329.857167,90.942461 L329.725119,91.5031217 L306.291336,85.9945228 L269.267736,112.291795 L308.240696,122.774005 C307.827154,123.09361 307.414514,123.407901 307.003857,123.712553 L267.969785,113.213858 L241.679609,131.887172 L240.85559,131.857896 L241.224335,130.703785 L286.167418,98.7816209 L285.215587,73.766554 C285.616149,73.5832403 286.019506,73.4024489 286.424574,73.223459" id="Fill-20" fill="#00666A"></path>
                        <path d="M254.719067,122.55556 C254.719067,122.55556 300.72611,115.351016 316.422393,142.386317 C286.345174,198.691815 212.556934,164.432153 212.556934,164.432153 L254.719067,122.55556 Z" id="Fill-22" fill="#FED147"></path>
                        <path d="M316.421996,142.387155 C316.306082,142.604069 316.187464,142.815668 316.070378,143.029969 L253.196192,147.965836 L276.65972,173.009819 C276.191016,173.113322 275.72186,173.210789 275.252254,173.303932 L251.628376,148.088796 L227.070693,150.016698 L228.417858,148.678643 L276.230224,144.925081 L293.287643,125.181702 C293.709748,125.316011 294.13041,125.455276 294.550081,125.599314 L277.971732,144.788429 L316.063708,141.798299 C316.182957,141.994224 316.305902,142.185825 316.421996,142.385443 L316.421996,142.387155 Z" id="Fill-24" fill="#FEFEFE"></path>
                        <g id="Group-28" transform="translate(59.221508, 0.000000)">
                            <mask id="mask-4" fill="white">
                                <use xlink:href="#path-3"></use>
                            </mask>
                            <g id="Clip-27"></g>
                            <path d="M211.128935,105.500009 C211.128935,163.766107 163.866125,211.000054 105.564423,211.000054 C47.2628102,211.000054 0,163.766107 0,105.500009 C0,47.233911 47.2628102,-3.60321745e-05 105.564423,-3.60321745e-05 C163.866125,-3.60321745e-05 211.128935,47.233911 211.128935,105.500009" id="Fill-26" fill="#053C5D" mask="url(#mask-4)"></path>
                        </g>
                    </g>
                    <g id="Group-45" transform="translate(59.221535, 0.000000)">
                        <g id="Group-32">
                            <mask id="mask-6" fill="white">
                                <use xlink:href="#path-5"></use>
                            </mask>
                            <g id="Clip-31"></g>
                            <path d="M34.480346,26.4120523 C35.8918677,34.2160809 33.1509378,38.6158796 30.2023358,45.2212078 C27.868638,50.449206 25.8665487,56.7605116 25.0709228,62.3600917 C24.4206854,66.9371688 26.1338905,72.6160196 27.2128123,76.9285304 C27.8841413,79.6120266 29.190565,82.0158231 30.4658018,84.4038554 C32.1220413,87.5057753 34.2467148,88.0181528 36.2887342,90.5368018 C39.5321693,94.5371839 40.5134743,104.138858 48.4106946,102.249601 C46.9015562,96.5157106 46.1436971,92.6720684 43.2453906,87.0269077 C41.5288505,83.683302 38.9489928,79.2913403 41.8370237,76.0506966 C46.228785,71.1227562 48.1633628,78.7849081 52.1852981,76.2039234 C53.8005259,75.1674579 55.2019524,68.4968214 56.8456631,66.6482808 C59.5544146,63.6023009 61.9081224,60.8794396 64.4165027,57.7163551 C66.9228099,54.555793 70.1398354,52.6266303 73.8330466,50.9886077 C78.7274934,48.8178493 78.6470925,49.326984 79.6480471,44.3037385 C80.7215606,38.9165681 86.5718942,30.8329299 77.8692233,29.5420773 C73.1353078,28.8399003 65.2096949,40.8250122 63.9823201,30.4023454 C63.4298797,25.7107761 66.5556881,23.8164746 70.142269,22.0515287 C73.3961599,20.4502588 75.6666727,21.1109087 78.7406532,20.1608304 C82.0534025,19.1368861 83.4423903,15.0791227 79.088486,12.9356587 C76.5286383,11.6755235 73.974379,13.6182883 71.6085029,14.4630626 C65.2295247,16.7411068 59.4587808,19.2589451 52.4825649,19.2595756 C46.3329816,19.260026 37.0381206,17.4271594 34.9275983,25.0710249" id="Fill-30" fill="#00898B" mask="url(#mask-6)"></path>
                        </g>
                        <g id="Group-35">
                            <mask id="mask-8" fill="white">
                                <use xlink:href="#path-7"></use>
                            </mask>
                            <g id="Clip-34"></g>
                            <path d="M55.5038792,99.7257089 C55.5038792,103.296407 55.5375899,106.61452 54.5199603,109.985871 C53.4608684,113.495494 51.1456484,116.490849 50.5791469,120.065691 C49.8983536,124.361177 50.8509054,134.695024 54.2168347,137.790368 C57.4791082,140.790587 61.2952642,139.49406 63.1283495,145.061391 C64.04016,147.830554 63.5638841,151.366661 63.9906756,154.262207 C64.8648095,160.190941 65.189117,166.054997 65.7934754,172.134796 C66.2278383,176.504778 71.0585593,192.63323 76.0457555,192.151119 C77.4416837,188.340266 75.7342473,185.568671 74.6385604,181.990226 C73.1045446,176.980403 74.2670219,174.674524 76.8750921,170.380119 C79.2390753,166.487293 81.8918527,161.883462 83.2528083,157.599867 C84.8460431,152.585179 84.8223375,151.886515 90.1494346,149.172662 C97.0462411,145.658984 93.7148337,144.53406 92.6692621,138.601543 C91.6144066,132.616238 97.3297172,133.516592 98.8535476,129.010769 C100.563959,123.954103 94.1360368,121.287632 90.643377,119.192992 C88.9440528,118.174092 86.6096339,117.841245 85.1152778,116.287448 C82.8133077,113.8941 83.5632349,110.976575 81.9037506,108.657544 C80.341883,106.474805 78.9214379,106.768828 76.9085323,105.883067 C73.7684826,104.501593 72.5879781,103.236053 69.792967,101.056377 C66.0703716,98.1533549 62.3688679,98.8315705 57.7403208,98.8315705" id="Fill-33" fill="#00898B" mask="url(#mask-8)"></path>
                        </g>
                        <g id="Group-38">
                            <mask id="mask-10" fill="white">
                                <use xlink:href="#path-9"></use>
                            </mask>
                            <g id="Clip-37"></g>
                            <path d="M84.5787373,8.53073442 C92.9937859,6.98846727 90.2590754,21.3880953 91.1904453,25.9753514 C91.89215,29.4316476 93.7803982,33.3333917 97.1240641,30.0170804 C98.6337432,28.5198535 98.7859821,25.5340473 100.347579,23.7186563 C101.803357,22.0262251 103.910815,21.1194754 105.625372,19.7050324 C127.250136,1.86379125 85.7051604,0.758143976 83.2368904,6.7424576" id="Fill-36" fill="#63C0C4" mask="url(#mask-10)"></path>
                        </g>
                        <g id="Group-41">
                            <mask id="mask-12" fill="white">
                                <use xlink:href="#path-11"></use>
                            </mask>
                            <g id="Clip-40"></g>
                            <path d="M153.911355,13.0010211 C154.468573,16.4408327 151.347361,18.4453025 148.754614,19.6946281 C145.047432,21.4811033 145.45827,20.7528931 141.362153,19.236479 C134.502753,16.6970214 134.670314,20.4380619 134.677165,26.4502104 C134.681671,30.3479008 134.31464,37.4319164 140.391123,33.9672427 C142.656588,32.6754892 144.123003,26.0983562 147.142992,31.8011685 C148.427062,34.2262239 146.527276,37.4759657 144.965319,38.9608516 C140.940679,42.7867479 134.624616,39.6766308 132.879142,46.0696393 C132.353111,47.9963698 133.164421,50.0501137 132.482907,51.9605396 C131.645368,54.3084861 127.218994,57.7018162 128.821603,60.7326625 C132.142465,67.0133408 139.01827,56.7650697 141.367651,54.6746631 C148.636627,48.2068878 149.840747,55.941194 157.042482,55.4677313 C160.761021,55.223253 159.452434,54.0338309 161.057927,51.4547379 C162.122427,49.7449211 160.945528,48.1719366 163.865197,48.3555205 C165.338642,48.4482133 167.845039,51.8379401 168.156006,53.1561772 C169.13614,57.3106869 165.53036,57.4349078 164.157236,60.4772845 C161.859502,65.5680903 167.140991,65.4192774 169.030861,69.1141066 C164.625309,72.2733176 160.278886,69.7614247 155.714966,69.3169678 C153.669432,69.11789 151.8185,69.7445796 149.963511,68.9090836 C147.569783,67.8308207 148.761104,65.6987069 144.942154,65.3055959 C140.119635,64.8091626 136.562078,69.4431705 132.451089,71.4398934 C127.227918,73.9768288 125.946642,75.5626048 125.283786,80.9621162 C124.407038,88.1027023 121.224714,98.826508 127.697704,104.6303 C131.489163,108.029756 136.719815,106.638644 141.159528,106.190944 C148.795265,105.420756 152.150469,105.668207 152.122076,113.582134 C152.108015,117.55306 151.781003,121.427689 153.031092,125.108646 C154.425308,129.214242 156.089569,131.938365 155.700725,136.481842 C155.034894,144.258216 150.405265,150.012374 151.227571,158.287163 C151.889256,164.945909 154.795134,165.069859 158.831851,160.297218 C162.361016,156.124602 166.349872,152.556606 170.01442,148.595589 C174.573022,143.668189 178.551241,133.311281 179.407078,126.77045 C179.879748,123.158675 179.066997,119.387908 179.745266,115.852431 C180.742525,110.65434 184.829087,106.609007 185.657342,101.535317 C186.285677,97.6878913 184.687214,98.3927707 183.850667,95.2552691 C183.191236,92.7822008 184.292241,90.0601502 185.222889,87.9714551 C186.250434,85.6653058 188.851654,83.7390258 188.517431,80.9414878 C188.153464,77.8966789 184.04554,75.979497 183.538618,73.0499011 C192.14268,69.3973195 196.538227,88.711556 197.277068,94.0486416 C198.177521,100.55326 201.787988,103.06218 203.204377,95.6244187 C203.993243,91.481169 205.243873,87.728328 206.267451,83.8392853 C208.931315,73.7172169 206.601764,69.3144455 202.115631,60.8322014 C197.4047,51.9245975 192.401009,41.4186963 186.140649,33.2401134 C178.605503,23.3962134 165.305291,17.7517732 155.083387,11.3827261" id="Fill-39" fill="#63C0C4" mask="url(#mask-12)"></path>
                        </g>
                        <g id="Group-44">
                            <mask id="mask-14" fill="white">
                                <use xlink:href="#path-13"></use>
                            </mask>
                            <g id="Clip-43"></g>
                            <path d="M207.58827,120.736178 C206.817791,123.167629 204.033687,123.90818 203.159643,126.06867 C202.420802,127.895501 202.560783,131.638073 202.199069,133.698573 C201.399657,138.251148 199.817329,140.084014 197.28975,143.982065 C194.737744,147.91795 193.900025,152.694825 190.808288,156.31723 C187.89601,159.729296 182.986421,161.51415 181.722451,166.257336 C181.237252,168.078131 180.908888,173.972275 181.646016,175.698396 C183.733283,180.58535 187.959466,172.686016 190.141646,169.585447 C195.277295,162.288842 198.901102,154.267089 203.368307,146.646374 C207.900409,138.91477 211.243624,131.351527 208.482954,122.524455" id="Fill-42" fill="#00898B" mask="url(#mask-14)"></path>
                        </g>
                    </g>
                    <g id="Group-72" transform="translate(26.139368, 75.356134)">
                        <path d="M191.464648,47.618074 L145.669604,7.21943051 L66.1135946,7.21943051 L66.1135946,42.8068779 L76.0591436,43.446449 L84.3990192,46.9739989 L131.233686,74.8638028 L143.392241,82.2445433 C144.983313,83.6314217 147.697562,82.7310677 148.958828,81.2879792 L150.194225,79.8690321 C151.45459,78.4245022 151.425746,76.3387798 149.834765,74.9518113 L139.322083,65.7945945 L140.664291,64.2908818 L154.736152,76.5478565 C157.006034,78.526113 159.959053,78.1592154 161.755633,76.0992559 L163.518232,74.0785716 C165.316255,72.0186122 165.274612,69.0445165 163.005542,67.0678815 L149.039049,54.9017078 L150.216939,53.5799576 L168.587181,69.5841884 C171.075462,71.7502626 174.312227,71.3501253 176.280245,69.0930699 L178.212659,66.8783522 C180.180677,64.6212968 180.137412,61.3607454 177.649853,59.1945811 L159.392641,43.2919611 L160.821289,41.6910515 L181.171897,59.41735 C183.738145,61.6532365 187.244956,61.0499679 189.480676,58.486729 L191.675565,55.9704221 C193.910384,53.405652 194.031707,49.8526093 191.464648,47.618074" id="Fill-46" fill="#F6B58E"></path>
                        <path d="M204.051582,50.1799076 L202.447531,11.0666218 L183.201352,11.0666218 L151.089054,0.167789826 C151.089054,0.167789826 110.989491,-0.209737282 110.258492,0.167789826 C110.258492,0.167789826 109.720744,3.91189308 109.74072,5.78088197 L110.418393,9.1157498 C113.07126,14.1119711 117.22263,15.2504077 120.626236,15.2123937 L144.639049,14.8942296 C146.07004,14.8774747 151.868636,14.3711325 152.906095,13.5404108 L193.370437,50.1799076 L204.051582,50.1799076 Z" id="Fill-48" fill="#825A46"></path>
                        <path d="M118.085569,70.7363712 C116.573456,72.9038867 113.34949,73.2707843 110.883924,71.5533107 C108.416195,69.8358371 107.641931,66.6859044 109.152512,64.5182989 L114.485468,56.8663261 C115.997761,54.6970991 118.941766,54.7351131 121.407242,56.4525867 C123.875061,58.1684388 124.930097,60.9166128 123.419246,63.0843985 L118.085569,70.7363712 Z" id="Fill-50" fill="#825A46"></path>
                        <path d="M107.56163,63.0038756 C105.760813,65.5850404 102.302495,66.2868571 99.8344049,64.5713653 C97.3691094,62.8538016 96.8294683,59.3670581 98.6293837,56.7859834 L104.984836,47.6665103 C106.784842,45.083724 109.91065,44.8605047 112.376307,46.5763568 C114.844216,48.2920288 115.716457,51.3017963 113.91528,53.8863842 L107.56163,63.0038756 Z" id="Fill-52" fill="#825A46"></path>
                        <path d="M96.2359892,56.3022965 C94.6343718,58.4062152 91.3976067,58.6382624 89.0047801,56.8176467 C86.6128548,54.9972111 85.9713606,51.8185428 87.5730681,49.7159753 L93.2214982,42.2944283 C94.8232057,40.1919509 97.7633349,40.3525644 100.156162,42.1700272 C102.548718,43.9905529 103.486217,46.778182 101.885231,48.8821908 L96.2359892,56.3022965 Z" id="Fill-54" fill="#825A46"></path>
                        <path d="M127.963724,76.9967003 C126.716068,78.7867787 124.053286,79.0869268 122.018568,77.6711325 C119.980064,76.2523657 119.341544,73.6541756 120.58983,71.8624758 L124.992948,65.5460356 C126.239883,63.755777 128.670386,63.7861341 130.706637,65.204901 C132.742887,66.6222265 133.614227,68.8899114 132.365941,70.68017 L127.963724,76.9967003 Z" id="Fill-56" fill="#825A46"></path>
                        <path d="M255.154524,10.6689077 L201.74186,10.480009 L201.579255,56.3501382 L259.029088,56.5515023 C267.765649,56.5819152 275.528658,50.98783 278.259222,42.6940341 C283.443815,26.9466227 271.742337,10.72755 255.154524,10.6689077" id="Fill-58" fill="#053C5D"></path>
                        <path d="M278.838505,33.4843274 C262.368319,33.1865215 201.658376,33.9330181 201.658376,33.9330181 L201.578336,56.6147315 L258.001074,56.8129547 C268.680957,56.8503819 277.961126,49.1217507 279.455392,38.5533338 C279.787451,36.2038558 279.689654,34.3231565 278.838505,33.4843274" id="Fill-60" fill="#212B53"></path>
                        <polygon id="Fill-62" fill="#FEFEFE" points="219.338343 10.0793763 219.42974 57.3896214 201.336485 57.0874015 201.244907 9.77553495"></polygon>
                        <path d="M210.294077,45.6883587 C211.884878,45.6944153 213.172463,46.98752 213.166893,48.5782504 C213.160655,50.1687106 211.863425,51.4529873 210.273886,51.4457218 C208.682184,51.442538 207.396581,50.1484425 207.402868,48.5579823 C207.40911,46.967432 208.703456,45.6823445 210.294077,45.6883587" id="Fill-64" fill="#053C5D"></path>
                        <path d="M24.8899608,6.5356445 L78.1300153,6.76946972 L77.9291935,52.6379775 L20.3098164,52.3851217 C11.6751979,52.3472879 4.04667151,46.7580671 1.41291273,38.5398487 C-3.67280155,22.671189 8.21724024,6.46274583 24.8899608,6.5356445" id="Fill-66" fill="#FED147"></path>
                        <path d="M0.310483685,29.6453515 C7.00935268,28.9903766 78.0278197,30.2222266 78.0278197,30.2222266 L77.9279496,52.9024987 L23.3451468,52.6624343 C11.6775594,52.6110885 1.66458902,44.0577709 0.119035922,32.4999104 C-0.0739441445,31.057002 -0.0473541774,30.017744 0.310483685,29.6453515" id="Fill-68" fill="#F6A506"></path>
                        <polygon id="Fill-70" fill="#FEFEFE" points="60.5366059 6.22985187 60.8103473 53.3011136 78.1660244 53.3770514 77.8923731 6.30587976"></polygon>
                    </g>
                </g>
            </g>
        </g>
    </g>
</svg>