<?xml version="1.0" encoding="UTF-8"?>
<svg width="439px" height="394px" viewBox="0 0 439 394" version="1.1" xmlns="http://www.w3.org/2000/svg" xmlns:xlink="http://www.w3.org/1999/xlink">
    <title>illus-no-errors-found-1854546364</title>
    <defs>
        <polygon id="path-1" points="29.8979112 10.2962298 14.1315064 1.60769977 6.08253659 0 0 0.892936842"></polygon>
        <polygon id="path-3" points="0 3.41347105 4.21238046 0 35.8122218 8.56656034 8.6104566 7.75928651"></polygon>
        <polygon id="path-5" points="0 0 5.10797595 0 5.10797595 1.40423029 0 1.40423029"></polygon>
        <polygon id="path-7" points="0 3.08890769 22.4860006 5.19262606 24.1808134 5.8755703e-14"></polygon>
        <polygon id="path-9" points="16.59343 13.6200324 19.5001175 6.13504848 0 0"></polygon>
        <polygon id="path-11" points="0 0 16.2378648 0 16.2378648 9.19023363 0 9.19023363"></polygon>
        <linearGradient x1="50%" y1="0%" x2="50%" y2="50%" id="linearGradient-13">
            <stop stop-color="#C79E71" offset="0%"></stop>
            <stop stop-color="#E4B886" offset="100%"></stop>
        </linearGradient>
        <path d="M0,0.719414316 C5.34855336,11.5447392 2.87058355,38.7556037 2.43177235,43.1096883 L2.43177235,43.1096883 C2.63623171,43.2653805 2.84379679,43.417455 3.04437401,43.5768942 L3.04437401,43.5768942 C3.37733219,40.5064628 6.35868613,11.2212095 0.358839119,0 L0.358839119,0 C0.243410164,0.241742849 0.125004901,0.482064442 0,0.719414316" id="path-14"></path>
        <linearGradient x1="100.001911%" y1="49.9998998%" x2="-1104.21486%" y2="49.9998998%" id="linearGradient-16">
            <stop stop-color="#DFEFE9" offset="0%"></stop>
            <stop stop-color="#BFE2ED" offset="100%"></stop>
        </linearGradient>
    </defs>
    <g id="Page-2-Illustrations" stroke="none" stroke-width="1" fill="none" fill-rule="evenodd">
        <g id="PECOS-2.0-Illustrations-v31" transform="translate(-1000.000000, -417.000000)">
            <g id="Application-Error-Check-No-Errors-Found" transform="translate(985.000000, 378.000000)">
                <g id="illus-no-errors-found-1854546364" transform="translate(15.000000, 39.000000)">
                    <g id="Group-3" transform="translate(80.625314, 160.884115)">
                        <mask id="mask-2" fill="white">
                            <use xlink:href="#path-1"></use>
                        </mask>
                        <g id="Clip-2"></g>
                        <polygon id="Fill-1" mask="url(#mask-2)" points="29.8979112 10.2962298 14.1315064 1.60769977 6.08253659 0 0 0.892936842"></polygon>
                    </g>
                    <polyline id="Fill-4" fill="#AFD8C7" points="110.523277 171.18028 80.999604 163.602526 80.6253657 161.777116"></polyline>
                    <polygon id="Fill-5" fill="#63C0C4" points="80.1570373 168.66003 80.1948235 168.721661 81.4338731 173.297978 110.448468 171.182244"></polygon>
                    <g id="Group-8" transform="translate(74.519355, 162.564557)">
                        <mask id="mask-4" fill="white">
                            <use xlink:href="#path-3"></use>
                        </mask>
                        <g id="Clip-7"></g>
                        <polygon id="Fill-6" mask="url(#mask-4)" points="0 3.41347105 4.21238046 0 35.8122218 8.56656034 8.6104566 7.75928651"></polygon>
                    </g>
                    <g id="Group-46" transform="translate(0.000000, 37.240748)">
                        <path d="M8.10985468,187.141331 C9.07469582,186.802297 10.0303492,186.387936 10.9504163,185.910652 C11.1612165,185.801991 11.418473,185.884165 11.5288552,186.093736 C11.6379433,186.303436 11.5561596,186.561458 11.3454888,186.671283 C10.391,187.166655 9.39743104,187.596909 8.39480374,187.949639 C8.03169427,188.077552 7.66664372,188.196033 7.29965211,188.305599 C7.16507127,188.346686 7.02609066,188.317615 6.92088467,188.240092 C6.84893568,188.18673 6.79251525,188.110757 6.76585789,188.019151 C6.69714402,187.792525 6.82628987,187.553754 7.05287743,187.485921 C7.40705798,187.379585 7.75942686,187.264076 8.10985468,187.141331" id="Fill-9" fill="#63C0C4"></path>
                        <path d="M65.8925159,125.545744 C67.2310777,125.717329 68.6245071,125.937107 70.1523879,126.218903 C70.3850574,126.262187 70.5377549,126.484807 70.4964749,126.717893 C70.4531243,126.950463 70.229513,127.104346 69.9965847,127.06145 C68.4844912,126.782367 67.1062022,126.564785 65.7835572,126.395656 C65.7083731,126.385707 65.6400474,126.357153 65.5827211,126.314902 C65.4623748,126.225751 65.3921081,126.075615 65.4124246,125.916305 C65.4427053,125.68141 65.657517,125.51551 65.8925159,125.545744" id="Fill-11" fill="#63C0C4"></path>
                        <path d="M58.7384829,125.873615 C58.6341827,125.796351 58.5663747,125.67283 58.5645519,125.53316 C58.5628807,125.296714 58.753235,125.103294 58.9903043,125.101098 C60.3662641,125.088823 61.8215489,125.146449 63.3146198,125.271261 C63.5506539,125.290642 63.7270325,125.498145 63.7055513,125.733686 C63.6860112,125.969615 63.4789637,126.144817 63.2426708,126.124661 C61.7759984,126.002174 60.3477592,125.94597 58.9972922,125.957469 C58.9007563,125.958632 58.8112083,125.927494 58.7384829,125.873615" id="Fill-13" fill="#63C0C4"></path>
                        <path d="M16.386512,181.978422 C16.5559027,181.813169 16.8267466,181.810456 16.9926434,181.986175 C17.1580225,182.155304 17.155305,182.426247 16.9847497,182.591372 C15.9453715,183.604986 14.8063517,184.52932 13.5995238,185.336723 C13.4455323,185.440474 13.2468961,185.430138 13.1055862,185.325353 C13.0672825,185.297186 13.032602,185.262042 13.0046506,185.219663 C12.8729167,185.023271 12.925455,184.757367 13.1220206,184.625578 C14.2847215,183.846987 15.3831082,182.955989 16.386512,181.978422" id="Fill-15" fill="#63C0C4"></path>
                        <path d="M18.1545678,180.724486 C17.9709426,180.574221 17.9448029,180.30444 18.0950417,180.121615 C18.3372872,179.825864 18.5729331,179.525075 18.8005559,179.218083 C19.41044,178.39608 19.9646802,177.530276 20.4483948,176.644963 C20.5616239,176.43733 20.8218567,176.360582 21.0298099,176.473766 C21.2321988,176.586045 21.315406,176.847686 21.2014005,177.05506 C20.6993104,177.975001 20.1232009,178.874268 19.4900239,179.728056 C19.2539898,180.046288 19.0099326,180.358706 18.7578523,180.664535 C18.6126603,180.842063 18.3542392,180.872685 18.1711316,180.737407 C18.165826,180.733272 18.1598734,180.728879 18.1545678,180.724486" id="Fill-17" fill="#63C0C4"></path>
                        <path d="M21.7648284,174.926017 C21.7313126,174.912321 21.7005143,174.89462 21.6728217,174.874335 C21.5188301,174.760247 21.4551631,174.552227 21.5319,174.367076 C22.0407191,173.131487 22.4678839,171.820313 22.836946,170.358486 C22.8945311,170.129017 23.1279771,169.989863 23.3575409,170.047618 C23.585552,170.105114 23.7264736,170.338588 23.6682415,170.567281 C23.2898623,172.070066 22.8497571,173.419614 22.3245036,174.692802 C22.2350849,174.911934 21.9836517,175.016073 21.7648284,174.926017" id="Fill-19" fill="#63C0C4"></path>
                        <path d="M33.1380874,138.383426 C32.7808012,138.818848 32.4341261,139.262538 32.0990974,139.71411 C31.593384,140.395926 31.1105752,141.101774 30.6639997,141.812402 C30.5382184,142.012799 30.2733271,142.073138 30.072491,141.94768 C30.0633033,141.941866 30.054245,141.935664 30.0447984,141.928687 C29.8671259,141.797285 29.8173051,141.548178 29.9377808,141.357729 C30.3953557,140.628237 30.8905873,139.904042 31.4095,139.204525 C31.7530694,138.741196 32.1082851,138.286135 32.4752768,137.840377 C32.6253862,137.65781 32.882125,137.606774 33.0792083,137.781072 C33.2619277,137.931208 33.2883262,138.200472 33.1380874,138.383426" id="Fill-21" fill="#63C0C4"></path>
                        <path d="M29.3998844,144.011358 C28.744191,145.265294 28.1719636,146.565614 27.6996366,147.875496 C27.6196646,148.098634 27.3736663,148.213755 27.1507021,148.133648 C27.1104572,148.119048 27.0738357,148.099409 27.0408375,148.07486 C26.8926692,147.965552 26.8266728,147.76761 26.8926692,147.586077 C27.3776778,146.239113 27.9653044,144.902873 28.6392439,143.614439 C28.748979,143.404739 29.008306,143.323599 29.2179415,143.432777 C29.4252478,143.540405 29.5101372,143.800882 29.3998844,144.011358" id="Fill-23" fill="#63C0C4"></path>
                        <path d="M37.9281562,133.608882 C36.8364985,134.502982 35.7916852,135.470341 34.8227031,136.484472 C34.6720761,136.642749 34.4287954,136.660062 34.2577224,136.5337 C34.2429703,136.522588 34.2293828,136.511089 34.2159247,136.498556 C34.0448517,136.335628 34.0385109,136.064556 34.201949,135.893359 C35.1947415,134.854162 36.2655651,133.862771 37.3831037,132.946577 C37.5662113,132.79657 37.8369259,132.82086 37.9872941,133.00614 C38.1372741,133.188837 38.1104873,133.458358 37.9281562,133.608882" id="Fill-25" fill="#63C0C4"></path>
                        <path d="M45.8358031,128.735057 C45.6898347,128.799789 45.5269142,128.776274 45.4070855,128.687639 C45.3489828,128.644872 45.3014913,128.587117 45.2701754,128.5167 C45.1738983,128.300411 45.2722458,128.047298 45.4887398,127.951816 C46.8177257,127.364707 48.188768,126.861324 49.5630455,126.454586 C49.7919623,126.387916 50.0292905,126.517638 50.0963221,126.743489 C50.1637419,126.970373 50.0338197,127.208498 49.8068439,127.275943 C48.4675057,127.672086 47.131532,128.163066 45.8358031,128.735057" id="Fill-27" fill="#63C0C4"></path>
                        <path d="M24.701706,161.590507 C24.6238044,161.581463 24.5535376,161.552521 24.4949173,161.509108 C24.3766415,161.421378 24.3058571,161.273438 24.324362,161.116454 L24.3853116,160.57741 C24.5271391,159.336007 24.669096,158.093441 24.8334399,156.855397 C24.864497,156.621019 25.0804734,156.456411 25.315084,156.487033 C25.5498241,156.519334 25.7146856,156.732652 25.6840167,156.968193 C25.5204492,158.20081 25.3792688,159.438208 25.2380883,160.674443 L25.1762328,161.213228 C25.1495755,161.44864 24.937093,161.617253 24.701706,161.590507" id="Fill-29" fill="#63C0C4"></path>
                        <path d="M39.9499745,132.070411 C39.7948184,132.180106 39.5923001,132.171966 39.4474963,132.064984 C39.4117806,132.038368 39.3794294,132.006067 39.3519956,131.967176 C39.2157325,131.774273 39.2616712,131.506947 39.4555193,131.370636 C40.6384073,130.537779 41.8809509,129.771722 43.1478225,129.094041 C43.3575874,128.982666 43.6157497,129.061998 43.72872,129.269501 C43.8401374,129.477651 43.7621064,129.737612 43.5528591,129.849374 C42.3165269,130.510129 41.1043935,131.257452 39.9499745,132.070411" id="Fill-31" fill="#63C0C4"></path>
                        <path d="M24.5005205,163.292514 C24.7373311,163.323265 24.9020632,163.53542 24.8720413,163.771348 C24.6617587,165.439387 24.4544525,166.79294 24.2220417,168.031501 C24.1777853,168.263812 23.9537859,168.416532 23.7207281,168.372732 C23.6547317,168.360328 23.5953349,168.333712 23.5448671,168.296371 C23.4168859,168.201793 23.3472662,168.039899 23.3781939,167.872837 C23.608146,166.652236 23.8128642,165.314962 24.0217233,163.663979 C24.0509688,163.429084 24.2659099,163.263184 24.5005205,163.292514" id="Fill-33" fill="#63C0C4"></path>
                        <g id="Group-37" transform="translate(0.000000, 188.081031)">
                            <mask id="mask-6" fill="white">
                                <use xlink:href="#path-5"></use>
                            </mask>
                            <g id="Clip-36"></g>
                            <path d="M4.59659583,0.00802038587 C4.82835958,-0.0372014192 5.05430011,0.113322589 5.09972115,0.345762667 C5.1457892,0.577556719 4.99438575,0.802761308 4.76158677,0.848241523 C3.42457784,1.11182004 2.01704336,1.29322409 0.45939948,1.40317767 C0.352770041,1.41054237 0.253257858,1.3788871 0.173803397,1.31996955 C0.0768793079,1.2485191 0.0103653132,1.1358522 0.00104817774,1.00613023 C-0.0156450233,0.769943198 0.162415787,0.565282229 0.398967504,0.548614764 C1.92037808,0.441116073 3.29374973,0.263588187 4.59659583,0.00802038587" id="Fill-35" fill="#63C0C4" mask="url(#mask-6)"></path>
                        </g>
                        <path d="M26.6409383,149.769876 C26.8685611,149.832541 27.0061182,150.065885 26.9437452,150.294708 C26.6057402,151.554587 26.3161326,152.910854 26.059135,154.440772 C26.020443,154.674375 25.7987728,154.83123 25.565715,154.792598 C25.4962247,154.78084 25.4341104,154.753578 25.3810545,154.714299 C25.2556614,154.621659 25.1853947,154.463641 25.2133461,154.299292 C25.4742259,152.741466 25.7697861,151.3591 26.1158142,150.072992 C26.1770226,149.844428 26.4121509,149.708633 26.6409383,149.769876" id="Fill-38" fill="#63C0C4"></path>
                        <path d="M54.887232,125.355089 C55.3881574,125.295655 55.8898593,125.247461 56.3913023,125.209216 C56.6264306,125.191903 56.8337369,125.36788 56.8513359,125.603938 C56.8691937,125.839867 56.6925564,126.046078 56.4561341,126.063909 C55.966208,126.100344 55.477576,126.147633 54.9885558,126.205517 C54.0822056,126.312887 53.1666676,126.463669 52.2678229,126.653472 C52.1429474,126.67983 52.0188483,126.649079 51.9239947,126.578791 C51.8424698,126.518581 51.7821672,126.429818 51.7599096,126.323611 C51.7106064,126.092204 51.8586453,125.864157 52.0906679,125.815835 C53.0144878,125.620089 53.9556478,125.465689 54.887232,125.355089" id="Fill-40" fill="#63C0C4"></path>
                        <polygon id="Fill-42" fill="#AFD8C7" points="378.903596 2.10371837 381.617859 7.43368952 375.917713 6.13504848 356.417596 -5.8755703e-14"></polygon>
                        <polygon id="Fill-44" fill="#63C0C4" points="381.61782 7.4337412 371.93434 6.83293722 374.307234 5.62822833"></polygon>
                    </g>
                    <g id="Group-49" transform="translate(356.417570, 34.151815)">
                        <mask id="mask-8" fill="white">
                            <use xlink:href="#path-7"></use>
                        </mask>
                        <g id="Clip-48"></g>
                        <polygon id="Fill-47" mask="url(#mask-8)" points="0 3.08890769 22.4860006 5.19262606 24.1808134 5.8755703e-14"></polygon>
                    </g>
                    <g id="Group-52" transform="translate(356.417570, 37.240722)">
                        <mask id="mask-10" fill="white">
                            <use xlink:href="#path-9"></use>
                        </mask>
                        <g id="Clip-51"></g>
                        <polygon id="Fill-50" mask="url(#mask-10)" points="16.59343 13.6200324 19.5001175 6.13504848 0 0"></polygon>
                    </g>
                    <g id="Group-266" transform="translate(26.465224, 0.000000)">
                        <path d="M353.014754,50.0381444 C353.06561,50.0123034 353.112325,49.976772 353.152052,49.9311626 C353.317173,49.7421354 353.297374,49.4550416 353.107278,49.2897882 C352.508394,48.769479 351.863441,48.3049865 351.190536,47.9109107 C350.973784,47.7822224 350.694917,47.8549649 350.567324,48.0726756 C350.440119,48.2892234 350.512585,48.567919 350.729597,48.6949276 C351.353975,49.0609658 351.95273,49.4917358 352.509558,49.9759968 C352.653586,50.1010674 352.854163,50.1196729 353.014754,50.0381444" id="Fill-53" fill="#63C0C4"></path>
                        <path d="M341.067326,62.065775 C339.79062,61.4778915 338.222365,61.3305977 336.872933,61.6711825 C336.629005,61.7328133 336.380937,61.5851318 336.319599,61.3418385 C336.258002,61.0981576 336.406947,60.8520218 336.649322,60.7893573 C338.217706,60.3932143 339.966999,60.5578216 341.4492,61.2401541 C341.67734,61.3450686 341.777111,61.6153658 341.671646,61.8438006 C341.627519,61.9399292 341.553241,62.0134469 341.465116,62.0581519 C341.345029,62.1191367 341.19919,62.1265014 341.067326,62.065775 M333.452898,67.2603392 C333.209099,67.321324 332.961289,67.1728673 332.900728,66.9291863 C332.577216,65.6367471 332.705974,64.3825527 333.273801,63.302656 C333.479814,62.911552 333.741729,62.5518448 334.051265,62.2338709 C334.225832,62.0529837 334.51531,62.0496244 334.695441,62.2246974 C334.875702,62.3996411 334.879713,62.6875102 334.704499,62.8678806 C334.455395,63.1233192 334.24563,63.4120928 334.080122,63.7258029 C333.611548,64.6173185 333.512294,65.6208549 333.784303,66.7090207 C333.836712,66.9184623 333.734482,67.1302296 333.549045,67.2241617 C333.519282,67.2395371 333.48706,67.2518116 333.452898,67.2603392 M356.971159,56.12686 C356.733313,56.2082592 356.474245,56.0817674 356.392591,55.8441591 C356.172215,55.2035599 355.906029,54.5748476 355.601023,53.9761109 C355.23209,53.2516576 354.801043,52.5607976 354.320434,51.9231702 C354.169031,51.7226438 354.209534,51.437488 354.4105,51.2867056 C354.6125,51.1334682 354.897191,51.1750723 355.048076,51.3765031 C355.560778,52.0558639 356.019905,52.7919456 356.413037,53.5639465 C356.737195,54.2004111 357.020333,54.8682725 357.254426,55.5490545 C357.328704,55.76599 357.22958,56.0004973 357.030168,56.1017942 C357.011663,56.1110969 356.992123,56.1196245 356.971159,56.12686 M346.045135,66.9961146 C345.06606,65.4793753 344.171744,64.3779013 343.231231,63.5301863 C343.044112,63.3617027 343.029489,63.0740921 343.197974,62.8877782 C343.366718,62.7026272 343.654643,62.6871226 343.841374,62.8548309 C344.843743,63.7578458 345.787103,64.9177204 346.811211,66.5034553 C346.947086,66.7145766 346.886525,66.9959854 346.674819,67.132426 C346.66149,67.1406952 346.648032,67.1483183 346.634315,67.1554246 C346.428561,67.2599515 346.172987,67.1943153 346.045135,66.9961146 M337.804259,72.6301055 C337.435326,72.4415952 337.075193,72.2334457 336.73447,72.0118588 C335.744913,71.3703552 334.85435,70.5209605 334.159835,69.555798 C334.01309,69.3519122 334.059547,69.0676609 334.263747,68.9211422 C334.466912,68.7752696 334.752638,68.8210083 334.899383,69.0250232 C335.528678,69.8990961 336.335127,70.6682544 337.230737,71.24929 C337.545967,71.4539509 337.878407,71.6463374 338.219259,71.820506 C338.443388,71.9349817 338.531642,72.2090259 338.417119,72.4325508 C338.371569,72.5213147 338.301172,72.5886306 338.218612,72.6304931 C338.092831,72.6943205 337.939228,72.699101 337.804259,72.6301055 M357.355491,63.3934872 C357.107681,63.3503327 356.942302,63.1144041 356.985394,62.8671054 C357.237733,61.4300856 357.251708,59.9398334 357.026803,58.4380818 C356.989534,58.1900079 357.160996,57.9575678 357.40997,57.9213904 C357.659074,57.8840501 357.890579,58.0555053 357.927589,58.3037084 C358.166858,59.9026223 358.151718,61.4906829 357.882685,63.0240897 C357.857193,63.1706083 357.763374,63.2885726 357.640181,63.3511079 C357.555421,63.3942624 357.456427,63.4110591 357.355491,63.3934872 M345.195335,74.0011014 C343.575448,74.1388341 341.98817,74.0155724 340.478147,73.6332543 C340.23409,73.5713651 340.086698,73.3243248 340.148295,73.0807731 C340.210409,72.8360585 340.458866,72.689023 340.701629,72.7515583 C342.113304,73.1089398 343.598999,73.2241908 345.117951,73.0947272 C345.368608,73.0736668 345.588855,73.2592054 345.610465,73.5092174 C345.626641,73.6994074 345.523246,73.8718963 345.362914,73.9534247 C345.312446,73.9792657 345.255508,73.9959332 345.195335,74.0011014 M353.843448,69.7306126 C353.663317,69.555798 353.659435,69.2677997 353.835037,69.0878169 C354.478696,68.4271909 355.037853,67.7014456 355.496593,66.9306076 C355.782448,66.4494476 356.036599,65.9403793 356.251928,65.4165816 C356.34717,65.1849167 356.612708,65.0725082 356.846284,65.1687661 C357.078824,65.2637319 357.190112,65.5296361 357.094482,65.7619469 C356.862718,66.3268319 356.58838,66.8759538 356.279879,67.3948417 C355.784389,68.2271813 355.181234,69.0102938 354.487495,69.722085 C354.452039,69.7590377 354.411405,69.7881089 354.367667,69.8103321 C354.198923,69.8961244 353.987088,69.8700249 353.843448,69.7306126 M350.245352,73.5577985 C350.0198,73.6682689 349.747015,73.5756288 349.635597,73.3501658 C349.579177,73.2358193 349.522368,73.1209559 349.464912,73.0071261 C348.983656,73.1948612 348.491789,73.3586934 347.992158,73.4974597 C347.749912,73.5647756 347.498609,73.4231667 347.431189,73.1809071 C347.36351,72.9392934 347.501973,72.6916071 347.74823,72.6208027 C348.188594,72.4989623 348.622359,72.3560614 349.047841,72.1928752 C348.574608,71.2881807 348.053366,70.3479548 347.464705,69.33602 C347.338276,69.1192138 347.412037,68.8406474 347.629825,68.7146724 C347.844119,68.5898602 348.125962,68.6619567 348.252003,68.8795382 C348.862793,69.9281672 349.401375,70.9012113 349.890136,71.8394991 C350.552041,71.5357378 351.190265,71.1802944 351.787079,70.7826009 C351.996973,70.6402169 352.279464,70.7000389 352.418962,70.9083176 C352.558848,71.1172423 352.50191,71.3996848 352.293181,71.5390971 C351.665956,71.9568174 350.997064,72.3297035 350.30449,72.6500031 C350.354699,72.7494911 350.403743,72.848979 350.453305,72.9489838 C350.562911,73.1723795 350.472975,73.4422891 350.250916,73.554956 C350.249234,73.5557312 350.247293,73.5567649 350.245352,73.5577985 M352.806141,80.4383608 C352.562731,80.5023173 352.313368,80.3578659 352.249442,80.1153479 C351.885556,78.7443519 351.388124,77.3041021 350.770605,75.8331013 C350.672905,75.6010489 350.790793,75.3276508 351.014533,75.2378532 C351.246426,75.1405617 351.513518,75.2494816 351.610571,75.4812757 C352.244524,76.9909088 352.755414,78.4714707 353.129523,79.8818741 C353.185685,80.0932538 353.083325,80.308768 352.896206,80.4037338 C352.868126,80.4180755 352.837845,80.4293164 352.806141,80.4383608 M353.438412,87.7274697 C353.187367,87.7092518 352.998307,87.4915411 353.016035,87.2412707 L353.028846,87.0364805 C353.102866,85.6537269 353.027423,84.2152859 352.805235,82.7615987 C352.76719,82.5139124 352.937745,82.2797927 353.18672,82.244132 C353.435177,82.2057581 353.667846,82.3765673 353.705762,82.6254165 C353.937137,84.1389257 354.015298,85.639902 353.93882,87.0858369 L353.925103,87.3058733 C353.913198,87.4713851 353.814591,87.6089886 353.676516,87.679147 C353.605344,87.7154536 353.523431,87.7330255 353.438412,87.7274697 M351.118575,94.6435634 C350.899492,94.5196556 350.823402,94.2425106 350.947631,94.0238954 C351.686014,92.726288 352.241548,91.333198 352.59987,89.8837746 C352.660172,89.6400936 352.907335,89.4915077 353.150875,89.5512005 C353.39532,89.6116685 353.544912,89.8584504 353.48448,90.1023897 C353.106489,91.6324372 352.518862,93.1027919 351.739199,94.4728834 C351.693908,94.5536366 351.627135,94.6146214 351.550268,94.6535122 C351.418664,94.7203112 351.256261,94.7221201 351.118575,94.6435634 M345.927636,99.7430325 C345.799655,99.5271307 345.871733,99.2484352 346.088486,99.1202637 C347.315372,98.396844 348.439122,97.4237999 349.429197,96.2286522 C349.589788,96.0375578 349.876549,96.007453 350.070526,96.168055 C350.264504,96.328657 350.291549,96.6148464 350.131864,96.8086542 C349.07411,98.0849427 347.869612,99.1268531 346.551366,99.9037637 C346.543343,99.9088027 346.534673,99.9130665 346.525874,99.9174595 C346.313391,100.025475 346.050441,99.9507944 345.927636,99.7430325" id="Fill-55" fill="#63C0C4"></path>
                        <path d="M343.956182,101.028947 C344.146666,100.932301 344.248119,100.711361 344.187428,100.498947 C344.118067,100.257075 343.866634,100.117792 343.624388,100.186012 C342.925474,100.385376 342.205207,100.506829 341.483,100.546624 C341.231826,100.559545 341.039013,100.775059 341.052988,101.025071 C341.067223,101.275987 341.281646,101.467857 341.53295,101.454032 C342.322578,101.410877 343.110522,101.27883 343.874398,101.061377 C343.903126,101.05285 343.93043,101.041997 343.956182,101.028947" id="Fill-57" fill="#63C0C4"></path>
                        <path d="M151.091569,179.093966 L141.151868,152.099779 L132.801514,147.153418 C128.226413,144.442694 123.023439,144.593605 118.53258,147.558734 C113.061869,151.17312 109.65995,158.274881 109.6545,166.094119 C109.638339,188.123986 122.593687,216.241224 158.889364,224.453504 C157.733263,218.856724 157.260159,213.171697 157.47963,207.467677 C157.557531,205.509573 157.722781,203.505343 158.006436,201.135849 C154.51484,194.225699 152.192155,186.821339 151.091569,179.093966 L151.091569,179.093966 Z M164.563758,235.890745 C163.145872,235.602359 161.69641,235.309709 160.142778,235.012537 C116.083209,226.576991 100.472995,192.613477 100.493163,166.091147 C100.500041,154.735306 105.611396,144.307157 113.833638,138.87576 C121.156518,134.03496 129.652581,133.803941 137.136053,138.235807 L148.396458,144.906928 L159.782515,175.829727 L160.071605,176.99477 C161.037352,184.225995 163.269065,191.137954 166.701523,197.536581 L167.529325,199.07942 L167.292903,200.852244 C166.916465,203.664007 166.713558,205.835687 166.634492,207.894184 C166.357436,215.068946 167.388274,222.228074 169.697371,229.167813 L172.47103,237.504775 L164.563758,235.890745 Z" id="Fill-59" fill="#FBBB00"></path>
                        <path d="M252.38709,201.406405 C252.657805,203.777449 252.811408,205.782325 252.877275,207.740817 C253.063747,213.446129 252.558422,219.128314 251.370099,224.718504 C287.713139,216.714244 300.82856,188.671815 300.940698,166.642207 C300.979187,158.822969 297.619065,151.701827 292.168929,148.056045 C287.695281,145.065463 282.492308,144.884575 277.902842,147.568942 L269.522855,152.467497 L259.429292,179.404317 C258.284319,187.12523 255.91919,194.516411 252.38709,201.406405 L252.38709,201.406405 Z M237.714413,237.691735 L240.535047,229.370923 C242.885035,222.444364 243.956635,215.291437 243.72086,208.114995 C243.65357,206.055982 243.462568,203.883268 243.102176,201.069438 L242.876753,199.295193 L243.712708,197.757135 C247.181788,191.378276 249.453745,184.479367 250.461549,177.253697 L250.757238,176.090334 L262.320839,145.2333 L273.618512,138.626911 C281.127218,134.23807 289.621728,134.5178 296.917692,139.400204 C305.10823,144.878632 310.160188,155.33598 310.1022,166.691693 C309.969446,193.213764 294.163443,227.087222 250.055736,235.270043 C248.501715,235.558558 247.049536,235.84281 245.631002,236.123056 L237.714413,237.691735 Z" id="Fill-61" fill="#F9B646"></path>
                        <path d="M218.188648,269.60528 C234.255142,197.591752 175.805646,197.424431 191.458045,269.528661 C207.110186,341.634442 181.124436,353.231638 181.124436,353.231638 C196.494216,357.699682 212.645729,357.746196 228.040742,353.365753 C228.040742,353.365753 202.122671,341.620229 218.188648,269.60528" id="Fill-63" fill="#F6A505"></path>
                        <path d="M279.527065,117.385829 C279.541817,117.343837 279.620755,117.30275 279.620755,117.260371 C279.628777,114.46618 246.342534,112.105602 205.274154,111.988025 C164.205385,111.870319 130.906072,114.04019 130.898179,116.834381 C130.898049,116.87844 130.978798,116.921853 130.995232,116.965912 C130.875921,119.598079 126.196002,231.588458 190.349526,268.895414 C189.997804,269.47632 189.741583,270.117565 189.739512,270.841502 L189.737054,271.667123 C189.730972,273.803143 191.475994,275.556586 193.614923,275.562658 L215.992094,275.62676 C218.132448,275.632817 219.887563,273.889581 219.893645,271.753432 L219.896104,270.928069 C219.898174,270.204004 219.645317,269.561983 219.297866,268.979268 C283.697647,232.024784 279.627353,119.915795 279.527065,117.385829" id="Fill-65" fill="#F6A505"></path>
                        <path d="M252.38709,201.406405 C252.657805,203.777449 252.811408,205.782325 252.877275,207.740817 C253.063747,213.446129 252.558422,219.128314 251.370099,224.718504 C287.713139,216.714244 300.82856,188.671815 300.940698,166.642207 C300.979187,158.822969 297.619065,151.701827 292.168929,148.056045 C287.695281,145.065463 282.492308,144.884575 277.902842,147.568942 L269.522855,152.467497 L259.429292,179.404317 C258.284319,187.12523 255.91919,194.516411 252.38709,201.406405 L252.38709,201.406405 Z M237.714413,237.691735 L240.535047,229.370923 C242.885035,222.444364 243.956635,215.291437 243.72086,208.114995 C243.65357,206.055982 243.462568,203.883268 243.102176,201.069438 L242.876753,199.295193 L243.712708,197.757135 C247.181788,191.378276 249.453745,184.479367 250.461549,177.253697 L250.757238,176.090334 L262.320839,145.2333 L273.618512,138.626911 C281.127218,134.23807 289.621728,134.5178 296.917692,139.400204 C305.10823,144.878632 310.160188,155.33598 310.1022,166.691693 C309.969446,193.213764 294.163443,227.087222 250.055736,235.270043 C248.501715,235.558558 247.049536,235.84281 245.631002,236.123056 L237.714413,237.691735 Z" id="Fill-67" fill="#FBBB00"></path>
                        <path d="M279.527065,117.385829 C279.541817,117.343837 279.620755,117.30275 279.620755,117.260241 C279.628777,114.465921 246.342922,112.105602 205.274154,111.988025 C204.204624,111.984407 203.143635,111.984407 202.084846,111.984407 C204.420083,119.401429 206.574541,126.864578 208.749316,134.228109 C214.64758,154.198575 218.124036,174.86326 220.101081,195.569032 C222.347416,219.099488 223.497176,242.922076 223.121385,266.629285 C283.524116,227.512165 279.625412,119.864501 279.527065,117.385829" id="Fill-69" fill="#FBBB00"></path>
                        <path d="M237.64711,361.415896 L170.651342,361.22414 C168.708978,361.218584 167.12403,359.627035 167.129708,357.687537 L167.142923,353.085507 C167.148487,351.146267 168.742494,349.563633 170.684987,349.569303 L237.680626,349.761188 C239.623119,349.766744 241.207809,351.358293 241.202259,353.297662 L241.189045,357.899691 C241.183351,359.83919 239.589603,361.421566 237.64711,361.415896" id="Fill-71" fill="#FFD147"></path>
                        <path d="M249.299702,372.371967 L158.935782,372.113279 C156.478258,372.106044 154.473262,370.092769 154.480232,367.639034 L154.499531,360.935095 C154.506519,358.481102 156.523161,356.479068 158.980814,356.486027 L249.344735,356.745101 C251.802388,356.752078 253.807384,358.765482 253.800285,361.219605 L253.781115,367.923415 C253.773868,370.377279 251.757355,372.379054 249.299702,372.371967" id="Fill-73" fill="#F6A505"></path>
                        <polygon id="Fill-75" fill="#F6A505" points="209.154702 136.531346 194.896767 166.626974 161.983468 171.961467 186.244513 194.800675 181.154898 227.703285 210.406692 211.723191 240.174422 226.723522 233.992373 194.008001 257.479448 170.37612 224.406723 166.137157"></polygon>
                        <polygon id="Fill-77" fill="#F6A505" points="161.983417 171.961441 194.896715 166.626948 208.852361 137.169464 210.096716 211.892295 181.154976 227.70313 186.244461 194.800778"></polygon>
                        <polygon id="Fill-79" fill="#FFD147" points="204.672681 136.531346 190.414746 166.626974 157.501447 171.961467 181.762492 194.800675 176.672877 227.703285 205.924671 211.723191 235.692401 226.723522 229.510482 194.008001 252.997427 170.37612 219.924702 166.137157"></polygon>
                        <polygon id="Fill-81" fill="#FFD147" points="157.501396 171.961441 190.414694 166.626948 204.37034 137.169464 205.614695 211.892295 176.672955 227.70313 181.76244 194.800778"></polygon>
                        <polygon id="Fill-83" fill="#FFFFFF" points="258.469238 140.073957 288.021639 136.095343 258.811126 130.409411 254.826497 100.902442 249.131398 130.067922 219.579127 134.046407 248.789511 139.732468 252.774269 169.239308"></polygon>
                        <g id="Group-87" transform="translate(396.296911, 384.686375)">
                            <mask id="mask-12" fill="white">
                                <use xlink:href="#path-11"></use>
                            </mask>
                            <g id="Clip-86"></g>
                            <path d="M9.26511477,1.30561811 C9.26511477,1.30561811 9.24829217,5.21161922 1.39032366,7.55643442 C-0.221670181,8.03759442 0.302677497,8.51371543 0,9.19023363 L9.04292697,9.19023363 L12.5838267,5.2160122 L13.6846721,6.1605019 L16.2379554,3.65611833 C16.2379554,3.65611833 15.0456209,0.0317844687 13.1015747,0 C11.4977334,0.545762584 9.26511477,1.30561811 9.26511477,1.30561811" id="Fill-85" fill="#212B53" mask="url(#mask-12)"></path>
                        </g>
                        <path d="M404.092947,382.6097 L405.562078,385.992032 C406.899734,386.372542 408.336902,385.936603 409.236523,384.87725 L409.398538,384.686285 L408.21125,381.208211 L404.092947,382.6097 Z" id="Fill-88" fill="#C59C6E"></path>
                        <path d="M365.741663,387.542455 C365.741663,387.542455 362.921418,390.154079 356.491948,391.7893 C355.076261,392.149265 353.549933,391.668364 353.549933,394 L361.353034,394 L367.842548,392.879662 L367.842548,394 L371.347603,394 C371.347603,394 372.323572,388.276728 370.276391,387.542455 L365.741663,387.542455 Z" id="Fill-90" fill="#212B53"></path>
                        <path d="M366.431015,383.431354 L365.741676,387.542404 C367.020712,388.427588 368.699996,388.483793 370.035582,387.686338 L370.276404,387.542404 L369.92727,383.431354 L366.431015,383.431354 Z" id="Fill-92" fill="#C59C6E"></path>
                        <path d="M380.525253,299.077558 C380.525253,299.077558 387.888378,313.781363 390.692059,334.014891 C391.29625,338.375565 392.872139,342.575378 395.403424,346.179944 C402.588359,356.4117 408.963738,382.029853 408.963738,382.029853 L404.015304,383.431341 L368.851917,327.127739 L369.090539,299.958349 L380.525253,299.077558 Z" id="Fill-94" fill="#212B53"></path>
                        <path d="M376.633511,299.389963 C376.633511,299.389963 379.661063,317.821725 374.779531,335.949983 C373.893109,339.241485 373.779103,342.674853 374.336578,346.037547 C376.429311,358.662312 370.550069,384.651025 370.550069,384.651025 L365.86782,384.651025 L357.725032,300.906961 L376.633511,299.389963 Z" id="Fill-96" fill="#053C5E"></path>
                        <path d="M375.864796,265.737446 C375.864796,265.737446 383.377383,264.243964 382.153992,259.494124 C380.930341,254.744025 366.885795,237.489193 366.885795,237.489193 L355.892481,236.269626 C355.892481,236.269626 356.593854,238.924275 363.522309,240.131568 C370.450893,241.339119 375.864796,265.737446 375.864796,265.737446" id="Fill-98" fill="#C59C6E"></path>
                        <path d="M364.944375,240.714555 C365.606798,239.653263 366.246574,238.577114 366.894633,237.500189 C366.89321,237.498509 366.885833,237.489206 366.885833,237.489206 L355.892519,236.269639 C355.892519,236.269639 356.593893,238.924288 363.522348,240.131581 C364.004509,240.215823 364.47813,240.422034 364.944375,240.714555" id="Fill-100" fill="#C59C6E"></path>
                        <polygon id="Fill-102" fill="url(#linearGradient-13)" points="364.743953 249.446239 365.436398 257.407861 373.146716 254.968468 371.161001 248.623073"></polygon>
                        <path d="M364.646266,235.659777 C364.646266,235.659777 358.742696,244.534621 360.371254,249.724276 C362.203494,252.327372 369.735751,248.707948 369.735751,248.707948 L369.735751,236.676234 L364.646266,235.659777 Z" id="Fill-104" fill="#D9B183"></path>
                        <path d="M363.522322,235.921974 C363.522322,235.921974 365.460674,236.209584 366.885808,237.489232 C368.310812,238.769009 367.08949,243.913054 367.08949,243.913054 L367.027117,245.727094 C366.949863,247.976944 368.755575,249.842666 371.010322,249.842666 L371.160949,249.842666 C371.160949,249.842666 380.932424,240.131607 376.860966,235.659816 C369.735816,229.155499 363.522322,235.921974 363.522322,235.921974" id="Fill-106" fill="#212B53"></path>
                        <path d="M365.460234,243.708975 C365.318148,243.080262 365.824508,242.326221 366.590972,242.024527 C367.357565,241.722962 368.094266,241.988091 368.236482,242.616803 C368.378568,243.245645 367.872337,243.999815 367.105744,244.301122 C366.339021,244.602945 365.60245,244.337558 365.460234,243.708975" id="Fill-108" fill="#DBB37A"></path>
                        <path d="M361.592626,234.03386 C361.592626,235.380953 363.085309,236.472995 364.926608,236.472995 C366.767778,236.472995 373.146651,235.380953 373.146651,234.03386 C373.146651,232.686638 366.767778,231.594725 364.926608,231.594725 C363.085309,231.594725 361.592626,232.686638 361.592626,234.03386" id="Fill-110" fill="#212B53"></path>
                        <path d="M380.525253,299.077558 C380.525253,299.077558 388.345953,250.255709 368.5143,254.235228 C349.154458,258.12004 357.724928,300.906974 357.724928,300.906974 L380.525253,299.077558 Z" id="Fill-112" fill="#21837F"></path>
                        <path d="M370.349673,258.354327 C370.349673,258.354327 383.047505,273.979882 381.119893,278.347017 C379.192152,282.714022 362.748314,300.343678 361.814271,301.331839 C360.377103,303.383488 362.82091,311.276631 357.935107,308.36383 C353.049434,305.451029 357.009088,299.92557 358.124815,298.657421 L370.394317,278.55452 L363.09253,268.73131 L370.349673,258.354327 Z" id="Fill-114" fill="#D9B183"></path>
                        <path d="M374.355277,263.293776 L365.975938,272.767873 L362.581783,269.320421 C360.389797,267.094087 359.464036,263.824809 360.449453,260.862264 C360.78047,259.867772 361.316335,258.893565 362.157465,258.064068 C362.19111,258.030862 362.224496,257.998044 362.258142,257.965872 C364.635952,255.683205 368.498293,256.03503 370.567603,258.599753 L374.355277,263.293776 Z" id="Fill-116" fill="#63C0C4"></path>
                        <path d="M320.080893,220.257618 C319.081242,220.789039 318.059722,221.287125 317.013614,221.747225 L317.218074,221.791284 L326.791689,242.03153 L322.893115,247.676762 L331.401471,248.77268 C331.401471,248.77268 334.951429,244.477642 334.342839,242.190969 C333.734249,239.904296 320.212886,220.564351 320.212886,220.564351 L320.080893,220.257618 Z" id="Fill-118" fill="#9E7059"></path>
                        <path d="M297.742168,270.587821 C305.020792,269.398616 318.720475,266.142388 320.441168,265.919509 C325.630425,260.832702 332.675344,247.015502 332.675344,247.015502 L322.893128,247.676774 L305.981233,264.708469 C305.981233,264.708469 301.226259,267.410666 296.57882,270.826333 C296.965222,270.741187 297.35046,270.651648 297.742168,270.587821" id="Fill-120" fill="#AFD8C8"></path>
                        <path d="M317.551317,222.15935 L314.321894,219.64799 C313.754325,219.206366 313.74669,218.352708 314.305718,217.901007 L315.689184,216.784157 C316.05734,216.486985 318.440327,217.430312 318.440327,217.430312 C318.440327,217.430312 318.244279,219.299911 316.15297,218.210582 C316.097326,218.531011 315.623705,218.930643 315.623705,218.930643 C315.623705,218.930643 318.466207,218.781411 319.982183,221.392776 L317.551317,222.15935 Z" id="Fill-124" fill="#794E32"></path>
                        <path d="M320.91862,221.097827 L321.495118,216.510527 C321.541962,216.10689 321.374254,215.707904 321.05346,215.458021 L320.29269,214.866779 C320.049926,214.677751 319.742461,214.592476 319.436807,214.6293 L314.904927,215.17377 C314.368156,215.238243 313.945779,215.66307 313.885606,216.199788 L313.822068,216.764802 C313.788294,217.063654 313.872148,217.364185 314.054997,217.602956 L317.551381,222.159376 L320.91862,221.097827 Z" id="Fill-122" fill="#9E7059"></path>
                        <path d="M289.510181,219.293115 C290.51022,219.824665 291.531482,220.323009 292.577718,220.782721 L292.37313,220.826909 L282.799773,241.067026 L286.698088,246.712387 L278.189861,247.808564 C278.189861,247.808564 274.640033,243.513526 275.248364,241.226595 C275.856954,238.940051 289.378318,219.599977 289.378318,219.599977 L289.510181,219.293115 Z" id="Fill-126" fill="#9E7059"></path>
                        <path d="M311.849294,269.623317 C304.570671,268.434242 290.870858,265.178272 289.150035,264.955264 C283.960908,259.868328 276.915989,246.051387 276.915989,246.051387 L286.698075,246.7124 L303.610229,263.743836 C303.610229,263.743836 308.365074,266.446291 313.012125,269.862217 C312.625981,269.776684 312.240743,269.687532 311.849294,269.623317" id="Fill-128" fill="#AFD8C8"></path>
                        <path d="M292.040016,221.194976 L295.269568,218.683486 C295.836878,218.242121 295.844254,217.388204 295.285226,216.936632 L293.90202,215.819654 C293.533864,215.52274 291.150877,216.466067 291.150877,216.466067 C291.150877,216.466067 291.346795,218.335795 293.438234,217.246337 C293.493748,217.566766 293.967628,217.966139 293.967628,217.966139 C293.967628,217.966139 291.125125,217.817036 289.60902,220.42866 L292.040016,221.194976 Z" id="Fill-132" fill="#794E32"></path>
                        <path d="M288.672338,220.133452 L288.095969,215.546152 C288.049384,215.142386 288.216704,214.743788 288.537757,214.493905 L289.298397,213.902533 C289.541419,213.713506 289.848885,213.628231 290.154539,213.664796 L294.68629,214.209525 C295.22306,214.274127 295.645308,214.698825 295.70574,215.235672 L295.769277,215.800557 C295.803052,216.09928 295.719327,216.39994 295.536349,216.638582 L292.039964,221.195002 L288.672338,220.133452 Z" id="Fill-130" fill="#9E7059"></path>
                        <path d="M350.925956,361.906085 L347.596244,370.703406 C347.319318,371.932922 347.271827,373.406248 348.544134,374.133932 C348.544134,374.133932 349.384876,374.624653 350.289285,374.934487 C350.895804,374.806574 354.738088,362.926547 354.738088,362.926547 L354.701207,362.854709 C353.177597,360.871281 350.925956,361.906085 350.925956,361.906085" id="Fill-134" fill="#212B53"></path>
                        <polygon id="Fill-136" fill="#212B53" points="350.289298 374.934487 354.7381 362.926547 355.322363 363.264677 350.841079 375.161113"></polygon>
                        <polygon id="Fill-138" fill="#FFFFFF" points="349.599441 365.384908 349.30841 366.180037 350.843538 366.475012 351.133016 365.7065"></polygon>
                        <polygon id="Fill-140" fill="#FFFFFF" points="348.959238 367.084757 348.667819 367.879885 350.203334 368.174861 350.492942 367.405961"></polygon>
                        <path d="M347.233122,359.829719 L350.925943,361.906046 C351.13739,362.791877 350.820866,363.720603 350.111599,364.293887 L349.982971,364.397897 L345.906595,363.351077 L347.233122,359.829719 Z" id="Fill-142" fill="#9E7059"></path>
                        <path d="M317.75047,304.321091 C317.75047,304.321091 321.412752,308.259264 322.355982,315.189958 C322.983854,319.801548 321.255007,327.111201 321.065688,332.845842 C320.892804,338.090667 323.262979,342.257663 327.426186,345.460271 L347.233122,359.829693 L345.906595,363.351051 C345.906595,363.351051 318.797095,359.291683 311.67971,347.169009 C304.562195,335.046465 302.874628,307.60148 302.874628,307.60148 L317.75047,304.321091 Z" id="Fill-144" fill="#00666B"></path>
                        <path d="M310.214292,306.605645 C310.214292,306.605645 313.354685,310.382311 311.470294,319.161285 C310.267866,324.764913 304.986603,331.816413 301.439104,336.673364 C298.896043,340.155443 298.842211,344.535111 299.606345,348.776528 C302.51148,364.899006 297.863653,384.582895 297.863653,384.582895 L294.095389,384.582895 C294.095389,384.582895 288.443382,355.73849 286.768627,335.464133 C285.258733,317.183542 293.09328,303.721139 293.258141,303.485211 L310.214292,306.605645 Z" id="Fill-146" fill="#01888B"></path>
                        <path d="M318.543708,281.706144 C318.347272,279.477613 318.280628,277.2235 318.367976,274.943934 C318.519639,270.958988 319.717538,267.347187 321.652137,264.227787 C320.915825,263.321284 320.181842,262.567888 319.461834,262.039569 C315.531815,259.881196 310.23994,258.049455 306.699817,256.945914 C305.161584,259.511928 303.227631,261.809971 301.136452,263.537444 C297.958403,266.162764 294.467842,267.675239 290.741893,268.467396 C290.787185,269.704277 290.871945,271.122433 291.024901,272.75985 C292.071656,283.98584 292.42066,305.157138 292.42066,305.157138 C292.42066,305.157138 297.724051,308.640897 305.818054,310.173658 C313.912445,311.706289 318.905912,312.20037 319.952666,307.811142 C317.972645,297.748773 318.388034,285.069096 318.543708,281.706144" id="Fill-148" fill="#AFD8C8"></path>
                        <path d="M307.719345,233.959283 L302.719278,238.889493 C300.596006,240.983263 299.700397,244.019067 300.347808,246.927217 L300.933753,249.559255 L307.719345,233.959283 Z" id="Fill-150" fill="#9E7059"></path>
                        <path d="M313.773179,232.093508 C325.914571,232.093508 320.751196,255.365425 320.751196,255.365425 C320.751196,255.365425 318.587809,270.460721 313.773179,276.522252 C309.605832,281.768886 301.360684,280.190387 297.454475,277.672178 C295.545498,276.441628 293.406439,275.619883 291.150786,275.349328 C287.842686,274.951634 283.907619,273.493037 283.907619,267.534483 C283.907619,261.926075 290.613627,257.58827 295.026973,254.48993 C297.903121,252.470841 299.909799,249.452092 300.748471,246.042756 C302.160793,240.299845 305.607357,232.093508 313.773179,232.093508" id="Fill-152" fill="#212B53"></path>
                        <path d="M297.183217,389.039801 L287.144263,389.023909 C285.811654,389.209577 284.321688,389.715156 284.072067,391.255153 C284.072067,391.255153 283.89737,392.277166 283.927133,393.294269 C284.28209,393.84998 297.593948,393.219846 297.593948,393.219846 L297.651792,393.156019 C299.061914,390.894283 297.183217,389.039801 297.183217,389.039801" id="Fill-154" fill="#12375A"></path>
                        <polygon id="Fill-156" fill="#053C5E" points="283.927082 393.29423 297.593896 393.219808 297.475491 393.928885 283.907671 393.928885"></polygon>
                        <polygon id="Fill-158" fill="#FFFFFF" points="293.20933 389.023896 292.305309 389.032036 292.586764 390.672295 293.463739 390.672295"></polygon>
                        <polygon id="Fill-160" fill="#FFFFFF" points="291.271301 389.023896 290.36715 389.032036 290.648606 390.672295 291.525452 390.672295"></polygon>
                        <path d="M297.872077,384.582856 L297.183256,389.039788 C296.377195,389.582967 295.330828,389.616172 294.491898,389.124418 L294.339459,389.035137 L293.855874,384.582856 L297.872077,384.582856 Z" id="Fill-162" fill="#9E7059"></path>
                        <path d="M32.5006619,387.922499 L45.8417646,387.906866 C47.6126674,388.091887 49.5926881,388.594754 49.9242228,390.128032 C49.9242228,390.128032 50.1565042,391.145264 50.1171651,392.157586 C49.6450969,392.71123 31.9550918,392.083939 31.9550918,392.083939 L31.8779667,392.02037 C30.0040578,389.768841 32.5006619,387.922499 32.5006619,387.922499" id="Fill-164" fill="#12375A"></path>
                        <polygon id="Fill-166" fill="#212B53" points="50.1171263 392.157625 31.955053 392.083978 32.1124091 392.789438 50.1430072 392.789438"></polygon>
                        <polygon id="Fill-168" fill="#FFFFFF" points="37.7814849 387.906853 38.9827483 387.914863 38.6088982 389.5475 37.4437387 389.5475"></polygon>
                        <polygon id="Fill-170" fill="#FFFFFF" points="40.3572587 387.906853 41.558781 387.914863 41.1846721 389.5475 40.0195125 389.5475"></polygon>
                        <path d="M31.5852921,383.485491 L32.5007007,387.922525 C33.5716537,388.463249 34.9627537,388.496196 36.0771867,388.007026 L36.2798344,387.918132 L36.9223285,383.485491 L31.5852921,383.485491 Z" id="Fill-172" fill="#F7B58E"></path>
                        <path d="M1.32001404,387.922499 L14.6611168,387.906866 C16.4320195,388.091887 18.4120402,388.594754 18.7435749,390.128032 C18.7435749,390.128032 18.9757269,391.145264 18.9365173,392.157586 C18.4643197,392.71123 0.774444,392.083939 0.774444,392.083939 L0.697318823,392.02037 C-1.17671945,389.768841 1.32001404,387.922499 1.32001404,387.922499" id="Fill-174" fill="#212B53"></path>
                        <polygon id="Fill-176" fill="#212B53" points="18.9364914 392.157625 0.774418119 392.083978 0.93164478 392.789438 18.9623723 392.789438"></polygon>
                        <polygon id="Fill-178" fill="#FFFFFF" points="6.60096641 387.906853 7.80222986 387.914863 7.4282504 389.5475 6.26309085 389.5475"></polygon>
                        <polygon id="Fill-180" fill="#FFFFFF" points="9.17680497 387.906853 10.3780684 387.914863 10.004089 389.5475 8.83905881 389.5475"></polygon>
                        <path d="M1.89904813,383.485491 L1.31996228,387.922525 C2.39091524,388.463249 3.78214473,388.496196 4.89657765,388.007026 L5.09909594,387.918132 L7.23621388,383.485491 L1.89904813,383.485491 Z" id="Fill-182" fill="#F7B58E"></path>
                        <path d="M21.808162,234.275861 L10.8213182,241.428529 L14.2126261,250.097549 C14.2606352,250.220036 14.3245611,250.333478 14.3790405,250.452605 C14.6203802,250.437617 14.8617199,250.423663 15.1053888,250.423663 C15.1455043,250.423663 15.1844551,250.427539 15.2244411,250.428185 C15.2627449,250.427927 15.3004017,250.423663 15.3388348,250.423663 C18.2799439,250.423663 20.8074757,252.229434 22.3419562,254.661463 C24.120882,254.527865 25.8879026,254.096707 27.5284949,253.317471 C28.6457747,252.786955 29.6195448,252.155658 29.9713961,251.469967 C31.1476844,245.321739 21.808162,234.275861 21.808162,234.275861" id="Fill-184" fill="#F7B58E"></path>
                        <path d="M35.7826617,236.51841 C35.7826617,236.51841 37.1279525,249.250803 34.4197718,257.358427 C35.6774557,258.44866 40.2944845,263.389724 41.7464048,256.985024 C43.1984545,250.580454 40.1165531,234.275926 40.1165531,234.275926 L35.7826617,236.51841 Z" id="Fill-186" fill="#F7B58E"></path>
                        <polygon id="Fill-188" fill="#212B53" points="29.190866 235.616998 26.6061373 237.277413 27.5285337 239.204508 30.3019344 237.983649"></polygon>
                        <path d="M27.668459,237.933866 C27.9275271,238.523041 27.946032,239.084438 27.7097391,239.18806 C27.473705,239.291424 27.0722917,238.897865 26.813353,238.308561 C26.5542849,237.719514 26.53578,237.157989 26.7719435,237.054625 C27.008107,236.951131 27.4095203,237.344819 27.668459,237.933866" id="Fill-190" fill="#212B53"></path>
                        <path d="M60.380598,226.226406 C60.3826685,226.201469 60.3881035,226.178341 60.3904328,226.153663 C59.9040007,225.047925 59.0465654,223.290477 57.8905936,221.674508 C56.0228961,219.06353 55.4898784,217.758041 55.4898784,217.758041 L28.7964147,235.201383 L30.5250021,238.458516 L60.3834449,227.440934 C60.3565288,227.033809 60.3477292,226.627717 60.380598,226.226406" id="Fill-192" fill="#053C5E"></path>
                        <polygon id="Fill-194" fill="#F39F85" points="19.3840374 254.666683 18.4238549 260.65237 26.9175885 260.65237 27.5285079 253.317523"></polygon>
                        <path d="M41.319447,269.519475 C41.319447,269.519475 51.351802,266.329529 54.495947,262.040047 C57.6402214,257.750823 52.3193607,234.275926 52.3193607,234.275926 L53.0067582,230.051305 C53.3936782,227.673025 51.5668726,225.509356 49.1536051,225.488037 L46.4735052,225.46433 C45.3580371,225.454573 44.605549,226.59946 45.0585947,227.617338 L48.5838364,235.536968 C48.5838364,235.536968 51.229644,253.317536 47.5241416,254.666696 C43.1049725,256.238994 38.1025766,256.617694 38.1025766,256.617694 L41.319447,269.519475 Z" id="Fill-196" fill="#F7B58E"></path>
                        <path d="M22.4713608,254.666683 L19.8909025,248.951939 L21.5674693,247.900597 C22.8057425,247.123944 23.3471716,245.599711 22.8757504,244.217604 L21.0383336,238.831557 C21.0383336,238.831557 26.2657642,238.192767 26.1081494,233.330002 C26.1081494,230.826264 22.6570565,230.812439 22.6570565,230.812439 C22.6570565,230.812439 21.6254426,233.050143 18.4238419,233.316048 C17.0493056,233.143559 13.2761246,233.649139 10.7302173,238.085527 C9.01793487,241.069391 9.76848189,245.743129 11.259353,249.25079 C12.5948091,252.393318 16.00501,254.148829 19.3840245,254.666683 L22.4713608,254.666683 Z" id="Fill-198" fill="#12375A"></path>
                        <path d="M12.2700681,302.673221 C12.2700681,302.673221 12.8032153,314.857397 15.4424233,328.064748 C16.2198865,331.955244 15.9273025,335.982052 14.6597839,339.741922 C8.66899521,357.511637 0.270374032,384.231392 0.270374032,384.231392 L7.74168142,384.231392 C7.74168142,384.231392 24.6687167,352.652618 29.0306889,336.987527 C33.3922729,321.322306 34.1394554,316.349199 34.1394554,316.349199 L28.9489052,302.673221 L12.2700681,302.673221 Z" id="Fill-200" fill="#212B53"></path>
                        <path d="M18.5024682,246.290183 C18.1951321,247.190485 18.8165333,248.382273 19.8908508,248.951939 C20.9651683,249.521475 22.085295,249.253375 22.392631,248.353073 C22.7002259,247.452513 22.0785659,246.260854 21.0042485,245.691318 C19.9301898,245.121652 18.8098043,245.389882 18.5024682,246.290183" id="Fill-202" fill="#F7B58E"></path>
                        <path d="M36.6300422,302.673221 L12.2700034,302.673221 L12.2700034,271.468754 C12.2700034,264.633414 17.4812584,258.921641 24.29739,258.28634 L41.2376245,256.238955 C41.2376245,256.238955 43.2295504,259.283287 48.7797162,266.357011 C42.1087766,270.472582 34.3887535,272.368022 34.3887535,272.368022 L36.6300422,302.673221 Z" id="Fill-204" fill="#01888B"></path>
                        <path d="M12.2700681,302.673221 C12.2700681,302.673221 15.7109379,315.105858 28.4051468,329.040893 C30.5249245,331.144482 33.578098,335.521953 33.1434278,341.711913 L30.5249245,384.231392 L38.1024731,384.231392 C38.1024731,384.231392 47.3386012,348.922724 45.3462871,331.51698 C43.353973,314.111237 36.6301069,302.673221 36.6301069,302.673221 L12.2700681,302.673221 Z" id="Fill-206" fill="#053C5E"></path>
                        <path d="M56.2921614,223.334691 C57.6025129,226.048387 59.3801447,227.903902 60.2628139,227.479205 C61.1457419,227.054249 60.7990668,224.509683 59.4888446,221.796116 C58.1786225,219.08242 56.4009907,217.226775 55.5181921,217.651602 C54.6353935,218.076558 54.9819392,220.620866 56.2921614,223.334691" id="Fill-208" fill="#FFD147"></path>
                        <path d="M34.7296701,231.324208 L34.9554812,231.431965 C35.7500258,231.812087 36.6615522,231.869066 37.4973769,231.590758 L37.6473569,231.541014 C39.022799,231.08324 40.0963401,229.996496 40.5357983,228.616843 C40.7310699,228.003765 40.1918407,227.40787 39.5611224,227.539918 L37.8738151,227.893423 C37.2166982,228.031156 36.6408475,228.422777 36.2719148,228.982752 L34.7296701,231.324208 Z" id="Fill-210" fill="#F7B58E"></path>
                        <polygon id="Fill-212" fill="#C59C6E" points="96.3465008 220.935816 96.7382087 248.828496 89.1566485 246.813154 93.43619 219.621671"></polygon>
                        <path d="M92.2743691,214.076082 C91.9767384,215.028841 92.0415701,216.057572 92.4565708,216.965626 L93.4423755,220.622003 L94.1359845,220.972665 L96.3583801,221.773479 C96.0113168,221.073575 96.2187525,221.829296 96.2187525,221.829296 L97.0253317,216.192075 C97.0253317,216.192075 99.3999072,212.878479 94.1717002,211.467042 C93.6719394,211.331893 93.1078645,211.482934 92.8152805,211.909182 C92.0811679,212.979259 92.2743691,214.076082 92.2743691,214.076082" id="Fill-214" fill="#C59C6E"></path>
                        <path d="M92.5212343,270.765478 C95.6164644,259.189988 96.7382734,248.828509 96.7382734,248.828509 L89.4241926,245.113732 L86.123468,254.749723 L92.5212343,270.765478 Z" id="Fill-216" fill="#00666B"></path>
                        <path d="M80.7611072,384.139502 C81.418224,380.201975 91.3075869,361.533121 92.1111898,351.836404 C93.0036937,341.071805 95.5088385,329.087639 95.5088385,329.087639 L84.8728108,325.929219 C84.8728108,325.929219 82.179641,325.929219 85.1375727,347.868384 C78.4865615,356.584693 76.7038829,376.364065 77.5811171,383.588571 L80.7611072,384.139502 Z" id="Fill-218" fill="#C59C6E"></path>
                        <path d="M85.4135152,317.949586 C85.4135152,317.949586 87.9116722,332.956765 91.3868343,349.008439 C87.757163,358.700505 93.2883063,385.747279 93.3906654,385.65128 C93.8077366,385.259659 95.7185258,387.610288 95.7185258,387.610288 C95.7185258,387.610288 99.7519396,363.74054 100.644055,352.976458 C101.536559,342.21173 101.758359,329.087717 101.758359,329.087717 L85.4135152,317.949586 Z" id="Fill-220" fill="#D9B183"></path>
                        <path d="M92.9390173,384.139463 C92.9390173,384.139463 91.425371,385.421566 91.7028146,387.055623 C91.9801288,388.689681 92.3732601,392.516738 92.3732601,392.516738 L93.9297393,392.516738 L93.881989,388.947316 C93.8866476,388.713972 97.2204998,392.516738 97.7852218,392.516738 L106.022734,392.516738 C106.022734,392.516738 106.569986,390.109129 101.732711,389.335319 C96.8955647,388.56138 92.9390173,384.139463 92.9390173,384.139463" id="Fill-222" fill="#053C5E"></path>
                        <path d="M81.1245272,381.419087 L80.9046687,384.824547 C80.8584712,385.541765 81.0571074,386.249293 81.4666731,386.840019 C81.9193306,387.492505 82.6819123,388.385442 83.9434783,389.410943 C81.5550565,390.177129 79.3833875,387.503358 78.2446265,385.726529 C77.6894805,384.860854 77.4738924,383.824112 77.6263311,382.807526 L78.0280031,380.127552 L81.1245272,381.419087 Z" id="Fill-224" fill="#C59C6E"></path>
                        <path d="M77.5814406,383.292187 C77.5814406,383.292187 75.4804265,383.48031 75.1318104,385.075994 C74.7831942,386.67116 73.7900135,389.899222 73.7900135,389.899222 L74.9364093,390.811152 L76.5515089,387.610353 C76.5515089,387.610353 80.0258946,392.286158 80.5784525,392.516789 L89.5696176,392.516789 C89.5696176,392.516789 89.5696176,389.545458 83.9434912,389.410827 C78.7579877,389.286531 77.5814406,383.292187 77.5814406,383.292187" id="Fill-226" fill="#212B53"></path>
                        <polygon id="Fill-228" fill="#D9B183" points="123.228248 224.541066 113.242738 250.594124 106.948366 245.917543 121.012452 222.244057"></polygon>
                        <path d="M121.990933,216.663208 C121.360861,217.438052 121.03955,218.417814 121.087947,219.414503 L120.647065,223.175407 L121.16119,223.757864 L122.928211,225.323572 C122.865708,224.545111 122.777842,225.323572 122.777842,225.323572 L125.618663,220.385997 C125.618663,220.385997 129.053839,218.186537 124.721371,214.941679 C124.307405,214.631457 123.727155,214.562979 123.297402,214.850718 C122.218426,215.572975 121.990933,216.663208 121.990933,216.663208" id="Fill-230" fill="#D9B183"></path>
                        <polygon id="Fill-232" fill="#C59C6E" points="95.5087868 256.980011 89.0734931 256.980011 91.642305 249.428357 96.6739463 252.515714"></polygon>
                        <path d="M104.057388,265.10164 C104.025166,264.911192 103.981557,264.75227 103.943641,264.577326 C110.316174,256.372023 113.242789,250.593969 113.242789,250.593969 L107.827204,244.438118 L97.9986618,256.109995 L94.3869778,256.125241 C94.3869778,256.125241 89.5076457,252.910617 85.2457033,257.298424 C83.6889652,258.901214 82.6520457,263.249226 83.6923297,267.845312 C86.5598076,280.516074 84.3158014,287.218979 84.3158014,287.218979 L100.918937,293.399766 C100.918937,293.399766 101.296151,282.381538 101.555996,274.653778 C101.556384,274.644733 101.556513,274.635818 101.556902,274.627032 C101.60724,273.119466 102.111271,271.681801 102.904781,270.398406 C103.818378,268.92004 104.39824,267.120471 104.057388,265.10164" id="Fill-234" fill="#63C0C4"></path>
                        <path d="M97.7705214,235.855226 L87.2178303,239.543775 L88.2579849,247.409139 C88.2728664,247.520385 88.3026295,247.627108 88.3233343,247.736803 C88.5262408,247.773497 88.7287591,247.810838 88.9305009,247.860453 C88.9637579,247.868592 88.9953327,247.879575 89.0282014,247.888361 C89.0599056,247.895984 89.0921273,247.900119 89.1239609,247.907871 C91.5585801,248.505445 93.2830266,250.514068 94.0573841,252.838856 C95.5571841,253.089902 97.1078401,253.092228 98.6247215,252.780327 C99.6577589,252.568172 100.592708,252.243479 101.023625,251.74746 C103.25055,246.89684 97.7705214,235.855226 97.7705214,235.855226" id="Fill-236" fill="#D9B183"></path>
                        <path d="M97.5275124,242.549035 C94.6865625,243.935794 95.3559728,258.554324 94.8653997,268.510486 C94.6015436,273.86759 90.5755059,278.246741 85.2709501,279.09213 C81.5092861,279.691642 77.3803716,279.801725 74.8894613,278.384861 C76.5363944,277.040223 85.413554,263.998383 82.5700161,246.728693 C82.1957778,244.455974 82.1498391,238.127764 85.9838404,234.692457 C90.2420301,230.877675 99.029124,235.855174 99.029124,235.855174 C99.029124,235.855174 101.430357,240.644034 97.5275124,242.549035" id="Fill-238" fill="#212B53"></path>
                        <path d="M101.257628,286.834232 C101.257628,286.834232 103.466824,298.067974 103.466824,304.750078 C103.466824,308.421184 102.56552,331.549811 102.56552,331.549811 C102.56552,331.549811 86.7916101,332.689788 83.7280842,332.689788 C82.9682201,313.736942 78.6409283,313.154227 78.6409283,304.314915 C78.6409283,300.473128 80.6138317,296.130931 82.128125,293.363873 C83.2156418,291.376956 83.8966985,289.990197 84.3158402,287.219005 L84.4187169,286.859944 L101.257628,286.834232 Z" id="Fill-240" fill="#00666B"></path>
                        <path d="M324.110256,126.357512 C324.110256,126.357512 326.359827,129.8268 325.013889,135.297604 C332.986122,129.395771 333.796713,145.692418 333.796713,145.692418 L338.342051,140.247971 C337.910357,117.766015 324.110256,126.357512 324.110256,126.357512" id="Fill-242" fill="#01888B"></path>
                        <path d="M336.981724,184.717104 C350.477077,177.460296 357.120065,185.466882 357.120065,185.466882 L364.830383,178.193406 C364.830383,178.193406 345.87493,160.14926 336.981724,184.717104" id="Fill-244" fill="#FFD147"></path>
                        <path d="M380.759294,141.960805 C380.759294,141.960805 374.24144,140.284497 364.289834,146.308558 C367.432426,139.351894 367.995077,134.086784 367.995077,134.086784 C367.995077,134.086784 373.675036,130.812079 382.417485,137.859316 C381.151261,140.113171 380.759294,141.960805 380.759294,141.960805" id="Fill-246" fill="#053C5E"></path>
                        <path d="M124.907092,89.906954 C124.907092,89.906954 120.157294,88.6855776 117.700935,82.7630716 C113.642546,94.4774572 101.36735,80.771891 101.36735,80.771891 L100.513408,89.2841851 C116.7414,108.752431 124.907092,89.906954 124.907092,89.906954" id="Fill-248" fill="#01888B"></path>
                        <path d="M70.6926612,48.9673438 C61.9033674,66.3875583 49.4477807,64.7540175 49.4477807,64.7540175 L46.6217124,77.464058 C46.6217124,77.464058 78.7914518,77.8908227 70.6926612,48.9673438" id="Fill-250" fill="#AFD8C8"></path>
                        <path d="M55.6716143,122.417762 C55.6716143,122.417762 63.5541697,118.572229 69.5633338,105.133342 C71.214149,113.833372 74.3316367,118.934779 74.3316367,118.934779 C74.3316367,118.934779 70.7872431,126.46085 56.8451851,127.388026 C56.5654122,124.366822 55.6716143,122.417762 55.6716143,122.417762" id="Fill-252" fill="#053C5E"></path>
                        <path d="M237.860809,22.1532941 L241.645895,18.9943572 C241.975877,18.713336 242.135304,18.2808864 242.06646,17.8533465 L241.903669,16.8408949 C241.851519,16.5176236 241.673847,16.2280748 241.408826,16.0350423 L237.479453,13.1748278 C237.013726,12.8357934 236.375632,12.8609884 235.938503,13.2356834 L235.478081,13.6300175 C235.234412,13.8386839 235.081197,14.1336592 235.050269,14.4525376 L234.46316,20.5396509 L237.860809,22.1532941 Z" id="Fill-254" fill="#9E7059"></path>
                        <path d="M234.463173,20.5396897 L233.771376,16.2403881 C233.650124,15.4850547 234.264796,14.8137047 235.02893,14.8669373 L236.919791,14.9987265 C237.423046,15.0338703 238.595064,17.4969082 238.595064,17.4969082 C238.595064,17.4969082 237.082841,18.8127336 236.244299,16.447504 C235.967761,16.6569455 235.307927,16.6250318 235.307927,16.6250318 C235.307927,16.6250318 237.63294,18.569311 236.916168,21.7044742 L234.463173,20.5396897 Z" id="Fill-256" fill="#825A46"></path>
                        <path d="M238.64328,22.2399779 C238.64328,22.2399779 229.778026,46.1718739 224.853014,54.8596287 C219.927872,63.5472543 204.584362,77.6440537 204.584362,77.6440537 L197.450542,58.3017833 C197.450542,58.3017833 211.240808,51.5888001 218.046846,44.4304468 C224.853014,37.2719643 234.046568,19.6172424 234.046568,19.6172424 L238.64328,22.2399779 Z" id="Fill-258" fill="#63C0C4"></path>
                        <path d="M158.482102,8.1036287 L156.281187,3.69553635 C156.09148,3.30611201 156.118784,2.84614165 156.353395,2.48191231 L156.9088,1.61920948 C157.086214,1.34387329 157.36534,1.14967793 157.685487,1.07887351 L162.433344,0.0294692209 C162.995995,-0.0949553455 163.570422,0.183223358 163.82095,0.701594449 L164.084418,1.24684021 C164.224045,1.53561374 164.246044,1.86702497 164.146403,2.17169073 L162.242601,7.98398473 L158.482102,8.1036287 Z" id="Fill-260" fill="#9E7059"></path>
                        <path d="M162.242614,7.98401057 L164.601143,4.32117357 C165.015368,3.67760268 164.72136,2.81670871 163.9998,2.55984886 L162.214404,1.9245471 C161.739101,1.75541755 159.677296,3.54348772 159.677296,3.54348772 C159.677296,3.54348772 160.53512,5.35403959 162.252319,3.52203967 C162.421451,3.82450894 163.038841,4.0590163 163.038841,4.0590163 C163.038841,4.0590163 160.12866,4.9108659 159.527834,8.07031961 L162.242614,7.98401057 Z" id="Fill-262" fill="#825A46"></path>
                        <path d="M199.190931,55.02359 C209.11381,61.580235 204.584388,101.903872 204.584388,101.903872 L174.288428,98.2976273 L177.571812,68.4646733 C177.571812,68.4646733 163.781546,51.6903554 161.154761,39.4240054 C158.528105,27.1576554 157.214518,7.81525571 157.214518,7.81525571 L162.796518,7.81525571 C162.796518,7.81525571 169.034987,33.0322263 172.9751,39.4240054 C176.915213,45.8153969 190.049139,54.8596287 190.049139,54.8596287 L199.190931,55.02359 Z" id="Fill-264" fill="#63C0C4"></path>
                    </g>
                    <g id="Group-269" transform="translate(228.354708, 58.154774)">
                        <mask id="mask-15" fill="white">
                            <use xlink:href="#path-14"></use>
                        </mask>
                        <g id="Clip-268"></g>
                        <path d="M0,0.719414316 C5.34855336,11.5447392 2.87058355,38.7556037 2.43177235,43.1096883 L2.43177235,43.1096883 C2.63623171,43.2653805 2.84379679,43.417455 3.04437401,43.5768942 L3.04437401,43.5768942 C3.37733219,40.5064628 6.35868613,11.2212095 0.358839119,0 L0.358839119,0 C0.243410164,0.241742849 0.125004901,0.482064442 0,0.719414316" id="Fill-267" fill="url(#linearGradient-16)" mask="url(#mask-15)"></path>
                    </g>
                    <g id="Group-292" transform="translate(200.108159, 29.913219)">
                        <path d="M18.905952,24.502952 L20.2298911,18.8644389 L26.7178525,19.5882462 L27.2009201,26.2886965 C27.1604164,26.3367608 27.1140895,26.3801737 27.0667274,26.4226822 C24.5632649,25.1745604 21.7233502,24.5054069 18.905952,24.502952" id="Fill-270" fill="#825A46"></path>
                        <path d="M16.6737863,7.84973804 L18.3768811,16.7188969 C19.2620089,16.5589409 19.9175729,17.4403785 19.8639994,18.299722 C19.985381,18.4896535 20.0685882,18.7081395 20.1054685,18.9368326 C21.8045517,19.8261517 24.8130806,20.8760728 28.3356048,19.6806667 C33.8463022,17.8106804 28.9039501,7.35875844 28.9039501,7.35875844 L16.6737863,7.84973804 Z" id="Fill-272" fill="#9E7059"></path>
                        <path d="M14.7644982,14.9552723 C14.6306938,14.3058872 13.5421418,13.0412271 12.984796,12.6807447 C9.39278145,10.3580236 11.9784159,7.93994908 12.9041769,7.14585419 C13.9281559,6.26764673 13.4227013,4.26109064 14.7205007,2.92019952 C16.7020742,0.872685391 19.0968368,2.37559978 20.4841842,1.91382055 C21.8716609,1.45217052 22.4918975,-0.56239629 24.7026467,0.151591409 C26.9133958,0.865449902 26.9119724,2.52043876 27.6713189,3.11284441 C28.4307949,3.70525005 29.3859307,1.64287733 31.7074502,3.52410442 C35.239421,6.38599866 29.4103881,8.6319719 29.4103881,8.6319719 C29.4103881,8.6319719 26.3029941,10.4537646 21.6981293,9.35112781 C21.0666345,9.19995778 20.3734138,9.42878011 20.0663365,10 C19.2230064,11.5675131 20.2507382,19.0213586 20.2507382,19.0213586 L18.6258039,18.0149796 C18.6258039,18.0149796 15.3767117,17.9287998 14.7644982,14.9552723" id="Fill-274" fill="#212B53"></path>
                        <path d="M18.2628497,15.2136826 C18.6482168,15.8748254 19.4972407,16.0988671 20.1594044,15.7140942 C20.8213092,15.3293212 21.0456969,14.481477 20.6604592,13.8204634 C20.2750921,13.159579 19.4259388,12.9355373 18.7639045,13.320181 C18.1018703,13.7050832 17.877612,14.5527982 18.2628497,15.2136826" id="Fill-276" fill="#825A46"></path>
                        <polygon id="Fill-278" fill="#AFD8C7" points="27.0751905 23.8885944 27.2087361 26.9587673 17.1727578 24.9600928 19.2762305 21.6143252"></polygon>
                        <path d="M56.9777862,143.495721 L57.7370033,148.149561 C56.3280454,149.151418 54.4782058,149.215245 53.0067454,148.312231 L52.7418541,148.149561 L51.6208215,143.495721 L56.9777862,143.495721 Z" id="Fill-280" fill="#825A46"></path>
                        <path d="M49.6508685,90.6238721 L58.0734295,143.911438 L50.5863348,143.911438 C50.5863348,143.911438 33.770717,95.967539 32.0052492,81.8711271 C32.0052492,73.8872821 49.0038452,81.8711271 49.0038452,81.8711271 L49.6508685,90.6238721 Z" id="Fill-282" fill="#212B53"></path>
                        <path d="M57.8754016,147.655907 C57.8754016,147.655907 57.8961063,152.603043 67.5803628,155.572824 C69.5669831,156.182285 68.9209951,156.785027 69.2939393,157.642303 L58.1493512,157.642303 L53.7856967,152.608728 L52.4288889,153.80491 L49.2822852,150.633052 C49.2822852,150.633052 49.8287611,146.042652 52.2245589,146.002469 C54.2010857,146.693716 57.8754016,147.655907 57.8754016,147.655907" id="Fill-284" fill="#212B53"></path>
                        <path d="M30.3555468,142.045444 L28.5447874,146.329112 C26.8961721,146.810918 25.1250105,146.258954 24.0166596,144.917417 L23.8168588,144.675545 L25.2797785,140.270682 L30.3555468,142.045444 Z" id="Fill-286" fill="#825A46"></path>
                        <path d="M0.50503654,65.9418497 L0.0968942455,69.3776732 C0.0915886545,69.4240579 0.0862830635,69.4704425 0.0809774724,69.5165688 C-0.643559213,76.0760562 3.5675272,82.1570969 9.76251644,83.9384484 C9.76251644,83.9384484 22.0502652,88.1134547 37.5596724,88.9850727 C27.3781139,102.39786 24.5618803,140.035839 24.5618803,140.035839 L31.1217906,142.479367 L56.4537879,80.5677443 C58.072899,76.6122576 55.7850246,72.1217324 51.6954492,71.2284079 L33.2748254,67.2037965 C29.4356479,66.3648674 25.5172749,65.9418497 21.5872554,65.9418497 L0.50503654,65.9418497 Z" id="Fill-288" fill="#053C5E"></path>
                        <path d="M28.9457478,145.380553 C28.9457478,145.380553 28.5655569,150.36981 38.2498134,153.339849 C40.2365631,153.948922 39.590575,154.551922 39.9633898,155.409199 L28.8186724,155.409199 L24.4551473,150.375495 L23.09821,151.571676 L19.9517358,148.399819 C19.9517358,148.399819 21.4209963,143.809418 23.8167941,143.769364 C25.7931915,144.460612 28.9457478,145.380553 28.9457478,145.380553" id="Fill-290" fill="#212B53"></path>
                    </g>
                </g>
            </g>
        </g>
    </g>
</svg>