<?xml version="1.0" encoding="UTF-8"?>
<svg width="452px" height="360px" viewBox="0 0 452 360" version="1.1" xmlns="http://www.w3.org/2000/svg" xmlns:xlink="http://www.w3.org/1999/xlink">
    <title>illus-no-application-fee-1303181548</title>
    <defs>
        <path d="M0.512584181,29.3406725 C-5.82741582,52.1166725 48.3155842,57.5376725 70.6695842,58.8026725 C76.8675842,59.1526725 83.0625842,58.8446725 89.1965842,57.8886725 C108.283584,54.9086725 150.140584,46.7146725 144.955584,32.7566725 C138.265584,14.7476725 115.203584,26.0456725 115.203584,26.0456725 C115.203584,26.0456725 118.632584,12.8346725 80.7405842,2.28667247 C42.8485842,-8.26132753 41.6695842,21.1046725 41.6695842,21.1046725 C41.6695842,21.1046725 8.47758418,0.729672474 0.512584181,29.3406725" id="path-1"></path>
        <linearGradient x1="0.198549374%" y1="49.1151536%" x2="100.073601%" y2="50.9529492%" id="linearGradient-3">
            <stop stop-color="#D4EBDE" offset="0%"></stop>
            <stop stop-color="#B0DCDF" offset="100%"></stop>
        </linearGradient>
        <path d="M170.258,42.62 C163.798,37.549 149.394,39.699 141.633,41.358 C139.596,41.794 137.944,39.793 138.725,37.863 C143.221,26.747 148.812,5.68434189e-14 98.5,5.68434189e-14 C58.943,5.68434189e-14 46.904,14.497 43.449,25.433 C42.658,27.94 39.164,28.282 37.852,26.004 C33.863,19.077 26.97,12.335 16.072,16.749 C5.29,21.118 1.357,28.425 0,34.163 C3.517,39.45 5.416,45.914 5.183,52.01 C5.171,52.319 5.142,52.631 5.115,52.942 C10.313,56.308 14.156,60.9 16.256,66.238 L179.331,66.238 C179.331,66.238 179.331,49.742 170.258,42.62" id="path-4"></path>
        <linearGradient x1="100%" y1="50%" x2="-17.5190012%" y2="50%" id="linearGradient-6">
            <stop stop-color="#D4EBDE" offset="0%"></stop>
            <stop stop-color="#B0DCDF" offset="100%"></stop>
        </linearGradient>
        <path d="M4.94884535,-1.42108547e-14 C4.47382154,0.171 4.06100794,0.146225273 3.56951543,0.146225273 C-2.17948457,10.9152253 0.66451543,40.4232253 0.98351543,43.3702253 C1.17651543,43.2172253 1.37551543,43.0712253 1.57051543,42.9222253 C1.14951543,38.7432253 -0.176154652,10.39 4.94884535,-1.42108547e-14 Z" id="path-7"></path>
        <linearGradient x1="0.00585651362%" y1="49.9988044%" x2="1204.26345%" y2="49.9988044%" id="linearGradient-9">
            <stop stop-color="#D4EBDE" offset="0%"></stop>
            <stop stop-color="#B0DCDF" offset="100%"></stop>
        </linearGradient>
        <path d="M13.972,0.141 C16.037,3.608 21.313,4.964 24.214,2.922 C31.577,5.85 46.281,47.387 46.281,47.387 C46.259,47.396 46.237,47.404 46.215,47.413 C42.75,48.996 41.452,53.573 43.051,56.889 L33.054,62.01 C31.189,58.554 26.993,57.452 23.514,59.042 C23.482,59.056 23.454,59.076 23.423,59.091 L-2.84217094e-14,14.908 C0.225,14.828 0.448,14.739 0.668,14.638 C4.133,13.055 6.058,8.158 4.458,4.842 L13.909,0 C13.931,0.047 13.945,0.097 13.972,0.141" id="path-10"></path>
        <linearGradient x1="69.0510551%" y1="95.1136913%" x2="33.9768212%" y2="3.3718755%" id="linearGradient-12">
            <stop stop-color="#D4EBDE" offset="0%"></stop>
            <stop stop-color="#B0DCDF" offset="100%"></stop>
        </linearGradient>
        <path d="M58.057,11.451 C54.962,14.041 54.46,19.465 56.937,22.005 C55.215,29.739 16.538,50.849 16.538,50.849 C16.524,50.829 16.514,50.808 16.501,50.788 C14.388,47.618 9.663,47.062 6.643,49.167 L-1.42108547e-14,40.109 C3.117,37.72 3.538,33.402 1.417,30.22 C1.398,30.191 1.374,30.166 1.355,30.138 L41.26,0 C41.374,0.21 41.498,0.416 41.632,0.617 C43.746,3.787 48.885,4.91 51.906,2.804 L58.186,11.367 C58.144,11.397 58.096,11.418 58.057,11.451" id="path-13"></path>
        <linearGradient x1="6.75592067%" y1="80.1066411%" x2="95.340288%" y2="23.334547%" id="linearGradient-15">
            <stop stop-color="#D4EBDE" offset="0%"></stop>
            <stop stop-color="#B0DCDF" offset="100%"></stop>
        </linearGradient>
        <path d="M2.82946131,53.823 C4.77146131,50.285 3.26746131,45.05 0.0374613088,43.584 C-1.16953869,35.752 27.1914613,2.029 27.1914613,2.029 C27.2104613,2.043 27.2284613,2.059 27.2474613,2.073 C30.3684613,4.258 34.9714613,3.059 37.0204613,0 L46.5004613,6.024 C44.4654613,9.383 45.6414613,13.559 48.7754613,15.752 C48.8034613,15.773 48.8344613,15.787 48.8634613,15.806 L22.6394613,58.386 C22.4564613,58.232 22.2664613,58.085 22.0684613,57.947 C18.9474613,55.762 13.7504613,56.584 11.7024613,59.643 L2.74046131,53.948 C2.76846131,53.905 2.80446131,53.868 2.82946131,53.823" id="path-16"></path>
        <linearGradient x1="72.6079719%" y1="4.12269671%" x2="25.5194619%" y2="94.5742166%" id="linearGradient-18">
            <stop stop-color="#D4EBDE" offset="0%"></stop>
            <stop stop-color="#B0DCDF" offset="100%"></stop>
        </linearGradient>
        <path d="M0.154,12.9337453 C4.136,12.2817453 7.332,7.87074527 6.494,4.42274527 C11.917,-1.35525473 55.953,0.186745275 55.953,0.186745275 C55.954,0.210745275 55.952,0.234745275 55.953,0.258745275 C56.157,4.06174527 59.938,6.94774527 63.61,6.67574527 L64.711,17.8537453 C60.812,18.3217453 58.249,21.8227453 58.453,25.6417453 C58.455,25.6767453 58.463,25.7097453 58.465,25.7437453 L8.772,31.3447453 C8.781,31.1057453 8.779,30.8657453 8.766,30.6237453 C8.563,26.8207453 4.712,23.2347453 1.04,23.5077453 L0,12.9397453 C0.051,12.9367453 0.103,12.9417453 0.154,12.9337453" id="path-19"></path>
        <linearGradient x1="98.9939887%" y1="46.6813022%" x2="0.693854213%" y2="51.369937%" id="linearGradient-21">
            <stop stop-color="#D4EBDE" offset="0%"></stop>
            <stop stop-color="#B0DCDF" offset="100%"></stop>
        </linearGradient>
        <path d="M5.796,2.85781769 C9.339,4.79081769 14.57,3.27281769 16.027,0.0388176898 C23.856,-1.18818231 57.654,27.0808177 57.654,27.0808177 C57.64,27.1008177 57.625,27.1178177 57.611,27.1378177 C55.434,30.2638177 56.645,34.8638177 59.71,36.9048177 L53.712,46.4008177 C50.347,44.3748177 46.175,45.5628177 43.989,48.7018177 C43.97,48.7298177 43.955,48.7608177 43.935,48.7898177 L1.285,22.6798177 C1.439,22.4968177 1.585,22.3058177 1.723,22.1078177 C3.9,18.9818177 3.064,13.7868177 5.68434189e-14,11.7458177 L5.671,2.76881769 C5.714,2.79681769 5.751,2.83381769 5.796,2.85781769" id="path-22"></path>
        <linearGradient x1="95.8985095%" y1="72.4249814%" x2="5.39557863%" y2="25.7094087%" id="linearGradient-24">
            <stop stop-color="#D4EBDE" offset="0%"></stop>
            <stop stop-color="#B0DCDF" offset="100%"></stop>
        </linearGradient>
        <polyline id="path-25" points="0.879 5.448 0 0 23.619 6.852 0.879 5.448"></polyline>
        <linearGradient x1="0%" y1="50%" x2="76.1002526%" y2="54.2080578%" id="linearGradient-27">
            <stop stop-color="#DFECF1" offset="0%"></stop>
            <stop stop-color="#ECF7FC" offset="100%"></stop>
        </linearGradient>
        <linearGradient x1="100%" y1="50%" x2="0%" y2="50%" id="linearGradient-28">
            <stop stop-color="#F0FAFF" offset="0%"></stop>
            <stop stop-color="#DEECF0" offset="100%"></stop>
        </linearGradient>
        <polyline id="path-29" points="1.42108547e-14 10.403 15.906 1.624 24.026 0 30.162 0.902 1.42108547e-14 10.403"></polyline>
        <linearGradient x1="14.0275989%" y1="55.9479448%" x2="100%" y2="39.5220139%" id="linearGradient-31">
            <stop stop-color="#C2E5EB" offset="0%"></stop>
            <stop stop-color="#E7F4F6" offset="100%"></stop>
        </linearGradient>
        <polyline id="path-32" points="36.128 3.449 31.879 0 -1.42108547e-14 8.655 27.442 7.84 36.128 3.449"></polyline>
        <linearGradient x1="13.7932695%" y1="52.8695666%" x2="100%" y2="50%" id="linearGradient-34">
            <stop stop-color="#C2E5EB" offset="0%"></stop>
            <stop stop-color="#ECF6F7" offset="100%"></stop>
        </linearGradient>
        <linearGradient x1="50%" y1="0%" x2="50%" y2="78.9570316%" id="linearGradient-35">
            <stop stop-color="#C59C6E" offset="0%"></stop>
            <stop stop-color="#D9B183" offset="100%"></stop>
        </linearGradient>
    </defs>
    <g id="Page-2-Illustrations" stroke="none" stroke-width="1" fill="none" fill-rule="evenodd">
        <g id="PECOS-2.0-Illustrations-v31" transform="translate(-1525.000000, -446.000000)">
            <g id="Application-Fee-No-Application-Fee" transform="translate(1515.000000, 378.000000)">
                <g id="illus-no-application-fee-1303181548" transform="translate(10.000000, 68.000000)">
                    <g id="Group-6" transform="translate(16.582416, 143.374328)">
                        <mask id="mask-2" fill="white">
                            <use xlink:href="#path-1"></use>
                        </mask>
                        <g id="Clip-5"></g>
                        <path d="M0.512584181,29.3406725 C-5.82741582,52.1166725 48.3155842,57.5376725 70.6695842,58.8026725 C76.8675842,59.1526725 83.0625842,58.8446725 89.1965842,57.8886725 C108.283584,54.9086725 150.140584,46.7146725 144.955584,32.7566725 C138.265584,14.7476725 115.203584,26.0456725 115.203584,26.0456725 C115.203584,26.0456725 118.632584,12.8346725 80.7405842,2.28667247 C42.8485842,-8.26132753 41.6695842,21.1046725 41.6695842,21.1046725 C41.6695842,21.1046725 8.47758418,0.729672474 0.512584181,29.3406725" id="Fill-4" fill="url(#linearGradient-3)" mask="url(#mask-2)"></path>
                    </g>
                    <g id="Group-9" transform="translate(270.671000, 45.259000)">
                        <mask id="mask-5" fill="white">
                            <use xlink:href="#path-4"></use>
                        </mask>
                        <g id="Clip-8"></g>
                        <path d="M170.258,42.62 C163.798,37.549 149.394,39.699 141.633,41.358 C139.596,41.794 137.944,39.793 138.725,37.863 C143.221,26.747 148.812,5.68434189e-14 98.5,5.68434189e-14 C58.943,5.68434189e-14 46.904,14.497 43.449,25.433 C42.658,27.94 39.164,28.282 37.852,26.004 C33.863,19.077 26.97,12.335 16.072,16.749 C5.29,21.118 1.357,28.425 0,34.163 C3.517,39.45 5.416,45.914 5.183,52.01 C5.171,52.319 5.142,52.631 5.115,52.942 C10.313,56.308 14.156,60.9 16.256,66.238 L179.331,66.238 C179.331,66.238 179.331,49.742 170.258,42.62" id="Fill-7" fill="url(#linearGradient-6)" mask="url(#mask-5)"></path>
                    </g>
                    <path d="M315.908,194.44 L311.753,192.186 C311.389,191.984 311.157,191.608 311.14,191.193 L311.101,190.209 C311.088,189.895 311.201,189.589 311.414,189.357 L314.561,185.922 C314.934,185.515 315.538,185.417 316.02,185.687 L316.527,185.971 C316.795,186.121 316.996,186.369 317.086,186.664 L318.793,192.279 L315.908,194.44" id="Fill-10" fill="#9E7059"></path>
                    <path d="M318.793,192.279 L318.626,188.103 C318.596,187.369 317.891,186.854 317.184,187.049 L315.433,187.532 C314.966,187.66 314.334,190.199 314.334,190.199 C314.334,190.199 316.003,191.15 316.342,188.767 C316.642,188.911 317.255,188.756 317.255,188.756 C317.255,188.756 315.441,191.026 316.71,193.839 L318.793,192.279" id="Fill-11" fill="#825A46"></path>
                    <polyline id="Fill-12" fill="#5BBDB7" points="293.502 226.95 291.796 225.905 357.526 118.742 359.231 119.788 293.502 226.95"></polyline>
                    <path d="M424.041,145.2 C424.041,145.2 368.924,132.515 357.767,118.288 C346.503,135.995 343.964,140.134 333.575,156.739 C345.277,175.438 407.102,186.914 407.102,186.914 C413.977,189.706 430.978,187.858 436.385,174.544 L436.41,174.484 C444.611,151.274 424.041,145.2 424.041,145.2" id="Fill-13" fill="#A0D2BB"></path>
                    <path d="M314.189,194.67 C314.189,194.67 325.059,215.503 331.335,222.744 C337.61,229.983 354.698,236.335 354.698,236.335 L357.727,218.787 C357.727,218.787 345.5,218.086 337.748,212.642 C329.996,207.198 319.008,192.332 319.008,192.332 L314.189,194.67" id="Fill-14" fill="#5BBDB7"></path>
                    <path d="M399.653,172.155 L401.761,167.925 C401.943,167.551 401.918,167.11 401.693,166.76 L401.16,165.932 C400.99,165.668 400.723,165.481 400.416,165.414 L395.867,164.407 C395.328,164.287 394.777,164.554 394.537,165.052 L394.285,165.575 C394.151,165.852 394.129,166.17 394.225,166.462 L396.049,172.04 L399.653,172.155" id="Fill-15" fill="#9E7059"></path>
                    <path d="M396.049,172.04 L393.79,168.525 C393.392,167.908 393.674,167.081 394.366,166.835 L396.077,166.225 C396.532,166.063 398.507,167.779 398.507,167.779 C398.507,167.779 397.685,169.517 396.04,167.758 C395.878,168.049 395.287,168.274 395.287,168.274 C395.287,168.274 398.075,169.091 398.651,172.123 L396.049,172.04" id="Fill-16" fill="#825A46"></path>
                    <path d="M424.031,319.861 C424.031,319.861 426.83,322.878 428.583,329.759 C428.968,331.274 428.453,332.907 430.952,332.907 C430.952,329.694 430.952,324.557 430.952,324.557 L429.751,317.613 L430.952,317.613 L430.952,313.862 C430.952,313.862 424.818,312.818 424.031,315.008 C424.031,317.037 424.031,319.861 424.031,319.861" id="Fill-17" fill="#1B2441"></path>
                    <path d="M419.626,319.439 L424.031,319.861 C424.98,318.493 425.041,316.695 424.185,315.266 L424.031,315.008 L419.626,313.451 L419.626,319.439" id="Fill-18" fill="#825A46"></path>
                    <path d="M380.4,259.206 C380.4,259.206 385.573,274.537 384.09,291.308 C383.693,295.81 386.872,299.81 391.313,300.646 C404.879,303.2 420.374,313.146 420.374,313.146 L420.374,320.068 C420.374,320.068 378.439,316.292 369.694,310.314 C360.948,304.336 356.82,265.323 356.82,265.323 L380.4,259.206" id="Fill-19" fill="#1B2441"></path>
                    <path d="M360.644,217.185 C351.136,223.477 355.476,262.176 355.476,262.176 L384.506,258.715 L381.36,230.084 C381.36,230.084 394.575,213.986 397.091,202.214 C399.609,190.442 400.868,171.878 400.868,171.878 L395.518,171.878 C395.518,171.878 389.541,196.08 385.765,202.214 C381.99,208.348 369.404,217.028 369.404,217.028 L360.644,217.185" id="Fill-20" fill="#5BBDB7"></path>
                    <g id="Group-23" transform="translate(354.157485, 218.640775)">
                        <mask id="mask-8" fill="white">
                            <use xlink:href="#path-7"></use>
                        </mask>
                        <g id="Clip-22"></g>
                        <path d="M4.90251543,-2.84217094e-14 C4.73475595,0.0605459213 4.10070702,0.146225273 3.56951543,0.146225273 C-2.17948457,10.9152253 0.66451543,40.4232253 0.98351543,43.3702253 C1.17651543,43.2172253 1.37551543,43.0712253 1.57051543,42.9222253 C1.14951543,38.7432253 -0.22248457,10.39 4.90251543,-2.84217094e-14 Z" id="Fill-21" fill="url(#linearGradient-9)" mask="url(#mask-8)"></path>
                    </g>
                    <path d="M322.473,341.751 C322.473,341.751 319.456,344.55 312.576,346.302 C311.061,346.688 309.427,346.172 309.427,348.671 C312.64,348.671 317.777,348.671 317.777,348.671 L324.721,347.471 L324.721,348.671 L328.472,348.671 C328.472,348.671 329.516,342.538 327.326,341.751 C325.297,341.751 322.473,341.751 322.473,341.751" id="Fill-24" fill="#1B2441"></path>
                    <path d="M322.896,337.345 L322.473,341.751 C323.842,342.7 325.639,342.76 327.068,341.905 L327.326,341.751 L328.883,337.345 L322.896,337.345" id="Fill-25" fill="#825A46"></path>
                    <path d="M367.009,216.602 L365.74,211.19 L359.523,211.885 L359.06,218.316 C359.099,218.362 359.143,218.404 359.189,218.445 C361.587,217.247 364.309,216.604 367.009,216.602" id="Fill-26" fill="#825A46"></path>
                    <path d="M369.148,200.62 L367.516,209.131 C366.668,208.978 366.04,209.824 366.09,210.648 C365.974,210.831 365.895,211.04 365.859,211.26 C364.231,212.114 361.348,213.122 357.973,211.974 C352.693,210.179 357.428,200.148 357.428,200.148 L369.148,200.62" id="Fill-27" fill="#9E7059"></path>
                    <path d="M370.977,207.439 C371.105,206.816 372.149,205.602 372.682,205.256 C376.125,203.027 373.647,200.706 372.76,199.944 C371.779,199.102 372.263,197.176 371.019,195.889 C369.121,193.924 366.826,195.366 365.497,194.923 C364.167,194.48 363.573,192.546 361.455,193.232 C359.336,193.917 359.337,195.505 358.61,196.074 C357.881,196.642 356.966,194.663 354.742,196.468 C351.358,199.215 356.943,201.371 356.943,201.371 C356.943,201.371 359.92,203.119 364.334,202.06 C364.938,201.915 365.603,202.135 365.897,202.684 C366.705,204.187 365.72,211.341 365.72,211.341 L367.277,210.375 C367.277,210.375 370.39,210.292 370.977,207.439" id="Fill-28" fill="#1B2441"></path>
                    <path d="M367.625,207.687 C367.255,208.321 366.442,208.537 365.808,208.167 C365.173,207.798 364.959,206.984 365.328,206.35 C365.697,205.715 366.51,205.5 367.145,205.87 C367.779,206.239 367.995,207.053 367.625,207.687" id="Fill-29" fill="#9E7059"></path>
                    <path d="M355.476,262.176 C355.476,262.176 334.465,282.179 332.586,287.07 C330.706,291.961 322.839,337.687 322.839,337.687 L328.818,337.687 C328.818,337.687 340.809,318.201 344.476,302.9 C345.77,297.502 349.83,293.196 355.132,291.553 C388.226,281.301 384.506,258.715 384.506,258.715 L355.476,262.176" id="Fill-30" fill="#13374D"></path>
                    <polygon id="Fill-31" fill="#A0D2BB" points="358.967299 218.888642 368.669 217.04 366.654 213.83 359.181 216.012"></polygon>
                    <path d="M194.699,110.537 C194.699,110.537 221.15,157.056 226.485,172.587 C244.105,164.975 254.771,158.098 254.771,158.098 C254.771,158.098 230.22,96.32 224.653,95.192 C218.841,96.564 218.981,96.523 194.699,110.537" id="Fill-32" fill="#005C5A"></path>
                    <g id="Group-35" transform="translate(201.486000, 103.171000)">
                        <mask id="mask-11" fill="white">
                            <use xlink:href="#path-10"></use>
                        </mask>
                        <g id="Clip-34"></g>
                        <path d="M13.972,0.141 C16.037,3.608 21.313,4.964 24.214,2.922 C31.577,5.85 46.281,47.387 46.281,47.387 C46.259,47.396 46.237,47.404 46.215,47.413 C42.75,48.996 41.452,53.573 43.051,56.889 L33.054,62.01 C31.189,58.554 26.993,57.452 23.514,59.042 C23.482,59.056 23.454,59.076 23.423,59.091 L-2.84217094e-14,14.908 C0.225,14.828 0.448,14.739 0.668,14.638 C4.133,13.055 6.058,8.158 4.458,4.842 L13.909,0 C13.931,0.047 13.945,0.097 13.972,0.141" id="Fill-33" fill="url(#linearGradient-12)" mask="url(#mask-11)"></path>
                    </g>
                    <path d="M221.607,127.379 C217.435,129.516 215.785,134.631 217.922,138.803 C220.06,142.976 225.175,144.625 229.347,142.488 C233.519,140.351 235.169,135.236 233.031,131.063 C230.894,126.891 225.779,125.242 221.607,127.379" id="Fill-36" fill="#FFFFFE"></path>
                    <path d="M218.597,136.294 L220.169,135.781 C219.802,134.603 219.802,133.26 219.984,132.417 L221.382,132.607 C221.223,133.465 221.22,134.52 221.59,135.652 C222.059,137.088 222.955,137.869 223.898,137.561 C224.807,137.264 225.112,136.292 225.119,134.633 C225.107,132.355 225.452,130.832 226.891,130.362 C228.263,129.914 229.695,130.767 230.551,132.546 L232.221,132 L232.63,133.254 L231.026,133.778 C231.39,135.002 231.396,135.917 231.306,136.596 L229.819,136.413 C229.879,135.923 229.906,135.106 229.483,133.812 C228.975,132.255 228.318,131.82 227.657,132.037 C226.797,132.317 226.611,133.206 226.591,135.16 C226.577,137.469 226.06,138.802 224.588,139.283 C223.282,139.709 221.596,139.029 220.634,137.039 L219.013,137.568 L218.597,136.294" id="Fill-37" fill="#005C5A"></path>
                    <polyline id="Fill-38" fill="#005C5A" points="219.058 137.704 218.581 136.245 232.159 131.81 232.635 133.268 219.058 137.704"></polyline>
                    <path d="M217.86,120.339 C216.863,120.85 216.468,122.073 216.98,123.071 C217.49,124.068 218.713,124.463 219.711,123.952 C220.709,123.441 221.104,122.218 220.592,121.22 C220.081,120.222 218.858,119.828 217.86,120.339" id="Fill-39" fill="#21837F"></path>
                    <path d="M215.058,114.868 C214.061,115.379 213.666,116.602 214.177,117.6 C214.688,118.598 215.911,118.992 216.909,118.481 C217.907,117.97 218.301,116.747 217.79,115.749 C217.279,114.751 216.056,114.357 215.058,114.868" id="Fill-40" fill="#21837F"></path>
                    <path d="M233.74,151.338 C232.743,151.85 232.348,153.073 232.859,154.07 C233.37,155.068 234.593,155.462 235.591,154.951 C236.589,154.44 236.983,153.217 236.472,152.22 C235.961,151.222 234.738,150.827 233.74,151.338" id="Fill-41" fill="#21837F"></path>
                    <path d="M230.996,145.982 C229.999,146.493 229.604,147.716 230.115,148.714 C230.627,149.711 231.85,150.106 232.847,149.595 C233.845,149.084 234.239,147.861 233.728,146.863 C233.217,145.865 231.994,145.471 230.996,145.982" id="Fill-42" fill="#21837F"></path>
                    <path d="M116.188,25.971 C116.188,25.971 74.456,59.469 59.968,67.201 C70.28,83.39 78.762,92.829 78.762,92.829 C78.762,92.829 135.861,58.786 136.091,53.11 C133.815,47.59 133.877,47.721 116.188,25.971" id="Fill-43" fill="#005C5A"></path>
                    <g id="Group-46" transform="translate(68.558000, 33.869000)">
                        <mask id="mask-14" fill="white">
                            <use xlink:href="#path-13"></use>
                        </mask>
                        <g id="Clip-45"></g>
                        <path d="M58.057,11.451 C54.962,14.041 54.46,19.465 56.937,22.005 C55.215,29.739 16.538,50.849 16.538,50.849 C16.524,50.829 16.514,50.808 16.501,50.788 C14.388,47.618 9.663,47.062 6.643,49.167 L-1.42108547e-14,40.109 C3.117,37.72 3.538,33.402 1.417,30.22 C1.398,30.191 1.374,30.166 1.355,30.138 L41.26,0 C41.374,0.21 41.498,0.416 41.632,0.617 C43.746,3.787 48.885,4.91 51.906,2.804 L58.186,11.367 C58.144,11.397 58.096,11.418 58.057,11.451" id="Fill-44" fill="url(#linearGradient-15)" mask="url(#mask-14)"></path>
                    </g>
                    <path d="M103.829,55.211 C101.057,51.431 95.745,50.614 91.965,53.386 C88.185,56.158 87.368,61.47 90.14,65.25 C92.912,69.031 98.224,69.848 102.004,67.075 C105.784,64.303 106.602,58.991 103.829,55.211" id="Fill-47" fill="#FFFFFE"></path>
                    <path d="M94.549,53.654 L95.305,55.124 C96.41,54.575 97.736,54.362 98.597,54.408 L98.631,55.818 C97.759,55.798 96.717,55.962 95.658,56.507 C94.315,57.198 93.686,58.207 94.139,59.088 C94.577,59.939 95.586,60.086 97.224,59.83 C99.472,59.456 101.029,59.555 101.722,60.901 C102.382,62.185 101.768,63.734 100.147,64.861 L100.951,66.424 L99.778,67.027 L99.006,65.526 C97.855,66.08 96.952,66.231 96.268,66.25 L96.213,64.753 C96.706,64.734 97.517,64.631 98.727,64.008 C100.184,63.259 100.509,62.542 100.19,61.924 C99.777,61.119 98.87,61.077 96.938,61.367 C94.655,61.719 93.258,61.42 92.549,60.043 C91.92,58.821 92.324,57.049 94.137,55.784 L93.357,54.267 L94.549,53.654" id="Fill-48" fill="#005C5A"></path>
                    <polyline id="Fill-49" fill="#005C5A" points="93.231 54.332 94.595 53.63 101.129 66.332 99.765 67.034 93.231 54.332"></polyline>
                    <path d="M110.186,50.395 C109.523,49.491 108.253,49.295 107.348,49.958 C106.444,50.621 106.249,51.892 106.912,52.795 C107.575,53.699 108.845,53.895 109.749,53.232 C110.653,52.569 110.848,51.299 110.186,50.395" id="Fill-50" fill="#21837F"></path>
                    <path d="M115.142,46.76 C114.479,45.856 113.209,45.661 112.305,46.323 C111.401,46.986 111.206,48.256 111.868,49.161 C112.531,50.064 113.802,50.26 114.706,49.597 C115.609,48.934 115.805,47.664 115.142,46.76" id="Fill-51" fill="#21837F"></path>
                    <path d="M82.099,70.993 C81.436,70.089 80.166,69.893 79.262,70.556 C78.358,71.219 78.162,72.489 78.825,73.393 C79.488,74.297 80.758,74.493 81.662,73.83 C82.566,73.167 82.762,71.896 82.099,70.993" id="Fill-52" fill="#21837F"></path>
                    <path d="M86.952,67.434 C86.289,66.53 85.019,66.334 84.115,66.997 C83.211,67.66 83.016,68.93 83.678,69.834 C84.341,70.738 85.611,70.934 86.516,70.27 C87.419,69.607 87.615,68.337 86.952,67.434" id="Fill-53" fill="#21837F"></path>
                    <path d="M177.938,104.056 C177.938,104.056 204.643,57.682 215.33,45.213 C199.839,33.879 188.506,28.168 188.506,28.168 C188.506,28.168 147.684,80.635 149.532,86.006 C153.66,90.322 153.554,90.222 177.938,104.056" id="Fill-54" fill="#21837F"></path>
                    <g id="Group-57" transform="translate(158.362539, 35.997000)">
                        <mask id="mask-17" fill="white">
                            <use xlink:href="#path-16"></use>
                        </mask>
                        <g id="Clip-56"></g>
                        <path d="M2.82946131,53.823 C4.77146131,50.285 3.26746131,45.05 0.0374613088,43.584 C-1.16953869,35.752 27.1914613,2.029 27.1914613,2.029 C27.2104613,2.043 27.2284613,2.059 27.2474613,2.073 C30.3684613,4.258 34.9714613,3.059 37.0204613,0 L46.5004613,6.024 C44.4654613,9.383 45.6414613,13.559 48.7754613,15.752 C48.8034613,15.773 48.8344613,15.787 48.8634613,15.806 L22.6394613,58.386 C22.4564613,58.232 22.2664613,58.085 22.0684613,57.947 C18.9474613,55.762 13.7504613,56.584 11.7024613,59.643 L2.74046131,53.948 C2.76846131,53.905 2.80446131,53.868 2.82946131,53.823" id="Fill-55" fill="url(#linearGradient-18)" mask="url(#mask-17)"></path>
                    </g>
                    <path d="M178.825,72.324 C182.781,74.838 188.027,73.669 190.541,69.712 C193.055,65.756 191.886,60.51 187.93,57.996 C183.973,55.482 178.727,56.651 176.213,60.608 C173.699,64.564 174.868,69.81 178.825,72.324" id="Fill-58" fill="#FFFFFE"></path>
                    <path d="M188.294,70.161 L186.998,69.135 C186.219,70.091 185.099,70.832 184.296,71.146 L183.682,69.876 C184.485,69.535 185.366,68.955 186.106,68.021 C187.044,66.837 187.2,65.658 186.422,65.042 C185.672,64.448 184.694,64.731 183.307,65.641 C181.415,66.91 179.955,67.463 178.769,66.524 C177.636,65.627 177.556,63.963 178.567,62.267 L177.19,61.176 L178.008,60.142 L179.331,61.189 C180.151,60.21 180.911,59.7 181.525,59.4 L182.194,60.741 C181.753,60.961 181.058,61.39 180.212,62.457 C179.195,63.741 179.195,64.528 179.74,64.96 C180.45,65.522 181.293,65.185 182.933,64.123 C184.866,62.86 186.262,62.555 187.476,63.516 C188.553,64.369 188.918,66.15 187.79,68.052 L189.127,69.11 L188.294,70.161" id="Fill-59" fill="#005C5A"></path>
                    <polyline id="Fill-60" fill="#005C5A" points="189.215 68.998 188.262 70.201 177.065 61.333 178.018 60.13 189.215 68.998"></polyline>
                    <path d="M174.654,79.121 C175.6,79.722 176.854,79.443 177.456,78.497 C178.057,77.55 177.777,76.296 176.831,75.695 C175.885,75.094 174.63,75.373 174.029,76.319 C173.428,77.266 173.708,78.52 174.654,79.121" id="Fill-61" fill="#21837F"></path>
                    <path d="M171.357,84.309 C172.303,84.91 173.558,84.63 174.159,83.684 C174.76,82.738 174.481,81.484 173.534,80.882 C172.588,80.281 171.334,80.561 170.732,81.507 C170.131,82.453 170.411,83.707 171.357,84.309" id="Fill-62" fill="#21837F"></path>
                    <path d="M193.334,49.724 C194.28,50.325 195.534,50.045 196.135,49.1 C196.736,48.153 196.457,46.899 195.511,46.298 C194.565,45.696 193.311,45.976 192.709,46.922 C192.108,47.868 192.388,49.123 193.334,49.724" id="Fill-63" fill="#21837F"></path>
                    <path d="M190.106,54.804 C191.052,55.405 192.307,55.125 192.908,54.179 C193.509,53.233 193.229,51.979 192.283,51.377 C191.337,50.776 190.083,51.056 189.482,52.002 C188.88,52.948 189.16,54.202 190.106,54.804" id="Fill-64" fill="#21837F"></path>
                    <path d="M88.548,161.654 C88.548,161.654 141.525,154.092 157.931,154.82 C157.306,135.637 154.816,123.192 154.816,123.192 C154.816,123.192 88.339,123.393 85.25,128.16 C84.396,134.071 84.409,133.926 88.548,161.654" id="Fill-65" fill="#21837F"></path>
                    <g id="Group-68" transform="translate(89.281000, 126.758255)">
                        <mask id="mask-20" fill="white">
                            <use xlink:href="#path-19"></use>
                        </mask>
                        <g id="Clip-67"></g>
                        <path d="M0.154,12.9337453 C4.136,12.2817453 7.332,7.87074527 6.494,4.42274527 C11.917,-1.35525473 55.953,0.186745275 55.953,0.186745275 C55.954,0.210745275 55.952,0.234745275 55.953,0.258745275 C56.157,4.06174527 59.938,6.94774527 63.61,6.67574527 L64.711,17.8537453 C60.812,18.3217453 58.249,21.8227453 58.453,25.6417453 C58.455,25.6767453 58.463,25.7097453 58.465,25.7437453 L8.772,31.3447453 C8.781,31.1057453 8.779,30.8657453 8.766,30.6237453 C8.563,26.8207453 4.712,23.2347453 1.04,23.5077453 L0,12.9397453 C0.051,12.9367453 0.103,12.9417453 0.154,12.9337453" id="Fill-66" fill="url(#linearGradient-21)" mask="url(#mask-20)"></path>
                    </g>
                    <path d="M114.081,142.79 C114.54,147.456 118.694,150.865 123.359,150.405 C128.024,149.946 131.434,145.791 130.975,141.126 C130.515,136.461 126.361,133.052 121.695,133.511 C117.03,133.971 113.621,138.125 114.081,142.79" id="Fill-69" fill="#FFFFFE"></path>
                    <path d="M121.273,148.858 L121.371,147.208 C120.14,147.118 118.891,146.625 118.173,146.146 L118.862,144.915 C119.602,145.378 120.583,145.768 121.772,145.838 C123.279,145.928 124.335,145.381 124.394,144.391 C124.451,143.435 123.658,142.796 122.117,142.181 C119.993,141.357 118.703,140.479 118.793,138.968 C118.879,137.526 120.197,136.507 122.166,136.363 L122.27,134.608 L123.586,134.687 L123.486,136.372 C124.758,136.482 125.612,136.812 126.211,137.144 L125.495,138.46 C125.062,138.225 124.312,137.901 122.953,137.82 C121.317,137.723 120.673,138.173 120.631,138.868 C120.578,139.771 121.336,140.269 123.147,141.005 C125.29,141.865 126.34,142.833 126.249,144.379 C126.167,145.751 124.916,147.071 122.711,147.236 L122.61,148.938 L121.273,148.858" id="Fill-70" fill="#005C5A"></path>
                    <polyline id="Fill-71" fill="#005C5A" points="122.753 148.946 121.221 148.855 122.07 134.597 123.602 134.688 122.753 148.946"></polyline>
                    <path d="M106.157,143.696 C106.267,144.811 107.26,145.627 108.376,145.517 C109.492,145.407 110.307,144.414 110.197,143.298 C110.087,142.183 109.094,141.367 107.978,141.477 C106.862,141.587 106.047,142.581 106.157,143.696" id="Fill-72" fill="#21837F"></path>
                    <path d="M100.04,144.298 C100.15,145.414 101.144,146.229 102.259,146.12 C103.375,146.01 104.19,145.016 104.08,143.901 C103.97,142.785 102.977,141.97 101.861,142.08 C100.746,142.189 99.93,143.183 100.04,144.298" id="Fill-73" fill="#21837F"></path>
                    <path d="M140.819,140.282 C140.929,141.398 141.923,142.213 143.038,142.103 C144.154,141.993 144.969,141 144.859,139.884 C144.75,138.768 143.756,137.954 142.641,138.063 C141.525,138.173 140.71,139.166 140.819,140.282" id="Fill-74" fill="#21837F"></path>
                    <path d="M134.83,140.872 C134.94,141.988 135.933,142.803 137.049,142.693 C138.165,142.583 138.98,141.59 138.87,140.474 C138.76,139.358 137.767,138.543 136.651,138.653 C135.536,138.763 134.72,139.756 134.83,140.872" id="Fill-75" fill="#21837F"></path>
                    <path d="M246.676,99.991 C246.676,99.991 293.123,126.571 305.62,137.225 C316.912,121.704 322.592,110.356 322.592,110.356 C322.592,110.356 270.016,69.674 264.65,71.537 C260.345,75.676 260.445,75.57 246.676,99.991" id="Fill-76" fill="#21837F"></path>
                    <g id="Group-79" transform="translate(255.072000, 80.349182)">
                        <mask id="mask-23" fill="white">
                            <use xlink:href="#path-22"></use>
                        </mask>
                        <g id="Clip-78"></g>
                        <path d="M5.796,2.85781769 C9.339,4.79081769 14.57,3.27281769 16.027,0.0388176898 C23.856,-1.18818231 57.654,27.0808177 57.654,27.0808177 C57.64,27.1008177 57.625,27.1178177 57.611,27.1378177 C55.434,30.2638177 56.645,34.8638177 59.71,36.9048177 L53.712,46.4008177 C50.347,44.3748177 46.175,45.5628177 43.989,48.7018177 C43.97,48.7298177 43.955,48.7608177 43.935,48.7898177 L1.285,22.6798177 C1.439,22.4968177 1.585,22.3058177 1.723,22.1078177 C3.9,18.9818177 3.064,13.7868177 5.68434189e-14,11.7458177 L5.671,2.76881769 C5.714,2.79681769 5.751,2.83381769 5.796,2.85781769" id="Fill-77" fill="url(#linearGradient-24)" mask="url(#mask-23)"></path>
                    </g>
                    <path d="M278.411,100.793 C275.907,104.756 277.09,109.999 281.054,112.502 C285.017,115.006 290.259,113.823 292.763,109.859 C295.267,105.896 294.084,100.654 290.12,98.15 C286.157,95.646 280.915,96.83 278.411,100.793" id="Fill-80" fill="#FFFFFE"></path>
                    <path d="M280.358,109.999 L281.449,108.758 C280.534,107.93 279.85,106.774 279.579,105.956 L280.878,105.408 C281.178,106.227 281.712,107.137 282.607,107.923 C283.742,108.92 284.911,109.137 285.565,108.392 C286.197,107.673 285.964,106.682 285.127,105.25 C283.957,103.295 283.478,101.809 284.477,100.672 C285.431,99.587 287.097,99.593 288.739,100.689 L289.899,99.369 L290.89,100.24 L289.776,101.507 C290.711,102.376 291.183,103.161 291.451,103.79 L290.078,104.389 C289.88,103.937 289.487,103.221 288.464,102.322 C287.234,101.241 286.449,101.2 285.99,101.723 C285.392,102.403 285.684,103.262 286.662,104.954 C287.825,106.95 288.058,108.359 287.036,109.522 C286.128,110.555 284.331,110.828 282.49,109.603 L281.364,110.884 L280.358,109.999" id="Fill-81" fill="#005C5A"></path>
                    <polyline id="Fill-82" fill="#005C5A" points="281.471 110.978 280.319 109.965 289.749 99.237 290.901 100.249 281.471 110.978"></polyline>
                    <path d="M271.602,96.64 C271.003,97.588 271.287,98.841 272.235,99.44 C273.182,100.039 274.436,99.756 275.035,98.808 C275.633,97.86 275.35,96.607 274.403,96.008 C273.455,95.41 272.202,95.692 271.602,96.64" id="Fill-83" fill="#21837F"></path>
                    <path d="M266.406,93.357 C265.807,94.305 266.09,95.559 267.038,96.158 C267.986,96.756 269.24,96.473 269.838,95.526 C270.437,94.578 270.154,93.324 269.206,92.726 C268.258,92.127 267.004,92.41 266.406,93.357" id="Fill-84" fill="#21837F"></path>
                    <path d="M301.049,115.241 C300.451,116.189 300.734,117.443 301.681,118.041 C302.629,118.64 303.883,118.357 304.482,117.41 C305.081,116.461 304.797,115.208 303.849,114.609 C302.902,114.011 301.648,114.293 301.049,115.241" id="Fill-85" fill="#21837F"></path>
                    <path d="M295.961,112.027 C295.363,112.975 295.646,114.228 296.593,114.827 C297.542,115.426 298.794,115.143 299.393,114.195 C299.992,113.248 299.71,111.994 298.761,111.395 C297.814,110.796 296.56,111.08 295.961,112.027" id="Fill-86" fill="#21837F"></path>
                    <polyline id="Fill-87" fill="#A0D2BB" points="232.439 12.993 228.901 17.89 234.786 17.482 255.179 14.397 232.439 12.993"></polyline>
                    <polyline id="Fill-88" fill="#5BBDB7" points="228.901 17.89 238.647 18.8 236.47 17.228 228.901 17.89"></polyline>
                    <g id="Group-91" transform="translate(231.560000, 7.545000)">
                        <mask id="mask-26" fill="white">
                            <use xlink:href="#path-25"></use>
                        </mask>
                        <g id="Clip-90"></g>
                        <polyline id="Fill-89" fill="url(#linearGradient-27)" mask="url(#mask-26)" points="0.879 5.448 0 0 23.619 6.852 0.879 5.448"></polyline>
                    </g>
                    <g id="Group-94" transform="translate(230.004359, 14.397000)" fill="#5BBDB7">
                        <path d="M25.1746414,0 L6.50964136,11.01 L4.78164136,3.085 L25.1746414,0 Z M2.93664136,7.6 C3.02964136,7.836 2.91464136,8.103 2.67764136,8.196 C1.99864136,8.464 1.33464136,8.801 0.704641356,9.197 C0.540641356,9.3 0.337641356,9.287 0.190641356,9.181 C0.143641356,9.147 0.102641356,9.104 0.0706413556,9.053 C-0.0643586444,8.838 -0.000358644373,8.555 0.215641356,8.419 C0.893641356,7.993 1.60864136,7.63 2.34064136,7.342 C2.57764136,7.247 2.84364136,7.363 2.93664136,7.6 Z" id="Fill-99"></path>
                    </g>
                    <polyline id="Fill-92" fill="url(#linearGradient-28)" points="255.179 14.397 234.786 17.482 236.514 25.407 255.179 14.397"></polyline>
                    <path d="M239.831,37.377 C239.75,37.319 239.687,37.234 239.658,37.131 C239.588,36.887 239.73,36.632 239.974,36.563 C241.558,36.113 243.327,36.221 244.829,36.861 C245.06,36.961 245.17,37.23 245.071,37.464 C244.972,37.697 244.701,37.806 244.468,37.707 C243.176,37.156 241.59,37.059 240.226,37.447 C240.085,37.487 239.94,37.456 239.831,37.377 Z M246.914,43.768 C246.744,43.645 246.675,43.418 246.76,43.217 C247.201,42.173 247.259,41.156 246.931,40.193 C246.815,39.854 246.651,39.533 246.442,39.239 C246.296,39.032 246.345,38.745 246.552,38.599 C246.759,38.452 247.047,38.5 247.192,38.708 C247.451,39.074 247.656,39.474 247.8,39.896 C248.198,41.062 248.13,42.335 247.607,43.575 C247.508,43.809 247.238,43.918 247.004,43.819 C246.972,43.805 246.941,43.788 246.914,43.768 Z M225.246,29.005 C225.063,28.873 225.001,28.623 225.109,28.418 C225.449,27.775 225.835,27.152 226.257,26.568 C226.77,25.858 227.342,25.195 227.96,24.597 C228.141,24.419 228.432,24.422 228.609,24.606 C228.786,24.789 228.781,25.08 228.599,25.256 C228.021,25.817 227.483,26.44 227.003,27.106 C226.605,27.656 226.242,28.242 225.922,28.847 C225.804,29.072 225.525,29.158 225.301,29.039 C225.281,29.029 225.263,29.017 225.246,29.005 Z M233.882,41.66 C233.87,41.65 233.857,41.641 233.846,41.63 C233.656,41.461 233.64,41.171 233.808,40.981 C235.076,39.558 236.197,38.547 237.337,37.802 C237.55,37.664 237.835,37.724 237.974,37.935 C238.112,38.147 238.053,38.432 237.84,38.571 C236.771,39.271 235.707,40.231 234.495,41.593 C234.336,41.77 234.071,41.796 233.882,41.66 Z M241.416,48.437 C241.34,48.382 241.28,48.304 241.249,48.208 C241.169,47.967 241.3,47.708 241.542,47.628 C241.909,47.508 242.27,47.367 242.616,47.212 C243.6,46.772 244.523,46.13 245.287,45.355 C245.465,45.174 245.757,45.173 245.937,45.351 C246.117,45.529 246.119,45.82 245.941,46 C245.098,46.855 244.078,47.564 242.992,48.051 C242.617,48.219 242.226,48.37 241.829,48.501 C241.684,48.549 241.531,48.52 241.416,48.437 Z M223.506,36.146 C223.394,36.065 223.318,35.933 223.316,35.783 C223.287,34.209 223.52,32.622 224.008,31.063 C224.084,30.821 224.341,30.686 224.584,30.762 C224.826,30.837 224.961,31.096 224.885,31.338 C224.426,32.802 224.208,34.291 224.235,35.766 C224.239,36.019 224.037,36.229 223.784,36.233 C223.68,36.235 223.584,36.203 223.506,36.146 Z M234.088,48.644 C233.941,48.538 233.865,48.349 233.911,48.162 C233.972,47.916 234.22,47.765 234.467,47.825 C235.961,48.191 237.459,48.308 238.922,48.171 C239.174,48.146 239.398,48.332 239.422,48.586 C239.446,48.838 239.26,49.062 239.007,49.086 C237.442,49.232 235.841,49.108 234.248,48.718 C234.189,48.703 234.135,48.678 234.088,48.644 Z M225.76,43.104 C225.72,43.076 225.684,43.04 225.654,42.998 C225.074,42.179 224.595,41.304 224.231,40.395 C224.004,39.829 223.817,39.238 223.674,38.638 C223.615,38.392 223.768,38.143 224.014,38.085 C224.262,38.025 224.509,38.179 224.568,38.425 C224.701,38.981 224.875,39.529 225.085,40.054 C225.421,40.895 225.865,41.707 226.404,42.466 C226.551,42.673 226.502,42.96 226.295,43.107 C226.13,43.224 225.915,43.217 225.76,43.104 Z M229.279,47.484 C229.075,47.337 229.027,47.054 229.171,46.848 C229.236,46.756 229.301,46.664 229.367,46.573 C228.726,46.145 228.118,45.668 227.558,45.154 C227.372,44.982 227.359,44.691 227.531,44.504 C227.703,44.318 227.993,44.303 228.18,44.477 C228.713,44.968 229.294,45.422 229.906,45.828 C230.54,44.968 231.229,44.08 232.001,43.129 C232.161,42.931 232.453,42.903 232.647,43.061 C232.844,43.221 232.874,43.51 232.714,43.707 C231.97,44.625 231.303,45.483 230.69,46.312 C231.089,46.541 231.499,46.752 231.919,46.942 C232.153,47.051 232.253,47.32 232.148,47.55 C232.043,47.782 231.77,47.884 231.539,47.779 C231.063,47.563 230.598,47.322 230.148,47.06 C230.073,47.165 229.998,47.27 229.924,47.376 C229.778,47.583 229.491,47.634 229.284,47.488 C229.282,47.487 229.28,47.485 229.279,47.484 Z M225.573,53.909 C225.401,53.785 225.333,53.554 225.422,53.352 C226.015,52.002 226.755,50.604 227.623,49.195 C227.756,48.979 228.039,48.912 228.255,49.045 C228.464,49.17 228.539,49.461 228.405,49.678 C227.56,51.05 226.839,52.41 226.263,53.722 C226.161,53.954 225.89,54.06 225.657,53.958 C225.627,53.944 225.599,53.928 225.573,53.909 Z M223.659,61.05 C223.533,60.958 223.456,60.806 223.47,60.639 L223.491,60.417 C223.64,58.961 223.952,57.476 224.419,56 C224.496,55.758 224.754,55.624 224.996,55.701 C225.239,55.775 225.372,56.036 225.295,56.277 C224.847,57.693 224.547,59.118 224.405,60.509 L224.386,60.716 C224.365,60.969 224.142,61.156 223.889,61.135 C223.804,61.128 223.725,61.098 223.659,61.05 Z M224.69,68.344 C224.62,68.293 224.563,68.222 224.53,68.134 C223.966,66.644 223.61,65.085 223.473,63.499 C223.45,63.246 223.638,63.023 223.891,63.001 C224.143,62.979 224.366,63.166 224.388,63.419 C224.519,64.921 224.856,66.399 225.389,67.809 C225.479,68.047 225.359,68.311 225.122,68.401 C224.972,68.458 224.811,68.4310219 224.69,68.344 Z M228.876,74.382 C228.868,74.376 228.86,74.37 228.853,74.364 C227.66,73.383 226.622,72.155 225.767,70.716 C225.638,70.498 225.71,70.216 225.928,70.086 C226.147,69.956 226.428,70.031 226.558,70.247 C227.358,71.594 228.327,72.741 229.437,73.654 C229.632,73.816 229.661,74.105 229.5,74.301 C229.345,74.489 229.071,74.522 228.876,74.382 L228.876,74.382 Z" id="Fill-96" fill="#5BBDB7"></path>
                    <path d="M231.264,75.892 C231.089,75.766 231.023,75.529 231.116,75.327 C231.223,75.096 231.496,74.996 231.726,75.102 C232.392,75.41 233.091,75.643 233.804,75.796 C234.053,75.848 234.211,76.093 234.158,76.34 C234.105,76.589 233.861,76.747 233.613,76.694 C232.833,76.528 232.068,76.273 231.34,75.937 C231.313,75.924 231.288,75.909 231.264,75.892" id="Fill-97" fill="#5BBDB7"></path>
                    <g id="Group-100" transform="translate(81.386000, 100.570000)">
                        <mask id="mask-30" fill="white">
                            <use xlink:href="#path-29"></use>
                        </mask>
                        <g id="Clip-99"></g>
                        <polyline id="Fill-98" fill="url(#linearGradient-31)" mask="url(#mask-30)" points="1.42108547e-14 10.403 15.906 1.624 24.026 0 30.162 0.902 1.42108547e-14 10.403"></polyline>
                    </g>
                    <polyline id="Fill-101" fill="#A0D2BB" points="81.386 110.973 111.17 103.317 111.548 101.472"></polyline>
                    <polyline id="Fill-102" fill="#5BBDB7" points="112.021 108.427 111.982 108.489 110.732 113.113 81.461 110.975 112.021 108.427"></polyline>
                    <g id="Group-105" transform="translate(81.580000, 102.268000)">
                        <mask id="mask-33" fill="white">
                            <use xlink:href="#path-32"></use>
                        </mask>
                        <g id="Clip-104"></g>
                        <polyline id="Fill-103" fill="url(#linearGradient-34)" mask="url(#mask-33)" points="36.128 3.449 31.879 0 -1.42108547e-14 8.655 27.442 7.84 36.128 3.449"></polyline>
                    </g>
                    <path d="M184.704,164.728 C183.731,164.385 182.767,163.967 181.838,163.484 C181.626,163.374 181.366,163.457 181.255,163.669 C181.145,163.881 181.228,164.142 181.44,164.253 C182.403,164.753 183.405,165.188 184.417,165.544 C184.783,165.674 185.151,165.793 185.522,165.904 C185.657,165.946 185.797,165.916 185.903,165.838 C185.976,165.784 186.033,165.707 186.06,165.615 C186.129,165.386 185.999,165.144 185.771,165.076 C185.413,164.968 185.058,164.852 184.704,164.728" id="Fill-106" fill="#5BBDB7"></path>
                    <path d="M126.411,102.492 C125.061,102.665 123.655,102.888 122.114,103.172 C121.879,103.216 121.725,103.441 121.767,103.676 C121.81,103.912 122.036,104.067 122.271,104.023 C123.796,103.742 125.187,103.522 126.521,103.351 C126.597,103.341 126.666,103.312 126.724,103.269 C126.845,103.179 126.916,103.027 126.896,102.867 C126.865,102.629 126.648,102.461 126.411,102.492" id="Fill-107" fill="#5BBDB7"></path>
                    <path d="M133.628,102.823 C133.733,102.746 133.802,102.621 133.804004,102.479 C133.805,102.24 133.613,102.045 133.374,102.043 C131.986,102.03 130.518,102.089 129.012,102.215 C128.773,102.234 128.596,102.444 128.617,102.682 C128.637,102.92 128.846,103.098 129.085,103.077 C130.564,102.953 132.005,102.896 133.367,102.908 C133.464,102.909 133.555,102.878 133.628,102.823" id="Fill-108" fill="#5BBDB7"></path>
                    <path d="M176.355,159.511 C176.184,159.344 175.91,159.342 175.743,159.519 C175.576,159.69 175.579,159.964 175.751,160.131 C176.799,161.155 177.948,162.089 179.166,162.904 C179.321,163.009 179.522,162.999 179.664,162.893 C179.703,162.864 179.738,162.829 179.766,162.786 C179.899,162.588 179.846,162.319 179.648,162.186 C178.475,161.399 177.367,160.499 176.355,159.511" id="Fill-109" fill="#5BBDB7"></path>
                    <path d="M174.571,158.244 C174.756,158.092 174.782,157.82 174.631,157.635 C174.386,157.336 174.148,157.032 173.919,156.722 C173.304,155.892 172.745,155.017 172.257,154.123 C172.143,153.913 171.88,153.835 171.67,153.949 C171.466,154.063 171.382,154.327 171.497,154.537 C172.003,155.466 172.585,156.374 173.224,157.237 C173.461,157.559 173.708,157.874 173.962,158.184 C174.108,158.363 174.369,158.394 174.554,158.257 C174.56,158.253 174.565,158.248 174.571,158.244" id="Fill-110" fill="#5BBDB7"></path>
                    <path d="M170.929,152.386 C170.962,152.372 170.994,152.354 171.022,152.333 C171.177,152.218 171.241,152.008 171.164,151.821 C170.65,150.573 170.219,149.248 169.847,147.77 C169.789,147.539 169.553,147.398 169.322,147.456 C169.092,147.515 168.95,147.75 169.008,147.981 C169.39,149.5 169.834,150.863 170.364,152.15 C170.454,152.371 170.708,152.477 170.929,152.386" id="Fill-111" fill="#5BBDB7"></path>
                    <path d="M159.455,115.463 C159.815,115.903 160.165,116.352 160.503,116.808 C161.013,117.497 161.5,118.21 161.951,118.928 C162.078,119.13 162.345,119.191 162.547,119.064 C162.557,119.059 162.566,119.052 162.575,119.045 C162.755,118.913 162.805,118.661 162.684,118.468 C162.222,117.731 161.722,116.999 161.199,116.293 C160.852,115.825 160.494,115.365 160.124,114.914 C159.972,114.73 159.713,114.679 159.514,114.854 C159.33,115.006 159.303,115.278 159.455,115.463" id="Fill-112" fill="#5BBDB7"></path>
                    <path d="M163.226,121.149 C163.888,122.416 164.465,123.73 164.941,125.054 C165.022,125.279 165.27,125.395 165.495,125.315 C165.536,125.3 165.573,125.28 165.606,125.255 C165.755,125.145 165.822,124.945 165.755,124.762 C165.266,123.4 164.673,122.05 163.994,120.748 C163.883,120.537 163.621,120.455 163.41,120.565 C163.201,120.674 163.115,120.937 163.226,121.149" id="Fill-113" fill="#5BBDB7"></path>
                    <path d="M154.623,110.639 C155.724,111.542 156.778,112.52 157.755,113.544 C157.907,113.705 158.153,113.722 158.325,113.594 C158.34,113.583 158.354,113.571 158.367,113.559 C158.54,113.394 158.546,113.12 158.381,112.947 C157.38,111.897 156.3,110.895 155.172,109.97 C154.988,109.818 154.714,109.843 154.563,110.03 C154.412,110.215 154.439,110.487 154.623,110.639" id="Fill-114" fill="#5BBDB7"></path>
                    <path d="M146.645,105.715 C146.792,105.78 146.957,105.756 147.078,105.666 C147.136,105.623 147.184,105.565 147.215,105.494 C147.313,105.275 147.213,105.019 146.995,104.923 C145.654,104.33 144.271,103.821 142.885,103.411 C142.654,103.343 142.415,103.474 142.347,103.702 C142.279,103.932 142.41,104.172 142.639,104.24 C143.99,104.641 145.338,105.137 146.645,105.715" id="Fill-115" fill="#5BBDB7"></path>
                    <path d="M167.966,138.912 C168.044,138.902 168.115,138.873 168.174,138.829 C168.294,138.741 168.365,138.591 168.346,138.433 L168.285,137.888 C168.142,136.634 167.999,135.378 167.833,134.127 C167.801,133.89 167.584,133.724 167.347,133.755 C167.11,133.788 166.944,134.003 166.975,134.241 C167.14,135.487 167.282,136.737 167.425,137.986 L167.487,138.53 C167.514,138.768 167.728,138.938 167.966,138.912" id="Fill-116" fill="#5BBDB7"></path>
                    <path d="M152.583,109.084 C152.739,109.195 152.943,109.187 153.09,109.079 C153.126,109.052 153.158,109.019 153.186,108.98 C153.323,108.785 153.277,108.515 153.082,108.377 C151.888,107.536 150.635,106.762 149.357,106.077 C149.145,105.965 148.885,106.045 148.771,106.254 C148.658,106.465 148.737,106.727 148.948,106.84 C150.195,107.508 151.418,108.263 152.583,109.084" id="Fill-117" fill="#5BBDB7"></path>
                    <path d="M168.169,140.631 C167.93,140.663 167.764,140.876 167.794,141.115 C168.006,142.8 168.215,144.168 168.45,145.419 C168.494,145.654 168.72,145.809 168.956,145.764 C169.022,145.751 169.082,145.725 169.133,145.687 C169.262,145.591 169.332,145.428 169.301,145.259 C169.069,144.026 168.862,142.675 168.652,141.006 C168.622,140.769 168.405,140.602 168.169,140.631" id="Fill-118" fill="#5BBDB7"></path>
                    <path d="M188.249,165.685 C188.015,165.64 187.787,165.792 187.741,166.027 C187.694,166.261 187.847,166.488 188.082,166.534 C189.431,166.801 190.851,166.984 192.422,167.095 C192.53,167.102 192.63,167.07 192.711,167.011 C192.808,166.938 192.875,166.825 192.885,166.694 C192.901,166.455 192.722,166.248 192.483,166.231 C190.948,166.123 189.563,165.943 188.249,165.685" id="Fill-119" fill="#5BBDB7"></path>
                    <path d="M166.009,126.968 C165.78,127.031 165.641,127.267 165.704,127.498 C166.045,128.771 166.337,130.142 166.596,131.687 C166.635,131.923 166.859,132.082 167.094,132.043 C167.164,132.031 167.227,132.003 167.28,131.964 C167.407,131.87 167.478,131.71 167.45,131.544 C167.187,129.971 166.888,128.574 166.539,127.274 C166.478,127.043 166.24,126.906 166.009,126.968" id="Fill-120" fill="#5BBDB7"></path>
                    <path d="M137.514,102.299 C137.008,102.239 136.502,102.191 135.996,102.152 C135.759,102.135 135.55,102.312 135.532,102.551 C135.514,102.789 135.692,102.998 135.931,103.016 C136.425,103.052 136.918,103.1 137.411,103.159 C138.326,103.267 139.249,103.419 140.156,103.611 C140.282,103.638 140.407,103.607 140.503,103.536 C140.585,103.475 140.646,103.385 140.669,103.278 C140.718,103.044 140.569,102.814 140.335,102.765 C139.403,102.567 138.453,102.411 137.514,102.299" id="Fill-121" fill="#5BBDB7"></path>
                    <path d="M8.367,340.816 C8.367,340.816 8.382,344.422 15.626,346.587 C17.112,347.032 16.629,347.471 16.908,348.096 C14.53,348.096 8.572,348.096 8.572,348.096 L5.308,344.426 L4.292,345.298 L1.939,342.986 C1.939,342.986 3.038,339.64 4.83,339.611 C6.309,340.115 8.367,340.816 8.367,340.816" id="Fill-122" fill="#1B2441"></path>
                    <path d="M9.721,337.693 L8.367,340.816 C7.133,341.167 5.809,340.765 4.98,339.787 L4.83,339.611 L5.924,336.399 L9.721,337.693" id="Fill-123" fill="#C59C6E"></path>
                    <path d="M45.075,342.248 C45.075,342.248 47.675,344.659 53.602,346.168 C54.907,346.501 56.314,346.057 56.314,348.209 C53.546,348.209 49.121,348.209 49.121,348.209 L43.139,347.175 L43.139,348.209 L39.907,348.209 C39.907,348.209 39.008,342.925 40.895,342.248 C42.643,342.248 45.075,342.248 45.075,342.248" id="Fill-124" fill="#1B2441"></path>
                    <path d="M44.44,338.452 L45.075,342.248 C43.896,343.065 42.348,343.117 41.117,342.38 L40.895,342.248 L41.217,338.452 L44.44,338.452" id="Fill-125" fill="#C59C6E"></path>
                    <path d="M31.447,260.57 C31.447,260.57 24.659,274.146 22.075,292.827 C21.518,296.853 20.065,300.731 17.732,304.059 C11.108,313.505 5.231,337.158 5.231,337.158 L9.793,338.452 L42.208,286.468 L41.988,261.383 L31.447,260.57" id="Fill-126" fill="#1B2441"></path>
                    <path d="M35.035,260.859 C35.035,260.859 32.244,277.876 36.744,294.614 C37.561,297.653 37.666,300.823 37.152,303.927 C35.223,315.583 40.643,339.578 40.643,339.578 L44.959,339.578 L52.465,262.259 L35.035,260.859" id="Fill-127" fill="#13374D"></path>
                    <path d="M29.946,224.024 C31.074,219.638 44.021,203.707 44.021,203.707 L54.155,202.581 C54.155,202.581 53.508,205.032 47.121,206.147 C40.734,207.262 35.743,229.789 35.743,229.789 C35.743,229.789 28.818,228.41 29.946,224.024 Z" id="Fill-128" fill="#C59C6E"></path>
                    <path d="M45.81,206.685 C45.199,205.706 44.61,204.712 44.012,203.717 C44.014,203.716 44.021,203.707 44.021,203.707 L54.155,202.581 C54.155,202.581 53.508,205.032 47.121,206.147 C46.677,206.225 46.24,206.415 45.81,206.685" id="Fill-129" fill="#C59C6E"></path>
                    <polyline id="Fill-130" fill="url(#linearGradient-35)" points="45.995 214.747 45.357 222.098 38.249 219.845 40.08 213.987 45.995 214.747"></polyline>
                    <path d="M46.085,202.018 C46.085,202.018 51.527,210.212 50.026,215.003 C48.337,217.407 41.393,214.065 41.393,214.065 L41.393,202.956 L46.085,202.018" id="Fill-131" fill="#D9B183"></path>
                    <path d="M47.121,202.26 C47.121,202.26 45.334,202.526 44.021,203.707 C42.707,204.889 43.833,209.638 43.833,209.638 L43.89,211.313 C43.962,213.39 42.297,215.113 40.218,215.113 L40.08,215.113 C40.08,215.113 31.071,206.147 34.825,202.018 C41.393,196.013 47.121,202.26 47.121,202.26" id="Fill-132" fill="#1B2441"></path>
                    <path d="M45.335,209.45 C45.466,208.869 44.999,208.173 44.292,207.894 C43.586,207.616 42.906,207.861 42.775,208.441 C42.645,209.022 43.111,209.718 43.818,209.997 C44.525,210.275 45.204,210.03 45.335,209.45" id="Fill-133" fill="#DBB37A"></path>
                    <path d="M48.9,200.517 C48.9,201.761 47.524,202.769 45.827,202.769 C44.13,202.769 38.249,201.761 38.249,200.517 C38.249,199.273 44.13,198.265 45.827,198.265 C47.524,198.265 48.9,199.273 48.9,200.517" id="Fill-134" fill="#1B2441"></path>
                    <path d="M31.447,260.57 C31.447,260.57 24.237,215.495 42.52,219.168 C60.366,222.755 52.465,262.259 52.465,262.259 L31.447,260.57" id="Fill-135" fill="#21837F"></path>
                    <path d="M40.827,222.971 C40.827,222.971 29.122,237.398 30.899,241.43 C32.676,245.462 47.835,261.74 48.696,262.652 C50.021,264.545 47.768,271.833 52.271,269.144 C56.775,266.455 53.126,261.353 52.097,260.182 L40.786,241.622 L47.518,232.552 L40.827,222.971" id="Fill-136" fill="#D9B183"></path>
                    <path d="M37.135,227.532 L44.859,236.279 L47.988,233.096 C50.009,231.04 50.862,228.022 49.954,225.287 C49.649,224.369 49.155,223.469 48.38,222.704 C48.349,222.672 48.317,222.642 48.287,222.613 C46.095,220.505 42.534,220.831 40.627,223.198 L37.135,227.532" id="Fill-137" fill="#5BBDB7"></path>
                    <path d="M138.031,297.543 C134.813,320.559 138.335,344.405 138.335,344.198 C138.335,343.99 140.9,344.198 140.9,344.198 C140.9,344.198 144.457,316.221 145.291,306.882 C146.125,297.543 145.291,296.92 145.291,296.92 C145.291,296.92 141.249,274.527 138.031,297.543" id="Fill-138" fill="#EC967C"></path>
                    <polyline id="Fill-139" fill="#A0D2BB" points="137.185 238.153 129.315 243.17 125.994 236.252 136.163 224.598 137.185 238.153"></polyline>
                    <polyline id="Fill-140" fill="#F0AB85" points="178.723 192.064 169.088 217.242 162.935 212.663 176.683 189.485 178.723 192.064"></polyline>
                    <path d="M179.282,183.517 C178.523,184.132 178.019,185.006 177.864,185.971 L176.683,189.485 L177.057,190.146 L178.723,192.064 C178.82,191.305 179.38,190.749 179.38,190.749 L182.002,187.814 C182.002,187.814 186.302,182.8 182.289,181.099 C184.644,176.44 182.958,176.56 182.958,176.56 L179.282,183.517" id="Fill-141" fill="#F0AB85"></path>
                    <path d="M179.886,184.435 C179.886,184.435 179.018,183.617 179.79,181.674 C180.563,179.73 179.394,179.866 179.394,179.866 C179.394,179.866 176.177,187.442 177.21,188.305 C178.243,189.167 179.886,184.435 179.886,184.435" id="Fill-142" fill="#F0AB85"></path>
                    <path d="M151.106,222.416 L153.99,222.642 L163.794,211.214 L169.088,217.242 C169.088,217.242 164.232,226.414 157.123,235.907 C156.719,237.836 154.613,257.262 154.613,257.262 L137.616,257.262 C137.616,257.262 140.323,243.008 135.541,235.077 C130.758,227.144 151.106,222.416 151.106,222.416" id="Fill-143" fill="#A0D2BB"></path>
                    <path d="M145.534,297.543 C142.316,320.559 145.838,344.405 145.838,344.198 C145.838,343.99 148.404,344.198 148.404,344.198 C148.404,344.198 151.96,316.221 152.794,306.882 C153.628,297.543 152.794,296.92 152.794,296.92 C152.794,296.92 148.752,274.527 145.534,297.543" id="Fill-144" fill="#F0AB85"></path>
                    <path d="M151.724,204.642 L141.932,208.069 L142.898,215.377 C142.911,215.481 142.939,215.581 142.958,215.682 C143.147,215.716 143.335,215.751 143.522,215.797 C143.552,215.805 143.582,215.815 143.612,215.824 C143.642,215.831 143.671,215.834 143.701,215.841 C145.96,216.397 147.56,218.263 148.278,220.423 C149.67,220.657 151.108,220.659 152.516,220.37 C153.475,220.171 154.342,219.871 154.742,219.41 C156.808,214.902 151.724,204.642 151.724,204.642" id="Fill-145" fill="#F0AB85"></path>
                    <path d="M151.977,210.795 C151.093,212.56 150.933,214.639 151.776,216.423 C153.107,219.24 152.99,222.402 152.104,224.137 C151.5,225.32 149.919,226.501 148.517,227.375 C147.044,228.293 146.076,229.836 145.918,231.565 C145.7,233.943 145.473,236.861 143.437,237.563 C137.528,239.598 135.361,239.401 134.573,234.477 C134.372,233.219 134.441,231.372 135.083,229.652 C135.864,227.559 135.796,225.231 134.9,223.184 C134.309,221.834 133.785,220.348 133.785,219.324 C133.785,218.207 134.807,216.638 135.88,215.298 C137.22,213.627 137.81,211.5 137.62,209.367 C137.43,207.235 137.728,204.51 139.891,202.664 C143.929,199.219 152.891,204.642 152.891,204.642 C152.891,204.642 153.752,207.253 151.977,210.795" id="Fill-146" fill="#1B2441"></path>
                    <path d="M125.994,236.252 L122.214,240.165 C119.703,242.765 118.926,246.384 121.944,248.373 L134.295,258.183 L133.16,260.309 C132.203,262.1 132.38,264.284 133.612,265.897 L134.918,267.607 L137.808,257.688 L128.852,246.506 C127.893,245.506 128.119,243.872 129.315,243.17 L125.994,236.252" id="Fill-147" fill="#F0AB85"></path>
                    <path d="M154.613,257.262 C154.613,257.262 157.104,263.721 157.104,270.264 C157.104,273.858 153.99,300.967 153.99,300.967 C153.99,300.967 140.803,300.967 137.808,300.967 C138.904,280.947 132.835,278.492 132.835,269.838 C132.835,263.734 137.616,257.262 137.616,257.262 L154.613,257.262" id="Fill-148" fill="#13374D"></path>
                    <path d="M138.334,341.186 C138.334,341.186 136.919,342.298 137.178,343.716 C137.438,345.134 137.805,348.455 137.805,348.455 L139.26,348.455 L139.215,345.358 C139.219,345.155 142.336,348.455 142.863,348.455 L150.562,348.455 C150.562,348.455 151.073,346.366 146.553,345.694 C142.032,345.023 138.334,341.186 138.334,341.186" id="Fill-149" fill="#1B2441"></path>
                    <path d="M146.556,341.186 C146.556,341.186 145.141,342.298 145.4,343.716 C145.66,345.134 146.027,348.455 146.027,348.455 L147.482,348.455 L147.437,345.358 C147.441,345.155 150.557,348.455 151.085,348.455 L158.784,348.455 C158.784,348.455 159.295,346.366 154.774,345.694 C150.253,345.023 146.556,341.186 146.556,341.186" id="Fill-150" fill="#17324A"></path>
                    <path d="M95.875,343.945 L107.829,343.93 C109.416,344.096 111.19,344.547 111.487,345.923 C111.487,345.923 111.695,346.836 111.66,347.746 C111.237,348.242 95.386,347.679 95.386,347.679 L95.317,347.622 C93.638,345.601 95.875,343.945 95.875,343.945" id="Fill-151" fill="#17324A"></path>
                    <polyline id="Fill-152" fill="#1B2441" points="111.66 347.746 95.386 347.679 95.527 348.312 111.683 348.312 111.66 347.746"></polyline>
                    <polyline id="Fill-153" fill="#FFFFFE" points="100.607 343.93 101.683 343.938 101.348 345.403 100.304 345.403 100.607 343.93"></polyline>
                    <polyline id="Fill-154" fill="#FFFFFE" points="102.915 343.93 103.991 343.938 103.656 345.403 102.612 345.403 102.915 343.93"></polyline>
                    <path d="M95.055,339.962 L95.875,343.945 C96.835,344.43 98.081,344.459 99.08,344.02 L99.261,343.941 L99.837,339.962 L95.055,339.962" id="Fill-155" fill="#F0AB85"></path>
                    <path d="M67.936,343.945 L79.89,343.93 C81.477,344.096 83.252,344.547 83.548,345.923 C83.548,345.923 83.756,346.836 83.721,347.746 C83.298,348.242 67.447,347.679 67.447,347.679 L67.378,347.622 C65.699,345.601 67.936,343.945 67.936,343.945" id="Fill-156" fill="#1B2441"></path>
                    <polyline id="Fill-157" fill="#1B2441" points="83.721 347.746 67.447 347.679 67.588 348.312 83.744 348.312 83.721 347.746"></polyline>
                    <polyline id="Fill-158" fill="#FFFFFE" points="72.668 343.93 73.744 343.938 73.409 345.403 72.365 345.403 72.668 343.93"></polyline>
                    <polyline id="Fill-159" fill="#FFFFFE" points="74.976 343.93 76.052 343.938 75.717 345.403 74.673 345.403 74.976 343.93"></polyline>
                    <path d="M68.455,339.962 L67.936,343.945 C68.896,344.43 70.142,344.459 71.141,344.02 L71.322,343.941 L73.237,339.962 L68.455,339.962" id="Fill-160" fill="#F0AB85"></path>
                    <path d="M86.294,206.059 L76.45,212.478 L79.488,220.258 C79.531,220.368 79.588,220.47 79.637,220.577 C79.854,220.563 80.07,220.55 80.289,220.55 C80.324,220.55 80.359,220.554 80.395,220.555 C80.429,220.554 80.463,220.55 80.498,220.55 C83.133,220.55 85.398,222.171 86.773,224.354 C88.366,224.234 89.95,223.847 91.42,223.148 C92.421,222.671 93.294,222.105 93.609,221.49 C94.663,215.972 86.294,206.059 86.294,206.059" id="Fill-161" fill="#F0AB85"></path>
                    <path d="M98.816,208.072 C98.816,208.072 100.021,219.498 97.595,226.774 C98.721,227.752 102.858,232.186 104.16,226.439 C105.461,220.691 102.699,206.059 102.699,206.059 L98.816,208.072" id="Fill-162" fill="#F0AB85"></path>
                    <polyline id="Fill-163" fill="#1B2441" points="92.909 207.263 90.593 208.753 91.42 210.482 93.905 209.387 92.909 207.263"></polyline>
                    <path d="M91.545,209.342 C91.777,209.871 91.794,210.374 91.582,210.467 C91.371,210.56 91.011,210.207 90.779,209.679 C90.547,209.15 90.53,208.646 90.742,208.553 C90.954,208.46 91.313,208.813 91.545,209.342" id="Fill-164" fill="#1B2441"></path>
                    <path d="M120.857,198.835 C120.858,198.813 120.863,198.792 120.865,198.77 C120.429,197.778 119.661,196.201 118.625,194.75 C116.952,192.407 116.474,191.236 116.474,191.236 L92.556,206.89 L94.105,209.813 L120.859,199.926 C120.835,199.56 120.827,199.196 120.857,198.835" id="Fill-165" fill="#13374D"></path>
                    <polyline id="Fill-166" fill="#EC967C" points="84.122 224.358 83.262 229.73 90.873 229.73 91.42 223.148 84.122 224.358"></polyline>
                    <path d="M103.777,237.687 C103.777,237.687 112.766,234.825 115.584,230.975 C118.401,227.126 113.633,206.059 113.633,206.059 L114.249,202.268 C114.596,200.134 112.959,198.192 110.796,198.173 L108.395,198.151941 C107.396,198.143 106.721,199.17 107.128,200.084 L110.286,207.191 C110.286,207.191 112.657,223.148 109.336,224.358 C105.377,225.769 100.895,226.109 100.895,226.109 L103.777,237.687" id="Fill-167" fill="#F0AB85"></path>
                    <path d="M86.888,224.358 L84.576,219.23 L86.079,218.287 C87.188,217.589 87.673,216.221 87.251,214.981 L85.605,210.147 C85.605,210.147 90.289,209.575 90.147,205.21 C90.147,202.964 87.055,202.951 87.055,202.951 C87.055,202.951 86.13,204.959 83.262,205.198 C82.03,205.043 78.649,205.497 76.368,209.478 C74.834,212.156 75.506,216.35 76.842,219.498 C78.039,222.318 81.094,223.894 84.122,224.358 L86.888,224.358" id="Fill-168" fill="#17324A"></path>
                    <path d="M77.748,267.44 C77.748,267.44 78.226,278.374 80.59,290.227 C81.287,293.718 81.024,297.332 79.889,300.706 C74.521,316.653 66.996,340.632 66.996,340.632 L73.69,340.632 C73.69,340.632 88.857,312.292 92.766,298.235 C96.674,284.176 97.343,279.713 97.343,279.713 L92.692,267.44 L77.748,267.44" id="Fill-169" fill="#1B2441"></path>
                    <path d="M83.332,216.841 C83.057,217.649 83.614,218.718 84.576,219.23 C85.539,219.741 86.543,219.5 86.818,218.693 C87.093,217.884 86.537,216.815 85.574,216.304 C84.611,215.792 83.607,216.033 83.332,216.841" id="Fill-170" fill="#F0AB85"></path>
                    <path d="M99.575,267.44 L77.748,267.44 L77.748,239.437 C77.748,233.302 82.417,228.177 88.524,227.607 L103.704,225.769 C103.704,225.769 105.488,228.501 110.461,234.849 C104.484,238.542 97.567,240.244 97.567,240.244 L99.575,267.44" id="Fill-171" fill="#5BBDB7"></path>
                    <path d="M77.748,267.44 C77.748,267.44 80.831,278.597 92.205,291.103 C94.105,292.991 96.84,296.919 96.451,302.474 L94.105,340.632 L100.895,340.632 C100.895,340.632 109.17,308.946 107.385,293.326 C105.6,277.705 99.575,267.44 99.575,267.44 L77.748,267.44" id="Fill-172" fill="#13374D"></path>
                    <path d="M117.193,196.241 C118.367,198.676 119.96,200.341 120.751,199.96 C121.542,199.579 121.232,197.295 120.057,194.86 C118.883,192.424 117.291,190.759 116.5,191.14 C115.709,191.522 116.019,193.805 117.193,196.241" id="Fill-173" fill="#5BBDB7"></path>
                    <path d="M97.873,203.411 L98.075,203.507 C98.787,203.848 99.604,203.899 100.352,203.65 L100.486,203.605 C101.719,203.194 102.681,202.219 103.075,200.981 C103.25,200.431 102.767,199.896 102.202,200.014 L100.69,200.331 C100.101,200.455 99.585,200.807 99.254,201.309 L97.873,203.411" id="Fill-174" fill="#F0AB85"></path>
                    <path d="M225.86,248.936 C189.59,258.443 180.424,281.878 175.376,299.459 C170.328,317.04 168.395,349.262 225.86,354.499 C303.642,361.587 298.913,315.366 299.919,299.459 C301.798,269.795 265.642,248.936 265.642,248.936 C265.642,248.936 242.928,257.35 225.86,248.936" id="Fill-175" fill="#FACB57"></path>
                    <path d="M225.86,248.936 L225.86,248.936 C227.834,245.975 227.521,242.046 225.103,239.435 L218.708,232.529 C218.708,232.529 229.646,217.383 246.053,228.322 C258.574,236.668 270.115,231.051 274.88,227.921 C275.507,227.508 276.275,228.179 275.959,228.861 C273.845,233.417 271.02,237.583 267.834,241.465 C265.809,243.931 264.387,246.591 265.642,248.936 L245.632,256.087 L225.86,248.936" id="Fill-176" fill="#FACB57"></path>
                    <path d="M223.83,249.72 C223.83,249.72 231.018,258.443 247.37,258.443 C263.722,258.443 268.722,250.904 268.722,250.904 L265.224,246.387 C265.224,246.387 261.058,252.414 247.372,253.119 C236.315,253.688 226.953,246.387 226.953,246.387 L223.83,249.72" id="Fill-177" fill="#EE9E35"></path>
                    <path d="M215.241,303.1 C215.241,316.336 225.971,327.067 239.207,327.067 C252.443,327.067 263.172,316.336 263.172,303.1 C263.172,289.865 252.443,279.134 239.207,279.134 C225.971,279.134 215.241,289.865 215.241,303.1" id="Fill-178" fill="#EE9E35"></path>
                    <path d="M237.434,321.438 L237.434,317.213 C234.282,317.169 231.02,316.102 229.118,314.992 L230.688,311.747 C232.645,312.814 235.206,313.659 238.25,313.659 C242.108,313.659 244.718,312.102 244.718,309.568 C244.718,307.123 242.598,305.611 238.575,304.277 C233.031,302.498 229.607,300.454 229.607,296.585 C229.607,292.896 232.814,290.094 237.815,289.427 L237.815,284.938 L241.185,284.938 L241.185,289.249 C244.446,289.339 246.674,290.05 248.251,290.806 L246.626,294.272 C245.484,293.738 243.522,293.026 240.043,293.026 C235.857,293.026 234.282,294.274 234.282,296.052 C234.282,298.364 236.292,299.52 241.022,301.121 C246.62,302.988 249.447,305.299 249.447,309.256 C249.447,312.768 246.457,316.325 240.858,317.081 L240.858,321.438 L237.434,321.438" id="Fill-179" fill="#FACB57"></path>
                    <polygon id="Fill-180" fill="#FACB57" points="237.302 321.438 241.223 321.438 241.223 284.938 237.302 284.938"></polygon>
                </g>
            </g>
        </g>
    </g>
</svg>