<?xml version="1.0" encoding="UTF-8"?>
<svg width="22px" height="22px" viewBox="0 0 22 22" version="1.1" xmlns="http://www.w3.org/2000/svg" xmlns:xlink="http://www.w3.org/1999/xlink">
    <title>icon-payment-gray</title>
    <g id="Page-1-Icons" stroke="none" stroke-width="1" fill="none" fill-rule="evenodd">
        <g id="PECOS-2.0-Icons-Overview-v22" transform="translate(-2427.000000, -885.000000)" fill="#949494" fill-rule="nonzero">
            <g id="REVALIDATION-TIMELINE-(v23)" transform="translate(2405.000000, 301.000000)">
                <g id="icon-payment-gray" transform="translate(22.000000, 584.000000)">
                    <path d="M12.22,20.3 L12.22,18.1 C13.46,17.9133333 14.4533333,17.45 15.2,16.71 C15.9466667,15.97 16.32,15.0666667 16.32,14 C16.32,13.1333333 16.1066667,12.44 15.68,11.92 C15.2533333,11.4 14.7366667,11.0166667 14.13,10.77 C13.5233333,10.5233333 12.7333333,10.28 11.76,10.04 C11.0266667,9.86666667 10.4433333,9.7 10.01,9.54 C9.57666667,9.38 9.22,9.16333333 8.94,8.89 C8.66,8.61666667 8.52,8.26 8.52,7.82 C8.52,7.18 8.76333333,6.68 9.25,6.32 C9.73666667,5.96 10.3933333,5.78 11.22,5.78 C12.6333333,5.78 13.96,6.26666667 15.2,7.24 L15.2,7.24 L16.06,5.38 C15.6066667,4.96666667 15.0366667,4.62 14.35,4.34 C13.6633333,4.06 12.94,3.87333333 12.18,3.78 L12.18,3.78 L12.18,1.6 L10.14,1.6 L10.14,3.8 C8.9,3.98666667 7.89,4.46 7.11,5.22 C6.33,5.98 5.94,6.89333333 5.94,7.96 C5.94,8.86666667 6.16666667,9.59 6.62,10.13 C7.07333333,10.67 7.61333333,11.07 8.24,11.33 C8.86666667,11.59 9.68666667,11.8466667 10.7,12.1 C11.42,12.2866667 11.9766667,12.45 12.37,12.59 C12.7633333,12.73 13.0933333,12.92 13.36,13.16 C13.6266667,13.4 13.76,13.7133333 13.76,14.1 C13.76,14.7533333 13.5166667,15.2533333 13.03,15.6 C12.5433333,15.9466667 11.8466667,16.12 10.94,16.12 C10.1266667,16.12 9.37,16 8.67,15.76 C7.97,15.52 7.28,15.1466667 6.6,14.64 L6.6,14.64 L5.74,16.5 C6.3,16.9666667 6.95666667,17.34 7.71,17.62 C8.46333333,17.9 9.28666667,18.0733333 10.18,18.14 L10.18,18.14 L10.18,20.3 L12.22,20.3 Z" id="$"></path>
                </g>
            </g>
        </g>
    </g>
</svg>