<?xml version="1.0" encoding="UTF-8"?>
<svg width="23px" height="22px" viewBox="0 0 23 22" version="1.1" xmlns="http://www.w3.org/2000/svg" xmlns:xlink="http://www.w3.org/1999/xlink">
    <title>icon-deactivation-letter-black</title>
    <g id="Page-1-Icons" stroke="none" stroke-width="1" fill="none" fill-rule="evenodd">
        <g id="PECOS-2.0-Icons-Overview-v26" transform="translate(-2679.000000, -901.000000)" fill="#000000">
            <g id="REVALIDATION-TIMELINE" transform="translate(2652.000000, 69.000000)">
                <g id="Black-icons" transform="translate(21.000000, 475.000000)">
                    <g id="icon-deactivation-letter-black" transform="translate(6.000000, 357.000000)">
                        <path d="M12.1948379,0 C12.4635956,-9.37548406e-16 12.7210407,0.108180882 12.9091301,0.300152403 L15.7585618,3.20839529 C15.9416971,3.39531048 16.0442696,3.646564 16.0442696,3.90824289 L16.0434009,6.43144728 C15.5186089,6.43632622 15.0150137,6.45848799 14.5326153,6.4979326 L14.5334854,4.54795915 C14.5334854,4.27181678 14.3096278,4.04795915 14.0334854,4.04795915 L14.0334854,4.04795915 L12.0442696,4.04795915 L12.0442696,2.05465751 C12.0442696,1.77884326 11.8209238,1.55512178 11.5451099,1.55465821 L11.5451099,1.55465821 L1.60270309,1.53794765 L1.60270309,17.4924736 L6.51351107,17.4928349 C6.58542449,17.9854959 6.6753999,18.4952762 6.78343729,19.0221756 L1,19.0229454 C0.44771525,19.0229454 6.76353751e-17,18.5752302 0,18.0229454 L0,1 C-6.76353751e-17,0.44771525 0.44771525,1.01453063e-16 1,0 L12.1948379,0 Z M6.31876547,13.9994199 C6.30123329,14.3219536 6.29523015,14.6554146 6.30075605,14.9998029 L4.04426956,15 L4.04426956,14 Z M6.60944238,11.9991835 C6.5289187,12.3180467 6.46404829,12.6517461 6.41483116,13.0002818 L4.04426956,13 L4.04426956,12 Z M7.43469041,9.99987601 C7.24297027,10.3102262 7.07551895,10.6435785 6.93233646,10.9999328 L4.04426956,11 L4.04426956,10 Z M9.4316958,7.99947234 C8.97392626,8.29199781 8.56632219,8.62542576 8.20888359,8.99975618 L4.04426956,9 L4.04426956,8 Z M12.0442696,6 L12.0434689,6.90188542 C11.9235895,6.93289607 11.8055863,6.96543649 11.6894594,6.99950669 L4.04426956,7 L4.04426956,6 L12.0442696,6 Z M10.2664918,4 L10.2664918,5 L4.04426956,5 L4.04426956,4 L10.2664918,4 Z" id="icon-letter-gray"></path>
                        <path d="M15.0442696,8 C18.9102628,8 22.0442696,11.1340068 22.0442696,15 C22.0442696,18.8659932 18.9102628,22 15.0442696,22 C11.1782763,22 8.04426956,18.8659932 8.04426956,15 C8.04426956,11.1340068 11.1782763,8 15.0442696,8 Z M15.0442696,9.5 C12.0067034,9.5 9.54426956,11.9624339 9.54426956,15 C9.54426956,18.0375661 12.0067034,20.5 15.0442696,20.5 C18.0818357,20.5 20.5442696,18.0375661 20.5442696,15 C20.5442696,11.9624339 18.0818357,9.5 15.0442696,9.5 Z" id="Combined-Shape"></path>
                        <rect id="Rectangle" transform="translate(15.072987, 15.035810) rotate(45.000000) translate(-15.072987, -15.035810) " x="8.5729866" y="14.2858105" width="13" height="1.5"></rect>
                    </g>
                </g>
            </g>
        </g>
    </g>
</svg>