<?xml version="1.0" encoding="UTF-8"?>
<svg width="20px" height="21px" viewBox="0 0 20 21" version="1.1" xmlns="http://www.w3.org/2000/svg" xmlns:xlink="http://www.w3.org/1999/xlink">
    <title>icon-warning-timeline</title>
    <g id="Page-1-Icons" stroke="none" stroke-width="1" fill="none" fill-rule="evenodd">
        <g id="PECOS-2.0-Icons-Overview-v25" transform="translate(-2936.000000, -583.000000)">
            <g id="REVALIDATION-TIMELINE-(v23)" transform="translate(2648.000000, 69.000000)">
                <g id="Warning-timeline" transform="translate(289.000000, 514.000000)">
                    <g id="icon-warning-timeline" transform="translate(0.000000, 1.000000)">
                        <path d="M9.02497523,-0.5 C9.50826443,-0.5 9.93090432,-0.376831316 10.2957148,-0.13949414 C10.6492432,0.0905031978 10.9512356,0.431509286 11.1909245,0.893844513 L11.1909245,0.893844513 L18.3406518,15.5998537 C18.5625722,16.2922192 18.5535898,16.9112732 18.3409751,17.4589292 C18.2149366,17.783581 17.9944388,18.0432454 17.6729873,18.2325296 C17.3975261,18.3947328 17.0389873,18.5052829 16.591502,18.5482526 L16.591502,18.5482526 L1.45229235,18.5482526 C0.491681655,18.3539657 -0.0565832135,17.9722818 -0.298349163,17.5094901 C-0.536766835,17.0531076 -0.573904952,16.4228606 -0.322001842,15.6016469 L-0.322001842,15.6016469 L6.89494372,0.899835939 C7.12030791,0.436325256 7.41241701,0.0944524133 7.75956171,-0.136610739 C8.11812541,-0.375274499 8.53877188,-0.5 9.02497523,-0.5 L9.02497523,-0.5 Z" id="Triangle" stroke="#FFFFFF" fill="#F58900"></path>
                        <path d="M9.00192261,13.4277344 C9.77857304,13.4277344 10.4081726,14.0573339 10.4081726,14.8339844 C10.4081726,15.6106348 9.77857304,16.2402344 9.00192261,16.2402344 C8.22527218,16.2402344 7.59567261,15.6106348 7.59567261,14.8339844 C7.59567261,14.0573339 8.22527218,13.4277344 9.00192261,13.4277344 Z M9.00192261,3.71678162 C9.72658005,3.71678162 10.314031,4.30423254 10.314031,5.02888998 C10.314031,5.05917468 10.3129825,5.08945031 10.3108874,5.11966245 L9.81642151,12.25 L8.14546967,12.25 L7.68609011,5.12012182 C7.63926776,4.3934076 8.19042902,3.76633231 8.91714324,3.71950996 C8.94536646,3.71769154 8.97364087,3.71678162 9.00192261,3.71678162 Z" id="exclamation-mark" fill="#FFFFFF"></path>
                    </g>
                </g>
            </g>
        </g>
    </g>
</svg>