<?xml version="1.0" encoding="UTF-8"?>
<svg width="22px" height="22px" viewBox="0 0 22 22" version="1.1" xmlns="http://www.w3.org/2000/svg" xmlns:xlink="http://www.w3.org/1999/xlink">
    <title>icon-notification-gray</title>
    <g id="Page-1-Icons" stroke="none" stroke-width="1" fill="none" fill-rule="evenodd">
        <g id="PECOS-2.0-Icons-Overview-v24" transform="translate(-2459.000000, -420.000000)" fill="#949494">
            <g id="REVALIDATION-TIMELINE-(v23)" transform="translate(2438.000000, 69.000000)">
                <g id="icon-notification-gray" transform="translate(21.000000, 351.000000)">
                    <path d="M10.9997355,0.626079559 C12.1809637,0.626079559 13.3022829,1.53547846 13.3022829,2.39546465 L13.3022829,2.39546465 L13.3020604,2.87675384 C15.6653929,3.80157821 17.339954,6.10845014 17.339954,8.80789774 C17.339954,8.88937177 17.3384285,8.97048818 17.3354048,9.05121978 L17.3489825,9.4257918 C17.3998389,10.8153432 17.9044185,12.1499946 18.7855597,13.2256477 L19.6481691,14.2786782 C20.228944,14.9876592 20.1250125,16.033213 19.4160314,16.613988 C19.1194332,16.8569519 18.7478537,16.9897159 18.3644454,16.9897159 L14.6228308,16.9897159 C14.6228308,18.9980241 13.0008342,20.6260796 11,20.6260796 C8.99916578,20.6260796 7.37716917,18.9980241 7.37716917,16.9897159 L7.37716917,16.9897159 L3.67725043,16.9897159 C2.7643621,16.9897159 2.02431989,16.2496737 2.02431989,15.3367854 C2.02431989,14.9501373 2.1598641,14.5757237 2.40737305,14.2786782 L3.19158572,13.3375128 C4.14447328,12.1939137 4.6663065,10.7524546 4.6663065,9.26389369 L4.66550183,9.07432327 C4.66187652,8.98596773 4.66004604,8.8971473 4.66004604,8.80789774 C4.66004604,6.10490303 6.33901076,3.79551636 8.70725951,2.87311531 L8.70810973,2.39546465 C8.70810973,1.53547846 9.81850722,0.626079559 10.9997355,0.626079559 Z M12.8114154,16.9897159 L9.18858458,16.9897159 L9.18858458,16.9897159 C9.18858458,17.99387 9.99958289,18.8078977 11,18.8078977 C12.0004171,18.8078977 12.8114154,17.99387 12.8114154,16.9897159 Z M15.5305442,8.80234996 L6.47146146,8.80789774 L6.46716208,9.88930035 C6.46178545,11.2416591 5.97575769,12.5480531 5.09591425,13.5750772 L5.09591425,13.5750772 L4.37574542,14.4157163 C4.30517908,14.498087 4.26639348,14.6029764 4.26639348,14.7114409 C4.26639348,14.9624794 4.46990041,15.1659863 4.72093893,15.1659863 L4.72093893,15.1659863 L17.2602446,15.1659863 C17.3684048,15.1659863 17.4730203,15.1274177 17.5552967,15.0572093 C17.7462594,14.8942566 17.7689659,14.6073515 17.6060131,14.4163888 L17.6060131,14.4163888 L16.8881029,13.5750772 C16.0118888,12.5482509 15.5305442,11.2426278 15.5305442,9.8927673 L15.5305442,9.8927673 L15.5305442,8.80234996 Z M10.9999118,2.44426138 C10.451738,2.44426138 10.01367,2.8519777 10.01367,3.35492126 L10.0132605,4.37065929 C7.98828864,4.82233376 6.47380191,6.63487281 6.47146417,8.8028709 L15.5283199,8.80207956 L15.5236095,8.59392228 C15.4280003,6.52305535 13.9518099,4.81411569 11.9976763,4.3731131 L11.9975243,3.35492126 L11.9975243,3.35492126 C11.9975243,2.8519777 11.5480856,2.44426138 10.9999118,2.44426138 Z" id="Combined-Shape"></path>
                </g>
            </g>
        </g>
    </g>
</svg>