<?xml version="1.0" encoding="UTF-8"?>
<svg width="22px" height="22px" viewBox="0 0 22 22" version="1.1" xmlns="http://www.w3.org/2000/svg" xmlns:xlink="http://www.w3.org/1999/xlink">
    <title>icon-group-white</title>
    <g id="Page-1-Icons" stroke="none" stroke-width="1" fill="none" fill-rule="evenodd">
        <g id="PECOS-2.0-Icons-Overview-v22" transform="translate(-2425.000000, -478.000000)" fill="#FFFFFF">
            <g id="REVALIDATION-TIMELINE-(v23)" transform="translate(2405.000000, 301.000000)">
                <g id="icon-group-white" transform="translate(20.000000, 177.000000)">
                    <path d="M11,8.25 C13.0250441,8.25 14.6666667,10.0968254 14.6666667,12.375 C14.6666667,13.0261356 14.5325625,13.6420342 14.293731,14.1896472 C16.6895627,14.8670242 18.3333333,16.2630337 18.3333333,17.875 C18.3333333,20.1531746 15.0500882,22 11,22 C6.94991183,22 3.66666667,20.1531746 3.66666667,17.875 C3.66666667,16.263004 5.31049787,14.8669728 7.70668171,14.188363 C7.46743746,13.6420342 7.33333333,13.0261356 7.33333333,12.375 C7.33333333,10.0968254 8.97495592,8.25 11,8.25 Z M13.0991149,15.7561537 L13.0500682,15.7955148 C12.4648644,16.2402902 11.7593915,16.5 11,16.5 C10.2190748,16.5 9.49516948,16.2253524 8.90044047,15.7572333 C6.90470481,16.0998486 5.5,16.919073 5.5,17.875 C5.5,19.1406526 7.96243388,20.1666667 11,20.1666667 C14.0375661,20.1666667 16.5,19.1406526 16.5,17.875 C16.5,16.9190852 15.0953312,16.0998696 13.0991149,15.7561537 Z M11,10.0833333 C9.98747796,10.0833333 9.16666667,11.1093474 9.16666667,12.375 C9.16666667,13.6406526 9.98747796,14.6666667 11,14.6666667 C12.012522,14.6666667 12.8333333,13.6406526 12.8333333,12.375 C12.8333333,11.1093474 12.012522,10.0833333 11,10.0833333 Z M16.0416667,0 C17.8135802,0 19.25,1.64162258 19.25,3.66666667 C19.25,4.16372294 19.1634587,4.63767886 19.0066567,5.06992799 C20.7951403,5.70129287 22,6.88905872 22,8.25 C22,10.2750441 19.3323633,11.9166667 16.0416667,11.9166667 C15.7234477,11.9166667 15.4110553,11.9013152 15.1063383,11.8717501 C15.0398421,11.1726278 14.8321969,10.5218593 14.5159277,9.95361138 C14.9871832,10.0373313 15.5023375,10.0833333 16.0416667,10.0833333 C18.3198413,10.0833333 20.1666667,9.26252204 20.1666667,8.25 C20.1666667,7.54178399 19.2631247,6.92736066 17.9404208,6.62201009 C17.4055185,7.07067372 16.7504321,7.33333333 16.0416667,7.33333333 C15.3315382,7.33333333 14.6752955,7.06966252 14.1438049,6.62331122 C13.0384859,6.87721918 12.2261008,7.34757303 11.9882166,7.90824318 C11.6734616,7.82300132 11.3440237,7.77756755 11.0050354,7.77756755 C10.6627659,7.77756755 10.3302327,7.8238851 10.0122358,7.91118683 C9.7768478,7.34923294 8.96365024,6.87746378 7.85708745,6.62201009 C7.32218518,7.07067372 6.66709876,7.33333333 5.95833333,7.33333333 C5.24820489,7.33333333 4.59196212,7.06966252 4.06047155,6.62331122 C2.73687535,6.92736066 1.83333333,7.54178399 1.83333333,8.25 C1.83333333,9.26252204 3.68015874,10.0833333 5.95833333,10.0833333 C6.50181696,10.0833333 7.02075192,10.0366199 7.49592054,9.95173408 C7.17835571,10.5203498 6.97030619,11.1718188 6.90340458,11.8701422 C6.59577225,11.9009778 6.28003006,11.9166667 5.95833333,11.9166667 C2.6676367,11.9166667 0,10.2750441 0,8.25 C0,6.88905872 1.20485975,5.70129287 2.99397014,5.06861574 C2.83654132,4.63767886 2.75,4.16372294 2.75,3.66666667 C2.75,1.64162258 4.18641976,0 5.95833333,0 C7.73024691,0 9.16666667,1.64162258 9.16666667,3.66666667 C9.16666667,4.16372294 9.08012534,4.63767886 8.92332333,5.06992799 C9.76825032,5.36820147 10.4829202,5.79065629 11.0018302,6.29688539 C11.5181815,5.78974274 12.2326285,5.36731533 13.0773035,5.06861574 C12.9198747,4.63767886 12.8333333,4.16372294 12.8333333,3.66666667 C12.8333333,1.64162258 14.2697531,0 16.0416667,0 Z M5.95833333,1.83333333 C5.1989418,1.83333333 4.58333333,2.65414463 4.58333333,3.66666667 C4.58333333,4.67918871 5.1989418,5.5 5.95833333,5.5 C6.71772486,5.5 7.33333333,4.67918871 7.33333333,3.66666667 C7.33333333,2.65414463 6.71772486,1.83333333 5.95833333,1.83333333 Z M16.0416667,1.83333333 C15.2822751,1.83333333 14.6666667,2.65414463 14.6666667,3.66666667 C14.6666667,4.67918871 15.2822751,5.5 16.0416667,5.5 C16.8010582,5.5 17.4166667,4.67918871 17.4166667,3.66666667 C17.4166667,2.65414463 16.8010582,1.83333333 16.0416667,1.83333333 Z" id="icon-group"></path>
                </g>
            </g>
        </g>
    </g>
</svg>