<?xml version="1.0" encoding="UTF-8"?>
<svg width="22px" height="22px" viewBox="0 0 22 22" version="1.1" xmlns="http://www.w3.org/2000/svg" xmlns:xlink="http://www.w3.org/1999/xlink">
    <title>icon-email-notification-gray</title>
    <g id="Page-1-Icons" stroke="none" stroke-width="1" fill="none" fill-rule="evenodd">
        <g id="PECOS-2.0-Icons-Overview-v24" transform="translate(-2460.000000, -561.000000)" fill="#949494">
            <g id="REVALIDATION-TIMELINE-(v23)" transform="translate(2438.000000, 69.000000)">
                <g id="icon-email-notification-gray" transform="translate(22.000000, 492.000000)">
                    <path d="M20,8.97355652 C21.1045695,8.97355652 22,9.86898702 22,10.9735565 L22,20 C22,21.1045695 21.1045695,22 20,22 L7,22 C5.8954305,22 5,21.1045695 5,20 L4.99874685,16.1717884 C5.43613504,16.3655659 5.93801247,16.4838026 6.50437914,16.5264986 L6.5052948,19.4304161 C6.5052948,19.9827009 6.95301005,20.4304161 7.5052948,20.4304161 L7.5052948,20.4304161 L19.5052948,20.4304161 C20.0575795,20.4304161 20.5052948,19.9827009 20.5052948,19.4304161 L20.5052948,19.4304161 L20.5044445,11.8055565 L14.5557998,16.9077246 C14.0033114,17.3815236 13.190419,17.3903393 12.6277851,16.9286337 L10.3313485,15.0456522 C10.6877705,14.6154824 10.9918489,14.0927246 11.2435837,13.4773786 L11.1654445,13.6565565 L13.2691587,15.470751 C13.4588826,15.6344363 13.7404683,15.6324084 13.927815,15.4660075 L19.5674445,10.4555565 L19.5052948,10.452692 L15.2482341,10.4538681 C15.1788936,10.0004266 15.0354394,9.50719163 14.8178713,8.97416303 L20,8.97355652 Z" id="Combined-Shape"></path>
                    <path d="M6.98098887,0 C7.89959241,0 8.77160657,0.682049177 8.77160657,1.32703882 L8.77160657,1.32703882 L8.77171228,1.68811092 C10.6094535,2.38179893 11.9115746,4.11188029 11.9115746,6.13636364 C11.9115746,6.19483475 11.9104884,6.25306027 11.9083345,6.31102234 L11.9146139,6.49485872 C11.9566858,7.60349144 12.369999,8.66584498 13.0882198,9.51141906 L13.7065999,10.239449 C14.1478902,10.758988 14.0844572,11.5378941 13.5649181,11.9791844 C13.3418123,12.1686879 13.058616,12.2727273 12.7658913,12.2727273 L9.79855457,12.2727273 C9.79855457,13.7789584 8.53717954,15 6.98119458,15 C5.42520962,15 4.16383458,13.7789584 4.16383458,12.2727273 L4.16383458,12.2727273 L1.22932834,12.2727273 C0.550303424,12.2727273 -0.000155034202,11.7222688 -0.000155034202,11.0432439 C-0.000155034202,10.748092 0.106022226,10.4627894 0.298982648,10.239449 L0.851428426,9.60002524 C1.62823962,8.70091163 2.05568315,7.55235376 2.05568315,6.36414464 L2.05561846,6.34895961 L2.05561846,6.34895961 L2.05081459,6.13636364 C2.05081459,4.10930975 3.3562444,2.37740594 5.19767975,1.68547355 L5.19886461,1.32703882 C5.19886461,0.682049177 6.06238533,0 6.98098887,0 Z M8.38987457,12.2727273 L5.57251458,12.2727273 L5.57251458,12.2727273 C5.57251458,13.0258428 6.2032021,13.6363636 6.98119458,13.6363636 C7.75918706,13.6363636 8.38987457,13.0258428 8.38987457,12.2727273 Z M6.98112601,1.36363636 C6.55482873,1.36363636 6.27685458,1.6694236 6.27685458,2.04663128 L6.27643426,2.79554952 C4.67047889,3.11131561 3.46146427,4.48497898 3.45949699,6.13233682 L3.44967417,6.1322028 L3.44967417,6.92261272 C3.44967417,7.95071656 3.07255585,8.94310766 2.38977539,9.71174825 L2.38977539,9.71174825 L1.85249331,10.3165939 C1.79501587,10.3812992 1.76326951,10.4648401 1.76326951,10.5513874 C1.76326951,10.7466436 1.92155596,10.9049301 2.1168122,10.9049301 L2.1168122,10.9049301 L11.8310336,10.9049301 C11.9173425,10.9049301 12.0006704,10.8733579 12.0653095,10.8161651 C12.2115422,10.686778 12.2251983,10.4633441 12.0958112,10.3171115 L12.0958112,10.3171115 L11.5601844,9.71174825 C10.8799589,8.94296021 10.5044543,7.95189739 10.5044543,6.92537813 L10.5044543,6.92537813 L10.5044543,6.1322028 L10.502,6.132 L10.4976836,5.94931636 C10.4102483,4.38404984 9.23205285,3.09954632 7.6859549,2.79554952 L7.68553458,2.04663128 L7.68553458,2.04663128 C7.68553458,1.6694236 7.40742329,1.36363636 6.98112601,1.36363636 Z" id="Combined-Shape"></path>
                </g>
            </g>
        </g>
    </g>
</svg>