<?xml version="1.0" encoding="UTF-8"?>
<svg width="22px" height="22px" viewBox="0 0 22 22" version="1.1" xmlns="http://www.w3.org/2000/svg" xmlns:xlink="http://www.w3.org/1999/xlink">
    <title>icon-email-white</title>
    <g id="Page-1-Icons" stroke="none" stroke-width="1" fill="none" fill-rule="evenodd">
        <g id="PECOS-2.0-Icons-Overview-v24" transform="translate(-2460.000000, -192.000000)" fill="#FFFFFF">
            <g id="REVALIDATION-TIMELINE-(v23)" transform="translate(2438.000000, 69.000000)">
                <g id="icon-email-white" transform="translate(22.000000, 123.000000)">
                    <path d="M19,4 C20.1045695,4 21,4.8954305 21,6 L21,17 C21,18.1045695 20.1045695,19 19,19 L3,19 C1.8954305,19 1,18.1045695 1,17 L1,6 C1,4.8954305 1.8954305,4 3,4 L19,4 Z M18.4497452,5.64401054 L3.58333333,5.64401054 C3.03104858,5.64401054 2.58333333,6.09172579 2.58333333,6.64401054 L2.58333333,6.64401054 L2.58333333,16.3643188 C2.58333333,16.9166036 3.03104858,17.3643188 3.58333333,17.3643188 L3.58333333,17.3643188 L18.4497452,17.3643188 C19.0020299,17.3643188 19.4497452,16.9166036 19.4497452,16.3643188 L19.4497452,16.3643188 L19.4497452,6.64401054 C19.4497452,6.09172579 19.0020299,5.64401054 18.4497452,5.64401054 L18.4497452,5.64401054 Z" id="Combined-Shape"></path>
                    <path d="M2.6682682,5.10926819 L10.7191536,11.8318749 C10.9053416,11.9873446 11.1762611,11.986754 11.3617695,11.8304741 L19.3400192,5.10926819 L19.3400192,5.10926819 L20.3222656,6.61760712 L12.2638574,13.3189017 C11.5217548,13.9360271 10.4447882,13.9351275 9.70371757,13.3167632 L1.67520142,6.61760712 L1.67520142,6.61760712 L2.6682682,5.10926819 Z" id="Rectangle"></path>
                </g>
            </g>
        </g>
    </g>
</svg>