<?xml version="1.0" encoding="UTF-8"?>
<svg width="22px" height="22px" viewBox="0 0 22 22" version="1.1" xmlns="http://www.w3.org/2000/svg" xmlns:xlink="http://www.w3.org/1999/xlink">
    <title>icon-notification-white</title>
    <g id="Page-1-Icons" stroke="none" stroke-width="1" fill="none" fill-rule="evenodd">
        <g id="PECOS-2.0-Icons-Overview-v24" transform="translate(-2459.000000, -118.000000)" fill="#FFFFFF">
            <g id="REVALIDATION-TIMELINE-(v23)" transform="translate(2438.000000, 69.000000)">
                <g id="icon-notification-white" transform="translate(21.000000, 49.000000)">
                    <path d="M10.9997355,0.646713257 C12.1809637,0.646713257 13.3022829,1.55611216 13.3022829,2.41609835 L13.3022829,2.41609835 L13.3020604,2.89738754 C15.6653929,3.8222119 17.339954,6.12908384 17.339954,8.82853144 C17.339954,8.91000546 17.3384285,8.99112188 17.3354048,9.07185348 L17.3489825,9.4464255 C17.3998389,10.8359769 17.9044185,12.1706283 18.7855597,13.2462814 L19.6481691,14.2993119 C20.228944,15.0082929 20.1250125,16.0538467 19.4160314,16.6346217 C19.1194332,16.8775856 18.7478537,17.0103496 18.3644454,17.0103496 L14.6228308,17.0103496 C14.6228308,19.0186578 13.0008342,20.6467133 11,20.6467133 C8.99916578,20.6467133 7.37716917,19.0186578 7.37716917,17.0103496 L7.37716917,17.0103496 L3.67725043,17.0103496 C2.7643621,17.0103496 2.02431989,16.2703074 2.02431989,15.3574191 C2.02431989,14.970771 2.1598641,14.5963574 2.40737305,14.2993119 L3.19158572,13.3581464 C4.14447328,12.2145474 4.6663065,10.7730883 4.6663065,9.28452739 L4.66550183,9.09495696 C4.66187652,9.00660142 4.66004604,8.91778099 4.66004604,8.82853144 C4.66004604,6.12553673 6.33901076,3.81615006 8.70725951,2.89374901 L8.70810973,2.41609835 C8.70810973,1.55611216 9.81850722,0.646713257 10.9997355,0.646713257 Z M12.8114154,17.0103496 L9.18858458,17.0103496 L9.18858458,17.0103496 C9.18858458,18.0145037 9.99958289,18.8285314 11,18.8285314 C12.0004171,18.8285314 12.8114154,18.0145037 12.8114154,17.0103496 Z M10.9999118,2.46489507 C10.451738,2.46489507 10.0182972,2.87261139 10.0182972,3.37555496 L10.0172399,4.39040726 C7.99027313,4.84059334 6.47380344,6.65408657 6.47146417,8.8235046 L6.45883343,8.82298366 L6.45883343,9.90991749 C6.45883343,11.2617757 5.97542511,12.569075 5.09591425,13.5957109 L5.09591425,13.5957109 L4.37574542,14.43635 C4.30517908,14.5187207 4.26639348,14.6236101 4.26639348,14.7320746 C4.26639348,14.9831131 4.46990041,15.18662 4.72093893,15.18662 L4.72093893,15.18662 L17.2602446,15.18662 C17.3684048,15.18662 17.4730203,15.1480514 17.5552967,15.077843 C17.7462594,14.9148903 17.7689659,14.6279851 17.6060131,14.4370225 L17.6060131,14.4370225 L16.8881029,13.5957109 C16.0118888,12.5688846 15.5305442,11.2632615 15.5305442,9.91340099 L15.5305442,9.91340099 L15.5305442,8.82298366 L15.5283199,8.82271326 L15.5236095,8.61455598 C15.4281948,6.54790169 13.95781,4.84170368 12.0095959,4.39645385 L12.0096893,3.37555496 L12.0096893,3.37555496 C12.0096893,2.87261139 11.5480856,2.46489507 10.9999118,2.46489507 Z" id="Combined-Shape"></path>
                </g>
            </g>
        </g>
    </g>
</svg>