<?xml version="1.0" encoding="UTF-8"?>
<svg width="22px" height="22px" viewBox="0 0 22 22" version="1.1" xmlns="http://www.w3.org/2000/svg" xmlns:xlink="http://www.w3.org/1999/xlink">
    <title>icon-in-progress-timeline</title>
    <g id="Page-1-Icons" stroke="none" stroke-width="1" fill="none" fill-rule="evenodd">
        <g id="PECOS-2.0-Icons-Overview-v26" transform="translate(-2935.000000, -612.000000)">
            <g id="REVALIDATION-TIMELINE" transform="translate(2648.000000, 69.000000)">
                <g id="icon-in-progress-timeline" transform="translate(288.000000, 544.000000)">
                    <circle id="Oval" stroke="#FFFFFF" fill="#0E7B7B" cx="10" cy="10" r="10.5"></circle>
                    <path d="M10.4456458,13.7061609 C10.9556008,13.7061609 11.3690011,14.1172649 11.3690011,14.6243874 C11.3690011,15.1315099 10.9556008,15.542614 10.4456458,15.542614 C9.93569072,15.542614 9.52229047,15.1315099 9.52229047,14.6243874 C9.52229047,14.1172649 9.93569072,13.7061609 10.4456458,13.7061609 Z M7.34228375,13.2057991 C7.8522388,13.2057991 8.26563906,13.6169032 8.26563906,14.1240257 C8.26563906,14.6311482 7.8522388,15.0422522 7.34228375,15.0422522 C6.83232869,15.0422522 6.41892844,14.6311482 6.41892844,14.1240257 C6.41892844,13.6169032 6.83232869,13.2057991 7.34228375,13.2057991 Z M5.38860729,11.131719 C5.89856234,11.131719 6.3119626,11.542823 6.3119626,12.0499456 C6.3119626,12.5570681 5.89856234,12.9681721 5.38860729,12.9681721 C4.87865223,12.9681721 4.46525198,12.5570681 4.46525198,12.0499456 C4.46525198,11.542823 4.87865223,11.131719 5.38860729,11.131719 Z M9.56403993,4.54261398 C11.3037187,4.54261398 12.7352086,5.2139079 13.8585095,6.55649574 L15.174032,5.49773082 C15.3808975,5.3311449 15.6836397,5.36379796 15.8502256,5.57066346 C15.9184322,5.65536207 15.9559189,5.76067714 15.9565681,5.86942261 L15.9821342,10.1513362 C15.98372,10.416933 15.7696967,10.6335274 15.5040999,10.6351132 C15.4687677,10.6353241 15.4335198,10.6316407 15.3989946,10.6241295 L11.1925726,9.70900122 C10.9330419,9.65253899 10.7684223,9.39637605 10.8248845,9.13684527 C10.8482351,9.02951348 10.9076246,8.93340948 10.9931761,8.86451605 L12.3911586,7.73761398 L12.3720002,7.71309575 C11.635947,6.80875936 10.6999602,6.35659117 9.56403993,6.35659117 C8.60864585,6.35659117 7.76920522,6.67645814 7.04571803,7.31619207 C6.68114485,7.63855096 6.14650351,7.67866252 5.73791635,7.41430407 L5.72060717,7.40310493 C5.35102634,7.16398382 5.24526783,6.6705334 5.48438894,6.30095256 C5.51490155,6.25379288 5.55031389,6.20999077 5.59005514,6.17029583 C6.67537799,5.0851746 8.00003958,4.54261398 9.56403993,4.54261398 Z M4.90551392,8.1968015 C5.41546898,8.1968015 5.82886923,8.60790553 5.82886923,9.11502806 C5.82886923,9.62215058 5.41546898,10.0332546 4.90551392,10.0332546 C4.39555887,10.0332546 3.98215861,9.62215058 3.98215861,9.11502806 C3.98215861,8.60790553 4.39555887,8.1968015 4.90551392,8.1968015 Z" id="arrow-circle" fill="#FFFFFF"></path>
                </g>
            </g>
        </g>
    </g>
</svg>