<?xml version="1.0" encoding="UTF-8"?>
<svg width="22px" height="22px" viewBox="0 0 22 22" version="1.1" xmlns="http://www.w3.org/2000/svg" xmlns:xlink="http://www.w3.org/1999/xlink">
    <title>icon-letter-notification-white</title>
    <g id="Page-1-Icons" stroke="none" stroke-width="1" fill="none" fill-rule="evenodd">
        <g id="PECOS-2.0-Icons-Overview-v24" transform="translate(-2460.000000, -300.000000)" fill="#FFFFFF">
            <g id="REVALIDATION-TIMELINE-(v23)" transform="translate(2438.000000, 69.000000)">
                <g id="icon-letter-notification-white" transform="translate(22.000000, 231.000000)">
                    <path d="M18.1595726,3 C18.4286001,3 18.6862802,3.10839758 18.874409,3.30070825 L21.7148364,6.20427576 C21.897638,6.39114086 22,6.6421579 22,6.90356751 L22,21 C22,21.5522847 21.5522847,22 21,22 L7,22 C6.44771525,22 6,21.5522847 6,21 L5.99973044,16 L7.55773044,16 L7.55843353,20.4924736 L20.4892159,20.4924736 L20.4892159,7.54795915 C20.4892159,7.27181678 20.2653582,7.04795915 19.9892159,7.04795915 L19.9892159,7.04795915 L18,7.04795915 L18,5.05465751 C18,4.77884326 17.7766542,4.55512178 17.5008404,4.55465821 L17.5008404,4.55465821 L14.4564459,4.55035745 C14.4086839,4.05445109 14.3581373,3.53798177 14.3048062,3.00094951 L18.1595726,3 Z" id="icon-letter-white"></path>
                    <rect id="Rectangle" x="10" y="15" width="8" height="1"></rect>
                    <rect id="Rectangle-Copy-16" x="10" y="17" width="8" height="1"></rect>
                    <rect id="Rectangle-Copy-7" x="14" y="13" width="4" height="1"></rect>
                    <rect id="Rectangle-Copy-13" x="15" y="11" width="3" height="1"></rect>
                    <rect id="Rectangle-Copy-14" x="15" y="9" width="3" height="1"></rect>
                    <rect id="Rectangle-Copy-18" x="13.2222222" y="7" width="3" height="1"></rect>
                    <path d="M6.98098887,0 C7.89959241,0 8.77160657,0.682049177 8.77160657,1.32703882 L8.77160657,1.32703882 L8.77171228,1.68811092 C10.6094535,2.38179893 11.9115746,4.11188029 11.9115746,6.13636364 C11.9115746,6.19483475 11.9104884,6.25306027 11.9083345,6.31102234 L11.9146139,6.49485872 C11.9566858,7.60349144 12.369999,8.66584498 13.0882198,9.51141906 L13.7065999,10.239449 C14.1478902,10.758988 14.0844572,11.5378941 13.5649181,11.9791844 C13.3418123,12.1686879 13.058616,12.2727273 12.7658913,12.2727273 L9.79855457,12.2727273 C9.79855457,13.7789584 8.53717954,15 6.98119458,15 C5.42520962,15 4.16383458,13.7789584 4.16383458,12.2727273 L4.16383458,12.2727273 L1.22932834,12.2727273 C0.550303424,12.2727273 -0.000155034202,11.7222688 -0.000155034202,11.0432439 C-0.000155034202,10.748092 0.106022226,10.4627894 0.298982648,10.239449 L0.851428426,9.60002524 C1.62823962,8.70091163 2.05568315,7.55235376 2.05568315,6.36414464 L2.05561846,6.34895961 L2.05561846,6.34895961 L2.05081459,6.13636364 C2.05081459,4.10930975 3.3562444,2.37740594 5.19767975,1.68547355 L5.19886461,1.32703882 C5.19886461,0.682049177 6.06238533,0 6.98098887,0 Z M8.38987457,12.2727273 L5.57251458,12.2727273 L5.57251458,12.2727273 C5.57251458,13.0258428 6.2032021,13.6363636 6.98119458,13.6363636 C7.75918706,13.6363636 8.38987457,13.0258428 8.38987457,12.2727273 Z M6.98112601,1.36363636 C6.55482873,1.36363636 6.27685458,1.6694236 6.27685458,2.04663128 L6.27643426,2.79554952 C4.67047889,3.11131561 3.46146427,4.48497898 3.45949699,6.13233682 L3.44967417,6.1322028 L3.44967417,6.92261272 C3.44967417,7.95071656 3.07255585,8.94310766 2.38977539,9.71174825 L2.38977539,9.71174825 L1.85249331,10.3165939 C1.79501587,10.3812992 1.76326951,10.4648401 1.76326951,10.5513874 C1.76326951,10.7466436 1.92155596,10.9049301 2.1168122,10.9049301 L2.1168122,10.9049301 L11.8310336,10.9049301 C11.9173425,10.9049301 12.0006704,10.8733579 12.0653095,10.8161651 C12.2115422,10.686778 12.2251983,10.4633441 12.0958112,10.3171115 L12.0958112,10.3171115 L11.5601844,9.71174825 C10.8799589,8.94296021 10.5044543,7.95189739 10.5044543,6.92537813 L10.5044543,6.92537813 L10.5044543,6.1322028 L10.502,6.132 L10.4976836,5.94931636 C10.4102483,4.38404984 9.23205285,3.09954632 7.6859549,2.79554952 L7.68553458,2.04663128 L7.68553458,2.04663128 C7.68553458,1.6694236 7.40742329,1.36363636 6.98112601,1.36363636 Z" id="Combined-Shape"></path>
                </g>
            </g>
        </g>
    </g>
</svg>