<?xml version="1.0" encoding="UTF-8"?>
<svg width="21px" height="21px" viewBox="0 0 21 21" version="1.1" xmlns="http://www.w3.org/2000/svg" xmlns:xlink="http://www.w3.org/1999/xlink">
    <title>icon-due-date-black</title>
    <g id="Page-1-Icons" stroke="none" stroke-width="1" fill="none" fill-rule="evenodd">
        <g id="PECOS-2.0-Icons-Overview-v27" transform="translate(-2672.000000, -943.000000)" fill="#010101">
            <g id="REVALIDATION-TIMELINE" transform="translate(2652.000000, 69.000000)">
                <g id="Black-icons" transform="translate(16.000000, 477.000000)">
                    <g id="icon-due-date-black" transform="translate(4.000000, 397.000000)">
                        <path d="M3,2 L3,3 C3,4.1045695 3.8954305,5 5,5 C6.1045695,5 7,4.1045695 7,3 L7,3 L7,2 L13,2 L13,3 C13,4.0543618 13.8158778,4.91816512 14.8507377,4.99451426 L15,5 C16.1045695,5 17,4.1045695 17,3 L17,3 L17,2 L18,2 C19.1045695,2 20,2.8954305 20,4 L20,19 C20,20.1045695 19.1045695,21 18,21 L2,21 C0.8954305,21 1.3527075e-16,20.1045695 0,19 L0,4 C-1.3527075e-16,2.8954305 0.8954305,2 2,2 L3,2 Z M17,6 L3,6 C2.44771525,6 2,6.44771525 2,7 L2,7 L2,18 C2,18.5522847 2.44771525,19 3,19 L3,19 L17,19 C17.5522847,19 18,18.5522847 18,18 L18,18 L18,7 C18,6.44771525 17.5522847,6 17,6 L17,6 Z M5,16 L5,18 L3,18 L3,16 L5,16 Z M8,16 L8,18 L6,18 L6,16 L8,16 Z M11,16 L11,18 L9,18 L9,16 L11,16 Z M14,16 L14,18 L12,18 L12,16 L14,16 Z M5,13 L5,15 L3,15 L3,13 L5,13 Z M8,13 L8,15 L6,15 L6,13 L8,13 Z M11,13 L11,15 L9,15 L9,13 L11,13 Z M14,13 L14,15 L12,15 L12,13 L14,13 Z M17,13 L17,15 L15,15 L15,13 L17,13 Z M5,10 L5,12 L3,12 L3,10 L5,10 Z M8,10 L8,12 L6,12 L6,10 L8,10 Z M11,10 L11,12 L9,12 L9,10 L11,10 Z M14,10 L14,12 L12,12 L12,10 L14,10 Z M17,10 L17,12 L15,12 L15,10 L17,10 Z M8,7 L8,9 L6,9 L6,7 L8,7 Z M11,7 L11,9 L9,9 L9,7 L11,7 Z M14,7 L14,9 L12,9 L12,7 L14,7 Z M17,7 L17,9 L15,9 L15,7 L17,7 Z M15,0 C15.5522847,-1.01453063e-16 16,0.44771525 16,1 L16,3 C16,3.55228475 15.5522847,4 15,4 C14.4477153,4 14,3.55228475 14,3 L14,1 C14,0.44771525 14.4477153,1.01453063e-16 15,0 Z M5,0 C5.55228475,-1.01453063e-16 6,0.44771525 6,1 L6,3 C6,3.55228475 5.55228475,4 5,4 C4.44771525,4 4,3.55228475 4,3 L4,1 C4,0.44771525 4.44771525,1.01453063e-16 5,0 Z" id="icon-calendar"></path>
                    </g>
                </g>
            </g>
        </g>
    </g>
</svg>