<?xml version="1.0" encoding="UTF-8"?>
<svg width="21px" height="21px" viewBox="0 0 21 21" version="1.1" xmlns="http://www.w3.org/2000/svg" xmlns:xlink="http://www.w3.org/1999/xlink">
    <title>icon-revalidation-gray</title>
    <g id="Page-1-Icons" stroke="none" stroke-width="1" fill="none" fill-rule="evenodd">
        <g id="PECOS-2.0-Icons-Overview-v26" transform="translate(-2938.000000, -444.000000)" fill="#949494">
            <g id="REVALIDATION-TIMELINE" transform="translate(2652.000000, 69.000000)">
                <g id="Gray-icons" transform="translate(282.000000, 50.000000)">
                    <g id="icon-revalidation-gray" transform="translate(0.000000, 321.000000)">
                        <path d="M16.0947157,11.4171959 C19.1224524,12.0368968 21.3135413,13.6819406 21.4233219,15.6316965 L21.4276422,15.631485 L21.4276422,19.9730566 C21.4276422,22.4274869 17.8459202,24.4171959 13.4276422,24.4171959 C9.10541371,24.4171959 5.58376458,22.5130557 5.43269204,20.1324536 L5.42764219,19.9730566 L5.42764219,15.631485 L5.43264219,15.6310885 L5.43373688,15.6028949 C5.56335782,13.6657526 7.74775204,12.0338431 10.7605686,11.4171959 L10.7611793,12.795284 C8.37654712,13.3488816 6.78500642,14.6042921 6.78500642,15.752666 C6.78500642,17.2875166 9.60814689,18.9343469 13.407814,18.9343469 C17.207481,18.9343469 20.1183397,17.2875166 20.1183397,15.752666 C20.1183397,14.6084317 18.4895011,13.3733715 16.0943581,12.8130868 L16.0947157,11.4171959 Z M13.4276422,20.4171959 C10.6605313,20.4171959 8.22154748,19.6038023 6.78504668,18.3674522 L6.78500642,19.9416734 C6.78500642,21.4143316 9.60814689,22.9944322 13.407814,22.9944322 C17.207481,22.9944322 20.1183397,21.4143316 20.1183397,19.9416734 L20.1181363,18.325743 C18.6883409,19.5854762 16.2257515,20.4171959 13.4276422,20.4171959 Z M13.457454,2.4380885 C15.002677,2.4380885 16.2553277,3.69073922 16.2553277,5.2359622 C16.2553277,5.31232398 16.2522016,5.38865374 16.245957,5.46475977 L15.5783234,13.6016395 C15.4931823,14.6393086 14.6261781,15.4380885 13.5850219,15.4380885 L13.2787061,15.4380885 C12.2340469,15.4380885 11.3653615,14.6340924 11.2846799,13.5925535 L10.6551546,5.46586013 C10.5352663,3.9181929 11.6927098,2.56637205 13.2403771,2.44648373 C13.3126008,2.440889 13.3850139,2.4380885 13.457454,2.4380885 Z M13.5163778,3.94558438 C13.4713974,3.94558438 13.4264393,3.94759107 13.3816378,3.95159848 C12.5959219,4.02187915 12.004517,4.68115474 12.003919,5.45502986 L12.0100271,5.59268912 L12.6944583,13.2444154 C12.7300099,13.6418711 13.0630617,13.9464618 13.4621042,13.9464618 C13.8258916,13.9464618 14.1358977,13.6959147 14.2192611,13.351211 L14.237298,13.2451315 L15.0050196,5.59100905 C15.0099962,5.54139351 15.0124891,5.4915602 15.0124891,5.44169571 C15.0124891,4.61541624 14.3426572,3.94558438 13.5163778,3.94558438 Z" id="Combined-Shape" transform="translate(13.427642, 13.427642) rotate(-45.000000) translate(-13.427642, -13.427642) "></path>
                    </g>
                </g>
            </g>
        </g>
    </g>
</svg>