<?xml version="1.0" encoding="UTF-8"?>
<svg width="23px" height="22px" viewBox="0 0 23 22" version="1.1" xmlns="http://www.w3.org/2000/svg" xmlns:xlink="http://www.w3.org/1999/xlink">
    <title>icon-letter-email-gray</title>
    <g id="Page-1-Icons" stroke="none" stroke-width="1" fill="none" fill-rule="evenodd">
        <g id="PECOS-2.0-Icons-Overview-v25" transform="translate(-2901.000000, -406.000000)" fill="#949494">
            <g id="REVALIDATION-TIMELINE-(v23)" transform="translate(2648.000000, 69.000000)">
                <g id="Gray-icons" transform="translate(252.000000, 50.000000)">
                    <g id="icon-letter-email-gray" transform="translate(1.000000, 287.000000)">
                        <path d="M20.2442696,9 C21.2383821,9 22.0442696,9.77603977 22.0442696,10.7333333 L22.0442696,20.2666667 C22.0442696,21.2239602 21.2383821,22 20.2442696,22 L5.84426956,22 C4.85015701,22 4.04426956,21.2239602 4.04426956,20.2666667 L4.04426956,10.7333333 C4.04426956,9.77603977 4.85015701,9 5.84426956,9 L20.2442696,9 Z M5.494,11.384 L5.49401476,19.6666814 C5.49401476,20.1379018 5.89218651,20.5199013 6.38335626,20.5199013 L19.6046733,20.5199013 C20.095843,20.5199013 20.4940148,20.1379018 20.4940148,19.6666814 L20.494,11.464 L14.1723862,17.1412048 C13.4958323,17.7583302 12.5139923,17.7574306 11.8383792,17.1390663 L5.494,11.384 Z M12.1948379,1.42108547e-14 C12.4635956,1.32733063e-14 12.7210407,0.108180882 12.9091301,0.300152403 L15.7585618,3.20839529 C15.9416971,3.39531048 16.0442696,3.646564 16.0442696,3.90824289 L16.044,8 L14.533,8 L14.5334854,4.54795915 C14.5334854,4.30249926 14.3566103,4.09835078 14.123361,4.05601482 L14.0334854,4.04795915 L12.0442696,4.04795915 L12.0442696,2.05465751 C12.0442696,1.80948929 11.8677988,1.60548079 11.6348702,1.56284675 L11.5451099,1.55465821 L1.60270309,1.53794765 L1.60270309,17.4924736 L3,17.492 L3,19.022 L1,19.0229454 C0.44771525,19.0229454 -1.18298602e-12,18.5752302 -1.18305366e-12,18.0229454 L-1.18305366e-12,1 C-1.18312129e-12,0.44771525 0.44771525,1.43123078e-14 1,1.42108547e-14 L12.1948379,1.42108547e-14 Z M19.6046733,10.3643188 L6.447,10.364 L12.74071,15.9701349 C12.9104523,16.1256046 13.157442,16.125014 13.3265647,15.9687341 L19.7203257,10.3714676 C19.6824705,10.3667513 19.643868,10.3643188 19.6046733,10.3643188 Z M12.0442696,6 L12.0442696,7 L4.04426956,7 L4.04426956,6 L12.0442696,6 Z M10.2664918,4 L10.2664918,5 L4.04426956,5 L4.04426956,4 L10.2664918,4 Z" id="Combined-Shape"></path>
                    </g>
                </g>
            </g>
        </g>
    </g>
</svg>