<?xml version="1.0" encoding="UTF-8"?>
<svg width="187px" height="38px" viewBox="0 0 187 38" version="1.1" xmlns="http://www.w3.org/2000/svg" xmlns:xlink="http://www.w3.org/1999/xlink">
    <title>icon-kb-logo</title>
    <defs>
        <linearGradient x1="0%" y1="21.3317036%" x2="100%" y2="78.6682964%" id="linearGradient-1">
            <stop stop-color="#FFFFFF" offset="0%"></stop>
            <stop stop-color="#FFFFFF" stop-opacity="0.44929387" offset="100%"></stop>
        </linearGradient>
        <linearGradient x1="8.30991637%" y1="0%" x2="108.606694%" y2="100%" id="linearGradient-2">
            <stop stop-color="#FFFFFF" offset="0%"></stop>
            <stop stop-color="#FFFFFF" stop-opacity="0.482005299" offset="100%"></stop>
        </linearGradient>
        <rect id="path-3" x="33" y="11" width="11" height="17"></rect>
        <filter x="-40.9%" y="-26.5%" width="181.8%" height="152.9%" filterUnits="objectBoundingBox" id="filter-4">
            <feMorphology radius="0.5" operator="dilate" in="SourceAlpha" result="shadowSpreadOuter1"></feMorphology>
            <feOffset dx="0" dy="0" in="shadowSpreadOuter1" result="shadowOffsetOuter1"></feOffset>
            <feGaussianBlur stdDeviation="1" in="shadowOffsetOuter1" result="shadowBlurOuter1"></feGaussianBlur>
            <feColorMatrix values="0 0 0 0 0.0196078431   0 0 0 0 0.450980392   0 0 0 0 0.733333333  0 0 0 0.635171957 0" type="matrix" in="shadowBlurOuter1"></feColorMatrix>
        </filter>
        <path d="M35.5830078,27 L35.5830078,22.1572266 L36.7983398,21.2851562 L40.3515625,27 L43.6171875,27 L38.8486328,19.4389648 L43.5800781,13.4365234 L40.3886719,13.4365234 L36.7148438,18.0473633 L35.5830078,19.6430664 L35.5830078,13.4365234 L32.7070312,13.4365234 L32.7070312,27 L35.5830078,27 Z M47.9311523,27 L47.9311523,22.1201172 C47.9311523,20.8955078 48.1074219,20.0187988 48.4599609,19.4899902 C48.8125,18.9611816 49.3846029,18.6967773 50.1762695,18.6967773 C50.7576497,18.6967773 51.1813151,18.8838704 51.4472656,19.2580566 C51.7132161,19.6322428 51.8461914,20.1935221 51.8461914,20.9418945 L51.8461914,20.9418945 L51.8461914,27 L54.6757812,27 L54.6757812,20.2368164 C54.6757812,19.0060221 54.363444,18.0643717 53.7387695,17.4118652 C53.1140951,16.7593587 52.1987305,16.4331055 50.9926758,16.4331055 C50.2875977,16.4331055 49.6582845,16.5614421 49.1047363,16.8181152 C48.5511882,17.0747884 48.1166992,17.4536133 47.8012695,17.9545898 L47.8012695,17.9545898 L47.6435547,17.9545898 L47.2631836,16.6279297 L45.1015625,16.6279297 L45.1015625,27 L47.9311523,27 Z M61.9584961,27.1855469 C63.5480143,27.1855469 64.7880859,26.7093099 65.6787109,25.7568359 C66.5693359,24.804362 67.0146484,23.4838867 67.0146484,21.7954102 C67.0146484,20.7068685 66.8105469,19.757487 66.4023438,18.9472656 C65.9941406,18.1370443 65.409668,17.5154622 64.6489258,17.0825195 C63.8881836,16.6495768 63.0099284,16.4331055 62.0141602,16.4331055 C60.4122721,16.4331055 59.1691081,16.9031576 58.284668,17.8432617 C57.4002279,18.7833659 56.9580078,20.1007487 56.9580078,21.7954102 C56.9580078,22.8839518 57.1621094,23.8364258 57.5703125,24.652832 C57.9785156,25.4692383 58.5629883,26.095459 59.3237305,26.5314941 C60.0844727,26.9675293 60.9627279,27.1855469 61.9584961,27.1855469 Z M61.9956055,24.9125977 C61.2348633,24.9125977 60.6859538,24.6497396 60.348877,24.1240234 C60.0118001,23.5983073 59.8432617,22.8221029 59.8432617,21.7954102 C59.8432617,20.7625326 60.0102539,19.9909668 60.3442383,19.4807129 C60.6782227,18.970459 61.2224935,18.715332 61.9770508,18.715332 C62.737793,18.715332 63.2851562,18.9720052 63.6191406,19.4853516 C63.953125,19.9986979 64.1201172,20.7687174 64.1201172,21.7954102 C64.1201172,22.8282878 63.9546712,23.6060384 63.6237793,24.1286621 C63.2928874,24.6512858 62.7501628,24.9125977 61.9956055,24.9125977 Z M74.046875,27 L75.9394531,18.7895508 L76.0043945,18.7895508 L77.0805664,23.3725586 L77.878418,27 L80.9584961,27 L83.9458008,16.6279297 L81.171875,16.6279297 L79.9287109,21.2202148 C79.866862,21.4923503 79.7648112,22.0165202 79.6225586,22.7927246 C79.480306,23.568929 79.3813477,24.1796875 79.3256836,24.625 L79.3256836,24.625 L79.2700195,24.625 C79.2638346,24.4518229 79.2406413,24.2214355 79.2004395,23.9338379 C79.1602376,23.6462402 79.1153971,23.3524577 79.065918,23.0524902 C79.0164388,22.7525228 78.9654134,22.4695638 78.9128418,22.2036133 C78.8602702,21.9376628 78.8216146,21.7366536 78.796875,21.6005859 L78.796875,21.6005859 L77.581543,16.6279297 L74.4643555,16.6279297 L73.184082,21.6005859 L73.0356445,22.3891602 C72.8439128,23.409668 72.7356771,24.1549479 72.7109375,24.625 L72.7109375,24.625 L72.6552734,24.625 C72.4573568,23.1777344 72.2625326,22.042806 72.0708008,21.2202148 L72.0708008,21.2202148 L70.8740234,16.6279297 L68.0537109,16.6279297 L71.0039062,27 L74.046875,27 Z M88.4453125,27 L88.4453125,12.5644531 L85.6157227,12.5644531 L85.6157227,27 L88.4453125,27 Z M96.1083984,27.1855469 C96.9186198,27.1855469 97.6051432,27.1252441 98.1679688,27.0046387 C98.7307943,26.8840332 99.2596029,26.7000326 99.7543945,26.4526367 L99.7543945,26.4526367 L99.7543945,24.2631836 C99.1482747,24.5476888 98.5668945,24.7548828 98.0102539,24.8847656 C97.4536133,25.0146484 96.8629557,25.0795898 96.2382812,25.0795898 C95.4342448,25.0795898 94.8095703,24.8538411 94.3642578,24.4023438 C93.9189453,23.9508464 93.6808268,23.3230794 93.6499023,22.519043 L93.6499023,22.519043 L100.338867,22.519043 L100.338867,21.1459961 C100.338867,19.6739909 99.9306641,18.5205078 99.1142578,17.6855469 C98.2978516,16.8505859 97.1567383,16.4331055 95.690918,16.4331055 C94.1570638,16.4331055 92.9556478,16.9077962 92.0866699,17.8571777 C91.2176921,18.8065592 90.7832031,20.1502279 90.7832031,21.8881836 C90.7832031,23.5766602 91.2532552,24.8816732 92.1933594,25.8032227 C93.1334635,26.7247721 94.4384766,27.1855469 96.1083984,27.1855469 Z M97.6855469,20.6357422 L93.7148438,20.6357422 C93.7643229,19.936849 93.9591471,19.3972168 94.2993164,19.0168457 C94.6394857,18.6364746 95.1095378,18.4462891 95.7094727,18.4462891 C96.3094076,18.4462891 96.7856445,18.6364746 97.1381836,19.0168457 C97.4907227,19.3972168 97.6731771,19.936849 97.6855469,20.6357422 L97.6855469,20.6357422 Z M105.923828,27.1855469 C107.241211,27.1855469 108.221517,26.675293 108.864746,25.6547852 L108.864746,25.6547852 L108.985352,25.6547852 L109.532715,27 L111.703613,27 L111.703613,12.5644531 L108.864746,12.5644531 L108.864746,15.8857422 C108.864746,16.491862 108.935872,17.1814779 109.078125,17.9545898 L109.078125,17.9545898 L108.985352,17.9545898 C108.298828,16.9402669 107.30306,16.4331055 105.998047,16.4331055 C104.754883,16.4331055 103.779215,16.9077962 103.071045,17.8571777 C102.362874,18.8065592 102.008789,20.1316732 102.008789,21.8325195 C102.008789,23.5086263 102.356689,24.8198242 103.05249,25.7661133 C103.748291,26.7124023 104.705404,27.1855469 105.923828,27.1855469 Z M106.916504,24.9311523 C106.260905,24.9311523 105.756836,24.6760254 105.404297,24.1657715 C105.051758,23.6555176 104.875488,22.8901367 104.875488,21.8696289 C104.875488,20.8491211 105.050212,20.0713704 105.399658,19.536377 C105.749105,19.0013835 106.239258,18.7338867 106.870117,18.7338867 C107.643229,18.7338867 108.201416,18.9750977 108.544678,19.4575195 C108.887939,19.9399414 109.05957,20.737793 109.05957,21.8510742 L109.05957,21.8510742 L109.05957,22.1572266 C109.028646,23.1653646 108.844645,23.8797201 108.507568,24.300293 C108.170492,24.7208659 107.640137,24.9311523 106.916504,24.9311523 Z M117.696777,31.5644531 C119.589355,31.5644531 121.04126,31.2304688 122.05249,30.5625 C123.063721,29.8945312 123.569336,28.9544271 123.569336,27.7421875 C123.569336,26.7958984 123.270915,26.0784505 122.674072,25.5898438 C122.07723,25.101237 121.209798,24.8569336 120.071777,24.8569336 L120.071777,24.8569336 L118.309082,24.8569336 C117.27002,24.8569336 116.750488,24.652832 116.750488,24.2446289 C116.750488,23.9724935 116.895833,23.7250977 117.186523,23.5024414 L117.186523,23.5024414 L117.604004,23.5488281 L118.114258,23.5766602 C119.49349,23.5766602 120.571208,23.2658691 121.347412,22.6442871 C122.123617,22.0227051 122.511719,21.1552734 122.511719,20.0419922 C122.511719,19.4667969 122.363281,18.9472656 122.066406,18.4833984 L122.066406,18.4833984 L123.689941,18.065918 L123.689941,16.6279297 L120.071777,16.6279297 C119.960449,16.6031901 119.705322,16.5645345 119.306396,16.5119629 C118.907471,16.4593913 118.562663,16.4331055 118.271973,16.4331055 C116.905111,16.4331055 115.853678,16.7423503 115.117676,17.3608398 C114.381673,17.9793294 114.013672,18.8544922 114.013672,19.9863281 C114.013672,20.6914062 114.172933,21.3037109 114.491455,21.8232422 C114.809977,22.3427734 115.241374,22.7200521 115.785645,22.9550781 C115.352702,23.2086589 115.02181,23.4668783 114.792969,23.7297363 C114.564128,23.9925944 114.449707,24.3219401 114.449707,24.7177734 C114.449707,25.0332031 114.557943,25.3316243 114.774414,25.6130371 C114.990885,25.8944499 115.244466,26.0970052 115.535156,26.2207031 C114.780599,26.4000651 114.208496,26.7000326 113.818848,27.1206055 C113.429199,27.5411784 113.234375,28.0638021 113.234375,28.6884766 C113.234375,29.5976562 113.616292,30.3042806 114.380127,30.8083496 C115.143962,31.3124186 116.249512,31.5644531 117.696777,31.5644531 Z M118.271973,21.8510742 C117.746257,21.8510742 117.355062,21.6871745 117.098389,21.359375 C116.841715,21.0315755 116.713379,20.586263 116.713379,20.0234375 C116.713379,18.7740885 117.23291,18.1494141 118.271973,18.1494141 C119.298665,18.1494141 119.812012,18.7740885 119.812012,20.0234375 C119.812012,20.586263 119.688314,21.0315755 119.440918,21.359375 C119.193522,21.6871745 118.803874,21.8510742 118.271973,21.8510742 Z M117.817383,29.7182617 C117.143229,29.7182617 116.619059,29.6069336 116.244873,29.3842773 C115.870687,29.1616211 115.683594,28.8554688 115.683594,28.4658203 C115.683594,28.0638021 115.858317,27.7406413 116.207764,27.4963379 C116.55721,27.2520345 116.991699,27.1298828 117.51123,27.1298828 L117.51123,27.1298828 L118.977051,27.1298828 C119.688314,27.1298828 120.21403,27.2041016 120.554199,27.3525391 C120.894368,27.5009766 121.064453,27.7700195 121.064453,28.159668 C121.064453,28.6420898 120.776855,29.0224609 120.20166,29.3007812 C119.626465,29.5791016 118.831706,29.7182617 117.817383,29.7182617 Z M130.091309,27.1855469 C130.90153,27.1855469 131.588053,27.1252441 132.150879,27.0046387 C132.713704,26.8840332 133.242513,26.7000326 133.737305,26.4526367 L133.737305,26.4526367 L133.737305,24.2631836 C133.131185,24.5476888 132.549805,24.7548828 131.993164,24.8847656 C131.436523,25.0146484 130.845866,25.0795898 130.221191,25.0795898 C129.417155,25.0795898 128.79248,24.8538411 128.347168,24.4023438 C127.901855,23.9508464 127.663737,23.3230794 127.632812,22.519043 L127.632812,22.519043 L134.321777,22.519043 L134.321777,21.1459961 C134.321777,19.6739909 133.913574,18.5205078 133.097168,17.6855469 C132.280762,16.8505859 131.139648,16.4331055 129.673828,16.4331055 C128.139974,16.4331055 126.938558,16.9077962 126.06958,17.8571777 C125.200602,18.8065592 124.766113,20.1502279 124.766113,21.8881836 C124.766113,23.5766602 125.236165,24.8816732 126.17627,25.8032227 C127.116374,26.7247721 128.421387,27.1855469 130.091309,27.1855469 Z M131.668457,20.6357422 L127.697754,20.6357422 C127.747233,19.936849 127.942057,19.3972168 128.282227,19.0168457 C128.622396,18.6364746 129.092448,18.4462891 129.692383,18.4462891 C130.292318,18.4462891 130.768555,18.6364746 131.121094,19.0168457 C131.473633,19.3972168 131.656087,19.936849 131.668457,20.6357422 L131.668457,20.6357422 Z M146.669922,27 C148.141927,27 149.287679,26.6598307 150.107178,25.9794922 C150.926676,25.2991536 151.336426,24.3528646 151.336426,23.140625 C151.336426,21.3284505 150.306641,20.2460938 148.24707,19.8935547 L148.24707,19.8935547 L148.24707,19.8007812 C149.106771,19.6461589 149.760824,19.3075358 150.209229,18.7849121 C150.657633,18.2622884 150.881836,17.5989583 150.881836,16.7949219 C150.881836,15.6321615 150.479818,14.7817383 149.675781,14.2436523 C148.871745,13.7055664 147.569824,13.4365234 145.77002,13.4365234 L145.77002,13.4365234 L141.938477,13.4365234 L141.938477,27 L146.669922,27 Z M146.113281,19.2441406 L143.515625,19.2441406 L143.515625,14.800293 L145.834961,14.800293 C147.022461,14.800293 147.888346,14.9688314 148.432617,15.3059082 C148.976888,15.642985 149.249023,16.1918945 149.249023,16.9526367 C149.249023,17.7814128 149.00472,18.3705241 148.516113,18.7199707 C148.027507,19.0694173 147.226562,19.2441406 146.113281,19.2441406 L146.113281,19.2441406 Z M146.345215,25.6547852 L143.515625,25.6547852 L143.515625,20.5800781 L146.215332,20.5800781 C147.371908,20.5800781 148.233154,20.7779948 148.799072,21.1738281 C149.36499,21.5696615 149.647949,22.188151 149.647949,23.0292969 C149.647949,23.9322917 149.371175,24.5956217 148.817627,25.0192871 C148.264079,25.4429525 147.439941,25.6547852 146.345215,25.6547852 L146.345215,25.6547852 Z M156.485352,27.1855469 C157.239909,27.1855469 157.869222,27.0726725 158.373291,26.8469238 C158.87736,26.6211751 159.382975,26.1897786 159.890137,25.5527344 L159.890137,25.5527344 L159.964355,25.5527344 L160.270508,27 L161.411621,27 L161.411621,20.0605469 C161.411621,18.8730469 161.119385,18.0102539 160.534912,17.472168 C159.950439,16.934082 159.052083,16.6650391 157.839844,16.6650391 C157.239909,16.6650391 156.64152,16.7423503 156.044678,16.8969727 C155.447835,17.0515951 154.898926,17.264974 154.397949,17.5371094 L154.397949,17.5371094 L154.871094,18.715332 C155.941081,18.1958008 156.89974,17.9360352 157.74707,17.9360352 C158.501628,17.9360352 159.050537,18.1262207 159.393799,18.5065918 C159.737061,18.8869629 159.908691,19.4760742 159.908691,20.2739258 L159.908691,20.2739258 L159.908691,20.9047852 L158.183105,20.9604492 C154.898926,21.0594076 153.256836,22.1355794 153.256836,24.1889648 C153.256836,25.1476237 153.542887,25.8867188 154.11499,26.40625 C154.687093,26.9257812 155.477214,27.1855469 156.485352,27.1855469 Z M156.791504,25.9145508 C156.185384,25.9145508 155.713786,25.7692057 155.376709,25.4785156 C155.039632,25.1878255 154.871094,24.7641602 154.871094,24.2075195 C154.871094,23.4962565 155.141683,22.9720866 155.682861,22.6350098 C156.22404,22.2979329 157.106934,22.1077474 158.331543,22.0644531 L158.331543,22.0644531 L159.871582,21.9995117 L159.871582,22.9179688 C159.871582,23.8642578 159.5979,24.6002604 159.050537,25.1259766 C158.503174,25.6516927 157.750163,25.9145508 156.791504,25.9145508 Z M167.117188,27.1855469 C168.391276,27.1855469 169.380859,26.9288737 170.085938,26.4155273 C170.791016,25.902181 171.143555,25.1723633 171.143555,24.2260742 C171.143555,23.5519206 170.931722,22.9921875 170.508057,22.546875 C170.084391,22.1015625 169.269531,21.6593424 168.063477,21.2202148 C167.185221,20.8924154 166.591471,20.6419271 166.282227,20.46875 C165.972982,20.2955729 165.748779,20.1131185 165.609619,19.9213867 C165.470459,19.7296549 165.400879,19.4977214 165.400879,19.2255859 C165.400879,18.8235677 165.586426,18.508138 165.95752,18.2792969 C166.328613,18.0504557 166.879069,17.9360352 167.608887,17.9360352 C168.437663,17.9360352 169.362305,18.1463216 170.382812,18.5668945 L170.382812,18.5668945 L170.930176,17.3144531 C169.884928,16.8691406 168.814941,16.6464844 167.720215,16.6464844 C166.545085,16.6464844 165.620443,16.8861491 164.946289,17.3654785 C164.272135,17.8448079 163.935059,18.4988607 163.935059,19.3276367 C163.935059,19.7915039 164.032471,20.1904297 164.227295,20.5244141 C164.422119,20.8583984 164.718994,21.1568197 165.11792,21.4196777 C165.516846,21.6825358 166.189453,21.9902344 167.135742,22.3427734 C168.13151,22.726237 168.801025,23.0586751 169.144287,23.3400879 C169.487549,23.6215007 169.65918,23.9601237 169.65918,24.355957 C169.65918,24.8816732 169.442708,25.2728678 169.009766,25.529541 C168.576823,25.7862142 167.958333,25.9145508 167.154297,25.9145508 C166.634766,25.9145508 166.095133,25.8434245 165.5354,25.7011719 C164.975667,25.5589193 164.451497,25.3640951 163.962891,25.1166992 L163.962891,25.1166992 L163.962891,26.5454102 C164.717448,26.972168 165.76888,27.1855469 167.117188,27.1855469 Z M177.943848,27.1855469 C178.630371,27.1855469 179.21639,27.1345215 179.701904,27.0324707 C180.187419,26.9304199 180.702311,26.7618815 181.246582,26.5268555 L181.246582,26.5268555 L181.246582,25.1538086 C180.176595,25.6114909 179.094238,25.840332 177.999512,25.840332 C176.960449,25.840332 176.154867,25.5310872 175.582764,24.9125977 C175.010661,24.2941081 174.709147,23.3880208 174.678223,22.1943359 L174.678223,22.1943359 L181.682617,22.1943359 L181.682617,21.2202148 C181.682617,19.847168 181.311523,18.7416178 180.569336,17.9035645 C179.827148,17.0655111 178.81901,16.6464844 177.544922,16.6464844 C176.184245,16.6464844 175.100342,17.1289062 174.293213,18.09375 C173.486084,19.0585938 173.08252,20.3605143 173.08252,21.9995117 C173.08252,23.6261393 173.517008,24.8971354 174.385986,25.8125 C175.254964,26.7278646 176.440918,27.1855469 177.943848,27.1855469 Z M180.03125,20.9418945 L174.715332,20.9418945 C174.801921,20.0017904 175.087972,19.2657878 175.573486,18.7338867 C176.059001,18.2019857 176.709961,17.9360352 177.526367,17.9360352 C178.330404,17.9360352 178.948893,18.1942546 179.381836,18.7106934 C179.814779,19.2271322 180.03125,19.9708659 180.03125,20.9418945 L180.03125,20.9418945 Z" id="path-5"></path>
        <filter x="-4.0%" y="-31.6%" width="108.1%" height="163.2%" filterUnits="objectBoundingBox" id="filter-6">
            <feOffset dx="0" dy="0" in="SourceAlpha" result="shadowOffsetOuter1"></feOffset>
            <feGaussianBlur stdDeviation="2" in="shadowOffsetOuter1" result="shadowBlurOuter1"></feGaussianBlur>
            <feColorMatrix values="0 0 0 0 0   0 0 0 0 0.236007562   0 0 0 0 0.390485238  0 0 0 0.563681436 0" type="matrix" in="shadowBlurOuter1"></feColorMatrix>
        </filter>
    </defs>
    <g id="Page-1-Icons" stroke="none" stroke-width="1" fill="none" fill-rule="evenodd">
        <g id="PECOS-2.0-Icons-Overview-v21" transform="translate(-59.000000, -2431.000000)">
            <g id="Home-Page-Icons" transform="translate(26.000000, 1490.000000)">
                <g id="icon-kb-logo" transform="translate(34.000000, 941.000000)">
                    <g id="book" opacity="0.389724005">
                        <path d="M2.34515906,4.50420472 L21.1672232,7.66015773 C21.3875366,7.69709836 21.6124634,7.69709836 21.8327768,7.66015773 L40.6548409,4.50420472 C41.7509477,4.32041716 42.788507,5.05999796 42.9722945,6.15610467 C42.9907329,6.26607117 43,6.37737989 43,6.48888149 L43,31.5030673 C43,32.4909932 42.2828741,33.3328188 41.3075101,33.4898615 L21.869268,36.6195989 C21.6578576,36.6536379 21.4423692,36.6537166 21.230934,36.6198319 L1.69394055,33.4888264 C0.717912922,33.3324079 3.63284771e-15,32.4902812 0,31.5017992 L0,6.48888149 C-1.02428665e-15,5.37747347 0.900974217,4.47649925 2.01238224,4.47649925 C2.12388384,4.47649925 2.23519255,4.4857663 2.34515906,4.50420472 Z" id="Rectangle" stroke="url(#linearGradient-1)" stroke-width="2" fill="#0573BB"></path>
                        <path d="M7.43431877,1.25190175 L20.6387293,7.09894669 C21.156258,7.32811355 21.7463675,7.32874378 22.2643845,7.10068287 L35.5696134,1.24295456 C36.5868052,0.795128106 37.7744372,1.25668995 38.2222637,2.2738818 C38.3347613,2.52940859 38.3928571,2.80554867 38.3928571,3.08474333 L38.3928571,28.8654102 C38.3928571,29.6877327 37.8925328,30.4273249 37.1292546,30.7332997 L22.2606533,36.6936662 C21.7709042,36.8899916 21.2236402,36.8861168 20.7367202,36.6828764 L5.84437164,30.4668099 C5.09508104,30.154056 4.60714286,29.4216531 4.60714286,28.6097101 L4.60714286,3.09195434 C4.60714286,1.98054632 5.50811707,1.0795721 6.61952509,1.0795721 C6.90016814,1.0795721 7.17770849,1.13827215 7.43431877,1.25190175 Z" id="Rectangle" stroke="url(#linearGradient-2)" stroke-width="2" fill="#0573BB"></path>
                        <rect id="Rectangle" fill="#FFFFFF" x="20.2862903" y="7.41606484" width="2" height="29.3862658"></rect>
                    </g>
                    <g id="Rectangle">
                        <use fill="black" fill-opacity="1" filter="url(#filter-4)" xlink:href="#path-3"></use>
                        <use fill="#0573BB" fill-rule="evenodd" xlink:href="#path-3"></use>
                    </g>
                    <g id="KnowledgeBase" fill-rule="nonzero">
                        <use fill="black" fill-opacity="1" filter="url(#filter-6)" xlink:href="#path-5"></use>
                        <use fill="#FFFFFF" xlink:href="#path-5"></use>
                    </g>
                </g>
            </g>
        </g>
    </g>
</svg>