<?xml version="1.0" encoding="UTF-8"?>
<svg width="20px" height="20px" viewBox="0 0 20 20" version="1.1" xmlns="http://www.w3.org/2000/svg" xmlns:xlink="http://www.w3.org/1999/xlink">
    <title>icon-print</title>
    <g id="Page-1-Icons" stroke="none" stroke-width="1" fill="none" fill-rule="evenodd">
        <g id="PECOS-2.0-Icons-Overview-v28" transform="translate(-2088.000000, -995.000000)" fill="#0573BB">
            <g id="KNOWLEDGE-BASE" transform="translate(2072.000000, 879.000000)">
                <g id="icon-print" transform="translate(16.000000, 116.000000)">
                    <path d="M12.9732189,0 L15.9989147,3.02172852 L15.998,9.032 L18,9.03222656 C19.1045695,9.03222656 20,9.92765706 20,11.0322266 L20,17.0322266 C20,17.5845113 19.5522847,18.0322266 19,18.0322266 L17.321,18.032 L17.5424974,18.6738712 C17.7226134,19.19596 17.4453896,19.7652094 16.9233009,19.9453253 C16.8183788,19.9815225 16.7081626,20 16.5971721,20 L3.45548568,20 C2.90320093,20 2.45548568,19.5522847 2.45548568,19 C2.45548568,18.888613 2.47409538,18.7780087 2.51054624,18.6727547 L2.732,18.032 L1,18.0322266 C0.44771525,18.0322266 6.76353751e-17,17.5845113 0,17.0322266 L0,11.0322266 C-1.3527075e-16,9.92765706 0.8954305,9.03222656 2,9.03222656 L3.991,9.032 L3.97465533,1.00210717 C3.97349157,0.449823646 4.42026242,0.00116597764 4.97254594,2.22008404e-06 L12.9732189,0 Z M14.5004883,16 L5.42382813,16 L4.72937012,18 L15.2923584,18 L14.5004883,16 Z M17,11.0327148 L3,11.0327148 C2.44771525,11.0327148 2,11.4804301 2,12.0327148 L2,12.0327148 L2,15.5327148 C2,15.8088572 2.22385763,16.0327148 2.5,16.0327148 L2.5,16.0327148 L3.424,16.032 L3.89580015,14.6727547 C4.03525618,14.2700674 4.41458816,14 4.84073958,14 L15.2172079,14 C15.6437934,14 16.0234115,14.2706092 16.1625332,14.6738712 L16.631,16.032 L17.5,16.0327148 C17.7454599,16.0327148 17.9496084,15.8558397 17.9919443,15.6225905 L18,15.5327148 L18,12.0327148 C18,11.4804301 17.5522847,11.0327148 17,11.0327148 L17,11.0327148 Z M12.0151978,2.01563454 L6.52124023,2.01563454 C6.27578035,2.01563454 6.07163186,2.1925097 6.0292959,2.4257589 L6.02124023,2.51563454 L6.021,9.032 L14.007,9.032 L14.007925,3.99929428 L12.5151978,3.99929428 C12.2697379,3.99929428 12.0655894,3.82241912 12.0232534,3.58916991 L12.0151978,3.49929428 L12.0151978,2.01563454 Z M12.5,7 C12.7761424,7 13,7.22385763 13,7.5 C13,7.77614237 12.7761424,8 12.5,8 L7.5,8 C7.22385763,8 7,7.77614237 7,7.5 C7,7.22385763 7.22385763,7 7.5,7 L12.5,7 Z M12.5,5 C12.7761424,5 13,5.22385763 13,5.5 C13,5.77614237 12.7761424,6 12.5,6 L7.5,6 C7.22385763,6 7,5.77614237 7,5.5 C7,5.22385763 7.22385763,5 7.5,5 L12.5,5 Z M10.25,3 C10.5261424,3 10.75,3.22385763 10.75,3.5 C10.75,3.77614237 10.5261424,4 10.25,4 L7.5,4 C7.22385763,4 7,3.77614237 7,3.5 C7,3.22385763 7.22385763,3 7.5,3 L10.25,3 Z"></path>
                </g>
            </g>
        </g>
    </g>
</svg>