<?xml version="1.0" encoding="UTF-8"?>
<svg width="65px" height="65px" viewBox="0 0 65 65" version="1.1" xmlns="http://www.w3.org/2000/svg" xmlns:xlink="http://www.w3.org/1999/xlink">
    <title>icon-faqs-white</title>
    <g id="Page-1-Icons" stroke="none" stroke-width="1" fill="none" fill-rule="evenodd">
        <g id="PECOS-2.0-Icons-Overview-v21" transform="translate(-451.000000, -2367.000000)" fill="#FFFFFF">
            <g id="Home-Page-Icons" transform="translate(26.000000, 1490.000000)">
                <g id="icon-faqs-white" transform="translate(425.539642, 877.520120)">
                    <g id="icon-home-provider-faqs-copy" transform="translate(1.037842, 2.042480)">
                        <path d="M32.0166016,-1.0658141e-14 C36.4348796,-1.14697655e-14 40.0166016,3.581722 40.0166016,8 L40.0166016,21.9575195 L37.9621582,21.9575195 L37.9621582,7.95751953 C37.9621582,4.64381103 35.2758667,1.95751953 31.9621582,1.95751953 L7.9621582,1.95751953 C4.72376126,1.95751953 2.08458644,4.52309442 1.96629668,7.73258127 L1.9621582,7.95751953 L1.9621582,21.9575195 C1.9621582,25.1959165 4.52773309,27.8350913 7.73721994,27.9533811 L7.9621582,27.9575195 L8.99707031,27.9575195 L8.99707031,34.3417969 L15.9599609,27.9575195 L19.962,27.957 L19.962,29.957 L16.9353027,29.9575195 L8.63190384,37.4662278 C8.22226946,37.8366575 7.58990262,37.8048757 7.21947298,37.3952414 C7.05322916,37.211403 6.96118164,36.9723771 6.96118164,36.7245192 L6.96118164,29.9575195 C3.11662718,29.9575195 9.55046788e-15,26.8408924 -7.10542736e-15,22.9963379 L-7.10542736e-15,8 C-9.4228672e-15,3.581722 3.581722,-9.84651654e-15 8,-1.0658141e-14 L32.0166016,-1.0658141e-14 Z" id="Combined-Shape"></path>
                        <path d="M54.0083008,24.0991211 C58.4265788,24.0991211 62.0083008,27.6808431 62.0083008,32.0991211 L62.0083008,45.9575195 C62.0083008,50.3757975 58.4265788,53.9575195 54.0083008,53.9575195 L38.0473633,53.9575195 L29.7439644,61.4662278 C29.33433,61.8366575 28.7019632,61.8048757 28.3315335,61.3952414 C28.1652897,61.211403 28.0732422,60.9723771 28.0732422,60.7245192 L28.0732422,53.9575195 C24.0431315,52.6241862 22.0280762,50.2931315 22.0280762,46.9643555 C22.0379535,46.8837692 22.0446593,46.0432626 22.0481935,44.4428356 L22.049011,44.0268971 C22.0491363,43.9549354 22.049256,43.8816544 22.0493702,43.8070541 L22.0499895,43.3436207 C22.0500817,43.2637432 22.0501684,43.1825463 22.0502496,43.1000302 L22.0510545,41.7633402 C22.0510806,41.667631 22.0511012,41.5706025 22.0511163,41.4722547 L22.0511037,40.5515031 C22.0510858,40.4452395 22.0510624,40.3376565 22.0510334,40.2287543 L22.0501865,38.4962724 C22.0501025,38.3741771 22.050013,38.2507624 22.049918,38.1260285 L22.0492819,37.3617932 C22.0491648,37.2317821 22.0490423,37.1004516 22.0489143,36.9678018 L22.0480799,36.1560715 C22.0467293,34.9147285 22.0449327,33.5665217 22.0426901,32.1114511 C22.0358803,27.6931782 25.612078,24.1059401 30.0303508,24.0991306 L54.0083008,24.0991211 Z M54.0742187,25.9575195 L30.0742187,25.9575195 C26.7605103,25.9575195 24.0742187,28.643811 24.0742187,31.9575195 L24.0742187,31.9575195 L24.0742187,46.0610352 C24.0742187,49.3175736 26.7141647,51.9575195 29.9707031,51.9575195 L29.9707031,51.9575195 L29.9707031,58.0117187 L37.2021701,51.9575195 L54.0742187,51.9575195 C57.3879272,51.9575195 60.0742187,49.271228 60.0742187,45.9575195 L60.0742187,45.9575195 L60.0742187,31.9575195 C60.0742187,28.643811 57.3879272,25.9575195 54.0742187,25.9575195 L54.0742187,25.9575195 Z" id="Combined-Shape" transform="translate(42.018188, 42.911824) scale(-1, 1) translate(-42.018188, -42.911824) "></path>
                        <text id="A" font-family="OpenSans-Semibold, Open Sans" font-size="16" font-weight="500">
                            <tspan x="36.6730957" y="42.9575195">A</tspan>
                        </text>
                        <text id="Q" font-family="OpenSans-Semibold, Open Sans" font-size="16" font-weight="500">
                            <tspan x="13.1652832" y="18.9575195">Q</tspan>
                        </text>
                    </g>
                </g>
            </g>
        </g>
    </g>
</svg>