<?xml version="1.0" encoding="UTF-8"?>
<svg width="90px" height="98px" viewBox="0 0 90 98" version="1.1" xmlns="http://www.w3.org/2000/svg" xmlns:xlink="http://www.w3.org/1999/xlink">
    <title>icon-home-getting-started</title>
    <defs>
        <path d="M44.4250107,69.4357193 C44.9772954,69.4357193 45.4250107,69.8834345 45.4250107,70.4357193 L45.4250107,82.4357193 C45.4250107,82.988004 44.9772954,83.4357193 44.4250107,83.4357193 C43.8727259,83.4357193 43.4250107,82.988004 43.4250107,82.4357193 L43.4250107,70.4357193 C43.4250107,69.8834345 43.8727259,69.4357193 44.4250107,69.4357193 Z M48.4250107,69.4357193 C48.9772954,69.4357193 49.4250107,69.8834345 49.4250107,70.4357193 L49.4250107,79.4357193 C49.4250107,79.988004 48.9772954,80.4357193 48.4250107,80.4357193 C47.8727259,80.4357193 47.4250107,79.988004 47.4250107,79.4357193 L47.4250107,70.4357193 C47.4250107,69.8834345 47.8727259,69.4357193 48.4250107,69.4357193 Z M40.4250107,69.4357193 C40.9772954,69.4357193 41.4250107,69.8834345 41.4250107,70.4357193 L41.4250107,79.4357193 C41.4250107,79.988004 40.9772954,80.4357193 40.4250107,80.4357193 C39.8727259,80.4357193 39.4250107,79.988004 39.4250107,79.4357193 L39.4250107,70.4357193 C39.4250107,69.8834345 39.8727259,69.4357193 40.4250107,69.4357193 Z M45.6907393,7.10920216 C45.8489573,7.22721475 45.9888342,7.36799872 46.1058216,7.52697631 C52.9864661,16.8772869 56.4267883,26.5332718 56.4267883,36.494931 C56.4267883,38.1334842 56.3956525,39.6902478 56.3333808,41.165222 L63.9023809,50.1448584 C64.0543924,50.3252048 64.137764,50.5534785 64.137764,50.7893435 L64.137764,50.7893435 L64.137764,61.6258469 C64.137764,61.8123093 64.0856308,61.9950577 63.9872517,62.1534552 C63.6958617,62.6226144 63.0793148,62.7667247 62.6101557,62.4753347 L62.6101557,62.4753347 L53.4242793,56.7692908 L53.4250107,61.4357193 C53.4250107,61.988004 52.9772954,62.4357193 52.4250107,62.4357193 L51.4242793,62.4352908 L51.4250107,66.4357193 C51.4250107,66.988004 50.9772954,67.4357193 50.4250107,67.4357193 L38.4250107,67.4357193 C37.8727259,67.4357193 37.4250107,66.988004 37.4250107,66.4357193 L37.4242793,62.4352908 L36.4250107,62.4357193 C35.8727259,62.4357193 35.4250107,61.988004 35.4250107,61.4357193 L35.4242793,56.6862908 L25.9638876,62.563376 C25.4947285,62.854766 24.8781815,62.7106557 24.5867915,62.2414966 C24.4884124,62.0830991 24.4362793,61.9003506 24.4362793,61.7138882 L24.4362793,50.8773848 C24.4362793,50.6415198 24.5196509,50.4132461 24.6716624,50.2328997 L32.5124928,40.9305977 C32.4553565,39.5254121 32.4267883,38.0468565 32.4267883,36.494931 C32.4267883,26.7288898 35.7769886,17.2566357 42.4773892,8.07816867 L42.8918032,7.51658827 C43.5522115,6.63118684 44.8053379,6.44879386 45.6907393,7.10920216 Z M49.4250107,62.4357193 L39.4250107,62.4357193 L39.4250107,65.4357193 L49.4250107,65.4357193 L49.4250107,62.4357193 Z M51.4250107,57.4357193 L37.4250107,57.4357193 L37.4250107,60.4357193 L51.4250107,60.4357193 L51.4250107,57.4357193 Z M32.6888493,43.9631534 L26.6844699,50.8081835 C26.5511519,50.9601895 26.467676,51.1482663 26.443554,51.3471437 L26.4362793,51.4675641 L26.4362793,59.0044735 C26.4362793,59.048191 26.4477434,59.0911443 26.4695277,59.1290477 C26.5268614,59.2288049 26.6425398,59.2740902 26.7487824,59.2465993 L26.8108535,59.2212251 L34.7160126,54.6778055 C33.7062249,51.9642187 33.0305038,48.392668 32.6888493,43.9631534 Z M54.1576784,54.7623571 L61.7631898,59.1331838 L61.8252608,59.158558 C61.9315035,59.1860489 62.0471819,59.1407636 62.1045156,59.0410064 C62.1262999,59.003103 62.137764,58.9601497 62.137764,58.9164322 L62.137764,58.9164322 L62.137764,51.3795227 L62.1304893,51.2591024 C62.1063673,51.060225 62.0228914,50.8721481 61.8895734,50.7201422 L61.8895734,50.7201422 L56.1537885,44.1815278 C55.8110804,48.5560586 55.1457104,52.0830017 54.1576784,54.7623571 Z M49.929781,18.1722831 L49.7586797,18.2507234 C47.9936886,19.0304235 46.2163914,19.4202735 44.4267883,19.4202735 C42.596716,19.4202735 40.7621271,19.0125924 38.9230217,18.19723 C35.9241225,24.2368918 34.4250107,30.4716999 34.4250107,36.9005491 C34.4250107,45.727834 35.4060652,51.8324157 37.3681742,55.2142943 L37.5004349,55.4357193 L51.42173,55.4357193 C53.4239171,52.1023859 54.4250107,45.9239959 54.4250107,36.9005491 C54.4250107,30.4447967 52.9266008,24.2020414 49.929781,18.1722831 Z M43.6992755,10.4179059 L43.619032,10.5146402 L43.2236663,11.0629605 C41.9785867,12.8104925 40.8656486,14.5751286 39.8848519,16.3568687 C41.4445983,17.0661091 42.9773506,17.4202735 44.483902,17.4202735 C45.9916739,17.4202735 47.4893284,17.065535 48.9768655,16.3560579 C47.8921017,14.3849218 46.6439238,12.4374154 45.2334052,10.5129855 C45.1726211,10.4300551 45.0994109,10.3569949 45.0163561,10.2963809 C44.6045428,9.99583649 44.0398064,10.0559804 43.6992755,10.4179059 Z M44.4267883,27.0542908 C47.7404968,27.0542908 50.4267883,29.7405823 50.4267883,33.0542908 C50.4267883,36.3679993 47.7404968,39.0542908 44.4267883,39.0542908 C41.1130798,39.0542908 38.4267883,36.3679993 38.4267883,33.0542908 C38.4267883,29.7405823 41.1130798,27.0542908 44.4267883,27.0542908 Z M44.4267883,29.0542908 C42.2176493,29.0542908 40.4267883,30.8451518 40.4267883,33.0542908 C40.4267883,35.2634298 42.2176493,37.0542908 44.4267883,37.0542908 C46.6359273,37.0542908 48.4267883,35.2634298 48.4267883,33.0542908 C48.4267883,30.8451518 46.6359273,29.0542908 44.4267883,29.0542908 Z" id="path-1"></path>
        <filter x="-17.6%" y="-5.6%" width="135.3%" height="117.2%" filterUnits="objectBoundingBox" id="filter-2">
            <feOffset dx="0" dy="2" in="SourceAlpha" result="shadowOffsetOuter1"></feOffset>
            <feGaussianBlur stdDeviation="2" in="shadowOffsetOuter1" result="shadowBlurOuter1"></feGaussianBlur>
            <feColorMatrix values="0 0 0 0 0.0196078431   0 0 0 0 0.450980392   0 0 0 0 0.733333333  0 0 0 0.17 0" type="matrix" in="shadowBlurOuter1"></feColorMatrix>
        </filter>
    </defs>
    <g id="Page-1-Icons" stroke="none" stroke-width="1" fill="none" fill-rule="evenodd">
        <g id="PECOS-2.0-Icons-Overview-v21" transform="translate(-45.000000, -2208.000000)">
            <g id="Home-Page-Icons" transform="translate(26.000000, 1490.000000)">
                <g id="icon-home-getting-started" transform="translate(19.000000, 720.000000)">
                    <rect id="62x62-guide-copy" stroke-opacity="0.0994591346" stroke="#000000" x="13.5" y="13.5" width="63" height="63"></rect>
                    <circle id="Oval" fill="#EBF9E8" cx="45" cy="45" r="45"></circle>
                    <g id="Rocket" transform="translate(44.287022, 44.745005) rotate(30.000000) translate(-44.287022, -44.745005) ">
                        <use fill="black" fill-opacity="1" filter="url(#filter-2)" xlink:href="#path-1"></use>
                        <use fill="#0573BB" fill-rule="evenodd" xlink:href="#path-1"></use>
                    </g>
                </g>
            </g>
        </g>
    </g>
</svg>