<?xml version="1.0" encoding="UTF-8"?>
<svg width="91px" height="91px" viewBox="0 0 91 91" version="1.1" xmlns="http://www.w3.org/2000/svg" xmlns:xlink="http://www.w3.org/1999/xlink">
    <title>icon-home-troubleshooting</title>
    <defs>
        <filter id="filter-1">
            <feColorMatrix in="SourceGraphic" type="matrix" values="0 0 0 0 0.019608 0 0 0 0 0.450980 0 0 0 0 0.733333 0 0 0 1.000000 0"></feColorMatrix>
        </filter>
        <filter x="-16.7%" y="-16.7%" width="133.3%" height="133.4%" filterUnits="objectBoundingBox" id="filter-2">
            <feOffset dx="0" dy="2" in="SourceAlpha" result="shadowOffsetOuter1"></feOffset>
            <feGaussianBlur stdDeviation="2" in="shadowOffsetOuter1" result="shadowBlurOuter1"></feGaussianBlur>
            <feColorMatrix values="0 0 0 0 0.0196078431   0 0 0 0 0.450980392   0 0 0 0 0.733333333  0 0 0 0.17 0" type="matrix" in="shadowBlurOuter1" result="shadowMatrixOuter1"></feColorMatrix>
            <feMerge>
                <feMergeNode in="shadowMatrixOuter1"></feMergeNode>
                <feMergeNode in="SourceGraphic"></feMergeNode>
            </feMerge>
        </filter>
    </defs>
    <g id="Page-1-Icons" stroke="none" stroke-width="1" fill="none" fill-rule="evenodd">
        <g id="PECOS-2.0-Icons-Overview-v21" transform="translate(-2079.000000, -1455.000000)">
            <g id="KNOWLEDGE-BASE" transform="translate(2074.000000, 1010.000000)">
                <g id="icon-home-troubleshooting" transform="translate(-0.000000, 440.000000)">
                    <circle id="Oval" fill="#EDFAE8" cx="50.8476004" cy="50.7569665" r="45"></circle>
                    <g filter="url(#filter-1)" id="wrench-and-screwdriver-copy-3">
                        <g filter="url(#filter-2)" transform="translate(50.847600, 50.847600) rotate(-45.000000) translate(-50.847600, -50.847600) translate(14.847600, 14.938234)">
                            <path d="M41,40.818 L41,66.8187322 C41,69.580156 38.7614237,71.8187322 36,71.8187322 C33.2385763,71.8187322 31,69.580156 31,66.8187322 L31,42.818 L33,42.818 L33,66.8187322 C33,68.4164131 34.24892,69.7223931 35.8237272,69.8136396 L36,69.8187322 C37.6568542,69.8187322 39,68.4755865 39,66.8187322 L39,66.8187322 L39,40.818 L41,40.818 Z M38.0004156,0.000184824141 C43.120446,0.940863909 47,5.42673889 47,10.8187322 C47,15.0931612 44.5619686,18.7981574 41.0006412,20.6189853 L41,30.818 L39,30.818 L39.000578,19.3064108 C42.4958532,18.0707384 45,14.7371727 45,10.8187322 C45,7.28544545 42.9639377,4.22770648 40.001093,2.75479518 L40,11.8187322 L32,11.8187322 L31.9999083,2.75429747 C29.036521,4.22701757 27,7.28504742 27,10.8187322 C27,14.7375441 29.5046215,18.0713703 33.0004159,19.3067621 L33,28.818 L31,28.818 L31.0003548,20.6194944 C27.5188339,18.8399179 25.1105854,15.2597669 25.0037074,11.1071397 L25,10.8187322 C25,5.42638566 28.8800623,0.940276179 34.0005906,1.6417423e-14 L34,9.81873225 L38,9.81873225 Z M36,67.8187322 C37.1045695,67.8187322 38,66.9233017 38,65.8187322 C38,64.7141627 37.1045695,63.8187322 36,63.8187322 C34.8954305,63.8187322 34,64.7141627 34,65.8187322 C34,66.9233017 34.8954305,67.8187322 36,67.8187322 Z" id="wrench-2" fill="#0573BB"></path>
                            <path d="M26,28.8187322 C26.5522847,28.8187322 27.0522847,29.0425899 27.4142136,29.4045187 C27.9866801,29.9769852 28.2137191,30.8948792 27.7558621,31.8187322 L27.7558621,31.8187322 L32,31.8187322 C32.2761424,31.8187322 32.5261424,31.9306611 32.7071068,32.1116255 C32.8880712,32.2925899 33,32.5425899 33,32.8187322 L33,32.8187322 L33,33.8187322 L57.3009468,33.8187322 L63.0394083,30.9239355 L71,34.4219492 L71,37.124791 L63.0321889,40.7120702 L57.237809,37.8187322 L33,37.8187322 L33,38.8187322 C33,39.0948746 32.8880712,39.3448746 32.7071068,39.525839 C32.5261424,39.7068034 32.2761424,39.8187322 32,39.8187322 L32,39.8187322 L27.7558621,39.8187322 C28.2137191,40.7425853 27.9866801,41.6604793 27.4142136,42.2329458 C27.0522847,42.5948746 26.5522847,42.8187322 26,42.8187322 L26,42.8187322 L3,42.8187322 C2.44771525,42.8187322 1.94771525,42.5948746 1.58578644,42.2329458 C1.22385763,41.871017 1,41.371017 1,40.8187322 L1,40.8187322 L1,30.8187322 C1,30.2664475 1.22385763,29.7664475 1.58578644,29.4045187 C1.94771525,29.0425899 2.44771525,28.8187322 3,28.8187322 L3,28.8187322 Z" id="screwdriver" stroke="#0573BB" stroke-width="2"></path>
                        </g>
                    </g>
                </g>
            </g>
        </g>
    </g>
</svg>