<?xml version="1.0" encoding="UTF-8"?>
<svg width="71px" height="65px" viewBox="0 0 71 65" version="1.1" xmlns="http://www.w3.org/2000/svg" xmlns:xlink="http://www.w3.org/1999/xlink">
    <title>icon-video-white</title>
    <defs>
        <path d="M59,49 C60.1045695,49 61,49.8954305 61,51 L61,55 C61,56.1045695 60.1045695,57 59,57 L7,57 C5.8954305,57 5,56.1045695 5,55 L5,51 C5,49.8954305 5.8954305,49 7,49 L59,49 Z M59,51 L7,51 L7,55 L59,55 L59,51 Z M60,5 C62.209139,5 64,6.790861 64,9 L64,43 C64,45.209139 62.209139,47 60,47 L6,47 C3.790861,47 2,45.209139 2,43 L2,9 C2,6.790861 3.790861,5 6,5 L60,5 Z M60,7 L6,7 C4.8954305,7 4,7.8954305 4,9 L4,9 L4,43 C4,44.1045695 4.8954305,45 6,45 L6,45 L60,45 C61.1045695,45 62,44.1045695 62,43 L62,43 L62,9 C62,7.8954305 61.1045695,7 60,7 L60,7 Z M26,17.284493 C26.3194405,17.284493 26.6342342,17.3610094 26.9180339,17.507638 L40.8836504,24.723145 C41.8649803,25.2301611 42.2494876,26.436704 41.7424715,27.4180339 C41.5521445,27.7864118 41.2520282,28.0865281 40.8836504,28.276855 L26.9180339,35.492362 C25.936704,35.9993781 24.7301611,35.6148708 24.223145,34.6335409 C24.0765164,34.3497412 24,34.0349475 24,33.715507 L24,19.284493 C24,18.1799235 24.8954305,17.284493 26,17.284493 Z M26.5,19.3314498 C26.2238576,19.3314498 26,19.5553074 26,19.8314498 L26,19.8314498 L26,33.2071244 C26,33.2888569 26.0200362,33.3693432 26.0583544,33.4415368 C26.1878167,33.6854509 26.4904982,33.7782324 26.7344123,33.6487701 L26.7344123,33.6487701 L39.3346635,26.9609327 C39.4228899,26.9141048 39.4950689,26.8419258 39.5418968,26.7536994 C39.6713592,26.5097853 39.5785777,26.2071038 39.3346635,26.0776415 L39.3346635,26.0776415 L26.7344123,19.3898041 C26.6622188,19.351486 26.5817324,19.3314498 26.5,19.3314498 Z" id="path-1"></path>
        <filter x="-11.3%" y="-9.6%" width="122.6%" height="126.9%" filterUnits="objectBoundingBox" id="filter-2">
            <feOffset dx="0" dy="2" in="SourceAlpha" result="shadowOffsetOuter1"></feOffset>
            <feGaussianBlur stdDeviation="2" in="shadowOffsetOuter1" result="shadowBlurOuter1"></feGaussianBlur>
            <feColorMatrix values="0 0 0 0 0.0196078431   0 0 0 0 0.450980392   0 0 0 0 0.733333333  0 0 0 0.17 0" type="matrix" in="shadowBlurOuter1"></feColorMatrix>
        </filter>
    </defs>
    <g id="Page-1-Icons" stroke="none" stroke-width="1" fill="none" fill-rule="evenodd">
        <g id="PECOS-2.0-Icons-Overview-v21" transform="translate(-442.000000, -2291.000000)">
            <g id="Home-Page-Icons" transform="translate(26.000000, 1490.000000)">
                <g id="Video" transform="translate(418.539642, 801.520120)">
                    <use fill="black" fill-opacity="1" filter="url(#filter-2)" xlink:href="#path-1"></use>
                    <use fill="#FFFFFF" fill-rule="evenodd" xlink:href="#path-1"></use>
                </g>
            </g>
        </g>
    </g>
</svg>