<?xml version="1.0" encoding="UTF-8"?>
<svg width="20px" height="20px" viewBox="0 0 20 20" version="1.1" xmlns="http://www.w3.org/2000/svg" xmlns:xlink="http://www.w3.org/1999/xlink">
    <title>icon-share</title>
    <g id="Page-1-Icons" stroke="none" stroke-width="1" fill="none" fill-rule="evenodd">
        <g id="PECOS-2.0-Icons-Overview-v21" transform="translate(-891.000000, -2299.000000)" fill="#0573BB">
            <g id="KB-ARTICLE" transform="translate(876.000000, 2184.000000)">
                <g id="icon-share" transform="translate(15.000000, 115.000000)">
                    <path d="M16,0 C17.6568542,0 19,1.34314575 19,3 C19,4.65685425 17.6568542,6 16,6 C15.1868593,6 14.4492782,5.67649135 13.9089434,5.151161 L5.97564938,9.61596578 C5.99171694,9.74171022 6,9.8698878 6,10 C6,10.1550273 5.98824099,10.3073081 5.96556624,10.4559992 L13.8593789,14.8981565 C14.4037268,14.3438289 15.1617106,14 16,14 C17.6568542,14 19,15.3431458 19,17 C19,18.6568542 17.6568542,20 16,20 C14.3431458,20 13,18.6568542 13,17 C13,16.721813 13.0378641,16.4524697 13.1087199,16.1968425 L5.36900257,11.8408301 C4.82008606,12.5462268 3.96303524,13 3,13 C1.34314575,13 0,11.6568542 0,10 C0,8.34314575 1.34314575,7 3,7 C3.98697561,7 4.86263191,7.47661463 5.40936522,8.21224022 L13.127765,3.86891907 C13.0446695,3.59387488 13,3.302154 13,3 C13,1.34314575 14.3431458,0 16,0 Z" id="icon-share-copy"></path>
                </g>
            </g>
        </g>
    </g>
</svg>