<?xml version="1.0" encoding="UTF-8"?>
<svg width="20px" height="20px" viewBox="0 0 20 20" version="1.1" xmlns="http://www.w3.org/2000/svg" xmlns:xlink="http://www.w3.org/1999/xlink">
    <title>icon-open-new-kb-window</title>
    <g id="Page-1-Icons" stroke="none" stroke-width="1" fill="none" fill-rule="evenodd">
        <g id="PECOS-2.0-Icons-Overview-v28" transform="translate(-2088.000000, -925.000000)" fill="#0573BB">
            <g id="KNOWLEDGE-BASE" transform="translate(2072.000000, 879.000000)">
                <g id="icon-open-new-kb-window" transform="translate(16.000000, 46.000000)">
                    <path d="M3.29455421,4.33234987 C3.4140053,4.33234987 3.53180272,4.36027148 3.63854544,4.41388635 L8.68591952,6.94908826 C8.90475876,7.05900713 9.16295031,7.05772491 9.38068704,6.94563794 L11.0373378,6.092 L11.0373378,8.148 L10.0243378,8.573 L10.0243378,17.93 L13.7494125,16.1033457 C13.8993839,16.0297516 14.0022709,15.8885205 14.0286066,15.7269361 L14.0352587,15.6446667 L14.0343378,9.115 L15.5853378,7.654 L15.5857162,16.2860273 L15.5813378,16.345 L16.0792291,16.1895703 C16.2656213,16.1310899 16.3999034,15.9726415 16.4305616,15.7843776 L16.4372063,15.7020722 L16.4372063,7.09250064 C16.4372063,7.06817761 16.4337326,7.04397924 16.4268906,7.02063838 C16.4151554,6.98060552 16.3944816,6.94562673 16.367681,6.91723916 L17.1611938,6.1701889 L18.0243378,7.114 L18.0243378,16.8298113 C18.0243378,17.176167 17.7920386,17.4794764 17.4576485,17.5697288 L9.28233777,19.776 L9.25861628,19.7858366 C9.21629938,19.7987257 9.17313471,19.8078659 9.12961603,19.8132579 L9.21145844,19.7953874 C9.08048125,19.8307384 8.94246753,19.8306886 8.81151585,19.7952434 L0.590494095,17.5700226 C0.256367061,17.479583 0.0243377686,17.1763997 0.0243377686,16.8302492 L0.0243377686,5.73928888 C0.0243377686,5.31602109 0.367464103,4.97289476 0.790731886,4.97289476 C0.85498648,4.97289476 0.918986025,4.98097531 0.981224142,4.9969462 L2.52733777,5.393 L2.5281601,5.09874399 C2.5281601,4.67547621 2.87128643,4.33234987 3.29455421,4.33234987 Z M4.31766662,7.01961813 C4.17657736,7.01961813 4.06220192,7.13399358 4.06220192,7.27508284 L4.06220192,7.27508284 L4.06220192,15.6456723 C4.06220192,15.8400475 4.1724938,16.0175865 4.3467474,16.1037107 L4.3467474,16.1037107 L8.02433777,17.921 L8.02433777,8.564 L4.41714375,7.03978193 C4.40140545,7.03312832 4.38507966,7.02808737 4.36841669,7.02470982 Z M1.91310707,6.83763772 C1.77201781,6.83763772 1.65764236,6.95201317 1.65764236,7.09310243 L1.65764236,7.09310243 L1.65764236,15.7025631 C1.65764236,15.9255858 1.80229944,16.1228398 2.01501074,16.1898698 L2.01501074,16.1898698 L2.53094077,16.3528291 C2.52909693,16.3312229 2.5281601,16.3094248 2.5281601,16.2874821 L2.52733777,7.008 L1.9853838,6.8480753 C1.97364975,6.84461406 1.96169752,6.84200467 1.94962032,6.84026058 Z M20,0 L20,5.79289322 C20,6.06903559 19.7761424,6.29289322 19.5,6.29289322 C19.3673918,6.29289322 19.2402148,6.2402148 19.1464466,6.14644661 L17.2293378,4.229 L13.5532646,7.90100364 C13.1628446,8.2909219 12.5303807,8.2909219 12.1399607,7.90100364 L12.1385959,7.89964066 C11.7480716,7.50961826 11.7476648,6.87686014 12.1376872,6.48633585 C12.1379899,6.48603273 12.1382928,6.48572982 12.1385959,6.48542709 L15.8143378,2.814 L13.8535534,0.853553391 C13.6582912,0.658291245 13.6582912,0.341708755 13.8535534,0.146446609 C13.9473216,0.0526784202 14.0744985,-3.11514118e-17 14.2071068,0 L20,0 Z"></path>
                </g>
            </g>
        </g>
    </g>
</svg>