<?xml version="1.0" encoding="UTF-8"?>
<svg width="59px" height="57px" viewBox="0 0 59 57" version="1.1" xmlns="http://www.w3.org/2000/svg" xmlns:xlink="http://www.w3.org/1999/xlink">
    <title>icon-news-white</title>
    <g id="Page-1-Icons" stroke="none" stroke-width="1" fill="none" fill-rule="evenodd">
        <g id="PECOS-2.0-Icons-Overview-v21" transform="translate(-2107.000000, -1807.000000)" fill="#FFFFFF">
            <g id="KNOWLEDGE-BASE" transform="translate(2074.000000, 1010.000000)">
                <g id="icon-news-white" transform="translate(26.000000, 792.000000)">
                    <path d="M50.3869431,12.8695462 C51.0181256,12.8695462 51.5298002,13.3812208 51.5298002,14.0124033 L51.5298002,45.726689 C51.5298002,46.3578716 51.0181256,46.8695462 50.3869431,46.8695462 C49.7557605,46.8695462 49.2440859,46.3578716 49.2440859,45.726689 L49.2442196,44.9900559 C45.465712,42.1506674 42.0370961,40.2685321 38.9583716,39.3436501 C35.7244878,38.3721565 32.1045564,37.7304731 28.0985776,37.4186 C27.5735145,38.2885493 26.6195069,38.8695462 25.5298002,38.8695462 L24.7768002,38.8695462 L28.1199329,54.0127426 C28.3017786,54.8365498 27.7813659,55.6517926 26.9575586,55.8336382 C26.8494309,55.8575061 26.7390286,55.8695462 26.628298,55.8695462 L20.3244275,55.8695462 C19.5943764,55.8695462 18.9663713,55.3529658 18.8255656,54.6366221 L15.7268002,38.8695462 L15.5848861,38.8695462 C13.9163563,38.8695462 12.5602354,37.5319645 12.5303054,35.8705831 L12.5298002,35.8695462 C9.21609172,35.8695462 6.52980022,33.1832547 6.52980022,29.8695462 C6.52980022,26.5558377 9.21609172,23.8695462 12.5298002,23.8695462 L12.5318002,23.8695462 L12.5349864,23.7451226 C12.6279083,22.1413988 13.9578687,20.8695462 15.5848861,20.8695462 L25.5298002,20.8695462 C26.6324251,20.8695462 27.5961144,21.4643997 28.117458,22.3506966 L27.5298002,22.4033501 C31.7626045,22.0474808 35.5636682,21.3648115 38.9329916,20.3553422 C41.9985058,19.436896 45.4354177,17.5644501 49.2437273,14.7380046 L49.2440859,14.0124033 C49.2440859,13.3812208 49.7557605,12.8695462 50.3869431,12.8695462 Z M22.7488002,38.8695462 L17.7468002,38.8695462 L20.8641454,53.2674197 C20.9326271,53.5836656 21.1912644,53.8183913 21.5044034,53.862174 L21.6106156,53.8695462 L25.0528836,53.8695462 C25.1072724,53.8695462 25.1615055,53.8637366 25.2146602,53.8522164 C25.5925546,53.7703152 25.8439998,53.4218137 25.8144633,53.0467627 L25.7993253,52.9439981 L22.7488002,38.8695462 Z M57.0034818,37.2022741 L64.7977104,41.7022741 C65.276003,41.9784165 65.4398782,42.5900069 65.1637358,43.0682995 C64.8875934,43.5465922 64.276003,43.7104673 63.7977104,43.4343249 L56.0034818,38.9343249 C55.5251891,38.6581826 55.361314,38.0465922 55.6374564,37.5682995 C55.9135987,37.0900069 56.5251891,36.9261318 57.0034818,37.2022741 Z M49.2440859,17.3061841 C45.6286484,19.9851309 42.0070746,21.7773445 38.3793645,22.6828249 C34.9935016,23.5279399 31.9492373,24.0789972 29.2465715,24.3359969 L28.6726574,24.3865674 L28.6726574,35.3295338 C31.8995481,35.5671996 35.1351172,36.1299145 38.3793645,37.0176785 C41.4825575,37.866844 44.9309794,39.544774 48.7246301,42.0514683 L49.2440859,42.3984273 L49.2440859,17.3061841 Z M25.0022573,22.8695462 L16.0573432,22.8695462 C15.2605733,22.8695462 14.6062826,23.4795719 14.5360428,24.2580516 L14.5298002,24.3970891 L14.5298002,35.3420032 C14.5298002,36.1387731 15.1398259,36.7930638 15.9183056,36.8633036 L16.0573432,36.8695462 L25.0022573,36.8695462 C25.7990271,36.8695462 26.4533178,36.2595205 26.5235577,35.4810408 L26.5298002,35.3420032 L26.5298002,24.3970891 C26.5298002,23.5534505 25.8458959,22.8695462 25.0022573,22.8695462 Z M12.5298002,25.8695462 L12.3301599,25.8744415 C10.2137687,25.9784673 8.52980022,27.7273508 8.52980022,29.8695462 C8.52980022,32.0117416 10.2137687,33.7606251 12.3301599,33.8646509 L12.5298002,33.8695462 L12.5298002,25.8695462 Z M68.5298002,28.8695462 C69.082085,28.8695462 69.5298002,29.3172614 69.5298002,29.8695462 C69.5298002,30.4218309 69.082085,30.8695462 68.5298002,30.8695462 L59.5298002,30.8695462 C58.9775155,30.8695462 58.5298002,30.4218309 58.5298002,29.8695462 C58.5298002,29.3172614 58.9775155,28.8695462 59.5298002,28.8695462 L68.5298002,28.8695462 Z M64.8690785,16.4800359 C65.1452209,16.9583286 64.9813457,17.569919 64.5030531,17.8460613 L56.7088245,22.3460613 C56.2305319,22.6222037 55.6189415,22.4583286 55.3427991,21.9800359 C55.0666567,21.5017433 55.2305319,20.8901529 55.7088245,20.6140105 L63.5030531,16.1140105 C63.9813457,15.8378682 64.5929361,16.0017433 64.8690785,16.4800359 Z" transform="translate(38.029800, 34.369546) rotate(-30.000000) translate(-38.029800, -34.369546) "></path>
                </g>
            </g>
        </g>
    </g>
</svg>