<?xml version="1.0" encoding="UTF-8"?>
<svg width="20px" height="20px" viewBox="0 0 20 20" version="1.1" xmlns="http://www.w3.org/2000/svg" xmlns:xlink="http://www.w3.org/1999/xlink">
    <title>icon-save</title>
    <g id="Page-1-Icons" stroke="none" stroke-width="1" fill="none" fill-rule="evenodd">
        <g id="PECOS-2.0-Icons-Overview-v28" transform="translate(-2087.000000, -1127.000000)" fill="#0573BB">
            <g id="KNOWLEDGE-BASE" transform="translate(2072.000000, 879.000000)">
                <g id="icon-save" transform="translate(15.000000, 247.999817)">
                    <path d="M15.0071821,2.0191369 L13.0151348,2.0191369 C11.9105653,2.0191369 11.0151348,2.9145674 11.0151348,4.0191369 L11.0151821,9.24843072 L12.4738379,7.78937923 C12.8643622,7.39885493 13.4975272,7.39885493 13.8880515,7.78937923 C14.2785758,8.17990352 14.2785758,8.8130685 13.8880515,9.20359279 L10.7071068,12.3845375 C10.3165825,12.7750618 9.68341751,12.7750618 9.29289322,12.3845375 L6.09739288,9.18903717 C5.70907961,8.80072389 5.70907961,8.17114368 6.09739288,7.7828304 C6.48570616,7.39451713 7.11528637,7.39451713 7.50359964,7.7828304 L9.01518212,9.29443072 L9.01513481,3.00718579 C9.01513481,1.35306965 10.3540101,0.0110607941 12.0081218,0.00719398856 L14,0.002 L14,0 L17,0.000183102937 C18.6568542,0.000183102937 20,1.34332885 20,3.0001831 L20,17.0001831 C20,18.6570374 18.6568542,20.0001831 17,20.0001831 L3,20.0001831 C1.34314575,20.0001831 2.02906125e-16,18.6570374 0,17.0001831 L0,3.0001831 C-2.02906125e-16,1.34332885 1.34314575,0.000183102937 3,0.000183102937 L6,0 L6,2.014 L4,2.01400757 C2.9456382,2.01400757 2.08183488,2.82988536 2.00548574,3.86474522 L2,4.01400757 L2,16.0140076 C2,17.1185771 2.8954305,18.0140076 4,18.0140076 L4,18.0140076 L16,18.0140076 C17.1045695,18.0140076 18,17.1185771 18,16.0140076 L18,16.0140076 L18,4.01400757 C18,2.90943807 17.1045695,2.01400757 16,2.01400757 L16,2.01400757 L15.007,2.014 L15.0071821,2.0191369 Z" id="save"></path>
                </g>
            </g>
        </g>
    </g>
</svg>