<?xml version="1.0" encoding="UTF-8"?>
<svg width="16px" height="16px" viewBox="0 0 16 16" version="1.1" xmlns="http://www.w3.org/2000/svg" xmlns:xlink="http://www.w3.org/1999/xlink">
    <title>icon-new-created 3</title>
    <g id="Page-1" stroke="none" stroke-width="1" fill="none" fill-rule="evenodd">
        <g id="new/created">
            <circle id="Oval" fill="#7494A4" cx="8" cy="8" r="8"></circle>
            <path d="M9.29166667,5.37606767 C9.43787698,5.37606767 9.57946004,5.42732781 9.69178192,5.52092937 L12.0905007,7.5198617 C12.3556738,7.74083925 12.3915013,8.13494219 12.1705238,8.40011525 C12.1463242,8.42915467 12.1195401,8.45593879 12.0905007,8.4801383 L9.69178192,10.4790706 C9.42660886,10.7000482 9.03250592,10.6642206 8.81152837,10.3990476 C8.7179268,10.2867257 8.66666667,10.1451426 8.66666667,9.99893233 L8.66633333,8.66660067 L4,8.66666667 C3.63181017,8.66666667 3.33333333,8.36818983 3.33333333,8 C3.33333333,7.63181017 3.63181017,7.33333333 4,7.33333333 L8.66633333,7.33260067 L8.66666667,6.00106767 C8.66666667,5.65588971 8.9464887,5.37606767 9.29166667,5.37606767 Z" id="Combined-Shape" fill="#FFFFFF"></path>
        </g>
    </g>
</svg>