<?xml version="1.0" encoding="UTF-8"?>
<svg width="24px" height="24px" viewBox="0 0 18 19" version="1.1" xmlns="http://www.w3.org/2000/svg" xmlns:xlink="http://www.w3.org/1999/xlink">
    <title>icon-warning</title>
    <g id="Page-1" stroke="none" stroke-width="1" fill="none" fill-rule="evenodd">
        <g id="Small-Message-icons-16x16" transform="translate(-17.000000, -141.000000)">
            <g id="icon-warning" transform="translate(17.000000, 141.000000)">
                <path d="M10.372887,2.97441699 L16.8939469,15.8210506 C17.2689203,16.5597566 16.9740568,17.462572 16.2353508,17.8375454 C16.0249608,17.9443412 15.7923449,18 15.5564015,18 L2.45385877,18 C1.62543165,18 0.953858775,17.3284271 0.953858775,16.5 C0.953858775,16.262164 1.01041372,16.027737 1.11885697,15.8160627 L7.70033979,2.96942909 C8.07806791,2.23212795 8.98197772,1.94063643 9.71927886,2.31836455 C10.0008904,2.46263747 10.2296663,2.69226891 10.372887,2.97441699 Z" id="Triangle" fill="#F58900"></path>
                <path d="M9,14.0498047 C9.69035594,14.0498047 10.25,14.6094488 10.25,15.2998047 C10.25,15.9901606 9.69035594,16.5498047 9,16.5498047 C8.30964406,16.5498047 7.75,15.9901606 7.75,15.2998047 C7.75,14.6094488 8.30964406,14.0498047 9,14.0498047 Z M9.04150391,6.4576416 C9.67473334,6.4576416 10.1880672,6.97097548 10.1880672,7.60420491 C10.1880672,7.63718034 10.1866446,7.67014041 10.1838035,7.70299321 L9.72570801,13 L8.24041748,13 L7.8770733,7.70470931 C7.83294623,7.06161205 8.31850751,6.50450665 8.96160478,6.46037958 C8.98819874,6.4585548 9.01484741,6.4576416 9.04150391,6.4576416 Z" id="exclamation-mark" fill="#FFFFFF"></path>
            </g>
        </g>
    </g>
</svg>