<?xml version="1.0" encoding="UTF-8"?>
<svg width="18px" height="18px" viewBox="0 0 18 18" version="1.1" xmlns="http://www.w3.org/2000/svg" xmlns:xlink="http://www.w3.org/1999/xlink">
    <title>icon-fingerprint-created-ordered-18</title>
    <g id="Page-1" stroke="none" stroke-width="1" fill="none" fill-rule="evenodd">
        <g id="PECOS-2.0-Icons-&amp;-Illus-Overview-v17" transform="translate(-1521.000000, -1409.000000)">
            <g id="18x18-Status-Icons" transform="translate(1506.000000, 1189.000000)">
                <g id="new/created" transform="translate(15.000000, 220.000000)">
                    <circle id="Oval" fill="#457389" cx="9" cy="9" r="9"></circle>
                    <path d="M9.77148437,5.2094287 C9.93458869,5.2094287 10.0932473,5.26259901 10.2234148,5.36088142 L14.2273197,8.38401205 C14.5578882,8.63360636 14.6235308,9.10392127 14.3739365,9.4344898 C14.331825,9.4902632 14.2821249,9.53987702 14.2262784,9.58189144 L10.2223735,12.5941065 C9.89137153,12.8431257 9.42117146,12.7766655 9.17215226,12.4456635 C9.07436455,12.3156818 9.02148437,12.1574325 9.02148437,11.9947744 L9.021,9.9994287 L4,10 C3.44771525,10 3,9.55228475 3,9 C3,8.44771525 3.44771525,8 4,8 L9.021,7.9994287 L9.02148437,5.9594287 C9.02148437,5.54521514 9.35727081,5.2094287 9.77148437,5.2094287 Z" id="Combined-Shape" fill="#FFFFFF"></path>
                </g>
            </g>
        </g>
    </g>
</svg>