<?xml version="1.0" encoding="UTF-8"?>
<svg width="18px" height="18px" viewBox="0 0 18 18" version="1.1" xmlns="http://www.w3.org/2000/svg" xmlns:xlink="http://www.w3.org/1999/xlink">
    <title>icon-site-visit-created-ordered-18</title>
    <g id="Page-1" stroke="none" stroke-width="1" fill="none" fill-rule="evenodd">
        <g id="PECOS-2.0-Icons-&amp;-Illus-Overview-v17" transform="translate(-1521.000000, -1323.000000)">
            <g id="18x18-Status-Icons" transform="translate(1506.000000, 1189.000000)">
                <g id="new/created" transform="translate(15.000000, 134.000000)">
                    <circle id="Oval" fill="#A88427" cx="9" cy="9" r="9"></circle>
                    <path d="M9.76489258,5.21760742 C9.92799689,5.21760742 10.0866555,5.27077772 10.2168231,5.36906013 L14.2207279,8.39219076 C14.5512964,8.64178507 14.616939,9.11209998 14.3673447,9.44266851 C14.3252332,9.49844191 14.2755331,9.54805573 14.2196866,9.59007015 L10.2157817,12.6022852 C9.88477973,12.8513044 9.41457966,12.7848442 9.16556046,12.4538422 C9.06777275,12.3238606 9.01489258,12.1656112 9.01489258,12.0029531 L9.014,9.99960742 L4,10 C3.44771525,10 3,9.55228475 3,9 C3,8.44771525 3.44771525,8 4,8 L9.014,7.99960742 L9.01489258,5.96760742 C9.01489258,5.55339385 9.35067902,5.21760742 9.76489258,5.21760742 Z" id="Combined-Shape" fill="#FFFFFF"></path>
                </g>
            </g>
        </g>
    </g>
</svg>