<?xml version="1.0" encoding="UTF-8"?>
<svg width="80px" height="80px" viewBox="0 0 80 80" version="1.1" xmlns="http://www.w3.org/2000/svg" xmlns:xlink="http://www.w3.org/1999/xlink">
    <title>icon-site-visit-order-info-overview</title>
    <defs>
        <linearGradient x1="50%" y1="0%" x2="50%" y2="100%" id="linearGradient-1">
            <stop stop-color="#C7AF72" offset="0%"></stop>
            <stop stop-color="#B99D55" offset="100%"></stop>
        </linearGradient>
        <linearGradient x1="50%" y1="0%" x2="50%" y2="100%" id="linearGradient-2">
            <stop stop-color="#C2A761" offset="0%"></stop>
            <stop stop-color="#B09347" offset="100%"></stop>
        </linearGradient>
        <linearGradient x1="50%" y1="0%" x2="50%" y2="100%" id="linearGradient-3">
            <stop stop-color="#997E36" offset="0%"></stop>
            <stop stop-color="#906F1A" offset="100%"></stop>
        </linearGradient>
        <linearGradient x1="50%" y1="0%" x2="50%" y2="100%" id="linearGradient-4">
            <stop stop-color="#906F1A" offset="0%"></stop>
            <stop stop-color="#906F1A" offset="100%"></stop>
        </linearGradient>
        <linearGradient x1="50%" y1="0%" x2="50%" y2="100%" id="linearGradient-5">
            <stop stop-color="#E4D5AE" offset="0%"></stop>
            <stop stop-color="#D5C499" offset="100%"></stop>
        </linearGradient>
        <linearGradient x1="50%" y1="0%" x2="50%" y2="100%" id="linearGradient-6">
            <stop stop-color="#BB9F5C" offset="0%"></stop>
            <stop stop-color="#987F3D" offset="100%"></stop>
        </linearGradient>
    </defs>
    <g id="Page-1-Icons" stroke="none" stroke-width="1" fill="none" fill-rule="evenodd">
        <g id="PECOS-2.0-Icons-Overview-v28" transform="translate(-2819.000000, -2481.000000)">
            <g id="SITE-VISIT-OVERVIEW" transform="translate(2803.000000, 2423.000000)">
                <g id="icon-site-visit-order-info-overview" transform="translate(16.000000, 58.000000)">
                    <circle id="brown-80x80-oval" fill="#E4D5AE" cx="40" cy="40" r="40"></circle>
                    <g id="building" transform="translate(17.000000, 26.000000)">
                        <rect id="Rectangle" stroke="url(#linearGradient-2)" fill="url(#linearGradient-1)" x="0.5" y="0.5" width="26" height="34" rx="2"></rect>
                        <path d="M20,26 L20,28 L22,28 L22,30 L20,30 L20,32 L18,32 L18,30 L16,30 L16,28 L18,28 L18,26 L20,26 Z" id="cross" fill="#E4D5AE"></path>
                        <path d="M12,25 L12,35 L4,35 L4,25 L12,25 Z M9,18 L9,22 L4,22 L4,18 L9,18 Z M16,18 L16,22 L11,22 L11,18 L16,18 Z M23,18 L23,22 L18,22 L18,18 L23,18 Z M9,11 L9,15 L4,15 L4,11 L9,11 Z M16,11 L16,15 L11,15 L11,11 L16,11 Z M23,11 L23,15 L18,15 L18,11 L23,11 Z M9,4 L9,8 L4,8 L4,4 L9,4 Z M16,4 L16,8 L11,8 L11,4 L16,4 Z M23,4 L23,8 L18,8 L18,4 L23,4 Z" id="Combined-Shape" fill="url(#linearGradient-3)"></path>
                    </g>
                    <path d="M38,26 L44,26 L44,51 L41,51 C39.3431458,51 38,49.6568542 38,48 L38,26 L38,26 Z" id="Rectangle" fill="#E4D5AE"></path>
                    <g id="clipboard" transform="translate(40.000000, 16.000000)">
                        <g id="icon-paper" transform="translate(0.000000, 5.000000)">
                            <rect id="Rectangle" fill="url(#linearGradient-4)" x="0" y="0" width="24" height="28" rx="2"></rect>
                            <rect id="Rectangle-Copy-15" fill="url(#linearGradient-5)" x="3" y="2" width="18" height="23" rx="0.5"></rect>
                            <rect id="line" fill="#9D8043" x="9" y="15" width="10" height="1" rx="0.5"></rect>
                            <rect id="line-copy-4" fill="#9D8043" x="9" y="20" width="10" height="1" rx="0.5"></rect>
                            <rect id="line-copy-3" fill="#9D8043" x="9" y="13" width="10" height="1" rx="0.5"></rect>
                            <rect id="line-copy-5" fill="#9D8043" x="9" y="18" width="10" height="1" rx="0.5"></rect>
                            <rect id="Rectangle" fill="#9D8043" x="5" y="8" width="3" height="3" rx="1"></rect>
                            <rect id="Rectangle-Copy-169" fill="#9D8043" x="5" y="13" width="3" height="3" rx="1"></rect>
                            <rect id="Rectangle-Copy-172" fill="#9D8043" x="5" y="18" width="3" height="3" rx="1"></rect>
                            <rect id="line" fill="#9D8043" x="9" y="8" width="10" height="1" rx="0.5"></rect>
                            <rect id="line-copy-2" fill="#9D8043" x="9" y="10" width="10" height="1" rx="0.5"></rect>
                        </g>
                        <path d="M9.00509269,2.82372721 C9.09633912,1.24891996 10.4023191,0 12,0 C13.6568542,0 15,1.34314575 15,3 L15,3 C16.6568542,3 18,4.34314575 18,6 L18,8 C18,8.55228475 17.5522847,9 17,9 L7,9 C6.44771525,9 6,8.55228475 6,8 L6,6 C6,4.34314575 7.34314575,3 9,3 Z M12,4 C12.5522847,4 13,3.55228475 13,3 C13,2.44771525 12.5522847,2 12,2 C11.4477153,2 11,2.44771525 11,3 C11,3.55228475 11.4477153,4 12,4 Z" id="Combined-Shape" fill="url(#linearGradient-6)"></path>
                    </g>
                </g>
            </g>
        </g>
    </g>
</svg>