<?xml version="1.0" encoding="UTF-8"?>
<svg width="80px" height="80px" viewBox="0 0 80 80" version="1.1" xmlns="http://www.w3.org/2000/svg" xmlns:xlink="http://www.w3.org/1999/xlink">
    <title>icon-site-visit-contractor-overview</title>
    <defs>
        <linearGradient x1="50%" y1="0%" x2="50%" y2="100%" id="linearGradient-1">
            <stop stop-color="#C8B073" offset="0%"></stop>
            <stop stop-color="#B89C54" offset="100%"></stop>
        </linearGradient>
        <linearGradient x1="50%" y1="0%" x2="50%" y2="100%" id="linearGradient-2">
            <stop stop-color="#C2A761" offset="0%"></stop>
            <stop stop-color="#B09347" offset="100%"></stop>
        </linearGradient>
        <linearGradient x1="50%" y1="0%" x2="50%" y2="100%" id="linearGradient-3">
            <stop stop-color="#997E36" offset="0%"></stop>
            <stop stop-color="#906F1A" offset="100%"></stop>
        </linearGradient>
        <linearGradient x1="50%" y1="0%" x2="50%" y2="100%" id="linearGradient-4">
            <stop stop-color="#AB9355" offset="0%"></stop>
            <stop stop-color="#8B702A" offset="100%"></stop>
        </linearGradient>
        <linearGradient x1="50%" y1="1.32000086%" x2="100%" y2="98.6799991%" id="linearGradient-5">
            <stop stop-color="#AB9254" offset="0.0819493007%"></stop>
            <stop stop-color="#8B702A" offset="100%"></stop>
        </linearGradient>
    </defs>
    <g id="Page-1-Icons" stroke="none" stroke-width="1" fill="none" fill-rule="evenodd">
        <g id="PECOS-2.0-Icons-Overview-v28" transform="translate(-2819.000000, -2681.000000)">
            <g id="SITE-VISIT-OVERVIEW" transform="translate(2803.000000, 2423.000000)">
                <g id="icon-site-visit-contractor-overview" transform="translate(16.000000, 258.000000)">
                    <circle id="brown-80x80-oval" fill="#E4D5AE" cx="40" cy="40" r="40"></circle>
                    <g id="building" transform="translate(17.000000, 26.000000)">
                        <rect id="Rectangle" stroke="url(#linearGradient-2)" fill="url(#linearGradient-1)" x="0.5" y="0.5" width="26" height="34" rx="2"></rect>
                        <path d="M20,26 L20,28 L22,28 L22,30 L20,30 L20,32 L18,32 L18,30 L16,30 L16,28 L18,28 L18,26 L20,26 Z" id="cross" fill="#E4D5AE"></path>
                        <path d="M12,25 L12,35 L4,35 L4,25 L12,25 Z M9,18 L9,22 L4,22 L4,18 L9,18 Z M16,18 L16,22 L11,22 L11,18 L16,18 Z M23,18 L23,22 L18,22 L18,18 L23,18 Z M9,11 L9,15 L4,15 L4,11 L9,11 Z M16,11 L16,15 L11,15 L11,11 L16,11 Z M23,11 L23,15 L18,15 L18,11 L23,11 Z M9,4 L9,8 L4,8 L4,4 L9,4 Z M16,4 L16,8 L11,8 L11,4 L16,4 Z M23,4 L23,8 L18,8 L18,4 L23,4 Z" id="Combined-Shape" fill="url(#linearGradient-3)"></path>
                    </g>
                    <path d="M37,22.75 L52,23 L52,48 L44.0308895,48 L44.0308895,44.1135445 C39.2583844,43.4782507 36.078311,42.2697368 34.4906693,40.4880028 C32.1092066,37.8154018 31.6095285,34.0665549 34,31 C35.1135406,29.571523 36.5064288,28.3529485 38.1786643,27.3442764 L37,22.75 Z" id="Rectangle" fill="#E4D5AE"></path>
                    <path d="M49.4934315,28.630512 C50.2550664,28.8554462 50.9708117,29.135805 51.6288544,29.4638025 C50.5091185,30.7747319 49.8333333,32.4751136 49.8333333,34.3333333 C49.8333333,34.9379985 49.9048891,35.525951 50.0399946,36.0891848 L50.0399946,36.0891848 L43.6090221,42.4425878 C38.1905812,41.991954 34,38.9435238 34,35.25 C34,32.300928 36.6715493,29.7631115 40.5065685,28.630512 C40.5020614,28.6707441 40.5,28.7102517 40.5,28.75 C40.5,29.9926407 42.5147186,31 45,31 C47.4852814,31 49.5,29.9926407 49.5,28.75 Z M41.1047769,32.3155572 C40.5424789,33.2769705 39.6338397,33.7816187 38.3788592,33.8295016 C38.2670843,33.8339619 38.1786643,33.9258198 38.1786643,34.0376834 L38.1786643,36.3715588 L38.1786643,36.3715588 C38.1786643,37.0854413 39.033855,37.9927227 40.7442364,39.093403 L40.9943816,39.2519789 C41.0619184,39.2941595 41.1475901,39.2941595 41.2151269,39.2519791 C43.092302,38.0795801 44.0308895,37.11944 44.0308895,36.3715588 L44.0308895,34.0377774 L44.0308895,34.0377774 C44.0308872,33.9257325 43.9422669,33.8337549 43.8302994,33.8295904 C42.557394,33.7822462 41.6488865,33.2775684 41.1047769,32.3155572 Z M45,16 C48.3137085,16 51,19.0220779 51,22.75 C51,26.4779221 48.3137085,29.5 45,29.5 C41.6862915,29.5 39,26.4779221 39,22.75 C39,19.0220779 41.6862915,16 45,16 Z" id="person" fill="url(#linearGradient-4)"></path>
                    <path d="M57.75,27.9880028 C61.2017797,27.9880028 64,30.7862231 64,34.2380028 C64,37.6897825 61.2017797,40.4880028 57.75,40.4880028 C56.9472429,40.4880028 56.1798339,40.3366592 55.4747495,40.0609482 L55.4835973,40.0689415 L54.1564895,41.6814452 C54.0773412,41.7776145 53.9593212,41.8333333 53.83477,41.8333333 L52.6322323,41.8333333 C52.4328475,41.8333333 52.2712142,41.9949667 52.2712142,42.1943515 L52.2712142,43.1107928 C52.2712142,43.3409114 52.0846661,43.5274595 51.8545475,43.5274595 L50.25,43.5274595 C50.0198814,43.5274595 49.8333333,43.7140075 49.8333333,43.9441261 L49.8333333,45.5833333 C49.8333333,45.813452 49.6467853,46 49.4166667,46 L46.1620973,46 C45.9319786,46 45.7454306,45.813452 45.7454306,45.5833333 L45.7454306,42.8253056 C45.7454306,42.7134408 45.7904117,42.6062744 45.8702521,42.5279212 L51.9472258,36.5641743 C51.658734,35.8451756 51.5,35.0601263 51.5,34.2380028 C51.5,30.7862231 54.2982203,27.9880028 57.75,27.9880028 Z M59.4166667,30.4880028 C58.2660734,30.4880028 57.3333333,31.4207429 57.3333333,32.5713361 C57.3333333,33.7219293 58.2660734,34.6546695 59.4166667,34.6546695 C60.5672599,34.6546695 61.5,33.7219293 61.5,32.5713361 C61.5,31.4207429 60.5672599,30.4880028 59.4166667,30.4880028 Z" id="icon-mac-routing" fill="url(#linearGradient-5)"></path>
                </g>
            </g>
        </g>
    </g>
</svg>