<?xml version="1.0" encoding="UTF-8"?>
<svg width="26px" height="26px" viewBox="0 0 26 26" version="1.1" xmlns="http://www.w3.org/2000/svg" xmlns:xlink="http://www.w3.org/1999/xlink">
    <title>icon-spell-check-on</title>
    <g id="Page-1-Icons" stroke="none" stroke-width="1" fill="none" fill-rule="evenodd">
        <g id="PECOS-2.0-Icons-Overview-v27" transform="translate(-2663.000000, -1799.000000)">
            <g id="CORRESPONDENCE-VIEWER-ICONS" transform="translate(2651.000000, 1369.000000)">
                <g id="icon-spell-check-on" transform="translate(12.000000, 430.000000)">
                    <rect id="selected-rect" fill="#969388" x="0" y="0" width="26" height="26" rx="4"></rect>
                    <path d="M19.6684814,12.8276508 C19.6707485,12.8298638 19.673002,12.8320905 19.6752419,12.834331 C19.9833961,13.1425722 19.9856985,13.641523 19.680402,13.9525948 L13.1781058,20.5778957 C12.9846818,20.7749788 12.6681132,20.777945 12.4710301,20.584521 C12.4645448,20.5781561 12.4582342,20.5716155 12.4521053,20.5649067 L9.51264179,17.3472721 C9.2347856,17.0431215 9.25610146,16.5713117 9.56025209,16.2934555 L9.56453852,16.2895701 C9.87623939,16.0092204 10.3540624,16.0264031 10.6448213,16.3284174 L12.889252,18.6597307 L18.5690899,12.8409365 C18.8690097,12.5336792 19.3612241,12.527731 19.6684814,12.8276508 Z M11.1225586,5.68164062 L14.5947266,15 L12.9824219,15 L12.0556641,12.4228516 L8.50732422,12.4228516 L7.59960937,15 L6,15 L9.47216797,5.68164062 L11.1225586,5.68164062 Z M10.2910156,6.98925781 C10.1767578,7.50976562 10.0096029,8.0789388 9.78955078,8.69677734 L9.78955078,8.69677734 L8.95166016,11.1152344 L11.6557617,11.1152344 L10.7861328,8.58886719 L10.7523668,8.49612088 C10.6927106,8.32802554 10.6161567,8.09233941 10.5227051,7.7890625 C10.4105632,7.42513021 10.3333333,7.15852865 10.2910156,6.98925781 Z" id="Combined-Shape" fill="#FFFFFF" fill-rule="nonzero"></path>
                </g>
            </g>
        </g>
    </g>
</svg>