<?xml version="1.0" encoding="UTF-8"?>
<svg width="26px" height="26px" viewBox="0 0 26 26" version="1.1" xmlns="http://www.w3.org/2000/svg" xmlns:xlink="http://www.w3.org/1999/xlink">
    <title>icon-underline-on</title>
    <g id="Page-1-Icons" stroke="none" stroke-width="1" fill="none" fill-rule="evenodd">
        <g id="PECOS-2.0-Icons-Overview-v27" transform="translate(-2663.000000, -1766.000000)">
            <g id="CORRESPONDENCE-VIEWER-ICONS" transform="translate(2651.000000, 1369.000000)">
                <g id="icon-underline-on" transform="translate(12.000000, 397.000000)">
                    <rect id="selected-rect" fill="#969388" x="0" y="0" width="26" height="26" rx="4"></rect>
                    <path d="M17.6576087,18.9754963 L17.6576087,19.9773846 L7.81757229,19.9773846 L7.81757229,18.9754963 L17.6576087,18.9754963 Z M9.59882229,6.578125 L9.59882229,14.03125 L9.60424764,14.2649197 C9.64403352,15.1047996 9.90264174,15.7586806 10.3800723,16.2265625 C10.9009056,16.7369792 11.6665306,16.9921875 12.6769473,16.9921875 C13.640489,16.9921875 14.3826765,16.7356771 14.9035098,16.2226562 C15.4243431,15.7096354 15.6847598,14.9739583 15.6847598,14.015625 L15.6847598,14.015625 L15.6847598,6.578125 L17.0128848,6.578125 L17.0128848,13.96875 L17.0076417,14.2254514 C16.9587066,15.4060532 16.5672251,16.3439236 15.8331973,17.0390625 C15.046739,17.7838542 13.9660098,18.15625 12.5910098,18.15625 C11.2160098,18.15625 10.1522077,17.78125 9.39960354,17.03125 C8.64699938,16.28125 8.27069729,15.25 8.27069729,13.9375 L8.27069729,13.9375 L8.27069729,6.578125 L9.59882229,6.578125 Z" id="underline-icon-white" fill="#FFFFFF" fill-rule="nonzero"></path>
                </g>
            </g>
        </g>
    </g>
</svg>