<?xml version="1.0" encoding="UTF-8"?>
<svg width="22px" height="22px" viewBox="0 0 22 22" version="1.1" xmlns="http://www.w3.org/2000/svg" xmlns:xlink="http://www.w3.org/1999/xlink">
    <title>icon-email-black</title>
    <g id="Page-1-Icons" stroke="none" stroke-width="1" fill="none" fill-rule="evenodd">
        <g id="PECOS-2.0-Icons-Overview-v26" transform="translate(-2670.000000, -1419.000000)" fill="#000000">
            <g id="CORRESPONDENCE-VIEWER-ICONS" transform="translate(2647.000000, 1337.000000)">
                <g id="icon-email-black" transform="translate(23.000000, 82.000000)">
                    <path d="M19,4 C20.1045695,4 21,4.8954305 21,6 L21,17 C21,18.1045695 20.1045695,19 19,19 L3,19 C1.8954305,19 1,18.1045695 1,17 L1,6 C1,4.8954305 1.8954305,4 3,4 L19,4 Z M19.449,7.343 L12.2638574,13.3189017 C11.5217548,13.9360271 10.4447882,13.9351275 9.70371757,13.3167632 L2.583,7.375 L2.58333333,16.3643188 C2.58333333,16.8771547 2.96937352,17.299826 3.46671221,17.3575911 L3.58333333,17.3643188 L18.4497452,17.3643188 C18.962581,17.3643188 19.3852523,16.9782787 19.4430174,16.48094 L19.4497452,16.3643188 L19.449,7.343 Z M18.4497452,5.64401054 L3.58333333,5.64401054 C3.50078284,5.64401054 3.42056858,5.6540132 3.34383648,5.6728726 L10.7191536,11.8318749 C10.9053416,11.9873446 11.1762611,11.986754 11.3617695,11.8304741 L18.6751235,5.66951172 C18.6026888,5.65282702 18.5272466,5.64401054 18.4497452,5.64401054 Z" id="Combined-Shape"></path>
                </g>
            </g>
        </g>
    </g>
</svg>