<?xml version="1.0" encoding="UTF-8"?>
<svg width="23px" height="22px" viewBox="0 0 23 22" version="1.1" xmlns="http://www.w3.org/2000/svg" xmlns:xlink="http://www.w3.org/1999/xlink">
    <title>icon-certified-letter-black</title>
    <g id="Page-1-Icons" stroke="none" stroke-width="1" fill="none" fill-rule="evenodd">
        <g id="PECOS-2.0-Icons-Overview-v26" transform="translate(-2670.000000, -1488.000000)" fill="#000000">
            <g id="CORRESPONDENCE-VIEWER-ICONS" transform="translate(2647.000000, 1337.000000)">
                <g id="icon-certified-letter-black" transform="translate(23.000000, 151.000000)">
                    <path d="M19.0198284,15.3439627 L20.0131454,15.344223 L20.0131454,22 L15.9992696,19.7921314 L12.0323448,22 L12.0323448,15.344223 L13.1508284,15.3439627 L13.5461455,15.9854931 L13.5687959,19.5377541 L16.037056,18.0377541 L18.575937,19.5377541 L18.5535574,16.0279543 L19.0198284,15.3439627 Z M12.1948379,0 C12.4635956,-9.37548406e-16 12.7210407,0.108180882 12.9091301,0.300152403 L15.7585618,3.20839529 C15.9416971,3.39531048 16.0442696,3.646564 16.0442696,3.90824289 L16.0445405,4.00014332 L15.9992696,4 L15.9992696,4 C15.4411809,4 14.8983464,4.06531066 14.3779921,4.18870591 C14.3076515,4.11858863 14.2154462,4.07058107 14.112518,4.05418274 L14.0334854,4.04795915 L12.0442696,4.04795915 L12.0442696,2.05465751 C12.0442696,1.80948929 11.8677988,1.60548079 11.6348702,1.56284675 L11.5451099,1.55465821 L1.60270309,1.53794765 L1.60270309,17.4924736 L10.044,17.492 L10.044,19.022 L1,19.0229454 C0.44771525,19.0229454 6.76353751e-17,18.5752302 0,18.0229454 L0,1 C-6.76353751e-17,0.44771525 0.44771525,1.01453063e-16 1,0 L12.1948379,0 Z M16.108129,5.3352214 C16.1565521,5.35933021 16.1958494,5.39849438 16.2201225,5.44683536 L16.7847511,6.56935942 C16.8380703,6.57874537 16.891066,6.58907006 16.9437205,6.60031581 L17.8770735,5.78302995 C17.9809178,5.69203527 18.1388659,5.70245187 18.2298606,5.80629609 C18.26471,5.84606668 18.2860514,5.89586321 18.2908168,5.94852699 L18.4028284,7.18796271 C18.4643915,7.23502786 18.5236678,7.27458434 18.58193,7.31548726 L19.7673488,6.92597027 L19.8332673,6.91366513 L19.8978735,6.91892355 C19.981803,6.93696912 20.0542096,6.9978027 20.0830002,7.08523174 C20.0995396,7.13545752 20.0997275,7.18963422 20.0835366,7.23997346 L19.6991402,8.43889414 C19.7234825,8.47397935 19.7473385,8.50942741 19.7706985,8.54522858 L21.033232,8.62878565 C21.1710039,8.63787165 21.2753244,8.75692349 21.2662384,8.8946954 C21.2627586,8.94745973 21.2426378,8.99776183 21.2087685,9.03837037 L20.3915836,10.0180395 C20.4054667,10.0803463 20.418058,10.1431401 20.4293278,10.2063913 L21.5606826,10.7787116 C21.6839522,10.840907 21.7334625,10.9912561 21.671267,11.1145256 C21.6474472,11.1617358 21.6092713,11.2001773 21.5622274,11.2243239 L20.4271882,11.8076066 C20.419402,11.8506332 20.411004,11.893447 20.4020036,11.9360386 L21.2323248,12.8813726 C21.268053,12.9219871 21.2896443,12.9730941 21.293858,13.0270225 C21.3030769,13.1450096 21.2288161,13.2502542 21.1207262,13.2846893 L21.064092,13.2957372 L19.8110567,13.3938654 C19.7715181,13.4567182 19.730468,13.5185242 19.6879574,13.5792325 L20.0823305,14.7710303 C20.0993491,14.8223762 20.0992549,14.8778568 20.0820621,14.9291446 C20.0454918,15.0382375 19.9409939,15.1054123 19.8314182,15.0993775 L19.7655662,15.0867211 L18.577952,14.6893852 C18.5371548,14.7179612 18.4958617,14.7458776 18.4540882,14.7731189 L18.373479,16.0309208 C18.3700239,16.0849032 18.3491531,16.1363087 18.3139995,16.1774214 C18.2392252,16.2648711 18.1171723,16.2880088 18.0178362,16.2413657 L17.9615204,16.2049623 L17.0053347,15.3881525 C16.9321375,15.404869 16.8582605,15.4198006 16.7837521,15.4328991 L16.2201225,16.5531646 C16.1958494,16.6015056 16.1565521,16.6406698 16.108129,16.6647786 C16.0051295,16.7160598 15.8837386,16.6896684 15.8105242,16.6079194 L15.7729092,16.5524056 L15.2147871,15.4328991 C15.1668483,15.4244715 15.1191709,15.4152851 15.0717678,15.4053527 L14.1400357,16.2186908 C14.0999368,16.253739 14.0496933,16.2750661 13.9966266,16.2795643 C13.8787028,16.28956 13.7729714,16.215994 13.7378252,16.1081332 L13.7264046,16.051573 L13.6578284,15.2449627 L13.6215478,14.8222872 C13.5533171,14.7797415 13.4863087,14.7354193 13.4205872,14.6893852 L12.3538284,15.0369627 L12.2498498,15.0718697 L12.1982131,15.0829325 L12.1456926,15.0829325 L12.0940559,15.0718697 C11.9847245,15.0360186 11.916863,14.9319654 11.9221761,14.8223523 L11.9343985,14.7564184 L12.3169019,13.5882347 C12.2841917,13.5417638 12.252339,13.4946458 12.2213667,13.4469038 L11.0116206,13.3654274 C10.9584836,13.361856 10.9078755,13.3414091 10.867171,13.307066 C10.7792308,13.2328692 10.7552897,13.1109713 10.8012777,13.0113301 L10.8373094,12.9547759 L11.6174192,12.0298678 C11.5974379,11.9444339 11.5798906,11.8580635 11.5648545,11.7708339 L10.4849874,11.2230577 C10.4374699,11.199008 10.3988742,11.1604123 10.3748245,11.1128948 C10.3228661,11.0102353 10.3484574,10.8886733 10.4297225,10.814922 L10.4849874,10.7769423 L11.565198,10.2292586 C11.5743685,10.1762003 11.5844681,10.1234602 11.5954795,10.0710557 L10.7678904,9.13580172 C10.6763434,9.03244408 10.6859178,8.87444266 10.7892755,8.78289568 C10.8297684,8.74702989 10.8808018,8.72526518 10.9347156,8.72086845 L12.1805404,8.61928849 C12.2224267,8.55227294 12.266028,8.48643939 12.3112829,8.42184931 L11.9132789,7.23443381 C11.8693945,7.10352234 11.9399439,6.96182229 12.0708554,6.9179379 C12.1221432,6.90074511 12.1776238,6.90065094 12.2289697,6.91766954 L13.4215822,7.31200092 C13.4627032,7.2832145 13.5043278,7.25509811 13.54644,7.2276676 L13.622525,5.98292969 C13.6308764,5.84511131 13.7493704,5.74015758 13.8871888,5.74850898 C13.9411826,5.75178085 13.9926586,5.77247697 14.0338904,5.80749083 L14.9852773,6.61574826 C15.0607399,6.59836996 15.1369278,6.58288936 15.2137881,6.56935942 L15.7729092,5.44759441 C15.8344466,5.32399507 15.9845296,5.27368396 16.108129,5.3352214 Z M9.67325046,14.0007361 C9.78466655,14.2352017 9.90873388,14.4624913 10.0445702,14.6817226 L10.044,15 L4.04426956,15 L4.04426956,14 L9.67325046,14.0007361 Z M15.9992696,7.5 C14.0662729,7.5 12.4992696,9.06700338 12.4992696,11 C12.4992696,12.9329966 14.0662729,14.5 15.9992696,14.5 C17.9322662,14.5 19.4992696,12.9329966 19.4992696,11 C19.4992696,9.06700338 17.9322662,7.5 15.9992696,7.5 Z M4.04426956,12 L9.07030297,12.0010101 C9.11926475,12.3429513 9.19293918,12.6769182 9.28945881,13.0010432 L4.04426956,13 L4.04426956,12 Z M9.0701596,9.99999177 C9.02344193,10.3265974 8.99926956,10.6604758 8.99926956,11 L4.04426956,11 L4.04426956,10 L9.0701596,9.99999177 Z M9.67277389,8.00026701 C9.52050415,8.32083747 9.39188211,8.65481777 9.28916203,8.99995367 L4.04426956,9 L4.04426956,8 L9.67277389,8.00026701 Z M11.100926,5.99937371 C10.7887003,6.30525259 10.5050008,6.64013871 10.2541882,6.99967126 L4.04426956,7 L4.04426956,6 L11.100926,5.99937371 Z M10.2664918,4 L10.2664918,5 L4.04426956,5 L4.04426956,4 L10.2664918,4 Z" id="Combined-Shape"></path>
                </g>
            </g>
        </g>
    </g>
</svg>