<?xml version="1.0" encoding="UTF-8"?>
<svg width="27px" height="26px" viewBox="0 0 27 26" version="1.1" xmlns="http://www.w3.org/2000/svg" xmlns:xlink="http://www.w3.org/1999/xlink">
    <title>icon-italics-on</title>
    <g id="Page-1-Icons" stroke="none" stroke-width="1" fill="none" fill-rule="evenodd">
        <g id="PECOS-2.0-Icons-Overview-v27" transform="translate(-2663.000000, -1733.000000)">
            <g id="CORRESPONDENCE-VIEWER-ICONS" transform="translate(2651.000000, 1369.000000)">
                <g id="icon-italics-on" transform="translate(12.023881, 364.000000)">
                    <rect id="selected-rect" fill="#969388" x="0" y="0" width="26" height="26" rx="4"></rect>
                    <path d="M13.766791,19 L13.8996035,18.3203125 L13.469916,18.3203125 C13.0844994,18.3203125 12.8110619,18.2994792 12.6496035,18.2578125 C12.3839785,18.1848958 12.251166,18.0364583 12.251166,17.8125 C12.251166,17.7604167 12.2589785,17.7018229 12.2746035,17.6367188 C12.2902285,17.5716146 12.313666,17.4713542 12.344916,17.3359375 L14.6183535,8.859375 C14.7121035,8.53645833 14.8358015,8.33723958 14.9894473,8.26171875 C15.1430931,8.18619792 15.532416,8.14322917 16.157416,8.1328125 L16.2902285,7.4453125 L11.344916,7.4453125 L11.2121035,8.1328125 L12.048041,8.1484375 C12.2928327,8.15364583 12.4725202,8.17708333 12.5871035,8.21875 C12.8006452,8.29166667 12.907416,8.4296875 12.907416,8.6328125 C12.907416,8.6796875 12.9022077,8.73567708 12.891791,8.80078125 C12.8813744,8.86588542 12.8657494,8.93229167 12.844916,9 L10.6339785,17.1953125 C10.4881452,17.7526042 10.3331973,18.078125 10.1691348,18.171875 C10.0050723,18.265625 9.60012438,18.3151042 8.95429104,18.3203125 L8.82147854,19 L13.766791,19 Z" id="I" fill="#FFFFFF" fill-rule="nonzero"></path>
                </g>
            </g>
        </g>
    </g>
</svg>