<?xml version="1.0" encoding="UTF-8"?>
<svg width="26px" height="26px" viewBox="0 0 26 26" version="1.1" xmlns="http://www.w3.org/2000/svg" xmlns:xlink="http://www.w3.org/1999/xlink">
    <title>icon-italics-off</title>
    <g id="Page-1-Icons" stroke="none" stroke-width="1" fill="none" fill-rule="evenodd">
        <g id="PECOS-2.0-Icons-Overview-v27" transform="translate(-2663.000000, -1597.000000)">
            <g id="CORRESPONDENCE-VIEWER-ICONS" transform="translate(2651.000000, 1369.000000)">
                <g id="icon-italics-off" transform="translate(12.000000, 228.000000)">
                    <rect id="selected-rect" x="0" y="0" width="26" height="26" rx="4"></rect>
                    <path d="M14.0053125,19 L14.138125,18.3203125 L13.7084375,18.3203125 C13.3230208,18.3203125 13.0495833,18.2994792 12.888125,18.2578125 C12.6225,18.1848958 12.4896875,18.0364583 12.4896875,17.8125 C12.4896875,17.7604167 12.4975,17.7018229 12.513125,17.6367188 C12.52875,17.5716146 12.5521875,17.4713542 12.5834375,17.3359375 L12.5834375,17.3359375 L14.856875,8.859375 C14.950625,8.53645833 15.0743229,8.33723958 15.2279687,8.26171875 C15.3816146,8.18619792 15.7709375,8.14322917 16.3959375,8.1328125 L16.3959375,8.1328125 L16.52875,7.4453125 L11.5834375,7.4453125 L11.450625,8.1328125 L12.2865625,8.1484375 C12.5313542,8.15364583 12.7110417,8.17708333 12.825625,8.21875 C13.0391667,8.29166667 13.1459375,8.4296875 13.1459375,8.6328125 C13.1459375,8.6796875 13.1407292,8.73567708 13.1303125,8.80078125 C13.1198958,8.86588542 13.1042708,8.93229167 13.0834375,9 L13.0834375,9 L10.8725,17.1953125 C10.7266667,17.7526042 10.5717187,18.078125 10.4076562,18.171875 C10.2435937,18.265625 9.83864583,18.3151042 9.1928125,18.3203125 L9.1928125,18.3203125 L9.06,19 L14.0053125,19 Z" id="I" fill="#000000" fill-rule="nonzero"></path>
                </g>
            </g>
        </g>
    </g>
</svg>