<?xml version="1.0" encoding="UTF-8"?>
<svg width="22px" height="22px" viewBox="0 0 22 22" version="1.1" xmlns="http://www.w3.org/2000/svg" xmlns:xlink="http://www.w3.org/1999/xlink">
    <title>icon-letter-black</title>
    <g id="Page-1-Icons" stroke="none" stroke-width="1" fill="none" fill-rule="evenodd">
        <g id="PECOS-2.0-Icons-Overview-v26" transform="translate(-2670.000000, -1381.000000)" fill="#000000">
            <g id="CORRESPONDENCE-VIEWER-ICONS" transform="translate(2647.000000, 1337.000000)">
                <g id="icon-letter-black" transform="translate(23.000000, 44.000000)">
                    <path d="M15.1505683,2 C15.419326,2 15.6767711,2.10818088 15.8648605,2.3001524 L18.7142922,5.20839529 C18.8974275,5.39531048 19,5.646564 19,5.90824289 L19,20.0229454 C19,20.5752302 18.5522847,21.0229454 18,21.0229454 L3.95573044,21.0229454 C3.40344569,21.0229454 2.95573044,20.5752302 2.95573044,20.0229454 L2.95573044,3 C2.95573044,2.44771525 3.40344569,2 3.95573044,2 L15.1505683,2 Z M4.55843353,3.53794765 L4.55843353,19.4924736 L17.4892159,19.4924736 L17.4892159,6.54795915 C17.4892159,6.27181678 17.2653582,6.04795915 16.9892159,6.04795915 L16.9892159,6.04795915 L15,6.04795915 L15,4.05465751 C15,3.77884326 14.7766542,3.55512178 14.5008404,3.55465821 L14.5008404,3.55465821 L4.55843353,3.53794765 Z M7,14 L15,14 L15,15 L7,15 L7,14 Z M7,16 L15,16 L15,17 L7,17 L7,16 Z M7,12 L15,12 L15,13 L7,13 L7,12 Z M7,10 L15,10 L15,11 L7,11 L7,10 Z M7,8 L15,8 L15,9 L7,9 L7,8 Z M7,6 L13.2222222,6 L13.2222222,7 L7,7 L7,6 Z" id="icon-letter"></path>
                </g>
            </g>
        </g>
    </g>
</svg>