<?xml version="1.0" encoding="UTF-8"?>
<svg width="27px" height="26px" viewBox="0 0 27 26" version="1.1" xmlns="http://www.w3.org/2000/svg" xmlns:xlink="http://www.w3.org/1999/xlink">
    <title>icon-bold-on</title>
    <g id="Page-1-Icons" stroke="none" stroke-width="1" fill="none" fill-rule="evenodd">
        <g id="PECOS-2.0-Icons-Overview-v27" transform="translate(-2663.000000, -1696.000000)">
            <g id="CORRESPONDENCE-VIEWER-ICONS" transform="translate(2651.000000, 1369.000000)">
                <g id="icon-bold-on" transform="translate(12.023881, 327.000000)">
                    <rect id="selected-rect" fill="#969388" x="0" y="0" width="26" height="26" rx="4"></rect>
                    <path d="M12.9777285,19 C14.2693952,19 15.2915306,18.7083333 16.0441348,18.125 C16.796739,17.5416667 17.173041,16.7291667 17.173041,15.6875 C17.173041,14.953125 17.0128848,14.3645833 16.6925723,13.921875 C16.3722598,13.4791667 15.8501244,13.1770833 15.126166,13.015625 L15.126166,13.015625 L15.126166,12.9375 C15.657416,12.8489583 16.0831973,12.5859375 16.4035098,12.1484375 C16.7238223,11.7109375 16.8839785,11.1510417 16.8839785,10.46875 C16.8839785,9.46354167 16.5180931,8.73046875 15.7863223,8.26953125 C15.0545515,7.80859375 13.8787702,7.578125 12.2589785,7.578125 L12.2589785,7.578125 L8.70429104,7.578125 L8.70429104,19 L12.9777285,19 Z M12.532416,12.1015625 L11.126166,12.1015625 L11.126166,9.5625 L12.3996035,9.5625 C13.0923119,9.5625 13.5988223,9.65755208 13.9191348,9.84765625 C14.2394473,10.0377604 14.3996035,10.3515625 14.3996035,10.7890625 C14.3996035,11.2578125 14.2524681,11.59375 13.9581973,11.796875 C13.6639265,12 13.188666,12.1015625 12.532416,12.1015625 L12.532416,12.1015625 Z M12.704291,17 L11.126166,17 L11.126166,14.0234375 L12.626166,14.0234375 C13.9803327,14.0234375 14.657416,14.4973958 14.657416,15.4453125 C14.657416,15.9713542 14.4985619,16.3619792 14.1808535,16.6171875 C13.8631452,16.8723958 13.3709577,17 12.704291,17 L12.704291,17 Z" id="B" fill="#FFFFFF" fill-rule="nonzero"></path>
                </g>
            </g>
        </g>
    </g>
</svg>