<?xml version="1.0" encoding="UTF-8"?>
<svg width="22px" height="22px" viewBox="0 0 22 22" version="1.1" xmlns="http://www.w3.org/2000/svg" xmlns:xlink="http://www.w3.org/1999/xlink">
    <title>icon-auto-processed</title>
    <g id="Page-1-Icons" stroke="none" stroke-width="1" fill="none" fill-rule="evenodd">
        <g id="PECOS-2.0-Icons-Overview-v28" transform="translate(-279.000000, -2867.000000)" fill="#848D94">
            <g id="24x24-status-icons" transform="translate(24.000000, 2077.000000)">
                <g id="Application-Process-Status-Icons" transform="translate(235.000000, 0.000000)">
                    <path d="M22.0550057,799.999305 C22.0186596,800.327863 22,800.661752 22,801 C22,805.970563 26.0294373,810 31,810 C33.660363,810 36.0511271,808.84571 37.6987843,807.010637 L36.0222859,807.010779 C35.5094501,807.010782 35.0867785,806.624742 35.0290129,806.127403 L35.0222876,806.010777 C35.0222902,805.458492 35.4700052,805.010778 36.0222893,805.010777 L39.996707,805.010777 C40.5489917,805.010777 40.996707,805.458492 40.996707,806.010777 L40.996707,809.979133 C40.996707,810.531417 40.5489917,810.979133 39.996707,810.979133 C39.4444222,810.979133 38.996707,810.531417 38.996707,809.979133 L38.9968371,808.553225 C36.991473,810.675614 34.1503999,812 31,812 C24.9248678,812 20,807.075132 20,801 C20,800.662663 20.0151849,800.328873 20.0449084,799.999275 L22.0550057,799.999305 Z M29.8283896,795.314119 L29.8718722,795.382551 L30.3552928,796.357983 C30.7405553,796.323506 31.1328338,796.336672 31.523381,796.400838 L32.1008573,795.375247 C32.1956912,795.206528 32.4035533,795.138201 32.5804338,795.216953 L33.9605886,795.83308 C34.137469,795.911832 34.2247884,796.112403 34.1628625,796.295773 L33.7762984,797.434474 C34.0617508,797.673752 34.314208,797.943862 34.5308515,798.237454 L35.7039014,797.909454 C35.8899686,797.856867 36.0861942,797.954902 36.1558446,798.136116 L36.6978236,799.546215 C36.7670934,799.726438 36.6876374,799.93073 36.5141301,800.015995 L35.4238424,800.554499 C35.4605278,800.920497 35.4541549,801.293137 35.4018308,801.664875 L36.4543454,802.257362 C36.6232208,802.352249 36.6917194,802.560036 36.6130345,802.736765 L35.9974336,804.115737 C35.9183681,804.291476 35.7181181,804.379608 35.5346036,804.317601 L34.4192742,803.939078 C34.173853,804.245323 33.8935346,804.5154 33.5868632,804.746025 L33.8980017,805.852246 C33.9423543,806.011995 33.8769389,806.17835 33.7436208,806.266576 L33.6714971,806.303786 L32.2609349,806.844557 C32.1058194,806.903537 31.9334445,806.853525 31.8335655,806.728796 L31.7900829,806.660364 L31.2940923,805.657834 C30.9065322,805.701601 30.5109749,805.697134 30.1164159,805.640977 L29.5583206,806.634422 C29.4624962,806.80352 29.2553197,806.872153 29.0777536,806.793095 L27.6976744,806.178644 C27.5207939,806.099892 27.432484,805.899701 27.4947149,805.715646 L27.8508795,804.662664 C27.5435514,804.417317 27.2724698,804.136981 27.0409264,803.830231 L25.958366,804.133683 C25.7716133,804.185965 25.5753877,804.087929 25.5054323,803.907401 L24.9641389,802.497607 C24.895174,802.316699 24.9746301,802.112407 25.1481373,802.027142 L26.1253512,801.544262 C26.0757712,801.116426 26.0850539,800.678787 26.1578587,800.243486 L25.2007259,799.707469 C25.0557142,799.626725 24.984169,799.462306 25.0162377,799.305684 L25.0410462,799.228446 L25.6539048,797.848253 C25.721349,797.696771 25.8781063,797.610381 26.0370837,797.627838 L26.1163541,797.645399 L27.188806,798.006529 C27.443762,797.70276 27.7337684,797.436436 28.0499305,797.21097 L27.7639534,796.19067 C27.7186769,796.027593 27.7877896,795.857631 27.927214,795.771133 L27.9911437,795.739435 L29.4010203,795.198359 C29.5561358,795.139379 29.7285107,795.189391 29.8283896,795.314119 Z M29.1326553,800.221158 C28.7116491,801.166754 29.1377578,802.275385 30.0841634,802.696752 C31.0305691,803.118119 32.1395656,802.69296 32.5605718,801.747365 C32.981578,800.801769 32.5551996,799.693743 31.608794,799.272376 C30.6623883,798.851009 29.5536616,799.275563 29.1326553,800.221158 Z M31,790 C37.0751322,790 42,794.924868 42,801 C42,801.336996 41.9848458,801.670453 41.9551817,801.999726 L39.9451047,801.999697 C39.9813782,801.671461 40,801.337905 40,801 C40,796.029437 35.9705627,792 31,792 C28.3338581,792 25.9384877,793.159311 24.290489,795.001332 L26.0104656,795.001884 C26.5627504,795.001884 27.0104656,795.4496 27.0104656,796.001884 C27.0104656,796.554169 26.5627504,797.001884 26.0104656,797.001884 L22.0079246,797.001884 C21.4556398,797.001884 21.0079246,796.554169 21.0079246,796.001884 L21.0079246,792.016757 C21.0079246,791.464472 21.4556398,791.016757 22.0079246,791.016757 C22.5602093,791.016757 23.0079246,791.464472 23.0079246,792.016757 L23.0069607,793.442757 C25.0121132,791.322715 27.8515883,790 31,790 Z" id="icon-auto-processed"></path>
                </g>
            </g>
        </g>
    </g>
</svg>