<?xml version="1.0" encoding="UTF-8"?>
<svg width="24px" height="24px" viewBox="0 0 24 24" version="1.1" xmlns="http://www.w3.org/2000/svg" xmlns:xlink="http://www.w3.org/1999/xlink">
    <title>icon-data-updated</title>
    <g id="Page-1-Icons" stroke="none" stroke-width="1" fill="none" fill-rule="evenodd">
        <g id="PECOS-2.0-Icons-Overview-v21" transform="translate(-604.000000, -2761.000000)">
            <g id="24x24-status-icons" transform="translate(38.000000, 2277.000000)">
                <g id="Application-Process-Status-Icons" transform="translate(548.000000, 3.000000)">
                    <g id="icon-data-updated" transform="translate(18.000000, 481.000000)">
                        <circle id="Oval" fill="#0E7B7B" cx="12" cy="12" r="12"></circle>
                        <path d="M5.52094768,11.3019141 C5.5594089,11.3016857 5.59777708,11.3057183 5.63535036,11.3139383 L10.1959144,12.3116538 C10.4769169,12.3731287 10.6548791,12.6507615 10.5934041,12.931764 C10.5681287,13.0472979 10.5042854,13.1507898 10.4123752,13.2252172 L8.89120656,14.4563857 L8.91303235,14.4840912 C9.71018296,15.468964 10.7238629,15.9614004 11.9540722,15.9614004 C12.9880496,15.9614004 13.8966235,15.6135327 14.679794,14.9177971 C15.0754064,14.5663723 15.6571399,14.5227964 16.1006836,14.8113749 L16.1165357,14.8216885 C16.5189512,15.0835082 16.6329267,15.6219771 16.3711071,16.0243927 C16.3385758,16.0743931 16.3009843,16.1209122 16.2589588,16.1632463 C15.0833542,17.3456974 13.648392,17.9369229 11.9540722,17.9369229 C10.0699853,17.9369229 8.51967013,17.2058439 7.30312676,15.743686 L5.87952957,16.8958432 C5.65598485,17.0768662 5.32801796,17.0423955 5.14699501,16.8188508 C5.07256755,16.7269405 5.03163658,16.6124364 5.03093438,16.4941721 L5.00321594,11.8258306 C5.00150804,11.5381874 5.23330444,11.3036219 5.52094768,11.3019141 Z M12.0452149,6.02038574 C13.9293019,6.02038574 15.479617,6.75146472 16.6961604,8.21362267 L18.1197576,7.06146541 C18.3433023,6.88044246 18.6712692,6.91491317 18.8522921,7.13845789 C18.9267196,7.23036815 18.9676506,7.3448722 18.9683528,7.46313652 L18.9960712,12.131478 C18.9977791,12.4191213 18.7659827,12.6536867 18.4783395,12.6553946 C18.4398782,12.655623 18.4015101,12.6515903 18.3639368,12.6433704 L13.8033727,11.6456549 C13.5223703,11.5841799 13.3444081,11.3065471 13.405883,11.0255447 C13.4311584,10.9100107 13.4950017,10.8065189 13.586912,10.7320914 L15.1072066,9.50038574 L15.0862548,9.47321743 C14.2891042,8.48834461 13.2754242,7.9959082 12.0452149,7.9959082 C11.0112376,7.9959082 10.1026637,8.34377599 9.31949317,9.03951158 C8.92388075,9.39093636 8.34214722,9.43451223 7.89860349,9.14593377 L7.88275146,9.13562012 C7.48033594,8.87380049 7.36636044,8.3353315 7.62818007,7.93291597 C7.66071132,7.88291559 7.69830282,7.83639649 7.74032835,7.79406237 C8.91593297,6.61161128 10.3508952,6.02038574 12.0452149,6.02038574 Z" id="arrow-circle" fill="#FFFFFF"></path>
                    </g>
                </g>
            </g>
        </g>
    </g>
</svg>