<?xml version="1.0" encoding="UTF-8"?>
<svg width="24px" height="24px" viewBox="0 0 24 24" version="1.1" xmlns="http://www.w3.org/2000/svg" xmlns:xlink="http://www.w3.org/1999/xlink">
    <title>icon-data-transferred</title>
    <g id="Page-1-Icons" stroke="none" stroke-width="1" fill="none" fill-rule="evenodd">
        <g id="PECOS-2.0-Icons-Overview-v21" transform="translate(-604.000000, -2717.000000)">
            <g id="24x24-status-icons" transform="translate(38.000000, 2277.000000)">
                <g id="Application-Process-Status-Icons" transform="translate(548.000000, 3.000000)">
                    <g id="icon-data-transferred" transform="translate(18.000000, 437.000000)">
                        <circle id="Oval" fill="#0E7B7B" cx="12" cy="12" r="12"></circle>
                        <path d="M16.6824186,14.2817375 C16.6824186,14.4220994 16.6332088,14.5580192 16.5433513,14.6658482 L12.8243763,19.1286182 C12.6122378,19.3831844 12.233899,19.4175788 11.9793329,19.2054403 C11.951455,19.1822088 11.9257423,19.1564961 11.9025108,19.1286182 L8.18353572,14.6658482 C7.97139727,14.411282 8.00579171,14.0329432 8.26035785,13.8208048 C8.36818685,13.7309473 8.50410659,13.6817375 8.64446849,13.6817375 L11.3644186,13.6814075 L11.3634435,11.6434075 C11.3634435,11.0911227 11.8111588,10.6434075 12.3634435,10.6434075 C12.9157283,10.6434075 13.3634435,11.0911227 13.3634435,11.6434075 L13.3644186,13.6814075 L16.0824186,13.6817375 C16.4137894,13.6817375 16.6824186,13.9503667 16.6824186,14.2817375 Z M10.3445226,4.61765063 L14.3445226,4.61765063 C14.8968074,4.61765063 15.3445226,5.06536588 15.3445226,5.61765063 L15.3445226,8.61765063 C15.3445226,9.16993537 14.8968074,9.61765063 14.3445226,9.61765063 L10.3445226,9.61765063 C9.79223787,9.61765063 9.34452262,9.16993537 9.34452262,8.61765063 L9.34452262,5.61765063 C9.34452262,5.06536588 9.79223787,4.61765063 10.3445226,4.61765063 Z M11.3445226,6.61765063 L13.3445226,6.61765063 L13.3445226,7.61765063 L11.3445226,7.61765063 L11.3445226,6.61765063 Z" id="Combined-Shape" fill="#FFFFFF" transform="translate(12.363436, 11.981087) rotate(-90.000000) translate(-12.363436, -11.981087) "></path>
                    </g>
                </g>
            </g>
        </g>
    </g>
</svg>