<?xml version="1.0" encoding="UTF-8"?>
<svg width="36px" height="36px" viewBox="0 0 36 36" version="1.1" xmlns="http://www.w3.org/2000/svg" xmlns:xlink="http://www.w3.org/1999/xlink">
    <title>icon-tl-refund-waiver-request-withdrawn</title>
    <defs>
        <linearGradient x1="50%" y1="0%" x2="50%" y2="99.214055%" id="linearGradient-1">
            <stop stop-color="#58A74F" offset="0%"></stop>
            <stop stop-color="#31912E" offset="100%"></stop>
        </linearGradient>
        <linearGradient x1="50%" y1="0%" x2="50%" y2="99.4342937%" id="linearGradient-2">
            <stop stop-color="#76D16E" offset="0%"></stop>
            <stop stop-color="#5BB057" offset="100%"></stop>
        </linearGradient>
    </defs>
    <g id="Page-1-Icons" stroke="none" stroke-width="1" fill="none" fill-rule="evenodd">
        <g id="PECOS-2.0-Icons-Overview-v30" transform="translate(-2728.000000, -2708.000000)">
            <g id="FEE-PAYMENT-TIMELINE-ICONS" transform="translate(2702.000000, 2130.000000)">
                <g id="REFUNDS-&amp;-WAIVER-TL-ICONS" transform="translate(21.000000, 374.000000)">
                    <g id="Request-Withdrawn" transform="translate(0.000000, 199.000000)">
                        <g id="icon-tl-refund-waiver-request-withdrawn" transform="translate(5.000000, 5.000000)">
                            <g id="icon-payment-small">
                                <rect id="card" fill="url(#linearGradient-1)" x="6.96774194" y="0" width="20.0322581" height="14.6694695" rx="1.74193548"></rect>
                                <path d="M12.1935484,3.45163988 L12.1935484,5.17745983 L8.70967742,5.17745983 L8.70967742,3.45163988 L12.1935484,3.45163988 Z M16.5483871,3.45163988 L16.5483871,5.17745983 L13.0645161,5.17745983 L13.0645161,3.45163988 L16.5483871,3.45163988 Z M20.9032258,3.45163988 L20.9032258,5.17745983 L17.4193548,5.17745983 L17.4193548,3.45163988 L20.9032258,3.45163988 Z M25.2580645,3.45163988 L25.2580645,5.17745983 L21.7741935,5.17745983 L21.7741935,3.45163988 L25.2580645,3.45163988 Z" id="Combined-Shape" fill="#CAEFBD"></path>
                                <path d="M15.6344331,12.9436496 C15.6394319,12.3142987 15.1233143,11.8057832 14.4845548,11.8057832 C14.1370697,11.8057832 13.8304652,11.9618622 13.615842,12.1984981 L9.96653495,16.3057541 C9.90184705,16.3178534 9.72811828,16.2928535 9.44534864,16.2307543 C9.16257899,16.1686552 8.82180964,15.9340378 8.42304057,15.526902 C7.69566558,14.8353307 7.32880229,13.9594016 7.32880229,13.9594016 C7.13051679,13.7945513 6.96774194,13.0675243 6.96774194,12.9436496 C6.96774194,11.9996545 6.96774194,10.8491079 6.96774194,9.49200968 L4.58562528,9.8099874 C4.5805152,9.8099874 4.57540513,9.8150222 4.57029505,9.8150222 C4.56518498,9.8150222 4.5600749,9.8150222 4.54985475,9.8150222 L4.25858044,9.86033547 C3.77312325,9.99124045 3.41541795,10.4292687 3.41541795,10.9528886 C3.41541795,10.9579234 3.41541795,10.9579234 3.41030788,10.9629582 L2.66934691,18.3339156 L2.65912676,18.3389504 C2.62335623,18.792083 2.31675169,19.1696935 1.89772548,19.3157029 L0.098978849,20.1514809 L0.0734284707,20.2572118 C0.0734284707,20.2572118 -0.284276826,21.7223407 0.579325961,23.2277479 C1.44292875,24.7331552 4.26369051,25 4.26369051,25 L5.18350413,23.9628298 C5.18350413,23.9628298 8.15245809,24.4310668 9.96653495,22.4977009 C11.6835204,20.670066 15.1233143,14.3430118 15.4350289,13.5780352 C15.4350289,13.5730004 15.440139,13.5730004 15.440139,13.5679656 C15.4605793,13.532722 15.4759095,13.5125828 15.4759095,13.5125828 C15.573001,13.3464341 15.6344331,13.1500766 15.6344331,12.9436496 Z" id="hand" fill="url(#linearGradient-2)"></path>
                                <path d="M22.6451613,7.76618974 L22.6442903,9.49118974 L24.3870968,9.49200968 L24.3870968,11.2178296 L22.6442903,11.2171897 L22.6451613,12.9436496 L20.9032258,12.9436496 L20.9022903,11.2171897 L19.1612903,11.2178296 L19.1612903,9.49200968 L20.9022903,9.49118974 L20.9032258,7.76618974 L22.6451613,7.76618974 Z" id="cross" fill="#A1DC8C"></path>
                            </g>
                            <g id="icon-request-withdrawn" transform="translate(11.000000, 11.000000)">
                                <circle id="Oval" stroke="#CAEFBD" fill="#848D94" cx="12" cy="12" r="12.5"></circle>
                                <path d="M12,8 C12.5522847,8 13,8.44771525 13,9 L13.000975,14.038 L15.718975,14.0383301 C16.0503459,14.0383301 16.318975,14.3069592 16.318975,14.6383301 C16.318975,14.778692 16.2697653,14.9146117 16.1799078,15.0224407 L12.4609328,19.4852108 C12.2487943,19.7397769 11.8704555,19.7741713 11.6158894,19.5620329 C11.5880115,19.5388014 11.5622988,19.5130886 11.5390672,19.4852108 L7.8200922,15.0224407 C7.60795375,14.7678746 7.64234819,14.3895358 7.89691433,14.1773973 C8.00474333,14.0875398 8.14066306,14.0383301 8.28102497,14.0383301 L11.000975,14.038 L11,9 C11,8.44771525 11.4477153,8 12,8 Z M17,5 C17.5522847,5 18,5.44771525 18,6 L18,8.99953365 C18,9.5518184 17.5522847,9.99953365 17,9.99953365 C16.4477153,9.99953365 16,9.5518184 16,8.99953365 L16,6.99701755 L8,6.99701755 L8,8.99953365 C8,9.5518184 7.55228475,9.99953365 7,9.99953365 C6.44771525,9.99953365 6,9.5518184 6,8.99953365 L6,6 C6,5.44771525 6.44771525,5 7,5 L17,5 Z" id="arrow-down" fill="#FFFFFF"></path>
                            </g>
                        </g>
                    </g>
                </g>
            </g>
        </g>
    </g>
</svg>