<?xml version="1.0" encoding="UTF-8"?>
<svg width="36px" height="36px" viewBox="0 0 36 36" version="1.1" xmlns="http://www.w3.org/2000/svg" xmlns:xlink="http://www.w3.org/1999/xlink">
    <title>icon-tl-refunded-closed</title>
    <defs>
        <linearGradient x1="50%" y1="0%" x2="50%" y2="99.214055%" id="linearGradient-1">
            <stop stop-color="#58A74F" offset="0%"></stop>
            <stop stop-color="#31912E" offset="100%"></stop>
        </linearGradient>
        <linearGradient x1="50%" y1="0%" x2="50%" y2="99.4342937%" id="linearGradient-2">
            <stop stop-color="#76D16E" offset="0%"></stop>
            <stop stop-color="#5BB057" offset="100%"></stop>
        </linearGradient>
    </defs>
    <g id="Page-1-Icons" stroke="none" stroke-width="1" fill="none" fill-rule="evenodd">
        <g id="PECOS-2.0-Icons-Overview-v32-pending-reviews" transform="translate(-2454.000000, -2473.000000)">
            <g id="FEE-PAYMENT-TIMELINE-ICONS" transform="translate(2435.000000, 2206.000000)">
                <g transform="translate(12.000000, 43.000000)" id="Payment-Refunded-Closed">
                    <g transform="translate(2.000000, 218.000000)">
                        <g id="icon-tl-refunded-closed" transform="translate(5.000000, 6.000000)">
                            <g id="icon-payment-small">
                                <rect id="card" fill="url(#linearGradient-1)" x="6.96774194" y="0" width="20.0322581" height="14.6694695" rx="1.74193548"></rect>
                                <path d="M8.70967742,3.45163988 L12.1935484,3.45163988 L12.1935484,5.17745983 L8.70967742,5.17745983 L8.70967742,3.45163988 Z M13.0645161,3.45163988 L16.5483871,3.45163988 L16.5483871,5.17745983 L13.0645161,5.17745983 L13.0645161,3.45163988 Z M17.4193548,3.45163988 L20.9032258,3.45163988 L20.9032258,5.17745983 L17.4193548,5.17745983 L17.4193548,3.45163988 Z M21.7741935,3.45163988 L25.2580645,3.45163988 L25.2580645,5.17745983 L21.7741935,5.17745983 L21.7741935,3.45163988 Z" id="Combined-Shape" fill="#CAEFBD"></path>
                                <path d="M15.6344331,12.9436496 C15.6394319,12.3142987 15.1233143,11.8057832 14.4845548,11.8057832 C14.1370697,11.8057832 13.8304652,11.9618622 13.615842,12.1984981 L9.96653495,16.3057541 C9.90184705,16.3178534 9.72811828,16.2928535 9.44534864,16.2307543 C9.16257899,16.1686552 8.82180964,15.9340378 8.42304057,15.526902 C7.69566558,14.8353307 7.32880229,13.9594016 7.32880229,13.9594016 C7.13051679,13.7945513 6.96774194,13.0675243 6.96774194,12.9436496 C6.96774194,11.9996545 6.96774194,10.8491079 6.96774194,9.49200968 L4.58562528,9.8099874 C4.5805152,9.8099874 4.57540513,9.8150222 4.57029505,9.8150222 C4.56518498,9.8150222 4.5600749,9.8150222 4.54985475,9.8150222 L4.25858044,9.86033547 C3.77312325,9.99124045 3.41541795,10.4292687 3.41541795,10.9528886 C3.41541795,10.9579234 3.41541795,10.9579234 3.41030788,10.9629582 L2.66934691,18.3339156 L2.65912676,18.3389504 C2.62335623,18.792083 2.31675169,19.1696935 1.89772548,19.3157029 L0.098978849,20.1514809 L0.0734284707,20.2572118 C0.0734284707,20.2572118 -0.284276826,21.7223407 0.579325961,23.2277479 C1.44292875,24.7331552 4.26369051,25 4.26369051,25 L5.18350413,23.9628298 C5.18350413,23.9628298 8.15245809,24.4310668 9.96653495,22.4977009 C11.6835204,20.670066 15.1233143,14.3430118 15.4350289,13.5780352 C15.4350289,13.5730004 15.440139,13.5730004 15.440139,13.5679656 C15.4605793,13.532722 15.4759095,13.5125828 15.4759095,13.5125828 C15.573001,13.3464341 15.6344331,13.1500766 15.6344331,12.9436496 Z" id="hand" fill="url(#linearGradient-2)"></path>
                                <path d="M22.6451613,7.76618974 L22.6442903,9.49118974 L24.3870968,9.49200968 L24.3870968,11.2178296 L22.6442903,11.2171897 L22.6451613,12.9436496 L20.9032258,12.9436496 L20.9022903,11.2171897 L19.1612903,11.2178296 L19.1612903,9.49200968 L20.9022903,9.49118974 L20.9032258,7.76618974 L22.6451613,7.76618974 Z" id="cross" fill="#A1DC8C"></path>
                            </g>
                            <g id="icon-refunded-closed" transform="translate(11.000000, 11.000000)">
                                <circle id="Oval" stroke="#CAEFBD" fill="#848D94" cx="12" cy="12" r="12.5"></circle>
                                <path d="M12.4643732,2.38311188 C12.4876855,2.42196573 12.5,2.46642483 12.5,2.51173582 L12.5004657,4.01539972 C16.6856107,4.27372705 20,7.74980498 20,12 C20,16.418278 16.418278,20 12,20 C10.8498892,20 9.75646342,19.7573026 8.76814308,19.3203282 L10.893628,17.8982062 C11.2522188,17.9650503 11.6220279,18 12,18 C15.3137085,18 18,15.3137085 18,12 C18,8.85471553 15.5798382,6.27469013 12.5001393,6.02054838 L12.5,7.62864063 C12.5,7.76671182 12.3880712,7.87864063 12.25,7.87864063 C12.204689,7.87864063 12.1602299,7.86632617 12.1213761,7.84301386 L7.85728872,5.28456146 C7.73889365,5.21352442 7.70050239,5.05995935 7.77153943,4.94156429 C7.79265187,4.90637688 7.82210132,4.87692743 7.85728872,4.85581499 L12.1213761,2.29736259 C12.2397711,2.22632555 12.3933362,2.26471681 12.4643732,2.38311188 Z M8.2374124,7.26169804 L8.2374124,8.54405098 C8.66388298,8.60679608 9.06461828,8.71463921 9.43961828,8.86758039 C9.81461828,9.02052157 10.1197653,9.21071765 10.3550595,9.43816863 L10.3550595,9.43816863 L9.80358887,10.744051 C9.07564769,10.2028745 8.35505946,9.93228627 7.64182416,9.93228627 C7.24476534,9.93228627 6.92675063,10.0224824 6.68778004,10.2028745 C6.44880946,10.3832667 6.32932416,10.6342471 6.32932416,10.9558157 C6.32932416,11.1754235 6.3991771,11.3558157 6.53888298,11.4969922 C6.67858887,11.6381686 6.85505946,11.7479725 7.06829475,11.8264039 C7.28153004,11.9048353 7.57932416,11.9950314 7.9616771,12.0969922 C8.49108887,12.2381686 8.92858887,12.3832667 9.2741771,12.5322863 C9.61976534,12.6813059 9.91572122,12.9126784 10.1620447,13.2264039 C10.4083683,13.5401294 10.53153,13.9636588 10.53153,14.4969922 C10.53153,15.1322863 10.3274859,15.6675804 9.91939769,16.1028745 C9.51130946,16.5381686 8.9616771,16.8185608 8.27050063,16.944051 L8.27050063,16.944051 L8.27050063,18.261698 L6.94697122,18.261698 L6.94697122,16.9911098 C6.46903004,16.9518941 6.02233887,16.8538549 5.60689769,16.6969922 C5.19145651,16.5401294 4.83300063,16.3362078 4.53153004,16.0852274 L4.53153004,16.0852274 L5.08300063,14.7793451 C5.81094181,15.3205216 6.59403004,15.5911098 7.43226534,15.5911098 C7.88079475,15.5911098 8.22454475,15.5028745 8.46351534,15.3264039 C8.70248593,15.1499333 8.82197122,14.9009137 8.82197122,14.5793451 C8.82197122,14.3832667 8.75579475,14.2224824 8.62344181,14.0969922 C8.49108887,13.971502 8.32380946,13.871502 8.12160357,13.7969922 C7.91939769,13.7224824 7.63079475,13.6342471 7.25579475,13.5322863 C6.7116771,13.3911098 6.26314769,13.2420902 5.91020651,13.0852274 C5.55726534,12.9283647 5.25395651,12.6871882 5.00028004,12.361698 C4.74660357,12.0362078 4.61976534,11.6028745 4.61976534,11.061698 C4.61976534,10.4342471 4.8311624,9.89503137 5.25395651,9.44405098 C5.67675063,8.99307059 6.23005946,8.70483529 6.91388298,8.5793451 L6.91388298,8.5793451 L6.91388298,7.26169804 L8.2374124,7.26169804 Z" id="icon-refunded" fill="#FFFFFF"></path>
                            </g>
                        </g>
                    </g>
                </g>
            </g>
        </g>
    </g>
</svg>