<?xml version="1.0" encoding="UTF-8"?>
<svg width="24px" height="24px" viewBox="0 0 24 24" version="1.1" xmlns="http://www.w3.org/2000/svg" xmlns:xlink="http://www.w3.org/1999/xlink">
    <title>icon-deleted</title>
    <g id="Page-1" stroke="none" stroke-width="1" fill="none" fill-rule="evenodd">
        <g id="PECOS-2.0-Icons-&amp;-Illus-Overview-v17" transform="translate(-1874.000000, -2512.000000)">
            <g id="Revocation-Status-Icons" transform="translate(1856.000000, 2207.000000)">
                <g id="icon-deleted" transform="translate(18.000000, 305.000000)">
                    <circle id="Oval" fill="#848D94" cx="12" cy="12" r="12"></circle>
                    <path d="M7.04219589,7.03999863 C7.43272018,6.64947433 8.06588516,6.64947433 8.45640945,7.03999863 L8.45640945,7.03999863 L11.9913027,10.5751054 L15.5274773,7.03999863 C15.9180016,6.64947433 16.5511665,6.64947433 16.9416908,7.03999863 C17.3322151,7.43052292 17.3322151,8.0636879 16.9416908,8.45421219 L13.4063027,11.9891054 L16.9416908,15.52528 C17.3021748,15.885764 17.3299043,16.452995 17.0248794,16.8452862 L16.9416908,16.9394936 C16.5511665,17.3300179 15.9180016,17.3300179 15.5274773,16.9394936 L15.5274773,16.9394936 L11.9913027,13.4041054 L8.45640945,16.9394936 C8.06588516,17.3300179 7.43272018,17.3300179 7.04219589,16.9394936 C6.6516716,16.5489693 6.6516716,15.9158043 7.04219589,15.52528 L10.5773027,11.9891054 L7.04219589,8.45421219 C6.68171193,8.09372823 6.65398239,7.52649717 6.95900728,7.13420596 Z" id="Combined-Shape" fill="#FFFFFF"></path>
                </g>
            </g>
        </g>
    </g>
</svg>