<?xml version="1.0" encoding="UTF-8"?>
<svg width="16px" height="16px" viewBox="0 0 16 16" version="1.1" xmlns="http://www.w3.org/2000/svg" xmlns:xlink="http://www.w3.org/1999/xlink">
    <title>icon-not-completed</title>
    <g id="APPLICATION-LEFT-NAV" stroke="none" stroke-width="1" fill="none" fill-rule="evenodd">
        <path d="M7.76984217,0 C12.2006724,0 15.79257,3.581722 15.79257,8 C15.79257,12.418278 12.2006724,16 7.76984217,16 C7.53025517,16 7.29312109,15.9895276 7.05887517,15.9690167 L7.2781752,14.2031905 C7.4404018,14.2157995 7.6043698,14.2222222 7.76984217,14.2222222 C11.2160435,14.2222222 14.0097416,11.4364384 14.0097416,8 C14.0097416,4.56356156 11.2160435,1.77777778 7.76984217,1.77777778 C7.59855776,1.77777778 7.42888525,1.78465957 7.26108753,1.79816101 L7.06485655,0.0304618261 C7.29715759,0.0102949507 7.53229421,0 7.76984217,0 Z M5.90475446,13.9395185 L5.36186881,15.6333963 C4.75056471,15.4418389 4.17080114,15.1792808 3.63229886,14.8554152 L4.60623544,13.3643809 C5.01190898,13.6027841 5.44699397,13.7967356 5.90475446,13.9395185 Z M3.48975574,12.5277772 L2.25712448,13.8122452 C1.79914023,13.3801707 1.3921956,12.8948534 1.04625228,12.3662269 L2.5256043,11.3732633 C2.79973141,11.7961511 3.1239002,12.1837661 3.48975574,12.5277772 Z M1.90133913,10.1195891 L0.261143995,10.8236683 C0.0272911556,10.205637 -0.132025343,9.55114355 -0.205874591,8.87108792 L1.57092978,8.71706268 C1.62694721,9.20387176 1.73930557,9.67359619 1.90133913,10.1195891 Z M0.196876699,5.35244335 L1.88244361,5.93316626 C1.72643184,6.3750617 1.61903843,6.83980712 1.56666671,7.3210173 L-0.207490229,7.14392193 C-0.141222157,6.52276228 -0.00366118675,5.92283861 0.196876699,5.35244335 Z M2.13038393,2.30996806 L3.43544537,3.52390556 L3.43544537,3.52390556 L3.28292811,3.67592464 C2.98944313,3.97867443 2.72649279,4.31104302 2.49902529,4.66809622 L0.948543246,3.78684105 C1.28356399,3.24863895 1.68085696,2.75301136 2.13038393,2.30996806 Z M5.35784746,0.367864953 L5.87787458,2.0689328 C5.41015956,2.21715523 4.96634771,2.41886658 4.5536662,2.66686017 L3.49471315,1.22922805 C4.07045837,0.866993851 4.6956252,0.575762443 5.35784746,0.367864953 Z" id="icon-not-completed" fill="#7494A4"></path>
    </g>
</svg>