<?xml version="1.0" encoding="UTF-8"?>
<svg width="24px" height="24px" viewBox="0 0 24 24" version="1.1" xmlns="http://www.w3.org/2000/svg" xmlns:xlink="http://www.w3.org/1999/xlink">
    <title>icon-revo-closed-not-actionable</title>
    <g id="Page-1-Icons" stroke="none" stroke-width="1" fill="none" fill-rule="evenodd">
        <g id="PECOS-2.0-Icons-Overview-v32-pending-reviews" transform="translate(-2759.000000, -2354.000000)">
            <g id="24x24-status-icons" transform="translate(30.000000, 2206.000000)">
                <g id="Revocation-Status-Icons" transform="translate(2721.000000, 2.000000)">
                    <g id="icon-revo-closed-not-actionable" transform="translate(8.000000, 146.000000)">
                        <circle id="Oval" fill="#848D94" cx="12" cy="12" r="12"></circle>
                        <path d="M12,9 C12.5522847,9 13,9.44771525 13,10 L12.9990099,15 L15.718975,15 C16.0503459,15 16.318975,15.2686292 16.318975,15.6 C16.318975,15.7403619 16.2697653,15.8762816 16.1799078,15.9841106 L12.4609328,20.4468807 C12.2487943,20.7014468 11.8704555,20.7358413 11.6158894,20.5237028 C11.5880115,20.5004713 11.5622988,20.4747585 11.5390672,20.4468807 L7.8200922,15.9841106 C7.60795375,15.7295445 7.64234819,15.3512057 7.89691433,15.1390672 C8.00474333,15.0492097 8.14066306,15 8.28102497,15 L10.9990099,15 L11,10 C11,9.44771525 11.4477153,9 12,9 Z" id="Combined-Shape" fill="#FFFFFF"></path>
                        <path d="M7.05954326,6 L17,6 C17.5522847,6 18,6.44771525 18,7 L18,10.041958 C18,10.57107 17.57107,11 17.041958,11 C16.5128459,11 16.0839159,10.57107 16.0839159,10.041958 L16.0839159,7.99421842 L16.0839159,7.99421842 L8.12457649,7.99421842 L8.09213284,10.0160446 C8.08337201,10.5620034 7.63829059,11 7.09226157,11 L7.0149686,11 C6.46268385,11 6.0149686,10.5522847 6.0149686,10 C6.0149686,9.9950476 6.01500539,9.99009527 6.01507896,9.98514342 L6.05965362,6.98514342 C6.06777262,6.43871217 6.51305169,6 7.05954326,6 Z" id="Rectangle" fill="#FFFFFF"></path>
                    </g>
                </g>
            </g>
        </g>
    </g>
</svg>