<?xml version="1.0" encoding="UTF-8"?>
<svg width="24px" height="24px" viewBox="0 0 24 24" version="1.1" xmlns="http://www.w3.org/2000/svg" xmlns:xlink="http://www.w3.org/1999/xlink">
    <title>icon-revocation-rescinded</title>
    <g id="Page-1" stroke="none" stroke-width="1" fill="none" fill-rule="evenodd">
        <g id="PECOS-2.0-Icons-&amp;-Illus-Overview-v17" transform="translate(-1876.000000, -2556.000000)">
            <g id="Revocation-Status-Icons" transform="translate(1856.000000, 2207.000000)">
                <g id="icon-revocation-rescinded" transform="translate(32.000000, 361.000000) rotate(180.000000) translate(-32.000000, -361.000000) translate(20.000000, 349.000000)">
                    <circle id="Oval" fill="#A25773" cx="12" cy="12" r="12"></circle>
                    <path d="M16.0257568,16.9810791 C16.5780416,16.9810791 17.0257568,17.4287944 17.0257568,17.9810791 C17.0257568,18.5333639 16.5780416,18.9810791 16.0257568,18.9810791 L6.02575684,18.9810791 C5.47347209,18.9810791 5.02575684,18.5333639 5.02575684,17.9810791 C5.02575684,17.4287944 5.47347209,16.9810791 6.02575684,16.9810791 L16.0257568,16.9810791 Z M11.0257568,4.9810791 C11.5780416,4.9810791 12.0257568,5.42879435 12.0257568,5.9810791 L12.0267319,11.0190791 L14.7447319,11.0194092 C15.0761027,11.0194092 15.3447319,11.2880383 15.3447319,11.6194092 C15.3447319,11.7597711 15.2955221,11.8956908 15.2056646,12.0035198 L11.4866896,16.4662899 C11.2745512,16.720856 10.8962123,16.7552504 10.6416462,16.543112 C10.6137684,16.5198805 10.5880556,16.4941677 10.5648241,16.4662899 L6.84584904,12.0035198 C6.63371059,11.7489537 6.66810503,11.3706149 6.92267116,11.1584764 C7.03050016,11.0686189 7.1664199,11.0194092 7.3067818,11.0194092 L10.0267319,11.0190791 L10.0257568,5.9810791 C10.0257568,5.42879435 10.4734721,4.9810791 11.0257568,4.9810791 Z" id="Combined-Shape" fill="#FFFFFF" transform="translate(11.025757, 11.981079) rotate(-90.000000) translate(-11.025757, -11.981079) "></path>
                </g>
            </g>
        </g>
    </g>
</svg>