<?xml version="1.0" encoding="UTF-8"?>
<svg width="24px" height="24px" viewBox="0 0 24 24" version="1.1" xmlns="http://www.w3.org/2000/svg" xmlns:xlink="http://www.w3.org/1999/xlink">
    <title>icon-reopened-reissue</title>
    <g id="Page-1-Icons" stroke="none" stroke-width="1" fill="none" fill-rule="evenodd">
        <g id="PECOS-2.0-Icons-Overview-v32-pending-reviews" transform="translate(-2760.000000, -2421.000000)">
            <g id="24x24-status-icons" transform="translate(30.000000, 2206.000000)">
                <g id="Revocation-Status-Icons" transform="translate(2721.000000, 2.000000)">
                    <g id="icon-reopened-reissue" transform="translate(9.000000, 213.000000)">
                        <circle id="Oval" fill="#A25773" cx="12" cy="12" r="12"></circle>
                        <path d="M15.6105042,7.7274388 C15.7567145,7.7274388 15.8982975,7.77869894 16.0106194,7.8723005 L20.4093382,11.5378995 C20.6745113,11.758877 20.7103388,12.15298 20.4893612,12.418153 C20.4651617,12.4471925 20.4383776,12.4739766 20.4093382,12.4981761 L16.0106194,16.1637751 C15.7454463,16.3847526 15.3513434,16.3489251 15.1303659,16.083752 C15.0367643,15.9714302 14.9855042,15.8298471 14.9855042,15.6836368 L14.9855042,13.0174388 L11.9525452,13.0180378 C11.4002604,13.0180378 10.9525452,12.5703225 10.9525452,12.0180378 C10.9525452,11.465753 11.4002604,11.0180378 11.9525452,11.0180378 L14.9855042,11.0174388 L14.9855042,8.3524388 C14.9855042,8.00726084 15.2653262,7.7274388 15.6105042,7.7274388 Z M5.98550415,9.02780342 L8.98550415,9.02780342 C9.5377889,9.02780342 9.98550415,9.47551867 9.98550415,10.0278034 L9.98550415,14.0278034 C9.98550415,14.5800882 9.5377889,15.0278034 8.98550415,15.0278034 L5.98550415,15.0278034 C5.4332194,15.0278034 4.98550415,14.5800882 4.98550415,14.0278034 L4.98550415,10.0278034 C4.98550415,9.47551867 5.4332194,9.02780342 5.98550415,9.02780342 Z M6.98550415,11.0278034 L7.98550415,11.0278034 L7.98550415,13.0278034 L6.98550415,13.0278034 L6.98550415,11.0278034 Z" id="arrow-left" fill="#FFFFFF"></path>
                    </g>
                </g>
            </g>
        </g>
    </g>
</svg>