<?xml version="1.0" encoding="UTF-8"?>
<svg width="24px" height="24px" viewBox="0 0 24 24" version="1.1" xmlns="http://www.w3.org/2000/svg" xmlns:xlink="http://www.w3.org/1999/xlink">
    <title>icon-revo-in-process</title>
    <g id="Page-1-Icons" stroke="none" stroke-width="1" fill="none" fill-rule="evenodd">
        <g id="PECOS-2.0-Icons-Overview-v32-pending-reviews" transform="translate(-2759.000000, -2286.000000)">
            <g id="24x24-status-icons" transform="translate(30.000000, 2206.000000)">
                <g id="Revocation-Status-Icons" transform="translate(2721.000000, 2.000000)">
                    <g id="icon-revo-in-process" transform="translate(8.000000, 78.000000)">
                        <circle id="Oval" fill="#A25773" cx="12" cy="12" r="12"></circle>
                        <path d="M13,16 C13.5522847,16 14,16.4477153 14,17 C14,17.5522848 13.5522847,18 13,18 C12.4477153,18 12,17.5522848 12,17 C12,16.4477153 12.4477153,16 13,16 Z M9.63903809,15.4550781 C10.1913228,15.4550781 10.6390381,15.9027934 10.6390381,16.4550781 C10.6390381,17.0073629 10.1913228,17.4550781 9.63903809,17.4550781 C9.08675334,17.4550781 8.63903809,17.0073629 8.63903809,16.4550781 C8.63903809,15.9027934 9.08675334,15.4550781 9.63903809,15.4550781 Z M7.52319336,13.1962891 C8.07547811,13.1962891 8.52319336,13.6440043 8.52319336,14.1962891 C8.52319336,14.7485738 8.07547811,15.1962891 7.52319336,15.1962891 C6.97090861,15.1962891 6.52319336,14.7485738 6.52319336,14.1962891 C6.52319336,13.6440043 6.97090861,13.1962891 7.52319336,13.1962891 Z M12.0452149,6.02038574 C13.9293019,6.02038574 15.479617,6.75146472 16.6961604,8.21362267 L18.1197576,7.06146541 C18.3433023,6.88044246 18.6712692,6.91491317 18.8522921,7.13845789 C18.9267196,7.23036815 18.9676506,7.3448722 18.9683528,7.46313652 L18.9960712,12.131478 C18.9977791,12.4191213 18.7659827,12.6536867 18.4783395,12.6553946 C18.4398782,12.655623 18.4015101,12.6515903 18.3639368,12.6433704 L13.8033727,11.6456549 C13.5223703,11.5841799 13.3444081,11.3065471 13.405883,11.0255447 C13.4311584,10.9100107 13.4950017,10.8065189 13.586912,10.7320914 L15.107,9.50038574 L15.0862548,9.47321743 C14.2891042,8.48834461 13.2754242,7.9959082 12.0452149,7.9959082 C11.0110703,7.9959082 10.1023696,8.34388858 9.319113,9.03984934 C8.92335231,9.3911342 8.341581,9.43449735 7.89818388,9.14566076 L7.88275146,9.13562012 C7.48033594,8.87380049 7.36636044,8.3353315 7.62818007,7.93291597 C7.66071132,7.88291559 7.69830282,7.83639649 7.74032835,7.79406237 C8.91593297,6.61161128 10.3508952,6.02038574 12.0452149,6.02038574 Z M7,10 C7.55228475,10 8,10.4477153 8,11 C8,11.5522848 7.55228475,12 7,12 C6.44771525,12 6,11.5522848 6,11 C6,10.4477153 6.44771525,10 7,10 Z" id="arrow-circle" fill="#FFFFFF"></path>
                    </g>
                </g>
            </g>
        </g>
    </g>
</svg>