<?xml version="1.0" encoding="UTF-8"?>
<svg width="80px" height="80px" viewBox="0 0 80 80" version="1.1" xmlns="http://www.w3.org/2000/svg" xmlns:xlink="http://www.w3.org/1999/xlink">
    <title>icon-reassignments-large</title>
    <defs>
        <linearGradient x1="50%" y1="0%" x2="50%" y2="100%" id="linearGradient-1">
            <stop stop-color="#14B8B8" offset="0%"></stop>
            <stop stop-color="#0A5D5D" offset="100%"></stop>
        </linearGradient>
        <linearGradient x1="50%" y1="0%" x2="50%" y2="100%" id="linearGradient-2">
            <stop stop-color="#14B6B6" offset="0%"></stop>
            <stop stop-color="#0B6363" offset="98.8554414%"></stop>
        </linearGradient>
        <linearGradient x1="50%" y1="0%" x2="50%" y2="99.6697375%" id="linearGradient-3">
            <stop stop-color="#A2EAEA" offset="0%"></stop>
            <stop stop-color="#34BABA" offset="100%"></stop>
        </linearGradient>
    </defs>
    <g id="Page-1-Icons" stroke="none" stroke-width="1" fill="none" fill-rule="evenodd">
        <g id="PECOS-2.0-Icons-Overview-v19" transform="translate(-44.000000, -1381.000000)">
            <g id="Business-Type-Header-Icons" transform="translate(26.000000, 565.000000)">
                <g id="Column-1" transform="translate(18.000000, 50.000000)">
                    <g id="icon-reassignments-large" transform="translate(0.000000, 766.000000)">
                        <circle id="Oval-Copy-42" fill="#A7EBEB" cx="40" cy="40" r="40"></circle>
                        <path d="M31.995866,53.0617676 C32.8203829,53.0617676 33.4887859,53.7301706 33.4887859,54.5546875 C33.4887859,55.3792044 32.8203829,56.0476074 31.995866,56.0476074 L31.995866,56.0476074 L28.0623089,56.0480782 C31.3942115,58.5306244 35.5255102,60 40,60 C44.0472546,60 47.8137268,58.7978273 50.9618097,56.7310888 L53.7076589,58.7193167 C49.8672118,61.5363373 45.1278905,63.2 40,63.2 C34.7639575,63.2 29.9330477,61.4654208 26.0505496,58.5395416 L26.050293,61.5192465 C26.050293,62.3370441 25.387337,63 24.5695394,63 C23.7517418,63 23.0887859,62.3370441 23.0887859,61.5192465 L23.0887859,61.5192465 L23.0887859,53.0617676 Z M54.4960775,16 C55.3275969,16 56.0016765,16.6740796 56.0016765,17.505599 L56.0016765,26.0310059 L47.1169964,26.0310059 C46.2801083,26.0310059 45.6016765,25.3525741 45.6016765,24.515686 C45.6016765,23.678798 46.2801083,23.0003662 47.1169964,23.0003662 L50.5397859,23 L50.4779919,22.9611051 C47.4308729,21.0832986 43.8419454,20 40,20 C36.0355671,20 32.3405426,21.1534743 29.2322283,23.1431211 L26.7976374,20.920305 C30.5450815,18.3223274 35.0947614,16.8 40,16.8 C44.813286,16.8 49.2842188,18.2657879 52.9907733,20.7753384 L52.9904785,17.505599 C52.9904785,16.6740796 53.6645582,16 54.4960775,16 Z" id="arrows" fill="#0E7B7B"></path>
                        <path d="M21.566671,37.3879265 C22.9062201,39.1293088 24.5839965,40 26.6,40 C28.5985405,40 30.251031,39.1443277 31.5574713,37.432983 C34.8021891,38.6064999 37,40.8785674 37,43.4885246 C37,47.3056271 32.2989899,50.4 26.5,50.4 C20.7010101,50.4 16,47.3056271 16,43.4885246 C16,40.8983479 18.1646233,38.6409587 21.368087,37.4573874 Z M26.6,25.6 C29.6927946,25.6 32.2,28.42134 32.2,31.9016393 C32.2,35.3819387 29.6927946,38.2032787 26.6,38.2032787 C23.5072054,38.2032787 21,35.3819387 21,31.9016393 C21,28.42134 23.5072054,25.6 26.6,25.6 Z" id="person" fill="url(#linearGradient-1)"></path>
                        <path d="M43.8123291,29.0008545 L63.2,29.0008545 C63.6418278,29.0008545 64,29.3590267 64,29.8008545 L64,53.1997559 C64,53.6415837 63.6418278,53.9997559 63.2,53.9997559 L43.8123291,53.9997559 C43.3705013,53.9997559 43.0123291,53.6415837 43.0123291,53.1997559 L43.0123291,29.8008545 C43.0123291,29.3590267 43.3705013,29.0008545 43.8123291,29.0008545 Z" id="Rectangle" fill="url(#linearGradient-2)"></path>
                        <path d="M59,47 L59,49 L61,49 L61,51 L59,51 L59,53 L57,53 L57,51 L55,51 L55,49 L57,49 L57,47 L59,47 Z" id="cross" fill="#34BABA"></path>
                        <path d="M52,47.0178223 L52,54.0032959 L45.9898682,54.0032959 L45.9898682,47.0178223 L52,47.0178223 Z M49,42 L49,45 L46,45 L46,42 L49,42 Z M55,42 L55,45 L52,45 L52,42 L55,42 Z M61,42 L61,45 L58,45 L58,42 L61,42 Z M49,37 L49,40 L46,40 L46,37 L49,37 Z M55,37 L55,40 L52,40 L52,37 L55,37 Z M61,37 L61,40 L58,40 L58,37 L61,37 Z M49,32 L49,35 L46,35 L46,32 L49,32 Z M55,32 L55,35 L52,35 L52,32 L55,32 Z M61,32 L61,35 L58,35 L58,32 L61,32 Z" id="windows" fill="url(#linearGradient-3)"></path>
                    </g>
                </g>
            </g>
        </g>
    </g>
</svg>