<?xml version="1.0" encoding="UTF-8"?>
<svg width="80px" height="80px" viewBox="0 0 80 80" version="1.1" xmlns="http://www.w3.org/2000/svg" xmlns:xlink="http://www.w3.org/1999/xlink">
    <title>ico-appeal</title>
    <defs>
        <linearGradient x1="69.6897217%" y1="0%" x2="69.6897217%" y2="100%" id="linearGradient-1">
            <stop stop-color="#5F91B9" offset="0%"></stop>
            <stop stop-color="#44729C" offset="100%"></stop>
        </linearGradient>
    </defs>
    <g id="Page-1" stroke="none" stroke-width="1" fill="none" fill-rule="evenodd">
        <g id="Business-Type-Icons" transform="translate(-28.000000, -776.000000)">
            <g id="Large-Icons-Column-1" transform="translate(28.000000, 104.000000)">
                <g id="ico-appeal" transform="translate(0.000000, 672.000000)">
                    <circle id="Oval" fill="#D4DFE8" cx="40" cy="40" r="40"></circle>
                    <g id="appeal-icon" transform="translate(16.000000, 14.000000)">
                        <path d="M21.5020136,15.1415731 L23.3845419,18.6820938 L4.3977922,29.826821 C3.02497944,30.6326263 1.25886054,30.172976 0.453055235,28.8001632 C0.432582081,28.765284 0.412845329,28.7299778 0.39385809,28.694268 C-0.356557577,27.2829414 0.179216598,25.5305031 1.5905432,24.7800874 C1.6228833,24.7628919 1.65554691,24.7463118 1.68851638,24.7303562 L21.5020136,15.1415731 Z M40.3066404,18.7204057 C40.8252044,19.6956827 40.4549654,20.90668 39.4796884,21.425244 L28.8843173,27.0589028 C27.9090403,27.5774667 26.6980429,27.2072277 26.179479,26.2319507 C25.660915,25.2566737 26.031154,24.0456764 27.006431,23.5271124 L37.6018021,17.8934536 C38.5770791,17.3748897 39.7880765,17.7451287 40.3066404,18.7204057 Z M30.5597287,4.64923974 L37.1323306,17.010506 L26.5369595,22.6441648 L19.9643576,10.2828985 L30.5597287,4.64923974 Z M30.9172092,1.06145384 C31.4357732,2.03673082 31.0655341,3.24772818 30.0902571,3.76629215 L19.494886,9.3999509 C18.519609,9.91851487 17.3086117,9.54827582 16.7900477,8.57299884 C16.2714837,7.59772186 16.6417228,6.3867245 17.6169998,5.86816053 L28.2123709,0.234501776 C29.1876479,-0.284062193 30.3986452,0.086176855 30.9172092,1.06145384 Z" id="Gavel" fill="url(#linearGradient-1)"></path>
                        <path d="M1,35 L47,35 C47.5522847,35 48,35.4477153 48,36 L48,48 L48,48 L0,48 L0,36 C-6.76353751e-17,35.4477153 0.44771525,35 1,35 Z" id="Rectangle" fill="#44729C"></path>
                        <path d="M31,30 L40,30 C42.209139,30 44,31.790861 44,34 L44,34 L44,34 L27,34 C27,31.790861 28.790861,30 31,30 Z" id="Rectangle" fill="#44729C"></path>
                        <path d="M37,36.8934697 L37,39.8934697 L40,39.8934697 L40,42.8934697 L37,42.8934697 L37,45.8934697 L34,45.8934697 L34,42.8934697 L31,42.8934697 L31,39.8934697 L34,39.8934697 L34,36.8934697 L37,36.8934697 Z" id="cross" fill="#8BADCC"></path>
                    </g>
                </g>
            </g>
        </g>
    </g>
</svg>