<?xml version="1.0" encoding="UTF-8"?>
<svg width="80px" height="80px" viewBox="0 0 80 80" version="1.1" xmlns="http://www.w3.org/2000/svg" xmlns:xlink="http://www.w3.org/1999/xlink">
    <title>icon-manage-positions-header</title>
    <defs>
        <linearGradient x1="50%" y1="0%" x2="50%" y2="100%" id="linearGradient-1">
            <stop stop-color="#1477B8" offset="0%"></stop>
            <stop stop-color="#015286" offset="100%"></stop>
        </linearGradient>
        <linearGradient x1="50%" y1="0%" x2="50%" y2="100%" id="linearGradient-2">
            <stop stop-color="#1477B8" offset="0%"></stop>
            <stop stop-color="#005185" offset="100%"></stop>
        </linearGradient>
        <linearGradient x1="50%" y1="0%" x2="50%" y2="99.3561858%" id="linearGradient-3">
            <stop stop-color="#2B92D5" offset="0%"></stop>
            <stop stop-color="#01538A" offset="100%"></stop>
        </linearGradient>
        <linearGradient x1="50%" y1="0%" x2="50%" y2="99.56362%" id="linearGradient-4">
            <stop stop-color="#C1E3FA" offset="0%"></stop>
            <stop stop-color="#A6D5F4" offset="100%"></stop>
        </linearGradient>
        <linearGradient x1="21.1143872%" y1="0%" x2="71.0048108%" y2="100%" id="linearGradient-5">
            <stop stop-color="#54B2F1" offset="0.0819493007%"></stop>
            <stop stop-color="#117BC3" offset="100%"></stop>
        </linearGradient>
    </defs>
    <g id="Page-1-Icons" stroke="none" stroke-width="1" fill="none" fill-rule="evenodd">
        <g id="PECOS-2.0-Icons-Overview-v30" transform="translate(-334.000000, -1555.000000)">
            <g id="PAGE-HEADER-ICONS" transform="translate(26.000000, 466.000000)">
                <g id="Column-2" transform="translate(305.000000, 39.000000)">
                    <g id="icon-manage-positions-header" transform="translate(3.000000, 1050.000000)">
                        <circle id="80x80-oval" fill="#C5E5FB" cx="40" cy="40" r="40"></circle>
                        <g id="Group-2" transform="translate(18.000000, 15.000000)">
                            <path d="M43.3902787,37.6976406 C46.1407771,38.6387063 48,40.4366673 48,42.5 C48,45.5375661 43.9705627,48 39,48 C34.0294373,48 30,45.5375661 30,42.5 C30,40.4421728 31.8493142,38.6483032 34.587723,37.7051919 L35.8460453,38.3112142 C36.0852213,39.2679785 37.4095994,40 39.007534,40 C40.6471208,40 41.9987041,39.229319 42.1854996,38.2359472 Z M39,27 C41.7614237,27 44,29.5743627 44,32.75 C44,35.9256373 41.7614237,38.5 39,38.5 C36.2385763,38.5 34,35.9256373 34,32.75 C34,29.5743627 36.2385763,27 39,27 Z" id="person-3" fill="url(#linearGradient-1)"></path>
                            <path d="M13.3902787,37.6976406 C16.1407771,38.6387063 18,40.4366673 18,42.5 C18,45.5375661 13.9705627,48 9,48 C4.02943725,48 0,45.5375661 0,42.5 C0,40.4421728 1.84931423,38.6483032 4.587723,37.7051919 L5.84604531,38.3112142 C6.08522129,39.2679785 7.40959944,40 9.00753403,40 C10.6471208,40 11.9987041,39.229319 12.1854996,38.2359472 Z M9,27 C11.7614237,27 14,29.5743627 14,32.75 C14,35.9256373 11.7614237,38.5 9,38.5 C6.23857625,38.5 4,35.9256373 4,32.75 C4,29.5743627 6.23857625,27 9,27 Z" id="person-2" fill="url(#linearGradient-2)"></path>
                            <path d="M25,30 L25,36 L31,36 L30.9926837,38 L17,38 L17,36.001613 L23,36.001 L23,30 L25,30 Z" id="Combined-Shape" fill="#005185"></path>
                            <path d="M17.7539907,13.5594867 L19.3304825,14.2103132 C19.7804748,15.2402126 21.3423558,16 23.2,16 C25.0606433,16 26.6245677,15.2377573 27.0716883,14.2053228 L28.1001009,13.7929487 C32.191835,15.0252649 35,17.5658678 35,20.5 C35,24.6421356 29.4035594,28 22.5,28 C15.5964406,28 10,24.6421356 10,20.5 C10,17.3658758 13.2040234,14.6807554 17.7539907,13.5594867 Z M23,0 C26.3137085,0 29,3.13400675 29,7 C29,10.8659932 26.3137085,14 23,14 C19.6862915,14 17,10.8659932 17,7 C17,3.13400675 19.6862915,0 23,0 Z" id="person-1" fill="url(#linearGradient-3)"></path>
                            <path d="M16.982098,25 C18.9805691,23.7291921 19.9846025,22.4354288 19.9941984,21.1187101 C20,20.3226209 20.0014504,19.5454964 19.9985496,18.7873366 C18.5841571,18.3299481 17.5833454,17.7341692 16.9961144,17 C16.3672915,17.7144507 15.3685867,18.3102296 14,18.7873366 C14.0123401,19.5669814 14.0156876,20.3441059 14.0100425,21.1187101 C14.0004467,22.4354288 14.9911318,23.7291921 16.982098,25 Z" id="badge" fill="url(#linearGradient-4)"></path>
                            <path d="M39,8 C42.8659932,8 46,11.1340068 46,15 C46,18.8659932 42.8659932,22 39,22 C38.1230759,22 37.2838139,21.8387492 36.5102478,21.5442814 L33.999,24.03 L34,26.04 C34,26.5701934 33.5701934,27 33.04,27 L31,27 L31,29.04 C31,29.5701934 30.5701934,30 30.04,30 L26.7090598,30 C26.3174569,30 26,29.6825431 26,29.2909402 L26,26.0020046 L33.1734987,18.8810169 C32.432166,17.7702819 32,16.4356099 32,15 C32,11.1340068 35.1340068,8 39,8 Z M40.9904785,10.5 C39.7478378,10.5 38.7404785,11.5073593 38.7404785,12.75 C38.7404785,13.9926407 39.7478378,15 40.9904785,15 C42.2331192,15 43.2404785,13.9926407 43.2404785,12.75 C43.2404785,11.5073593 42.2331192,10.5 40.9904785,10.5 Z" id="key-small-copy" fill="url(#linearGradient-5)"></path>
                        </g>
                    </g>
                </g>
            </g>
        </g>
    </g>
</svg>