<?xml version="1.0" encoding="UTF-8"?>
<svg width="80px" height="80px" viewBox="0 0 80 80" version="1.1" xmlns="http://www.w3.org/2000/svg" xmlns:xlink="http://www.w3.org/1999/xlink">
    <title>icon-application-organization-legacy</title>
    <g id="Page-1-Icons" stroke="none" stroke-width="1" fill="none" fill-rule="evenodd">
        <g id="PECOS-2.0-Icons-Overview-v30" transform="translate(-44.000000, -1469.000000)">
            <g id="PAGE-HEADER-ICONS" transform="translate(26.000000, 471.000000)">
                <g id="Column-1" transform="translate(18.000000, 40.000000)">
                    <g id="icon-application-organization-legacy" transform="translate(0.000000, 958.000000)">
                        <circle id="Oval" fill="#D8D8D8" cx="40" cy="40" r="40"></circle>
                        <path d="M19,16 L50,16 C51.6568542,16 53,17.3431458 53,19 L53,57 C53,58.6568542 51.6568542,60 50,60 L19,60 C17.3431458,60 16,58.6568542 16,57 L16,19 C16,17.3431458 17.3431458,16 19,16 Z" id="dark-bgd" fill="#777777"></path>
                        <rect id="document-bgd" fill="#F1F1F1" x="19" y="19" width="31" height="37" rx="1"></rect>
                        <path d="M44,40 L44,42 L24,42 L24,40 L44,40 Z M44,35 L44,37 L24,37 L24,35 L44,35 Z M44,30 L44,32 L24,32 L24,30 L44,30 Z M44,25 L44,27 L24,27 L24,25 L44,25 Z" id="Combined-Shape" fill="#9E9E9E"></path>
                        <g id="building" transform="translate(39.000000, 34.000000)">
                            <rect id="Rectangle-Copy-2" fill="#929292" x="0" y="0" width="25" height="30" rx="1"></rect>
                            <rect id="Rectangle" fill="#F8F8F8" x="3" y="3" width="19" height="24" rx="1"></rect>
                            <path d="M10,21 L10,27 L6,27 L6,21 L10,21 Z M19,21 L19,24 L12,24 L12,21 L19,21 Z M9,16 L9,19 L6,19 L6,16 L9,16 Z M19,16 L19,19 L16,19 L16,16 L19,16 Z M14,16 L14,19 L11,19 L11,16 L14,16 Z M9,11 L9,14 L6,14 L6,11 L9,11 Z M19,11 L19,14 L16,14 L16,11 L19,11 Z M14,11 L14,14 L11,14 L11,11 L14,11 Z M9,6 L9,9 L6,9 L6,6 L9,6 Z M19,6 L19,9 L16,9 L16,6 L19,6 Z M14,6 L14,9 L11,9 L11,6 L14,6 Z" id="windows" fill="#8C8C8C"></path>
                        </g>
                        <path d="M28,45 L28,48 L31,48 L31,51 L28,51 L28,54 L25,54 L25,51 L22,51 L22,48 L25,48 L25,45 L28,45 Z" id="cross" fill="#B2B2B2"></path>
                    </g>
                </g>
            </g>
        </g>
    </g>
</svg>