<?xml version="1.0" encoding="UTF-8"?>
<svg width="80px" height="80px" viewBox="0 0 80 80" version="1.1" xmlns="http://www.w3.org/2000/svg" xmlns:xlink="http://www.w3.org/1999/xlink">
    <title>icon-icon-add-remove-members-large</title>
    <defs>
        <linearGradient x1="50%" y1="0%" x2="50%" y2="100%" id="linearGradient-1">
            <stop stop-color="#3A8CBD" offset="0%"></stop>
            <stop stop-color="#256890" offset="100%"></stop>
        </linearGradient>
    </defs>
    <g id="Page-1-Icons" stroke="none" stroke-width="1" fill="none" fill-rule="evenodd">
        <g id="PECOS-2.0-Icons-Overview-v23" transform="translate(-624.000000, -1304.000000)">
            <g id="BUSINESS-TYPE-HEADER-ICONS" transform="translate(26.000000, 494.000000)">
                <g id="Column-3" transform="translate(594.000000, 40.000000)">
                    <g id="icon-icon-add-remove-members-large" transform="translate(4.000000, 770.000000)">
                        <circle id="Oval" fill="#D6E5F1" cx="40" cy="40" r="40"></circle>
                        <path d="M45.6305945,52.9755272 C47.3097916,53.9793878 48.3636364,55.4259751 48.3636364,57.0340909 C48.3636364,60.0653811 44.6191088,62 40,62 C35.3808912,62 31.6363636,60.0653811 31.6363636,57.0340909 C31.6363636,55.4259751 32.6902084,53.9793878 34.3694055,52.9755272 C35.391789,55.2249419 37.5290462,56.7727273 40,56.7727273 C42.4099698,56.7727273 44.5025113,55.3003989 45.5530024,53.1407491 L45.6305945,52.9755272 Z M21.3319998,48.8096507 C21.5167059,48.8574994 21.7051794,48.9001362 21.8974202,48.937561 C22.3931049,49.0340594 22.9964092,49.0881428 23.7073329,49.0998111 C25.1926167,51.4910288 27.1899147,53.5312681 29.5459351,55.067328 L29.5455257,57.3129192 C26.1193123,55.352744 23.2960135,52.4587442 21.4224978,48.9777882 L21.3319998,48.8096507 Z M58.6236974,48.8940073 C56.7498796,52.4115489 53.9087023,55.3366344 50.4548017,57.3127319 L50.4549465,55.0667532 C52.7862659,53.5466154 54.7662999,51.5327959 56.2467213,49.1736218 C56.9777498,49.1634335 57.5962995,49.1091202 58.1025798,49.0105591 C58.2794755,48.9761216 58.4531814,48.937271 58.6236974,48.8940073 Z M40,45.2727273 C42.3095544,45.2727273 44.1818182,47.379024 44.1818182,49.9772727 C44.1818182,52.5755214 42.3095544,54.6818182 40,54.6818182 C37.6904456,54.6818182 35.8181818,52.5755214 35.8181818,49.9772727 C35.8181818,47.379024 37.6904456,45.2727273 40,45.2727273 Z M60.2669582,38.3391635 C61.9461552,39.3430242 63,40.7896115 63,42.3977273 C63,45.4290174 59.2554725,47.3636364 54.6363636,47.3636364 C50.0172548,47.3636364 46.2727273,45.4290174 46.2727273,42.3977273 C46.2727273,40.7896115 47.326572,39.3430242 49.0057691,38.3391635 C50.0281526,40.5885783 52.1654098,42.1363636 54.6363636,42.1363636 C57.0463335,42.1363636 59.1388749,40.6640352 60.1893661,38.5043855 L60.2669582,38.3391635 Z M30.9942309,38.3391635 C32.673428,39.3430242 33.7272727,40.7896115 33.7272727,42.3977273 C33.7272727,45.4290174 29.9827452,47.3636364 25.3636364,47.3636364 C20.7445275,47.3636364 17,45.4290174 17,42.3977273 C17,40.7896115 18.0538448,39.3430242 19.7330418,38.3391635 C20.7554253,40.5885783 22.8926826,42.1363636 25.3636364,42.1363636 C27.7736062,42.1363636 29.8661476,40.6640352 30.9166388,38.5043855 L30.9942309,38.3391635 Z M54.6363636,30.6363636 C56.945918,30.6363636 58.8181818,32.7426604 58.8181818,35.3409091 C58.8181818,37.9391578 56.945918,40.0454545 54.6363636,40.0454545 C52.3268092,40.0454545 50.4545455,37.9391578 50.4545455,35.3409091 C50.4545455,32.7426604 52.3268092,30.6363636 54.6363636,30.6363636 Z M25.3636364,30.6363636 C27.6731908,30.6363636 29.5454545,32.7426604 29.5454545,35.3409091 C29.5454545,37.9391578 27.6731908,40.0454545 25.3636364,40.0454545 C23.054082,40.0454545 21.1818182,37.9391578 21.1818182,35.3409091 C21.1818182,32.7426604 23.054082,30.6363636 25.3636364,30.6363636 Z M45.6305945,23.7027999 C47.3097916,24.7066605 48.3636364,26.1532478 48.3636364,27.7613636 C48.3636364,30.7926538 44.6191088,32.7272727 40,32.7272727 C35.3808912,32.7272727 31.6363636,30.7926538 31.6363636,27.7613636 C31.6363636,26.1532478 32.6902084,24.7066605 34.3694055,23.7027999 C35.391789,25.9522146 37.5290462,27.5 40,27.5 C42.4099698,27.5 44.5025113,26.0276716 45.5530024,23.8680219 L45.6305945,23.7027999 Z M45.7963534,18.7238647 C51.9549757,20.4805861 56.9625884,24.9680728 59.4265005,30.7934152 L59.4782343,30.918186 C58.7665636,30.1036109 57.7373212,29.4832843 56.3905071,29.0572062 C54.0427848,25.1972217 50.3702137,22.2314627 46.0038923,20.7924913 C46.0590195,20.046918 45.9896638,19.3572262 45.7963534,18.7238647 Z M34.1990968,18.7238806 C34.0381307,19.3451783 33.9958896,20.0265552 34.0723736,20.7680112 C29.7070902,22.185741 26.0289328,25.1281676 23.6660234,28.9667672 C22.3268688,29.38203 21.2975889,29.9871133 20.5781934,30.781743 C23.0122725,25.0366985 27.9215312,20.5941617 33.9687249,18.791977 L34.1990968,18.7238806 Z M40,16 C42.3095544,16 44.1818182,18.1062967 44.1818182,20.7045455 C44.1818182,23.3027942 42.3095544,25.4090909 40,25.4090909 C37.6904456,25.4090909 35.8181818,23.3027942 35.8181818,20.7045455 C35.8181818,18.1062967 37.6904456,16 40,16 Z" id="my-connections-B" fill="url(#linearGradient-1)"></path>
                        <g id="add" transform="translate(16.000000, 54.000000)" fill="#145278">
                            <path d="M5,0 C5.55228475,-1.01453063e-16 6,0.44771525 6,1 L6,4 L9,4 C9.55228475,4 10,4.44771525 10,5 C10,5.55228475 9.55228475,6 9,6 L6,6 L6,9 C6,9.55228475 5.55228475,10 5,10 C4.44771525,10 4,9.55228475 4,9 L4,6 L1,6 C0.44771525,6 6.76353751e-17,5.55228475 0,5 C-6.76353751e-17,4.44771525 0.44771525,4 1,4 L4,4 L4,1 C4,0.44771525 4.44771525,1.01453063e-16 5,0 Z" id="Combined-Shape"></path>
                        </g>
                        <g id="subtract" transform="translate(53.000000, 59.000000)" fill="#145278">
                            <rect id="Combined-Shape" x="0" y="0" width="10" height="2" rx="1"></rect>
                        </g>
                    </g>
                </g>
            </g>
        </g>
    </g>
</svg>