<?xml version="1.0" encoding="UTF-8"?>
<svg width="80px" height="80px" viewBox="0 0 80 80" version="1.1" xmlns="http://www.w3.org/2000/svg" xmlns:xlink="http://www.w3.org/1999/xlink">
    <title>icon-revocation-sources-overview</title>
    <defs>
        <linearGradient x1="50%" y1="0%" x2="50%" y2="100%" id="linearGradient-1">
            <stop stop-color="#C88FA3" offset="0%"></stop>
            <stop stop-color="#B8768F" offset="100%"></stop>
        </linearGradient>
        <linearGradient x1="50%" y1="0%" x2="50%" y2="100%" id="linearGradient-2">
            <stop stop-color="#95546C" offset="0%"></stop>
            <stop stop-color="#763C50" offset="100%"></stop>
        </linearGradient>
    </defs>
    <g id="Page-1-Icons" stroke="none" stroke-width="1" fill="none" fill-rule="evenodd">
        <g id="PECOS-2.0-Icons-Overview-v31" transform="translate(-2593.000000, -2929.000000)">
            <g id="24x24-status-icons" transform="translate(20.000000, 2211.000000)">
                <g id="REVOCATION-OVERVIEW" transform="translate(2557.000000, 460.000000)">
                    <g id="icon-revocation-sources-overview" transform="translate(16.000000, 258.000000)">
                        <circle id="pink-80x80-oval" fill="#E6D1D9" cx="40" cy="40" r="40"></circle>
                        <g id="icon-revocation-light-new" transform="translate(16.000000, 27.000000)">
                            <g id="pink-enrollment-card" transform="translate(10.999831, 10.999921)">
                                <path d="M23.6258253,7.91995985e-05 C24.9375016,7.91995985e-05 26.0008253,1.06340292 26.0008253,2.3750792 L26.0008253,23.6250792 C26.0008253,24.9367555 24.9375016,26.0000792 23.6258253,26.0000792 L18.0001691,26.0000792 L18.0012466,24.7366816 C18.5984537,24.3902749 19.0001691,23.7434338 19.0001691,23.0026466 C19.0001691,21.8966592 18.1047386,21.0000792 17.0001691,21.0000792 C15.8955996,21.0000792 15.0001691,21.8966592 15.0001691,23.0026466 C15.0001691,23.743742 15.4022187,24.3908131 15.9998369,24.7371137 L16.0001691,26.0000792 L10.0001691,26.0000792 L10.0012466,24.7366816 C10.5984537,24.3902749 11.0001691,23.7434338 11.0001691,23.0026466 C11.0001691,21.8966592 10.1047386,21.0000792 9.00016906,21.0000792 C7.89559956,21.0000792 7.00016906,21.8966592 7.00016906,23.0026466 C7.00016906,23.743742 7.40221871,24.3908131 7.99983691,24.7371137 L8.00016906,26.0000792 L2.37582531,26.0000792 C1.06414903,26.0000792 0.000825309445,24.9367555 0.000825309445,23.6250792 L-0.000800158031,16.6998281 C0.968830103,16.8967196 1.97242911,17.0000792 3.00016906,17.0000792 C11.2844403,17.0000792 18.0001691,10.2843504 18.0001691,2.0000792 C18.0001691,1.32193427 17.9551673,0.654300065 17.8679872,2.17714735e-13 L23.6258253,7.91995985e-05 Z" id="enrollment-card" fill="url(#linearGradient-1)"></path>
                                <path d="M20.4501691,13.6342255 L20.4501691,15.5362255 L22.3501691,15.5366646 L22.3501691,17.4391036 L20.4501691,17.4382255 L20.4501691,19.3415426 L18.5501691,19.3415426 L18.5501691,17.4382255 L16.6501691,17.4391036 L16.6501691,15.5366646 L18.5501691,15.5362255 L18.5501691,13.6342255 L20.4501691,13.6342255 Z" id="cross" fill="#D8B6C2"></path>
                            </g>
                            <path d="M13,0 C20.1797017,0 26,5.82029825 26,13 C26,20.1797017 20.1797017,26 13,26 C5.82029825,26 0,20.1797017 0,13 C0,5.82029825 5.82029825,0 13,0 Z M3,13 C3,18.5228475 7.4771525,23 13,23 C15.1685018,23 17.1757911,22.3097676 18.8141526,21.1370182 L4.86298177,7.18584739 C3.69023241,8.82420887 3,10.8314982 3,13 Z M13,3 C10.8186327,3 8.80039646,3.69844686 7.1567257,4.88390609 L21.1160939,18.8432743 C22.3015531,17.1996035 23,15.1813673 23,13 C23,7.4771525 18.5228475,3 13,3 Z" id="Combined-Shape" fill="#B36C86"></path>
                        </g>
                        <path d="M51,52 C55.7618078,52 60.0951411,50.1350867 64,46.4052601 L64,35.1082249 C59.873202,31.056358 55.5398687,29.0304246 51,29.0304246 C41.6111593,29.0304246 34,34.1487254 34,40.5 C34,46.8512746 41.6111593,52 51,52 Z" id="Oval" fill="#E6D1D9"></path>
                        <path d="M43.8531286,32.338434 L50,37.7233109 L56.2076436,32.3583195 C60.8253325,33.8785666 64,37.0420115 64,40.6981132 C64,45.8354034 57.7319865,50 50,50 C42.2680135,50 36,45.8354034 36,40.6981132 C36,37.0259944 39.2025444,33.8508584 43.8531286,32.338434 Z M50,16 C54.2174472,16 57.6363636,19.877383 57.6363636,24.6603774 C57.6363636,29.4433717 54.2174472,33.3207547 50,33.3207547 C45.7825528,33.3207547 42.3636364,29.4433717 42.3636364,24.6603774 C42.3636364,19.877383 45.7825528,16 50,16 Z" id="person" fill="url(#linearGradient-2)"></path>
                        <rect id="Rectangle" fill="#E6D1D9" x="56" y="38" width="2" height="6"></rect>
                        <rect id="Rectangle-Copy-209" fill="#E6D1D9" transform="translate(57.000000, 41.000000) rotate(-90.000000) translate(-57.000000, -41.000000) " x="56" y="38" width="2" height="6"></rect>
                    </g>
                </g>
            </g>
        </g>
    </g>
</svg>