<?xml version="1.0" encoding="UTF-8"?>
<svg width="80px" height="80px" viewBox="0 0 80 80" version="1.1" xmlns="http://www.w3.org/2000/svg" xmlns:xlink="http://www.w3.org/1999/xlink">
    <title>icon-watch-list-header</title>
    <defs>
        <linearGradient x1="50%" y1="0%" x2="50%" y2="100%" id="linearGradient-1">
            <stop stop-color="#BC5792" offset="0%"></stop>
            <stop stop-color="#9B3478" offset="100%"></stop>
        </linearGradient>
        <linearGradient x1="50%" y1="0%" x2="50%" y2="100%" id="linearGradient-2">
            <stop stop-color="#D496BA" offset="0%"></stop>
            <stop stop-color="#C56CA0" offset="100%"></stop>
        </linearGradient>
        <linearGradient x1="50%" y1="0%" x2="50%" y2="100%" id="linearGradient-3">
            <stop stop-color="#BC5792" offset="0%"></stop>
            <stop stop-color="#932C71" offset="100%"></stop>
        </linearGradient>
    </defs>
    <g id="Page-1" stroke="none" stroke-width="1" fill="none" fill-rule="evenodd">
        <g id="Business-Type-Icons" transform="translate(-441.000000, -488.000000)">
            <g id="Large-Icons-Column-2" transform="translate(441.000000, 104.000000)">
                <g id="icon-watch-list-header" transform="translate(0.000000, 384.000000)">
                    <circle id="Oval" fill="#F0DAE7" cx="40" cy="40" r="40"></circle>
                    <g id="watch-list-large" transform="translate(18.000000, 16.000000)">
                        <path d="M13,10 L41.6838807,10 C42.7884502,10 43.6838807,10.8954305 43.6838807,12 C43.6838807,12.3251865 43.604588,12.6454686 43.452873,12.9330949 L38.1428571,23 L38.1428571,23 L43.452873,33.0669051 C43.9682071,34.0438926 43.593963,35.2536583 42.6169755,35.7689924 C42.3293493,35.9207073 42.0090672,36 41.6838807,36 L15,36 C13.8954305,36 13,35.1045695 13,34 L13,10 L13,10 Z" id="Rectangle" fill="url(#linearGradient-1)"></path>
                        <polygon id="Rectangle" fill="#671E4D" points="13 28 28 28 13 34"></polygon>
                        <path d="M4,2 L28,2 C29.1045695,2 30,2.8954305 30,4 L30,26 C30,27.1045695 29.1045695,28 28,28 L4,28 L4,28 L4,2 Z" id="Rectangle" fill="url(#linearGradient-2)"></path>
                        <rect id="pole" fill="url(#linearGradient-3)" x="0" y="0" width="4" height="48" rx="2"></rect>
                        <path d="M13,5 L12.999,8 L16,8 L16,11 L12.999,11 L13,14 L10,14 L9.999,11 L7,11 L7,8 L9.999,8 L10,5 L13,5 Z" id="cross" fill="#E2BBD2"></path>
                    </g>
                </g>
            </g>
        </g>
    </g>
</svg>