<?xml version="1.0" encoding="UTF-8"?>
<svg width="80px" height="80px" viewBox="0 0 80 80" version="1.1" xmlns="http://www.w3.org/2000/svg" xmlns:xlink="http://www.w3.org/1999/xlink">
    <title>icon-ec-tools</title>
    <defs>
        <linearGradient x1="50%" y1="0%" x2="50%" y2="99.0466565%" id="linearGradient-1">
            <stop stop-color="#5690BB" offset="0%"></stop>
            <stop stop-color="#154B73" offset="100%"></stop>
        </linearGradient>
        <linearGradient x1="50%" y1="0%" x2="50%" y2="99.0466565%" id="linearGradient-2">
            <stop stop-color="#AFD5F2" offset="0%"></stop>
            <stop stop-color="#81A9C6" offset="100%"></stop>
        </linearGradient>
        <linearGradient x1="50%" y1="0%" x2="97.1020761%" y2="100%" id="linearGradient-3">
            <stop stop-color="#8DC4EC" offset="0.0819493007%"></stop>
            <stop stop-color="#21547A" offset="100%"></stop>
        </linearGradient>
    </defs>
    <g id="Page-1-Icons" stroke="none" stroke-width="1" fill="none" fill-rule="evenodd">
        <g id="PECOS-2.0-Icons-Overview-v19" transform="translate(-624.000000, -1285.000000)">
            <g id="Business-Type-Header-Icons" transform="translate(26.000000, 565.000000)">
                <g id="Column-3" transform="translate(594.000000, 50.000000)">
                    <g id="icon-ec-tools" transform="translate(4.000000, 670.000000)">
                        <circle id="Oval" fill="#D6E5F1" cx="40" cy="40" r="40"></circle>
                        <path d="M25.3769633,34.3468408 L25,34.4955804 C26.4772603,36.7238415 28.8105936,37.837972 32,37.837972 C35.1894064,37.837972 37.5227397,36.7238415 39,34.4955804 C38.8750554,34.4443881 38.7495748,34.3946687 38.6235583,34.346422 C44.1549982,36.1313333 48,40.0809412 48,44.6666667 C48,50.9258938 40.836556,56 32,56 C23.163444,56 16,50.9258938 16,44.6666667 C16,40.0806655 19.8454641,36.1308583 25.3769633,34.3468408 Z M32,16 C36.9705627,16 41,20.3279141 41,25.6666667 C41,31.0054192 36.9705627,35.3333333 32,35.3333333 C27.0294373,35.3333333 23,31.0054192 23,25.6666667 C23,20.3279141 27.0294373,16 32,16 Z" id="person" fill="url(#linearGradient-1)"></path>
                        <path d="M26.5,52 C29.5,50 31,48.371024 31,47.1130721 C31,45.9922017 30.9927841,44.6271184 30.9783522,43.0178223 C28.8759628,42.7062446 27.3831787,42.0336372 26.5,41 C25.7094116,42.0336372 24.2021957,42.7062446 21.9783522,43.0178223 C21.9927841,44.6573688 22,46.0224521 22,47.1130721 C22,48.371024 23.5,50 26.5,52 Z" id="Oval" fill="url(#linearGradient-2)"></path>
                        <path d="M52.0438862,30 C58.6470655,30 64,35.3278115 64,41.9 C64,48.4721885 58.6470655,53.8 52.0438862,53.8 C49.9426529,53.8 47.9680207,53.2605003 46.2521899,52.3130807 L42.365,56.148 L42.3651273,59.4613225 C42.3651273,60.0901967 41.855324,60.6 41.2264498,60.6 L37.855,60.599 L37.7994148,60.6542318 L37.7994148,62.8613225 C37.7994148,63.4901967 37.2896115,64 36.6607372,64 L32.1387805,64 C31.5099063,64 31.000103,63.4901967 31.000103,62.8613225 L31.0003068,62.8397794 L31.0003068,62.8397794 L31.1063701,57.2347249 L41.6273301,47.7456237 C40.6471564,46.0190831 40.0877723,44.0245605 40.0877723,41.9 C40.0877723,35.3278115 45.4407068,30 52.0438862,30 Z M54.3212412,35.6666667 C52.1201814,35.6666667 50.3358699,37.4426038 50.3358699,39.6333333 C50.3358699,41.8240628 52.1201814,43.6 54.3212412,43.6 C56.522301,43.6 58.3066125,41.8240628 58.3066125,39.6333333 C58.3066125,37.4426038 56.522301,35.6666667 54.3212412,35.6666667 Z" id="key-copy" fill="url(#linearGradient-3)"></path>
                    </g>
                </g>
            </g>
        </g>
    </g>
</svg>