<?xml version="1.0" encoding="UTF-8"?>
<svg width="80px" height="80px" viewBox="0 0 80 80" version="1.1" xmlns="http://www.w3.org/2000/svg" xmlns:xlink="http://www.w3.org/1999/xlink">
    <title>icon-processing-checks</title>
    <defs>
        <linearGradient x1="50%" y1="1.61166958%" x2="50%" y2="100%" id="linearGradient-1">
            <stop stop-color="#A25773" offset="0%"></stop>
            <stop stop-color="#7E4459" offset="100%"></stop>
        </linearGradient>
    </defs>
    <g id="Page-1" stroke="none" stroke-width="1" fill="none" fill-rule="evenodd">
        <g id="Business-Type-Icons" transform="translate(-28.000000, -968.000000)">
            <g id="Large-Icons-Column-1" transform="translate(28.000000, 104.000000)">
                <g id="icon-processing-checks" transform="translate(0.000000, 864.000000)">
                    <circle id="Oval" fill="#E6D1D9" cx="40" cy="40" r="40"></circle>
                    <path d="M40,58 C48.9140512,58 56.3146921,51.5203205 57.7487471,43.0141371 L57.7552449,42.9742157 C57.9807677,41.8252728 58.9933476,40.9584961 60.208374,40.9584961 C61.5890859,40.9584961 62.708374,42.0777842 62.708374,43.4584961 C62.708374,43.4923026 62.707703,43.5259524 62.7063736,43.5594329 L62.7259507,43.5613133 C61.0143006,54.5727493 51.4912952,63 40,63 C34.6323704,63 29.6941944,61.1612909 25.7809714,58.0793723 L22.6991313,63.0421677 C22.1164897,63.980572 20.8834384,64.2689746 19.9450342,63.6863331 C19.3573991,63.3214791 19,62.6788906 19,61.9872018 L19,49 C19,48.4477153 19.4477153,48 20,48 L32.8891562,48 C33.9937257,48 34.8891562,48.8954305 34.8891562,50 C34.8891562,50.6968715 34.5264222,51.3434992 33.9317236,51.7067669 L29.3442233,54.5085308 L29.3442233,54.5085308 L29.619273,54.7069273 C32.5526749,56.7812196 36.1340068,58 40,58 Z M60.0549658,16.3136669 C60.6426009,16.6785209 61,17.3211094 61,18.0127982 L61,31 C61,31.5522847 60.5522847,32 60,32 L47.1108438,32 C46.0062743,32 45.1108438,31.1045695 45.1108438,30 C45.1108438,29.3031285 45.4735778,28.6565008 46.0682764,28.2932331 L50.6556747,25.4913942 C47.6724041,23.2966806 43.9876301,22 40,22 C31.0154734,22 23.568382,28.5825426 22.2183606,37.1879931 L22.2045348,37.3358 C22.0448267,38.5625222 20.9958409,39.5098877 19.7255859,39.5098877 C18.3448741,39.5098877 17.2255859,38.3905996 17.2255859,37.0098877 C17.2255859,36.9158964 17.2307729,36.8231165 17.2408761,36.7318188 L17.2305229,36.7310918 C18.8176126,25.5767903 28.4071979,17 40,17 C45.3676296,17 50.3058056,18.8387091 54.2190286,21.9206277 L57.3008687,16.9578323 C57.8835103,16.019428 59.1165616,15.7310254 60.0549658,16.3136669 Z" id="rotating-arrows" fill="url(#linearGradient-1)"></path>
                </g>
            </g>
        </g>
    </g>
</svg>