<?xml version="1.0" encoding="UTF-8"?>
<svg width="80px" height="80px" viewBox="0 0 80 80" version="1.1" xmlns="http://www.w3.org/2000/svg" xmlns:xlink="http://www.w3.org/1999/xlink">
    <title>icon-revocation-header</title>
    <defs>
        <linearGradient x1="50%" y1="0%" x2="50%" y2="100%" id="linearGradient-1">
            <stop stop-color="#B87A90" offset="0%"></stop>
            <stop stop-color="#A25773" offset="100%"></stop>
        </linearGradient>
    </defs>
    <g id="Page-1-Icons" stroke="none" stroke-width="1" fill="none" fill-rule="evenodd">
        <g id="PECOS-2.0-Icons-Overview-v21" transform="translate(-44.000000, -1191.000000)">
            <g id="Business-Type-Header-Icons" transform="translate(26.000000, 565.000000)">
                <g id="Column-1" transform="translate(18.000000, 50.000000)">
                    <g id="icon-revocation-header" transform="translate(0.000000, 576.000000)">
                        <circle id="Oval" fill="#E6D1D9" cx="40" cy="40" r="40"></circle>
                        <g id="Revocation-large" transform="translate(16.000000, 16.000000)">
                            <path d="M44,17 C46.209139,17 48,18.790861 48,21 L48,44 C48,46.209139 46.209139,48 44,48 L38,48 L38.0010775,46.7318119 C38.5982846,46.3858493 39,45.7398375 39,45 C39,43.8954305 38.1045695,43 37,43 C35.8954305,43 35,43.8954305 35,45 C35,45.7402524 35.4021661,46.3865739 35.9999275,46.7323937 L36,48 L29,48 L29.0010775,46.7318119 C29.5982846,46.3858493 30,45.7398375 30,45 C30,43.8954305 29.1045695,43 28,43 C26.8954305,43 26,43.8954305 26,45 C26,45.7402524 26.4021661,46.3865739 26.9999275,46.7323937 L27,48 L21,48 C18.790861,48 17,46.209139 17,44 L17.0003191,35.9727091 C17.3312447,35.9908239 17.6645507,36 18,36 C27.9411255,36 36,27.9411255 36,18 C36,17.6645507 35.9908239,17.3312447 35.9727091,17.0003191 L44,17 Z" id="Combined-Shape" fill="url(#linearGradient-1)"></path>
                            <path d="M41,30 L41,33 L44,33 L44,36 L41,36 L41,39 L38,39 L38,36 L35,36 L35,33 L38,33 L38,30 L41,30 Z" id="cross" fill="#D8B6C2"></path>
                            <path d="M17,0 C26.3888407,0 34,7.61115925 34,17 C34,26.3888407 26.3888407,34 17,34 C7.61115925,34 0,26.3888407 0,17 C0,7.61115925 7.61115925,0 17,0 Z M4,17 C4,24.1797017 9.82029825,30 17,30 C19.7662713,30 22.3307407,29.1359836 24.4382633,27.6630959 L6.3369041,9.56173666 C4.86401637,11.6692593 4,14.2337287 4,17 Z M17,4 C14.030031,4 11.292678,4.99594705 9.10370184,6.67208016 L27.3279198,24.8962982 C29.0040529,22.707322 30,19.969969 30,17 C30,9.82029825 24.1797017,4 17,4 Z" id="Combined-Shape" fill="#7E4459"></path>
                        </g>
                    </g>
                </g>
            </g>
        </g>
    </g>
</svg>