<?xml version="1.0" encoding="UTF-8"?>
<svg width="80px" height="80px" viewBox="0 0 80 80" version="1.1" xmlns="http://www.w3.org/2000/svg" xmlns:xlink="http://www.w3.org/1999/xlink">
    <title>icon-eft-app-header</title>
    <defs>
        <linearGradient x1="50%" y1="0%" x2="50%" y2="49.5293037%" id="linearGradient-1">
            <stop stop-color="#3EA356" offset="0%"></stop>
            <stop stop-color="#166529" offset="100%"></stop>
        </linearGradient>
        <linearGradient x1="50%" y1="0%" x2="50%" y2="100%" id="linearGradient-2">
            <stop stop-color="#DDF1E1" offset="0%"></stop>
            <stop stop-color="#BEEAC9" offset="100%"></stop>
        </linearGradient>
        <linearGradient x1="50%" y1="0%" x2="50%" y2="100%" id="linearGradient-3">
            <stop stop-color="#3BA054" offset="0%"></stop>
            <stop stop-color="#0A6D22" offset="100%"></stop>
        </linearGradient>
    </defs>
    <g id="Page-1-Icons" stroke="none" stroke-width="1" fill="none" fill-rule="evenodd">
        <g id="PECOS-2.0-Icons-Overview-v31" transform="translate(-38.000000, -1419.000000)">
            <g id="PAGE-HEADER-ICONS" transform="translate(20.000000, 529.000000)">
                <g id="Column-1" transform="translate(18.000000, 40.000000)">
                    <g id="icon-eft-app-header" transform="translate(0.000000, 850.000000)">
                        <circle id="Oval" fill="#BEEAC9" cx="40" cy="40" r="40"></circle>
                        <g id="paper" transform="translate(21.000000, 16.000000)">
                            <path d="M3,0 L34,0 C35.6568542,-3.04359188e-16 37,1.34314575 37,3 L37,41 C37,42.6568542 35.6568542,44 34,44 L3,44 C1.34314575,44 2.02906125e-16,42.6568542 0,41 L0,3 C-2.02906125e-16,1.34314575 1.34314575,3.04359188e-16 3,0 Z" id="dark-bgd" fill="url(#linearGradient-1)"></path>
                            <rect id="document-bgd" fill="url(#linearGradient-2)" x="3" y="3" width="31" height="37" rx="1"></rect>
                            <path d="M28,24 L28,26 L8,26 L8,24 L28,24 Z M28,19 L28,21 L8,21 L8,19 L28,19 Z M28,14 L28,16 L8,16 L8,14 L28,14 Z M28,9 L28,11 L8,11 L8,9 L28,9 Z" id="Combined-Shape" fill="#54AE6A"></path>
                            <path d="M12,29 L12,32 L15,32 L15,35 L12,35 L12,38 L9,38 L9,35 L6,35 L6,32 L9,32 L9,29 L12,29 Z" id="cross" fill="#54AE6A"></path>
                            <circle id="Oval-Copy-9" fill="url(#linearGradient-3)" cx="28.5" cy="35.5" r="12.5"></circle>
                            <path d="M29.7441406,45.3945312 L29.7441406,42.6757812 C31.1738281,42.4960938 32.2871094,42.0605469 33.0839844,41.3691406 C33.8808594,40.6777344 34.2792969,39.8007812 34.2792969,38.7382812 C34.2792969,38.0507812 34.1347656,37.4667969 33.8457031,36.9863281 C33.5566406,36.5058594 33.1074219,36.0800781 32.4980469,35.7089844 C31.8886719,35.3378906 30.9707031,34.9570312 29.7441406,34.5664062 L29.7441406,34.5664062 L29.7441406,29.4804688 C30.9472656,29.5664062 32.1308594,29.8398438 33.2949219,30.3007812 L33.2949219,30.3007812 L33.9042969,28.765625 C32.5683594,28.2265625 31.1816406,27.9375 29.7441406,27.8984375 L29.7441406,27.8984375 L29.7441406,25.7890625 L28.2324219,25.7890625 L28.2324219,27.921875 C26.9277344,28.0625 25.8789062,28.4609375 25.0859375,29.1171875 C24.2929688,29.7734375 23.8964844,30.6132812 23.8964844,31.6367188 C23.8964844,32.6992188 24.21875,33.5664062 24.8632812,34.2382812 C25.5078125,34.9101562 26.6308594,35.5 28.2324219,36.0078125 L28.2324219,36.0078125 L28.2324219,41.1640625 C27.5371094,41.1640625 26.765625,41.0722656 25.9179688,40.8886719 C25.0703125,40.7050781 24.3222656,40.46875 23.6738281,40.1796875 L23.6738281,40.1796875 L23.6738281,42.0078125 C24.1972656,42.25 24.8691406,42.4394531 25.6894531,42.5761719 C26.5097656,42.7128906 27.3574219,42.78125 28.2324219,42.78125 L28.2324219,42.78125 L28.2324219,45.3945312 L29.7441406,45.3945312 Z M28.2324219,34.0625 C27.3652344,33.7421875 26.7558594,33.4023438 26.4042969,33.0429688 C26.0527344,32.6835938 25.8769531,32.2070312 25.8769531,31.6132812 C25.8769531,31.0742188 26.0761719,30.6230469 26.4746094,30.2597656 C26.8730469,29.8964844 27.4589844,29.6523438 28.2324219,29.5273438 L28.2324219,29.5273438 L28.2324219,34.0625 Z M29.7441406,41.046875 L29.7441406,36.4882812 C30.7441406,36.8320312 31.4179688,37.1777344 31.765625,37.5253906 C32.1132812,37.8730469 32.2871094,38.328125 32.2871094,38.890625 C32.2871094,40.09375 31.4394531,40.8125 29.7441406,41.046875 L29.7441406,41.046875 Z" id="$" fill="#C4ECCE" fill-rule="nonzero"></path>
                        </g>
                    </g>
                </g>
            </g>
        </g>
    </g>
</svg>