<?xml version="1.0" encoding="UTF-8"?>
<svg width="80px" height="80px" viewBox="0 0 80 80" version="1.1" xmlns="http://www.w3.org/2000/svg" xmlns:xlink="http://www.w3.org/1999/xlink">
    <title>icon-payment-header </title>
    <defs>
        <linearGradient x1="50%" y1="0%" x2="50%" y2="100%" id="linearGradient-1">
            <stop stop-color="#389C2D" offset="0%"></stop>
            <stop stop-color="#1F791A" offset="100%"></stop>
        </linearGradient>
        <linearGradient x1="50%" y1="0%" x2="50%" y2="100%" id="linearGradient-2">
            <stop stop-color="#61BF59" offset="0%"></stop>
            <stop stop-color="#419C3D" offset="100%"></stop>
        </linearGradient>
    </defs>
    <g id="Page-1-Icons" stroke="none" stroke-width="1" fill="none" fill-rule="evenodd">
        <g id="PECOS-2.0-Icons-Overview-v30" transform="translate(-354.000000, -698.000000)">
            <g id="PAGE-HEADER-ICONS" transform="translate(26.000000, 466.000000)">
                <g id="Column-2" transform="translate(328.000000, 39.000000)">
                    <g id="icon-payment-header-" transform="translate(0.000000, 193.000000)">
                        <circle id="Oval-Copy-5" fill="#CAEFBD" cx="40" cy="40" r="40"></circle>
                        <g id="payment-large" transform="translate(16.998794, 19.000000)">
                            <rect id="card" fill="url(#linearGradient-1)" x="14.001206" y="0" width="34" height="26" rx="2"></rect>
                            <path d="M42.001206,14 L42.001206,17 L45.001206,17 L45.001206,20 L42.001206,20 L42.001206,23 L39.001206,23 L39.001206,20 L36.001206,20 L36.001206,17 L39.001206,17 L39.001206,14 L42.001206,14 Z" id="cross" fill="#7DD475"></path>
                            <path d="M23.001206,4 L23.001206,7 L18.001206,7 L18.001206,4 L23.001206,4 Z M30.001206,4 L30.001206,7 L25.001206,7 L25.001206,4 L30.001206,4 Z M37.001206,4 L37.001206,7 L32.001206,7 L32.001206,4 L37.001206,4 Z M44.001206,4 L44.001206,7 L39.001206,7 L39.001206,4 L44.001206,4 Z" id="Combined-Shape" fill="#A1DD8C"></path>
                            <path d="M27.6422926,22.9987706 C27.6510526,21.9164196 26.7597373,21.0418801 25.6566243,21.0418801 C25.0565309,21.0418801 24.5270367,21.3103031 24.1563907,21.7172671 L17.8541782,28.7808824 C17.7424647,28.8016906 17.4424418,28.758696 16.9541095,28.6518986 C16.4657773,28.5451011 15.8813735,28.2932954 15.2008983,27.8964814 C13.9447497,26.7071244 14.0188558,26.5449858 14.001206,25.6704462 L14.001206,16.7331543 L7.56155468,17.6947367 C7.55272978,17.6947367 7.54390488,17.7033955 7.53507997,17.7033955 C7.52625507,17.7033955 7.51743017,17.7033955 7.49978036,17.7033955 L6.99676085,17.7813248 C6.15839501,18.0064538 5.54065175,18.75977 5.54065175,19.660286 C5.54065175,19.6689448 5.54065175,19.6689448 5.53182685,19.6776036 L4.25221583,32.354098 L4.23456602,32.3627569 C4.17279169,33.1420495 3.64329748,33.7914601 2.91965538,34.0425655 L0.170932656,35.4067341 L0.126808137,35.5885691 C0.126808137,35.5885691 -0.490935116,38.1082821 1.0004736,40.6972656 C2.49188231,43.2862491 7.00558576,43.8183594 7.00558576,43.8183594 L8.59406841,42.034645 C8.59406841,42.034645 13.7213374,42.8399141 16.8541782,39.514932 C19.8193458,36.3717848 26.7597373,25.4053789 27.2980564,24.0897804 C27.2980564,24.0811215 27.3068813,24.0811215 27.3068813,24.0724627 C27.3421809,24.0118511 27.3686556,23.9772159 27.3686556,23.9772159 C27.5363288,23.6914752 27.6422926,23.3537817 27.6422926,22.9987706 Z" id="Fill-39" fill="url(#linearGradient-2)"></path>
                        </g>
                    </g>
                </g>
            </g>
        </g>
    </g>
</svg>