<?xml version="1.0" encoding="UTF-8"?>
<svg width="80px" height="80px" viewBox="0 0 80 80" version="1.1" xmlns="http://www.w3.org/2000/svg" xmlns:xlink="http://www.w3.org/1999/xlink">
    <title>icon-fingerprint-header </title>
    <g id="Page-1" stroke="none" stroke-width="1" fill="none" fill-rule="evenodd">
        <g id="Business-Type-Icons" transform="translate(-441.000000, -104.000000)">
            <g id="icon-fingerprint-header-" transform="translate(441.000000, 104.000000)">
                <circle id="Oval" fill="#D8E3E8" cx="40" cy="40" r="40"></circle>
                <g id="fingerprint-large" transform="translate(18.777778, 16.000000)" fill="#7494A4">
                    <path d="M18.2881684,17 C21.6812671,17 24.916763,18.3529412 27.4013271,20.8039216 C29.8673497,23.245098 31.3599423,26.5490196 31.6009821,30.0980392 C31.6566067,30.8431373 31.1189025,31.5 30.4143246,31.5490196 C29.7097467,31.6078431 29.0886057,31.0392157 29.0422519,30.2941176 C28.6436091,24.3627451 23.9155207,19.7156863 18.2881684,19.7156863 C12.3456102,19.7156863 7.50627258,24.8333333 7.50627258,31.1176471 C7.50627258,32.0490196 7.60825096,32.9803922 7.82147848,33.8823529 L7.82147848,33.8823529 L7.83074924,33.9411765 C7.84002,33.9607843 8.18303818,35.7254902 9.13792663,38.0490196 C10.0093782,40.1666667 11.5854077,43.1960784 14.1255964,45.6372549 C14.6540298,46.1470588 14.6911129,47 14.218304,47.5588235 C13.9587227,47.8529412 13.6157045,48 13.2634156,48 C12.9574804,48 12.6515453,47.8823529 12.4012347,47.6470588 C6.98710993,42.4509804 5.4481635,35.1470588 5.32764359,34.5098039 C5.06806227,33.4117647 4.9382716,32.2647059 4.9382716,31.1176471 C4.9382716,27.3529412 6.32888585,23.8039216 8.85053302,21.1372549 C11.3721802,18.4705882 14.7189251,17 18.2881684,17 Z M19.2964932,11 C21.8749441,11 24.4068525,11.5439748 26.7991336,12.6124967 C29.0610959,13.6227356 31.108963,15.0506695 32.886884,16.8574429 C36.3682581,20.3932791 38.3975082,25.0170648 38.4999015,29.5825676 L38.4999015,29.5825676 L38.5185185,29.5825676 C38.5185185,29.7282751 38.5185185,29.8739827 38.4999015,30.0099764 L38.4999015,30.0099764 L38.4999015,30.0391179 C38.2671894,34.0606458 35.0650699,37.2564978 31.1555054,37.2564978 C27.1342391,37.2564978 23.8576518,33.876083 23.8018008,29.6894198 C23.3549935,27.3192439 21.3536688,25.5221843 18.9520792,25.5221843 C16.234001,25.5221843 14.0185812,27.8340772 14.0185812,30.6705172 C14.0185812,31.1367813 14.0837406,31.5933316 14.1954424,32.040168 L14.1954424,32.040168 L14.2140594,32.1081649 L14.2233679,32.1761617 C14.2326764,32.2247309 14.9587383,36.7319506 17.5651147,39.6461013 C20.3855862,42.7933841 22.94542,44.4447362 26.3895602,45.3481229 C27.0783882,45.5326857 27.5065786,46.2612234 27.3297173,46.9800473 C27.1807816,47.5920189 26.6595063,48 26.0823801,48 C25.9799868,48 25.8682849,47.9902862 25.7658916,47.9611447 C21.8377101,46.9411919 18.8217604,44.9984248 15.6754918,41.4820163 C13.0949254,38.6045132 12.0765116,34.6402247 11.7747944,33.1745548 L11.7329875,32.9644201 C11.7089225,32.8388701 11.6923057,32.7430965 11.682151,32.6812812 C11.5145982,32.0304542 11.4308218,31.3504857 11.4308218,30.6705172 C11.4308218,26.3478603 14.8004941,22.8314518 18.9427707,22.8314518 C23.0478134,22.8314518 26.3895602,26.2895773 26.4547196,30.5539512 C26.8922185,32.8464164 28.8283837,34.5754791 31.1461969,34.5754791 C33.6781054,34.5754791 35.7538979,32.516146 35.9121422,29.912838 C35.8842167,22.2486217 28.7818413,13.6907325 19.2871847,13.6907325 C9.59704993,13.6907325 2.56914237,21.0052507 2.56914237,31.0784983 C2.56914237,33.6720924 3.1090346,36.1685482 4.16089361,38.4901549 C4.46807368,39.1604096 4.18881908,39.9569441 3.54653348,40.2775007 C3.36967223,40.3649252 3.1835025,40.4037805 2.99733276,40.4037805 C2.51329145,40.4037805 2.05717559,40.1220793 1.83377191,39.6363875 C0.614360131,36.9553689 5.68434189e-14,34.0703597 5.68434189e-14,31.0784983 C5.68434189e-14,25.6096088 1.87100585,20.5681281 5.26860355,16.8962982 C6.9999821,15.0312418 9.05715769,13.5741664 11.3842794,12.5736414 C13.8137945,11.534261 16.4760217,11 19.2964932,11 Z M18.9700546,29 C19.6266708,29 20.1623314,29.555479 20.1623314,30.2363887 C20.1623314,30.4155755 20.1709711,30.5947622 20.1796108,30.773949 C20.4819998,35.6836664 24.8882403,39.5272226 30.2102875,39.5272226 C30.8669038,39.5272226 31.5321597,39.4645072 32.1714965,39.3480358 C32.8281127,39.2315644 33.4415305,39.6795314 33.5624861,40.3514817 C33.6748021,41.0234321 33.2428177,41.6685045 32.5948412,41.7849759 C31.8086297,41.9283253 31.0137784,42 30.2102875,42 C23.626846,42 18.1752034,37.1350793 17.7950572,30.9262578 C17.7864175,30.7022743 17.7777778,30.4693315 17.7777778,30.2363887 C17.7777778,29.555479 18.3134384,29 18.9700546,29 Z M18.9746298,6 C23.0183949,6 27.0346514,7.03373277 30.5832616,8.97560461 C34.0218374,10.8595101 37.0202755,13.5935884 39.2668117,16.8880078 C39.6794408,17.4869931 39.5418977,18.3275048 38.9825561,18.7525912 C38.4140449,19.1776776 37.6254648,19.0424228 37.2128357,18.4434375 C33.0498667,12.3279903 26.2277323,8.67611194 18.9837993,8.67611194 C16.6639069,8.67611194 14.3990316,9.05289304 12.2441908,9.75814998 C12.161665,9.77747209 11.9966134,9.83543841 11.7398664,9.94171 C11.6665101,9.97069316 11.5931538,9.99001527 11.5197975,10.0189984 C10.8962691,10.2122195 10.2177235,9.88374368 9.97014603,9.23645307 C9.70422951,8.55051824 10.0251632,7.76797287 10.6762003,7.49746336 C10.7128784,7.4878023 10.7312175,7.4684802 10.7587261,7.45881914 C13.3812132,6.5023748 16.168752,6 18.9746298,6 Z M18.6206278,0 C21.1595178,0 23.6798757,0.366718028 26.1075734,1.08936826 C28.470409,1.79044684 30.7591164,2.8366718 32.9088335,4.18489985 C33.5296569,4.58397535 33.7613075,5.48998459 33.4277307,6.21263482 C33.1960802,6.71956857 32.7513111,7 32.297276,7 C32.0841575,7 31.8803051,6.93528505 31.6857186,6.81664099 C27.7013292,4.31432974 23.1795105,2.98767334 18.6206278,2.98767334 C14.1636713,2.98767334 9.74377885,4.26040062 5.83351763,6.65485362 C5.20342814,7.0431433 4.43434833,6.76271186 4.10077154,6.02927581 C3.76719476,5.29583975 4.00811132,4.40061633 4.63820081,4.01232666 C6.75085379,2.71802773 8.99323108,1.71494607 11.3004705,1.04622496 C13.6818381,0.355932203 16.1465999,0 18.6206278,0 Z" id="fingerprint"></path>
                    <path d="M42.2222222,39 L42.2222222,42 L45.2222222,42 L45.2222222,45 L42.2222222,45 L42.2222222,48 L39.2222222,48 L39.2222222,45 L36.2222222,45 L36.2222222,42 L39.2222222,42 L39.2222222,39 L42.2222222,39 Z" id="cross"></path>
                </g>
            </g>
        </g>
    </g>
</svg>