<?xml version="1.0" encoding="UTF-8"?>
<svg width="80px" height="80px" viewBox="0 0 80 80" version="1.1" xmlns="http://www.w3.org/2000/svg" xmlns:xlink="http://www.w3.org/1999/xlink">
    <title>icon-revocation-status-overview</title>
    <defs>
        <linearGradient x1="50%" y1="0%" x2="50%" y2="100%" id="linearGradient-1">
            <stop stop-color="#C88FA3" offset="0%"></stop>
            <stop stop-color="#B8768F" offset="100%"></stop>
        </linearGradient>
        <linearGradient x1="50%" y1="0%" x2="50%" y2="100%" id="linearGradient-2">
            <stop stop-color="#7B3952" offset="0%"></stop>
            <stop stop-color="#562436" offset="100%"></stop>
        </linearGradient>
        <linearGradient x1="50%" y1="0.659862598%" x2="50%" y2="97.2027972%" id="linearGradient-3">
            <stop stop-color="#EEE2E6" offset="0%"></stop>
            <stop stop-color="#E7D3DA" offset="100%"></stop>
        </linearGradient>
    </defs>
    <g id="Page-1-Icons" stroke="none" stroke-width="1" fill="none" fill-rule="evenodd">
        <g id="PECOS-2.0-Icons-Overview-v31" transform="translate(-2593.000000, -2829.000000)">
            <g id="24x24-status-icons" transform="translate(20.000000, 2211.000000)">
                <g id="REVOCATION-OVERVIEW" transform="translate(2557.000000, 460.000000)">
                    <g id="icon-revocation-status-overview" transform="translate(16.000000, 158.000000)">
                        <circle id="pink-80x80-oval" fill="#E6D1D9" cx="40" cy="40" r="40"></circle>
                        <g id="icon-revocation-light-new" transform="translate(16.000000, 27.000000)">
                            <g id="pink-enrollment-card" transform="translate(10.999831, 10.999921)">
                                <path d="M23.6258253,7.91995985e-05 C24.9375016,7.91995985e-05 26.0008253,1.06340292 26.0008253,2.3750792 L26.0008253,23.6250792 C26.0008253,24.9367555 24.9375016,26.0000792 23.6258253,26.0000792 L18.0001691,26.0000792 L18.0012466,24.7366816 C18.5984537,24.3902749 19.0001691,23.7434338 19.0001691,23.0026466 C19.0001691,21.8966592 18.1047386,21.0000792 17.0001691,21.0000792 C15.8955996,21.0000792 15.0001691,21.8966592 15.0001691,23.0026466 C15.0001691,23.743742 15.4022187,24.3908131 15.9998369,24.7371137 L16.0001691,26.0000792 L10.0001691,26.0000792 L10.0012466,24.7366816 C10.5984537,24.3902749 11.0001691,23.7434338 11.0001691,23.0026466 C11.0001691,21.8966592 10.1047386,21.0000792 9.00016906,21.0000792 C7.89559956,21.0000792 7.00016906,21.8966592 7.00016906,23.0026466 C7.00016906,23.743742 7.40221871,24.3908131 7.99983691,24.7371137 L8.00016906,26.0000792 L2.37582531,26.0000792 C1.06414903,26.0000792 0.000825309445,24.9367555 0.000825309445,23.6250792 L-0.000800158031,16.6998281 C0.968830103,16.8967196 1.97242911,17.0000792 3.00016906,17.0000792 C11.2844403,17.0000792 18.0001691,10.2843504 18.0001691,2.0000792 C18.0001691,1.32193427 17.9551673,0.654300065 17.8679872,2.16049401e-13 L23.6258253,7.91995985e-05 Z" id="enrollment-card" fill="url(#linearGradient-1)"></path>
                                <path d="M20.4501691,13.6342255 L20.4501691,15.5362255 L22.3501691,15.5366646 L22.3501691,17.4391036 L20.4501691,17.4382255 L20.4501691,19.3415426 L18.5501691,19.3415426 L18.5501691,17.4382255 L16.6501691,17.4391036 L16.6501691,15.5366646 L18.5501691,15.5362255 L18.5501691,13.6342255 L20.4501691,13.6342255 Z" id="cross" fill="#D8B6C2"></path>
                            </g>
                            <path d="M13,0 C20.1797017,0 26,5.82029825 26,13 C26,20.1797017 20.1797017,26 13,26 C5.82029825,26 0,20.1797017 0,13 C0,5.82029825 5.82029825,0 13,0 Z M3,13 C3,18.5228475 7.4771525,23 13,23 C15.1685018,23 17.1757911,22.3097676 18.8141526,21.1370182 L4.86298177,7.18584739 C3.69023241,8.82420887 3,10.8314982 3,13 Z M13,3 C10.8186327,3 8.80039646,3.69844686 7.1567257,4.88390609 L21.1160939,18.8432743 C22.3015531,17.1996035 23,15.1813673 23,13 C23,7.4771525 18.5228475,3 13,3 Z" id="Combined-Shape" fill="#B36C86"></path>
                        </g>
                        <path d="M35,23 L53,23 L53,46 L38,46 C36.3431458,46 35,44.6568542 35,43 L35,23 L35,23 Z" id="Rectangle" fill="#E6D1D9"></path>
                        <g id="icon-calendar" transform="translate(37.000000, 16.000000)">
                            <path d="M5,3 C5,4.1045695 5.8954305,5 7,5 C8.1045695,5 9,4.1045695 9,3 L9,3 L18,3 C18,4.1045695 18.8954305,5 20,5 C21.1045695,5 22,4.1045695 22,3 L22,3 L25,3 C26.1045695,3 27,3.8954305 27,5 L27,26 C27,27.1045695 26.1045695,28 25,28 L2,28 C0.8954305,28 1.3527075e-16,27.1045695 0,26 L0,5 C-1.3527075e-16,3.8954305 0.8954305,3 2,3 Z M20,0 C20.5522847,-1.01453063e-16 21,0.44771525 21,1 L21,3 C21,3.55228475 20.5522847,4 20,4 C19.4477153,4 19,3.55228475 19,3 L19,1 C19,0.44771525 19.4477153,1.01453063e-16 20,0 Z M7,0 C7.55228475,-1.01453063e-16 8,0.44771525 8,1 L8,3 C8,3.55228475 7.55228475,4 7,4 C6.44771525,4 6,3.55228475 6,3 L6,1 C6,0.44771525 6.44771525,1.01453063e-16 7,0 Z" fill="url(#linearGradient-2)"></path>
                            <rect id="Rectangle-Copy" fill="url(#linearGradient-3)" x="2" y="6" width="23" height="20" rx="1"></rect>
                            <path d="M16.5,21 C16.7761424,21 17,21.2238576 17,21.5 L17,22.5 C17,22.7761424 16.7761424,23 16.5,23 L15.5,23 C15.2238576,23 15,22.7761424 15,22.5 L15,21.5 C15,21.2238576 15.2238576,21 15.5,21 L16.5,21 Z M11.5,21 C11.7761424,21 12,21.2238576 12,21.5 L12,22.5 C12,22.7761424 11.7761424,23 11.5,23 L10.5,23 C10.2238576,23 10,22.7761424 10,22.5 L10,21.5 C10,21.2238576 10.2238576,21 10.5,21 L11.5,21 Z M6.5,21 C6.77614237,21 7,21.2238576 7,21.5 L7,22.5 C7,22.7761424 6.77614237,23 6.5,23 L5.5,23 C5.22385763,23 5,22.7761424 5,22.5 L5,21.5 C5,21.2238576 5.22385763,21 5.5,21 L6.5,21 Z M21.5,17 C21.7761424,17 22,17.2238576 22,17.5 L22,18.5 C22,18.7761424 21.7761424,19 21.5,19 L20.5,19 C20.2238576,19 20,18.7761424 20,18.5 L20,17.5 C20,17.2238576 20.2238576,17 20.5,17 L21.5,17 Z M16.5,17 C16.7761424,17 17,17.2238576 17,17.5 L17,18.5 C17,18.7761424 16.7761424,19 16.5,19 L15.5,19 C15.2238576,19 15,18.7761424 15,18.5 L15,17.5 C15,17.2238576 15.2238576,17 15.5,17 L16.5,17 Z M11.5,17 C11.7761424,17 12,17.2238576 12,17.5 L12,18.5 C12,18.7761424 11.7761424,19 11.5,19 L10.5,19 C10.2238576,19 10,18.7761424 10,18.5 L10,17.5 C10,17.2238576 10.2238576,17 10.5,17 L11.5,17 Z M6.5,17 C6.77614237,17 7,17.2238576 7,17.5 L7,18.5 C7,18.7761424 6.77614237,19 6.5,19 L5.5,19 C5.22385763,19 5,18.7761424 5,18.5 L5,17.5 C5,17.2238576 5.22385763,17 5.5,17 L6.5,17 Z M21.5,13 C21.7761424,13 22,13.2238576 22,13.5 L22,14.5 C22,14.7761424 21.7761424,15 21.5,15 L20.5,15 C20.2238576,15 20,14.7761424 20,14.5 L20,13.5 C20,13.2238576 20.2238576,13 20.5,13 L21.5,13 Z M16.5,13 C16.7761424,13 17,13.2238576 17,13.5 L17,14.5 C17,14.7761424 16.7761424,15 16.5,15 L15.5,15 C15.2238576,15 15,14.7761424 15,14.5 L15,13.5 C15,13.2238576 15.2238576,13 15.5,13 L16.5,13 Z M11.5,13 C11.7761424,13 12,13.2238576 12,13.5 L12,14.5 C12,14.7761424 11.7761424,15 11.5,15 L10.5,15 C10.2238576,15 10,14.7761424 10,14.5 L10,13.5 C10,13.2238576 10.2238576,13 10.5,13 L11.5,13 Z M6.5,13 C6.77614237,13 7,13.2238576 7,13.5 L7,14.5 C7,14.7761424 6.77614237,15 6.5,15 L5.5,15 C5.22385763,15 5,14.7761424 5,14.5 L5,13.5 C5,13.2238576 5.22385763,13 5.5,13 L6.5,13 Z M21.5,9 C21.7761424,9 22,9.22385763 22,9.5 L22,10.5 C22,10.7761424 21.7761424,11 21.5,11 L20.5,11 C20.2238576,11 20,10.7761424 20,10.5 L20,9.5 C20,9.22385763 20.2238576,9 20.5,9 L21.5,9 Z M16.5,9 C16.7761424,9 17,9.22385763 17,9.5 L17,10.5 C17,10.7761424 16.7761424,11 16.5,11 L15.5,11 C15.2238576,11 15,10.7761424 15,10.5 L15,9.5 C15,9.22385763 15.2238576,9 15.5,9 L16.5,9 Z M11.5,9 C11.7761424,9 12,9.22385763 12,9.5 L12,10.5 C12,10.7761424 11.7761424,11 11.5,11 L10.5,11 C10.2238576,11 10,10.7761424 10,10.5 L10,9.5 C10,9.22385763 10.2238576,9 10.5,9 L11.5,9 Z" id="Combined-Shape" fill="#A25773"></path>
                            <path d="M14,9 L14,23 L13,23 L13,9 L14,9 Z M9,9 L9,23 L8,23 L8,9 L9,9 Z M19,9 L19,23 L18,23 L18,9 L19,9 Z" id="Combined-Shape" fill="#C68CA2"></path>
                        </g>
                    </g>
                </g>
            </g>
        </g>
    </g>
</svg>