<?xml version="1.0" encoding="UTF-8"?>
<svg width="80px" height="80px" viewBox="0 0 80 80" version="1.1" xmlns="http://www.w3.org/2000/svg" xmlns:xlink="http://www.w3.org/1999/xlink">
    <title>icon-my-connections</title>
    <defs>
        <linearGradient x1="50%" y1="0%" x2="50%" y2="100%" id="linearGradient-1">
            <stop stop-color="#1292E7" offset="0%"></stop>
            <stop stop-color="#0573BB" offset="100%"></stop>
        </linearGradient>
    </defs>
    <g id="Page-1" stroke="none" stroke-width="1" fill="none" fill-rule="evenodd">
        <g id="Business-Type-Icons" transform="translate(-28.000000, -872.000000)">
            <g id="Large-Icons-Column-1" transform="translate(28.000000, 104.000000)">
                <g id="icon-my-connections" transform="translate(0.000000, 768.000000)">
                    <circle id="Oval" fill="#C5E5FB" cx="40" cy="40" r="40"></circle>
                    <path d="M45.5415745,54.3934501 C47.4868107,55.443865 48.7272727,57.0359572 48.7272727,58.8181818 C48.7272727,61.9812672 44.8199396,64 40,64 C35.1800604,64 31.2727273,61.9812672 31.2727273,58.8181818 C31.2727273,57.0359049 32.5132622,55.4437714 34.458597,54.3933575 C35.6176926,56.2331399 37.666209,57.4545455 40,57.4545455 C42.2789932,57.4545455 44.2859511,56.2898241 45.4580935,54.5231618 L45.5415745,54.3934501 Z M20.5209903,50.2363238 C20.7135217,50.2861853 20.9099754,50.3306203 21.1103516,50.3696289 C21.6275597,50.4703174 22.2570543,50.5267515 22.9988353,50.5389313 C24.5485482,53.0337051 26.6323077,55.1624097 29.0903046,56.7651864 L29.0907119,59.1089778 C25.515655,57.06358 22.5697038,54.0438151 20.6147803,50.4116051 L20.5209903,50.2363238 Z M59.4329091,50.324312 C57.4776724,53.9951469 54.5131164,57.047119 50.9092881,59.1089778 L50.9087209,56.7658218 L51.1821902,56.5843141 C53.4969229,55.0205114 55.4666844,52.9848609 56.9534654,50.6153716 C57.7167164,50.6052514 58.3616849,50.5485831 58.8896484,50.4458008 C59.0740575,50.4099006 59.2551444,50.3694043 59.4329091,50.324312 Z M40,46.5454545 C42.4099698,46.5454545 44.3636364,48.4991211 44.3636364,50.9090909 C44.3636364,53.3190607 42.4099698,55.2727273 40,55.2727273 C37.5900302,55.2727273 35.6363636,53.3190607 35.6363636,50.9090909 C35.6363636,48.4991211 37.5900302,46.5454545 40,46.5454545 Z M60.8143018,39.1207228 C62.759538,40.1711377 64,41.76323 64,43.5454545 C64,46.7085399 60.0926669,48.7272727 55.2727273,48.7272727 C50.4527876,48.7272727 46.5454545,46.7085399 46.5454545,43.5454545 C46.5454545,41.7631776 47.7859895,40.1710441 49.7313243,39.1206302 C50.8904199,40.9604126 52.9389363,42.1818182 55.2727273,42.1818182 C57.5517205,42.1818182 59.5586784,41.0170968 60.7308208,39.2504345 L60.8143018,39.1207228 Z M30.2688473,39.1207228 C32.2140835,40.1711377 33.4545455,41.76323 33.4545455,43.5454545 C33.4545455,46.7085399 29.5472124,48.7272727 24.7272727,48.7272727 C19.9073331,48.7272727 16,46.7085399 16,43.5454545 C16,41.7631776 17.2405349,40.1710441 19.1858697,39.1206302 C20.3449653,40.9604126 22.3934817,42.1818182 24.7272727,42.1818182 C27.0062659,42.1818182 29.0132239,41.0170968 30.1853662,39.2504345 L30.2688473,39.1207228 Z M24.7272727,31.2727273 C27.1372425,31.2727273 29.0909091,33.2263938 29.0909091,35.6363636 C29.0909091,38.0463335 27.1372425,40 24.7272727,40 C22.3173029,40 20.3636364,38.0463335 20.3636364,35.6363636 C20.3636364,33.2263938 22.3173029,31.2727273 24.7272727,31.2727273 Z M55.2727273,31.2727273 C57.6826971,31.2727273 59.6363636,33.2263938 59.6363636,35.6363636 C59.6363636,38.0463335 57.6826971,40 55.2727273,40 C52.8627575,40 50.9090909,38.0463335 50.9090909,35.6363636 C50.9090909,33.2263938 52.8627575,31.2727273 55.2727273,31.2727273 Z M45.5415745,23.8479956 C47.4868107,24.8984104 48.7272727,26.4905027 48.7272727,28.2727273 C48.7272727,31.4358127 44.8199396,33.4545455 40,33.4545455 C35.1800604,33.4545455 31.2727273,31.4358127 31.2727273,28.2727273 C31.2727273,26.4904503 32.5132622,24.8983168 34.458597,23.8479029 C35.6176926,25.6876854 37.666209,26.9090909 40,26.9090909 C42.2789932,26.9090909 44.2859511,25.7443696 45.4580935,23.9777073 L45.5415745,23.8479956 Z M46.0482433,18.8418826 C52.4747844,20.6754185 57.700099,25.3580048 60.2711309,31.4366072 L60.3247944,31.5664369 C59.5820006,30.7164055 58.507751,30.069115 57.1020457,29.6245654 C54.6530356,25.596781 50.8206886,22.5021314 46.264441,21.000699 C46.3224379,20.2224215 46.2500136,19.5027619 46.0482433,18.8418826 Z M33.9466018,18.8433988 C33.7789222,19.4912137 33.7349136,20.2016106 33.8145758,20.9745894 C29.2596984,22.4544783 25.4212278,25.5251651 22.955484,29.531135 C21.5584535,29.9637809 20.4840608,30.5954185 19.7332604,31.4249872 C22.2734035,25.4298447 27.3962127,20.7939578 33.7064956,18.9133673 L33.9466018,18.8433988 Z M40,16 C42.4099698,16 44.3636364,17.9536665 44.3636364,20.3636364 C44.3636364,22.7736062 42.4099698,24.7272727 40,24.7272727 C37.5900302,24.7272727 35.6363636,22.7736062 35.6363636,20.3636364 C35.6363636,17.9536665 37.5900302,16 40,16 Z" id="my-connections-B" fill="url(#linearGradient-1)"></path>
                    <path d="M61,54.8934697 L61,57.8934697 L64,57.8934697 L64,60.8934697 L61,60.8934697 L61,63.8934697 L58,63.8934697 L58,60.8934697 L55,60.8934697 L55,57.8934697 L58,57.8934697 L58,54.8934697 L61,54.8934697 Z" id="cross" fill="#4EB1F2"></path>
                </g>
            </g>
        </g>
    </g>
</svg>