<?xml version="1.0" encoding="UTF-8"?>
<svg width="80px" height="80px" viewBox="0 0 80 80" version="1.1" xmlns="http://www.w3.org/2000/svg" xmlns:xlink="http://www.w3.org/1999/xlink">
    <title>icon-work-queue-header</title>
    <defs>
        <linearGradient x1="50%" y1="0%" x2="50%" y2="100%" id="linearGradient-1">
            <stop stop-color="#0573BB" offset="0%"></stop>
            <stop stop-color="#015993" offset="100%"></stop>
        </linearGradient>
        <linearGradient x1="50%" y1="0%" x2="50%" y2="100%" id="linearGradient-2">
            <stop stop-color="#D1EEFD" offset="0%"></stop>
            <stop stop-color="#A6D7F9" offset="100%"></stop>
        </linearGradient>
    </defs>
    <g id="Page-1-Icons" stroke="none" stroke-width="1" fill="none" fill-rule="evenodd">
        <g id="PECOS-2.0-Icons-Overview-v28" transform="translate(-624.000000, -1396.000000)">
            <g id="PAGE-HEADER-ICONS" transform="translate(26.000000, 494.000000)">
                <g id="Column-3" transform="translate(594.000000, 40.000000)">
                    <g id="icon-work-queue-header" transform="translate(4.000000, 862.000000)">
                        <circle id="Oval" fill="#C5E5FB" cx="40" cy="40" r="40"></circle>
                        <rect id="Outer-rect" fill="url(#linearGradient-1)" x="16" y="16" width="48" height="48" rx="4"></rect>
                        <rect id="Inner-rect" fill="url(#linearGradient-2)" x="19" y="19" width="42" height="42" rx="2"></rect>
                        <g id="checkmark-and-lines" transform="translate(22.437531, 18.866090)" fill="#0573BB">
                            <rect id="line" x="15.5624693" y="32.1339103" width="19" height="3" rx="1.5"></rect>
                            <path d="M4.41439432,34.1906654 L7.99729516,34.1906654 L7.99729516,34.1906654 L7.99729516,26.6463882 C7.99729516,25.8332964 8.65643625,25.1741554 9.46952798,25.1741554 C10.2825277,25.1741554 10.9415942,25.8332219 10.9415942,26.6462216 C10.9415942,26.6462771 10.9415942,26.6463327 10.9415942,26.6463882 L10.940629,35.1778022 C10.9402778,36.2822833 10.0448839,37.1775759 8.94040277,37.1778022 L4.41303628,37.1778022 C3.58853606,37.1778022 2.92014657,36.5094127 2.92014657,35.6849125 C2.92014657,35.6846863 2.92014662,35.68446 2.92014673,35.6842338 C2.92052179,34.8592489 3.58940935,34.1906654 4.41439432,34.1906654 Z" id="checkmark" transform="translate(6.930614, 31.175979) rotate(40.000000) translate(-6.930614, -31.175979) "></path>
                            <rect id="line" x="15.5624693" y="20.1339103" width="19" height="3" rx="1.5"></rect>
                            <path d="M4.41439432,22.1906654 L7.99729516,22.1906654 L7.99729516,22.1906654 L7.99729516,14.6463882 C7.99729516,13.8332964 8.65643625,13.1741554 9.46952798,13.1741554 C10.2825277,13.1741554 10.9415942,13.8332219 10.9415942,14.6462216 C10.9415942,14.6462771 10.9415942,14.6463327 10.9415942,14.6463882 L10.940629,23.1778022 C10.9402778,24.2822833 10.0448839,25.1775759 8.94040277,25.1778022 L4.41303628,25.1778022 C3.58853606,25.1778022 2.92014657,24.5094127 2.92014657,23.6849125 C2.92014657,23.6846863 2.92014662,23.68446 2.92014673,23.6842338 C2.92052179,22.8592489 3.58940935,22.1906654 4.41439432,22.1906654 Z" id="checkmark" transform="translate(6.930614, 19.175979) rotate(40.000000) translate(-6.930614, -19.175979) "></path>
                            <rect id="line" x="15.5624693" y="8.1339103" width="19" height="3" rx="1.5"></rect>
                            <path d="M4.41439432,10.1906654 L7.99729516,10.1906654 L7.99729516,10.1906654 L7.99729516,2.64638818 C7.99729516,1.83329644 8.65643625,1.17415536 9.46952798,1.17415536 C10.2825277,1.17415536 10.9415942,1.83322188 10.9415942,2.64622163 C10.9415942,2.64627714 10.9415942,2.64633265 10.9415942,2.64638817 L10.940629,11.1778022 C10.9402778,12.2822833 10.0448839,13.1775759 8.94040277,13.1778022 L4.41303628,13.1778022 C3.58853606,13.1778022 2.92014657,12.5094127 2.92014657,11.6849125 C2.92014657,11.6846863 2.92014662,11.68446 2.92014673,11.6842338 C2.92052179,10.8592489 3.58940935,10.1906654 4.41439432,10.1906654 Z" id="checkmark" transform="translate(6.930614, 7.175979) rotate(40.000000) translate(-6.930614, -7.175979) "></path>
                        </g>
                    </g>
                </g>
            </g>
        </g>
    </g>
</svg>