<?xml version="1.0" encoding="UTF-8"?>
<svg width="80px" height="80px" viewBox="0 0 80 80" version="1.1" xmlns="http://www.w3.org/2000/svg" xmlns:xlink="http://www.w3.org/1999/xlink">
    <title>icon-manual-checks</title>
    <defs>
        <linearGradient x1="50%" y1="0%" x2="50%" y2="100%" id="linearGradient-1">
            <stop stop-color="#15BBBB" offset="0%"></stop>
            <stop stop-color="#149D9D" offset="100%"></stop>
        </linearGradient>
        <linearGradient x1="50%" y1="0%" x2="50%" y2="100%" id="linearGradient-2">
            <stop stop-color="#0E7B7B" offset="0%"></stop>
            <stop stop-color="#095C5C" offset="100%"></stop>
        </linearGradient>
        <linearGradient x1="50%" y1="0%" x2="50%" y2="100%" id="linearGradient-3">
            <stop stop-color="#66E0E0" offset="0%"></stop>
            <stop stop-color="#66E0E0" offset="100%"></stop>
        </linearGradient>
    </defs>
    <g id="Page-1" stroke="none" stroke-width="1" fill="none" fill-rule="evenodd">
        <g id="Business-Type-Icons" transform="translate(-28.000000, -1064.000000)">
            <g id="Large-Icons-Column-1" transform="translate(28.000000, 104.000000)">
                <g id="icon-manual-checks" transform="translate(0.000000, 960.000000)">
                    <circle id="Oval" fill="#A7EBEB" cx="40" cy="40" r="40"></circle>
                    <path d="M35.2,29 L56.8,29 C60.7764502,29 64,32.2235498 64,36.2 L64,48.700783 C64,52.6772332 60.7764502,55.900783 56.8,55.900783 L43.2354492,55.900783 L43.2354492,55.900783 L35.7654999,62.6433264 C35.3965224,62.9763738 34.8274188,62.9472466 34.4943714,62.5782691 C34.3450956,62.412889 34.2624643,62.1980202 34.2624643,61.9752336 L34.2624643,55.900783 L34.2624643,55.900783 C30.8038008,55.900783 28,53.0969822 28,49.6383187 L28,36.2 C28,32.2235498 31.2235498,29 35.2,29 Z" id="back-bubble" fill="url(#linearGradient-1)" transform="translate(46.000000, 46.500000) scale(-1, 1) translate(-46.000000, -46.500000) "></path>
                    <path d="M24.3998341,16 L49.6001659,16 C54.2392662,16 58,19.7607338 58,24.3998341 L58,39.1125116 C58,43.7516119 54.2392662,47.5123458 49.6001659,47.5123458 L33.7746907,47.5123458 L33.7746907,47.5123458 L25.0612933,55.409355 C24.6316163,55.7987741 23.9676077,55.7661386 23.5781886,55.3364616 C23.4031535,55.1433315 23.3062084,54.8920023 23.3062084,54.631356 L23.3062084,47.5123458 L23.3062084,47.5123458 C19.2711009,47.5123458 16,44.2412449 16,40.2061374 L16,24.3998341 C16,19.7607338 19.7607338,16 24.3998341,16 Z" id="front-bubble" fill="url(#linearGradient-2)"></path>
                    <path d="M37.756,34.804 L38.106,32.802 C38.162,32.5126667 38.309,32.249 38.547,32.011 C38.785,31.773 39.0673333,31.5326667 39.394,31.29 C39.7206667,31.0473333 40.066,30.786 40.43,30.506 C40.794,30.226 41.1276667,29.8946667 41.431,29.512 C41.7343333,29.1293333 41.9863333,28.679 42.187,28.161 C42.3876667,27.643 42.488,27.0293333 42.488,26.32 C42.488,25.5826667 42.355,24.9153333 42.089,24.318 C41.823,23.7206667 41.4473333,23.2096667 40.962,22.785 C40.4766667,22.3603333 39.8933333,22.0336667 39.212,21.805 C38.5306667,21.5763333 37.77,21.462 36.93,21.462 C36.3233333,21.462 35.7563333,21.5156667 35.229,21.623 C34.7016667,21.7303333 34.2116667,21.8773333 33.759,22.064 C33.3063333,22.2506667 32.8863333,22.47 32.499,22.722 C32.1116667,22.974 31.75,23.2446667 31.414,23.534 L31.414,23.534 L32.436,25.13 C32.6133333,25.438 32.8793333,25.592 33.234,25.592 C33.3926667,25.592 33.5606667,25.536 33.738,25.424 C33.9153333,25.312 34.13,25.1883333 34.382,25.053 C34.634,24.9176667 34.935,24.794 35.285,24.682 C35.635,24.57 36.0666667,24.514 36.58,24.514 C37.28,24.514 37.8423333,24.696 38.267,25.06 C38.6916667,25.424 38.904,25.914 38.904,26.53 C38.904,27.034 38.7943333,27.4703333 38.575,27.839 C38.3556667,28.2076667 38.085,28.539 37.763,28.833 C37.441,29.127 37.0956667,29.4023333 36.727,29.659 C36.3583333,29.9156667 36.0246667,30.1816667 35.726,30.457 C35.4273333,30.7323333 35.1893333,31.0356667 35.012,31.367 C34.8346667,31.6983333 34.7786667,32.088 34.844,32.536 L34.844,32.536 L35.11,34.804 L37.756,34.804 Z M36.314,42.196 C36.6313333,42.196 36.93,42.14 37.21,42.028 C37.49,41.916 37.7326667,41.7596667 37.938,41.559 C38.1433333,41.3583333 38.3043333,41.1226667 38.421,40.852 C38.5376667,40.5813333 38.596,40.2873333 38.596,39.97 C38.596,39.662 38.5376667,39.3703333 38.421,39.095 C38.3043333,38.8196667 38.1433333,38.5816667 37.938,38.381 C37.7326667,38.1803333 37.49,38.0216667 37.21,37.905 C36.93,37.7883333 36.6313333,37.73 36.314,37.73 C35.9873333,37.73 35.6863333,37.7883333 35.411,37.905 C35.1356667,38.0216667 34.8953333,38.1803333 34.69,38.381 C34.4846667,38.5816667 34.3236667,38.8196667 34.207,39.095 C34.0903333,39.3703333 34.032,39.662 34.032,39.97 C34.032,40.2873333 34.0903333,40.5813333 34.207,40.852 C34.3236667,41.1226667 34.4846667,41.3583333 34.69,41.559 C34.8953333,41.7596667 35.1356667,41.916 35.411,42.028 C35.6863333,42.14 35.9873333,42.196 36.314,42.196 Z" id="?" fill="url(#linearGradient-3)" fill-rule="nonzero"></path>
                </g>
            </g>
        </g>
    </g>
</svg>