<?xml version="1.0" encoding="UTF-8"?>
<svg width="80px" height="80px" viewBox="0 0 80 80" version="1.1" xmlns="http://www.w3.org/2000/svg" xmlns:xlink="http://www.w3.org/1999/xlink">
    <title>icon-search-header</title>
    <defs>
        <linearGradient x1="50%" y1="0%" x2="50%" y2="100%" id="linearGradient-1">
            <stop stop-color="#0573BB" offset="0%"></stop>
            <stop stop-color="#01558D" offset="100%"></stop>
        </linearGradient>
        <linearGradient x1="50%" y1="0%" x2="50%" y2="100%" id="linearGradient-2">
            <stop stop-color="#91CEF7" offset="0%"></stop>
            <stop stop-color="#91CEF7" offset="100%"></stop>
        </linearGradient>
    </defs>
    <g id="Page-1" stroke="none" stroke-width="1" fill="none" fill-rule="evenodd">
        <g id="Business-Type-Icons" transform="translate(-441.000000, -872.000000)">
            <g id="Large-Icons-Column-2" transform="translate(441.000000, 104.000000)">
                <g id="icon-search-header" transform="translate(0.000000, 768.000000)">
                    <circle id="Oval" fill="#C5E5FB" cx="40" cy="40" r="40"></circle>
                    <g id="search-large" transform="translate(16.000000, 16.000000)">
                        <path d="M20,6.03961325e-14 C31.045695,6.03961325e-14 40,8.954305 40,20 C40,24.8236765 38.2923371,29.248507 35.4485742,32.7029286 L39.325027,36.5786937 L39.8744293,36.5694028 C40.4178586,36.5602129 40.9416252,36.7725847 41.3251974,37.1576461 L47.1307252,42.9857149 C48.2288242,44.0880774 48.228142,45.8710524 47.1291998,46.9725743 L46.9031962,47.1991085 C45.8018328,48.3030573 44.0140741,48.3051532 42.9101253,47.2037898 C42.9080532,47.2017225 42.9059843,47.199652 42.9039186,47.1975783 L37.1048889,41.3760329 C36.7380462,41.0077659 36.528992,40.5111437 36.5220198,39.9913884 L36.5139495,39.3897712 L32.6310228,35.5074903 C29.1872033,38.3159066 24.7902722,40 20,40 C8.954305,40 7.10542736e-15,31.045695 7.10542736e-15,20 C7.10542736e-15,8.954305 8.954305,6.03961325e-14 20,6.03961325e-14 Z M20,4 C11.163444,4 4,11.163444 4,20 C4,28.836556 11.163444,36 20,36 C28.836556,36 36,28.836556 36,20 C36,11.163444 28.836556,4 20,4 Z" id="mag-glass" fill="url(#linearGradient-1)"></path>
                        <circle id="Oval" fill="url(#linearGradient-2)" cx="20" cy="20" r="16"></circle>
                        <path d="M9.4274548,10.6113224 C11.354166,8.89990044 13.5648712,8.04418945 16.0595703,8.04418945 C18.5107621,8.04418945 20.6835476,8.87031366 22.5779267,10.5225621 C22.9941232,10.8855874 23.0372487,11.51727 22.6742376,11.933479 C22.6658835,11.9430572 22.6573477,11.9524754 22.6486346,11.9617282 L22.5724003,12.0426855 C22.2008642,12.4371763 21.5827087,12.4639785 21.1784509,12.1030938 C19.5280238,10.6297422 17.8217303,9.89306641 16.0595703,9.89306641 C14.2696793,9.89306641 12.4429923,10.6531107 10.5795092,12.1731994 C10.2080405,12.4762145 9.66126324,12.4207227 9.35824756,12.0492545 C9.34717828,12.0356847 9.3365222,12.0217829 9.32629395,12.0075684 L9.27988036,11.9430658 C8.98041382,11.5269563 9.04416325,10.9517853 9.4274548,10.6113224 Z" id="Rectangle-Copy-68" fill="#FFFFFF" transform="translate(16.051392, 10.410889) rotate(-23.000000) translate(-16.051392, -10.410889) "></path>
                    </g>
                </g>
            </g>
        </g>
    </g>
</svg>