<?xml version="1.0" encoding="UTF-8"?>
<svg width="80px" height="80px" viewBox="0 0 80 80" version="1.1" xmlns="http://www.w3.org/2000/svg" xmlns:xlink="http://www.w3.org/1999/xlink">
    <title>icon-deactivated-npi-header</title>
    <defs>
        <linearGradient x1="50%" y1="0%" x2="50%" y2="100%" id="linearGradient-1">
            <stop stop-color="#A1A9AF" offset="0%"></stop>
            <stop stop-color="#848D94" offset="100%"></stop>
        </linearGradient>
    </defs>
    <g id="Page-1" stroke="none" stroke-width="1" fill="none" fill-rule="evenodd">
        <g id="Business-Type-Icons" transform="translate(-441.000000, -584.000000)">
            <g id="Large-Icons-Column-2" transform="translate(441.000000, 104.000000)">
                <g id="icon-deactivated-npi-header" transform="translate(0.000000, 480.000000)">
                    <circle id="Oval" fill="#DBE1E4" cx="40" cy="40" r="40"></circle>
                    <g id="Deactivate-npi-large" transform="translate(16.000000, 16.146973)">
                        <path d="M33.5839989,0.172706249 C34.9437347,0.41246435 35.8516559,1.70911032 35.6118978,3.06884608 L33.365,15.8103076 L39.5,15.8111383 C40.8807119,15.8111383 42,16.9304264 42,18.3111383 C42,19.6918502 40.8807119,20.8111383 39.5,20.8111383 L32.483,20.8103076 L31.425,26.8103076 L39.5,26.8111383 C40.8807119,26.8111383 42,27.9304264 42,29.3111383 C42,30.6918502 40.8807119,31.8111383 39.5,31.8111383 L30.544,31.8103076 L28.1450262,45.4155795 C27.9052681,46.7753152 26.6086221,47.6832365 25.2488864,47.4434784 C23.8891506,47.2037203 22.9812293,45.9070743 23.2209874,44.5473386 L25.466,31.8103076 L19.727,31.8103076 L17.3121409,45.5054495 C17.0723828,46.8651853 15.7757369,47.7731065 14.4160011,47.5333484 C13.0562653,47.2935903 12.1483441,45.9969444 12.3881022,44.6372086 L14.649,31.8103076 L8.5,31.8111383 C7.11928813,31.8111383 6,30.6918502 6,29.3111383 C6,27.9304264 7.11928813,26.8111383 8.5,26.8111383 L15.531,26.8103076 L16.589,20.8103076 L8.5,20.8111383 C7.11928813,20.8111383 6,19.6918502 6,18.3111383 C6,16.9304264 7.11928813,15.8111383 8.5,15.8111383 L17.47,15.8103076 L19.8549738,2.29047523 C20.0947319,0.930739474 21.3913779,0.0228181934 22.7511136,0.262576294 C24.1108494,0.502334395 25.0187707,1.79898036 24.7790126,3.15871612 L22.548,15.8103076 L28.287,15.8103076 L30.6878591,2.20060519 C30.9276172,0.840869428 32.2242631,-0.0670518523 33.5839989,0.172706249 Z M27.406,20.8103076 L21.666,20.8103076 L20.608,26.8103076 L26.348,26.8103076 L27.406,20.8103076 Z" id="hash-tag" fill="url(#linearGradient-1)"></path>
                        <rect id="slash" fill="#343B40" transform="translate(24.099609, 24.000000) rotate(-45.000000) translate(-24.099609, -24.000000) " x="21.5996094" y="-7" width="5" height="62"></rect>
                        <path d="M6,38.8530273 L5.999,41.8530273 L9,41.8530273 L9,44.8530273 L5.999,44.8530273 L6,47.8530273 L3,47.8530273 L2.999,44.8530273 L0,44.8530273 L0,41.8530273 L2.999,41.8530273 L3,38.8530273 L6,38.8530273 Z" id="cross" fill="#848D94"></path>
                    </g>
                </g>
            </g>
        </g>
    </g>
</svg>