<?xml version="1.0" encoding="UTF-8"?>
<svg width="80px" height="80px" viewBox="0 0 80 80" version="1.1" xmlns="http://www.w3.org/2000/svg" xmlns:xlink="http://www.w3.org/1999/xlink">
    <title>icon-revocation-disposition-overview</title>
    <defs>
        <linearGradient x1="50%" y1="0%" x2="50%" y2="100%" id="linearGradient-1">
            <stop stop-color="#C88FA3" offset="0%"></stop>
            <stop stop-color="#B8768F" offset="100%"></stop>
        </linearGradient>
        <linearGradient x1="50%" y1="0%" x2="50%" y2="100%" id="linearGradient-2">
            <stop stop-color="#83475D" offset="0%"></stop>
            <stop stop-color="#6B3548" offset="100%"></stop>
        </linearGradient>
        <linearGradient x1="50%" y1="0.307648316%" x2="50%" y2="96.8359455%" id="linearGradient-3">
            <stop stop-color="#84485E" offset="0%"></stop>
            <stop stop-color="#6C3648" offset="100%"></stop>
        </linearGradient>
    </defs>
    <g id="Page-1-Icons" stroke="none" stroke-width="1" fill="none" fill-rule="evenodd">
        <g id="PECOS-2.0-Icons-Overview-v31" transform="translate(-2593.000000, -3029.000000)">
            <g id="24x24-status-icons" transform="translate(20.000000, 2211.000000)">
                <g id="REVOCATION-OVERVIEW" transform="translate(2557.000000, 460.000000)">
                    <g id="icon-revocation-disposition-overview" transform="translate(16.000000, 358.000000)">
                        <circle id="pink-80x80-oval" fill="#E6D1D9" cx="40" cy="40" r="40"></circle>
                        <g id="icon-revocation-light-new" transform="translate(16.000000, 27.000000)">
                            <g id="pink-enrollment-card" transform="translate(10.999831, 10.999921)" fill="url(#linearGradient-1)">
                                <path d="M23.6258253,7.91995985e-05 C24.9375016,7.91995985e-05 26.0008253,1.06340292 26.0008253,2.3750792 L26.0008253,23.6250792 C26.0008253,24.9367555 24.9375016,26.0000792 23.6258253,26.0000792 L18.0001691,26.0000792 L18.0012466,24.7366816 C18.5984537,24.3902749 19.0001691,23.7434338 19.0001691,23.0026466 C19.0001691,21.8966592 18.1047386,21.0000792 17.0001691,21.0000792 C15.8955996,21.0000792 15.0001691,21.8966592 15.0001691,23.0026466 C15.0001691,23.743742 15.4022187,24.3908131 15.9998369,24.7371137 L16.0001691,26.0000792 L10.0001691,26.0000792 L10.0012466,24.7366816 C10.5984537,24.3902749 11.0001691,23.7434338 11.0001691,23.0026466 C11.0001691,21.8966592 10.1047386,21.0000792 9.00016906,21.0000792 C7.89559956,21.0000792 7.00016906,21.8966592 7.00016906,23.0026466 C7.00016906,23.743742 7.40221871,24.3908131 7.99983691,24.7371137 L8.00016906,26.0000792 L2.37582531,26.0000792 C1.06414903,26.0000792 0.000825309445,24.9367555 0.000825309445,23.6250792 L-0.000800158031,16.6998281 C0.968830103,16.8967196 1.97242911,17.0000792 3.00016906,17.0000792 C11.2844403,17.0000792 18.0001691,10.2843504 18.0001691,2.0000792 C18.0001691,1.32193427 17.9551673,0.654300065 17.8679872,2.17714735e-13 L23.6258253,7.91995985e-05 Z" id="enrollment-card"></path>
                            </g>
                            <path d="M13,0 C20.1797017,0 26,5.82029825 26,13 C26,20.1797017 20.1797017,26 13,26 C5.82029825,26 0,20.1797017 0,13 C0,5.82029825 5.82029825,0 13,0 Z M3,13 C3,18.5228475 7.4771525,23 13,23 C15.1685018,23 17.1757911,22.3097676 18.8141526,21.1370182 L4.86298177,7.18584739 C3.69023241,8.82420887 3,10.8314982 3,13 Z M13,3 C10.8186327,3 8.80039646,3.69844686 7.1567257,4.88390609 L21.1160939,18.8432743 C22.3015531,17.1996035 23,15.1813673 23,13 C23,7.4771525 18.5228475,3 13,3 Z" id="Combined-Shape" fill="#B36C86"></path>
                        </g>
                        <g id="x" transform="translate(29.000000, 16.000000)">
                            <path d="M2,0 L22,0 L22,0 L22,22 L3,22 C1.34314575,22 2.02906125e-16,20.6568542 0,19 L0,2 C-1.3527075e-16,0.8954305 0.8954305,2.02906125e-16 2,0 Z" id="Rectangle" fill="#E6D1D9"></path>
                            <rect id="Rectangle-Copy-211" fill="url(#linearGradient-2)" x="2" y="0" width="20" height="20" rx="1"></rect>
                            <path d="M8.46446609,5.05025253 L11.9993593,8.58535931 L15.5355339,5.05025253 C15.8960179,4.68976857 16.4632489,4.66203903 16.8555401,4.96706393 L16.9497475,5.05025253 C17.3402718,5.44077682 17.3402718,6.0739418 16.9497475,6.46446609 L16.9497475,6.46446609 L13.4143593,9.99935931 L16.9497475,13.5355339 C17.3402718,13.9260582 17.3402718,14.5592232 16.9497475,14.9497475 C16.5592232,15.3402718 15.9260582,15.3402718 15.5355339,14.9497475 L11.9993593,11.4143593 L8.46446609,14.9497475 C8.10398213,15.3102314 7.53675108,15.337961 7.14445987,15.0329361 L7.05025253,14.9497475 C6.65972824,14.5592232 6.65972824,13.9260582 7.05025253,13.5355339 L7.05025253,13.5355339 L10.5853593,9.99935931 L7.05025253,6.46446609 C6.65972824,6.0739418 6.65972824,5.44077682 7.05025253,5.05025253 C7.44077682,4.65972824 8.0739418,4.65972824 8.46446609,5.05025253 Z" id="Combined-Shape" fill="#EBD5DD"></path>
                        </g>
                        <g id="check" transform="translate(42.000000, 31.000000)">
                            <path d="M3,0 L22,0 L22,0 L22,24 L3,24 C1.34314575,24 2.02906125e-16,22.6568542 0,21 L0,3 C-2.02906125e-16,1.34314575 1.34314575,3.04359188e-16 3,0 Z" id="Rectangle" fill="#E6D1D9"></path>
                            <rect id="box" fill="url(#linearGradient-3)" x="2" y="2" width="20" height="20" rx="2"></rect>
                            <path d="M9.60649888,14.2386701 L13.5193131,14.2689981 L13.5193131,14.2689981 L13.1863796,6.17437736 C13.163978,5.62972712 13.5873442,5.17004079 14.1319944,5.1476392 C14.1500328,5.14689727 14.1680882,5.14665041 14.1861402,5.14689888 C14.7702505,5.1549387 15.2455058,5.61948788 15.26685,6.20326341 L15.5824387,14.8347734 C15.6076459,15.5242041 15.0691865,16.1035326 14.3797558,16.1287398 C14.3647652,16.1292879 14.349766,16.1295659 14.3347654,16.1295737 L9.58046755,16.1320525 C9.06282105,16.1323224 8.64296686,15.7129058 8.64269698,15.1952593 C8.64269466,15.1908143 8.64272396,15.1863693 8.64278488,15.1819248 C8.6499936,14.6559967 9.08053725,14.2345934 9.60649888,14.2386701 Z" id="Rectangle" fill="#F8ECF0" opacity="0.900000036" transform="translate(12.129755, 10.632548) rotate(39.000000) translate(-12.129755, -10.632548) "></path>
                        </g>
                    </g>
                </g>
            </g>
        </g>
    </g>
</svg>