<?xml version="1.0" encoding="UTF-8"?>
<svg width="80px" height="80px" viewBox="0 0 80 80" version="1.1" xmlns="http://www.w3.org/2000/svg" xmlns:xlink="http://www.w3.org/1999/xlink">
    <title>icon-recent-activity</title>
    <defs>
        <linearGradient x1="50%" y1="0%" x2="50%" y2="100%" id="linearGradient-1">
            <stop stop-color="#CEE7FA" offset="0%"></stop>
            <stop stop-color="#94BEDC" offset="100%"></stop>
        </linearGradient>
        <linearGradient x1="50%" y1="0%" x2="50%" y2="100%" id="linearGradient-2">
            <stop stop-color="#4C8FC0" offset="0%"></stop>
            <stop stop-color="#185079" offset="100%"></stop>
        </linearGradient>
    </defs>
    <g id="Page-1-Icons" stroke="none" stroke-width="1" fill="none" fill-rule="evenodd">
        <g id="PECOS-2.0-Icons-Overview-v19" transform="translate(-354.000000, -1285.000000)">
            <g id="Business-Type-Header-Icons" transform="translate(26.000000, 565.000000)">
                <g id="Column-2" transform="translate(328.000000, 49.000000)">
                    <g id="icon-recent-activity" transform="translate(0.000000, 671.000000)">
                        <circle id="Oval" fill="#D6E5F1" cx="40" cy="40" r="40"></circle>
                        <g id="clock" transform="translate(16.000000, 15.146973)">
                            <circle id="Oval" fill="url(#linearGradient-1)" cx="25" cy="23.8530273" r="20"></circle>
                            <path d="M24,3.85302734 C35.5979797,3.85302734 45,13.2550476 45,24.8530273 C45,36.4510071 35.5979797,45.8530273 24,45.8530273 C15.1505117,45.8530273 7.57950935,40.3791784 4.48813799,32.6326256 L8.11360131,30.9175486 C10.5559502,37.3116561 16.747628,41.8530273 24,41.8530273 C33.3888407,41.8530273 41,34.2418681 41,24.8530273 C41,15.4641866 33.3888407,7.85302734 24,7.85302734 C17.1014777,7.85302734 11.1626701,11.9620545 8.49755854,17.8661274 L11.9961961,17.8665771 C12.5484809,17.8665771 12.9961961,18.3142924 12.9961961,18.8665771 C12.9961961,19.0871757 12.9232524,19.3015834 12.7887233,19.4764137 L7.15524885,26.7975261 C6.81844543,27.2352268 6.19058579,27.3170202 5.75288509,26.9802168 C5.6780776,26.9226537 5.61179684,26.854789 5.55601609,26.7786432 L0.192921801,19.4575308 C-0.133452869,19.0119996 -0.0368574437,18.3862463 0.408673722,18.0598716 C0.580114428,17.9342824 0.787107778,17.8665771 0.999627338,17.8665771 L4.19016233,17.8665593 C7.06919299,9.70314487 14.8514124,3.85302734 24,3.85302734 Z M23.9832764,10.9057617 L24.0266113,10.9057617 C25.1311808,10.9057617 26.0266113,11.8011922 26.0266113,12.9057617 L26.0266113,23.9165039 L26.0266113,23.9165039 L32.4375793,29.8146599 C33.1343965,30.4557388 33.2157149,31.5269482 32.6236572,32.2658691 C32.0569778,32.9731166 31.024256,33.0870696 30.3170085,32.5203902 C30.3065014,32.5119714 30.2960984,32.5034237 30.2858017,32.4947489 L21.9832764,25.5 L21.9832764,25.5 L21.9832764,12.9057617 C21.9832764,11.8011922 22.8787069,10.9057617 23.9832764,10.9057617 Z" id="Combined-Shape" fill="url(#linearGradient-2)"></path>
                            <path d="M45,39.8530273 L44.999,42.8530273 L48,42.8530273 L48,45.8530273 L44.999,45.8530273 L45,48.8530273 L42,48.8530273 L41.999,45.8530273 L39,45.8530273 L39,42.8530273 L41.999,42.8530273 L42,39.8530273 L45,39.8530273 Z" id="cross" fill="#8EB6D4"></path>
                        </g>
                    </g>
                </g>
            </g>
        </g>
    </g>
</svg>