<?xml version="1.0" encoding="UTF-8"?>
<svg width="20px" height="20px" viewBox="0 0 20 20" version="1.1" xmlns="http://www.w3.org/2000/svg" xmlns:xlink="http://www.w3.org/1999/xlink">
    <title>icon-disconnect</title>
    <g id="Page-1-Icons" stroke="none" stroke-width="1" fill="none" fill-rule="evenodd">
        <g id="PECOS-2.0-Icons-Overview-v21" transform="translate(-1979.000000, -149.000000)" fill="#E00F16">
            <g id="Action-Icons" transform="translate(1723.000000, 69.000000)">
                <g id="icon-disconnect" transform="translate(256.000000, 80.000000)">
                    <path d="M10.6002631,11.2080617 L10.6937324,11.2905985 L13.5,14.097 L16.3062676,11.2905985 C16.6937324,10.9031338 17.3219368,10.9031338 17.7094015,11.2905985 C18.0968662,11.6780632 18.0968662,12.3062676 17.7094015,12.6937324 L14.903,15.5 L17.7094015,18.3062676 C18.0670612,18.6639274 18.0945735,19.2267144 17.7919383,19.6159322 L17.7094015,19.7094015 C17.3517417,20.0670612 16.7889547,20.0945735 16.3997369,19.7919383 L16.3062676,19.7094015 L13.5,16.903 L10.6937324,19.7094015 C10.3062676,20.0968662 9.67806324,20.0968662 9.29059853,19.7094015 C8.90313382,19.3219368 8.90313382,18.6937324 9.29059853,18.3062676 L12.097,15.5 L9.29059853,12.6937324 C8.9329388,12.3360726 8.90542651,11.7732856 9.20806167,11.3840678 L9.29059853,11.2905985 C9.64825826,10.9329388 10.2110453,10.9054265 10.6002631,11.2080617 Z M10.2795241,6.4853939 L8.94897426,7.72061976 C8.31401298,7.56802824 7.62326962,7.69914693 7.07945013,8.11926959 L6.93493076,8.24101786 L3.70743011,11.2010276 C3.69345795,11.2138417 3.67965734,11.2268417 3.66603197,11.240024 C2.81981814,12.0587205 2.79751092,13.408397 3.6162074,14.2546108 C4.42043354,15.0858679 5.71837172,15.1555524 6.6047994,14.4420329 L6.73456407,14.3291282 L8.11743166,13.0291368 L9.37243166,14.3321368 L8.07588212,15.5911782 C6.48959009,17.1298842 3.96418862,17.1179967 2.39245252,15.5644252 C0.882187179,14.0716141 0.868037735,11.6371396 2.36084885,10.1268743 C2.39130715,10.0960599 2.42228413,10.0657625 2.4537665,10.0359951 L5.5532785,7.10532685 C6.85790331,5.87177057 8.77311457,5.66778133 10.2795241,6.4853939 Z M11.9175684,8.15469868 C12.3828942,9.07621781 12.4491021,10.1493875 12.1129872,11.1150369 L10.6187134,9.82824707 L10.6068557,9.84330381 C10.6102514,9.71820116 10.6024834,9.59283309 10.5835372,9.46882203 L11.9175684,8.15469868 Z M13.1791597,1.14928612 C14.6790783,2.61256215 14.708783,5.01470603 13.245507,6.51462465 C13.2211386,6.53960323 13.1964268,6.56424442 13.1713786,6.58854121 L10.0758821,9.5911782 C8.73965749,10.8873184 6.73707294,11.0832105 5.19945491,10.1841798 L6.62712591,8.85326652 C7.29280187,9.03460917 8.0278996,8.90172998 8.59612183,8.44898232 L8.73456407,8.32912822 L11.9483137,5.31025717 C11.9596123,5.29964374 11.9707925,5.28890499 11.9818522,5.27804291 C12.8056991,4.46891792 12.8176335,3.14513265 12.0085086,2.32128576 C11.2148017,1.51313751 9.9483001,1.44069123 9.07022133,2.126438 L8.93493076,2.24101786 L5.70743011,5.20102756 C5.69345795,5.21384173 5.67965734,5.22684169 5.66603197,5.240024 C5.12539535,5.76308008 4.92106013,6.50287106 5.05748489,7.1896339 L3.60783731,8.45118378 C2.95019936,7.03607884 3.19950118,5.30180067 4.36084885,4.1268743 C4.39130715,4.09605987 4.42228413,4.06576247 4.4537665,4.03599509 L7.5532785,1.10532685 C9.13664473,-0.391786613 11.6193815,-0.372387111 13.1791597,1.14928612 Z" id="Combined-Shape"></path>
                </g>
            </g>
        </g>
    </g>
</svg>