<?xml version="1.0" encoding="UTF-8"?>
<svg width="20px" height="20px" viewBox="0 0 20 20" version="1.1" xmlns="http://www.w3.org/2000/svg" xmlns:xlink="http://www.w3.org/1999/xlink">
    <title>icon-hide-subevents</title>
    <g id="Page-1-Icons" stroke="none" stroke-width="1" fill="none" fill-rule="evenodd">
        <g id="PECOS-2.0-Icons-Overview-v28" transform="translate(-2074.000000, -299.000000)" fill="#0573BB">
            <g id="ACTION" transform="translate(1818.000000, 32.000000)">
                <g id="icon-hide-subevents" transform="translate(256.000000, 267.000000)">
                    <g id="icon-hide-subevents" transform="translate(0.000000, 3.000000)">
                        <path d="M10,8 L10,14 L0,14 L0,8 L10,8 Z M8,10 L2,10 L2,12 L8,12 L8,10 Z" id="Combined-Shape"></path>
                        <path d="M10,0 L10,6 L0,6 L0,0 L10,0 Z M8,2 L2,2 L2,4 L8,4 L8,2 Z" id="Combined-Shape-Copy-3"></path>
                        <path d="M16.0000002,5.5948233 C16.5522844,5.59382671 17.0002871,6.04125437 17.0006417,6.593539 L16.9999718,10.5878216 L18.1247192,9.46382561 C18.4852032,9.10334164 19.0524343,9.07561211 19.4447255,9.380637 L19.5389328,9.46382561 C19.9294571,9.8543499 19.9294571,10.4875149 19.5389328,10.8780392 L19.5389328,10.8780392 L16.7105057,13.7064663 C16.3199814,14.0969906 15.6868164,14.0969906 15.2962921,13.7064663 L15.2962921,13.7064663 L12.467865,10.8780392 C12.0773407,10.4875149 12.0773407,9.8543499 12.467865,9.46382561 C12.8583893,9.07330131 13.4915543,9.07330131 13.8820786,9.46382561 L13.8820786,9.46382561 L14.9999718,10.5818216 L15,6.59546546 C15.0005965,6.08286246 15.3863419,5.66029739 15.8834342,5.60174815 L16.0000002,5.5948233 Z" id="down-arrow"></path>
                    </g>
                </g>
            </g>
        </g>
    </g>
</svg>