<?xml version="1.0" encoding="UTF-8"?>
<svg width="18px" height="18px" viewBox="0 0 18 18" version="1.1" xmlns="http://www.w3.org/2000/svg" xmlns:xlink="http://www.w3.org/1999/xlink">
    <title>icon-edit-disabled</title>
    <g id="Page-1-Icons" stroke="none" stroke-width="1" fill="none" fill-rule="evenodd">
        <g id="PECOS-2.0-Icons-Overview-v30" transform="translate(-2042.000000, -458.000000)" fill="#949494">
            <g id="ACTION" transform="translate(2018.000000, 69.000000)">
                <g id="pencil" transform="translate(22.000000, 388.000000)">
                    <path d="M10.3349393,-0.819595788 C12.23746,-0.799315512 13.7697232,0.747543265 13.7719664,2.65017078 L13.7890972,17.1800921 L10.2890503,21.4798745 L6.87098809,17.1670098 L6.89606014,2.57697912 C6.89928944,0.697769311 8.42530786,-0.823013369 10.3045177,-0.819784065 L10.3349393,-0.819595788 L10.3349393,-0.819595788 Z M8.54698809,16.5912108 L8.54782575,16.6781765 L9.54915369,18.0003589 L10.1770921,18.0611218 L11.1054004,17.9384004 L12.0684188,16.6586931 L12.0679881,16.6102108 L8.54698809,16.5912108 Z M10.9931797,4.77128201 L10.986417,14.8712716 C10.986364,14.9482362 10.9738644,15.0222864 10.9508226,15.091519 L12.0819881,15.0982108 L12.1759881,4.7782108 L10.9931797,4.77128201 Z M8.56898809,4.7582108 L8.54998809,15.0722108 L9.62257733,15.0817092 C9.61085382,15.0445215 9.60216185,15.0059886 9.59679125,14.9664004 L9.59042391,14.8712716 L9.59042391,14.8712716 L9.59717972,4.76328201 L8.56898809,4.7582108 Z M10.3938084,1.00904905 C9.38992329,1.00904905 8.5755882,1.82186378 8.57371221,2.82574712 L8.57371221,2.82574712 L8.57198809,3.2402108 L12.1899881,3.2652108 L12.1940156,2.82567541 L12.1940156,2.82567541 L12.1940898,2.80933044 C12.1940898,1.81506248 11.3880763,1.00904905 10.3938084,1.00904905 Z" id="icon-edit" transform="translate(10.330043, 10.330043) rotate(45.000000) translate(-10.330043, -10.330043) "></path>
                </g>
            </g>
        </g>
    </g>
</svg>