<?xml version="1.0" encoding="UTF-8"?>
<svg width="22px" height="24px" viewBox="0 0 22 24" version="1.1" xmlns="http://www.w3.org/2000/svg" xmlns:xlink="http://www.w3.org/1999/xlink">
    <title>icon-delete</title>
    <g id="Page-1" stroke="none" stroke-width="1" fill="none" fill-rule="evenodd">
        <g id="Artboard" transform="translate(-42.000000, -99.000000)" fill="#FFFFFF" fill-rule="nonzero">
            <g id="icon-delete" transform="translate(42.000000, 99.000000)">
                <path d="M13.7041035,2.77711456 C13.6045711,2.36576567 13.2587561,2.06589449 12.8461897,2.01877254 L12.7321515,2.01229376 L9.3063664,2.01229376 C8.89652869,2.01229376 8.53275847,2.26159229 8.38077135,2.63366224 L8.34169442,2.74883985 L8,4 L6,4 L6.821919,1.41374149 C7.08500775,0.585903804 7.85237237,0.0225334591 8.72100449,0.019504111 L12.9812932,0.0046341379 C13.7881731,0.00183239723 14.5177126,0.484153143 14.8311767,1.22766064 L16,4 L21,4 C21.5522847,4 22,4.44771525 22,5 C22,5.55228475 21.5522847,6 21,6 L20,6 L20,22 C20,23.1045695 19.1045695,24 18,24 L4,24 C2.8954305,24 2,23.1045695 2,22 L2,6 L1,6 C0.44771525,6 0,5.55228475 0,5 C0,4.44771525 0.44771525,4 1,4 L14,4 L13.7041035,2.77711456 Z M18,6 L4,6 L4,21 C4,21.5128358 4.38604019,21.9355072 4.88337887,21.9932723 L5,22 L17,22 C17.5128358,22 17.9355072,21.6139598 17.9932723,21.1166211 L18,21 L18,6 Z M7,8 C7.55228475,8 8,8.44771525 8,9 L8,19 C8,19.5522847 7.55228475,20 7,20 C6.44771525,20 6,19.5522847 6,19 L6,9 C6,8.44771525 6.44771525,8 7,8 Z M11,8 C11.5522847,8 12,8.44771525 12,9 L12,19 C12,19.5522847 11.5522847,20 11,20 C10.4477153,20 10,19.5522847 10,19 L10,9 C10,8.44771525 10.4477153,8 11,8 Z M15,8 C15.5522847,8 16,8.44771525 16,9 L16,19 C16,19.5522847 15.5522847,20 15,20 C14.4477153,20 14,19.5522847 14,19 L14,9 C14,8.44771525 14.4477153,8 15,8 Z" id="Shape"></path>
            </g>
        </g>
    </g>
</svg>