<?xml version="1.0" encoding="UTF-8"?>
<svg width="20px" height="20px" viewBox="0 0 20 20" version="1.1" xmlns="http://www.w3.org/2000/svg" xmlns:xlink="http://www.w3.org/1999/xlink">
    <title>icon-view-group-members</title>
    <g id="Page-1-Icons" stroke="none" stroke-width="1" fill="none" fill-rule="evenodd">
        <g id="PECOS-2.0-Icons-Overview-v28" transform="translate(-1838.000000, -167.000000)" fill="#0573BB">
            <g id="ACTION" transform="translate(1818.000000, 32.000000)">
                <g id="icon-view-group-members" transform="translate(20.000000, 135.000000)">
                    <path d="M10,6.25 C12.0250441,6.25 13.6666667,8.09682541 13.6666667,10.375 C13.6666667,11.0261356 13.5325625,11.6420342 13.293731,12.1896472 C15.6895627,12.8670242 17.3333333,14.2630337 17.3333333,15.875 C17.3333333,18.1531746 14.0500882,20 10,20 C5.94991183,20 2.66666667,18.1531746 2.66666667,15.875 C2.66666667,14.263004 4.31049787,12.8669728 6.70668171,12.188363 C6.46743746,11.6420342 6.33333333,11.0261356 6.33333333,10.375 C6.33333333,8.09682541 7.97495592,6.25 10,6.25 Z M12.0991149,13.7561537 L12.0500682,13.7955148 C11.4648644,14.2402902 10.7593915,14.5 10,14.5 C9.2190748,14.5 8.49516948,14.2253524 7.90044047,13.7572333 C5.90470481,14.0998486 4.5,14.919073 4.5,15.875 C4.5,17.1406526 6.96243388,18.1666667 10,18.1666667 C13.0375661,18.1666667 15.5,17.1406526 15.5,15.875 C15.5,14.9190852 14.0953312,14.0998696 12.0991149,13.7561537 Z M10,8.08333333 C8.98747796,8.08333333 8.16666667,9.10934745 8.16666667,10.375 C8.16666667,11.6406526 8.98747796,12.6666667 10,12.6666667 C11.012522,12.6666667 11.8333333,11.6406526 11.8333333,10.375 C11.8333333,9.10934745 11.012522,8.08333333 10,8.08333333 Z M14.0416667,3.64153152e-14 C15.8135802,3.64153152e-14 17.25,1.64162258 17.25,3.66666667 C17.25,4.16372294 17.1634587,4.63767886 17.0066567,5.06992799 C18.7951403,5.70129287 20,6.88905872 20,8.25 C20,10.2750441 17.3323633,11.9166667 14.0416667,11.9166667 L13.8868175,11.9151314 C14.0442383,11.4298189 14.1300354,10.9064926 14.1300354,10.3609009 C14.1300354,10.2674132 14.1275163,10.1745794 14.1225494,10.0824784 L14.0416667,10.0833333 C16.3198413,10.0833333 18.1666667,9.26252204 18.1666667,8.25 C18.1666667,7.54178399 17.2631247,6.92736066 15.9404208,6.62201009 C15.4055185,7.07067372 14.7504321,7.33333333 14.0416667,7.33333333 C13.6373819,7.33333333 13.2505624,7.24787331 12.8942846,7.09189788 C12.1507533,6.27840803 11.1305342,5.77756755 10.0050354,5.77756755 C8.8832851,5.77756755 7.86611449,6.27507743 7.12250157,7.08234387 C6.7623002,7.24500688 6.36934228,7.33333333 5.95833333,7.33333333 C5.24820489,7.33333333 4.59196212,7.06966252 4.06047155,6.62331122 C2.73687535,6.92736066 1.83333333,7.54178399 1.83333333,8.25 C1.83333333,9.25207752 3.64225393,10.066379 5.88797204,10.083072 C5.8825545,10.1745794 5.8800354,10.2674132 5.8800354,10.3609009 C5.8800354,10.9064926 5.96583247,11.4298189 6.12325326,11.9151314 L5.95833333,11.9166667 L5.95833333,11.9166667 C2.6676367,11.9166667 0,10.2750441 0,8.25 C0,6.88905872 1.20485975,5.70129287 2.99397014,5.06861574 C2.83654132,4.63767886 2.75,4.16372294 2.75,3.66666667 C2.75,1.64162258 4.18641976,0 5.95833333,0 C7.73024691,0 9.16666667,1.64162258 9.16666667,3.66666667 C9.16666667,4.16372294 9.08012534,4.63767886 8.92332333,5.06992799 C9.31194992,5.20711973 9.67301975,5.37058286 10.000159,5.55638552 C10.3266196,5.37011646 10.6881399,5.20623435 11.0773035,5.06861574 C10.9198747,4.63767886 10.8333333,4.16372294 10.8333333,3.66666667 C10.8333333,1.64162258 12.2697531,3.64153152e-14 14.0416667,3.64153152e-14 Z M5.95833333,1.83333333 C5.1989418,1.83333333 4.58333333,2.65414463 4.58333333,3.66666667 C4.58333333,4.67918871 5.1989418,5.5 5.95833333,5.5 C6.71772486,5.5 7.33333333,4.67918871 7.33333333,3.66666667 C7.33333333,2.65414463 6.71772486,1.83333333 5.95833333,1.83333333 Z M14.0416667,1.83333333 C13.2822751,1.83333333 12.6666667,2.65414463 12.6666667,3.66666667 C12.6666667,4.67918871 13.2822751,5.5 14.0416667,5.5 C14.8010582,5.5 15.4166667,4.67918871 15.4166667,3.66666667 C15.4166667,2.65414463 14.8010582,1.83333333 14.0416667,1.83333333 Z" id="icon-group"></path>
                </g>
            </g>
        </g>
    </g>
</svg>