<?xml version="1.0" encoding="UTF-8"?>
<svg width="20px" height="21px" viewBox="0 0 20 21" version="1.1" xmlns="http://www.w3.org/2000/svg" xmlns:xlink="http://www.w3.org/1999/xlink">
    <title>icon-forward</title>
    <g id="Page-1-Icons" stroke="none" stroke-width="1" fill="none" fill-rule="evenodd">
        <g id="PECOS-2.0-Icons-Overview-v19" transform="translate(-1490.000000, -464.000000)" fill="#0573BB">
            <g id="Table-Icons" transform="translate(1011.000000, 69.000000)">
                <g id="Column-3" transform="translate(475.000000, 45.000000)">
                    <g id="icon-forward" transform="translate(4.000000, 351.000000)">
                        <path d="M11.022306,-0.00945975453 C11.3004663,-0.00945975453 11.5660575,0.106398053 11.7552784,0.310281834 L19.731601,8.90469827 C20.0912372,9.29220309 20.0871131,9.89268986 19.7221884,10.2752184 L11.7458658,18.6363159 C11.3646447,19.0359269 10.7316553,19.050835 10.3320443,18.6696139 C10.1342333,18.4809061 10.022306,18.21944 10.022306,17.9460542 L10.0219077,13.6212067 C8.52508871,13.7639543 7.08097418,14.2279554 5.68956416,15.01321 C4.14531677,15.8847197 2.97427992,17.3355693 2.17645361,19.3657588 C2.02608141,19.7483861 1.65685633,20 1.24574142,20 L0.979257905,20 C0.439031497,20 0.000858087377,19.5625018 4.82329751e-05,19.022276 C-0.00803406744,13.7814032 0.999634474,10.3032022 3.02305386,8.58767289 C4.94015103,6.96228748 7.27305901,5.9905534 10.0217778,5.67247065 L10.022306,0.990540245 C10.022306,0.438255496 10.4700213,-0.00945975453 11.022306,-0.00945975453 Z M12.0240383,3.5 L12.0240459,7.03704402 C8.66532838,7.25945408 6.16818386,8.11190166 4.53261228,9.59438676 C2.89540087,11.0783582 2.06106129,13.2225958 2.02959354,16.0270996 C2.75897009,14.8938978 3.85749875,13.908962 5.32517953,13.072292 C6.7928603,12.2356221 9.02918408,11.8742445 12.0341509,11.9881592 L12.024,11.988 L12.0240383,15.5 L17.5518881,9.47464746 L12.0240383,3.5 Z" id="Combined-Shape"></path>
                    </g>
                </g>
            </g>
        </g>
    </g>
</svg>