<?xml version="1.0" encoding="UTF-8"?>
<svg width="24px" height="24px" viewBox="0 0 24 24" version="1.1" xmlns="http://www.w3.org/2000/svg" xmlns:xlink="http://www.w3.org/1999/xlink">
    <title>icon-view-group-members</title>
    <g id="Page-1" stroke="none" stroke-width="1" fill="none" fill-rule="evenodd">
        <g id="PECOS-2.0-Icons-&amp;-Illus-v14" transform="translate(-520.000000, -228.000000)" fill="#0573BB">
            <g id="Action-Icons" transform="translate(500.000000, 57.000000)">
                <g id="icon-view-group-members" transform="translate(20.000000, 171.000000)">
                    <path d="M12,9 C14.209139,9 16,11.0147186 16,13.5 C16,14.2100239 15.8538305,14.8816407 15.5934975,15.4788436 C18.2068472,16.2186156 20,17.7415166 20,19.5 C20,21.9852814 16.418278,24 12,24 C7.581722,24 4,21.9852814 4,19.5 C4,17.7415166 5.79315279,16.2186156 8.40703196,15.478287 C8.14616949,14.8816407 8,14.2100239 8,13.5 C8,11.0147186 9.790861,9 12,9 Z M14.290886,17.1886936 L14.2738393,17.2026967 C13.6281919,17.7054607 12.8446708,18 12,18 C11.1478151,18 10.3578727,17.700197 9.70896266,17.1892298 C7.53192385,17.563752 6,18.4573343 6,19.5 C6,20.8807119 8.6862915,22 12,22 C15.3137085,22 18,20.8807119 18,19.5 C18,18.4573343 16.4680762,17.563752 14.290886,17.1886936 Z M12,11 C10.8954305,11 10,12.1192881 10,13.5 C10,14.8807119 10.8954305,16 12,16 C13.1045695,16 14,14.8807119 14,13.5 C14,12.1192881 13.1045695,11 12,11 Z M17.5,0 C19.4329966,0 21,1.790861 21,4 C21,4.54228132 20.905578,5.05935871 20.7344985,5.53092995 C22.685834,6.21981548 24,7.51546469 24,9 C24,11.209139 21.0898509,13 17.5,13 C17.1528853,13 16.8121256,12.9832562 16.4797372,12.9510094 C16.4074243,12.1890832 16.1806365,11.4782085 15.8350664,10.8576028 C16.3496222,10.9498131 16.9116241,11 17.5,11 C19.9852814,11 22,10.1045695 22,9 C22,8.2271641 21.013714,7.55671017 19.5700423,7.22370505 L19.5105812,7.27456658 C18.9416717,7.73165038 18.2482568,8 17.5,8 C16.7250198,8 16.0088687,7.71214027 15.4289438,7.22487474 C14.2231996,7.5022161 13.3362437,8.01609192 13.0774484,8.62858366 C12.7350395,8.53423211 12.3754808,8.48461914 12.0054932,8.48461914 C11.6319099,8.48461914 11.2689593,8.53520109 10.9218861,8.63053745 C10.6666494,8.01775378 9.77862063,7.50248228 8.57004225,7.22370505 L8.51058119,7.27456658 C7.94167166,7.73165038 7.24825676,8 6.5,8 C5.72501979,8 5.00886866,7.71214027 4.42894382,7.22487474 C2.98628604,7.55671017 2,8.2271641 2,9 C2,10.1045695 4.01471863,11 6.5,11 C7.0929997,11 7.65920923,10.9490212 8.17765235,10.8563863 C7.83123021,11.4756542 7.60387823,12.1872359 7.53091005,12.950048 C7.19536974,12.9828858 6.85093263,13 6.5,13 C2.91014913,13 0,11.209139 0,9 C0,7.51546469 1.31416598,6.21981548 3.26564481,5.52957738 C3.09442199,5.05935871 3,4.54228132 3,4 C3,1.790861 4.56700338,0 6.5,0 C8.43299662,0 10,1.790861 10,4 C10,4.54228132 9.90557801,5.05935871 9.73449848,5.53092995 C10.6552103,5.85597145 11.4340691,6.31609669 11.9999598,6.86740973 C12.5650726,6.31625053 13.3443344,5.8554449 14.2656448,5.52957738 C14.094422,5.05935871 14,4.54228132 14,4 C14,1.790861 15.5670034,0 17.5,0 Z M6.5,2 C5.67157288,2 5,2.8954305 5,4 C5,5.1045695 5.67157288,6 6.5,6 C7.32842712,6 8,5.1045695 8,4 C8,2.8954305 7.32842712,2 6.5,2 Z M17.5,2 C16.6715729,2 16,2.8954305 16,4 C16,5.1045695 16.6715729,6 17.5,6 C18.3284271,6 19,5.1045695 19,4 C19,2.8954305 18.3284271,2 17.5,2 Z" id="icon-group-members"></path>
                </g>
            </g>
        </g>
    </g>
</svg>