<?xml version="1.0" encoding="UTF-8"?>
<svg width="20px" height="20px" viewBox="0 0 20 20" version="1.1" xmlns="http://www.w3.org/2000/svg" xmlns:xlink="http://www.w3.org/1999/xlink">
    <title>icon-pause</title>
    <g id="Page-1-Icons" stroke="none" stroke-width="1" fill="none" fill-rule="evenodd">
        <g id="PECOS-2.0-Icons-Overview-v27" transform="translate(-2084.000000, -362.000000)" fill="#0573BB">
            <g id="ACTION" transform="translate(1833.000000, 69.000000)">
                <path d="M261,293 C266.522847,293 271,297.477153 271,303 C271,308.522847 266.522847,313 261,313 C255.477153,313 251,308.522847 251,303 C251,297.477153 255.477153,293 261,293 Z M261,295 C256.581722,295 253,298.581722 253,303 C253,307.418278 256.581722,311 261,311 C265.418278,311 269,307.418278 269,303 C269,298.581722 265.418278,295 261,295 Z M259,298 C259.552285,298 260,298.447715 260,299 L260,307 C260,307.552285 259.552285,308 259,308 C258.447715,308 258,307.552285 258,307 L258,299 C258,298.447715 258.447715,298 259,298 Z M263,298 C263.552285,298 264,298.447715 264,299 L264,307 C264,307.552285 263.552285,308 263,308 C262.447715,308 262,307.552285 262,307 L262,299 C262,298.447715 262.447715,298 263,298 Z" id="icon-pause"></path>
            </g>
        </g>
    </g>
</svg>