<?xml version="1.0" encoding="UTF-8"?>	
<svg width="24px" height="24px" viewBox="0 0 24 24" version="1.1" xmlns="http://www.w3.org/2000/svg" xmlns:xlink="http://www.w3.org/1999/xlink">	
    <title>icon-document</title>	
    <g id="Page-1" stroke="none" stroke-width="1" fill="none" fill-rule="evenodd">	
        <g id="PECOS-2.0-Icons-&amp;-Illus-v14" transform="translate(-520.000000, -270.000000)" fill="#ffffff">	
            <g id="Action-Icons" transform="translate(500.000000, 57.000000)">	
                <g id="icon-document" transform="translate(20.000000, 213.000000)">	
                    <path d="M15.5892476,0 C15.8553047,1.50543833e-15 16.1103936,0.106023908 16.2980675,0.294610506 L20.7088199,4.72681304 C20.895308,4.91420804 21,5.16782649 21,5.43220253 L21,22 C21,23.1045695 20.1045695,24 19,24 L4,24 C2.8954305,24 2,23.1045695 2,22 L2,2 C2,0.8954305 2.8954305,2.02906125e-16 4,0 L15.5892476,0 Z M15.0672607,2 L5,2 C4.48716416,2 4.06449284,2.38604019 4.00672773,2.88337887 L4,3 L4,21 C4,21.5128358 4.38604019,21.9355072 4.88337887,21.9932723 L5,22 L18,22 C18.5128358,22 18.9355072,21.6139598 18.9932723,21.1166211 L19,21 L19,6.00402832 L18.999,6.003 L19,7.01092529 L15.1011963,7.01092529 C14.5489115,7.01092529 14.1011963,6.56321004 14.1011963,6.01092529 L14.1011963,2.01092529 L15.071,2.004 L15.0672607,2 Z M16,17 C16.5522847,17 17,17.4477153 17,18 C17,18.5522847 16.5522847,19 16,19 L7,19 C6.44771525,19 6,18.5522847 6,18 C6,17.4477153 6.44771525,17 7,17 L16,17 Z M16,13 C16.5522847,13 17,13.4477153 17,14 C17,14.5522847 16.5522847,15 16,15 L7,15 C6.44771525,15 6,14.5522847 6,14 C6,13.4477153 6.44771525,13 7,13 L16,13 Z M16,9 C16.5522847,9 17,9.44771525 17,10 C17,10.5522847 16.5522847,11 16,11 L7,11 C6.44771525,11 6,10.5522847 6,10 C6,9.44771525 6.44771525,9 7,9 L16,9 Z M10,5 C10.5522847,5 11,5.44771525 11,6 C11,6.55228475 10.5522847,7 10,7 L7,7 C6.44771525,7 6,6.55228475 6,6 C6,5.44771525 6.44771525,5 7,5 L10,5 Z M16.023,2.973 L16.0236816,4.55355168 C16.0236816,4.82969405 16.2475393,5.05355168 16.5236816,5.05355168 L16.5308686,5.05350002 L18.045,5.032 L16.023,2.973 Z"></path>	
                </g>	
            </g>	
        </g>	
    </g>	
</svg> 