<?xml version="1.0" encoding="UTF-8"?>
<svg width="18px" height="18px" viewBox="0 0 18 18" version="1.1" xmlns="http://www.w3.org/2000/svg" xmlns:xlink="http://www.w3.org/1999/xlink">
    <title>icon-edit-white</title>
    <g id="Page-1-Icons" stroke="none" stroke-width="1" fill="none" fill-rule="evenodd">
        <g id="PECOS-2.0-Icons-Overview-v28" transform="translate(-2076.000000, -195.000000)" fill="#FFFFFF">
            <g id="ACTION" transform="translate(1818.000000, 32.000000)">
                <g id="icon-edit" transform="translate(256.000000, 163.000000)">
                    <path d="M8.32902653,-0.60672249 L11.6760536,-0.600658576 C12.7032397,-0.59707429 13.5346998,0.236632038 13.5355127,1.26382408 L13.5224668,15.9848898 L9.98682919,20.6066017 L6.51800189,16.0225093 L6.46455535,1.26112449 C6.46083379,0.2332677 7.29105943,-0.602991785 8.31891622,-0.606713345 L8.32902653,-0.60672249 L8.32902653,-0.60672249 Z M8.00846609,15.2453983 L9.26046609,17.1223983 L10.7744661,17.2083983 L12.0204661,15.2653983 L8.00846609,15.2453983 Z M10.7640714,5.28625707 L10.8230714,13.6602571 L12.0914661,13.6683983 L12.0854661,5.29339828 L10.7640714,5.28625707 Z M7.93346609,5.27239828 L7.94946609,13.6413983 L9.22607144,13.6492571 L9.16607144,5.27825707 L7.93346609,5.27239828 Z M11.1519071,0.828118192 L8.85612639,0.828119899 C8.34219557,0.829104348 7.92637037,1.24652565 7.92735482,1.76045647 L7.92735482,1.76045647 L7.93046609,3.66839828 L12.0834661,3.69639828 L12.0831547,1.75867371 C12.0821575,1.28170282 11.7229509,0.888764982 11.2603745,0.834510435 L11.1519071,0.828118192 Z" transform="translate(10.000000, 10.000000) rotate(45.000000) translate(-10.000000, -10.000000) "></path>
                </g>
            </g>
        </g>
    </g>
</svg>