<?xml version="1.0" encoding="UTF-8"?>
<svg width="20px" height="20px" viewBox="0 0 20 20" version="1.1" xmlns="http://www.w3.org/2000/svg" xmlns:xlink="http://www.w3.org/1999/xlink">
    <title>icon-delete</title>
    <g id="Page-1-Icons" stroke="none" stroke-width="1" fill="none" fill-rule="evenodd">
        <g id="PECOS-2.0-Icons-Overview-v28" transform="translate(-1838.000000, -101.000000)" fill="#E00F16">
            <g id="ACTION" transform="translate(1818.000000, 32.000000)">
                <g id="icon-delete" transform="translate(20.000000, 69.000000)">
                    <path d="M11.9021006,2.69467321 C11.7814533,2.31840058 11.4524028,2.05214991 11.0670093,2.00685039 L10.949853,2 L9.06347074,2 C8.68450812,2 8.34208561,2.21364738 8.17293272,2.54501641 L8.12315337,2.65970123 L8,3 L5.74150848,3 L6.49464401,1.23077177 C6.80777014,0.49519157 7.52886273,0.0167465417 8.32831215,0.0141327223 L11.4214326,0.00401968929 C12.1755176,0.00155418994 12.8668841,0.423445419 13.2095528,1.09518082 L14.1812477,3 L17.5650291,3 C18.1173139,3 18.5650291,3.44771525 18.5650291,4 C18.5650291,4.55228475 18.1173139,5 17.5650291,5 L16.9990291,5 L17,18 C17,19.1045695 16.1045695,20 15,20 L5,20 C3.8954305,20 3,19.1045695 3,18 L2.99902914,5 L2.56502914,5 C2.01274439,5 1.56502914,4.55228475 1.56502914,4 C1.56502914,3.44771525 2.01274439,3 2.56502914,3 L12,3 L11.9021006,2.69467321 Z M14.9990291,5 L4.99902914,5 L5,17 C5,17.5128358 5.38604019,17.9355072 5.88337887,17.9932723 L6,18 L14,18 C14.5128358,18 14.9355072,17.6139598 14.9932723,17.1166211 L15,17 L14.9990291,5 Z M7,7 C7.55228475,7 8,7.44771525 8,8 L8,15 C8,15.5522848 7.55228475,16 7,16 C6.44771525,16 6,15.5522848 6,15 L6,8 C6,7.44771525 6.44771525,7 7,7 Z M10,7 C10.5522847,7 11,7.44771525 11,8 L11,15 C11,15.5522848 10.5522847,16 10,16 C9.44771525,16 9,15.5522848 9,15 L9,8 C9,7.44771525 9.44771525,7 10,7 Z M13,7 C13.5522847,7 14,7.44771525 14,8 L14,15 C14,15.5522848 13.5522847,16 13,16 C12.4477153,16 12,15.5522848 12,15 L12,8 C12,7.44771525 12.4477153,7 13,7 Z"></path>
                </g>
            </g>
        </g>
    </g>
</svg>