<?xml version="1.0" encoding="UTF-8"?>
<svg width="18px" height="18px" viewBox="0 0 18 18" version="1.1" xmlns="http://www.w3.org/2000/svg" xmlns:xlink="http://www.w3.org/1999/xlink">
    <title>icon-view-details-small</title>
    <g id="Page-1-Icons" stroke="none" stroke-width="1" fill="none" fill-rule="evenodd">
        <g id="PECOS-2.0-Icons-Overview-v21" transform="translate(-1976.000000, -236.000000)" fill="#0573BB">
            <g id="Action-Icons" transform="translate(1723.000000, 69.000000)">
                <g id="icon-view-details-small" transform="translate(253.000000, 167.000000)">
                    <path d="M7.5,0 C11.6421356,0 15,3.35786438 15,7.5 C15,9.19398264 14.4383931,10.756795 13.4912122,12.0124041 L17.3223451,15.9212847 C17.6977474,16.304185 17.6948965,16.9179427 17.3159533,17.297339 C16.9402431,17.6734984 16.3307324,17.6738626 15.954573,17.2981524 L15.9508261,17.2943893 L12.1106186,13.4158485 C10.83873,14.40853 9.23843762,15 7.5,15 C3.35786438,15 0,11.6421356 0,7.5 C0,3.35786438 3.35786438,0 7.5,0 Z M7.5,2 C4.46243388,2 2,4.46243388 2,7.5 C2,10.5375661 4.46243388,13 7.5,13 C10.5375661,13 13,10.5375661 13,7.5 C13,4.46243388 10.5375661,2 7.5,2 Z M9.97068073,10.0135226 C10.2476529,10.0135226 10.4721832,10.2380529 10.4721832,10.5150251 C10.4721832,10.7919972 10.2476529,11.0165276 9.97068073,11.0165276 L4.97368573,11.0165276 C4.69671354,11.0165276 4.47218323,10.7919972 4.47218323,10.5150251 C4.47218323,10.2380529 4.69671354,10.0135226 4.97368573,10.0135226 L9.97068073,10.0135226 Z M9.97068073,8.01352256 C10.2476529,8.01352256 10.4721832,8.23805288 10.4721832,8.51502506 C10.4721832,8.79199725 10.2476529,9.01652756 9.97068073,9.01652756 L4.97368573,9.01652756 C4.69671354,9.01652756 4.47218323,8.79199725 4.47218323,8.51502506 C4.47218323,8.23805288 4.69671354,8.01352256 4.97368573,8.01352256 L9.97068073,8.01352256 Z M9.97068073,6.01051755 C10.2476529,6.01051755 10.4721832,6.23504787 10.4721832,6.51202005 C10.4721832,6.78899223 10.2476529,7.01352255 9.97068073,7.01352255 L4.97368573,7.01352255 C4.69671354,7.01352255 4.47218323,6.78899223 4.47218323,6.51202005 C4.47218323,6.23504787 4.69671354,6.01051755 4.97368573,6.01051755 L9.97068073,6.01051755 Z M9.97068073,4.00751253 C10.2476529,4.00751253 10.4721832,4.23204285 10.4721832,4.50901503 C10.4721832,4.78598722 10.2476529,5.01051753 9.97068073,5.01051753 L4.97368573,5.01051753 C4.69671354,5.01051753 4.47218323,4.78598722 4.47218323,4.50901503 C4.47218323,4.23204285 4.69671354,4.00751253 4.97368573,4.00751253 L9.97068073,4.00751253 Z" id="icon-enrollments-details"></path>
                </g>
            </g>
        </g>
    </g>
</svg>