<?xml version="1.0" encoding="UTF-8"?>
<svg width="20px" height="20px" viewBox="0 0 20 20" version="1.1" xmlns="http://www.w3.org/2000/svg" xmlns:xlink="http://www.w3.org/1999/xlink">
    <title>icon-show-subevents</title>
    <g id="Page-1-Icons" stroke="none" stroke-width="1" fill="none" fill-rule="evenodd">
        <g id="PECOS-2.0-Icons-Overview-v28" transform="translate(-2074.000000, -265.000000)" fill="#0573BB">
            <g id="ACTION" transform="translate(1818.000000, 32.000000)">
                <g id="icon-show-subevents" transform="translate(256.000000, 233.000000)">
                    <g id="icon-show-subevents" transform="translate(0.000000, 2.000000)">
                        <path d="M10,9 L10,15 L0,15 L0,9 L10,9 Z M8,11 L2,11 L2,13 L8,13 L8,11 Z" id="Combined-Shape"></path>
                        <path d="M10,1 L10,7 L0,7 L0,1 L10,1 Z M8,3 L2,3 L2,5 L8,5 L8,3 Z" id="Combined-Shape-Copy-3"></path>
                        <path d="M16.0000002,0.594823305 C16.5522844,0.59382671 17.0002871,1.04125437 17.0006417,1.593539 L16.9999718,5.58782164 L18.1247192,4.46382561 C18.4852032,4.10334164 19.0524343,4.07561211 19.4447255,4.380637 L19.5389328,4.46382561 C19.9294571,4.8543499 19.9294571,5.48751488 19.5389328,5.87803917 L19.5389328,5.87803917 L16.7105057,8.70646629 C16.3199814,9.09699058 15.6868164,9.09699058 15.2962921,8.70646629 L15.2962921,8.70646629 L12.467865,5.87803917 C12.0773407,5.48751488 12.0773407,4.8543499 12.467865,4.46382561 C12.8583893,4.07330131 13.4915543,4.07330131 13.8820786,4.46382561 L13.8820786,4.46382561 L14.9999718,5.58182164 L15,1.59546546 C15.0005965,1.08286246 15.3863419,0.660297393 15.8834342,0.601748145 L16.0000002,0.594823305 Z" id="up-arrow" transform="translate(16.003399, 4.797091) scale(1, -1) translate(-16.003399, -4.797091) "></path>
                    </g>
                </g>
            </g>
        </g>
    </g>
</svg>