<?xml version="1.0" encoding="UTF-8"?>
<svg width="20px" height="20px" viewBox="0 0 20 20" version="1.1" xmlns="http://www.w3.org/2000/svg" xmlns:xlink="http://www.w3.org/1999/xlink">
    <title>icon-undo</title>
    <g id="Page-1-Icons" stroke="none" stroke-width="1" fill="none" fill-rule="evenodd">
        <g id="PECOS-2.0-Icons-Overview-v28" transform="translate(-2074.000000, -132.000000)" fill="#0573BB">
            <g id="ACTION" transform="translate(1818.000000, 32.000000)">
                <g id="icon-undo" transform="translate(256.000000, 100.000000)">
                    <path d="M2,7.0872197e-12 C2.55228475,7.1150863e-12 3,0.44771525 3,1 L2.99893726,4.66970396 C4.73720468,2.43651952 7.45084378,1 10.5,1 C15.7467051,1 20,5.25329488 20,10.5 C20,15.7467051 15.7467051,20 10.5,20 C6.41689381,20 2.93542758,17.4240731 1.59203663,13.8086547 L3.44425481,13.0489408 C4.48753674,15.9363285 7.25277022,18 10.5,18 C14.6421356,18 18,14.6421356 18,10.5 C18,6.35786438 14.6421356,3 10.5,3 C8.04649196,3 5.86814856,4.17811991 4.49981661,5.99951292 L8,6 C8.55228475,6 9,6.44771525 9,7 C9,7.55228475 8.55228475,8 8,8 L2,8 C1.44771525,8 1,7.55228475 1,7 L1,1 C1,0.44771525 1.44771525,7.08710868e-12 2,7.0872197e-12 Z" id="arrow-circle"></path>
                </g>
            </g>
        </g>
    </g>
</svg>