<?xml version="1.0" encoding="UTF-8"?>
<svg width="20px" height="20px" viewBox="0 0 20 20" version="1.1" xmlns="http://www.w3.org/2000/svg" xmlns:xlink="http://www.w3.org/1999/xlink">
    <title>icon-start-application-blue</title>
    <g id="Page-1-Icons" stroke="none" stroke-width="1" fill="none" fill-rule="evenodd">
        <g id="PECOS-2.0-Icons-Overview-v27" transform="translate(-2083.000000, -400.000000)" fill="#0573BB">
            <g id="ACTION" transform="translate(1833.000000, 69.000000)">
                <g id="icon-start-application-blue" transform="translate(250.000000, 331.000000)">
                    <path d="M10,0 C15.5228475,0 20,4.4771525 20,10 C20,15.5228475 15.5228475,20 10,20 L10,20 L9.88337887,19.9932723 C9.38604019,19.9355072 9,19.5128358 9,19 C9,18.4477153 9.44771525,18 10,18 L10,18 C14.418278,18 18,14.418278 18,10 C18,5.581722 14.418278,2 10,2 C5.92036556,2 2.55396414,5.05371356 2.06188768,9.00004872 L9.805,9 L7.28137958,6.38687478 C6.89773035,5.98959438 6.90878061,5.35652583 7.30606101,4.97287661 L7.34054565,4.93957517 C7.73782606,4.55592595 8.3708946,4.5669762 8.75454382,4.9642566 L12.9527852,9.31166279 C13.3364344,9.7089432 13.3253842,10.3420117 12.9281038,10.725661 L8.54969788,14.9538384 C8.15241747,15.3374876 7.51934893,15.3264373 7.13569971,14.9291569 C6.75205048,14.5318765 6.76310073,13.898808 7.16038114,13.5151588 L9.763,11 L1,11 C0.44771525,11 6.76353751e-17,10.5522847 0,10 L0.00384179753,9.72009516 C0.152068282,4.32667079 4.57076009,0 10,0 Z" id="Combined-Shape"></path>
                </g>
            </g>
        </g>
    </g>
</svg>