<?xml version="1.0" encoding="UTF-8"?>
<svg width="20px" height="20px" viewBox="0 0 20 20" version="1.1" xmlns="http://www.w3.org/2000/svg" xmlns:xlink="http://www.w3.org/1999/xlink">
    <title>icon-document</title>
    <g id="Page-1-Icons" stroke="none" stroke-width="1" fill="none" fill-rule="evenodd">
        <g id="PECOS-2.0-Icons-Overview-v28" transform="translate(-1838.000000, -197.000000)" fill="#0573BB">
            <g id="ACTION" transform="translate(1818.000000, 32.000000)">
                <g id="icon-document" transform="translate(20.000000, 165.000000)">
                    <path d="M14.8153996,0 C14.9486925,6.71110499e-16 15.0764678,0.0532222108 15.170347,0.147846121 L18.8549474,3.86167504 C18.9478624,3.95532712 19,4.08190503 19,4.21382892 L19,18 C19,19.1045695 18.1045695,20 17,20 L4,20 C2.8954305,20 2,19.1045695 2,18 L2,2 C2,0.8954305 2.8954305,2.02906125e-16 4,0 L14.8153996,0 Z M13.009,2 L5,2 C4.48716416,2 4.06449284,2.38604019 4.00672773,2.88337887 L4,3 L4,17 C4,17.5128358 4.38604019,17.9355072 4.88337887,17.9932723 L5,18 L16,18 C16.5128358,18 16.9355072,17.6139598 16.9932723,17.1166211 L17,17 L17,6.023 L14.0096836,6.02344894 C13.4573989,6.02344894 13.0096836,5.57573369 13.0096836,5.02344894 L13.009,2 Z M14.5,15 C14.7761424,15 15,15.2238576 15,15.5 C15,15.7761424 14.7761424,16 14.5,16 L6.5,16 C6.22385763,16 6,15.7761424 6,15.5 C6,15.2238576 6.22385763,15 6.5,15 L14.5,15 Z M14.5,13 C14.7761424,13 15,13.2238576 15,13.5 C15,13.7761424 14.7761424,14 14.5,14 L6.5,14 C6.22385763,14 6,13.7761424 6,13.5 C6,13.2238576 6.22385763,13 6.5,13 L14.5,13 Z M14.5,11 C14.7761424,11 15,11.2238576 15,11.5 C15,11.7761424 14.7761424,12 14.5,12 L6.5,12 C6.22385763,12 6,11.7761424 6,11.5 C6,11.2238576 6.22385763,11 6.5,11 L14.5,11 Z M14.5,9 C14.7761424,9 15,9.22385763 15,9.5 C15,9.77614237 14.7761424,10 14.5,10 L6.5,10 C6.22385763,10 6,9.77614237 6,9.5 C6,9.22385763 6.22385763,9 6.5,9 L14.5,9 Z M14.5,7 C14.7761424,7 15,7.22385763 15,7.5 C15,7.77614237 14.7761424,8 14.5,8 L6.5,8 C6.22385763,8 6,7.77614237 6,7.5 C6,7.22385763 6.22385763,7 6.5,7 L14.5,7 Z M10.5,5 C10.7761424,5 11,5.22385763 11,5.5 C11,5.77614237 10.7761424,6 10.5,6 L6.5,6 C6.22385763,6 6,5.77614237 6,5.5 C6,5.22385763 6.22385763,5 6.5,5 L10.5,5 Z M15.001,3.325 L15.0019951,4.03052902 L15.752,4.03 L15.001,3.325 Z"></path>
                </g>
            </g>
        </g>
    </g>
</svg>