<?xml version="1.0" encoding="UTF-8"?>
<svg width="20px" height="20px" viewBox="0 0 20 20" version="1.1" xmlns="http://www.w3.org/2000/svg" xmlns:xlink="http://www.w3.org/1999/xlink">
    <title>icon-upload-disabled</title>
    <g id="Page-1-Icons" stroke="none" stroke-width="1" fill="none" fill-rule="evenodd">
        <g id="PECOS-2.0-Icons-Overview-v21" transform="translate(-1745.000000, -502.000000)" fill="#949494">
            <g id="Action-Icons" transform="translate(1723.000000, 69.000000)">
                <g id="icon-upload-disabled" transform="translate(22.000000, 433.000000)">
                    <path d="M9.30326441,7.30671768 C9.6937887,6.91619339 10.3269537,6.91619339 10.717478,7.30671768 L10.717478,7.30671768 L13.8984227,10.4876624 C14.288947,10.8781867 14.288947,11.5113517 13.8984227,11.901876 C13.5078984,12.2924003 12.8747334,12.2924003 12.4842091,11.901876 L12.4842091,11.901876 L11.0003159,10.4168245 L11,19 C11,19.5522847 10.5522847,20 10,20 C9.44771525,20 9,19.5522847 9,19 L9,19 L9.00031591,10.4228245 L7.51397084,11.9084248 C7.12565756,12.2967381 6.49607735,12.2967381 6.10776408,11.9084248 C5.7194508,11.5201115 5.7194508,10.8905313 6.10776408,10.502218 L6.10776408,10.502218 Z M11.5,0 C15.0898509,0 18,2.91014913 18,6.5 C18,6.58479697 17.9983762,6.66921468 17.9951581,6.75322375 C19.2035472,7.5608174 20,8.93739794 20,10.5 C20,12.9852814 17.9852814,15 15.5,15 L14,15 L14,13 L15.5,13 C16.8807119,13 18,11.8807119 18,10.5 C18,9.19990112 17.0075959,8.13159063 15.7389948,8.01127562 C15.9080739,7.54026875 16,7.03086963 16,6.5 C16,4.01471863 13.9852814,2 11.5,2 C9.83233721,2 8.37655096,2.90715135 7.59918157,4.25491375 C7.26861089,4.09160897 6.89500366,4 6.5,4 C5.11928813,4 4,5.11928813 4,6.5 C4,7.06323916 4.1862608,7.58297478 4.50054687,8.00097133 C3.11928813,8 2,9.11928813 2,10.5 C2,11.8254834 3.03153594,12.9100387 4.33562431,12.9946823 L4.5,13 L6,13 L6,15 L4.5,15 C2.01471863,15 3.04359188e-16,12.9852814 0,10.5 C-1.94487864e-16,8.91188607 0.822671747,7.51591742 2.06510398,6.71500532 C2.02196231,6.48415458 2,6.24464208 2,6 C2,3.790861 3.790861,2 6,2 C6.25410531,2 6.50267653,2.02369427 6.74362479,2.06899393 C7.93035591,0.796282299 9.62218711,0 11.5,0 Z" id="Combined-Shape"></path>
                </g>
            </g>
        </g>
    </g>
</svg>