<?xml version="1.0" encoding="UTF-8"?>
<svg width="21px" height="21px" viewBox="0 0 21 21" version="1.1" xmlns="http://www.w3.org/2000/svg" xmlns:xlink="http://www.w3.org/1999/xlink">
    <title>icon-tracking-number-blue</title>
    <g id="Page-1-Icons" stroke="none" stroke-width="1" fill="none" fill-rule="evenodd">
        <g id="PECOS-2.0-Icons-Overview-v30" transform="translate(-2074.000000, -425.000000)" fill="#0573BB">
            <g id="ACTION" transform="translate(1818.000000, 84.000000)">
                <g id="icon-tracking-number-blue" transform="translate(256.000000, 341.000000)">
                    <path d="M2,13 L2,18.0032539 L7.01288605,18.0032539 L7.01288605,20.0511436 L0,20.0511436 L0,13 L2,13 Z M20.012886,13 L20.012886,20.0511436 L13,20.0511436 L13,18.0032539 L18.012886,18.0032539 L18.012886,13 L20.012886,13 Z M5,4 L5,16 L4,16 L4,4 L5,4 Z M8,4 L8,16 L6,16 L6,4 L8,4 Z M10,4 L10,16 L9,16 L9,4 L10,4 Z M14,4 L14,16 L11,16 L11,4 L14,4 Z M16,4 L16,16 L15,16 L15,4 L16,4 Z M7.01288605,0 L7.01288605,2.04788971 L2,2.04788971 L2,7.05114365 L0,7.05114365 L0,0 L7.01288605,0 Z M20.012886,0 L20.012886,7.05114365 L18.012886,7.05114365 L18.012886,2.04788971 L13,2.04788971 L13,0 L20.012886,0 Z" id="Combined-Shape"></path>
                </g>
            </g>
        </g>
    </g>
</svg>