<?xml version="1.0" encoding="UTF-8"?>
<svg width="24px" height="24px" viewBox="0 0 24 24" version="1.1" xmlns="http://www.w3.org/2000/svg" xmlns:xlink="http://www.w3.org/1999/xlink">
    <title>icon-mod-record-not-complete</title>
    <g id="Page-1-Icons" stroke="none" stroke-width="1" fill="none" fill-rule="evenodd">
        <g id="PECOS-2.0-Icons-Overview-v32-pending-reviews" transform="translate(-3516.000000, -2345.000000)">
            <g id="24x24-status-icons" transform="translate(30.000000, 2206.000000)">
                <g id="Mod-Record-Status-Icons" transform="translate(3474.000000, 2.000000)">
                    <g id="icon-mod-record-not-complete" transform="translate(12.000000, 137.000000)">
                        <circle id="Oval" fill="#848D94" cx="12" cy="12" r="12"></circle>
                        <path d="M12,4 C16.418278,4 20,7.581722 20,12 C20,16.418278 16.418278,20 12,20 C7.581722,20 4,16.418278 4,12 C4,7.581722 7.581722,4 12,4 Z M6,12 C6,15.3137085 8.6862915,18 12,18 C13.2958935,18 14.4958324,17.589169 15.4766776,16.8906459 L7.10935412,8.52332235 C6.41083098,9.50416765 6,10.7041065 6,12 Z M12,6 C10.7041065,6 9.50416765,6.41083098 8.52332235,7.10935412 L16.8906459,15.4766776 C17.589169,14.4958324 18,13.2958935 18,12 C18,8.6862915 15.3137085,6 12,6 Z" id="denied" fill="#FFFFFF"></path>
                    </g>
                </g>
            </g>
        </g>
    </g>
</svg>