<?xml version="1.0" encoding="UTF-8"?>
<svg width="36px" height="36px" viewBox="0 0 36 36" version="1.1" xmlns="http://www.w3.org/2000/svg" xmlns:xlink="http://www.w3.org/1999/xlink">
    <title>icon-tl-pymnt-warning</title>
    <defs>
        <linearGradient x1="50%" y1="0%" x2="50%" y2="99.214055%" id="linearGradient-1">
            <stop stop-color="#58A74F" offset="0%"></stop>
            <stop stop-color="#31912E" offset="100%"></stop>
        </linearGradient>
        <linearGradient x1="50%" y1="0%" x2="50%" y2="99.4342937%" id="linearGradient-2">
            <stop stop-color="#76D16E" offset="0%"></stop>
            <stop stop-color="#5BB057" offset="100%"></stop>
        </linearGradient>
    </defs>
    <g id="Page-1-Icons" stroke="none" stroke-width="1" fill="none" fill-rule="evenodd">
        <g id="PECOS-2.0-Icons-Overview-v28" transform="translate(-927.000000, -3519.000000)">
            <g id="FEE-PAYMENT-TIMELINE-ICONS" transform="translate(904.000000, 2925.000000)">
                <g id="Payment-Warning" transform="translate(18.000000, 587.000000)">
                    <g id="icon-tl-pymnt-warning" transform="translate(5.000000, 7.000000)">
                        <g id="icon-payment-small">
                            <rect id="card" fill="url(#linearGradient-1)" x="6.96774194" y="0" width="20.0322581" height="14.6694695" rx="1.74193548"></rect>
                            <path d="M12.1935484,3.45163988 L12.1935484,5.17745983 L8.70967742,5.17745983 L8.70967742,3.45163988 L12.1935484,3.45163988 Z M16.5483871,3.45163988 L16.5483871,5.17745983 L13.0645161,5.17745983 L13.0645161,3.45163988 L16.5483871,3.45163988 Z M20.9032258,3.45163988 L20.9032258,5.17745983 L17.4193548,5.17745983 L17.4193548,3.45163988 L20.9032258,3.45163988 Z M25.2580645,3.45163988 L25.2580645,5.17745983 L21.7741935,5.17745983 L21.7741935,3.45163988 L25.2580645,3.45163988 Z" id="Combined-Shape" fill="#CAEFBD"></path>
                            <path d="M15.6344331,12.9436496 C15.6394319,12.3142987 15.1233143,11.8057832 14.4845548,11.8057832 C14.1370697,11.8057832 13.8304652,11.9618622 13.615842,12.1984981 L9.96653495,16.3057541 C9.90184705,16.3178534 9.72811828,16.2928535 9.44534864,16.2307543 C9.16257899,16.1686552 8.82180964,15.9340378 8.42304057,15.526902 C7.69566558,14.8353307 7.32880229,13.9594016 7.32880229,13.9594016 C7.13051679,13.7945513 6.96774194,13.0675243 6.96774194,12.9436496 C6.96774194,11.9996545 6.96774194,10.8491079 6.96774194,9.49200968 L4.58562528,9.8099874 C4.5805152,9.8099874 4.57540513,9.8150222 4.57029505,9.8150222 C4.56518498,9.8150222 4.5600749,9.8150222 4.54985475,9.8150222 L4.25858044,9.86033547 C3.77312325,9.99124045 3.41541795,10.4292687 3.41541795,10.9528886 C3.41541795,10.9579234 3.41541795,10.9579234 3.41030788,10.9629582 L2.66934691,18.3339156 L2.65912676,18.3389504 C2.62335623,18.792083 2.31675169,19.1696935 1.89772548,19.3157029 L0.098978849,20.1514809 L0.0734284707,20.2572118 C0.0734284707,20.2572118 -0.284276826,21.7223407 0.579325961,23.2277479 C1.44292875,24.7331552 4.26369051,25 4.26369051,25 L5.18350413,23.9628298 C5.18350413,23.9628298 8.15245809,24.4310668 9.96653495,22.4977009 C11.6835204,20.670066 15.1233143,14.3430118 15.4350289,13.5780352 C15.4350289,13.5730004 15.440139,13.5730004 15.440139,13.5679656 C15.4605793,13.532722 15.4759095,13.5125828 15.4759095,13.5125828 C15.573001,13.3464341 15.6344331,13.1500766 15.6344331,12.9436496 Z" id="hand" fill="url(#linearGradient-2)"></path>
                            <path d="M22.6451613,7.76618974 L22.6442903,9.49118974 L24.3870968,9.49200968 L24.3870968,11.2178296 L22.6442903,11.2171897 L22.6451613,12.9436496 L20.9032258,12.9436496 L20.9022903,11.2171897 L19.1612903,11.2178296 L19.1612903,9.49200968 L20.9022903,9.49118974 L20.9032258,7.76618974 L22.6451613,7.76618974 Z" id="cross" fill="#A1DC8C"></path>
                        </g>
                        <g id="icon-warning-large" transform="translate(11.003423, 11.000000)">
                            <path d="M11.9965767,-0.5 C12.6047991,-0.5 13.1371503,-0.34609499 13.5964503,-0.0472851627 C14.0444558,0.244176781 14.4256964,0.677384265 14.7294367,1.26262669 L14.7294367,1.26262669 L24.230802,20.8056329 C24.5090294,21.6804221 24.5001103,22.4634686 24.2309938,23.156663 C24.0766931,23.554113 23.806116,23.8713443 23.4127681,24.1029641 C23.065445,24.3074826 22.6132368,24.4450697 22.0503491,24.5 L22.0503491,24.5 L1.94325415,24.5 C0.746718911,24.2549885 0.0488000014,23.7890371 -0.255143661,23.2072238 C-0.555725852,22.6318452 -0.592594056,21.8375443 -0.278916483,20.8074002 L-0.278916483,20.8074002 L9.31241347,1.26867185 C9.59755508,0.682215862 9.96573053,0.248134042 10.4052305,-0.0444017612 C10.8561495,-0.344538173 11.3854402,-0.5 11.9965767,-0.5 Z" id="Triangle" stroke="#CAEFBD" fill="#F58900"></path>
                            <path d="M11.9991402,17.5703125 C13.0346741,17.5703125 13.8741402,18.4097786 13.8741402,19.4453125 C13.8741402,20.4808464 13.0346741,21.3203125 11.9991402,21.3203125 C10.9636063,21.3203125 10.1241402,20.4808464 10.1241402,19.4453125 C10.1241402,18.4097786 10.9636063,17.5703125 11.9991402,17.5703125 Z M12.0074105,5.56622314 C12.9668354,5.56622314 13.7446029,6.34399068 13.7446029,7.30341556 C13.7446029,7.34758287 13.7429185,7.39173412 13.7395534,7.43577305 L13.0851387,16 L10.857203,16 L10.2623461,7.43671553 C10.1953967,6.47294306 10.9224154,5.63737789 11.8861879,5.5704285 C11.9265346,5.56762577 11.9669665,5.56622314 12.0074105,5.56622314 Z" id="exclamation-mark" fill="#FFFFFF"></path>
                        </g>
                    </g>
                </g>
            </g>
        </g>
    </g>
</svg>