<?xml version="1.0" encoding="UTF-8"?>
<svg width="36px" height="36px" viewBox="0 0 36 36" version="1.1" xmlns="http://www.w3.org/2000/svg" xmlns:xlink="http://www.w3.org/1999/xlink">
    <title>icon-tl-pymnt-ordered</title>
    <defs>
        <linearGradient x1="50%" y1="0%" x2="50%" y2="99.214055%" id="linearGradient-1">
            <stop stop-color="#58A74F" offset="0%"></stop>
            <stop stop-color="#31912E" offset="100%"></stop>
        </linearGradient>
        <linearGradient x1="50%" y1="0%" x2="50%" y2="99.4342937%" id="linearGradient-2">
            <stop stop-color="#76D16E" offset="0%"></stop>
            <stop stop-color="#5BB057" offset="100%"></stop>
        </linearGradient>
    </defs>
    <g id="Page-1-Icons" stroke="none" stroke-width="1" fill="none" fill-rule="evenodd">
        <g id="PECOS-2.0-Icons-Overview-v28" transform="translate(-927.000000, -3159.000000)">
            <g id="FEE-PAYMENT-TIMELINE-ICONS" transform="translate(904.000000, 2925.000000)">
                <g id="Payment-Ordered" transform="translate(18.000000, 227.000000)">
                    <g id="icon-tl-pymnt-ordered" transform="translate(5.000000, 7.000000)">
                        <g id="icon-payment-small">
                            <rect id="card" fill="url(#linearGradient-1)" x="6.96774194" y="0" width="20.0322581" height="14.6694695" rx="1.74193548"></rect>
                            <path d="M12.1935484,3.45163988 L12.1935484,5.17745983 L8.70967742,5.17745983 L8.70967742,3.45163988 L12.1935484,3.45163988 Z M16.5483871,3.45163988 L16.5483871,5.17745983 L13.0645161,5.17745983 L13.0645161,3.45163988 L16.5483871,3.45163988 Z M20.9032258,3.45163988 L20.9032258,5.17745983 L17.4193548,5.17745983 L17.4193548,3.45163988 L20.9032258,3.45163988 Z M25.2580645,3.45163988 L25.2580645,5.17745983 L21.7741935,5.17745983 L21.7741935,3.45163988 L25.2580645,3.45163988 Z" id="Combined-Shape" fill="#CAEFBD"></path>
                            <path d="M15.6344331,12.9436496 C15.6394319,12.3142987 15.1233143,11.8057832 14.4845548,11.8057832 C14.1370697,11.8057832 13.8304652,11.9618622 13.615842,12.1984981 L9.96653495,16.3057541 C9.90184705,16.3178534 9.72811828,16.2928535 9.44534864,16.2307543 C9.16257899,16.1686552 8.82180964,15.9340378 8.42304057,15.526902 C7.69566558,14.8353307 7.32880229,13.9594016 7.32880229,13.9594016 C7.13051679,13.7945513 6.96774194,13.0675243 6.96774194,12.9436496 C6.96774194,11.9996545 6.96774194,10.8491079 6.96774194,9.49200968 L4.58562528,9.8099874 C4.5805152,9.8099874 4.57540513,9.8150222 4.57029505,9.8150222 C4.56518498,9.8150222 4.5600749,9.8150222 4.54985475,9.8150222 L4.25858044,9.86033547 C3.77312325,9.99124045 3.41541795,10.4292687 3.41541795,10.9528886 C3.41541795,10.9579234 3.41541795,10.9579234 3.41030788,10.9629582 L2.66934691,18.3339156 L2.65912676,18.3389504 C2.62335623,18.792083 2.31675169,19.1696935 1.89772548,19.3157029 L0.098978849,20.1514809 L0.0734284707,20.2572118 C0.0734284707,20.2572118 -0.284276826,21.7223407 0.579325961,23.2277479 C1.44292875,24.7331552 4.26369051,25 4.26369051,25 L5.18350413,23.9628298 C5.18350413,23.9628298 8.15245809,24.4310668 9.96653495,22.4977009 C11.6835204,20.670066 15.1233143,14.3430118 15.4350289,13.5780352 C15.4350289,13.5730004 15.440139,13.5730004 15.440139,13.5679656 C15.4605793,13.532722 15.4759095,13.5125828 15.4759095,13.5125828 C15.573001,13.3464341 15.6344331,13.1500766 15.6344331,12.9436496 Z" id="hand" fill="url(#linearGradient-2)"></path>
                            <path d="M22.6451613,7.76618974 L22.6442903,9.49118974 L24.3870968,9.49200968 L24.3870968,11.2178296 L22.6442903,11.2171897 L22.6451613,12.9436496 L20.9032258,12.9436496 L20.9022903,11.2171897 L19.1612903,11.2178296 L19.1612903,9.49200968 L20.9022903,9.49118974 L20.9032258,7.76618974 L22.6451613,7.76618974 Z" id="cross" fill="#A1DC8C"></path>
                        </g>
                        <g id="payment-orderedstatus" transform="translate(11.000000, 11.000000)">
                            <circle id="Oval" stroke="#CAEFBD" fill="#18842E" cx="12" cy="12" r="12.5"></circle>
                            <path d="M13.625,7.70940101 C13.7712103,7.70940101 13.9127934,7.76066115 14.0251152,7.85426271 L18.423834,11.5198617 C18.6890071,11.7408393 18.7248346,12.1349422 18.5038571,12.4001152 C18.4796576,12.4291547 18.4528735,12.4559388 18.423834,12.4801383 L14.0251152,16.1457373 C13.7599422,16.3667148 13.3658393,16.3308873 13.1448617,16.0657142 C13.0512601,15.9533924 13,15.8118093 13,15.665599 L13,12.999401 L6,13 C5.44771525,13 5,12.5522847 5,12 C5,11.4477153 5.44771525,11 6,11 L13,10.999401 L13,8.33440101 C13,7.98922304 13.279822,7.70940101 13.625,7.70940101 Z" id="arrow-right" fill="#FFFFFF"></path>
                        </g>
                    </g>
                </g>
            </g>
        </g>
    </g>
</svg>