<?xml version="1.0" encoding="UTF-8"?>
<svg width="36px" height="36px" viewBox="0 0 36 36" version="1.1" xmlns="http://www.w3.org/2000/svg" xmlns:xlink="http://www.w3.org/1999/xlink">
    <title>icon-tl-pymnt-refund-in-progress</title>
    <defs>
        <linearGradient x1="50%" y1="0%" x2="50%" y2="99.214055%" id="linearGradient-1">
            <stop stop-color="#58A74F" offset="0%"></stop>
            <stop stop-color="#31912E" offset="100%"></stop>
        </linearGradient>
        <linearGradient x1="50%" y1="0%" x2="50%" y2="99.4342937%" id="linearGradient-2">
            <stop stop-color="#76D16E" offset="0%"></stop>
            <stop stop-color="#5BB057" offset="100%"></stop>
        </linearGradient>
    </defs>
    <g id="Page-1-Icons" stroke="none" stroke-width="1" fill="none" fill-rule="evenodd">
        <g id="PECOS-2.0-Icons-Overview-v28" transform="translate(-927.000000, -3219.000000)">
            <g id="FEE-PAYMENT-TIMELINE-ICONS" transform="translate(904.000000, 2925.000000)">
                <g id="Payment-Refund-in-Progress" transform="translate(18.000000, 287.000000)">
                    <g id="icon-tl-pymnt-refund-in-progress" transform="translate(5.000000, 7.000000)">
                        <g id="icon-payment-small">
                            <rect id="card" fill="url(#linearGradient-1)" x="6.96774194" y="0" width="20.0322581" height="14.6694695" rx="1.74193548"></rect>
                            <path d="M12.1935484,3.45163988 L12.1935484,5.17745983 L8.70967742,5.17745983 L8.70967742,3.45163988 L12.1935484,3.45163988 Z M16.5483871,3.45163988 L16.5483871,5.17745983 L13.0645161,5.17745983 L13.0645161,3.45163988 L16.5483871,3.45163988 Z M20.9032258,3.45163988 L20.9032258,5.17745983 L17.4193548,5.17745983 L17.4193548,3.45163988 L20.9032258,3.45163988 Z M25.2580645,3.45163988 L25.2580645,5.17745983 L21.7741935,5.17745983 L21.7741935,3.45163988 L25.2580645,3.45163988 Z" id="Combined-Shape" fill="#CAEFBD"></path>
                            <path d="M15.6344331,12.9436496 C15.6394319,12.3142987 15.1233143,11.8057832 14.4845548,11.8057832 C14.1370697,11.8057832 13.8304652,11.9618622 13.615842,12.1984981 L9.96653495,16.3057541 C9.90184705,16.3178534 9.72811828,16.2928535 9.44534864,16.2307543 C9.16257899,16.1686552 8.82180964,15.9340378 8.42304057,15.526902 C7.69566558,14.8353307 7.32880229,13.9594016 7.32880229,13.9594016 C7.13051679,13.7945513 6.96774194,13.0675243 6.96774194,12.9436496 C6.96774194,11.9996545 6.96774194,10.8491079 6.96774194,9.49200968 L4.58562528,9.8099874 C4.5805152,9.8099874 4.57540513,9.8150222 4.57029505,9.8150222 C4.56518498,9.8150222 4.5600749,9.8150222 4.54985475,9.8150222 L4.25858044,9.86033547 C3.77312325,9.99124045 3.41541795,10.4292687 3.41541795,10.9528886 C3.41541795,10.9579234 3.41541795,10.9579234 3.41030788,10.9629582 L2.66934691,18.3339156 L2.65912676,18.3389504 C2.62335623,18.792083 2.31675169,19.1696935 1.89772548,19.3157029 L0.098978849,20.1514809 L0.0734284707,20.2572118 C0.0734284707,20.2572118 -0.284276826,21.7223407 0.579325961,23.2277479 C1.44292875,24.7331552 4.26369051,25 4.26369051,25 L5.18350413,23.9628298 C5.18350413,23.9628298 8.15245809,24.4310668 9.96653495,22.4977009 C11.6835204,20.670066 15.1233143,14.3430118 15.4350289,13.5780352 C15.4350289,13.5730004 15.440139,13.5730004 15.440139,13.5679656 C15.4605793,13.532722 15.4759095,13.5125828 15.4759095,13.5125828 C15.573001,13.3464341 15.6344331,13.1500766 15.6344331,12.9436496 Z" id="hand" fill="url(#linearGradient-2)"></path>
                            <path d="M22.6451613,7.76618974 L22.6442903,9.49118974 L24.3870968,9.49200968 L24.3870968,11.2178296 L22.6442903,11.2171897 L22.6451613,12.9436496 L20.9032258,12.9436496 L20.9022903,11.2171897 L19.1612903,11.2178296 L19.1612903,9.49200968 L20.9022903,9.49118974 L20.9032258,7.76618974 L22.6451613,7.76618974 Z" id="cross" fill="#A1DC8C"></path>
                        </g>
                        <g id="refund-in-progress-status" transform="translate(11.000000, 11.000000)">
                            <circle id="Oval" stroke="#CAEFBD" fill="#18842E" cx="12" cy="12" r="12.5"></circle>
                            <path d="M10.3582764,17.8005371 C10.9105611,17.8005371 11.3582764,18.2482524 11.3582764,18.8005371 C11.3582764,19.3528219 10.9105611,19.8005371 10.3582764,19.8005371 C9.80599162,19.8005371 9.35827637,19.3528219 9.35827637,18.8005371 C9.35827637,18.2482524 9.80599162,17.8005371 10.3582764,17.8005371 Z M13.8049316,17.7622681 C14.3572164,17.7622681 14.8049316,18.2099833 14.8049316,18.7622681 C14.8049316,19.3145528 14.3572164,19.7622681 13.8049316,19.7622681 C13.2526469,19.7622681 12.8049316,19.3145528 12.8049316,18.7622681 C12.8049316,18.2099833 13.2526469,17.7622681 13.8049316,17.7622681 Z M16.7061157,16.1760864 C17.2584005,16.1760864 17.7061157,16.6238017 17.7061157,17.1760864 C17.7061157,17.7283712 17.2584005,18.1760864 16.7061157,18.1760864 C16.153831,18.1760864 15.7061157,17.7283712 15.7061157,17.1760864 C15.7061157,16.6238017 16.153831,16.1760864 16.7061157,16.1760864 Z M7.69811294,7.09270486 L7.69811294,8.3750578 C8.12458352,8.4378029 8.52531882,8.54564604 8.90031882,8.69858721 C9.27531882,8.85152839 9.58046588,9.04172447 9.81576,9.26917545 L9.81576,9.26917545 L9.26428941,10.5750578 C8.53634823,10.0338813 7.81576,9.7632931 7.1025247,9.7632931 C6.70546588,9.7632931 6.38745117,9.85348917 6.14848058,10.0338813 C5.90951,10.2142735 5.7900247,10.4652539 5.7900247,10.7868225 C5.7900247,11.0064304 5.85987764,11.1868225 5.99958352,11.327999 C6.13928941,11.4691754 6.31576,11.5789794 6.52899529,11.6574107 C6.74223058,11.7358421 7.0400247,11.8260382 7.42237764,11.927999 C7.95178941,12.0691754 8.38928941,12.2142735 8.73487764,12.3632931 C9.08046588,12.5123127 9.37642176,12.7436853 9.62274529,13.0574107 C9.86906882,13.3711362 9.99223058,13.7946656 9.99223058,14.327999 C9.99223058,14.9632931 9.78818647,15.4985872 9.38009823,15.9338813 C8.97201,16.3691754 8.42237764,16.6495676 7.73120117,16.7750578 L7.73120117,16.7750578 L7.73120117,18.0927049 L6.40767176,18.0927049 L6.40767176,16.8221166 C5.92973058,16.7829009 5.48303941,16.6848617 5.06759823,16.527999 C4.65215705,16.3711362 4.29370117,16.1672147 3.99223058,15.9162343 L3.99223058,15.9162343 L4.54370117,14.6103519 C5.27164235,15.1515284 6.05473058,15.4221166 6.89296588,15.4221166 C7.34149529,15.4221166 7.68524529,15.3338813 7.92421588,15.1574107 C8.16318647,14.9809402 8.28267176,14.7319205 8.28267176,14.4103519 C8.28267176,14.2142735 8.21649529,14.0534892 8.08414235,13.927999 C7.95178941,13.8025088 7.78451,13.7025088 7.58230411,13.627999 C7.38009823,13.5534892 7.09149529,13.4652539 6.71649529,13.3632931 C6.17237764,13.2221166 5.72384823,13.073097 5.37090705,12.9162343 C5.01796588,12.7593715 4.71465705,12.5181951 4.46098058,12.1927049 C4.20730411,11.8672147 4.08046588,11.4338813 4.08046588,10.8927049 C4.08046588,10.2652539 4.29186294,9.72603819 4.71465705,9.2750578 C5.13745117,8.82407741 5.69076,8.53584211 6.37458352,8.41035192 L6.37458352,8.41035192 L6.37458352,7.09270486 L7.69811294,7.09270486 Z M18.6208496,13.2493286 C19.1731344,13.2493286 19.6208496,13.6970439 19.6208496,14.2493286 C19.6208496,14.8016134 19.1731344,15.2493286 18.6208496,15.2493286 C18.0685649,15.2493286 17.6208496,14.8016134 17.6208496,14.2493286 C17.6208496,13.6970439 18.0685649,13.2493286 18.6208496,13.2493286 Z M12.4643732,2.38311188 C12.4876855,2.42196573 12.5,2.46642483 12.5,2.51173582 L12.4994769,4.01533875 C16.1452391,4.23992389 19.130418,6.90628347 19.8398117,10.3992154 C19.8733166,10.4987896 19.8912964,10.6052663 19.8912964,10.7159424 C19.8912964,11.2682271 19.4435811,11.7159424 18.8912964,11.7159424 C18.4703803,11.7159424 18.1102036,11.4558865 17.9626725,11.087681 L17.9325425,11.0972971 C17.5215349,8.37340486 15.279284,6.24977789 12.4999027,6.02052886 L12.5,7.62864063 C12.5,7.76671182 12.3880712,7.87864063 12.25,7.87864063 C12.204689,7.87864063 12.1602299,7.86632617 12.1213761,7.84301386 L7.85728872,5.28456146 C7.73889365,5.21352442 7.70050239,5.05995935 7.77153943,4.94156429 C7.79265187,4.90637688 7.82210132,4.87692743 7.85728872,4.85581499 L12.1213761,2.29736259 C12.2397711,2.22632555 12.3933362,2.26471681 12.4643732,2.38311188 Z" id="refund" fill="#FFFFFF"></path>
                        </g>
                    </g>
                </g>
            </g>
        </g>
    </g>
</svg>