<?xml version="1.0" encoding="UTF-8"?>
<svg width="36px" height="36px" viewBox="0 0 36 36" version="1.1" xmlns="http://www.w3.org/2000/svg" xmlns:xlink="http://www.w3.org/1999/xlink">
    <title>icon-tl-pymnt-in-progress</title>
    <defs>
        <linearGradient x1="50%" y1="0%" x2="50%" y2="99.214055%" id="linearGradient-1">
            <stop stop-color="#58A74F" offset="0%"></stop>
            <stop stop-color="#31912E" offset="100%"></stop>
        </linearGradient>
        <linearGradient x1="50%" y1="0%" x2="50%" y2="99.4342937%" id="linearGradient-2">
            <stop stop-color="#76D16E" offset="0%"></stop>
            <stop stop-color="#5BB057" offset="100%"></stop>
        </linearGradient>
    </defs>
    <g id="Page-1-Icons" stroke="none" stroke-width="1" fill="none" fill-rule="evenodd">
        <g id="PECOS-2.0-Icons-Overview-v28" transform="translate(-927.000000, -3099.000000)">
            <g id="FEE-PAYMENT-TIMELINE-ICONS" transform="translate(904.000000, 2925.000000)">
                <g id="Payment-In-Progress" transform="translate(18.000000, 167.000000)">
                    <g id="icon-tl-pymnt-in-progress" transform="translate(5.000000, 7.000000)">
                        <g id="icon-payment-small">
                            <rect id="card" fill="url(#linearGradient-1)" x="6.96774194" y="0" width="20.0322581" height="14.6694695" rx="1.74193548"></rect>
                            <path d="M12.1935484,3.45163988 L12.1935484,5.17745983 L8.70967742,5.17745983 L8.70967742,3.45163988 L12.1935484,3.45163988 Z M16.5483871,3.45163988 L16.5483871,5.17745983 L13.0645161,5.17745983 L13.0645161,3.45163988 L16.5483871,3.45163988 Z M20.9032258,3.45163988 L20.9032258,5.17745983 L17.4193548,5.17745983 L17.4193548,3.45163988 L20.9032258,3.45163988 Z M25.2580645,3.45163988 L25.2580645,5.17745983 L21.7741935,5.17745983 L21.7741935,3.45163988 L25.2580645,3.45163988 Z" id="Combined-Shape" fill="#CAEFBD"></path>
                            <path d="M15.6344331,12.9436496 C15.6394319,12.3142987 15.1233143,11.8057832 14.4845548,11.8057832 C14.1370697,11.8057832 13.8304652,11.9618622 13.615842,12.1984981 L9.96653495,16.3057541 C9.90184705,16.3178534 9.72811828,16.2928535 9.44534864,16.2307543 C9.16257899,16.1686552 8.82180964,15.9340378 8.42304057,15.526902 C7.69566558,14.8353307 7.32880229,13.9594016 7.32880229,13.9594016 C7.13051679,13.7945513 6.96774194,13.0675243 6.96774194,12.9436496 C6.96774194,11.9996545 6.96774194,10.8491079 6.96774194,9.49200968 L4.58562528,9.8099874 C4.5805152,9.8099874 4.57540513,9.8150222 4.57029505,9.8150222 C4.56518498,9.8150222 4.5600749,9.8150222 4.54985475,9.8150222 L4.25858044,9.86033547 C3.77312325,9.99124045 3.41541795,10.4292687 3.41541795,10.9528886 C3.41541795,10.9579234 3.41541795,10.9579234 3.41030788,10.9629582 L2.66934691,18.3339156 L2.65912676,18.3389504 C2.62335623,18.792083 2.31675169,19.1696935 1.89772548,19.3157029 L0.098978849,20.1514809 L0.0734284707,20.2572118 C0.0734284707,20.2572118 -0.284276826,21.7223407 0.579325961,23.2277479 C1.44292875,24.7331552 4.26369051,25 4.26369051,25 L5.18350413,23.9628298 C5.18350413,23.9628298 8.15245809,24.4310668 9.96653495,22.4977009 C11.6835204,20.670066 15.1233143,14.3430118 15.4350289,13.5780352 C15.4350289,13.5730004 15.440139,13.5730004 15.440139,13.5679656 C15.4605793,13.532722 15.4759095,13.5125828 15.4759095,13.5125828 C15.573001,13.3464341 15.6344331,13.1500766 15.6344331,12.9436496 Z" id="hand" fill="url(#linearGradient-2)"></path>
                            <path d="M22.6451613,7.76618974 L22.6442903,9.49118974 L24.3870968,9.49200968 L24.3870968,11.2178296 L22.6442903,11.2171897 L22.6451613,12.9436496 L20.9032258,12.9436496 L20.9022903,11.2171897 L19.1612903,11.2178296 L19.1612903,9.49200968 L20.9022903,9.49118974 L20.9032258,7.76618974 L22.6451613,7.76618974 Z" id="cross" fill="#A1DC8C"></path>
                        </g>
                        <g id="payment-in-progress-status" transform="translate(11.000000, 11.000000)">
                            <circle id="Oval" stroke="#CAEFBD" fill="#18842E" cx="12" cy="12" r="12.5"></circle>
                            <path d="M13,16 C13.5522847,16 14,16.4477153 14,17 C14,17.5522848 13.5522847,18 13,18 C12.4477153,18 12,17.5522848 12,17 C12,16.4477153 12.4477153,16 13,16 Z M9.63903809,15.4550781 C10.1913228,15.4550781 10.6390381,15.9027934 10.6390381,16.4550781 C10.6390381,17.0073629 10.1913228,17.4550781 9.63903809,17.4550781 C9.08675334,17.4550781 8.63903809,17.0073629 8.63903809,16.4550781 C8.63903809,15.9027934 9.08675334,15.4550781 9.63903809,15.4550781 Z M7.52319336,13.1962891 C8.07547811,13.1962891 8.52319336,13.6440043 8.52319336,14.1962891 C8.52319336,14.7485738 8.07547811,15.1962891 7.52319336,15.1962891 C6.97090861,15.1962891 6.52319336,14.7485738 6.52319336,14.1962891 C6.52319336,13.6440043 6.97090861,13.1962891 7.52319336,13.1962891 Z M12.0452149,6.02038574 C13.9293019,6.02038574 15.479617,6.75146472 16.6961604,8.21362267 L18.1197576,7.06146541 C18.3433023,6.88044246 18.6712692,6.91491317 18.8522921,7.13845789 C18.9267196,7.23036815 18.9676506,7.3448722 18.9683528,7.46313652 L18.9960712,12.131478 C18.9977791,12.4191213 18.7659827,12.6536867 18.4783395,12.6553946 C18.4398782,12.655623 18.4015101,12.6515903 18.3639368,12.6433704 L13.8033727,11.6456549 C13.5223703,11.5841799 13.3444081,11.3065471 13.405883,11.0255447 C13.4311584,10.9100107 13.4950017,10.8065189 13.586912,10.7320914 L15.107,9.50038574 L15.0862548,9.47321743 C14.2891042,8.48834461 13.2754242,7.9959082 12.0452149,7.9959082 C11.0112376,7.9959082 10.1026637,8.34377599 9.31949317,9.03951158 C8.92388075,9.39093636 8.34214722,9.43451223 7.89860349,9.14593377 L7.88275146,9.13562012 C7.48033594,8.87380049 7.36636044,8.3353315 7.62818007,7.93291597 C7.66071132,7.88291559 7.69830282,7.83639649 7.74032835,7.79406237 C8.91593297,6.61161128 10.3508952,6.02038574 12.0452149,6.02038574 Z M7,10 C7.55228475,10 8,10.4477153 8,11 C8,11.5522848 7.55228475,12 7,12 C6.44771525,12 6,11.5522848 6,11 C6,10.4477153 6.44771525,10 7,10 Z" id="arrow-circle" fill="#FFFFFF"></path>
                        </g>
                    </g>
                </g>
            </g>
        </g>
    </g>
</svg>