<?xml version="1.0" encoding="UTF-8"?>
<svg width="22px" height="22px" viewBox="0 0 22 22" version="1.1" xmlns="http://www.w3.org/2000/svg" xmlns:xlink="http://www.w3.org/1999/xlink">
    <title>icon-bypassed-auto</title>
    <g id="Page-1-Icons" stroke="none" stroke-width="1" fill="none" fill-rule="evenodd">
        <g id="PECOS-2.0-Icons-Overview-v21" transform="translate(-1497.000000, -2151.000000)">
            <g id="VERIFICATION-CHECK" transform="translate(1483.000000, 1783.000000)">
                <g id="icon-bypassed-auto" transform="translate(14.000000, 368.000000)">
                    <circle id="Oval" fill="#848D94" cx="11" cy="11" r="11"></circle>
                    <path d="M6.74930267,6.74710541 C7.13982696,6.35658111 7.77299194,6.35658111 8.16351623,6.74710541 L8.16351623,6.74710541 L10.9914095,9.57421219 L13.8203705,6.74710541 C14.2108948,6.35658111 14.8440598,6.35658111 15.234584,6.74710541 C15.6251083,7.1376297 15.6251083,7.77079468 15.234584,8.16131897 L12.4064095,10.9892122 L15.234584,13.8181732 C15.595068,14.1786572 15.6227975,14.7458882 15.3177727,15.1381794 L15.234584,15.2323868 C14.8440598,15.6229111 14.2108948,15.6229111 13.8203705,15.2323868 L13.8203705,15.2323868 L10.9914095,12.4042122 L8.16351623,15.2323868 C7.77299194,15.6229111 7.13982696,15.6229111 6.74930267,15.2323868 C6.35877838,14.8418625 6.35877838,14.2086975 6.74930267,13.8181732 L9.57640945,10.9892122 L6.74930267,8.16131897 C6.38881871,7.80083501 6.36108918,7.23360395 6.66611407,6.84131274 Z" id="x" fill="#FFFFFF"></path>
                </g>
            </g>
        </g>
    </g>
</svg>