<?xml version="1.0" encoding="UTF-8"?>
<svg width="22px" height="22px" viewBox="0 0 22 22" version="1.1" xmlns="http://www.w3.org/2000/svg" xmlns:xlink="http://www.w3.org/1999/xlink">
    <title>icon-missing-data</title>
    <g id="Page-1-Icons" stroke="none" stroke-width="1" fill="none" fill-rule="evenodd">
        <g id="PECOS-2.0-Icons-Overview-v21" transform="translate(-1496.000000, -2041.000000)">
            <g id="VERIFICATION-CHECK" transform="translate(1483.000000, 1783.000000)">
                <g id="icon-missing-data" transform="translate(13.000000, 258.000000)">
                    <circle id="Oval" fill="#E00F16" cx="11" cy="11" r="11"></circle>
                    <path d="M11.5345622,14.068917 C11.5960061,14.068917 11.6482335,14.0475856 11.6912442,14.0049226 C11.734255,13.9622597 11.7557604,13.9104548 11.7557604,13.8495077 L11.7557604,13.8495077 L11.7557604,13.2278481 C11.7557604,12.8987342 11.8602151,12.6214252 12.0691244,12.3959212 C12.2780338,12.1704173 12.5975422,11.9052977 13.0276498,11.6005626 C13.4577573,11.2958275 13.7987711,11.0215659 14.0506912,10.7777778 C14.3026114,10.5339897 14.5238095,10.2170652 14.7142857,9.82700422 C14.9047619,9.43694327 15,8.9737459 15,8.4374121 C15,7.40131271 14.6436252,6.56938584 13.9308756,5.9416315 C13.218126,5.31387717 12.265745,5 11.0737327,5 C10.2749616,5 9.56835637,5.14932021 8.95391705,5.44796062 C8.33947773,5.74660103 7.86021505,6.16713549 7.51612903,6.70956399 C7.17204301,7.2519925 7,7.87060478 7,8.56540084 L7,8.56540084 L7,8.83966245 C7,8.90060947 7.02150538,8.95546179 7.06451613,9.00421941 C7.10752688,9.05297703 7.15975422,9.07735584 7.22119816,9.07735584 L7.22119816,9.07735584 L8.91705069,9.15049226 C9.06451613,9.15049226 9.13824885,9.08345054 9.13824885,8.94936709 L9.13824885,8.94936709 L9.13824885,8.56540084 C9.13824885,8.09001406 9.31029186,7.69995312 9.65437788,7.395218 C9.9984639,7.09048289 10.453149,6.93811533 11.0184332,6.93811533 C11.5591398,6.93811533 11.9953917,7.08134083 12.3271889,7.36779184 C12.6589862,7.65424285 12.8248848,8.03516174 12.8248848,8.51054852 C12.8248848,8.93717768 12.7019969,9.29371777 12.4562212,9.58016878 C12.2104455,9.86661978 11.8417819,10.1865917 11.3502304,10.5400844 C10.7849462,10.9423347 10.3548387,11.3232536 10.0599078,11.6828411 C9.76497696,12.0424285 9.61751152,12.5147679 9.61751152,13.0998594 L9.61751152,13.0998594 L9.61751152,13.8495077 C9.61751152,13.9104548 9.6390169,13.9622597 9.68202765,14.0049226 C9.7250384,14.0475856 9.77726575,14.068917 9.83870968,14.068917 L9.83870968,14.068917 L11.5345622,14.068917 Z M10.6313364,18 C11,18 11.3072197,17.878106 11.5529954,17.6343179 C11.7987711,17.3905298 11.921659,17.0797 11.921659,16.7018284 C11.921659,16.3239569 11.8018433,16.0161744 11.562212,15.778481 C11.3225806,15.5407876 11.0122888,15.4219409 10.6313364,15.4219409 C10.250384,15.4219409 9.93701997,15.5407876 9.69124424,15.778481 C9.44546851,16.0161744 9.32258065,16.3239569 9.32258065,16.7018284 C9.32258065,17.0797 9.44546851,17.3905298 9.69124424,17.6343179 C9.93701997,17.878106 10.250384,18 10.6313364,18 Z" id="?" fill="#FFFFFF" fill-rule="nonzero"></path>
                </g>
            </g>
        </g>
    </g>
</svg>