<?xml version="1.0" encoding="UTF-8"?>
<svg width="32px" height="22px" viewBox="0 0 32 22" version="1.1" xmlns="http://www.w3.org/2000/svg" xmlns:xlink="http://www.w3.org/1999/xlink">
    <title>icon-failed-manual</title>
    <g id="Page-1-Icons" stroke="none" stroke-width="1" fill="none" fill-rule="evenodd">
        <g id="PECOS-2.0-Icons-Overview-v21" transform="translate(-1494.000000, -1934.000000)">
            <g id="VERIFICATION-CHECK" transform="translate(1483.000000, 1783.000000)">
                <g id="icon-failed-manual" transform="translate(11.000000, 151.000000)">
                    <rect id="Rectangle" fill="#E00F16" x="0" y="0" width="32" height="22" rx="11"></rect>
                    <path d="M6,8 C8.91208926,6.38935682 10.5513461,5.54929719 10.9177704,5.47982109 C11.4674069,5.37560695 11.7068628,6.25108706 11.4414978,6.96826172 C11.2645878,7.44637816 10.6316202,7.79029092 9.54259491,8 L16.9599762,8 C17.5122609,8 17.9599762,8.44771525 17.9599762,9 L17.9599762,9.0031929 C17.9599762,9.55547765 17.5122609,10.0031929 16.9599762,10.0031929 L14,10.0031929 L14,10.0031929 L14,13.0048676 C14,14.1094371 13.1045695,15.0048676 12,15.0048676 L8,15.0048676 C6.8954305,15.0048676 6,14.1094371 6,13.0048676 L6,8 L6,8 Z" id="Rectangle" fill="#FFFFFF"></path>
                    <path d="M22.0019226,14.4277344 C22.778573,14.4277344 23.4081726,15.0573339 23.4081726,15.8339844 C23.4081726,16.6106348 22.778573,17.2402344 22.0019226,17.2402344 C21.2252722,17.2402344 20.5956726,16.6106348 20.5956726,15.8339844 C20.5956726,15.0573339 21.2252722,14.4277344 22.0019226,14.4277344 Z M22.0019226,4.71678162 C22.72658,4.71678162 23.314031,5.30423254 23.314031,6.02888998 C23.314031,6.05917468 23.3129825,6.08945031 23.3108874,6.11966245 L22.8164215,13.25 L21.1454697,13.25 L20.6860901,6.12012182 C20.6392678,5.3934076 21.190429,4.76633231 21.9171432,4.71950996 C21.9453665,4.71769154 21.9736409,4.71678162 22.0019226,4.71678162 Z" id="exclamation-mark" fill="#FFFFFF"></path>
                </g>
            </g>
        </g>
    </g>
</svg>