<?xml version="1.0" encoding="UTF-8"?>
<svg width="23px" height="22px" viewBox="0 0 23 22" version="1.1" xmlns="http://www.w3.org/2000/svg" xmlns:xlink="http://www.w3.org/1999/xlink">
    <title>icon-minor-error</title>
    <g id="Page-1-Icons" stroke="none" stroke-width="1" fill="none" fill-rule="evenodd">
        <g id="PECOS-2.0-Icons-Overview-v26" transform="translate(-2386.000000, -1740.000000)">
            <g id="VERIFICATION-CHECK" transform="translate(2370.000000, 1231.000000)">
                <g id="icon-minor-error" transform="translate(16.000000, 509.000000)">
                    <path d="M13.0005845,2.81201502 L21.7169632,19.5821815 C22.1384215,20.3930601 21.8227339,21.3920665 21.0118553,21.8135247 C20.7761395,21.9360392 20.5143911,22 20.2487377,22 L2.73638718,22 C1.82252113,22 1.08168633,21.2591652 1.08168633,20.3452991 C1.08168633,20.0775587 1.14665566,19.8138167 1.27101778,19.5767112 L10.0669895,2.80654474 C10.4914689,1.99724357 11.4916457,1.68528388 12.3009468,2.10976328 C12.6004438,2.2668498 12.844616,2.51193428 13.0005845,2.81201502 Z" fill="#F58900"></path>
                    <path d="M11.4994545,17.0937185 C12.3278816,17.0937185 12.9994545,17.7472758 12.9994545,18.5534796 C12.9994545,19.3596835 12.3278816,20.0132408 11.4994545,20.0132408 C10.6710274,20.0132408 9.9994545,19.3596835 9.9994545,18.5534796 C9.9994545,17.7472758 10.6710274,17.0937185 11.4994545,17.0937185 Z M11.4994545,7.01324081 C12.2709499,7.01324081 12.8963705,7.63866141 12.8963705,8.4101568 C12.8963705,8.44328494 12.895192,8.4764026 12.8928373,8.50944694 L12.3682533,15.8711685 L10.5859047,15.8711685 L10.0985469,8.50996413 C10.0473232,7.73626425 10.6330058,7.0675315 11.4067057,7.01630773 C11.4375797,7.01426368 11.4685129,7.01324081 11.4994545,7.01324081 Z" id="exclamation-mark" fill="#FFFFFF"></path>
                </g>
            </g>
        </g>
    </g>
</svg>