<?xml version="1.0" encoding="UTF-8"?>
<svg width="32px" height="22px" viewBox="0 0 32 22" version="1.1" xmlns="http://www.w3.org/2000/svg" xmlns:xlink="http://www.w3.org/1999/xlink">
    <title>icon-failed-override</title>
    <g id="Page-1-Icons" stroke="none" stroke-width="1" fill="none" fill-rule="evenodd">
        <g id="PECOS-2.0-Icons-Overview-v21" transform="translate(-1494.000000, -2113.000000)">
            <g id="VERIFICATION-CHECK" transform="translate(1483.000000, 1783.000000)">
                <g id="icon-failed-override" transform="translate(11.000000, 330.000000)">
                    <rect id="Rectangle" fill="#E00F16" x="0" y="0" width="32" height="22" rx="11"></rect>
                    <path d="M12.0813796,8.5671267 L13.2186712,9.74797882 L8.5466517,15.4819192 C8.05548251,16.084728 7.16863806,16.1752299 6.56582918,15.6840607 C6.51505203,15.6426874 6.46722387,15.5978213 6.42269321,15.5497892 C5.83781033,14.9189166 5.87509231,13.9333521 6.50596485,13.3484692 C6.52076656,13.3347466 6.5358336,13.3213129 6.55115744,13.3081758 L12.0813796,8.5671267 Z M14.1153993,3.34001999 L14.1215758,3.34619657 C14.5662275,3.79418375 14.5802756,4.508301 14.16372,4.97310409 L16.9363005,7.76576033 L16.9972419,7.70534701 C17.4519893,7.2471884 18.1920459,7.24442305 18.6502045,7.69917043 C18.652271,7.70122159 18.6543299,7.70328047 18.656381,7.70534701 C19.1155391,8.16794938 19.1155391,8.91432957 18.656381,9.37693194 L16.1676724,11.8843093 C15.712925,12.3424679 14.9728685,12.3452333 14.5147099,11.8904859 L14.5085333,11.8843093 C14.0723962,11.4449006 14.0505295,10.7494565 14.442933,10.2843739 L11.6683005,7.48876033 L11.6328672,7.52515889 C11.1781198,7.9833175 10.4380633,7.98608285 9.97990468,7.53133547 L9.9737281,7.52515889 C9.51457005,7.06255652 9.51457005,6.31617632 9.9737281,5.85357396 L12.4624367,3.34619657 C12.9171841,2.88803796 13.6572407,2.88527261 14.1153993,3.34001999 Z" id="mallet" fill="#FFFFFF"></path>
                    <path d="M22.0019226,14.4277344 C22.778573,14.4277344 23.4081726,15.0573339 23.4081726,15.8339844 C23.4081726,16.6106348 22.778573,17.2402344 22.0019226,17.2402344 C21.2252722,17.2402344 20.5956726,16.6106348 20.5956726,15.8339844 C20.5956726,15.0573339 21.2252722,14.4277344 22.0019226,14.4277344 Z M22.0019226,4.71678162 C22.72658,4.71678162 23.314031,5.30423254 23.314031,6.02888998 C23.314031,6.05917468 23.3129825,6.08945031 23.3108874,6.11966245 L22.8164215,13.25 L21.1454697,13.25 L20.6860901,6.12012182 C20.6392678,5.3934076 21.190429,4.76633231 21.9171432,4.71950996 C21.9453665,4.71769154 21.9736409,4.71678162 22.0019226,4.71678162 Z" id="exclamation-mark" fill="#FFFFFF"></path>
                </g>
            </g>
        </g>
    </g>
</svg>