<?xml version="1.0" encoding="UTF-8"?>
<svg width="32px" height="22px" viewBox="0 0 32 22" version="1.1" xmlns="http://www.w3.org/2000/svg" xmlns:xlink="http://www.w3.org/1999/xlink">
    <title>icon-passed-manual</title>
    <g id="Page-1-Icons" stroke="none" stroke-width="1" fill="none" fill-rule="evenodd">
        <g id="PECOS-2.0-Icons-Overview-v21" transform="translate(-1494.000000, -1825.000000)">
            <g id="VERIFICATION-CHECK" transform="translate(1483.000000, 1783.000000)">
                <g id="icon-passed-manual" transform="translate(11.000000, 42.000000)">
                    <rect id="Rectangle" fill="#37A04C" x="0" y="0" width="32" height="22" rx="11"></rect>
                    <path d="M19.7752584,15.3347176 L22.816876,15.355719 L22.816876,15.355719 L22.816876,7.34187783 C22.816876,6.78316682 23.2698008,6.33024205 23.8285118,6.33024205 C24.3872228,6.33024205 24.8401476,6.78316682 24.8401476,7.34187783 L24.8401476,16.3378803 C24.8401476,16.8901651 24.3924323,17.3378803 23.8401476,17.3378803 C23.8386147,17.3378803 23.8370818,17.3378768 23.8355489,17.3378698 L19.7752716,17.3191977 C19.2259084,17.3166713 18.7818968,16.8706131 18.7818968,16.3212441 C18.7818968,15.7763876 19.2235903,15.3346941 19.7684468,15.3346941 C19.7707174,15.3346941 19.7729879,15.334702 19.7752584,15.3347176 Z" id="Rectangle" fill="#FFFFFF" transform="translate(21.811022, 11.836366) rotate(45.000000) translate(-21.811022, -11.836366) "></path>
                    <path d="M6,8 C8.91208926,6.38935682 10.5513461,5.54929719 10.9177704,5.47982109 C11.4674069,5.37560695 11.7068628,6.25108706 11.4414978,6.96826172 C11.2645878,7.44637816 10.6316202,7.79029092 9.54259491,8 L16.9599762,8 C17.5122609,8 17.9599762,8.44771525 17.9599762,9 L17.9599762,9.0031929 C17.9599762,9.55547765 17.5122609,10.0031929 16.9599762,10.0031929 L14,10.0031929 L14,10.0031929 L14,13.0048676 C14,14.1094371 13.1045695,15.0048676 12,15.0048676 L8,15.0048676 C6.8954305,15.0048676 6,14.1094371 6,13.0048676 L6,8 L6,8 Z" id="Rectangle" fill="#FFFFFF"></path>
                </g>
            </g>
        </g>
    </g>
</svg>