<?xml version="1.0" encoding="UTF-8"?>
<svg width="22px" height="22px" viewBox="0 0 22 22" version="1.1" xmlns="http://www.w3.org/2000/svg" xmlns:xlink="http://www.w3.org/1999/xlink">
    <title>icon-expired</title>
    <g id="Page-1-Icons" stroke="none" stroke-width="1" fill="none" fill-rule="evenodd">
        <g id="PECOS-2.0-Icons-Overview-v21" transform="translate(-1496.000000, -2077.000000)">
            <g id="VERIFICATION-CHECK" transform="translate(1483.000000, 1783.000000)">
                <g id="icon-expired" transform="translate(13.000000, 294.000000)">
                    <circle id="Oval" fill="#E00F16" cx="11" cy="11" r="11"></circle>
                    <path d="M11,4 C14.8659932,4 18,7.13400675 18,11 C18,14.8659932 14.8659932,18 11,18 C7.13400675,18 4,14.8659932 4,11 C4,7.13400675 7.13400675,4 11,4 Z M11,5.70756531 C8.10050506,5.70756531 5.75,8.05807037 5.75,10.9575653 C5.75,13.8570602 8.10050506,16.2075653 11,16.2075653 C13.8994949,16.2075653 16.25,13.8570602 16.25,10.9575653 C16.25,8.05807037 13.8994949,5.70756531 11,5.70756531 Z M11.0646608,6.75284195 C10.6438497,6.75284195 10.3027148,7.09397678 10.3027148,7.51478791 L10.3027148,10.2788916 L10.3027148,10.2788916 L8.47848123,10.2788916 C8.07363181,10.2788916 7.74406674,10.6044802 7.73915243,11.0092998 C7.73431453,11.4078258 8.05346181,11.7348169 8.45198785,11.7396548 C8.45490765,11.7396902 8.45782764,11.7397079 8.46074765,11.7397079 L11.8266068,11.7397079 L11.8266068,11.7397079 L11.8266068,7.51478791 C11.8266068,7.09397678 11.4854719,6.75284195 11.0646608,6.75284195 Z" id="Combined-Shape-Copy-10" fill="#FFFFFF"></path>
                </g>
            </g>
        </g>
    </g>
</svg>