<?xml version="1.0" encoding="UTF-8"?>
<svg width="24px" height="22px" viewBox="0 0 24 22" version="1.1" xmlns="http://www.w3.org/2000/svg" xmlns:xlink="http://www.w3.org/1999/xlink">
    <title>icon-critical-error</title>
    <g id="Page-1-Icons" stroke="none" stroke-width="1" fill="none" fill-rule="evenodd">
        <g id="PECOS-2.0-Icons-Overview-v26" transform="translate(-2385.000000, -1669.000000)">
            <g id="VERIFICATION-CHECK" transform="translate(2370.000000, 1231.000000)">
                <g id="icon-critical-error" transform="translate(15.000000, 438.000000)">
                    <path d="M6.90850546,0 L17.1888716,0 C17.9423691,-2.13681668e-15 18.6319162,0.423490936 18.972672,1.09553546 L23.5409582,10.1051875 C23.8294703,10.674196 23.8292108,11.3467073 23.5402597,11.915493 L18.9730361,20.9058409 C18.6320133,21.577127 17.9428761,22 17.1899342,22 L6.907436,22 C6.16009474,22 5.47510287,21.5833322 5.13144,20.9196946 L0.475806293,11.9293334 C0.17738773,11.3530659 0.17712034,10.6678308 0.475089073,10.0913305 L5.13179223,1.0816917 C5.47519475,0.417287618 6.16060301,-3.06701759e-16 6.90850546,0 Z" fill="#E00F16"></path>
                    <path d="M7.01918258,6.06077003 C7.40970688,5.67024574 8.04287185,5.67024574 8.43339615,6.06077003 L8.43339615,6.06077003 L11.9682894,9.59587681 L15.504464,6.06077003 C15.8949883,5.67024574 16.5281532,5.67024574 16.9186775,6.06077003 C17.3092018,6.45129432 17.3092018,7.0844593 16.9186775,7.47498359 L13.3832894,11.0098768 L16.9186775,14.5460514 C17.2791615,14.9065354 17.306891,15.4737664 17.0018661,15.8660576 L16.9186775,15.960265 C16.5281532,16.3507893 15.8949883,16.3507893 15.504464,15.960265 L15.504464,15.960265 L11.9682894,12.4248768 L8.43339615,15.960265 C8.04287185,16.3507893 7.40970688,16.3507893 7.01918258,15.960265 C6.62865829,15.5697407 6.62865829,14.9365757 7.01918258,14.5460514 L10.5542894,11.0098768 L7.01918258,7.47498359 C6.65869862,7.11449963 6.63096909,6.54726858 6.93599398,6.15497737 Z" id="icon-close-white" fill="#FFFFFF"></path>
                </g>
            </g>
        </g>
    </g>
</svg>