<?xml version="1.0" encoding="UTF-8"?>
<svg width="32px" height="22px" viewBox="0 0 32 22" version="1.1" xmlns="http://www.w3.org/2000/svg" xmlns:xlink="http://www.w3.org/1999/xlink">
    <title>icon-passed-override</title>
    <g id="Page-1-Icons" stroke="none" stroke-width="1" fill="none" fill-rule="evenodd">
        <g id="PECOS-2.0-Icons-Overview-v21" transform="translate(-1494.000000, -1898.000000)">
            <g id="VERIFICATION-CHECK" transform="translate(1483.000000, 1783.000000)">
                <g id="icon-passed-override" transform="translate(11.000000, 115.000000)">
                    <rect id="Rectangle" fill="#37A04C" x="0" y="0" width="32" height="22" rx="11"></rect>
                    <path d="M11.0813796,8.5671267 L12.2186712,9.74797882 L7.5466517,15.4819192 C7.05548251,16.084728 6.16863806,16.1752299 5.56582918,15.6840607 C5.51505203,15.6426874 5.46722387,15.5978213 5.42269321,15.5497892 C4.83781033,14.9189166 4.87509231,13.9333521 5.50596485,13.3484692 C5.52076656,13.3347466 5.5358336,13.3213129 5.55115744,13.3081758 L11.0813796,8.5671267 Z M13.1153993,3.34001999 L13.1215758,3.34619657 C13.5662275,3.79418375 13.5802756,4.508301 13.16372,4.97310409 L15.9363005,7.76576033 L15.9972419,7.70534701 C16.4519893,7.2471884 17.1920459,7.24442305 17.6502045,7.69917043 C17.652271,7.70122159 17.6543299,7.70328047 17.656381,7.70534701 C18.1155391,8.16794938 18.1155391,8.91432957 17.656381,9.37693194 L15.1676724,11.8843093 C14.712925,12.3424679 13.9728685,12.3452333 13.5147099,11.8904859 L13.5085333,11.8843093 C13.0723962,11.4449006 13.0505295,10.7494565 13.442933,10.2843739 L10.6683005,7.48876033 L10.6328672,7.52515889 C10.1781198,7.9833175 9.43806329,7.98608285 8.97990468,7.53133547 L8.9737281,7.52515889 C8.51457005,7.06255652 8.51457005,6.31617632 8.9737281,5.85357396 L11.4624367,3.34619657 C11.9171841,2.88803796 12.6572407,2.88527261 13.1153993,3.34001999 Z" id="mallet" fill="#FFFFFF"></path>
                    <path d="M19.9995688,15.5336844 L23.0411864,15.5546857 L23.0411864,15.5546857 L23.0411864,7.54084456 C23.0411864,6.98213355 23.4941111,6.52920878 24.0528222,6.52920878 C24.6115332,6.52920878 25.0644579,6.98213355 25.0644579,7.54084456 L25.0644579,16.5368471 C25.0644579,17.0891318 24.6167427,17.5368471 24.0644579,17.5368471 C24.062925,17.5368471 24.0613922,17.5368435 24.0598593,17.5368365 L19.999582,17.5181644 C19.4502188,17.5156381 19.0062072,17.0695798 19.0062072,16.5202109 C19.0062072,15.9753543 19.4479007,15.5336609 19.9927572,15.5336609 C19.9950277,15.5336609 19.9972983,15.5336687 19.9995688,15.5336844 Z" id="Rectangle" fill="#FFFFFF" transform="translate(22.035333, 12.035333) rotate(45.000000) translate(-22.035333, -12.035333) "></path>
                </g>
            </g>
        </g>
    </g>
</svg>