<?xml version="1.0" encoding="UTF-8"?>
<svg width="32px" height="22px" viewBox="0 0 32 22" version="1.1" xmlns="http://www.w3.org/2000/svg" xmlns:xlink="http://www.w3.org/1999/xlink">
    <title>icon-bypassed-manual</title>
    <g id="Page-1-Icons" stroke="none" stroke-width="1" fill="none" fill-rule="evenodd">
        <g id="PECOS-2.0-Icons-Overview-v21" transform="translate(-1494.000000, -2184.000000)">
            <g id="VERIFICATION-CHECK" transform="translate(1483.000000, 1783.000000)">
                <g id="icon-bypassed-manual" transform="translate(11.000000, 401.000000)">
                    <rect id="Rectangle" fill="#848D94" x="0" y="0" width="32" height="22" rx="11"></rect>
                    <path d="M5,6 C7.91208926,4.38935682 9.55134606,3.54929719 9.91777039,3.47982109 C10.4674069,3.37560695 10.7068628,4.25108706 10.4414978,4.96826172 C10.2645878,5.44637816 9.63162016,5.79029092 8.54259491,6 L15.9599762,6 C16.5122609,6 16.9599762,6.44771525 16.9599762,7 L16.9599762,7.0031929 C16.9599762,7.55547765 16.5122609,8.0031929 15.9599762,8.0031929 L13,8.0031929 L13,8.0031929 L13,11.0048676 C13,12.1094371 12.1045695,13.0048676 11,13.0048676 L7,13.0048676 C5.8954305,13.0048676 5,12.1094371 5,11.0048676 L5,6 L5,6 Z" id="Rectangle" fill="#FFFFFF"></path>
                    <path d="M17.7493027,8.74710541 C18.139827,8.35658111 18.7729919,8.35658111 19.1635162,8.74710541 L19.1635162,8.74710541 L21.9914095,11.5742122 L24.8203705,8.74710541 C25.2108948,8.35658111 25.8440598,8.35658111 26.234584,8.74710541 C26.6251083,9.1376297 26.6251083,9.77079468 26.234584,10.161319 L23.4064095,12.9892122 L26.234584,15.8181732 C26.595068,16.1786572 26.6227975,16.7458882 26.3177727,17.1381794 L26.234584,17.2323868 C25.8440598,17.6229111 25.2108948,17.6229111 24.8203705,17.2323868 L24.8203705,17.2323868 L21.9914095,14.4042122 L19.1635162,17.2323868 C18.7729919,17.6229111 18.139827,17.6229111 17.7493027,17.2323868 C17.3587784,16.8418625 17.3587784,16.2086975 17.7493027,15.8181732 L20.5764095,12.9892122 L17.7493027,10.161319 C17.3888187,9.80083501 17.3610892,9.23360395 17.6661141,8.84131274 Z" id="x" fill="#FFFFFF"></path>
                </g>
            </g>
        </g>
    </g>
</svg>