<?xml version="1.0" encoding="UTF-8"?>
<svg width="56px" height="17px" viewBox="0 0 56 17" version="1.1" xmlns="http://www.w3.org/2000/svg" xmlns:xlink="http://www.w3.org/1999/xlink">
    <title>icon-next-phase-arrow</title>
    <g id="Page-1-Icons" stroke="none" stroke-width="1" fill="none" fill-rule="evenodd">
        <g id="PECOS-2.0-Icons-Overview-v32-pending-reviews" transform="translate(-1961.000000, -1767.000000)" fill="#18DCDC">
            <g id="icon-next-phase-arrow" transform="translate(1961.000000, 1767.000000)">
                <path d="M44.5602506,1.17167684 L54.5074343,7.89962551 C54.9649046,8.20904337 55.0849247,8.83072903 54.7755069,9.28819927 C54.7015279,9.39757625 54.6066192,9.49121866 54.4962584,9.56372192 L44.5490747,16.0986849 C44.0874899,16.4019305 43.4674723,16.2735712 43.1642267,15.8119863 C43.0570871,15.6489039 43,15.4580393 43,15.2629116 L43,2 C43,1.44771525 43.4477153,1 44,1 C44.199703,1 44.394832,1.05979312 44.5602506,1.17167684 Z M37.5,10.1163745 C38.3284271,10.1163745 39,9.44480165 39,8.61637453 C39,7.7879474 38.3284271,7.11637453 37.5,7.11637453 C36.6715729,7.11637453 36,7.7879474 36,8.61637453 C36,9.44480165 36.6715729,10.1163745 37.5,10.1163745 Z M30.5,10.1163745 C31.3284271,10.1163745 32,9.44480165 32,8.61637453 C32,7.7879474 31.3284271,7.11637453 30.5,7.11637453 C29.6715729,7.11637453 29,7.7879474 29,8.61637453 C29,9.44480165 29.6715729,10.1163745 30.5,10.1163745 Z M23.5,10.1163745 C24.3284271,10.1163745 25,9.44480165 25,8.61637453 C25,7.7879474 24.3284271,7.11637453 23.5,7.11637453 C22.6715729,7.11637453 22,7.7879474 22,8.61637453 C22,9.44480165 22.6715729,10.1163745 23.5,10.1163745 Z M16.5,10.1163745 C17.3284271,10.1163745 18,9.44480165 18,8.61637453 C18,7.7879474 17.3284271,7.11637453 16.5,7.11637453 C15.6715729,7.11637453 15,7.7879474 15,8.61637453 C15,9.44480165 15.6715729,10.1163745 16.5,10.1163745 Z M9.5,10.1163745 C10.3284271,10.1163745 11,9.44480165 11,8.61637453 C11,7.7879474 10.3284271,7.11637453 9.5,7.11637453 C8.67157288,7.11637453 8,7.7879474 8,8.61637453 C8,9.44480165 8.67157288,10.1163745 9.5,10.1163745 Z M2.5,10.1163745 C3.32842712,10.1163745 4,9.44480165 4,8.61637453 C4,7.7879474 3.32842712,7.11637453 2.5,7.11637453 C1.67157288,7.11637453 1,7.7879474 1,8.61637453 C1,9.44480165 1.67157288,10.1163745 2.5,10.1163745 Z"></path>
            </g>
        </g>
    </g>
</svg>