<?xml version="1.0" encoding="UTF-8"?>
<svg width="2px" height="238px" viewBox="0 0 2 238" version="1.1" xmlns="http://www.w3.org/2000/svg" xmlns:xlink="http://www.w3.org/1999/xlink">
    <title>vertical-dashed-line</title>
    <g id="Page-1-Icons" stroke="none" stroke-width="1" fill="none" fill-rule="evenodd">
        <g id="PECOS-2.0-Icons-Overview-v32-pending-reviews" transform="translate(-1964.000000, -1519.000000)" fill="#15BBBB">
            <g id="DASHED-LINES" transform="translate(1952.000000, 1464.000000)">
                <path d="M12,247 L14,247 L14,253 L12,253 L12,247 Z M12,271 L14,271 L14,277 L12,277 L12,271 Z M12,255 L14,255 L14,261 L12,261 L12,255 Z M12,279 L14,279 L14,285 L12,285 L12,279 Z M12,287 L14,287 L14,293 L12,293 L12,287 Z M12,263 L14,263 L14,269 L12,269 L12,263 Z M12,199 L14,199 L14,205 L12,205 L12,199 Z M12,223 L14,223 L14,229 L12,229 L12,223 Z M12,207 L14,207 L14,213 L12,213 L12,207 Z M12,231 L14,231 L14,237 L12,237 L12,231 Z M12,215 L14,215 L14,221 L12,221 L12,215 Z M12,239 L14,239 L14,245 L12,245 L12,239 Z M12,151 L14,151 L14,157 L12,157 L12,151 Z M12,175 L14,175 L14,181 L12,181 L12,175 Z M12,159 L14,159 L14,165 L12,165 L12,159 Z M12,183 L14,183 L14,189 L12,189 L12,183 Z M12,167 L14,167 L14,173 L12,173 L12,167 Z M12,191 L14,191 L14,197 L12,197 L12,191 Z M12,103 L14,103 L14,109 L12,109 L12,103 Z M12,127 L14,127 L14,133 L12,133 L12,127 Z M12,111 L14,111 L14,117 L12,117 L12,111 Z M12,135 L14,135 L14,141 L12,141 L12,135 Z M12,119 L14,119 L14,125 L12,125 L12,119 Z M12,143 L14,143 L14,149 L12,149 L12,143 Z M12,55 L14,55 L14,61 L12,61 L12,55 Z M12,79 L14,79 L14,85 L12,85 L12,79 Z M12,63 L14,63 L14,69 L12,69 L12,63 Z M12,87 L14,87 L14,93 L12,93 L12,87 Z M12,71 L14,71 L14,77 L12,77 L12,71 Z M12,95 L14,95 L14,101 L12,101 L12,95 Z" id="vertical-dashed-line"></path>
            </g>
        </g>
    </g>
</svg>