<?xml version="1.0" encoding="UTF-8"?>
<svg width="121px" height="29px" viewBox="0 0 121 29" version="1.1" xmlns="http://www.w3.org/2000/svg" xmlns:xlink="http://www.w3.org/1999/xlink">
    <title>icon-sole-owner-flap-no-content</title>
    <g id="Page-1-Icons" stroke="none" stroke-width="1" fill="none" fill-rule="evenodd">
        <g id="PECOS-2.0-Icons-Overview-v31" transform="translate(-1912.000000, -1887.000000)">
            <g id="SOLE-OWNER-FLAP" transform="translate(1903.000000, 1813.000000)">
                <g id="icon-sole-owner-flap-no-content" transform="translate(10.000000, 75.000000)">
                    <path d="M118,-0.5 C118.414214,-0.5 118.789214,-0.332106781 119.06066,-0.0606601718 C119.332107,0.210786438 119.5,0.585786438 119.5,1 L119.5,1 L119.5,24.5 L1,24.5 C0.585786438,24.5 0.210786438,24.3321068 -0.0606601718,24.0606602 C-0.332106781,23.7892136 -0.5,23.4142136 -0.5,23 L-0.5,23 L-0.5,1 C-0.5,0.585786438 -0.332106781,0.210786438 -0.0606601718,-0.0606601718 C0.210786438,-0.332106781 0.585786438,-0.5 1,-0.5 L1,-0.5 Z" id="label-bgd" stroke="#CEE3F5" fill="#EBF6FD"></path>
                    <polygon id="Rectangle" fill="#0573BB" points="117 24 120 24 117 28"></polygon>
                </g>
            </g>
        </g>
    </g>
</svg>